<?xml version="1.0" encoding="UTF-8" standalone="no"?>
<!DOCTYPE svg PUBLIC "-//W3C//DTD SVG 1.1//EN"
 "http://www.w3.org/Graphics/SVG/1.1/DTD/svg11.dtd">
<!-- Generated by graphviz version 2.44.0 ()
 -->
<!-- Title: modbusBufferAllocateADU Pages: 1 -->
<svg width="1072pt" height="712pt"
 viewBox="0.00 0.00 1072.00 712.00" xmlns="http://www.w3.org/2000/svg" xmlns:xlink="http://www.w3.org/1999/xlink">
<g id="graph0" class="graph" transform="scale(1 1) rotate(0) translate(4 708)">
<title>modbusBufferAllocateADU</title>
<!-- Node1 -->
<g id="node1" class="node">
<title>Node1</title>
<g id="a_node1"><a xlink:title="Allocates memory to hold Modbus ADU.">
<polygon fill="#bfbfbf" stroke="black" points="931,-418.5 931,-437.5 1064,-437.5 1064,-418.5 931,-418.5"/>
<text text-anchor="middle" x="997.5" y="-425.5" font-family="Helvetica,sans-Serif" font-size="10.00">modbusBufferAllocateADU</text>
</a>
</g>
</g>
<!-- Node2 -->
<g id="node2" class="node">
<title>Node2</title>
<g id="a_node2"><a xlink:href="base_8h.html#a00605b5ebcf90f8035bfaa7a7c039776" target="_top" xlink:title="Frees memory allocated inside the buffer.">
<polygon fill="none" stroke="black" points="769.5,-551.5 769.5,-570.5 865.5,-570.5 865.5,-551.5 769.5,-551.5"/>
<text text-anchor="middle" x="817.5" y="-558.5" font-family="Helvetica,sans-Serif" font-size="10.00">modbusBufferFree</text>
</a>
</g>
</g>
<!-- Node1&#45;&gt;Node2 -->
<g id="edge1" class="edge">
<title>Node1&#45;&gt;Node2</title>
<path fill="none" stroke="midnightblue" d="M975.58,-443.63C938.5,-471.34 862.29,-528.28 831.67,-551.16"/>
<polygon fill="midnightblue" stroke="midnightblue" points="977.78,-446.35 983.7,-437.57 973.59,-440.75 977.78,-446.35"/>
</g>
<!-- Node14 -->
<g id="node14" class="node">
<title>Node14</title>
<g id="a_node14"><a xlink:href="master_8h.html#a004b932b2b69ad0c6649c26d974146b2" target="_top" xlink:title="Allocates memory for the request frame.">
<polygon fill="none" stroke="black" points="741.5,-190.5 741.5,-209.5 893.5,-209.5 893.5,-190.5 741.5,-190.5"/>
<text text-anchor="middle" x="817.5" y="-197.5" font-family="Helvetica,sans-Serif" font-size="10.00">modbusMasterAllocateRequest</text>
</a>
</g>
</g>
<!-- Node1&#45;&gt;Node14 -->
<g id="edge13" class="edge">
<title>Node1&#45;&gt;Node14</title>
<path fill="none" stroke="midnightblue" d="M982.79,-410.44C947.28,-364.95 853.15,-244.38 825.95,-209.55"/>
<polygon fill="midnightblue" stroke="midnightblue" points="980.17,-412.76 989.08,-418.49 985.68,-408.46 980.17,-412.76"/>
</g>
<!-- Node26 -->
<g id="node26" class="node">
<title>Node26</title>
<g id="a_node26"><a xlink:href="slave_8h.html#ad1165bb6d12af1db502a05df5da55aed" target="_top" xlink:title="Allocates memory for slave&#39;s response frame.">
<polygon fill="none" stroke="black" points="740,-418.5 740,-437.5 895,-437.5 895,-418.5 740,-418.5"/>
<text text-anchor="middle" x="817.5" y="-425.5" font-family="Helvetica,sans-Serif" font-size="10.00">modbusSlaveAllocateResponse</text>
</a>
</g>
</g>
<!-- Node1&#45;&gt;Node26 -->
<g id="edge25" class="edge">
<title>Node1&#45;&gt;Node26</title>
<path fill="none" stroke="midnightblue" d="M920.71,-428C912.21,-428 903.54,-428 895.03,-428"/>
<polygon fill="midnightblue" stroke="midnightblue" points="920.98,-431.5 930.98,-428 920.98,-424.5 920.98,-431.5"/>
</g>
<!-- Node3 -->
<g id="node3" class="node">
<title>Node3</title>
<g id="a_node3"><a xlink:href="base_8h.html#ac4ff5a6ae685570f045448e76e518a0c" target="_top" xlink:title="Equivalent of modbusBufferFree() \copydetail modbusBufferFree()">
<polygon fill="none" stroke="black" points="573.5,-646.5 573.5,-665.5 683.5,-665.5 683.5,-646.5 573.5,-646.5"/>
<text text-anchor="middle" x="628.5" y="-653.5" font-family="Helvetica,sans-Serif" font-size="10.00">modbusBufferDestroy</text>
</a>
</g>
</g>
<!-- Node2&#45;&gt;Node3 -->
<g id="edge2" class="edge">
<title>Node2&#45;&gt;Node3</title>
<path fill="none" stroke="midnightblue" d="M788.39,-575.28C749.73,-594.92 681.2,-629.74 648.23,-646.48"/>
<polygon fill="midnightblue" stroke="midnightblue" points="790.21,-578.28 797.54,-570.63 787.04,-572.04 790.21,-578.28"/>
</g>
<!-- Node8 -->
<g id="node8" class="node">
<title>Node8</title>
<g id="a_node8"><a xlink:href="master_8h.html#a040a82085ce05ff95c53d3dca4c3acfd" target="_top" xlink:title="Frees memory allocated for master&#39;s request frame.">
<polygon fill="none" stroke="black" points="560,-532.5 560,-551.5 697,-551.5 697,-532.5 560,-532.5"/>
<text text-anchor="middle" x="628.5" y="-539.5" font-family="Helvetica,sans-Serif" font-size="10.00">modbusMasterFreeRequest</text>
</a>
</g>
</g>
<!-- Node2&#45;&gt;Node8 -->
<g id="edge7" class="edge">
<title>Node2&#45;&gt;Node8</title>
<path fill="none" stroke="midnightblue" d="M759.3,-555.19C739.68,-553.19 717.53,-550.94 697.16,-548.87"/>
<polygon fill="midnightblue" stroke="midnightblue" points="759.01,-558.68 769.31,-556.21 759.72,-551.71 759.01,-558.68"/>
</g>
<!-- Node10 -->
<g id="node10" class="node">
<title>Node10</title>
<g id="a_node10"><a xlink:href="slave_8h.html#aac289ce160ea61287c98e8a1ee4353d5" target="_top" xlink:title="Frees memory allocated for slave&#39;s response frame.">
<polygon fill="none" stroke="black" points="559,-570.5 559,-589.5 698,-589.5 698,-570.5 559,-570.5"/>
<text text-anchor="middle" x="628.5" y="-577.5" font-family="Helvetica,sans-Serif" font-size="10.00">modbusSlaveFreeResponse</text>
</a>
</g>
</g>
<!-- Node2&#45;&gt;Node10 -->
<g id="edge9" class="edge">
<title>Node2&#45;&gt;Node10</title>
<path fill="none" stroke="midnightblue" d="M759.19,-566.82C739.94,-568.78 718.26,-570.98 698.23,-573.02"/>
<polygon fill="midnightblue" stroke="midnightblue" points="759.72,-570.29 769.31,-565.79 759.01,-563.32 759.72,-570.29"/>
</g>
<!-- Node4 -->
<g id="node4" class="node">
<title>Node4</title>
<g id="a_node4"><a xlink:href="master_8h.html#a5fe38fae0f89de04fa616d105f660d25" target="_top" xlink:title="Deinitializes a ModbusMaster struct.">
<polygon fill="none" stroke="black" points="382.5,-646.5 382.5,-665.5 496.5,-665.5 496.5,-646.5 382.5,-646.5"/>
<text text-anchor="middle" x="439.5" y="-653.5" font-family="Helvetica,sans-Serif" font-size="10.00">modbusMasterDestroy</text>
</a>
</g>
</g>
<!-- Node3&#45;&gt;Node4 -->
<g id="edge3" class="edge">
<title>Node3&#45;&gt;Node4</title>
<path fill="none" stroke="midnightblue" d="M563.33,-656C541.69,-656 517.72,-656 496.74,-656"/>
<polygon fill="midnightblue" stroke="midnightblue" points="563.41,-659.5 573.41,-656 563.41,-652.5 563.41,-659.5"/>
</g>
<!-- Node6 -->
<g id="node6" class="node">
<title>Node6</title>
<g id="a_node6"><a xlink:href="slave_8h.html#a70695c3b7355bc0a3e6d49c46a4eef1f" target="_top" xlink:title="Frees memory allocated in the ModbusSlave struct.">
<polygon fill="none" stroke="black" points="385,-684.5 385,-703.5 494,-703.5 494,-684.5 385,-684.5"/>
<text text-anchor="middle" x="439.5" y="-691.5" font-family="Helvetica,sans-Serif" font-size="10.00">modbusSlaveDestroy</text>
</a>
</g>
</g>
<!-- Node3&#45;&gt;Node6 -->
<g id="edge5" class="edge">
<title>Node3&#45;&gt;Node6</title>
<path fill="none" stroke="midnightblue" d="M570.37,-667.61C543.77,-673.01 512.53,-679.36 487.35,-684.48"/>
<polygon fill="midnightblue" stroke="midnightblue" points="571.21,-671.01 580.31,-665.59 569.82,-664.15 571.21,-671.01"/>
</g>
<!-- Node5 -->
<g id="node5" class="node">
<title>Node5</title>
<g id="a_node5"><a xlink:href="classllm_1_1Master.html#adae54d760d1eb2f0babcaff59325376d" target="_top" xlink:title=" ">
<polygon fill="none" stroke="black" points="201,-646.5 201,-665.5 305,-665.5 305,-646.5 201,-646.5"/>
<text text-anchor="middle" x="253" y="-653.5" font-family="Helvetica,sans-Serif" font-size="10.00">llm::Master::~Master</text>
</a>
</g>
</g>
<!-- Node4&#45;&gt;Node5 -->
<g id="edge4" class="edge">
<title>Node4&#45;&gt;Node5</title>
<path fill="none" stroke="midnightblue" d="M372.1,-656C350.04,-656 325.85,-656 305.13,-656"/>
<polygon fill="midnightblue" stroke="midnightblue" points="372.39,-659.5 382.39,-656 372.39,-652.5 372.39,-659.5"/>
</g>
<!-- Node7 -->
<g id="node7" class="node">
<title>Node7</title>
<g id="a_node7"><a xlink:href="classllm_1_1Slave.html#a46b8ac6f2b8dee5550d18bd7f1dd355d" target="_top" xlink:title=" ">
<polygon fill="none" stroke="black" points="206.5,-684.5 206.5,-703.5 299.5,-703.5 299.5,-684.5 206.5,-684.5"/>
<text text-anchor="middle" x="253" y="-691.5" font-family="Helvetica,sans-Serif" font-size="10.00">llm::Slave::~Slave</text>
</a>
</g>
</g>
<!-- Node6&#45;&gt;Node7 -->
<g id="edge6" class="edge">
<title>Node6&#45;&gt;Node7</title>
<path fill="none" stroke="midnightblue" d="M374.61,-694C349.88,-694 322.14,-694 299.51,-694"/>
<polygon fill="midnightblue" stroke="midnightblue" points="374.64,-697.5 384.64,-694 374.64,-690.5 374.64,-697.5"/>
</g>
<!-- Node9 -->
<g id="node9" class="node">
<title>Node9</title>
<g id="a_node9"><a xlink:href="classllm_1_1Master.html#a6c3883d0f98a5b4255a02f46f33c2423" target="_top" xlink:title=" ">
<polygon fill="none" stroke="black" points="379,-532.5 379,-551.5 500,-551.5 500,-532.5 379,-532.5"/>
<text text-anchor="middle" x="439.5" y="-539.5" font-family="Helvetica,sans-Serif" font-size="10.00">llm::Master::freeRequest</text>
</a>
</g>
</g>
<!-- Node8&#45;&gt;Node9 -->
<g id="edge8" class="edge">
<title>Node8&#45;&gt;Node9</title>
<path fill="none" stroke="midnightblue" d="M549.77,-542C533.2,-542 515.94,-542 500.17,-542"/>
<polygon fill="midnightblue" stroke="midnightblue" points="549.99,-545.5 559.99,-542 549.99,-538.5 549.99,-545.5"/>
</g>
<!-- Node11 -->
<g id="node11" class="node">
<title>Node11</title>
<g id="a_node11"><a xlink:href="classllm_1_1Slave.html#aadbd0a4dc7769b5c393d6dfe5a344b8a" target="_top" xlink:title=" ">
<polygon fill="none" stroke="black" points="378,-608.5 378,-627.5 501,-627.5 501,-608.5 378,-608.5"/>
<text text-anchor="middle" x="439.5" y="-615.5" font-family="Helvetica,sans-Serif" font-size="10.00">llm::Slave::freeResponse</text>
</a>
</g>
</g>
<!-- Node10&#45;&gt;Node11 -->
<g id="edge10" class="edge">
<title>Node10&#45;&gt;Node11</title>
<path fill="none" stroke="midnightblue" d="M570.37,-591.61C543.77,-597.01 512.53,-603.36 487.35,-608.48"/>
<polygon fill="midnightblue" stroke="midnightblue" points="571.21,-595.01 580.31,-589.59 569.82,-588.15 571.21,-595.01"/>
</g>
<!-- Node12 -->
<g id="node12" class="node">
<title>Node12</title>
<g id="a_node12"><a xlink:href="slave_8h.html#a6a1e63faa64b7ca4b91d1ce7988be850" target="_top" xlink:title="Parses provided Modbus RTU request frame and generates a Modbus RTU response.">
<polygon fill="none" stroke="black" points="186.5,-513.5 186.5,-532.5 319.5,-532.5 319.5,-513.5 186.5,-513.5"/>
<text text-anchor="middle" x="253" y="-520.5" font-family="Helvetica,sans-Serif" font-size="10.00">modbusParseRequestRTU</text>
</a>
</g>
</g>
<!-- Node10&#45;&gt;Node12 -->
<g id="edge11" class="edge">
<title>Node10&#45;&gt;Node12</title>
<path fill="none" stroke="midnightblue" d="M548.82,-579.85C495.59,-578.41 423.95,-573.87 362,-561 331.25,-554.61 297.32,-541.63 275.85,-532.63"/>
<polygon fill="midnightblue" stroke="midnightblue" points="548.8,-583.35 558.88,-580.09 548.97,-576.35 548.8,-583.35"/>
</g>
<!-- Node13 -->
<g id="node13" class="node">
<title>Node13</title>
<g id="a_node13"><a xlink:href="classllm_1_1Slave.html#a001591b9a38b69cf29adc853872a09fe" target="_top" xlink:title=" ">
<polygon fill="none" stroke="black" points="0.5,-513.5 0.5,-532.5 143.5,-532.5 143.5,-513.5 0.5,-513.5"/>
<text text-anchor="middle" x="72" y="-520.5" font-family="Helvetica,sans-Serif" font-size="10.00">llm::Slave::parseRequestRTU</text>
</a>
</g>
</g>
<!-- Node12&#45;&gt;Node13 -->
<g id="edge12" class="edge">
<title>Node12&#45;&gt;Node13</title>
<path fill="none" stroke="midnightblue" d="M176.16,-523C165.41,-523 154.4,-523 143.75,-523"/>
<polygon fill="midnightblue" stroke="midnightblue" points="176.36,-526.5 186.36,-523 176.36,-519.5 176.36,-526.5"/>
</g>
<!-- Node15 -->
<g id="node15" class="node">
<title>Node15</title>
<g id="a_node15"><a xlink:href="master__func_8h.html#ad3a6d4576d762da3eb0bd73aa5bb24fe" target="_top" xlink:title="Read mutiple coils/discrete inputs/holding registers/input registers.">
<polygon fill="none" stroke="black" points="553,-133.5 553,-152.5 704,-152.5 704,-133.5 553,-133.5"/>
<text text-anchor="middle" x="628.5" y="-140.5" font-family="Helvetica,sans-Serif" font-size="10.00">modbusBuildRequest01020304</text>
</a>
</g>
</g>
<!-- Node14&#45;&gt;Node15 -->
<g id="edge14" class="edge">
<title>Node14&#45;&gt;Node15</title>
<path fill="none" stroke="midnightblue" d="M780.28,-186.99C758.34,-179.3 729.71,-169.61 704,-162 692.74,-158.67 680.41,-155.38 669.09,-152.5"/>
<polygon fill="midnightblue" stroke="midnightblue" points="779.27,-190.34 789.86,-190.36 781.59,-183.74 779.27,-190.34"/>
</g>
<!-- Node20 -->
<g id="node20" class="node">
<title>Node20</title>
<g id="a_node20"><a xlink:href="master__func_8h.html#a5309a3003ea2d248e51193e75ab30044" target="_top" xlink:title="Write single coil/holding register.">
<polygon fill="none" stroke="black" points="563.5,-38.5 563.5,-57.5 693.5,-57.5 693.5,-38.5 563.5,-38.5"/>
<text text-anchor="middle" x="628.5" y="-45.5" font-family="Helvetica,sans-Serif" font-size="10.00">modbusBuildRequest0506</text>
</a>
</g>
</g>
<!-- Node14&#45;&gt;Node20 -->
<g id="edge19" class="edge">
<title>Node14&#45;&gt;Node20</title>
<path fill="none" stroke="midnightblue" d="M796.83,-184.01C757.97,-152.42 672.41,-82.88 641.19,-57.5"/>
<polygon fill="midnightblue" stroke="midnightblue" points="794.83,-186.9 804.8,-190.49 799.25,-181.47 794.83,-186.9"/>
</g>
<!-- Node23 -->
<g id="node23" class="node">
<title>Node23</title>
<g id="a_node23"><a xlink:href="master__func_8h.html#ae9842e659ccd8942905e685923de8916" target="_top" xlink:title="Write multiple coils.">
<polygon fill="none" stroke="black" points="569,-247.5 569,-266.5 688,-266.5 688,-247.5 569,-247.5"/>
<text text-anchor="middle" x="628.5" y="-254.5" font-family="Helvetica,sans-Serif" font-size="10.00">modbusBuildRequest15</text>
</a>
</g>
</g>
<!-- Node14&#45;&gt;Node23 -->
<g id="edge22" class="edge">
<title>Node14&#45;&gt;Node23</title>
<path fill="none" stroke="midnightblue" d="M780.28,-213.01C758.34,-220.7 729.71,-230.39 704,-238 692.74,-241.33 680.41,-244.62 669.09,-247.5"/>
<polygon fill="midnightblue" stroke="midnightblue" points="781.59,-216.26 789.86,-209.64 779.27,-209.66 781.59,-216.26"/>
</g>
<!-- Node24 -->
<g id="node24" class="node">
<title>Node24</title>
<g id="a_node24"><a xlink:href="master__func_8h.html#aca022c438a427d8f4b03db4427c2b344" target="_top" xlink:title="Write multiple holding registers.">
<polygon fill="none" stroke="black" points="569,-209.5 569,-228.5 688,-228.5 688,-209.5 569,-209.5"/>
<text text-anchor="middle" x="628.5" y="-216.5" font-family="Helvetica,sans-Serif" font-size="10.00">modbusBuildRequest16</text>
</a>
</g>
</g>
<!-- Node14&#45;&gt;Node24 -->
<g id="edge23" class="edge">
<title>Node14&#45;&gt;Node24</title>
<path fill="none" stroke="midnightblue" d="M731.24,-208.66C716.69,-210.14 701.87,-211.65 688.21,-213.03"/>
<polygon fill="midnightblue" stroke="midnightblue" points="731.65,-212.14 741.25,-207.65 730.95,-205.17 731.65,-212.14"/>
</g>
<!-- Node25 -->
<g id="node25" class="node">
<title>Node25</title>
<g id="a_node25"><a xlink:href="master__func_8h.html#a6f2c5d59dee73c80ad54e53cca38aeec" target="_top" xlink:title="Mask write register request.">
<polygon fill="none" stroke="black" points="569,-171.5 569,-190.5 688,-190.5 688,-171.5 569,-171.5"/>
<text text-anchor="middle" x="628.5" y="-178.5" font-family="Helvetica,sans-Serif" font-size="10.00">modbusBuildRequest22</text>
</a>
</g>
</g>
<!-- Node14&#45;&gt;Node25 -->
<g id="edge24" class="edge">
<title>Node14&#45;&gt;Node25</title>
<path fill="none" stroke="midnightblue" d="M731.24,-191.34C716.69,-189.86 701.87,-188.35 688.21,-186.97"/>
<polygon fill="midnightblue" stroke="midnightblue" points="730.95,-194.83 741.25,-192.35 731.65,-187.86 730.95,-194.83"/>
</g>
<!-- Node16 -->
<g id="node16" class="node">
<title>Node16</title>
<g id="a_node16"><a xlink:href="master__func_8h.html#aadb2b7e2d3ee4fbde22cdf076713d75e" target="_top" xlink:title="Read multiple coils &#45; a wrapper for modbusBuildRequest01020304()">
<polygon fill="none" stroke="black" points="380,-76.5 380,-95.5 499,-95.5 499,-76.5 380,-76.5"/>
<text text-anchor="middle" x="439.5" y="-83.5" font-family="Helvetica,sans-Serif" font-size="10.00">modbusBuildRequest01</text>
</a>
</g>
</g>
<!-- Node15&#45;&gt;Node16 -->
<g id="edge15" class="edge">
<title>Node15&#45;&gt;Node16</title>
<path fill="none" stroke="midnightblue" d="M592.39,-130.04C570.8,-122.3 542.48,-112.53 517,-105 505.71,-101.66 493.38,-98.43 481.97,-95.6"/>
<polygon fill="midnightblue" stroke="midnightblue" points="591.21,-133.34 601.81,-133.45 593.59,-126.76 591.21,-133.34"/>
</g>
<!-- Node17 -->
<g id="node17" class="node">
<title>Node17</title>
<g id="a_node17"><a xlink:href="master__func_8h.html#a2a6452a8200d77483254bef08ee2cf8c" target="_top" xlink:title="Read multiple discrete inputs &#45; a wrapper for modbusBuildRequest01020304()">
<polygon fill="none" stroke="black" points="380,-190.5 380,-209.5 499,-209.5 499,-190.5 380,-190.5"/>
<text text-anchor="middle" x="439.5" y="-197.5" font-family="Helvetica,sans-Serif" font-size="10.00">modbusBuildRequest02</text>
</a>
</g>
</g>
<!-- Node15&#45;&gt;Node17 -->
<g id="edge16" class="edge">
<title>Node15&#45;&gt;Node17</title>
<path fill="none" stroke="midnightblue" d="M572.94,-155.32C566.15,-157.32 559.36,-159.55 553,-162 536.12,-168.5 533.9,-174.55 517,-181 507.41,-184.66 496.87,-187.8 486.77,-190.42"/>
<polygon fill="midnightblue" stroke="midnightblue" points="574.15,-158.62 582.84,-152.56 572.27,-151.88 574.15,-158.62"/>
</g>
<!-- Node18 -->
<g id="node18" class="node">
<title>Node18</title>
<g id="a_node18"><a xlink:href="master__func_8h.html#a1c7ed51c58b1ef42ee176833c7fd0515" target="_top" xlink:title="Read multiple holding registers &#45; a wrapper for modbusBuildRequest01020304()">
<polygon fill="none" stroke="black" points="380,-152.5 380,-171.5 499,-171.5 499,-152.5 380,-152.5"/>
<text text-anchor="middle" x="439.5" y="-159.5" font-family="Helvetica,sans-Serif" font-size="10.00">modbusBuildRequest03</text>
</a>
</g>
</g>
<!-- Node15&#45;&gt;Node18 -->
<g id="edge17" class="edge">
<title>Node15&#45;&gt;Node18</title>
<path fill="none" stroke="midnightblue" d="M542.69,-151.62C528.01,-153.11 513.05,-154.63 499.26,-156.03"/>
<polygon fill="midnightblue" stroke="midnightblue" points="543.19,-155.08 552.79,-150.59 542.48,-148.12 543.19,-155.08"/>
</g>
<!-- Node19 -->
<g id="node19" class="node">
<title>Node19</title>
<g id="a_node19"><a xlink:href="master__func_8h.html#a22bf4541196b3e88c0a86861d334e3b1" target="_top" xlink:title="Read multiple input registers &#45; a wrapper for modbusBuildRequest01020304()">
<polygon fill="none" stroke="black" points="380,-114.5 380,-133.5 499,-133.5 499,-114.5 380,-114.5"/>
<text text-anchor="middle" x="439.5" y="-121.5" font-family="Helvetica,sans-Serif" font-size="10.00">modbusBuildRequest04</text>
</a>
</g>
</g>
<!-- Node15&#45;&gt;Node19 -->
<g id="edge18" class="edge">
<title>Node15&#45;&gt;Node19</title>
<path fill="none" stroke="midnightblue" d="M542.69,-134.38C528.01,-132.89 513.05,-131.37 499.26,-129.97"/>
<polygon fill="midnightblue" stroke="midnightblue" points="542.48,-137.88 552.79,-135.41 543.19,-130.92 542.48,-137.88"/>
</g>
<!-- Node21 -->
<g id="node21" class="node">
<title>Node21</title>
<g id="a_node21"><a xlink:href="master__func_8h.html#a7151355c8c34af355fd779f88a64e125" target="_top" xlink:title="Write single coil &#45; a wrapper for modbusBuildRequest0506()">
<polygon fill="none" stroke="black" points="380,-0.5 380,-19.5 499,-19.5 499,-0.5 380,-0.5"/>
<text text-anchor="middle" x="439.5" y="-7.5" font-family="Helvetica,sans-Serif" font-size="10.00">modbusBuildRequest05</text>
</a>
</g>
</g>
<!-- Node20&#45;&gt;Node21 -->
<g id="edge20" class="edge">
<title>Node20&#45;&gt;Node21</title>
<path fill="none" stroke="midnightblue" d="M570.37,-36.39C543.77,-30.99 512.53,-24.64 487.35,-19.52"/>
<polygon fill="midnightblue" stroke="midnightblue" points="569.82,-39.85 580.31,-38.41 571.21,-32.99 569.82,-39.85"/>
</g>
<!-- Node22 -->
<g id="node22" class="node">
<title>Node22</title>
<g id="a_node22"><a xlink:href="master__func_8h.html#a56779853bdfd2bb75601be746c20eb09" target="_top" xlink:title="Write single holding register &#45; a wrapper for modbusBuildRequest0506()">
<polygon fill="none" stroke="black" points="380,-38.5 380,-57.5 499,-57.5 499,-38.5 380,-38.5"/>
<text text-anchor="middle" x="439.5" y="-45.5" font-family="Helvetica,sans-Serif" font-size="10.00">modbusBuildRequest06</text>
</a>
</g>
</g>
<!-- Node20&#45;&gt;Node22 -->
<g id="edge21" class="edge">
<title>Node20&#45;&gt;Node22</title>
<path fill="none" stroke="midnightblue" d="M553.25,-48C535.28,-48 516.31,-48 499.17,-48"/>
<polygon fill="midnightblue" stroke="midnightblue" points="553.41,-51.5 563.41,-48 553.41,-44.5 553.41,-51.5"/>
</g>
<!-- Node27 -->
<g id="node27" class="node">
<title>Node27</title>
<g id="a_node27"><a xlink:href="slave_8h.html#a58243ce1e1adaffd0a3260edc2d03603" target="_top" xlink:title="Builds an exception response frame.">
<polygon fill="none" stroke="black" points="571,-380.5 571,-399.5 686,-399.5 686,-380.5 571,-380.5"/>
<text text-anchor="middle" x="628.5" y="-387.5" font-family="Helvetica,sans-Serif" font-size="10.00">modbusBuildException</text>
</a>
</g>
</g>
<!-- Node26&#45;&gt;Node27 -->
<g id="edge26" class="edge">
<title>Node26&#45;&gt;Node27</title>
<path fill="none" stroke="midnightblue" d="M759.37,-416.39C732.77,-410.99 701.53,-404.64 676.35,-399.52"/>
<polygon fill="midnightblue" stroke="midnightblue" points="758.82,-419.85 769.31,-418.41 760.21,-412.99 758.82,-419.85"/>
</g>
<!-- Node39 -->
<g id="node39" class="node">
<title>Node39</title>
<g id="a_node39"><a xlink:href="slave__func_8h.html#aaff57f2a5c6a8e6c77d36c5dc7e48cfa" target="_top" xlink:title="Handles requests 01, 02, 03 and 04 (Read Multiple XX) and generates response.">
<polygon fill="none" stroke="black" points="362,-228.5 362,-247.5 517,-247.5 517,-228.5 362,-228.5"/>
<text text-anchor="middle" x="439.5" y="-235.5" font-family="Helvetica,sans-Serif" font-size="10.00">modbusParseRequest01020304</text>
</a>
</g>
</g>
<!-- Node26&#45;&gt;Node39 -->
<g id="edge43" class="edge">
<title>Node26&#45;&gt;Node39</title>
<path fill="none" stroke="midnightblue" d="M791.07,-413.23C721.38,-372.78 531.5,-262.81 517,-257 507.73,-253.28 497.52,-250.14 487.67,-247.55"/>
<polygon fill="midnightblue" stroke="midnightblue" points="789.67,-416.46 800.08,-418.46 793.19,-410.41 789.67,-416.46"/>
</g>
<!-- Node40 -->
<g id="node40" class="node">
<title>Node40</title>
<g id="a_node40"><a xlink:href="slave__func_8h.html#a236881fe30a95d4cc9b031a9e24ae2a8" target="_top" xlink:title="Handles requests 05 and 06 (Write Single XX) and generates response.">
<polygon fill="none" stroke="black" points="372.5,-494.5 372.5,-513.5 506.5,-513.5 506.5,-494.5 372.5,-494.5"/>
<text text-anchor="middle" x="439.5" y="-501.5" font-family="Helvetica,sans-Serif" font-size="10.00">modbusParseRequest0506</text>
</a>
</g>
</g>
<!-- Node26&#45;&gt;Node40 -->
<g id="edge44" class="edge">
<title>Node26&#45;&gt;Node40</title>
<path fill="none" stroke="midnightblue" d="M779.99,-440.86C758.16,-448.17 729.75,-457.03 704,-463 637.48,-478.43 560.14,-489.69 506.53,-496.47"/>
<polygon fill="midnightblue" stroke="midnightblue" points="781.18,-444.15 789.53,-437.62 778.93,-437.52 781.18,-444.15"/>
</g>
<!-- Node41 -->
<g id="node41" class="node">
<title>Node41</title>
<g id="a_node41"><a xlink:href="slave__func_8h.html#a0cb2a7bf59d4014088e1ce1c61523071" target="_top" xlink:title="Handles requests 15 and 16 (Write Multiple XX) and generates response.">
<polygon fill="none" stroke="black" points="372.5,-456.5 372.5,-475.5 506.5,-475.5 506.5,-456.5 372.5,-456.5"/>
<text text-anchor="middle" x="439.5" y="-463.5" font-family="Helvetica,sans-Serif" font-size="10.00">modbusParseRequest1516</text>
</a>
</g>
</g>
<!-- Node26&#45;&gt;Node41 -->
<g id="edge45" class="edge">
<title>Node26&#45;&gt;Node41</title>
<path fill="none" stroke="midnightblue" d="M732.68,-438.74C723.01,-439.89 713.3,-441 704,-442 636.86,-449.23 559.95,-456.07 506.62,-460.59"/>
<polygon fill="midnightblue" stroke="midnightblue" points="733.2,-442.2 742.71,-437.54 732.37,-435.25 733.2,-442.2"/>
</g>
<!-- Node42 -->
<g id="node42" class="node">
<title>Node42</title>
<g id="a_node42"><a xlink:href="slave__func_8h.html#a814f041d9acfa578998b8ce8fe53815c" target="_top" xlink:title="Handles request 22 (Mask Write Register) and generates response.">
<polygon fill="none" stroke="black" points="378,-418.5 378,-437.5 501,-437.5 501,-418.5 378,-418.5"/>
<text text-anchor="middle" x="439.5" y="-425.5" font-family="Helvetica,sans-Serif" font-size="10.00">modbusParseRequest22</text>
</a>
</g>
</g>
<!-- Node26&#45;&gt;Node42 -->
<g id="edge46" class="edge">
<title>Node26&#45;&gt;Node42</title>
<path fill="none" stroke="midnightblue" d="M729.83,-428C659.82,-428 563.08,-428 501.14,-428"/>
<polygon fill="midnightblue" stroke="midnightblue" points="729.96,-431.5 739.96,-428 729.96,-424.5 729.96,-431.5"/>
</g>
<!-- Node28 -->
<g id="node28" class="node">
<title>Node28</title>
<g id="a_node28"><a xlink:href="slave_8h.html#a384f75966903cc0c249eb68a6a20180e" target="_top" xlink:title="Builds an exception PDU.">
<polygon fill="none" stroke="black" points="371.5,-342.5 371.5,-361.5 507.5,-361.5 507.5,-342.5 371.5,-342.5"/>
<text text-anchor="middle" x="439.5" y="-349.5" font-family="Helvetica,sans-Serif" font-size="10.00">modbusBuildExceptionPDU</text>
</a>
</g>
</g>
<!-- Node27&#45;&gt;Node28 -->
<g id="edge27" class="edge">
<title>Node27&#45;&gt;Node28</title>
<path fill="none" stroke="midnightblue" d="M570.37,-378.39C543.77,-372.99 512.53,-366.64 487.35,-361.52"/>
<polygon fill="midnightblue" stroke="midnightblue" points="569.82,-381.85 580.31,-380.41 571.21,-374.99 569.82,-381.85"/>
</g>
<!-- Node30 -->
<g id="node30" class="node">
<title>Node30</title>
<g id="a_node30"><a xlink:href="slave_8h.html#a1da09df8858b91c61fe02c25783c2946" target="_top" xlink:title="Builds a Modbus RTU exception.">
<polygon fill="none" stroke="black" points="372,-304.5 372,-323.5 507,-323.5 507,-304.5 372,-304.5"/>
<text text-anchor="middle" x="439.5" y="-311.5" font-family="Helvetica,sans-Serif" font-size="10.00">modbusBuildExceptionRTU</text>
</a>
</g>
</g>
<!-- Node27&#45;&gt;Node30 -->
<g id="edge29" class="edge">
<title>Node27&#45;&gt;Node30</title>
<path fill="none" stroke="midnightblue" d="M603.3,-375.42C581.4,-362.75 547.94,-344.64 517,-333 507.27,-329.34 496.57,-326.18 486.34,-323.54"/>
<polygon fill="midnightblue" stroke="midnightblue" points="601.54,-378.45 611.93,-380.49 605.08,-372.41 601.54,-378.45"/>
</g>
<!-- Node32 -->
<g id="node32" class="node">
<title>Node32</title>
<g id="a_node32"><a xlink:href="slave_8h.html#a778e65356f7da66831f18ec53b975383" target="_top" xlink:title="Builds a Modbus TCP exception.">
<polygon fill="none" stroke="black" points="372.5,-266.5 372.5,-285.5 506.5,-285.5 506.5,-266.5 372.5,-266.5"/>
<text text-anchor="middle" x="439.5" y="-273.5" font-family="Helvetica,sans-Serif" font-size="10.00">modbusBuildExceptionTCP</text>
</a>
</g>
</g>
<!-- Node27&#45;&gt;Node32 -->
<g id="edge31" class="edge">
<title>Node27&#45;&gt;Node32</title>
<path fill="none" stroke="midnightblue" d="M595.93,-375.74C581.82,-368.42 565.58,-358.59 553,-347 532.33,-327.96 540.13,-310.97 517,-295 511.37,-291.11 505.02,-288.02 498.45,-285.56"/>
<polygon fill="midnightblue" stroke="midnightblue" points="594.77,-379.07 605.28,-380.4 597.89,-372.81 594.77,-379.07"/>
</g>
<!-- Node34 -->
<g id="node34" class="node">
<title>Node34</title>
<g id="a_node34"><a xlink:href="slave_8h.html#aff0a9164a0e37aa619232ae86e3ff97a" target="_top" xlink:title="Parses provided PDU and generates response honorinng pduOffset and padding set in ModbusSlave during ...">
<polygon fill="none" stroke="black" points="383,-380.5 383,-399.5 496,-399.5 496,-380.5 383,-380.5"/>
<text text-anchor="middle" x="439.5" y="-387.5" font-family="Helvetica,sans-Serif" font-size="10.00">modbusParseRequest</text>
</a>
</g>
</g>
<!-- Node27&#45;&gt;Node34 -->
<g id="edge33" class="edge">
<title>Node27&#45;&gt;Node34</title>
<path fill="none" stroke="midnightblue" d="M560.71,-390C539.61,-390 516.52,-390 496.28,-390"/>
<polygon fill="midnightblue" stroke="midnightblue" points="560.89,-393.5 570.89,-390 560.89,-386.5 560.89,-393.5"/>
</g>
<!-- Node27&#45;&gt;Node39 -->
<g id="edge39" class="edge">
<title>Node27&#45;&gt;Node39</title>
<path fill="none" stroke="midnightblue" d="M592.82,-376.05C578.94,-369.05 563.73,-359.38 553,-347 524.79,-314.44 549.48,-285.31 517,-257 512.56,-253.13 507.46,-250.03 502.04,-247.54"/>
<polygon fill="midnightblue" stroke="midnightblue" points="591.62,-379.35 602.15,-380.47 594.61,-373.03 591.62,-379.35"/>
</g>
<!-- Node27&#45;&gt;Node40 -->
<g id="edge40" class="edge">
<title>Node27&#45;&gt;Node40</title>
<path fill="none" stroke="midnightblue" d="M612.42,-407.18C592.64,-428.63 555.87,-464.92 517,-485 509.58,-488.83 501.36,-491.91 493.13,-494.39"/>
<polygon fill="midnightblue" stroke="midnightblue" points="615.02,-409.52 619.13,-399.75 609.83,-404.82 615.02,-409.52"/>
</g>
<!-- Node27&#45;&gt;Node41 -->
<g id="edge41" class="edge">
<title>Node27&#45;&gt;Node41</title>
<path fill="none" stroke="midnightblue" d="M603.3,-404.58C581.4,-417.25 547.94,-435.36 517,-447 507.27,-450.66 496.57,-453.82 486.34,-456.46"/>
<polygon fill="midnightblue" stroke="midnightblue" points="605.08,-407.59 611.93,-399.51 601.54,-401.55 605.08,-407.59"/>
</g>
<!-- Node27&#45;&gt;Node42 -->
<g id="edge42" class="edge">
<title>Node27&#45;&gt;Node42</title>
<path fill="none" stroke="midnightblue" d="M570.37,-401.61C543.77,-407.01 512.53,-413.36 487.35,-418.48"/>
<polygon fill="midnightblue" stroke="midnightblue" points="571.21,-405.01 580.31,-399.59 569.82,-398.15 571.21,-405.01"/>
</g>
<!-- Node29 -->
<g id="node29" class="node">
<title>Node29</title>
<g id="a_node29"><a xlink:href="classllm_1_1Slave.html#ac915e0947f733a784a9069f5ff5b9737" target="_top" xlink:title=" ">
<polygon fill="none" stroke="black" points="180,-342.5 180,-361.5 326,-361.5 326,-342.5 180,-342.5"/>
<text text-anchor="middle" x="253" y="-349.5" font-family="Helvetica,sans-Serif" font-size="10.00">llm::Slave::buildExceptionPDU</text>
</a>
</g>
</g>
<!-- Node28&#45;&gt;Node29 -->
<g id="edge28" class="edge">
<title>Node28&#45;&gt;Node29</title>
<path fill="none" stroke="midnightblue" d="M361.23,-352C349.58,-352 337.6,-352 326.06,-352"/>
<polygon fill="midnightblue" stroke="midnightblue" points="361.37,-355.5 371.37,-352 361.37,-348.5 361.37,-355.5"/>
</g>
<!-- Node31 -->
<g id="node31" class="node">
<title>Node31</title>
<g id="a_node31"><a xlink:href="classllm_1_1Slave.html#a10e79600053c725e639225264d966e63" target="_top" xlink:title=" ">
<polygon fill="none" stroke="black" points="180,-304.5 180,-323.5 326,-323.5 326,-304.5 180,-304.5"/>
<text text-anchor="middle" x="253" y="-311.5" font-family="Helvetica,sans-Serif" font-size="10.00">llm::Slave::buildExceptionRTU</text>
</a>
</g>
</g>
<!-- Node30&#45;&gt;Node31 -->
<g id="edge30" class="edge">
<title>Node30&#45;&gt;Node31</title>
<path fill="none" stroke="midnightblue" d="M361.66,-314C349.89,-314 337.78,-314 326.13,-314"/>
<polygon fill="midnightblue" stroke="midnightblue" points="361.89,-317.5 371.89,-314 361.89,-310.5 361.89,-317.5"/>
</g>
<!-- Node33 -->
<g id="node33" class="node">
<title>Node33</title>
<g id="a_node33"><a xlink:href="classllm_1_1Slave.html#a844c37870a4e98bffc091ddfafb8f959" target="_top" xlink:title=" ">
<polygon fill="none" stroke="black" points="180.5,-266.5 180.5,-285.5 325.5,-285.5 325.5,-266.5 180.5,-266.5"/>
<text text-anchor="middle" x="253" y="-273.5" font-family="Helvetica,sans-Serif" font-size="10.00">llm::Slave::buildExceptionTCP</text>
</a>
</g>
</g>
<!-- Node32&#45;&gt;Node33 -->
<g id="edge32" class="edge">
<title>Node32&#45;&gt;Node33</title>
<path fill="none" stroke="midnightblue" d="M362.31,-276C350.15,-276 337.61,-276 325.56,-276"/>
<polygon fill="midnightblue" stroke="midnightblue" points="362.41,-279.5 372.41,-276 362.41,-272.5 362.41,-279.5"/>
</g>
<!-- Node34&#45;&gt;Node12 -->
<g id="edge36" class="edge">
<title>Node34&#45;&gt;Node12</title>
<path fill="none" stroke="midnightblue" d="M373.78,-403.2C369.69,-404.9 365.72,-406.83 362,-409 361.9,-409.06 289.29,-485.73 263.2,-513.29"/>
<polygon fill="midnightblue" stroke="midnightblue" points="375.34,-406.35 383.5,-399.6 372.91,-399.79 375.34,-406.35"/>
</g>
<!-- Node35 -->
<g id="node35" class="node">
<title>Node35</title>
<g id="a_node35"><a xlink:href="slave_8h.html#ab5c5f3146a46cf8d221aca22e9c8a052" target="_top" xlink:title="Parses provided PDU and generates PDU for the response frame.">
<polygon fill="none" stroke="black" points="186,-418.5 186,-437.5 320,-437.5 320,-418.5 186,-418.5"/>
<text text-anchor="middle" x="253" y="-425.5" font-family="Helvetica,sans-Serif" font-size="10.00">modbusParseRequestPDU</text>
</a>
</g>
</g>
<!-- Node34&#45;&gt;Node35 -->
<g id="edge34" class="edge">
<title>Node34&#45;&gt;Node35</title>
<path fill="none" stroke="midnightblue" d="M382.13,-401.61C355.89,-407.01 325.06,-413.36 300.22,-418.48"/>
<polygon fill="midnightblue" stroke="midnightblue" points="382.85,-405.03 391.94,-399.59 381.44,-398.18 382.85,-405.03"/>
</g>
<!-- Node37 -->
<g id="node37" class="node">
<title>Node37</title>
<g id="a_node37"><a xlink:href="slave_8h.html#a5ad3fe86aa14f8982d7c459c68cd8b3e" target="_top" xlink:title="Parses provided Modbus TCP request frame and generates a Modbus TCP response.">
<polygon fill="none" stroke="black" points="187,-380.5 187,-399.5 319,-399.5 319,-380.5 187,-380.5"/>
<text text-anchor="middle" x="253" y="-387.5" font-family="Helvetica,sans-Serif" font-size="10.00">modbusParseRequestTCP</text>
</a>
</g>
</g>
<!-- Node34&#45;&gt;Node37 -->
<g id="edge37" class="edge">
<title>Node34&#45;&gt;Node37</title>
<path fill="none" stroke="midnightblue" d="M372.82,-390C355.41,-390 336.62,-390 319.23,-390"/>
<polygon fill="midnightblue" stroke="midnightblue" points="372.89,-393.5 382.89,-390 372.89,-386.5 372.89,-393.5"/>
</g>
<!-- Node36 -->
<g id="node36" class="node">
<title>Node36</title>
<g id="a_node36"><a xlink:href="classllm_1_1Slave.html#af8cc9d8d58bf7f632f3f3cf7e6b9c84b" target="_top" xlink:title=" ">
<polygon fill="none" stroke="black" points="0,-418.5 0,-437.5 144,-437.5 144,-418.5 0,-418.5"/>
<text text-anchor="middle" x="72" y="-425.5" font-family="Helvetica,sans-Serif" font-size="10.00">llm::Slave::parseRequestPDU</text>
</a>
</g>
</g>
<!-- Node35&#45;&gt;Node36 -->
<g id="edge35" class="edge">
<title>Node35&#45;&gt;Node36</title>
<path fill="none" stroke="midnightblue" d="M175.57,-428C165.19,-428 154.57,-428 144.28,-428"/>
<polygon fill="midnightblue" stroke="midnightblue" points="175.86,-431.5 185.86,-428 175.86,-424.5 175.86,-431.5"/>
</g>
<!-- Node38 -->
<g id="node38" class="node">
<title>Node38</title>
<g id="a_node38"><a xlink:href="classllm_1_1Slave.html#a05169339916c3727c780c75157b399b9" target="_top" xlink:title=" ">
<polygon fill="none" stroke="black" points="0.5,-380.5 0.5,-399.5 143.5,-399.5 143.5,-380.5 0.5,-380.5"/>
<text text-anchor="middle" x="72" y="-387.5" font-family="Helvetica,sans-Serif" font-size="10.00">llm::Slave::parseRequestTCP</text>
</a>
</g>
</g>
<!-- Node37&#45;&gt;Node38 -->
<g id="edge38" class="edge">
<title>Node37&#45;&gt;Node38</title>
<path fill="none" stroke="midnightblue" d="M176.84,-390C165.8,-390 154.46,-390 143.52,-390"/>
<polygon fill="midnightblue" stroke="midnightblue" points="176.87,-393.5 186.87,-390 176.87,-386.5 176.87,-393.5"/>
</g>
</g>
</svg>
