<?xml version="1.0" encoding="UTF-8" standalone="no"?>
<!DOCTYPE svg PUBLIC "-//W3C//DTD SVG 1.1//EN"
 "http://www.w3.org/Graphics/SVG/1.1/DTD/svg11.dtd">
<!-- Generated by graphviz version 2.44.0 ()
 -->
<!-- Title: modbusGetErrorCode Pages: 1 -->
<svg width="650pt" height="560pt"
 viewBox="0.00 0.00 650.00 560.00" xmlns="http://www.w3.org/2000/svg" xmlns:xlink="http://www.w3.org/1999/xlink">
<g id="graph0" class="graph" transform="scale(1 1) rotate(0) translate(4 556)">
<title>modbusGetErrorCode</title>
<!-- Node1 -->
<g id="node1" class="node">
<title>Node1</title>
<g id="a_node1"><a xlink:title="Returns ModbusError contained in ModbusErrorInfo.">
<polygon fill="#bfbfbf" stroke="black" points="532,-380.5 532,-399.5 642,-399.5 642,-380.5 532,-380.5"/>
<text text-anchor="middle" x="587" y="-387.5" font-family="Helvetica,sans-Serif" font-size="10.00">modbusGetErrorCode</text>
</a>
</g>
</g>
<!-- Node2 -->
<g id="node2" class="node">
<title>Node2</title>
<g id="a_node2"><a xlink:href="base_8h.html#a84765449265aa5a31877b749f04cb568" target="_top" xlink:title="Returns general error from ModbusErrorInfo.">
<polygon fill="none" stroke="black" points="370,-361.5 370,-380.5 491,-380.5 491,-361.5 370,-361.5"/>
<text text-anchor="middle" x="430.5" y="-368.5" font-family="Helvetica,sans-Serif" font-size="10.00">modbusGetGeneralError</text>
</a>
</g>
</g>
<!-- Node1&#45;&gt;Node2 -->
<g id="edge1" class="edge">
<title>Node1&#45;&gt;Node2</title>
<path fill="none" stroke="midnightblue" d="M521.88,-382.12C511.67,-380.86 501.14,-379.56 491.04,-378.32"/>
<polygon fill="midnightblue" stroke="midnightblue" points="521.61,-385.61 531.96,-383.35 522.47,-378.66 521.61,-385.61"/>
</g>
<!-- Node15 -->
<g id="node15" class="node">
<title>Node15</title>
<g id="a_node15"><a xlink:href="base_8h.html#a5c6f792a259423b2df55d8d49e91fd06" target="_top" xlink:title="Returns request error from ModbusErrorInfo.">
<polygon fill="none" stroke="black" points="369,-437.5 369,-456.5 492,-456.5 492,-437.5 369,-437.5"/>
<text text-anchor="middle" x="430.5" y="-444.5" font-family="Helvetica,sans-Serif" font-size="10.00">modbusGetRequestError</text>
</a>
</g>
</g>
<!-- Node1&#45;&gt;Node15 -->
<g id="edge14" class="edge">
<title>Node1&#45;&gt;Node15</title>
<path fill="none" stroke="midnightblue" d="M555.61,-403.84C538.32,-411.46 516.16,-420.8 496,-428 486.55,-431.38 476.16,-434.63 466.55,-437.46"/>
<polygon fill="midnightblue" stroke="midnightblue" points="557.46,-406.85 565.17,-399.59 554.61,-400.46 557.46,-406.85"/>
</g>
<!-- Node16 -->
<g id="node16" class="node">
<title>Node16</title>
<g id="a_node16"><a xlink:href="base_8h.html#acbf9b7e6b679be88ce4e10ffb617d3e9" target="_top" xlink:title="Returns response error from ModbusErrorInfo.">
<polygon fill="none" stroke="black" points="365,-399.5 365,-418.5 496,-418.5 496,-399.5 365,-399.5"/>
<text text-anchor="middle" x="430.5" y="-406.5" font-family="Helvetica,sans-Serif" font-size="10.00">modbusGetResponseError</text>
</a>
</g>
</g>
<!-- Node1&#45;&gt;Node16 -->
<g id="edge16" class="edge">
<title>Node1&#45;&gt;Node16</title>
<path fill="none" stroke="midnightblue" d="M521.76,-397.9C513.29,-398.94 504.6,-400.01 496.12,-401.05"/>
<polygon fill="midnightblue" stroke="midnightblue" points="522.47,-401.34 531.96,-396.65 521.61,-394.39 522.47,-401.34"/>
</g>
<!-- Node17 -->
<g id="node17" class="node">
<title>Node17</title>
<g id="a_node17"><a xlink:href="base_8h.html#a64880e7075f445881485396f3aa869c5" target="_top" xlink:title="Checks if ModbusErrorInfo contains an error.">
<polygon fill="none" stroke="black" points="394.5,-266.5 394.5,-285.5 466.5,-285.5 466.5,-266.5 394.5,-266.5"/>
<text text-anchor="middle" x="430.5" y="-273.5" font-family="Helvetica,sans-Serif" font-size="10.00">modbusIsOk</text>
</a>
</g>
</g>
<!-- Node1&#45;&gt;Node17 -->
<g id="edge18" class="edge">
<title>Node1&#45;&gt;Node17</title>
<path fill="none" stroke="midnightblue" d="M564.76,-374.32C532.34,-350.4 471.46,-305.49 444.7,-285.74"/>
<polygon fill="midnightblue" stroke="midnightblue" points="562.97,-377.36 573.09,-380.48 567.12,-371.72 562.97,-377.36"/>
</g>
<!-- Node3 -->
<g id="node3" class="node">
<title>Node3</title>
<g id="a_node3"><a xlink:href="namespacellm.html#a57bd253b3362a63c62c8c5b5b0391252" target="_top" xlink:title="Throws an exception based on ModbusErrorInfo.">
<polygon fill="none" stroke="black" points="213.5,-418.5 213.5,-437.5 308.5,-437.5 308.5,-418.5 213.5,-418.5"/>
<text text-anchor="middle" x="261" y="-425.5" font-family="Helvetica,sans-Serif" font-size="10.00">llm::throwErrorInfo</text>
</a>
</g>
</g>
<!-- Node2&#45;&gt;Node3 -->
<g id="edge2" class="edge">
<title>Node2&#45;&gt;Node3</title>
<path fill="none" stroke="midnightblue" d="M385.32,-383.47C378.49,-385.56 371.53,-387.77 365,-390 348.75,-395.54 345.08,-397.99 329,-404 315.92,-408.88 301.33,-414.13 289.12,-418.47"/>
<polygon fill="midnightblue" stroke="midnightblue" points="386.61,-386.74 395.19,-380.52 384.6,-380.04 386.61,-386.74"/>
</g>
<!-- Node4 -->
<g id="node4" class="node">
<title>Node4</title>
<g id="a_node4"><a xlink:href="classllm_1_1Slave.html#ac915e0947f733a784a9069f5ff5b9737" target="_top" xlink:title=" ">
<polygon fill="none" stroke="black" points="5.5,-532.5 5.5,-551.5 151.5,-551.5 151.5,-532.5 5.5,-532.5"/>
<text text-anchor="middle" x="78.5" y="-539.5" font-family="Helvetica,sans-Serif" font-size="10.00">llm::Slave::buildExceptionPDU</text>
</a>
</g>
</g>
<!-- Node3&#45;&gt;Node4 -->
<g id="edge3" class="edge">
<title>Node3&#45;&gt;Node4</title>
<path fill="none" stroke="midnightblue" d="M241.9,-444.74C212.52,-471.92 157.63,-522.66 157,-523 149.8,-526.87 141.8,-529.96 133.75,-532.43"/>
<polygon fill="midnightblue" stroke="midnightblue" points="244.48,-447.12 249.45,-437.76 239.73,-441.99 244.48,-447.12"/>
</g>
<!-- Node5 -->
<g id="node5" class="node">
<title>Node5</title>
<g id="a_node5"><a xlink:href="classllm_1_1Slave.html#a10e79600053c725e639225264d966e63" target="_top" xlink:title=" ">
<polygon fill="none" stroke="black" points="5.5,-266.5 5.5,-285.5 151.5,-285.5 151.5,-266.5 5.5,-266.5"/>
<text text-anchor="middle" x="78.5" y="-273.5" font-family="Helvetica,sans-Serif" font-size="10.00">llm::Slave::buildExceptionRTU</text>
</a>
</g>
</g>
<!-- Node3&#45;&gt;Node5 -->
<g id="edge4" class="edge">
<title>Node3&#45;&gt;Node5</title>
<path fill="none" stroke="midnightblue" d="M250.68,-409.01C235.33,-379.8 201.91,-324.18 157,-295 151.08,-291.15 144.44,-288.08 137.6,-285.63"/>
<polygon fill="midnightblue" stroke="midnightblue" points="247.68,-410.83 255.34,-418.15 253.92,-407.65 247.68,-410.83"/>
</g>
<!-- Node6 -->
<g id="node6" class="node">
<title>Node6</title>
<g id="a_node6"><a xlink:href="classllm_1_1Slave.html#a844c37870a4e98bffc091ddfafb8f959" target="_top" xlink:title=" ">
<polygon fill="none" stroke="black" points="6,-190.5 6,-209.5 151,-209.5 151,-190.5 6,-190.5"/>
<text text-anchor="middle" x="78.5" y="-197.5" font-family="Helvetica,sans-Serif" font-size="10.00">llm::Slave::buildExceptionTCP</text>
</a>
</g>
</g>
<!-- Node3&#45;&gt;Node6 -->
<g id="edge5" class="edge">
<title>Node3&#45;&gt;Node6</title>
<path fill="none" stroke="midnightblue" d="M251.5,-408.72C236.09,-375.23 201.04,-305.29 157,-257 138.88,-237.13 112.9,-219.71 96.11,-209.51"/>
<polygon fill="midnightblue" stroke="midnightblue" points="248.49,-410.56 255.79,-418.24 254.87,-407.68 248.49,-410.56"/>
</g>
<!-- Node7 -->
<g id="node7" class="node">
<title>Node7</title>
<g id="a_node7"><a xlink:href="classllm_1_1Master.html#ac2e598f20d2c576e74590d461cf75f97" target="_top" xlink:title=" ">
<polygon fill="none" stroke="black" points="29.5,-418.5 29.5,-437.5 127.5,-437.5 127.5,-418.5 29.5,-418.5"/>
<text text-anchor="middle" x="78.5" y="-425.5" font-family="Helvetica,sans-Serif" font-size="10.00">llm::Master::Master</text>
</a>
</g>
</g>
<!-- Node3&#45;&gt;Node7 -->
<g id="edge6" class="edge">
<title>Node3&#45;&gt;Node7</title>
<path fill="none" stroke="midnightblue" d="M202.94,-428C178.77,-428 150.92,-428 127.79,-428"/>
<polygon fill="midnightblue" stroke="midnightblue" points="203.05,-431.5 213.05,-428 203.05,-424.5 203.05,-431.5"/>
</g>
<!-- Node8 -->
<g id="node8" class="node">
<title>Node8</title>
<g id="a_node8"><a xlink:href="classllm_1_1Slave.html#af8cc9d8d58bf7f632f3f3cf7e6b9c84b" target="_top" xlink:title=" ">
<polygon fill="none" stroke="black" points="6.5,-380.5 6.5,-399.5 150.5,-399.5 150.5,-380.5 6.5,-380.5"/>
<text text-anchor="middle" x="78.5" y="-387.5" font-family="Helvetica,sans-Serif" font-size="10.00">llm::Slave::parseRequestPDU</text>
</a>
</g>
</g>
<!-- Node3&#45;&gt;Node8 -->
<g id="edge7" class="edge">
<title>Node3&#45;&gt;Node8</title>
<path fill="none" stroke="midnightblue" d="M204.52,-416.32C178.92,-410.93 148.92,-404.61 124.72,-399.52"/>
<polygon fill="midnightblue" stroke="midnightblue" points="203.95,-419.78 214.45,-418.41 205.39,-412.93 203.95,-419.78"/>
</g>
<!-- Node9 -->
<g id="node9" class="node">
<title>Node9</title>
<g id="a_node9"><a xlink:href="classllm_1_1Slave.html#a001591b9a38b69cf29adc853872a09fe" target="_top" xlink:title=" ">
<polygon fill="none" stroke="black" points="7,-114.5 7,-133.5 150,-133.5 150,-114.5 7,-114.5"/>
<text text-anchor="middle" x="78.5" y="-121.5" font-family="Helvetica,sans-Serif" font-size="10.00">llm::Slave::parseRequestRTU</text>
</a>
</g>
</g>
<!-- Node3&#45;&gt;Node9 -->
<g id="edge8" class="edge">
<title>Node3&#45;&gt;Node9</title>
<path fill="none" stroke="midnightblue" d="M252.68,-408.8C231.73,-354.1 172.07,-200.18 157,-181 140.7,-160.25 115,-143.4 97.71,-133.54"/>
<polygon fill="midnightblue" stroke="midnightblue" points="249.49,-410.25 256.33,-418.35 256.03,-407.76 249.49,-410.25"/>
</g>
<!-- Node10 -->
<g id="node10" class="node">
<title>Node10</title>
<g id="a_node10"><a xlink:href="classllm_1_1Slave.html#a05169339916c3727c780c75157b399b9" target="_top" xlink:title=" ">
<polygon fill="none" stroke="black" points="7,-38.5 7,-57.5 150,-57.5 150,-38.5 7,-38.5"/>
<text text-anchor="middle" x="78.5" y="-45.5" font-family="Helvetica,sans-Serif" font-size="10.00">llm::Slave::parseRequestTCP</text>
</a>
</g>
</g>
<!-- Node3&#45;&gt;Node10 -->
<g id="edge9" class="edge">
<title>Node3&#45;&gt;Node10</title>
<path fill="none" stroke="midnightblue" d="M251.48,-408.87C237.78,-377.58 210.61,-313.32 193,-257 172.29,-190.74 195.31,-162.9 157,-105 142.71,-83.41 117.32,-67.07 99.5,-57.53"/>
<polygon fill="midnightblue" stroke="midnightblue" points="248.33,-410.42 255.57,-418.15 254.74,-407.59 248.33,-410.42"/>
</g>
<!-- Node11 -->
<g id="node11" class="node">
<title>Node11</title>
<g id="a_node11"><a xlink:href="classllm_1_1Master.html#a39b0210172c76ef4dc9e43668daef7c9" target="_top" xlink:title=" ">
<polygon fill="none" stroke="black" points="0,-342.5 0,-361.5 157,-361.5 157,-342.5 0,-342.5"/>
<text text-anchor="middle" x="78.5" y="-349.5" font-family="Helvetica,sans-Serif" font-size="10.00">llm::Master::parseResponsePDU</text>
</a>
</g>
</g>
<!-- Node3&#45;&gt;Node11 -->
<g id="edge10" class="edge">
<title>Node3&#45;&gt;Node11</title>
<path fill="none" stroke="midnightblue" d="M237.04,-412.96C216.72,-400.23 185.88,-382.3 157,-371 147.58,-367.32 137.23,-364.19 127.25,-361.6"/>
<polygon fill="midnightblue" stroke="midnightblue" points="235.28,-415.99 245.59,-418.41 239.03,-410.09 235.28,-415.99"/>
</g>
<!-- Node12 -->
<g id="node12" class="node">
<title>Node12</title>
<g id="a_node12"><a xlink:href="classllm_1_1Master.html#ab052e172e96808744ee43a8eff80b679" target="_top" xlink:title=" ">
<polygon fill="none" stroke="black" points="0.5,-304.5 0.5,-323.5 156.5,-323.5 156.5,-304.5 0.5,-304.5"/>
<text text-anchor="middle" x="78.5" y="-311.5" font-family="Helvetica,sans-Serif" font-size="10.00">llm::Master::parseResponseRTU</text>
</a>
</g>
</g>
<!-- Node3&#45;&gt;Node12 -->
<g id="edge11" class="edge">
<title>Node3&#45;&gt;Node12</title>
<path fill="none" stroke="midnightblue" d="M245.96,-410.48C227.75,-388.94 193.9,-352.81 157,-333 149.8,-329.13 141.8,-326.04 133.75,-323.57"/>
<polygon fill="midnightblue" stroke="midnightblue" points="243.29,-412.74 252.36,-418.21 248.68,-408.27 243.29,-412.74"/>
</g>
<!-- Node13 -->
<g id="node13" class="node">
<title>Node13</title>
<g id="a_node13"><a xlink:href="classllm_1_1Master.html#ad1f614f5d44a61a8507ae34968fa7903" target="_top" xlink:title=" ">
<polygon fill="none" stroke="black" points="1,-494.5 1,-513.5 156,-513.5 156,-494.5 1,-494.5"/>
<text text-anchor="middle" x="78.5" y="-501.5" font-family="Helvetica,sans-Serif" font-size="10.00">llm::Master::parseResponseTCP</text>
</a>
</g>
</g>
<!-- Node3&#45;&gt;Node13 -->
<g id="edge12" class="edge">
<title>Node3&#45;&gt;Node13</title>
<path fill="none" stroke="midnightblue" d="M215.64,-441.06C207.85,-444.14 199.99,-447.78 193,-452 174.42,-463.21 176.14,-474.76 157,-485 149.79,-488.86 141.79,-491.94 133.74,-494.41"/>
<polygon fill="midnightblue" stroke="midnightblue" points="216.9,-444.33 225.07,-437.58 214.47,-437.76 216.9,-444.33"/>
</g>
<!-- Node14 -->
<g id="node14" class="node">
<title>Node14</title>
<g id="a_node14"><a xlink:href="classllm_1_1Slave.html#a6824a1d0fcfd26d8bedaa934f0abcf39" target="_top" xlink:title=" ">
<polygon fill="none" stroke="black" points="34.5,-456.5 34.5,-475.5 122.5,-475.5 122.5,-456.5 34.5,-456.5"/>
<text text-anchor="middle" x="78.5" y="-463.5" font-family="Helvetica,sans-Serif" font-size="10.00">llm::Slave::Slave</text>
</a>
</g>
</g>
<!-- Node3&#45;&gt;Node14 -->
<g id="edge13" class="edge">
<title>Node3&#45;&gt;Node14</title>
<path fill="none" stroke="midnightblue" d="M204.59,-439.66C178.21,-445.22 147.13,-451.76 122.55,-456.94"/>
<polygon fill="midnightblue" stroke="midnightblue" points="205.39,-443.07 214.45,-437.59 203.95,-436.22 205.39,-443.07"/>
</g>
<!-- Node15&#45;&gt;Node3 -->
<g id="edge15" class="edge">
<title>Node15&#45;&gt;Node3</title>
<path fill="none" stroke="midnightblue" d="M358.24,-438.92C341.49,-437.02 324.07,-435.04 308.72,-433.3"/>
<polygon fill="midnightblue" stroke="midnightblue" points="358.22,-442.44 368.55,-440.09 359.01,-435.48 358.22,-442.44"/>
</g>
<!-- Node16&#45;&gt;Node3 -->
<g id="edge17" class="edge">
<title>Node16&#45;&gt;Node3</title>
<path fill="none" stroke="midnightblue" d="M354.56,-417.5C338.94,-419.27 322.91,-421.09 308.67,-422.71"/>
<polygon fill="midnightblue" stroke="midnightblue" points="355.2,-420.95 364.74,-416.35 354.41,-414 355.2,-420.95"/>
</g>
<!-- Node17&#45;&gt;Node4 -->
<g id="edge19" class="edge">
<title>Node17&#45;&gt;Node4</title>
<path fill="none" stroke="midnightblue" d="M411.3,-292.94C396.82,-307.36 377.05,-329.3 365,-352 337.09,-404.58 371.77,-439.6 329,-481 314.68,-494.86 198.72,-519.11 130.03,-532.48"/>
<polygon fill="midnightblue" stroke="midnightblue" points="413.98,-295.22 418.72,-285.75 409.11,-290.19 413.98,-295.22"/>
</g>
<!-- Node17&#45;&gt;Node5 -->
<g id="edge20" class="edge">
<title>Node17&#45;&gt;Node5</title>
<path fill="none" stroke="midnightblue" d="M384.22,-276C325.24,-276 221.45,-276 151.59,-276"/>
<polygon fill="midnightblue" stroke="midnightblue" points="384.34,-279.5 394.34,-276 384.34,-272.5 384.34,-279.5"/>
</g>
<!-- Node17&#45;&gt;Node6 -->
<g id="edge21" class="edge">
<title>Node17&#45;&gt;Node6</title>
<path fill="none" stroke="midnightblue" d="M408.62,-260.49C389.12,-246.94 358.65,-228.04 329,-219 270.93,-201.29 201.91,-197.26 151.2,-197.24"/>
<polygon fill="midnightblue" stroke="midnightblue" points="406.84,-263.52 417.01,-266.47 410.9,-257.82 406.84,-263.52"/>
</g>
<!-- Node17&#45;&gt;Node8 -->
<g id="edge32" class="edge">
<title>Node17&#45;&gt;Node8</title>
<path fill="none" stroke="midnightblue" d="M409.54,-291.88C390.09,-306.57 359.12,-327.88 329,-340 271.31,-363.2 201.64,-376.01 150.6,-382.83"/>
<polygon fill="midnightblue" stroke="midnightblue" points="411.83,-294.54 417.62,-285.66 407.56,-288.99 411.83,-294.54"/>
</g>
<!-- Node17&#45;&gt;Node9 -->
<g id="edge33" class="edge">
<title>Node17&#45;&gt;Node9</title>
<path fill="none" stroke="midnightblue" d="M421.48,-256.99C407.61,-226.8 376.03,-168.69 329,-143 274.19,-113.07 202.27,-110.76 149.73,-114.49"/>
<polygon fill="midnightblue" stroke="midnightblue" points="418.4,-258.67 425.64,-266.4 424.8,-255.84 418.4,-258.67"/>
</g>
<!-- Node17&#45;&gt;Node10 -->
<g id="edge34" class="edge">
<title>Node17&#45;&gt;Node10</title>
<path fill="none" stroke="midnightblue" d="M426.63,-256.38C419.24,-213.62 395.22,-112.24 329,-67 269.1,-26.08 181.17,-30.46 127.28,-38.45"/>
<polygon fill="midnightblue" stroke="midnightblue" points="423.19,-257.04 428.24,-266.36 430.11,-255.93 423.19,-257.04"/>
</g>
<!-- Node17&#45;&gt;Node11 -->
<g id="edge35" class="edge">
<title>Node17&#45;&gt;Node11</title>
<path fill="none" stroke="midnightblue" d="M397.4,-289.22C377.9,-296.81 352.34,-306 329,-312 272.28,-326.57 206.86,-336.82 157.25,-343.3"/>
<polygon fill="midnightblue" stroke="midnightblue" points="398.72,-292.46 406.73,-285.53 396.14,-285.95 398.72,-292.46"/>
</g>
<!-- Node17&#45;&gt;Node12 -->
<g id="edge36" class="edge">
<title>Node17&#45;&gt;Node12</title>
<path fill="none" stroke="midnightblue" d="M383.87,-282.77C366.69,-285.21 346.97,-287.89 329,-290 271.3,-296.79 205.93,-303.03 156.58,-307.44"/>
<polygon fill="midnightblue" stroke="midnightblue" points="384.8,-286.18 394.2,-281.29 383.8,-279.25 384.8,-286.18"/>
</g>
<!-- Node17&#45;&gt;Node13 -->
<g id="edge37" class="edge">
<title>Node17&#45;&gt;Node13</title>
<path fill="none" stroke="midnightblue" d="M411.84,-293.24C397.67,-307.84 378.06,-329.87 365,-352 342.06,-390.89 363.05,-417.34 329,-447 303.41,-469.29 219.53,-485.27 156.03,-494.54"/>
<polygon fill="midnightblue" stroke="midnightblue" points="414.52,-295.51 419.07,-285.94 409.55,-290.58 414.52,-295.51"/>
</g>
<!-- Node18 -->
<g id="node18" class="node">
<title>Node18</title>
<g id="a_node18"><a xlink:href="slave_8h.html#a384f75966903cc0c249eb68a6a20180e" target="_top" xlink:title="Builds an exception PDU.">
<polygon fill="none" stroke="black" points="193,-532.5 193,-551.5 329,-551.5 329,-532.5 193,-532.5"/>
<text text-anchor="middle" x="261" y="-539.5" font-family="Helvetica,sans-Serif" font-size="10.00">modbusBuildExceptionPDU</text>
</a>
</g>
</g>
<!-- Node17&#45;&gt;Node18 -->
<g id="edge22" class="edge">
<title>Node17&#45;&gt;Node18</title>
<path fill="none" stroke="midnightblue" d="M410.95,-292.76C396.26,-307.07 376.38,-328.96 365,-352 331.58,-419.69 378.79,-461.25 329,-518 323.46,-524.32 316.13,-528.97 308.36,-532.4"/>
<polygon fill="midnightblue" stroke="midnightblue" points="413.63,-295.04 418.49,-285.63 408.82,-289.96 413.63,-295.04"/>
</g>
<!-- Node19 -->
<g id="node19" class="node">
<title>Node19</title>
<g id="a_node19"><a xlink:href="slave_8h.html#a1da09df8858b91c61fe02c25783c2946" target="_top" xlink:title="Builds a Modbus RTU exception.">
<polygon fill="none" stroke="black" points="193.5,-228.5 193.5,-247.5 328.5,-247.5 328.5,-228.5 193.5,-228.5"/>
<text text-anchor="middle" x="261" y="-235.5" font-family="Helvetica,sans-Serif" font-size="10.00">modbusBuildExceptionRTU</text>
</a>
</g>
</g>
<!-- Node17&#45;&gt;Node19 -->
<g id="edge24" class="edge">
<title>Node17&#45;&gt;Node19</title>
<path fill="none" stroke="midnightblue" d="M384.4,-265.77C359.35,-260.09 328.39,-253.06 303.88,-247.5"/>
<polygon fill="midnightblue" stroke="midnightblue" points="383.86,-269.23 394.39,-268.03 385.41,-262.41 383.86,-269.23"/>
</g>
<!-- Node20 -->
<g id="node20" class="node">
<title>Node20</title>
<g id="a_node20"><a xlink:href="slave_8h.html#a778e65356f7da66831f18ec53b975383" target="_top" xlink:title="Builds a Modbus TCP exception.">
<polygon fill="none" stroke="black" points="194,-152.5 194,-171.5 328,-171.5 328,-152.5 194,-152.5"/>
<text text-anchor="middle" x="261" y="-159.5" font-family="Helvetica,sans-Serif" font-size="10.00">modbusBuildExceptionTCP</text>
</a>
</g>
</g>
<!-- Node17&#45;&gt;Node20 -->
<g id="edge26" class="edge">
<title>Node17&#45;&gt;Node20</title>
<path fill="none" stroke="midnightblue" d="M414.27,-258.81C395.82,-238.89 362.96,-206.22 329,-186 319.02,-180.06 307.34,-175.24 296.55,-171.53"/>
<polygon fill="midnightblue" stroke="midnightblue" points="411.72,-261.21 421.04,-266.25 416.9,-256.5 411.72,-261.21"/>
</g>
<!-- Node21 -->
<g id="node21" class="node">
<title>Node21</title>
<g id="a_node21"><a xlink:href="slave_8h.html#a6a1e63faa64b7ca4b91d1ce7988be850" target="_top" xlink:title="Parses provided Modbus RTU request frame and generates a Modbus RTU response.">
<polygon fill="none" stroke="black" points="194.5,-76.5 194.5,-95.5 327.5,-95.5 327.5,-76.5 194.5,-76.5"/>
<text text-anchor="middle" x="261" y="-83.5" font-family="Helvetica,sans-Serif" font-size="10.00">modbusParseRequestRTU</text>
</a>
</g>
</g>
<!-- Node17&#45;&gt;Node21 -->
<g id="edge28" class="edge">
<title>Node17&#45;&gt;Node21</title>
<path fill="none" stroke="midnightblue" d="M422.68,-256.39C409.75,-221.94 378.43,-150.4 329,-110 321.35,-103.74 311.93,-99.06 302.61,-95.56"/>
<polygon fill="midnightblue" stroke="midnightblue" points="419.54,-257.98 426.24,-266.18 426.12,-255.59 419.54,-257.98"/>
</g>
<!-- Node22 -->
<g id="node22" class="node">
<title>Node22</title>
<g id="a_node22"><a xlink:href="slave_8h.html#a5ad3fe86aa14f8982d7c459c68cd8b3e" target="_top" xlink:title="Parses provided Modbus TCP request frame and generates a Modbus TCP response.">
<polygon fill="none" stroke="black" points="195,-0.5 195,-19.5 327,-19.5 327,-0.5 195,-0.5"/>
<text text-anchor="middle" x="261" y="-7.5" font-family="Helvetica,sans-Serif" font-size="10.00">modbusParseRequestTCP</text>
</a>
</g>
</g>
<!-- Node17&#45;&gt;Node22 -->
<g id="edge30" class="edge">
<title>Node17&#45;&gt;Node22</title>
<path fill="none" stroke="midnightblue" d="M426.75,-256C419.41,-210.24 395.23,-97.02 329,-34 322.38,-27.7 313.98,-23.03 305.4,-19.59"/>
<polygon fill="midnightblue" stroke="midnightblue" points="423.32,-256.74 428.26,-266.11 430.24,-255.7 423.32,-256.74"/>
</g>
<!-- Node18&#45;&gt;Node4 -->
<g id="edge23" class="edge">
<title>Node18&#45;&gt;Node4</title>
<path fill="none" stroke="midnightblue" d="M182.6,-542C172.31,-542 161.8,-542 151.61,-542"/>
<polygon fill="midnightblue" stroke="midnightblue" points="182.79,-545.5 192.79,-542 182.79,-538.5 182.79,-545.5"/>
</g>
<!-- Node19&#45;&gt;Node5 -->
<g id="edge25" class="edge">
<title>Node19&#45;&gt;Node5</title>
<path fill="none" stroke="midnightblue" d="M204.52,-249.68C178.92,-255.07 148.92,-261.39 124.72,-266.48"/>
<polygon fill="midnightblue" stroke="midnightblue" points="205.39,-253.07 214.45,-247.59 203.95,-246.22 205.39,-253.07"/>
</g>
<!-- Node20&#45;&gt;Node6 -->
<g id="edge27" class="edge">
<title>Node20&#45;&gt;Node6</title>
<path fill="none" stroke="midnightblue" d="M204.52,-173.68C178.92,-179.07 148.92,-185.39 124.72,-190.48"/>
<polygon fill="midnightblue" stroke="midnightblue" points="205.39,-177.07 214.45,-171.59 203.95,-170.22 205.39,-177.07"/>
</g>
<!-- Node21&#45;&gt;Node9 -->
<g id="edge29" class="edge">
<title>Node21&#45;&gt;Node9</title>
<path fill="none" stroke="midnightblue" d="M204.52,-97.68C178.92,-103.07 148.92,-109.39 124.72,-114.48"/>
<polygon fill="midnightblue" stroke="midnightblue" points="205.39,-101.07 214.45,-95.59 203.95,-94.22 205.39,-101.07"/>
</g>
<!-- Node22&#45;&gt;Node10 -->
<g id="edge31" class="edge">
<title>Node22&#45;&gt;Node10</title>
<path fill="none" stroke="midnightblue" d="M204.52,-21.68C178.92,-27.07 148.92,-33.39 124.72,-38.48"/>
<polygon fill="midnightblue" stroke="midnightblue" points="205.39,-25.07 214.45,-19.59 203.95,-18.22 205.39,-25.07"/>
</g>
</g>
</svg>
