<?xml version="1.0" encoding="UTF-8" standalone="no"?>
<!DOCTYPE svg PUBLIC "-//W3C//DTD SVG 1.1//EN"
 "http://www.w3.org/Graphics/SVG/1.1/DTD/svg11.dtd">
<!-- Generated by graphviz version 2.44.0 ()
 -->
<!-- Title: modbusUnpackRTU Pages: 1 -->
<svg width="220pt" height="66pt"
 viewBox="0.00 0.00 220.00 66.00" xmlns="http://www.w3.org/2000/svg" xmlns:xlink="http://www.w3.org/1999/xlink">
<g id="graph0" class="graph" transform="scale(1 1) rotate(0) translate(4 62)">
<title>modbusUnpackRTU</title>
<!-- Node1 -->
<g id="node1" class="node">
<title>Node1</title>
<g id="a_node1"><a xlink:title="Unpacks data from a Modbus RTU frame and optionally checks CRC.">
<polygon fill="#bfbfbf" stroke="black" points="0,-19.5 0,-38.5 105,-38.5 105,-19.5 0,-19.5"/>
<text text-anchor="middle" x="52.5" y="-26.5" font-family="Helvetica,sans-Serif" font-size="10.00">modbusUnpackRTU</text>
</a>
</g>
</g>
<!-- Node2 -->
<g id="node2" class="node">
<title>Node2</title>
<g id="a_node2"><a xlink:href="base_8h.html#a11346a546b84663cd92cb30f4ffd1393" target="_top" xlink:title="Calculates 16&#45;bit Modbus CRC of provided data.">
<polygon fill="none" stroke="black" points="141,-38.5 141,-57.5 212,-57.5 212,-38.5 141,-38.5"/>
<text text-anchor="middle" x="176.5" y="-45.5" font-family="Helvetica,sans-Serif" font-size="10.00">modbusCRC</text>
</a>
</g>
</g>
<!-- Node1&#45;&gt;Node2 -->
<g id="edge1" class="edge">
<title>Node1&#45;&gt;Node2</title>
<path fill="none" stroke="midnightblue" d="M105.24,-37.06C113.64,-38.37 122.28,-39.71 130.51,-40.99"/>
<polygon fill="midnightblue" stroke="midnightblue" points="130.23,-44.49 140.65,-42.57 131.31,-37.58 130.23,-44.49"/>
</g>
<!-- Node3 -->
<g id="node3" class="node">
<title>Node3</title>
<g id="a_node3"><a xlink:href="base_8h.html#a0fc3f293c746d39a93e4c1158f792404" target="_top" xlink:title="Safely reads a little&#45;endian 16&#45;bit word from provided pointer.">
<polygon fill="none" stroke="black" points="141.5,-0.5 141.5,-19.5 211.5,-19.5 211.5,-0.5 141.5,-0.5"/>
<text text-anchor="middle" x="176.5" y="-7.5" font-family="Helvetica,sans-Serif" font-size="10.00">modbusRLE</text>
</a>
</g>
</g>
<!-- Node1&#45;&gt;Node3 -->
<g id="edge2" class="edge">
<title>Node1&#45;&gt;Node3</title>
<path fill="none" stroke="midnightblue" d="M105.24,-20.94C113.92,-19.59 122.86,-18.2 131.32,-16.88"/>
<polygon fill="midnightblue" stroke="midnightblue" points="132.03,-20.31 141.37,-15.32 130.95,-13.4 132.03,-20.31"/>
</g>
</g>
</svg>
