<?xml version="1.0" encoding="UTF-8" standalone="no"?>
<!DOCTYPE svg PUBLIC "-//W3C//DTD SVG 1.1//EN"
 "http://www.w3.org/Graphics/SVG/1.1/DTD/svg11.dtd">
<!-- Generated by graphviz version 2.44.0 ()
 -->
<!-- Title: modbusUnpackRTU Pages: 1 -->
<svg width="481pt" height="66pt"
 viewBox="0.00 0.00 481.00 66.00" xmlns="http://www.w3.org/2000/svg" xmlns:xlink="http://www.w3.org/1999/xlink">
<g id="graph0" class="graph" transform="scale(1 1) rotate(0) translate(4 62)">
<title>modbusUnpackRTU</title>
<!-- Node1 -->
<g id="node1" class="node">
<title>Node1</title>
<g id="a_node1"><a xlink:title="Unpacks data from a Modbus RTU frame and optionally checks CRC.">
<polygon fill="#bfbfbf" stroke="black" points="368,-19.5 368,-38.5 473,-38.5 473,-19.5 368,-19.5"/>
<text text-anchor="middle" x="420.5" y="-26.5" font-family="Helvetica,sans-Serif" font-size="10.00">modbusUnpackRTU</text>
</a>
</g>
</g>
<!-- Node2 -->
<g id="node2" class="node">
<title>Node2</title>
<g id="a_node2"><a xlink:href="slave_8h.html#a6a1e63faa64b7ca4b91d1ce7988be850" target="_top" xlink:title="Parses provided Modbus RTU request frame and generates a Modbus RTU response.">
<polygon fill="none" stroke="black" points="195.5,-38.5 195.5,-57.5 328.5,-57.5 328.5,-38.5 195.5,-38.5"/>
<text text-anchor="middle" x="262" y="-45.5" font-family="Helvetica,sans-Serif" font-size="10.00">modbusParseRequestRTU</text>
</a>
</g>
</g>
<!-- Node1&#45;&gt;Node2 -->
<g id="edge1" class="edge">
<title>Node1&#45;&gt;Node2</title>
<path fill="none" stroke="midnightblue" d="M357.63,-36.51C348.08,-37.67 338.2,-38.87 328.58,-40.04"/>
<polygon fill="midnightblue" stroke="midnightblue" points="358.32,-39.95 367.82,-35.27 357.47,-33 358.32,-39.95"/>
</g>
<!-- Node4 -->
<g id="node4" class="node">
<title>Node4</title>
<g id="a_node4"><a xlink:href="master_8h.html#a151b85c221ae43804856eb92737498e5" target="_top" xlink:title="Parses a Modbus RTU slave response.">
<polygon fill="none" stroke="black" points="192,-0.5 192,-19.5 332,-19.5 332,-0.5 192,-0.5"/>
<text text-anchor="middle" x="262" y="-7.5" font-family="Helvetica,sans-Serif" font-size="10.00">modbusParseResponseRTU</text>
</a>
</g>
</g>
<!-- Node1&#45;&gt;Node4 -->
<g id="edge3" class="edge">
<title>Node1&#45;&gt;Node4</title>
<path fill="none" stroke="midnightblue" d="M357.75,-21.5C349.37,-20.49 340.72,-19.44 332.21,-18.4"/>
<polygon fill="midnightblue" stroke="midnightblue" points="357.47,-25 367.82,-22.73 358.32,-18.05 357.47,-25"/>
</g>
<!-- Node3 -->
<g id="node3" class="node">
<title>Node3</title>
<g id="a_node3"><a xlink:href="classllm_1_1Slave.html#a001591b9a38b69cf29adc853872a09fe" target="_top" xlink:title=" ">
<polygon fill="none" stroke="black" points="6.5,-38.5 6.5,-57.5 149.5,-57.5 149.5,-38.5 6.5,-38.5"/>
<text text-anchor="middle" x="78" y="-45.5" font-family="Helvetica,sans-Serif" font-size="10.00">llm::Slave::parseRequestRTU</text>
</a>
</g>
</g>
<!-- Node2&#45;&gt;Node3 -->
<g id="edge2" class="edge">
<title>Node2&#45;&gt;Node3</title>
<path fill="none" stroke="midnightblue" d="M185.06,-48C173.29,-48 161.17,-48 149.53,-48"/>
<polygon fill="midnightblue" stroke="midnightblue" points="185.29,-51.5 195.29,-48 185.29,-44.5 185.29,-51.5"/>
</g>
<!-- Node5 -->
<g id="node5" class="node">
<title>Node5</title>
<g id="a_node5"><a xlink:href="classllm_1_1Master.html#ab052e172e96808744ee43a8eff80b679" target="_top" xlink:title=" ">
<polygon fill="none" stroke="black" points="0,-0.5 0,-19.5 156,-19.5 156,-0.5 0,-0.5"/>
<text text-anchor="middle" x="78" y="-7.5" font-family="Helvetica,sans-Serif" font-size="10.00">llm::Master::parseResponseRTU</text>
</a>
</g>
</g>
<!-- Node4&#45;&gt;Node5 -->
<g id="edge4" class="edge">
<title>Node4&#45;&gt;Node5</title>
<path fill="none" stroke="midnightblue" d="M181.71,-10C173.26,-10 164.67,-10 156.24,-10"/>
<polygon fill="midnightblue" stroke="midnightblue" points="181.93,-13.5 191.93,-10 181.93,-6.5 181.93,-13.5"/>
</g>
</g>
</svg>
