<?xml version="1.0" encoding="UTF-8" standalone="no"?>
<!DOCTYPE svg PUBLIC "-//W3C//DTD SVG 1.1//EN"
 "http://www.w3.org/Graphics/SVG/1.1/DTD/svg11.dtd">
<!-- Generated by graphviz version 2.44.0 ()
 -->
<!-- Title: modbusWBE Pages: 1 -->
<svg width="623pt" height="484pt"
 viewBox="0.00 0.00 623.00 484.00" xmlns="http://www.w3.org/2000/svg" xmlns:xlink="http://www.w3.org/1999/xlink">
<g id="graph0" class="graph" transform="scale(1 1) rotate(0) translate(4 480)">
<title>modbusWBE</title>
<!-- Node1 -->
<g id="node1" class="node">
<title>Node1</title>
<g id="a_node1"><a xlink:title="Safely writes a big&#45;endian 16&#45;bit word to provided pointer.">
<polygon fill="#bfbfbf" stroke="black" points="542,-171.5 542,-190.5 615,-190.5 615,-171.5 542,-171.5"/>
<text text-anchor="middle" x="578.5" y="-178.5" font-family="Helvetica,sans-Serif" font-size="10.00">modbusWBE</text>
</a>
</g>
</g>
<!-- Node2 -->
<g id="node2" class="node">
<title>Node2</title>
<g id="a_node2"><a xlink:href="master__func_8h.html#ad3a6d4576d762da3eb0bd73aa5bb24fe" target="_top" xlink:title="Read mutiple coils/discrete inputs/holding registers/input registers.">
<polygon fill="none" stroke="black" points="353,-380.5 353,-399.5 504,-399.5 504,-380.5 353,-380.5"/>
<text text-anchor="middle" x="428.5" y="-387.5" font-family="Helvetica,sans-Serif" font-size="10.00">modbusBuildRequest01020304</text>
</a>
</g>
</g>
<!-- Node1&#45;&gt;Node2 -->
<g id="edge1" class="edge">
<title>Node1&#45;&gt;Node2</title>
<path fill="none" stroke="midnightblue" d="M571.69,-200.71C561.91,-231.45 539.85,-291.57 506,-333 489.34,-353.39 463.86,-370.44 446.95,-380.43"/>
<polygon fill="midnightblue" stroke="midnightblue" points="575.14,-201.39 574.73,-190.81 568.45,-199.34 575.14,-201.39"/>
</g>
<!-- Node7 -->
<g id="node7" class="node">
<title>Node7</title>
<g id="a_node7"><a xlink:href="master__func_8h.html#a5309a3003ea2d248e51193e75ab30044" target="_top" xlink:title="Write single coil/holding register.">
<polygon fill="none" stroke="black" points="363.5,-304.5 363.5,-323.5 493.5,-323.5 493.5,-304.5 363.5,-304.5"/>
<text text-anchor="middle" x="428.5" y="-311.5" font-family="Helvetica,sans-Serif" font-size="10.00">modbusBuildRequest0506</text>
</a>
</g>
</g>
<!-- Node1&#45;&gt;Node7 -->
<g id="edge6" class="edge">
<title>Node1&#45;&gt;Node7</title>
<path fill="none" stroke="midnightblue" d="M570.78,-200.08C560.76,-225.7 539.42,-270.78 506,-295 500.68,-298.85 494.67,-301.93 488.41,-304.39"/>
<polygon fill="midnightblue" stroke="midnightblue" points="574.07,-201.3 574.28,-190.71 567.51,-198.85 574.07,-201.3"/>
</g>
<!-- Node10 -->
<g id="node10" class="node">
<title>Node10</title>
<g id="a_node10"><a xlink:href="master__func_8h.html#ae9842e659ccd8942905e685923de8916" target="_top" xlink:title="Write multiple coils.">
<polygon fill="none" stroke="black" points="369,-266.5 369,-285.5 488,-285.5 488,-266.5 369,-266.5"/>
<text text-anchor="middle" x="428.5" y="-273.5" font-family="Helvetica,sans-Serif" font-size="10.00">modbusBuildRequest15</text>
</a>
</g>
</g>
<!-- Node1&#45;&gt;Node10 -->
<g id="edge9" class="edge">
<title>Node1&#45;&gt;Node10</title>
<path fill="none" stroke="midnightblue" d="M565.45,-198.84C552.72,-216.3 531.03,-242.35 506,-257 499.39,-260.87 492.01,-263.96 484.51,-266.42"/>
<polygon fill="midnightblue" stroke="midnightblue" points="568.36,-200.78 571.27,-190.6 562.64,-196.75 568.36,-200.78"/>
</g>
<!-- Node11 -->
<g id="node11" class="node">
<title>Node11</title>
<g id="a_node11"><a xlink:href="master__func_8h.html#aca022c438a427d8f4b03db4427c2b344" target="_top" xlink:title="Write multiple holding registers.">
<polygon fill="none" stroke="black" points="369,-228.5 369,-247.5 488,-247.5 488,-228.5 369,-228.5"/>
<text text-anchor="middle" x="428.5" y="-235.5" font-family="Helvetica,sans-Serif" font-size="10.00">modbusBuildRequest16</text>
</a>
</g>
</g>
<!-- Node1&#45;&gt;Node11 -->
<g id="edge10" class="edge">
<title>Node1&#45;&gt;Node11</title>
<path fill="none" stroke="midnightblue" d="M553.42,-195.7C539.87,-203.49 522.42,-212.71 506,-219 496.42,-222.67 485.88,-225.82 475.78,-228.44"/>
<polygon fill="midnightblue" stroke="midnightblue" points="555.27,-198.68 562.12,-190.6 551.72,-192.64 555.27,-198.68"/>
</g>
<!-- Node12 -->
<g id="node12" class="node">
<title>Node12</title>
<g id="a_node12"><a xlink:href="master__func_8h.html#a6f2c5d59dee73c80ad54e53cca38aeec" target="_top" xlink:title="Mask write register request.">
<polygon fill="none" stroke="black" points="369,-190.5 369,-209.5 488,-209.5 488,-190.5 369,-190.5"/>
<text text-anchor="middle" x="428.5" y="-197.5" font-family="Helvetica,sans-Serif" font-size="10.00">modbusBuildRequest22</text>
</a>
</g>
</g>
<!-- Node1&#45;&gt;Node12 -->
<g id="edge11" class="edge">
<title>Node1&#45;&gt;Node12</title>
<path fill="none" stroke="midnightblue" d="M531.5,-186.91C517.76,-188.67 502.52,-190.63 488.09,-192.48"/>
<polygon fill="midnightblue" stroke="midnightblue" points="532.2,-190.34 541.67,-185.6 531.31,-183.4 532.2,-190.34"/>
</g>
<!-- Node13 -->
<g id="node13" class="node">
<title>Node13</title>
<g id="a_node13"><a xlink:href="base_8h.html#a39dcd3aad118a779b7e1775fea3e5d77" target="_top" xlink:title="Sets up the MBAP header in a Modbus TCP frame.">
<polygon fill="none" stroke="black" points="382,-152.5 382,-171.5 475,-171.5 475,-152.5 382,-152.5"/>
<text text-anchor="middle" x="428.5" y="-159.5" font-family="Helvetica,sans-Serif" font-size="10.00">modbusPackTCP</text>
</a>
</g>
</g>
<!-- Node1&#45;&gt;Node13 -->
<g id="edge12" class="edge">
<title>Node1&#45;&gt;Node13</title>
<path fill="none" stroke="midnightblue" d="M531.7,-175.12C513.69,-172.81 493.08,-170.16 475.09,-167.85"/>
<polygon fill="midnightblue" stroke="midnightblue" points="531.31,-178.6 541.67,-176.4 532.2,-171.66 531.31,-178.6"/>
</g>
<!-- Node19 -->
<g id="node19" class="node">
<title>Node19</title>
<g id="a_node19"><a xlink:href="slave__func_8h.html#aaff57f2a5c6a8e6c77d36c5dc7e48cfa" target="_top" xlink:title="Handles requests 01, 02, 03 and 04 (Read Multiple XX) and generates response.">
<polygon fill="none" stroke="black" points="351,-114.5 351,-133.5 506,-133.5 506,-114.5 351,-114.5"/>
<text text-anchor="middle" x="428.5" y="-121.5" font-family="Helvetica,sans-Serif" font-size="10.00">modbusParseRequest01020304</text>
</a>
</g>
</g>
<!-- Node1&#45;&gt;Node19 -->
<g id="edge18" class="edge">
<title>Node1&#45;&gt;Node19</title>
<path fill="none" stroke="midnightblue" d="M553.42,-166.3C539.87,-158.51 522.42,-149.29 506,-143 496.42,-139.33 485.88,-136.18 475.78,-133.56"/>
<polygon fill="midnightblue" stroke="midnightblue" points="551.72,-169.36 562.12,-171.4 555.27,-163.32 551.72,-169.36"/>
</g>
<!-- Node20 -->
<g id="node20" class="node">
<title>Node20</title>
<g id="a_node20"><a xlink:href="slave__func_8h.html#a236881fe30a95d4cc9b031a9e24ae2a8" target="_top" xlink:title="Handles requests 05 and 06 (Write Single XX) and generates response.">
<polygon fill="none" stroke="black" points="361.5,-76.5 361.5,-95.5 495.5,-95.5 495.5,-76.5 361.5,-76.5"/>
<text text-anchor="middle" x="428.5" y="-83.5" font-family="Helvetica,sans-Serif" font-size="10.00">modbusParseRequest0506</text>
</a>
</g>
</g>
<!-- Node1&#45;&gt;Node20 -->
<g id="edge19" class="edge">
<title>Node1&#45;&gt;Node20</title>
<path fill="none" stroke="midnightblue" d="M565.45,-163.16C552.72,-145.7 531.03,-119.65 506,-105 499.39,-101.13 492.01,-98.04 484.51,-95.58"/>
<polygon fill="midnightblue" stroke="midnightblue" points="562.64,-165.25 571.27,-171.4 568.36,-161.22 562.64,-165.25"/>
</g>
<!-- Node21 -->
<g id="node21" class="node">
<title>Node21</title>
<g id="a_node21"><a xlink:href="slave__func_8h.html#a0cb2a7bf59d4014088e1ce1c61523071" target="_top" xlink:title="Handles requests 15 and 16 (Write Multiple XX) and generates response.">
<polygon fill="none" stroke="black" points="361.5,-38.5 361.5,-57.5 495.5,-57.5 495.5,-38.5 361.5,-38.5"/>
<text text-anchor="middle" x="428.5" y="-45.5" font-family="Helvetica,sans-Serif" font-size="10.00">modbusParseRequest1516</text>
</a>
</g>
</g>
<!-- Node1&#45;&gt;Node21 -->
<g id="edge20" class="edge">
<title>Node1&#45;&gt;Node21</title>
<path fill="none" stroke="midnightblue" d="M570.78,-161.92C560.76,-136.3 539.42,-91.22 506,-67 500.68,-63.15 494.67,-60.07 488.41,-57.61"/>
<polygon fill="midnightblue" stroke="midnightblue" points="567.51,-163.15 574.28,-171.29 574.07,-160.7 567.51,-163.15"/>
</g>
<!-- Node22 -->
<g id="node22" class="node">
<title>Node22</title>
<g id="a_node22"><a xlink:href="slave__func_8h.html#a814f041d9acfa578998b8ce8fe53815c" target="_top" xlink:title="Handles request 22 (Mask Write Register) and generates response.">
<polygon fill="none" stroke="black" points="367,-0.5 367,-19.5 490,-19.5 490,-0.5 367,-0.5"/>
<text text-anchor="middle" x="428.5" y="-7.5" font-family="Helvetica,sans-Serif" font-size="10.00">modbusParseRequest22</text>
</a>
</g>
</g>
<!-- Node1&#45;&gt;Node22 -->
<g id="edge21" class="edge">
<title>Node1&#45;&gt;Node22</title>
<path fill="none" stroke="midnightblue" d="M573.9,-161.34C566.87,-128.73 548.14,-63.59 506,-29 501.24,-25.09 495.79,-21.97 490.04,-19.48"/>
<polygon fill="midnightblue" stroke="midnightblue" points="570.52,-162.3 575.92,-171.42 577.39,-160.93 570.52,-162.3"/>
</g>
<!-- Node3 -->
<g id="node3" class="node">
<title>Node3</title>
<g id="a_node3"><a xlink:href="master__func_8h.html#aadb2b7e2d3ee4fbde22cdf076713d75e" target="_top" xlink:title="Read multiple coils &#45; a wrapper for modbusBuildRequest01020304()">
<polygon fill="none" stroke="black" points="188.5,-456.5 188.5,-475.5 307.5,-475.5 307.5,-456.5 188.5,-456.5"/>
<text text-anchor="middle" x="248" y="-463.5" font-family="Helvetica,sans-Serif" font-size="10.00">modbusBuildRequest01</text>
</a>
</g>
</g>
<!-- Node2&#45;&gt;Node3 -->
<g id="edge2" class="edge">
<title>Node2&#45;&gt;Node3</title>
<path fill="none" stroke="midnightblue" d="M402.33,-404.49C379.94,-416.95 346.02,-434.8 315,-447 306.01,-450.53 296.1,-453.73 286.76,-456.46"/>
<polygon fill="midnightblue" stroke="midnightblue" points="404.18,-407.46 411.18,-399.51 400.75,-401.36 404.18,-407.46"/>
</g>
<!-- Node4 -->
<g id="node4" class="node">
<title>Node4</title>
<g id="a_node4"><a xlink:href="master__func_8h.html#a2a6452a8200d77483254bef08ee2cf8c" target="_top" xlink:title="Read multiple discrete inputs &#45; a wrapper for modbusBuildRequest01020304()">
<polygon fill="none" stroke="black" points="188.5,-418.5 188.5,-437.5 307.5,-437.5 307.5,-418.5 188.5,-418.5"/>
<text text-anchor="middle" x="248" y="-425.5" font-family="Helvetica,sans-Serif" font-size="10.00">modbusBuildRequest02</text>
</a>
</g>
</g>
<!-- Node2&#45;&gt;Node4 -->
<g id="edge3" class="edge">
<title>Node2&#45;&gt;Node4</title>
<path fill="none" stroke="midnightblue" d="M372.63,-401.68C347.32,-407.07 317.65,-413.39 293.72,-418.48"/>
<polygon fill="midnightblue" stroke="midnightblue" points="373.4,-405.09 382.46,-399.59 371.95,-398.25 373.4,-405.09"/>
</g>
<!-- Node5 -->
<g id="node5" class="node">
<title>Node5</title>
<g id="a_node5"><a xlink:href="master__func_8h.html#a1c7ed51c58b1ef42ee176833c7fd0515" target="_top" xlink:title="Read multiple holding registers &#45; a wrapper for modbusBuildRequest01020304()">
<polygon fill="none" stroke="black" points="188.5,-380.5 188.5,-399.5 307.5,-399.5 307.5,-380.5 188.5,-380.5"/>
<text text-anchor="middle" x="248" y="-387.5" font-family="Helvetica,sans-Serif" font-size="10.00">modbusBuildRequest03</text>
</a>
</g>
</g>
<!-- Node2&#45;&gt;Node5 -->
<g id="edge4" class="edge">
<title>Node2&#45;&gt;Node5</title>
<path fill="none" stroke="midnightblue" d="M342.51,-390C330.7,-390 318.8,-390 307.63,-390"/>
<polygon fill="midnightblue" stroke="midnightblue" points="342.83,-393.5 352.83,-390 342.83,-386.5 342.83,-393.5"/>
</g>
<!-- Node6 -->
<g id="node6" class="node">
<title>Node6</title>
<g id="a_node6"><a xlink:href="master__func_8h.html#a22bf4541196b3e88c0a86861d334e3b1" target="_top" xlink:title="Read multiple input registers &#45; a wrapper for modbusBuildRequest01020304()">
<polygon fill="none" stroke="black" points="188.5,-342.5 188.5,-361.5 307.5,-361.5 307.5,-342.5 188.5,-342.5"/>
<text text-anchor="middle" x="248" y="-349.5" font-family="Helvetica,sans-Serif" font-size="10.00">modbusBuildRequest04</text>
</a>
</g>
</g>
<!-- Node2&#45;&gt;Node6 -->
<g id="edge5" class="edge">
<title>Node2&#45;&gt;Node6</title>
<path fill="none" stroke="midnightblue" d="M372.63,-378.32C347.32,-372.93 317.65,-366.61 293.72,-361.52"/>
<polygon fill="midnightblue" stroke="midnightblue" points="371.95,-381.75 382.46,-380.41 373.4,-374.91 371.95,-381.75"/>
</g>
<!-- Node8 -->
<g id="node8" class="node">
<title>Node8</title>
<g id="a_node8"><a xlink:href="master__func_8h.html#a7151355c8c34af355fd779f88a64e125" target="_top" xlink:title="Write single coil &#45; a wrapper for modbusBuildRequest0506()">
<polygon fill="none" stroke="black" points="188.5,-304.5 188.5,-323.5 307.5,-323.5 307.5,-304.5 188.5,-304.5"/>
<text text-anchor="middle" x="248" y="-311.5" font-family="Helvetica,sans-Serif" font-size="10.00">modbusBuildRequest05</text>
</a>
</g>
</g>
<!-- Node7&#45;&gt;Node8 -->
<g id="edge7" class="edge">
<title>Node7&#45;&gt;Node8</title>
<path fill="none" stroke="midnightblue" d="M352.94,-314C337.8,-314 322.07,-314 307.58,-314"/>
<polygon fill="midnightblue" stroke="midnightblue" points="353.31,-317.5 363.31,-314 353.31,-310.5 353.31,-317.5"/>
</g>
<!-- Node9 -->
<g id="node9" class="node">
<title>Node9</title>
<g id="a_node9"><a xlink:href="master__func_8h.html#a56779853bdfd2bb75601be746c20eb09" target="_top" xlink:title="Write single holding register &#45; a wrapper for modbusBuildRequest0506()">
<polygon fill="none" stroke="black" points="188.5,-266.5 188.5,-285.5 307.5,-285.5 307.5,-266.5 188.5,-266.5"/>
<text text-anchor="middle" x="248" y="-273.5" font-family="Helvetica,sans-Serif" font-size="10.00">modbusBuildRequest06</text>
</a>
</g>
</g>
<!-- Node7&#45;&gt;Node9 -->
<g id="edge8" class="edge">
<title>Node7&#45;&gt;Node9</title>
<path fill="none" stroke="midnightblue" d="M372.63,-302.32C347.32,-296.93 317.65,-290.61 293.72,-285.52"/>
<polygon fill="midnightblue" stroke="midnightblue" points="371.95,-305.75 382.46,-304.41 373.4,-298.91 371.95,-305.75"/>
</g>
<!-- Node14 -->
<g id="node14" class="node">
<title>Node14</title>
<g id="a_node14"><a xlink:href="slave_8h.html#a778e65356f7da66831f18ec53b975383" target="_top" xlink:title="Builds a Modbus TCP exception.">
<polygon fill="none" stroke="black" points="181,-190.5 181,-209.5 315,-209.5 315,-190.5 181,-190.5"/>
<text text-anchor="middle" x="248" y="-197.5" font-family="Helvetica,sans-Serif" font-size="10.00">modbusBuildExceptionTCP</text>
</a>
</g>
</g>
<!-- Node13&#45;&gt;Node14 -->
<g id="edge13" class="edge">
<title>Node13&#45;&gt;Node14</title>
<path fill="none" stroke="midnightblue" d="M372.63,-173.68C347.32,-179.07 317.65,-185.39 293.72,-190.48"/>
<polygon fill="midnightblue" stroke="midnightblue" points="373.4,-177.09 382.46,-171.59 371.95,-170.25 373.4,-177.09"/>
</g>
<!-- Node16 -->
<g id="node16" class="node">
<title>Node16</title>
<g id="a_node16"><a xlink:href="master_8h.html#a117f6d4b5ec63dac5e4e5ea0af78d079" target="_top" xlink:title="Finalizes a Modbus TCP request.">
<polygon fill="none" stroke="black" points="186.5,-152.5 186.5,-171.5 309.5,-171.5 309.5,-152.5 186.5,-152.5"/>
<text text-anchor="middle" x="248" y="-159.5" font-family="Helvetica,sans-Serif" font-size="10.00">modbusEndRequestTCP</text>
</a>
</g>
</g>
<!-- Node13&#45;&gt;Node16 -->
<g id="edge15" class="edge">
<title>Node13&#45;&gt;Node16</title>
<path fill="none" stroke="midnightblue" d="M371.91,-162C352.13,-162 329.76,-162 309.58,-162"/>
<polygon fill="midnightblue" stroke="midnightblue" points="372,-165.5 382,-162 372,-158.5 372,-165.5"/>
</g>
<!-- Node17 -->
<g id="node17" class="node">
<title>Node17</title>
<g id="a_node17"><a xlink:href="slave_8h.html#a5ad3fe86aa14f8982d7c459c68cd8b3e" target="_top" xlink:title="Parses provided Modbus TCP request frame and generates a Modbus TCP response.">
<polygon fill="none" stroke="black" points="182,-114.5 182,-133.5 314,-133.5 314,-114.5 182,-114.5"/>
<text text-anchor="middle" x="248" y="-121.5" font-family="Helvetica,sans-Serif" font-size="10.00">modbusParseRequestTCP</text>
</a>
</g>
</g>
<!-- Node13&#45;&gt;Node17 -->
<g id="edge16" class="edge">
<title>Node13&#45;&gt;Node17</title>
<path fill="none" stroke="midnightblue" d="M372.63,-150.32C347.32,-144.93 317.65,-138.61 293.72,-133.52"/>
<polygon fill="midnightblue" stroke="midnightblue" points="371.95,-153.75 382.46,-152.41 373.4,-146.91 371.95,-153.75"/>
</g>
<!-- Node15 -->
<g id="node15" class="node">
<title>Node15</title>
<g id="a_node15"><a xlink:href="classllm_1_1Slave.html#a844c37870a4e98bffc091ddfafb8f959" target="_top" xlink:title=" ">
<polygon fill="none" stroke="black" points="0,-190.5 0,-209.5 145,-209.5 145,-190.5 0,-190.5"/>
<text text-anchor="middle" x="72.5" y="-197.5" font-family="Helvetica,sans-Serif" font-size="10.00">llm::Slave::buildExceptionTCP</text>
</a>
</g>
</g>
<!-- Node14&#45;&gt;Node15 -->
<g id="edge14" class="edge">
<title>Node14&#45;&gt;Node15</title>
<path fill="none" stroke="midnightblue" d="M170.67,-200C162.2,-200 153.6,-200 145.19,-200"/>
<polygon fill="midnightblue" stroke="midnightblue" points="170.91,-203.5 180.91,-200 170.91,-196.5 170.91,-203.5"/>
</g>
<!-- Node18 -->
<g id="node18" class="node">
<title>Node18</title>
<g id="a_node18"><a xlink:href="classllm_1_1Slave.html#a05169339916c3727c780c75157b399b9" target="_top" xlink:title=" ">
<polygon fill="none" stroke="black" points="1,-114.5 1,-133.5 144,-133.5 144,-114.5 1,-114.5"/>
<text text-anchor="middle" x="72.5" y="-121.5" font-family="Helvetica,sans-Serif" font-size="10.00">llm::Slave::parseRequestTCP</text>
</a>
</g>
</g>
<!-- Node17&#45;&gt;Node18 -->
<g id="edge17" class="edge">
<title>Node17&#45;&gt;Node18</title>
<path fill="none" stroke="midnightblue" d="M171.69,-124C162.56,-124 153.25,-124 144.19,-124"/>
<polygon fill="midnightblue" stroke="midnightblue" points="171.9,-127.5 181.9,-124 171.9,-120.5 171.9,-127.5"/>
</g>
</g>
</svg>
