<?xml version="1.0" encoding="UTF-8" standalone="no"?>
<!DOCTYPE svg PUBLIC "-//W3C//DTD SVG 1.1//EN"
 "http://www.w3.org/Graphics/SVG/1.1/DTD/svg11.dtd">
<!-- Generated by graphviz version 2.44.0 ()
 -->
<!-- Title: modbusBitsToBytes Pages: 1 -->
<svg width="310pt" height="180pt"
 viewBox="0.00 0.00 310.00 180.00" xmlns="http://www.w3.org/2000/svg" xmlns:xlink="http://www.w3.org/1999/xlink">
<g id="graph0" class="graph" transform="scale(1 1) rotate(0) translate(4 176)">
<title>modbusBitsToBytes</title>
<!-- Node1 -->
<g id="node1" class="node">
<title>Node1</title>
<g id="a_node1"><a xlink:title="Returns number of bytes necessary to hold given number of bits.">
<polygon fill="#bfbfbf" stroke="black" points="198,-76.5 198,-95.5 302,-95.5 302,-76.5 198,-76.5"/>
<text text-anchor="middle" x="250" y="-83.5" font-family="Helvetica,sans-Serif" font-size="10.00">modbusBitsToBytes</text>
</a>
</g>
</g>
<!-- Node2 -->
<g id="node2" class="node">
<title>Node2</title>
<g id="a_node2"><a xlink:href="master__func_8h.html#ae9842e659ccd8942905e685923de8916" target="_top" xlink:title="Write multiple coils.">
<polygon fill="none" stroke="black" points="21.5,-152.5 21.5,-171.5 140.5,-171.5 140.5,-152.5 21.5,-152.5"/>
<text text-anchor="middle" x="81" y="-159.5" font-family="Helvetica,sans-Serif" font-size="10.00">modbusBuildRequest15</text>
</a>
</g>
</g>
<!-- Node1&#45;&gt;Node2 -->
<g id="edge1" class="edge">
<title>Node1&#45;&gt;Node2</title>
<path fill="none" stroke="midnightblue" d="M229.36,-101.75C212.43,-114.59 186.86,-132.3 162,-143 153.22,-146.78 143.55,-149.89 134.06,-152.41"/>
<polygon fill="midnightblue" stroke="midnightblue" points="231.61,-104.43 237.37,-95.54 227.32,-98.89 231.61,-104.43"/>
</g>
<!-- Node3 -->
<g id="node3" class="node">
<title>Node3</title>
<g id="a_node3"><a xlink:href="slave__func_8h.html#aaff57f2a5c6a8e6c77d36c5dc7e48cfa" target="_top" xlink:title="Handles requests 01, 02, 03 and 04 (Read Multiple XX) and generates response.">
<polygon fill="none" stroke="black" points="3.5,-114.5 3.5,-133.5 158.5,-133.5 158.5,-114.5 3.5,-114.5"/>
<text text-anchor="middle" x="81" y="-121.5" font-family="Helvetica,sans-Serif" font-size="10.00">modbusParseRequest01020304</text>
</a>
</g>
</g>
<!-- Node1&#45;&gt;Node3 -->
<g id="edge2" class="edge">
<title>Node1&#45;&gt;Node3</title>
<path fill="none" stroke="midnightblue" d="M197.04,-97.82C173.49,-103.18 146.03,-109.43 123.84,-114.48"/>
<polygon fill="midnightblue" stroke="midnightblue" points="197.88,-101.22 206.86,-95.59 196.33,-94.4 197.88,-101.22"/>
</g>
<!-- Node4 -->
<g id="node4" class="node">
<title>Node4</title>
<g id="a_node4"><a xlink:href="slave__func_8h.html#a0cb2a7bf59d4014088e1ce1c61523071" target="_top" xlink:title="Handles requests 15 and 16 (Write Multiple XX) and generates response.">
<polygon fill="none" stroke="black" points="14,-76.5 14,-95.5 148,-95.5 148,-76.5 14,-76.5"/>
<text text-anchor="middle" x="81" y="-83.5" font-family="Helvetica,sans-Serif" font-size="10.00">modbusParseRequest1516</text>
</a>
</g>
</g>
<!-- Node1&#45;&gt;Node4 -->
<g id="edge3" class="edge">
<title>Node1&#45;&gt;Node4</title>
<path fill="none" stroke="midnightblue" d="M187.82,-86C174.89,-86 161.2,-86 148.11,-86"/>
<polygon fill="midnightblue" stroke="midnightblue" points="187.99,-89.5 197.99,-86 187.99,-82.5 187.99,-89.5"/>
</g>
<!-- Node5 -->
<g id="node5" class="node">
<title>Node5</title>
<g id="a_node5"><a xlink:href="master__func_8h.html#adafbaa72d4df36b3577ce5494b460a2b" target="_top" xlink:title="Parses response to requests 01, 02, 03 and 04.">
<polygon fill="none" stroke="black" points="0,-38.5 0,-57.5 162,-57.5 162,-38.5 0,-38.5"/>
<text text-anchor="middle" x="81" y="-45.5" font-family="Helvetica,sans-Serif" font-size="10.00">modbusParseResponse01020304</text>
</a>
</g>
</g>
<!-- Node1&#45;&gt;Node5 -->
<g id="edge4" class="edge">
<title>Node1&#45;&gt;Node5</title>
<path fill="none" stroke="midnightblue" d="M197.04,-74.18C173.49,-68.82 146.03,-62.57 123.84,-57.52"/>
<polygon fill="midnightblue" stroke="midnightblue" points="196.33,-77.6 206.86,-76.41 197.88,-70.78 196.33,-77.6"/>
</g>
<!-- Node6 -->
<g id="node6" class="node">
<title>Node6</title>
<g id="a_node6"><a xlink:href="master__func_8h.html#a0c53ade25c249f6aeed8c877b98f8016" target="_top" xlink:title="Parses response to requests 15 and 16 (write mutliple regsiters/coils)">
<polygon fill="none" stroke="black" points="10.5,-0.5 10.5,-19.5 151.5,-19.5 151.5,-0.5 10.5,-0.5"/>
<text text-anchor="middle" x="81" y="-7.5" font-family="Helvetica,sans-Serif" font-size="10.00">modbusParseResponse1516</text>
</a>
</g>
</g>
<!-- Node1&#45;&gt;Node6 -->
<g id="edge5" class="edge">
<title>Node1&#45;&gt;Node6</title>
<path fill="none" stroke="midnightblue" d="M229.36,-70.25C212.43,-57.41 186.86,-39.7 162,-29 153.22,-25.22 143.55,-22.11 134.06,-19.59"/>
<polygon fill="midnightblue" stroke="midnightblue" points="227.32,-73.11 237.37,-76.46 231.61,-67.57 227.32,-73.11"/>
</g>
</g>
</svg>
