<?xml version="1.0" encoding="UTF-8" standalone="no"?>
<!DOCTYPE svg PUBLIC "-//W3C//DTD SVG 1.1//EN"
 "http://www.w3.org/Graphics/SVG/1.1/DTD/svg11.dtd">
<!-- Generated by graphviz version 2.44.0 ()
 -->
<!-- Title: modbusPackTCP Pages: 1 -->
<svg width="452pt" height="104pt"
 viewBox="0.00 0.00 452.00 104.00" xmlns="http://www.w3.org/2000/svg" xmlns:xlink="http://www.w3.org/1999/xlink">
<g id="graph0" class="graph" transform="scale(1 1) rotate(0) translate(4 100)">
<title>modbusPackTCP</title>
<!-- Node1 -->
<g id="node1" class="node">
<title>Node1</title>
<g id="a_node1"><a xlink:title="Sets up the MBAP header in a Modbus TCP frame.">
<polygon fill="#bfbfbf" stroke="black" points="351,-38.5 351,-57.5 444,-57.5 444,-38.5 351,-38.5"/>
<text text-anchor="middle" x="397.5" y="-45.5" font-family="Helvetica,sans-Serif" font-size="10.00">modbusPackTCP</text>
</a>
</g>
</g>
<!-- Node2 -->
<g id="node2" class="node">
<title>Node2</title>
<g id="a_node2"><a xlink:href="slave_8h.html#a778e65356f7da66831f18ec53b975383" target="_top" xlink:title="Builds a Modbus TCP exception.">
<polygon fill="none" stroke="black" points="181,-76.5 181,-95.5 315,-95.5 315,-76.5 181,-76.5"/>
<text text-anchor="middle" x="248" y="-83.5" font-family="Helvetica,sans-Serif" font-size="10.00">modbusBuildExceptionTCP</text>
</a>
</g>
</g>
<!-- Node1&#45;&gt;Node2 -->
<g id="edge1" class="edge">
<title>Node1&#45;&gt;Node2</title>
<path fill="none" stroke="midnightblue" d="M349.49,-60.11C328.94,-65.4 305.2,-71.52 285.95,-76.48"/>
<polygon fill="midnightblue" stroke="midnightblue" points="350.47,-63.47 359.28,-57.59 348.72,-56.69 350.47,-63.47"/>
</g>
<!-- Node4 -->
<g id="node4" class="node">
<title>Node4</title>
<g id="a_node4"><a xlink:href="master_8h.html#a117f6d4b5ec63dac5e4e5ea0af78d079" target="_top" xlink:title="Finalizes a Modbus TCP request.">
<polygon fill="none" stroke="black" points="186.5,-38.5 186.5,-57.5 309.5,-57.5 309.5,-38.5 186.5,-38.5"/>
<text text-anchor="middle" x="248" y="-45.5" font-family="Helvetica,sans-Serif" font-size="10.00">modbusEndRequestTCP</text>
</a>
</g>
</g>
<!-- Node1&#45;&gt;Node4 -->
<g id="edge3" class="edge">
<title>Node1&#45;&gt;Node4</title>
<path fill="none" stroke="midnightblue" d="M340.4,-48C330.38,-48 319.89,-48 309.75,-48"/>
<polygon fill="midnightblue" stroke="midnightblue" points="340.64,-51.5 350.64,-48 340.64,-44.5 340.64,-51.5"/>
</g>
<!-- Node5 -->
<g id="node5" class="node">
<title>Node5</title>
<g id="a_node5"><a xlink:href="slave_8h.html#a5ad3fe86aa14f8982d7c459c68cd8b3e" target="_top" xlink:title="Parses provided Modbus TCP request frame and generates a Modbus TCP response.">
<polygon fill="none" stroke="black" points="182,-0.5 182,-19.5 314,-19.5 314,-0.5 182,-0.5"/>
<text text-anchor="middle" x="248" y="-7.5" font-family="Helvetica,sans-Serif" font-size="10.00">modbusParseRequestTCP</text>
</a>
</g>
</g>
<!-- Node1&#45;&gt;Node5 -->
<g id="edge4" class="edge">
<title>Node1&#45;&gt;Node5</title>
<path fill="none" stroke="midnightblue" d="M349.49,-35.89C328.94,-30.6 305.2,-24.48 285.95,-19.52"/>
<polygon fill="midnightblue" stroke="midnightblue" points="348.72,-39.31 359.28,-38.41 350.47,-32.53 348.72,-39.31"/>
</g>
<!-- Node3 -->
<g id="node3" class="node">
<title>Node3</title>
<g id="a_node3"><a xlink:href="classllm_1_1Slave.html#a844c37870a4e98bffc091ddfafb8f959" target="_top" xlink:title=" ">
<polygon fill="none" stroke="black" points="0,-76.5 0,-95.5 145,-95.5 145,-76.5 0,-76.5"/>
<text text-anchor="middle" x="72.5" y="-83.5" font-family="Helvetica,sans-Serif" font-size="10.00">llm::Slave::buildExceptionTCP</text>
</a>
</g>
</g>
<!-- Node2&#45;&gt;Node3 -->
<g id="edge2" class="edge">
<title>Node2&#45;&gt;Node3</title>
<path fill="none" stroke="midnightblue" d="M170.67,-86C162.2,-86 153.6,-86 145.19,-86"/>
<polygon fill="midnightblue" stroke="midnightblue" points="170.91,-89.5 180.91,-86 170.91,-82.5 170.91,-89.5"/>
</g>
<!-- Node6 -->
<g id="node6" class="node">
<title>Node6</title>
<g id="a_node6"><a xlink:href="classllm_1_1Slave.html#a05169339916c3727c780c75157b399b9" target="_top" xlink:title=" ">
<polygon fill="none" stroke="black" points="1,-0.5 1,-19.5 144,-19.5 144,-0.5 1,-0.5"/>
<text text-anchor="middle" x="72.5" y="-7.5" font-family="Helvetica,sans-Serif" font-size="10.00">llm::Slave::parseRequestTCP</text>
</a>
</g>
</g>
<!-- Node5&#45;&gt;Node6 -->
<g id="edge5" class="edge">
<title>Node5&#45;&gt;Node6</title>
<path fill="none" stroke="midnightblue" d="M171.69,-10C162.56,-10 153.25,-10 144.19,-10"/>
<polygon fill="midnightblue" stroke="midnightblue" points="171.9,-13.5 181.9,-10 171.9,-6.5 171.9,-13.5"/>
</g>
</g>
</svg>
