<?xml version="1.0" encoding="UTF-8" standalone="no"?>
<!DOCTYPE svg PUBLIC "-//W3C//DTD SVG 1.1//EN"
 "http://www.w3.org/Graphics/SVG/1.1/DTD/svg11.dtd">
<!-- Generated by graphviz version 2.44.0 ()
 -->
<!-- Title: modbusCRC Pages: 1 -->
<svg width="588pt" height="142pt"
 viewBox="0.00 0.00 588.00 142.00" xmlns="http://www.w3.org/2000/svg" xmlns:xlink="http://www.w3.org/1999/xlink">
<g id="graph0" class="graph" transform="scale(1 1) rotate(0) translate(4 138)">
<title>modbusCRC</title>
<!-- Node1 -->
<g id="node1" class="node">
<title>Node1</title>
<g id="a_node1"><a xlink:title="Calculates 16&#45;bit Modbus CRC of provided data.">
<polygon fill="#bfbfbf" stroke="black" points="509,-57.5 509,-76.5 580,-76.5 580,-57.5 509,-57.5"/>
<text text-anchor="middle" x="544.5" y="-64.5" font-family="Helvetica,sans-Serif" font-size="10.00">modbusCRC</text>
</a>
</g>
</g>
<!-- Node2 -->
<g id="node2" class="node">
<title>Node2</title>
<g id="a_node2"><a xlink:href="base_8h.html#af2cafe9debf86bea7042b4c40bb288cd" target="_top" xlink:title="Sets up address and CRC in a Modbus RTU frame.">
<polygon fill="none" stroke="black" points="373.5,-76.5 373.5,-95.5 467.5,-95.5 467.5,-76.5 373.5,-76.5"/>
<text text-anchor="middle" x="420.5" y="-83.5" font-family="Helvetica,sans-Serif" font-size="10.00">modbusPackRTU</text>
</a>
</g>
</g>
<!-- Node1&#45;&gt;Node2 -->
<g id="edge1" class="edge">
<title>Node1&#45;&gt;Node2</title>
<path fill="none" stroke="midnightblue" d="M498.94,-73.94C488.74,-75.53 477.88,-77.22 467.62,-78.82"/>
<polygon fill="midnightblue" stroke="midnightblue" points="499.52,-77.39 508.87,-72.39 498.45,-70.47 499.52,-77.39"/>
</g>
<!-- Node8 -->
<g id="node8" class="node">
<title>Node8</title>
<g id="a_node8"><a xlink:href="base_8h.html#a4dba88e9baf690b8dafa0fad81eb7d07" target="_top" xlink:title="Unpacks data from a Modbus RTU frame and optionally checks CRC.">
<polygon fill="none" stroke="black" points="368,-38.5 368,-57.5 473,-57.5 473,-38.5 368,-38.5"/>
<text text-anchor="middle" x="420.5" y="-45.5" font-family="Helvetica,sans-Serif" font-size="10.00">modbusUnpackRTU</text>
</a>
</g>
</g>
<!-- Node1&#45;&gt;Node8 -->
<g id="edge7" class="edge">
<title>Node1&#45;&gt;Node8</title>
<path fill="none" stroke="midnightblue" d="M498.9,-60.05C490.5,-58.75 481.66,-57.37 473.08,-56.03"/>
<polygon fill="midnightblue" stroke="midnightblue" points="498.45,-63.53 508.87,-61.61 499.52,-56.61 498.45,-63.53"/>
</g>
<!-- Node3 -->
<g id="node3" class="node">
<title>Node3</title>
<g id="a_node3"><a xlink:href="slave_8h.html#a1da09df8858b91c61fe02c25783c2946" target="_top" xlink:title="Builds a Modbus RTU exception.">
<polygon fill="none" stroke="black" points="194.5,-114.5 194.5,-133.5 329.5,-133.5 329.5,-114.5 194.5,-114.5"/>
<text text-anchor="middle" x="262" y="-121.5" font-family="Helvetica,sans-Serif" font-size="10.00">modbusBuildExceptionRTU</text>
</a>
</g>
</g>
<!-- Node2&#45;&gt;Node3 -->
<g id="edge2" class="edge">
<title>Node2&#45;&gt;Node3</title>
<path fill="none" stroke="midnightblue" d="M370.21,-97.97C348.28,-103.29 322.82,-109.48 302.21,-114.48"/>
<polygon fill="midnightblue" stroke="midnightblue" points="371.12,-101.35 380.01,-95.59 369.46,-94.55 371.12,-101.35"/>
</g>
<!-- Node5 -->
<g id="node5" class="node">
<title>Node5</title>
<g id="a_node5"><a xlink:href="master_8h.html#a4623d6d41d5e4a148e399fe19051183c" target="_top" xlink:title="Finalizes a Modbus RTU request.">
<polygon fill="none" stroke="black" points="200,-76.5 200,-95.5 324,-95.5 324,-76.5 200,-76.5"/>
<text text-anchor="middle" x="262" y="-83.5" font-family="Helvetica,sans-Serif" font-size="10.00">modbusEndRequestRTU</text>
</a>
</g>
</g>
<!-- Node2&#45;&gt;Node5 -->
<g id="edge4" class="edge">
<title>Node2&#45;&gt;Node5</title>
<path fill="none" stroke="midnightblue" d="M363.02,-86C350.4,-86 336.96,-86 324.16,-86"/>
<polygon fill="midnightblue" stroke="midnightblue" points="363.39,-89.5 373.39,-86 363.39,-82.5 363.39,-89.5"/>
</g>
<!-- Node6 -->
<g id="node6" class="node">
<title>Node6</title>
<g id="a_node6"><a xlink:href="slave_8h.html#a6a1e63faa64b7ca4b91d1ce7988be850" target="_top" xlink:title="Parses provided Modbus RTU request frame and generates a Modbus RTU response.">
<polygon fill="none" stroke="black" points="195.5,-38.5 195.5,-57.5 328.5,-57.5 328.5,-38.5 195.5,-38.5"/>
<text text-anchor="middle" x="262" y="-45.5" font-family="Helvetica,sans-Serif" font-size="10.00">modbusParseRequestRTU</text>
</a>
</g>
</g>
<!-- Node2&#45;&gt;Node6 -->
<g id="edge5" class="edge">
<title>Node2&#45;&gt;Node6</title>
<path fill="none" stroke="midnightblue" d="M370.21,-74.03C348.28,-68.71 322.82,-62.52 302.21,-57.52"/>
<polygon fill="midnightblue" stroke="midnightblue" points="369.46,-77.45 380.01,-76.41 371.12,-70.65 369.46,-77.45"/>
</g>
<!-- Node4 -->
<g id="node4" class="node">
<title>Node4</title>
<g id="a_node4"><a xlink:href="classllm_1_1Slave.html#a10e79600053c725e639225264d966e63" target="_top" xlink:title=" ">
<polygon fill="none" stroke="black" points="5,-114.5 5,-133.5 151,-133.5 151,-114.5 5,-114.5"/>
<text text-anchor="middle" x="78" y="-121.5" font-family="Helvetica,sans-Serif" font-size="10.00">llm::Slave::buildExceptionRTU</text>
</a>
</g>
</g>
<!-- Node3&#45;&gt;Node4 -->
<g id="edge3" class="edge">
<title>Node3&#45;&gt;Node4</title>
<path fill="none" stroke="midnightblue" d="M183.97,-124C173.12,-124 162,-124 151.25,-124"/>
<polygon fill="midnightblue" stroke="midnightblue" points="184.26,-127.5 194.26,-124 184.26,-120.5 184.26,-127.5"/>
</g>
<!-- Node7 -->
<g id="node7" class="node">
<title>Node7</title>
<g id="a_node7"><a xlink:href="classllm_1_1Slave.html#a001591b9a38b69cf29adc853872a09fe" target="_top" xlink:title=" ">
<polygon fill="none" stroke="black" points="6.5,-38.5 6.5,-57.5 149.5,-57.5 149.5,-38.5 6.5,-38.5"/>
<text text-anchor="middle" x="78" y="-45.5" font-family="Helvetica,sans-Serif" font-size="10.00">llm::Slave::parseRequestRTU</text>
</a>
</g>
</g>
<!-- Node6&#45;&gt;Node7 -->
<g id="edge6" class="edge">
<title>Node6&#45;&gt;Node7</title>
<path fill="none" stroke="midnightblue" d="M185.06,-48C173.29,-48 161.17,-48 149.53,-48"/>
<polygon fill="midnightblue" stroke="midnightblue" points="185.29,-51.5 195.29,-48 185.29,-44.5 185.29,-51.5"/>
</g>
<!-- Node8&#45;&gt;Node6 -->
<g id="edge8" class="edge">
<title>Node8&#45;&gt;Node6</title>
<path fill="none" stroke="midnightblue" d="M357.63,-48C348.08,-48 338.2,-48 328.58,-48"/>
<polygon fill="midnightblue" stroke="midnightblue" points="357.82,-51.5 367.82,-48 357.82,-44.5 357.82,-51.5"/>
</g>
<!-- Node9 -->
<g id="node9" class="node">
<title>Node9</title>
<g id="a_node9"><a xlink:href="master_8h.html#a151b85c221ae43804856eb92737498e5" target="_top" xlink:title="Parses a Modbus RTU slave response.">
<polygon fill="none" stroke="black" points="192,-0.5 192,-19.5 332,-19.5 332,-0.5 192,-0.5"/>
<text text-anchor="middle" x="262" y="-7.5" font-family="Helvetica,sans-Serif" font-size="10.00">modbusParseResponseRTU</text>
</a>
</g>
</g>
<!-- Node8&#45;&gt;Node9 -->
<g id="edge9" class="edge">
<title>Node8&#45;&gt;Node9</title>
<path fill="none" stroke="midnightblue" d="M370.21,-36.03C348.28,-30.71 322.82,-24.52 302.21,-19.52"/>
<polygon fill="midnightblue" stroke="midnightblue" points="369.46,-39.45 380.01,-38.41 371.12,-32.65 369.46,-39.45"/>
</g>
<!-- Node10 -->
<g id="node10" class="node">
<title>Node10</title>
<g id="a_node10"><a xlink:href="classllm_1_1Master.html#ab052e172e96808744ee43a8eff80b679" target="_top" xlink:title=" ">
<polygon fill="none" stroke="black" points="0,-0.5 0,-19.5 156,-19.5 156,-0.5 0,-0.5"/>
<text text-anchor="middle" x="78" y="-7.5" font-family="Helvetica,sans-Serif" font-size="10.00">llm::Master::parseResponseRTU</text>
</a>
</g>
</g>
<!-- Node9&#45;&gt;Node10 -->
<g id="edge10" class="edge">
<title>Node9&#45;&gt;Node10</title>
<path fill="none" stroke="midnightblue" d="M181.71,-10C173.26,-10 164.67,-10 156.24,-10"/>
<polygon fill="midnightblue" stroke="midnightblue" points="181.93,-13.5 191.93,-10 181.93,-6.5 181.93,-13.5"/>
</g>
</g>
</svg>
