<?xml version="1.0" encoding="UTF-8" standalone="no"?>
<!DOCTYPE svg PUBLIC "-//W3C//DTD SVG 1.1//EN"
 "http://www.w3.org/Graphics/SVG/1.1/DTD/svg11.dtd">
<!-- Generated by graphviz version 2.44.0 ()
 -->
<!-- Title: modbusRBE Pages: 1 -->
<svg width="644pt" height="313pt"
 viewBox="0.00 0.00 644.00 313.00" xmlns="http://www.w3.org/2000/svg" xmlns:xlink="http://www.w3.org/1999/xlink">
<g id="graph0" class="graph" transform="scale(1 1) rotate(0) translate(4 309)">
<title>modbusRBE</title>
<!-- Node1 -->
<g id="node1" class="node">
<title>Node1</title>
<g id="a_node1"><a xlink:title="Safely reads a big&#45;endian 16&#45;bit word from provided pointer.">
<polygon fill="#bfbfbf" stroke="black" points="565,-152.5 565,-171.5 636,-171.5 636,-152.5 565,-152.5"/>
<text text-anchor="middle" x="600.5" y="-159.5" font-family="Helvetica,sans-Serif" font-size="10.00">modbusRBE</text>
</a>
</g>
</g>
<!-- Node2 -->
<g id="node2" class="node">
<title>Node2</title>
<g id="a_node2"><a xlink:href="slave__func_8h.html#aaff57f2a5c6a8e6c77d36c5dc7e48cfa" target="_top" xlink:title="Handles requests 01, 02, 03 and 04 (Read Multiple XX) and generates response.">
<polygon fill="none" stroke="black" points="370.5,-285.5 370.5,-304.5 525.5,-304.5 525.5,-285.5 370.5,-285.5"/>
<text text-anchor="middle" x="448" y="-292.5" font-family="Helvetica,sans-Serif" font-size="10.00">modbusParseRequest01020304</text>
</a>
</g>
</g>
<!-- Node1&#45;&gt;Node2 -->
<g id="edge1" class="edge">
<title>Node1&#45;&gt;Node2</title>
<path fill="none" stroke="midnightblue" d="M592.86,-181.47C583.05,-207.2 562.19,-252.05 529,-276 523.67,-279.84 517.68,-282.92 511.43,-285.38"/>
<polygon fill="midnightblue" stroke="midnightblue" points="596.27,-182.33 596.39,-171.74 589.69,-179.94 596.27,-182.33"/>
</g>
<!-- Node3 -->
<g id="node3" class="node">
<title>Node3</title>
<g id="a_node3"><a xlink:href="slave__func_8h.html#a236881fe30a95d4cc9b031a9e24ae2a8" target="_top" xlink:title="Handles requests 05 and 06 (Write Single XX) and generates response.">
<polygon fill="none" stroke="black" points="381,-247.5 381,-266.5 515,-266.5 515,-247.5 381,-247.5"/>
<text text-anchor="middle" x="448" y="-254.5" font-family="Helvetica,sans-Serif" font-size="10.00">modbusParseRequest0506</text>
</a>
</g>
</g>
<!-- Node1&#45;&gt;Node3 -->
<g id="edge2" class="edge">
<title>Node1&#45;&gt;Node3</title>
<path fill="none" stroke="midnightblue" d="M587.71,-179.9C575.22,-197.4 553.89,-223.48 529,-238 522.34,-241.88 514.93,-244.97 507.39,-247.43"/>
<polygon fill="midnightblue" stroke="midnightblue" points="590.61,-181.85 593.41,-171.63 584.85,-177.88 590.61,-181.85"/>
</g>
<!-- Node4 -->
<g id="node4" class="node">
<title>Node4</title>
<g id="a_node4"><a xlink:href="slave__func_8h.html#a0cb2a7bf59d4014088e1ce1c61523071" target="_top" xlink:title="Handles requests 15 and 16 (Write Multiple XX) and generates response.">
<polygon fill="none" stroke="black" points="381,-209.5 381,-228.5 515,-228.5 515,-209.5 381,-209.5"/>
<text text-anchor="middle" x="448" y="-216.5" font-family="Helvetica,sans-Serif" font-size="10.00">modbusParseRequest1516</text>
</a>
</g>
</g>
<!-- Node1&#45;&gt;Node4 -->
<g id="edge3" class="edge">
<title>Node1&#45;&gt;Node4</title>
<path fill="none" stroke="midnightblue" d="M575.43,-177.01C562.14,-184.77 545.1,-193.87 529,-200 519.26,-203.71 508.57,-206.85 498.26,-209.44"/>
<polygon fill="midnightblue" stroke="midnightblue" points="577.59,-179.8 584.37,-171.66 573.99,-173.79 577.59,-179.8"/>
</g>
<!-- Node5 -->
<g id="node5" class="node">
<title>Node5</title>
<g id="a_node5"><a xlink:href="slave__func_8h.html#a814f041d9acfa578998b8ce8fe53815c" target="_top" xlink:title="Handles request 22 (Mask Write Register) and generates response.">
<polygon fill="none" stroke="black" points="386.5,-171.5 386.5,-190.5 509.5,-190.5 509.5,-171.5 386.5,-171.5"/>
<text text-anchor="middle" x="448" y="-178.5" font-family="Helvetica,sans-Serif" font-size="10.00">modbusParseRequest22</text>
</a>
</g>
</g>
<!-- Node1&#45;&gt;Node5 -->
<g id="edge4" class="edge">
<title>Node1&#45;&gt;Node5</title>
<path fill="none" stroke="midnightblue" d="M554.98,-167.62C540.77,-169.41 524.8,-171.43 509.65,-173.34"/>
<polygon fill="midnightblue" stroke="midnightblue" points="555.49,-171.08 564.97,-166.36 554.61,-164.14 555.49,-171.08"/>
</g>
<!-- Node6 -->
<g id="node6" class="node">
<title>Node6</title>
<g id="a_node6"><a xlink:href="master__func_8h.html#adafbaa72d4df36b3577ce5494b460a2b" target="_top" xlink:title="Parses response to requests 01, 02, 03 and 04.">
<polygon fill="none" stroke="black" points="367,-133.5 367,-152.5 529,-152.5 529,-133.5 367,-133.5"/>
<text text-anchor="middle" x="448" y="-140.5" font-family="Helvetica,sans-Serif" font-size="10.00">modbusParseResponse01020304</text>
</a>
</g>
</g>
<!-- Node1&#45;&gt;Node6 -->
<g id="edge5" class="edge">
<title>Node1&#45;&gt;Node6</title>
<path fill="none" stroke="midnightblue" d="M554.9,-156.37C545.29,-155.16 534.88,-153.84 524.46,-152.53"/>
<polygon fill="midnightblue" stroke="midnightblue" points="554.61,-159.86 564.97,-157.64 555.49,-152.92 554.61,-159.86"/>
</g>
<!-- Node7 -->
<g id="node7" class="node">
<title>Node7</title>
<g id="a_node7"><a xlink:href="master__func_8h.html#a1a105f7339569601abe367a3254d38dc" target="_top" xlink:title="Parses response to requests 05 and 06.">
<polygon fill="none" stroke="black" points="377.5,-95.5 377.5,-114.5 518.5,-114.5 518.5,-95.5 377.5,-95.5"/>
<text text-anchor="middle" x="448" y="-102.5" font-family="Helvetica,sans-Serif" font-size="10.00">modbusParseResponse0506</text>
</a>
</g>
</g>
<!-- Node1&#45;&gt;Node7 -->
<g id="edge6" class="edge">
<title>Node1&#45;&gt;Node7</title>
<path fill="none" stroke="midnightblue" d="M575.43,-146.99C562.14,-139.23 545.1,-130.13 529,-124 519.26,-120.29 508.57,-117.15 498.26,-114.56"/>
<polygon fill="midnightblue" stroke="midnightblue" points="573.99,-150.21 584.37,-152.34 577.59,-144.2 573.99,-150.21"/>
</g>
<!-- Node8 -->
<g id="node8" class="node">
<title>Node8</title>
<g id="a_node8"><a xlink:href="master__func_8h.html#a0c53ade25c249f6aeed8c877b98f8016" target="_top" xlink:title="Parses response to requests 15 and 16 (write mutliple regsiters/coils)">
<polygon fill="none" stroke="black" points="377.5,-57.5 377.5,-76.5 518.5,-76.5 518.5,-57.5 377.5,-57.5"/>
<text text-anchor="middle" x="448" y="-64.5" font-family="Helvetica,sans-Serif" font-size="10.00">modbusParseResponse1516</text>
</a>
</g>
</g>
<!-- Node1&#45;&gt;Node8 -->
<g id="edge7" class="edge">
<title>Node1&#45;&gt;Node8</title>
<path fill="none" stroke="midnightblue" d="M587.71,-144.1C575.22,-126.6 553.89,-100.52 529,-86 522.34,-82.12 514.93,-79.03 507.39,-76.57"/>
<polygon fill="midnightblue" stroke="midnightblue" points="584.85,-146.12 593.41,-152.37 590.61,-142.15 584.85,-146.12"/>
</g>
<!-- Node9 -->
<g id="node9" class="node">
<title>Node9</title>
<g id="a_node9"><a xlink:href="base_8h.html#a616e5bdb5ebcd57b1604421f6ca22bc9" target="_top" xlink:title="Unpacks data from a Modbus TCP frame.">
<polygon fill="none" stroke="black" points="396,-19.5 396,-38.5 500,-38.5 500,-19.5 396,-19.5"/>
<text text-anchor="middle" x="448" y="-26.5" font-family="Helvetica,sans-Serif" font-size="10.00">modbusUnpackTCP</text>
</a>
</g>
</g>
<!-- Node1&#45;&gt;Node9 -->
<g id="edge8" class="edge">
<title>Node1&#45;&gt;Node9</title>
<path fill="none" stroke="midnightblue" d="M592.86,-142.53C583.05,-116.8 562.19,-71.95 529,-48 520.55,-41.9 510.41,-37.74 500.24,-34.9"/>
<polygon fill="midnightblue" stroke="midnightblue" points="589.69,-144.06 596.39,-152.26 596.27,-141.67 589.69,-144.06"/>
</g>
<!-- Node10 -->
<g id="node10" class="node">
<title>Node10</title>
<g id="a_node10"><a xlink:href="slave_8h.html#a5ad3fe86aa14f8982d7c459c68cd8b3e" target="_top" xlink:title="Parses provided Modbus TCP request frame and generates a Modbus TCP response.">
<polygon fill="none" stroke="black" points="195,-38.5 195,-57.5 327,-57.5 327,-38.5 195,-38.5"/>
<text text-anchor="middle" x="261" y="-45.5" font-family="Helvetica,sans-Serif" font-size="10.00">modbusParseRequestTCP</text>
</a>
</g>
</g>
<!-- Node9&#45;&gt;Node10 -->
<g id="edge9" class="edge">
<title>Node9&#45;&gt;Node10</title>
<path fill="none" stroke="midnightblue" d="M386,-35.27C367.12,-37.2 346.26,-39.35 327.12,-41.31"/>
<polygon fill="midnightblue" stroke="midnightblue" points="386.37,-38.75 395.96,-34.24 385.65,-31.78 386.37,-38.75"/>
</g>
<!-- Node12 -->
<g id="node12" class="node">
<title>Node12</title>
<g id="a_node12"><a xlink:href="master_8h.html#a53ea67c733b1e627e1cdcb0003270a1b" target="_top" xlink:title="Parses a Modbus TCP slave response.">
<polygon fill="none" stroke="black" points="191,-0.5 191,-19.5 331,-19.5 331,-0.5 191,-0.5"/>
<text text-anchor="middle" x="261" y="-7.5" font-family="Helvetica,sans-Serif" font-size="10.00">modbusParseResponseTCP</text>
</a>
</g>
</g>
<!-- Node9&#45;&gt;Node12 -->
<g id="edge11" class="edge">
<title>Node9&#45;&gt;Node12</title>
<path fill="none" stroke="midnightblue" d="M385.87,-22.72C368.37,-20.92 349.18,-18.95 331.23,-17.11"/>
<polygon fill="midnightblue" stroke="midnightblue" points="385.65,-26.22 395.96,-23.76 386.37,-19.25 385.65,-26.22"/>
</g>
<!-- Node11 -->
<g id="node11" class="node">
<title>Node11</title>
<g id="a_node11"><a xlink:href="classllm_1_1Slave.html#a05169339916c3727c780c75157b399b9" target="_top" xlink:title=" ">
<polygon fill="none" stroke="black" points="6,-38.5 6,-57.5 149,-57.5 149,-38.5 6,-38.5"/>
<text text-anchor="middle" x="77.5" y="-45.5" font-family="Helvetica,sans-Serif" font-size="10.00">llm::Slave::parseRequestTCP</text>
</a>
</g>
</g>
<!-- Node10&#45;&gt;Node11 -->
<g id="edge10" class="edge">
<title>Node10&#45;&gt;Node11</title>
<path fill="none" stroke="midnightblue" d="M184.76,-48C172.99,-48 160.87,-48 149.21,-48"/>
<polygon fill="midnightblue" stroke="midnightblue" points="184.99,-51.5 194.99,-48 184.99,-44.5 184.99,-51.5"/>
</g>
<!-- Node13 -->
<g id="node13" class="node">
<title>Node13</title>
<g id="a_node13"><a xlink:href="classllm_1_1Master.html#ad1f614f5d44a61a8507ae34968fa7903" target="_top" xlink:title=" ">
<polygon fill="none" stroke="black" points="0,-0.5 0,-19.5 155,-19.5 155,-0.5 0,-0.5"/>
<text text-anchor="middle" x="77.5" y="-7.5" font-family="Helvetica,sans-Serif" font-size="10.00">llm::Master::parseResponseTCP</text>
</a>
</g>
</g>
<!-- Node12&#45;&gt;Node13 -->
<g id="edge12" class="edge">
<title>Node12&#45;&gt;Node13</title>
<path fill="none" stroke="midnightblue" d="M180.59,-10C172.1,-10 163.47,-10 155.02,-10"/>
<polygon fill="midnightblue" stroke="midnightblue" points="180.86,-13.5 190.86,-10 180.86,-6.5 180.86,-13.5"/>
</g>
</g>
</svg>
