<?xml version="1.0" encoding="UTF-8" standalone="no"?>
<!DOCTYPE svg PUBLIC "-//W3C//DTD SVG 1.1//EN"
 "http://www.w3.org/Graphics/SVG/1.1/DTD/svg11.dtd">
<!-- Generated by graphviz version 2.44.0 ()
 -->
<!-- Title: include/lightmodbus/debug.impl.h Pages: 1 -->
<svg width="164pt" height="263pt"
 viewBox="0.00 0.00 164.00 263.00" xmlns="http://www.w3.org/2000/svg" xmlns:xlink="http://www.w3.org/1999/xlink">
<g id="graph0" class="graph" transform="scale(1 1) rotate(0) translate(4 259)">
<title>include/lightmodbus/debug.impl.h</title>
<!-- Node1 -->
<g id="node1" class="node">
<title>Node1</title>
<g id="a_node1"><a xlink:title="Debug utilities (implementation)">
<polygon fill="#bfbfbf" stroke="black" points="0,-224.5 0,-254.5 103,-254.5 103,-224.5 0,-224.5"/>
<text text-anchor="start" x="8" y="-242.5" font-family="Helvetica,sans-Serif" font-size="10.00">include/lightmodbus</text>
<text text-anchor="middle" x="51.5" y="-231.5" font-family="Helvetica,sans-Serif" font-size="10.00">/debug.impl.h</text>
</a>
</g>
</g>
<!-- Node2 -->
<g id="node2" class="node">
<title>Node2</title>
<g id="a_node2"><a xlink:href="debug_8h.html" target="_top" xlink:title="Debug utilities (header)">
<polygon fill="none" stroke="black" points="26.5,-168.5 26.5,-187.5 76.5,-187.5 76.5,-168.5 26.5,-168.5"/>
<text text-anchor="middle" x="51.5" y="-175.5" font-family="Helvetica,sans-Serif" font-size="10.00">debug.h</text>
</a>
</g>
</g>
<!-- Node1&#45;&gt;Node2 -->
<g id="edge1" class="edge">
<title>Node1&#45;&gt;Node2</title>
<path fill="none" stroke="midnightblue" d="M51.5,-224.4C51.5,-216.47 51.5,-206.46 51.5,-197.86"/>
<polygon fill="midnightblue" stroke="midnightblue" points="55,-197.66 51.5,-187.66 48,-197.66 55,-197.66"/>
</g>
<!-- Node3 -->
<g id="node3" class="node">
<title>Node3</title>
<g id="a_node3"><a xlink:href="base_8h.html" target="_top" xlink:title="Common types and functions (header)">
<polygon fill="none" stroke="black" points="3,-56.5 3,-75.5 48,-75.5 48,-56.5 3,-56.5"/>
<text text-anchor="middle" x="25.5" y="-63.5" font-family="Helvetica,sans-Serif" font-size="10.00">base.h</text>
</a>
</g>
</g>
<!-- Node2&#45;&gt;Node3 -->
<g id="edge2" class="edge">
<title>Node2&#45;&gt;Node3</title>
<path fill="none" stroke="midnightblue" d="M49.46,-168.37C45.26,-150.62 35.58,-109.67 29.9,-85.6"/>
<polygon fill="midnightblue" stroke="midnightblue" points="33.24,-84.52 27.53,-75.59 26.42,-86.13 33.24,-84.52"/>
</g>
<!-- Node5 -->
<g id="node5" class="node">
<title>Node5</title>
<g id="a_node5"><a xlink:href="slave_8h.html" target="_top" xlink:title="Slave&#39;s types and basic functions (header)">
<polygon fill="none" stroke="black" points="54,-112.5 54,-131.5 101,-131.5 101,-112.5 54,-112.5"/>
<text text-anchor="middle" x="77.5" y="-119.5" font-family="Helvetica,sans-Serif" font-size="10.00">slave.h</text>
</a>
</g>
</g>
<!-- Node2&#45;&gt;Node5 -->
<g id="edge4" class="edge">
<title>Node2&#45;&gt;Node5</title>
<path fill="none" stroke="midnightblue" d="M55.79,-168.08C59.35,-160.69 64.52,-149.95 68.92,-140.81"/>
<polygon fill="midnightblue" stroke="midnightblue" points="72.1,-142.28 73.29,-131.75 65.79,-139.24 72.1,-142.28"/>
</g>
<!-- Node4 -->
<g id="node4" class="node">
<title>Node4</title>
<g id="a_node4"><a xlink:title=" ">
<polygon fill="none" stroke="#bfbfbf" points="26.5,-0.5 26.5,-19.5 74.5,-19.5 74.5,-0.5 26.5,-0.5"/>
<text text-anchor="middle" x="50.5" y="-7.5" font-family="Helvetica,sans-Serif" font-size="10.00">stdint.h</text>
</a>
</g>
</g>
<!-- Node3&#45;&gt;Node4 -->
<g id="edge3" class="edge">
<title>Node3&#45;&gt;Node4</title>
<path fill="none" stroke="midnightblue" d="M29.63,-56.08C33.01,-48.77 37.92,-38.18 42.12,-29.1"/>
<polygon fill="midnightblue" stroke="midnightblue" points="45.42,-30.3 46.45,-19.75 39.07,-27.36 45.42,-30.3"/>
</g>
<!-- Node5&#45;&gt;Node3 -->
<g id="edge7" class="edge">
<title>Node5&#45;&gt;Node3</title>
<path fill="none" stroke="midnightblue" d="M68.91,-112.08C61.34,-104.22 50.12,-92.57 40.99,-83.08"/>
<polygon fill="midnightblue" stroke="midnightblue" points="43.38,-80.53 33.93,-75.75 38.34,-85.38 43.38,-80.53"/>
</g>
<!-- Node5&#45;&gt;Node4 -->
<g id="edge5" class="edge">
<title>Node5&#45;&gt;Node4</title>
<path fill="none" stroke="midnightblue" d="M75.38,-112.37C71.02,-94.62 60.97,-53.67 55.06,-29.6"/>
<polygon fill="midnightblue" stroke="midnightblue" points="58.39,-28.47 52.61,-19.59 51.59,-30.14 58.39,-28.47"/>
</g>
<!-- Node6 -->
<g id="node6" class="node">
<title>Node6</title>
<g id="a_node6"><a xlink:title=" ">
<polygon fill="none" stroke="#bfbfbf" points="105,-56.5 105,-75.5 156,-75.5 156,-56.5 105,-56.5"/>
<text text-anchor="middle" x="130.5" y="-63.5" font-family="Helvetica,sans-Serif" font-size="10.00">stddef.h</text>
</a>
</g>
</g>
<!-- Node5&#45;&gt;Node6 -->
<g id="edge6" class="edge">
<title>Node5&#45;&gt;Node6</title>
<path fill="none" stroke="midnightblue" d="M86.25,-112.08C93.97,-104.22 105.4,-92.57 114.72,-83.08"/>
<polygon fill="midnightblue" stroke="midnightblue" points="117.4,-85.34 121.91,-75.75 112.41,-80.44 117.4,-85.34"/>
</g>
</g>
</svg>
