<?xml version="1.0" encoding="UTF-8" standalone="no"?>
<!DOCTYPE svg PUBLIC "-//W3C//DTD SVG 1.1//EN"
 "http://www.w3.org/Graphics/SVG/1.1/DTD/svg11.dtd">
<!-- Generated by graphviz version 2.44.0 ()
 -->
<!-- Title: modbusBuildRequest0506 Pages: 1 -->
<svg width="511pt" height="85pt"
 viewBox="0.00 0.00 511.00 85.00" xmlns="http://www.w3.org/2000/svg" xmlns:xlink="http://www.w3.org/1999/xlink">
<g id="graph0" class="graph" transform="scale(1 1) rotate(0) translate(4 81)">
<title>modbusBuildRequest0506</title>
<!-- Node1 -->
<g id="node1" class="node">
<title>Node1</title>
<g id="a_node1"><a xlink:title="Write single coil/holding register.">
<polygon fill="#bfbfbf" stroke="black" points="0,-19.5 0,-38.5 130,-38.5 130,-19.5 0,-19.5"/>
<text text-anchor="middle" x="65" y="-26.5" font-family="Helvetica,sans-Serif" font-size="10.00">modbusBuildRequest0506</text>
</a>
</g>
</g>
<!-- Node2 -->
<g id="node2" class="node">
<title>Node2</title>
<g id="a_node2"><a xlink:href="master_8h.html#a004b932b2b69ad0c6649c26d974146b2" target="_top" xlink:title="Allocates memory for the request frame.">
<polygon fill="none" stroke="black" points="166,-38.5 166,-57.5 318,-57.5 318,-38.5 166,-38.5"/>
<text text-anchor="middle" x="242" y="-45.5" font-family="Helvetica,sans-Serif" font-size="10.00">modbusMasterAllocateRequest</text>
</a>
</g>
</g>
<!-- Node1&#45;&gt;Node2 -->
<g id="edge1" class="edge">
<title>Node1&#45;&gt;Node2</title>
<path fill="none" stroke="midnightblue" d="M130.17,-35.97C138.51,-36.87 147.16,-37.81 155.78,-38.75"/>
<polygon fill="midnightblue" stroke="midnightblue" points="155.55,-42.24 165.87,-39.84 156.3,-35.28 155.55,-42.24"/>
</g>
<!-- Node5 -->
<g id="node5" class="node">
<title>Node5</title>
<g id="a_node5"><a xlink:href="base_8h.html#a73b9f793bbe67a1968cc8c53a22d4c4b" target="_top" xlink:title="Safely writes a big&#45;endian 16&#45;bit word to provided pointer.">
<polygon fill="none" stroke="black" points="205.5,-0.5 205.5,-19.5 278.5,-19.5 278.5,-0.5 205.5,-0.5"/>
<text text-anchor="middle" x="242" y="-7.5" font-family="Helvetica,sans-Serif" font-size="10.00">modbusWBE</text>
</a>
</g>
</g>
<!-- Node1&#45;&gt;Node5 -->
<g id="edge4" class="edge">
<title>Node1&#45;&gt;Node5</title>
<path fill="none" stroke="midnightblue" d="M130.17,-22.03C151.77,-19.69 175.41,-17.12 195.29,-14.96"/>
<polygon fill="midnightblue" stroke="midnightblue" points="195.75,-18.43 205.32,-13.87 195,-11.47 195.75,-18.43"/>
</g>
<!-- Node3 -->
<g id="node3" class="node">
<title>Node3</title>
<g id="a_node3"><a xlink:href="base_8h.html#a54f7d1db7f58ffd329b1955ad1a66f37" target="_top" xlink:title="Allocates memory to hold Modbus ADU.">
<polygon fill="none" stroke="black" points="362,-57.5 362,-76.5 495,-76.5 495,-57.5 362,-57.5"/>
<text text-anchor="middle" x="428.5" y="-64.5" font-family="Helvetica,sans-Serif" font-size="10.00">modbusBufferAllocateADU</text>
</a>
</g>
</g>
<!-- Node2&#45;&gt;Node3 -->
<g id="edge2" class="edge">
<title>Node2&#45;&gt;Node3</title>
<path fill="none" stroke="midnightblue" d="M318.04,-55.73C329.2,-56.88 340.69,-58.06 351.86,-59.21"/>
<polygon fill="midnightblue" stroke="midnightblue" points="351.69,-62.71 362,-60.25 352.41,-55.75 351.69,-62.71"/>
</g>
<!-- Node4 -->
<g id="node4" class="node">
<title>Node4</title>
<g id="a_node4"><a xlink:href="master_8h.html#a6ecfd0864bb7cd392a04be7d47bcadfa" target="_top" xlink:title="Retreieves the custom context pointer.">
<polygon fill="none" stroke="black" points="354,-19.5 354,-38.5 503,-38.5 503,-19.5 354,-19.5"/>
<text text-anchor="middle" x="428.5" y="-26.5" font-family="Helvetica,sans-Serif" font-size="10.00">modbusMasterGetUserPointer</text>
</a>
</g>
</g>
<!-- Node2&#45;&gt;Node4 -->
<g id="edge3" class="edge">
<title>Node2&#45;&gt;Node4</title>
<path fill="none" stroke="midnightblue" d="M318.04,-40.27C326.5,-39.4 335.17,-38.51 343.73,-37.63"/>
<polygon fill="midnightblue" stroke="midnightblue" points="344.13,-41.1 353.72,-36.6 343.41,-34.14 344.13,-41.1"/>
</g>
</g>
</svg>
