<?xml version="1.0" encoding="UTF-8" standalone="no"?>
<!DOCTYPE svg PUBLIC "-//W3C//DTD SVG 1.1//EN"
 "http://www.w3.org/Graphics/SVG/1.1/DTD/svg11.dtd">
<!-- Generated by graphviz version 2.44.0 ()
 -->
<!-- Title: include/lightmodbus/master_func.impl.h Pages: 1 -->
<svg width="180pt" height="263pt"
 viewBox="0.00 0.00 179.50 263.00" xmlns="http://www.w3.org/2000/svg" xmlns:xlink="http://www.w3.org/1999/xlink">
<g id="graph0" class="graph" transform="scale(1 1) rotate(0) translate(4 259)">
<title>include/lightmodbus/master_func.impl.h</title>
<!-- Node1 -->
<g id="node1" class="node">
<title>Node1</title>
<g id="a_node1"><a xlink:title="Master&#39;s functions for building requests and parsing responses (implementation)">
<polygon fill="#bfbfbf" stroke="black" points="20.5,-224.5 20.5,-254.5 123.5,-254.5 123.5,-224.5 20.5,-224.5"/>
<text text-anchor="start" x="28.5" y="-242.5" font-family="Helvetica,sans-Serif" font-size="10.00">include/lightmodbus</text>
<text text-anchor="middle" x="72" y="-231.5" font-family="Helvetica,sans-Serif" font-size="10.00">/master_func.impl.h</text>
</a>
</g>
</g>
<!-- Node2 -->
<g id="node2" class="node">
<title>Node2</title>
<g id="a_node2"><a xlink:href="master__func_8h.html" target="_top" xlink:title="Master&#39;s functions for building requests and parsing responses (header)">
<polygon fill="none" stroke="black" points="0,-168.5 0,-187.5 78,-187.5 78,-168.5 0,-168.5"/>
<text text-anchor="middle" x="39" y="-175.5" font-family="Helvetica,sans-Serif" font-size="10.00">master_func.h</text>
</a>
</g>
</g>
<!-- Node1&#45;&gt;Node2 -->
<g id="edge1" class="edge">
<title>Node1&#45;&gt;Node2</title>
<path fill="none" stroke="midnightblue" d="M64.18,-224.4C59.53,-216.02 53.6,-205.33 48.66,-196.42"/>
<polygon fill="midnightblue" stroke="midnightblue" points="51.71,-194.71 43.8,-187.66 45.59,-198.1 51.71,-194.71"/>
</g>
<!-- Node5 -->
<g id="node5" class="node">
<title>Node5</title>
<g id="a_node5"><a xlink:href="master_8h.html" target="_top" xlink:title="Master&#39;s types and basic functions (header)">
<polygon fill="none" stroke="black" points="67,-112.5 67,-131.5 121,-131.5 121,-112.5 67,-112.5"/>
<text text-anchor="middle" x="94" y="-119.5" font-family="Helvetica,sans-Serif" font-size="10.00">master.h</text>
</a>
</g>
</g>
<!-- Node1&#45;&gt;Node5 -->
<g id="edge8" class="edge">
<title>Node1&#45;&gt;Node5</title>
<path fill="none" stroke="midnightblue" d="M77.04,-224.09C80.35,-214.08 84.52,-200.37 87,-188 90.07,-172.68 91.87,-155.04 92.87,-142"/>
<polygon fill="midnightblue" stroke="midnightblue" points="96.37,-142.12 93.55,-131.91 89.38,-141.65 96.37,-142.12"/>
</g>
<!-- Node3 -->
<g id="node3" class="node">
<title>Node3</title>
<g id="a_node3"><a xlink:href="base_8h.html" target="_top" xlink:title="Common types and functions (header)">
<polygon fill="none" stroke="black" points="18.5,-56.5 18.5,-75.5 63.5,-75.5 63.5,-56.5 18.5,-56.5"/>
<text text-anchor="middle" x="41" y="-63.5" font-family="Helvetica,sans-Serif" font-size="10.00">base.h</text>
</a>
</g>
</g>
<!-- Node2&#45;&gt;Node3 -->
<g id="edge2" class="edge">
<title>Node2&#45;&gt;Node3</title>
<path fill="none" stroke="midnightblue" d="M39.16,-168.37C39.48,-150.62 40.22,-109.67 40.66,-85.6"/>
<polygon fill="midnightblue" stroke="midnightblue" points="44.16,-85.65 40.84,-75.59 37.16,-85.53 44.16,-85.65"/>
</g>
<!-- Node2&#45;&gt;Node5 -->
<g id="edge4" class="edge">
<title>Node2&#45;&gt;Node5</title>
<path fill="none" stroke="midnightblue" d="M48.08,-168.08C56.17,-160.14 68.2,-148.34 77.91,-138.8"/>
<polygon fill="midnightblue" stroke="midnightblue" points="80.4,-141.25 85.09,-131.75 75.5,-136.26 80.4,-141.25"/>
</g>
<!-- Node4 -->
<g id="node4" class="node">
<title>Node4</title>
<g id="a_node4"><a xlink:title=" ">
<polygon fill="none" stroke="#bfbfbf" points="42,-0.5 42,-19.5 90,-19.5 90,-0.5 42,-0.5"/>
<text text-anchor="middle" x="66" y="-7.5" font-family="Helvetica,sans-Serif" font-size="10.00">stdint.h</text>
</a>
</g>
</g>
<!-- Node3&#45;&gt;Node4 -->
<g id="edge3" class="edge">
<title>Node3&#45;&gt;Node4</title>
<path fill="none" stroke="midnightblue" d="M45.13,-56.08C48.51,-48.77 53.42,-38.18 57.62,-29.1"/>
<polygon fill="midnightblue" stroke="midnightblue" points="60.92,-30.3 61.95,-19.75 54.57,-27.36 60.92,-30.3"/>
</g>
<!-- Node5&#45;&gt;Node3 -->
<g id="edge7" class="edge">
<title>Node5&#45;&gt;Node3</title>
<path fill="none" stroke="midnightblue" d="M85.25,-112.08C77.53,-104.22 66.1,-92.57 56.78,-83.08"/>
<polygon fill="midnightblue" stroke="midnightblue" points="59.09,-80.44 49.59,-75.75 54.1,-85.34 59.09,-80.44"/>
</g>
<!-- Node5&#45;&gt;Node4 -->
<g id="edge5" class="edge">
<title>Node5&#45;&gt;Node4</title>
<path fill="none" stroke="midnightblue" d="M91.8,-112.37C87.28,-94.62 76.86,-53.67 70.73,-29.6"/>
<polygon fill="midnightblue" stroke="midnightblue" points="74.05,-28.42 68.19,-19.59 67.26,-30.15 74.05,-28.42"/>
</g>
<!-- Node6 -->
<g id="node6" class="node">
<title>Node6</title>
<g id="a_node6"><a xlink:title=" ">
<polygon fill="none" stroke="#bfbfbf" points="120.5,-56.5 120.5,-75.5 171.5,-75.5 171.5,-56.5 120.5,-56.5"/>
<text text-anchor="middle" x="146" y="-63.5" font-family="Helvetica,sans-Serif" font-size="10.00">stddef.h</text>
</a>
</g>
</g>
<!-- Node5&#45;&gt;Node6 -->
<g id="edge6" class="edge">
<title>Node5&#45;&gt;Node6</title>
<path fill="none" stroke="midnightblue" d="M102.59,-112.08C110.16,-104.22 121.38,-92.57 130.51,-83.08"/>
<polygon fill="midnightblue" stroke="midnightblue" points="133.16,-85.38 137.57,-75.75 128.12,-80.53 133.16,-85.38"/>
</g>
</g>
</svg>
