<?xml version="1.0" encoding="UTF-8" standalone="no"?>
<!DOCTYPE svg PUBLIC "-//W3C//DTD SVG 1.1//EN"
 "http://www.w3.org/Graphics/SVG/1.1/DTD/svg11.dtd">
<!-- Generated by graphviz version 2.44.0 ()
 -->
<!-- Title: modbusBuildRequest04 Pages: 1 -->
<svg width="687pt" height="104pt"
 viewBox="0.00 0.00 687.00 104.00" xmlns="http://www.w3.org/2000/svg" xmlns:xlink="http://www.w3.org/1999/xlink">
<g id="graph0" class="graph" transform="scale(1 1) rotate(0) translate(4 100)">
<title>modbusBuildRequest04</title>
<!-- Node1 -->
<g id="node1" class="node">
<title>Node1</title>
<g id="a_node1"><a xlink:title="Read multiple input registers &#45; a wrapper for modbusBuildRequest01020304()">
<polygon fill="#bfbfbf" stroke="black" points="0,-38.5 0,-57.5 119,-57.5 119,-38.5 0,-38.5"/>
<text text-anchor="middle" x="59.5" y="-45.5" font-family="Helvetica,sans-Serif" font-size="10.00">modbusBuildRequest04</text>
</a>
</g>
</g>
<!-- Node2 -->
<g id="node2" class="node">
<title>Node2</title>
<g id="a_node2"><a xlink:href="master__func_8h.html#ad3a6d4576d762da3eb0bd73aa5bb24fe" target="_top" xlink:title="Read mutiple coils/discrete inputs/holding registers/input registers.">
<polygon fill="none" stroke="black" points="155,-38.5 155,-57.5 306,-57.5 306,-38.5 155,-38.5"/>
<text text-anchor="middle" x="230.5" y="-45.5" font-family="Helvetica,sans-Serif" font-size="10.00">modbusBuildRequest01020304</text>
</a>
</g>
</g>
<!-- Node1&#45;&gt;Node2 -->
<g id="edge1" class="edge">
<title>Node1&#45;&gt;Node2</title>
<path fill="none" stroke="midnightblue" d="M119.13,-48C127.42,-48 136.08,-48 144.75,-48"/>
<polygon fill="midnightblue" stroke="midnightblue" points="144.89,-51.5 154.89,-48 144.89,-44.5 144.89,-51.5"/>
</g>
<!-- Node3 -->
<g id="node3" class="node">
<title>Node3</title>
<g id="a_node3"><a xlink:href="base_8h.html#a61619958551d902c14ab6e51fb842ea0" target="_top" xlink:title="Checks whether provided address range causes an uint16_t overflow.">
<polygon fill="none" stroke="black" points="355.5,-76.5 355.5,-95.5 480.5,-95.5 480.5,-76.5 355.5,-76.5"/>
<text text-anchor="middle" x="418" y="-83.5" font-family="Helvetica,sans-Serif" font-size="10.00">modbusCheckRangeU16</text>
</a>
</g>
</g>
<!-- Node2&#45;&gt;Node3 -->
<g id="edge2" class="edge">
<title>Node2&#45;&gt;Node3</title>
<path fill="none" stroke="midnightblue" d="M278.31,-57.59C303.34,-62.72 334.34,-69.07 360.68,-74.46"/>
<polygon fill="midnightblue" stroke="midnightblue" points="360.03,-77.9 370.53,-76.48 361.43,-71.04 360.03,-77.9"/>
</g>
<!-- Node4 -->
<g id="node4" class="node">
<title>Node4</title>
<g id="a_node4"><a xlink:href="master_8h.html#a004b932b2b69ad0c6649c26d974146b2" target="_top" xlink:title="Allocates memory for the request frame.">
<polygon fill="none" stroke="black" points="342,-38.5 342,-57.5 494,-57.5 494,-38.5 342,-38.5"/>
<text text-anchor="middle" x="418" y="-45.5" font-family="Helvetica,sans-Serif" font-size="10.00">modbusMasterAllocateRequest</text>
</a>
</g>
</g>
<!-- Node2&#45;&gt;Node4 -->
<g id="edge3" class="edge">
<title>Node2&#45;&gt;Node4</title>
<path fill="none" stroke="midnightblue" d="M306.15,-48C314.61,-48 323.29,-48 331.88,-48"/>
<polygon fill="midnightblue" stroke="midnightblue" points="331.9,-51.5 341.9,-48 331.9,-44.5 331.9,-51.5"/>
</g>
<!-- Node7 -->
<g id="node7" class="node">
<title>Node7</title>
<g id="a_node7"><a xlink:href="base_8h.html#a73b9f793bbe67a1968cc8c53a22d4c4b" target="_top" xlink:title="Safely writes a big&#45;endian 16&#45;bit word to provided pointer.">
<polygon fill="none" stroke="black" points="381.5,-0.5 381.5,-19.5 454.5,-19.5 454.5,-0.5 381.5,-0.5"/>
<text text-anchor="middle" x="418" y="-7.5" font-family="Helvetica,sans-Serif" font-size="10.00">modbusWBE</text>
</a>
</g>
</g>
<!-- Node2&#45;&gt;Node7 -->
<g id="edge6" class="edge">
<title>Node2&#45;&gt;Node7</title>
<path fill="none" stroke="midnightblue" d="M278.31,-38.41C306.8,-32.58 343.02,-25.16 371.3,-19.36"/>
<polygon fill="midnightblue" stroke="midnightblue" points="372.24,-22.74 381.33,-17.31 370.83,-15.89 372.24,-22.74"/>
</g>
<!-- Node5 -->
<g id="node5" class="node">
<title>Node5</title>
<g id="a_node5"><a xlink:href="base_8h.html#a54f7d1db7f58ffd329b1955ad1a66f37" target="_top" xlink:title="Allocates memory to hold Modbus ADU.">
<polygon fill="none" stroke="black" points="538,-57.5 538,-76.5 671,-76.5 671,-57.5 538,-57.5"/>
<text text-anchor="middle" x="604.5" y="-64.5" font-family="Helvetica,sans-Serif" font-size="10.00">modbusBufferAllocateADU</text>
</a>
</g>
</g>
<!-- Node4&#45;&gt;Node5 -->
<g id="edge4" class="edge">
<title>Node4&#45;&gt;Node5</title>
<path fill="none" stroke="midnightblue" d="M494.04,-55.73C505.2,-56.88 516.69,-58.06 527.86,-59.21"/>
<polygon fill="midnightblue" stroke="midnightblue" points="527.69,-62.71 538,-60.25 528.41,-55.75 527.69,-62.71"/>
</g>
<!-- Node6 -->
<g id="node6" class="node">
<title>Node6</title>
<g id="a_node6"><a xlink:href="master_8h.html#a6ecfd0864bb7cd392a04be7d47bcadfa" target="_top" xlink:title="Retreieves the custom context pointer.">
<polygon fill="none" stroke="black" points="530,-19.5 530,-38.5 679,-38.5 679,-19.5 530,-19.5"/>
<text text-anchor="middle" x="604.5" y="-26.5" font-family="Helvetica,sans-Serif" font-size="10.00">modbusMasterGetUserPointer</text>
</a>
</g>
</g>
<!-- Node4&#45;&gt;Node6 -->
<g id="edge5" class="edge">
<title>Node4&#45;&gt;Node6</title>
<path fill="none" stroke="midnightblue" d="M494.04,-40.27C502.5,-39.4 511.17,-38.51 519.73,-37.63"/>
<polygon fill="midnightblue" stroke="midnightblue" points="520.13,-41.1 529.72,-36.6 519.41,-34.14 520.13,-41.1"/>
</g>
</g>
</svg>
