<?xml version="1.0" encoding="UTF-8" standalone="no"?>
<!DOCTYPE svg PUBLIC "-//W3C//DTD SVG 1.1//EN"
 "http://www.w3.org/Graphics/SVG/1.1/DTD/svg11.dtd">
<!-- Generated by graphviz version 2.44.0 ()
 -->
<!-- Title: modbusSlaveGetUserPointer Pages: 1 -->
<svg width="1054pt" height="362pt"
 viewBox="0.00 0.00 1054.00 361.89" xmlns="http://www.w3.org/2000/svg" xmlns:xlink="http://www.w3.org/1999/xlink">
<g id="graph0" class="graph" transform="scale(1 1) rotate(0) translate(4 357.89)">
<title>modbusSlaveGetUserPointer</title>
<!-- Node1 -->
<g id="node1" class="node">
<title>Node1</title>
<g id="a_node1"><a xlink:title="Retreieves the custom context pointer.">
<polygon fill="#bfbfbf" stroke="black" points="903,-228.5 903,-247.5 1046,-247.5 1046,-228.5 903,-228.5"/>
<text text-anchor="middle" x="974.5" y="-235.5" font-family="Helvetica,sans-Serif" font-size="10.00">modbusSlaveGetUserPointer</text>
</a>
</g>
</g>
<!-- Node2 -->
<g id="node2" class="node">
<title>Node2</title>
<g id="a_node2"><a xlink:href="classllm_1_1Slave.html#ad46f6e4e25bb4f4c014ebbc564541c89" target="_top" xlink:title=" ">
<polygon fill="none" stroke="black" points="725.5,-313.5 725.5,-332.5 853.5,-332.5 853.5,-313.5 725.5,-313.5"/>
<text text-anchor="middle" x="789.5" y="-320.5" font-family="Helvetica,sans-Serif" font-size="10.00">llm::Slave::getUserPointer</text>
</a>
</g>
</g>
<!-- Node1&#45;&gt;Node2 -->
<g id="edge1" class="edge">
<title>Node1&#45;&gt;Node2</title>
<path fill="none" stroke="midnightblue" d="M952.7,-253.63C931.97,-268.53 898.74,-290.61 867,-304 858.05,-307.78 848.18,-310.92 838.59,-313.49"/>
<polygon fill="midnightblue" stroke="midnightblue" points="954.76,-256.46 960.77,-247.74 950.63,-250.81 954.76,-256.46"/>
</g>
<!-- Node3 -->
<g id="node3" class="node">
<title>Node3</title>
<g id="a_node3"><a xlink:href="slave_8h.html#ad1165bb6d12af1db502a05df5da55aed" target="_top" xlink:title="Allocates memory for slave&#39;s response frame.">
<polygon fill="none" stroke="black" points="712,-209.5 712,-228.5 867,-228.5 867,-209.5 712,-209.5"/>
<text text-anchor="middle" x="789.5" y="-216.5" font-family="Helvetica,sans-Serif" font-size="10.00">modbusSlaveAllocateResponse</text>
</a>
</g>
</g>
<!-- Node1&#45;&gt;Node3 -->
<g id="edge2" class="edge">
<title>Node1&#45;&gt;Node3</title>
<path fill="none" stroke="midnightblue" d="M892.53,-229.59C884.09,-228.72 875.53,-227.83 867.14,-226.96"/>
<polygon fill="midnightblue" stroke="midnightblue" points="892.44,-233.1 902.75,-230.65 893.16,-226.14 892.44,-233.1"/>
</g>
<!-- Node22 -->
<g id="node22" class="node">
<title>Node22</title>
<g id="a_node22"><a xlink:href="slave_8h.html#a70695c3b7355bc0a3e6d49c46a4eef1f" target="_top" xlink:title="Frees memory allocated in the ModbusSlave struct.">
<polygon fill="none" stroke="black" points="735,-133.5 735,-152.5 844,-152.5 844,-133.5 735,-133.5"/>
<text text-anchor="middle" x="789.5" y="-140.5" font-family="Helvetica,sans-Serif" font-size="10.00">modbusSlaveDestroy</text>
</a>
</g>
</g>
<!-- Node1&#45;&gt;Node22 -->
<g id="edge25" class="edge">
<title>Node1&#45;&gt;Node22</title>
<path fill="none" stroke="midnightblue" d="M946,-223.72C908.16,-204.08 841.09,-169.26 808.83,-152.52"/>
<polygon fill="midnightblue" stroke="midnightblue" points="944.46,-226.87 954.95,-228.37 947.68,-220.65 944.46,-226.87"/>
</g>
<!-- Node24 -->
<g id="node24" class="node">
<title>Node24</title>
<g id="a_node24"><a xlink:href="slave_8h.html#aac289ce160ea61287c98e8a1ee4353d5" target="_top" xlink:title="Frees memory allocated for slave&#39;s response frame.">
<polygon fill="none" stroke="black" points="720,-275.5 720,-294.5 859,-294.5 859,-275.5 720,-275.5"/>
<text text-anchor="middle" x="789.5" y="-282.5" font-family="Helvetica,sans-Serif" font-size="10.00">modbusSlaveFreeResponse</text>
</a>
</g>
</g>
<!-- Node1&#45;&gt;Node24 -->
<g id="edge27" class="edge">
<title>Node1&#45;&gt;Node24</title>
<path fill="none" stroke="midnightblue" d="M926.43,-250.09C895.76,-257.97 856.29,-268.1 827.79,-275.42"/>
<polygon fill="midnightblue" stroke="midnightblue" points="927.65,-253.39 936.47,-247.51 925.91,-246.61 927.65,-253.39"/>
</g>
<!-- Node4 -->
<g id="node4" class="node">
<title>Node4</title>
<g id="a_node4"><a xlink:href="slave_8h.html#a58243ce1e1adaffd0a3260edc2d03603" target="_top" xlink:title="Builds an exception response frame.">
<polygon fill="none" stroke="black" points="557,-152.5 557,-171.5 672,-171.5 672,-152.5 557,-152.5"/>
<text text-anchor="middle" x="614.5" y="-159.5" font-family="Helvetica,sans-Serif" font-size="10.00">modbusBuildException</text>
</a>
</g>
</g>
<!-- Node3&#45;&gt;Node4 -->
<g id="edge3" class="edge">
<title>Node3&#45;&gt;Node4</title>
<path fill="none" stroke="midnightblue" d="M749.68,-206.21C717.81,-195.71 673.4,-181.08 644.55,-171.57"/>
<polygon fill="midnightblue" stroke="midnightblue" points="748.95,-209.65 759.54,-209.46 751.14,-203.01 748.95,-209.65"/>
</g>
<!-- Node18 -->
<g id="node18" class="node">
<title>Node18</title>
<g id="a_node18"><a xlink:href="slave__func_8h.html#aaff57f2a5c6a8e6c77d36c5dc7e48cfa" target="_top" xlink:title="Handles requests 01, 02, 03 and 04 (Read Multiple XX) and generates response.">
<polygon fill="none" stroke="black" points="362,-0.5 362,-19.5 517,-19.5 517,-0.5 362,-0.5"/>
<text text-anchor="middle" x="439.5" y="-7.5" font-family="Helvetica,sans-Serif" font-size="10.00">modbusParseRequest01020304</text>
</a>
</g>
</g>
<!-- Node3&#45;&gt;Node18 -->
<g id="edge21" class="edge">
<title>Node3&#45;&gt;Node18</title>
<path fill="none" stroke="midnightblue" d="M768.65,-202.92C746.99,-186.03 710.75,-159.65 676,-143 624.4,-118.27 596.24,-142.47 553,-105 524.75,-80.52 545.92,-52.67 517,-29 512.34,-25.19 507.02,-22.12 501.41,-19.66"/>
<polygon fill="midnightblue" stroke="midnightblue" points="766.72,-205.85 776.73,-209.31 771.06,-200.36 766.72,-205.85"/>
</g>
<!-- Node19 -->
<g id="node19" class="node">
<title>Node19</title>
<g id="a_node19"><a xlink:href="slave__func_8h.html#a236881fe30a95d4cc9b031a9e24ae2a8" target="_top" xlink:title="Handles requests 05 and 06 (Write Single XX) and generates response.">
<polygon fill="none" stroke="black" points="372.5,-266.5 372.5,-285.5 506.5,-285.5 506.5,-266.5 372.5,-266.5"/>
<text text-anchor="middle" x="439.5" y="-273.5" font-family="Helvetica,sans-Serif" font-size="10.00">modbusParseRequest0506</text>
</a>
</g>
</g>
<!-- Node3&#45;&gt;Node19 -->
<g id="edge22" class="edge">
<title>Node3&#45;&gt;Node19</title>
<path fill="none" stroke="midnightblue" d="M734.76,-230.65C716.19,-234.5 695.22,-238.65 676,-242 619.03,-251.93 553.94,-261.17 506.65,-267.5"/>
<polygon fill="midnightblue" stroke="midnightblue" points="735.73,-234.02 744.8,-228.55 734.3,-227.17 735.73,-234.02"/>
</g>
<!-- Node20 -->
<g id="node20" class="node">
<title>Node20</title>
<g id="a_node20"><a xlink:href="slave__func_8h.html#a0cb2a7bf59d4014088e1ce1c61523071" target="_top" xlink:title="Handles requests 15 and 16 (Write Multiple XX) and generates response.">
<polygon fill="none" stroke="black" points="372.5,-228.5 372.5,-247.5 506.5,-247.5 506.5,-228.5 372.5,-228.5"/>
<text text-anchor="middle" x="439.5" y="-235.5" font-family="Helvetica,sans-Serif" font-size="10.00">modbusParseRequest1516</text>
</a>
</g>
</g>
<!-- Node3&#45;&gt;Node20 -->
<g id="edge23" class="edge">
<title>Node3&#45;&gt;Node20</title>
<path fill="none" stroke="midnightblue" d="M701.41,-223.75C641,-227.05 561.79,-231.38 506.56,-234.39"/>
<polygon fill="midnightblue" stroke="midnightblue" points="701.9,-227.23 711.7,-223.19 701.52,-220.24 701.9,-227.23"/>
</g>
<!-- Node21 -->
<g id="node21" class="node">
<title>Node21</title>
<g id="a_node21"><a xlink:href="slave__func_8h.html#a814f041d9acfa578998b8ce8fe53815c" target="_top" xlink:title="Handles request 22 (Mask Write Register) and generates response.">
<polygon fill="none" stroke="black" points="378,-190.5 378,-209.5 501,-209.5 501,-190.5 378,-190.5"/>
<text text-anchor="middle" x="439.5" y="-197.5" font-family="Helvetica,sans-Serif" font-size="10.00">modbusParseRequest22</text>
</a>
</g>
</g>
<!-- Node3&#45;&gt;Node21 -->
<g id="edge24" class="edge">
<title>Node3&#45;&gt;Node21</title>
<path fill="none" stroke="midnightblue" d="M701.47,-214.25C639.08,-210.84 556.6,-206.34 501.22,-203.31"/>
<polygon fill="midnightblue" stroke="midnightblue" points="701.52,-217.76 711.7,-214.81 701.9,-210.77 701.52,-217.76"/>
</g>
<!-- Node5 -->
<g id="node5" class="node">
<title>Node5</title>
<g id="a_node5"><a xlink:href="slave_8h.html#a384f75966903cc0c249eb68a6a20180e" target="_top" xlink:title="Builds an exception PDU.">
<polygon fill="none" stroke="black" points="371.5,-114.5 371.5,-133.5 507.5,-133.5 507.5,-114.5 371.5,-114.5"/>
<text text-anchor="middle" x="439.5" y="-121.5" font-family="Helvetica,sans-Serif" font-size="10.00">modbusBuildExceptionPDU</text>
</a>
</g>
</g>
<!-- Node4&#45;&gt;Node5 -->
<g id="edge4" class="edge">
<title>Node4&#45;&gt;Node5</title>
<path fill="none" stroke="midnightblue" d="M559.99,-150.25C535.53,-144.87 506.93,-138.59 483.84,-133.52"/>
<polygon fill="midnightblue" stroke="midnightblue" points="559.33,-153.68 569.84,-152.41 560.83,-146.85 559.33,-153.68"/>
</g>
<!-- Node7 -->
<g id="node7" class="node">
<title>Node7</title>
<g id="a_node7"><a xlink:href="slave_8h.html#a1da09df8858b91c61fe02c25783c2946" target="_top" xlink:title="Builds a Modbus RTU exception.">
<polygon fill="none" stroke="black" points="372,-76.5 372,-95.5 507,-95.5 507,-76.5 372,-76.5"/>
<text text-anchor="middle" x="439.5" y="-83.5" font-family="Helvetica,sans-Serif" font-size="10.00">modbusBuildExceptionRTU</text>
</a>
</g>
</g>
<!-- Node4&#45;&gt;Node7 -->
<g id="edge6" class="edge">
<title>Node4&#45;&gt;Node7</title>
<path fill="none" stroke="midnightblue" d="M573.65,-148.6C566.55,-145.55 559.39,-142 553,-138 534.61,-126.47 536.12,-115.27 517,-105 509.77,-101.12 501.72,-98.01 493.64,-95.53"/>
<polygon fill="midnightblue" stroke="midnightblue" points="572.64,-151.97 583.22,-152.46 575.26,-145.48 572.64,-151.97"/>
</g>
<!-- Node9 -->
<g id="node9" class="node">
<title>Node9</title>
<g id="a_node9"><a xlink:href="slave_8h.html#a778e65356f7da66831f18ec53b975383" target="_top" xlink:title="Builds a Modbus TCP exception.">
<polygon fill="none" stroke="black" points="372.5,-38.5 372.5,-57.5 506.5,-57.5 506.5,-38.5 372.5,-38.5"/>
<text text-anchor="middle" x="439.5" y="-45.5" font-family="Helvetica,sans-Serif" font-size="10.00">modbusBuildExceptionTCP</text>
</a>
</g>
</g>
<!-- Node4&#45;&gt;Node9 -->
<g id="edge8" class="edge">
<title>Node4&#45;&gt;Node9</title>
<path fill="none" stroke="midnightblue" d="M567.91,-148.2C562.52,-145.37 557.39,-142 553,-138 526.86,-114.15 544.68,-89.04 517,-67 512.18,-63.16 506.7,-60.09 500.92,-57.63"/>
<polygon fill="midnightblue" stroke="midnightblue" points="566.59,-151.44 577.13,-152.46 569.52,-145.09 566.59,-151.44"/>
</g>
<!-- Node11 -->
<g id="node11" class="node">
<title>Node11</title>
<g id="a_node11"><a xlink:href="slave_8h.html#aff0a9164a0e37aa619232ae86e3ff97a" target="_top" xlink:title="Parses provided PDU and generates response honorinng pduOffset and padding set in ModbusSlave during ...">
<polygon fill="none" stroke="black" points="383,-152.5 383,-171.5 496,-171.5 496,-152.5 383,-152.5"/>
<text text-anchor="middle" x="439.5" y="-159.5" font-family="Helvetica,sans-Serif" font-size="10.00">modbusParseRequest</text>
</a>
</g>
</g>
<!-- Node4&#45;&gt;Node11 -->
<g id="edge10" class="edge">
<title>Node4&#45;&gt;Node11</title>
<path fill="none" stroke="midnightblue" d="M546.61,-162C529.91,-162 512.18,-162 496.09,-162"/>
<polygon fill="midnightblue" stroke="midnightblue" points="546.85,-165.5 556.85,-162 546.85,-158.5 546.85,-165.5"/>
</g>
<!-- Node4&#45;&gt;Node18 -->
<g id="edge17" class="edge">
<title>Node4&#45;&gt;Node18</title>
<path fill="none" stroke="midnightblue" d="M565.63,-147.84C560.97,-145.11 556.64,-141.86 553,-138 518,-100.88 554.41,-63.69 517,-29 512.89,-25.19 508.13,-22.11 503.04,-19.62"/>
<polygon fill="midnightblue" stroke="midnightblue" points="564.38,-151.13 574.88,-152.49 567.52,-144.87 564.38,-151.13"/>
</g>
<!-- Node4&#45;&gt;Node19 -->
<g id="edge18" class="edge">
<title>Node4&#45;&gt;Node19</title>
<path fill="none" stroke="midnightblue" d="M600.36,-179.82C583.49,-201.41 552.15,-237.31 517,-257 510.07,-260.88 502.36,-263.97 494.57,-266.44"/>
<polygon fill="midnightblue" stroke="midnightblue" points="603.2,-181.87 606.49,-171.8 597.64,-177.62 603.2,-181.87"/>
</g>
<!-- Node4&#45;&gt;Node20 -->
<g id="edge19" class="edge">
<title>Node4&#45;&gt;Node20</title>
<path fill="none" stroke="midnightblue" d="M591.61,-177.44C572.65,-190.18 544.08,-207.92 517,-219 507.88,-222.73 497.84,-225.87 488.12,-228.45"/>
<polygon fill="midnightblue" stroke="midnightblue" points="593.82,-180.17 600.1,-171.63 589.87,-174.39 593.82,-180.17"/>
</g>
<!-- Node4&#45;&gt;Node21 -->
<g id="edge20" class="edge">
<title>Node4&#45;&gt;Node21</title>
<path fill="none" stroke="midnightblue" d="M559.99,-173.75C535.53,-179.13 506.93,-185.41 483.84,-190.48"/>
<polygon fill="midnightblue" stroke="midnightblue" points="560.83,-177.15 569.84,-171.59 559.33,-170.32 560.83,-177.15"/>
</g>
<!-- Node6 -->
<g id="node6" class="node">
<title>Node6</title>
<g id="a_node6"><a xlink:href="classllm_1_1Slave.html#ac915e0947f733a784a9069f5ff5b9737" target="_top" xlink:title=" ">
<polygon fill="none" stroke="black" points="180,-114.5 180,-133.5 326,-133.5 326,-114.5 180,-114.5"/>
<text text-anchor="middle" x="253" y="-121.5" font-family="Helvetica,sans-Serif" font-size="10.00">llm::Slave::buildExceptionPDU</text>
</a>
</g>
</g>
<!-- Node5&#45;&gt;Node6 -->
<g id="edge5" class="edge">
<title>Node5&#45;&gt;Node6</title>
<path fill="none" stroke="midnightblue" d="M361.23,-124C349.58,-124 337.6,-124 326.06,-124"/>
<polygon fill="midnightblue" stroke="midnightblue" points="361.37,-127.5 371.37,-124 361.37,-120.5 361.37,-127.5"/>
</g>
<!-- Node8 -->
<g id="node8" class="node">
<title>Node8</title>
<g id="a_node8"><a xlink:href="classllm_1_1Slave.html#a10e79600053c725e639225264d966e63" target="_top" xlink:title=" ">
<polygon fill="none" stroke="black" points="180,-76.5 180,-95.5 326,-95.5 326,-76.5 180,-76.5"/>
<text text-anchor="middle" x="253" y="-83.5" font-family="Helvetica,sans-Serif" font-size="10.00">llm::Slave::buildExceptionRTU</text>
</a>
</g>
</g>
<!-- Node7&#45;&gt;Node8 -->
<g id="edge7" class="edge">
<title>Node7&#45;&gt;Node8</title>
<path fill="none" stroke="midnightblue" d="M361.66,-86C349.89,-86 337.78,-86 326.13,-86"/>
<polygon fill="midnightblue" stroke="midnightblue" points="361.89,-89.5 371.89,-86 361.89,-82.5 361.89,-89.5"/>
</g>
<!-- Node10 -->
<g id="node10" class="node">
<title>Node10</title>
<g id="a_node10"><a xlink:href="classllm_1_1Slave.html#a844c37870a4e98bffc091ddfafb8f959" target="_top" xlink:title=" ">
<polygon fill="none" stroke="black" points="180.5,-38.5 180.5,-57.5 325.5,-57.5 325.5,-38.5 180.5,-38.5"/>
<text text-anchor="middle" x="253" y="-45.5" font-family="Helvetica,sans-Serif" font-size="10.00">llm::Slave::buildExceptionTCP</text>
</a>
</g>
</g>
<!-- Node9&#45;&gt;Node10 -->
<g id="edge9" class="edge">
<title>Node9&#45;&gt;Node10</title>
<path fill="none" stroke="midnightblue" d="M362.31,-48C350.15,-48 337.61,-48 325.56,-48"/>
<polygon fill="midnightblue" stroke="midnightblue" points="362.41,-51.5 372.41,-48 362.41,-44.5 362.41,-51.5"/>
</g>
<!-- Node12 -->
<g id="node12" class="node">
<title>Node12</title>
<g id="a_node12"><a xlink:href="slave_8h.html#ab5c5f3146a46cf8d221aca22e9c8a052" target="_top" xlink:title="Parses provided PDU and generates PDU for the response frame.">
<polygon fill="none" stroke="black" points="186,-152.5 186,-171.5 320,-171.5 320,-152.5 186,-152.5"/>
<text text-anchor="middle" x="253" y="-159.5" font-family="Helvetica,sans-Serif" font-size="10.00">modbusParseRequestPDU</text>
</a>
</g>
</g>
<!-- Node11&#45;&gt;Node12 -->
<g id="edge11" class="edge">
<title>Node11&#45;&gt;Node12</title>
<path fill="none" stroke="midnightblue" d="M372.5,-162C355.51,-162 337.22,-162 320.22,-162"/>
<polygon fill="midnightblue" stroke="midnightblue" points="372.89,-165.5 382.89,-162 372.89,-158.5 372.89,-165.5"/>
</g>
<!-- Node14 -->
<g id="node14" class="node">
<title>Node14</title>
<g id="a_node14"><a xlink:href="slave_8h.html#a6a1e63faa64b7ca4b91d1ce7988be850" target="_top" xlink:title="Parses provided Modbus RTU request frame and generates a Modbus RTU response.">
<polygon fill="none" stroke="black" points="186.5,-285.5 186.5,-304.5 319.5,-304.5 319.5,-285.5 186.5,-285.5"/>
<text text-anchor="middle" x="253" y="-292.5" font-family="Helvetica,sans-Serif" font-size="10.00">modbusParseRequestRTU</text>
</a>
</g>
</g>
<!-- Node11&#45;&gt;Node14 -->
<g id="edge13" class="edge">
<title>Node11&#45;&gt;Node14</title>
<path fill="none" stroke="midnightblue" d="M373.78,-175.2C369.69,-176.9 365.72,-178.83 362,-181 361.9,-181.06 289.29,-257.73 263.2,-285.29"/>
<polygon fill="midnightblue" stroke="midnightblue" points="375.34,-178.35 383.5,-171.6 372.91,-171.79 375.34,-178.35"/>
</g>
<!-- Node16 -->
<g id="node16" class="node">
<title>Node16</title>
<g id="a_node16"><a xlink:href="slave_8h.html#a5ad3fe86aa14f8982d7c459c68cd8b3e" target="_top" xlink:title="Parses provided Modbus TCP request frame and generates a Modbus TCP response.">
<polygon fill="none" stroke="black" points="187,-190.5 187,-209.5 319,-209.5 319,-190.5 187,-190.5"/>
<text text-anchor="middle" x="253" y="-197.5" font-family="Helvetica,sans-Serif" font-size="10.00">modbusParseRequestTCP</text>
</a>
</g>
</g>
<!-- Node11&#45;&gt;Node16 -->
<g id="edge15" class="edge">
<title>Node11&#45;&gt;Node16</title>
<path fill="none" stroke="midnightblue" d="M382.13,-173.61C355.89,-179.01 325.06,-185.36 300.22,-190.48"/>
<polygon fill="midnightblue" stroke="midnightblue" points="382.85,-177.03 391.94,-171.59 381.44,-170.18 382.85,-177.03"/>
</g>
<!-- Node13 -->
<g id="node13" class="node">
<title>Node13</title>
<g id="a_node13"><a xlink:href="classllm_1_1Slave.html#af8cc9d8d58bf7f632f3f3cf7e6b9c84b" target="_top" xlink:title=" ">
<polygon fill="none" stroke="black" points="0,-152.5 0,-171.5 144,-171.5 144,-152.5 0,-152.5"/>
<text text-anchor="middle" x="72" y="-159.5" font-family="Helvetica,sans-Serif" font-size="10.00">llm::Slave::parseRequestPDU</text>
</a>
</g>
</g>
<!-- Node12&#45;&gt;Node13 -->
<g id="edge12" class="edge">
<title>Node12&#45;&gt;Node13</title>
<path fill="none" stroke="midnightblue" d="M175.57,-162C165.19,-162 154.57,-162 144.28,-162"/>
<polygon fill="midnightblue" stroke="midnightblue" points="175.86,-165.5 185.86,-162 175.86,-158.5 175.86,-165.5"/>
</g>
<!-- Node15 -->
<g id="node15" class="node">
<title>Node15</title>
<g id="a_node15"><a xlink:href="classllm_1_1Slave.html#a001591b9a38b69cf29adc853872a09fe" target="_top" xlink:title=" ">
<polygon fill="none" stroke="black" points="0.5,-285.5 0.5,-304.5 143.5,-304.5 143.5,-285.5 0.5,-285.5"/>
<text text-anchor="middle" x="72" y="-292.5" font-family="Helvetica,sans-Serif" font-size="10.00">llm::Slave::parseRequestRTU</text>
</a>
</g>
</g>
<!-- Node14&#45;&gt;Node15 -->
<g id="edge14" class="edge">
<title>Node14&#45;&gt;Node15</title>
<path fill="none" stroke="midnightblue" d="M176.16,-295C165.41,-295 154.4,-295 143.75,-295"/>
<polygon fill="midnightblue" stroke="midnightblue" points="176.36,-298.5 186.36,-295 176.36,-291.5 176.36,-298.5"/>
</g>
<!-- Node17 -->
<g id="node17" class="node">
<title>Node17</title>
<g id="a_node17"><a xlink:href="classllm_1_1Slave.html#a05169339916c3727c780c75157b399b9" target="_top" xlink:title=" ">
<polygon fill="none" stroke="black" points="0.5,-190.5 0.5,-209.5 143.5,-209.5 143.5,-190.5 0.5,-190.5"/>
<text text-anchor="middle" x="72" y="-197.5" font-family="Helvetica,sans-Serif" font-size="10.00">llm::Slave::parseRequestTCP</text>
</a>
</g>
</g>
<!-- Node16&#45;&gt;Node17 -->
<g id="edge16" class="edge">
<title>Node16&#45;&gt;Node17</title>
<path fill="none" stroke="midnightblue" d="M176.84,-200C165.8,-200 154.46,-200 143.52,-200"/>
<polygon fill="midnightblue" stroke="midnightblue" points="176.87,-203.5 186.87,-200 176.87,-196.5 176.87,-203.5"/>
</g>
<!-- Node23 -->
<g id="node23" class="node">
<title>Node23</title>
<g id="a_node23"><a xlink:href="classllm_1_1Slave.html#a46b8ac6f2b8dee5550d18bd7f1dd355d" target="_top" xlink:title=" ">
<polygon fill="none" stroke="black" points="568,-76.5 568,-95.5 661,-95.5 661,-76.5 568,-76.5"/>
<text text-anchor="middle" x="614.5" y="-83.5" font-family="Helvetica,sans-Serif" font-size="10.00">llm::Slave::~Slave</text>
</a>
</g>
</g>
<!-- Node22&#45;&gt;Node23 -->
<g id="edge26" class="edge">
<title>Node22&#45;&gt;Node23</title>
<path fill="none" stroke="midnightblue" d="M749.68,-130.21C717.81,-119.71 673.4,-105.08 644.55,-95.57"/>
<polygon fill="midnightblue" stroke="midnightblue" points="748.95,-133.65 759.54,-133.46 751.14,-127.01 748.95,-133.65"/>
</g>
<!-- Node24&#45;&gt;Node14 -->
<g id="edge29" class="edge">
<title>Node24&#45;&gt;Node14</title>
<path fill="none" stroke="midnightblue" d="M727.24,-297.64C721.98,-299.5 716.83,-301.6 712,-304 693.6,-313.14 695.38,-326.17 676,-333 533.09,-383.4 346.92,-328.08 279.65,-304.55"/>
<polygon fill="midnightblue" stroke="midnightblue" points="728.34,-300.97 736.79,-294.58 726.19,-294.3 728.34,-300.97"/>
</g>
<!-- Node25 -->
<g id="node25" class="node">
<title>Node25</title>
<g id="a_node25"><a xlink:href="classllm_1_1Slave.html#aadbd0a4dc7769b5c393d6dfe5a344b8a" target="_top" xlink:title=" ">
<polygon fill="none" stroke="black" points="553,-304.5 553,-323.5 676,-323.5 676,-304.5 553,-304.5"/>
<text text-anchor="middle" x="614.5" y="-311.5" font-family="Helvetica,sans-Serif" font-size="10.00">llm::Slave::freeResponse</text>
</a>
</g>
</g>
<!-- Node24&#45;&gt;Node25 -->
<g id="edge28" class="edge">
<title>Node24&#45;&gt;Node25</title>
<path fill="none" stroke="midnightblue" d="M721.41,-296.25C705.18,-298.97 687.98,-301.85 672.27,-304.48"/>
<polygon fill="midnightblue" stroke="midnightblue" points="722.09,-299.68 731.37,-294.58 720.93,-292.78 722.09,-299.68"/>
</g>
</g>
</svg>
