<?xml version="1.0" encoding="UTF-8" standalone="no"?>
<!DOCTYPE svg PUBLIC "-//W3C//DTD SVG 1.1//EN"
 "http://www.w3.org/Graphics/SVG/1.1/DTD/svg11.dtd">
<!-- Generated by graphviz version 2.44.0 ()
 -->
<!-- Title: modbusParseRequestPDU Pages: 1 -->
<svg width="821pt" height="85pt"
 viewBox="0.00 0.00 821.00 85.00" xmlns="http://www.w3.org/2000/svg" xmlns:xlink="http://www.w3.org/1999/xlink">
<g id="graph0" class="graph" transform="scale(1 1) rotate(0) translate(4 81)">
<title>modbusParseRequestPDU</title>
<!-- Node1 -->
<g id="node1" class="node">
<title>Node1</title>
<g id="a_node1"><a xlink:title="Parses provided PDU and generates PDU for the response frame.">
<polygon fill="#bfbfbf" stroke="black" points="0,-38.5 0,-57.5 134,-57.5 134,-38.5 0,-38.5"/>
<text text-anchor="middle" x="67" y="-45.5" font-family="Helvetica,sans-Serif" font-size="10.00">modbusParseRequestPDU</text>
</a>
</g>
</g>
<!-- Node2 -->
<g id="node2" class="node">
<title>Node2</title>
<g id="a_node2"><a xlink:href="base_8h.html#a6574e0a670ec60b09a3f2e8bbd6ad827" target="_top" xlink:title="Prepares buffer to only store a Modbus PDU.">
<polygon fill="none" stroke="black" points="170,-57.5 170,-76.5 292,-76.5 292,-57.5 170,-57.5"/>
<text text-anchor="middle" x="231" y="-64.5" font-family="Helvetica,sans-Serif" font-size="10.00">modbusBufferModePDU</text>
</a>
</g>
</g>
<!-- Node1&#45;&gt;Node2 -->
<g id="edge1" class="edge">
<title>Node1&#45;&gt;Node2</title>
<path fill="none" stroke="midnightblue" d="M134.36,-55.78C142.75,-56.77 151.35,-57.78 159.79,-58.77"/>
<polygon fill="midnightblue" stroke="midnightblue" points="159.65,-62.27 169.99,-59.96 160.46,-55.32 159.65,-62.27"/>
</g>
<!-- Node3 -->
<g id="node3" class="node">
<title>Node3</title>
<g id="a_node3"><a xlink:href="slave_8impl_8h.html#aff0a9164a0e37aa619232ae86e3ff97a" target="_top" xlink:title="Parses provided PDU and generates response honorinng pduOffset and padding set in ModbusSlave during ...">
<polygon fill="none" stroke="black" points="174.5,-19.5 174.5,-38.5 287.5,-38.5 287.5,-19.5 174.5,-19.5"/>
<text text-anchor="middle" x="231" y="-26.5" font-family="Helvetica,sans-Serif" font-size="10.00">modbusParseRequest</text>
</a>
</g>
</g>
<!-- Node1&#45;&gt;Node3 -->
<g id="edge2" class="edge">
<title>Node1&#45;&gt;Node3</title>
<path fill="none" stroke="midnightblue" d="M134.36,-40.22C144.22,-39.06 154.37,-37.87 164.22,-36.72"/>
<polygon fill="midnightblue" stroke="midnightblue" points="164.82,-40.17 174.34,-35.53 164,-33.22 164.82,-40.17"/>
</g>
<!-- Node4 -->
<g id="node4" class="node">
<title>Node4</title>
<g id="a_node4"><a xlink:href="slave_8impl_8h.html#a58243ce1e1adaffd0a3260edc2d03603" target="_top" xlink:title="Builds an exception response frame.">
<polygon fill="none" stroke="black" points="328,-19.5 328,-38.5 443,-38.5 443,-19.5 328,-19.5"/>
<text text-anchor="middle" x="385.5" y="-26.5" font-family="Helvetica,sans-Serif" font-size="10.00">modbusBuildException</text>
</a>
</g>
</g>
<!-- Node3&#45;&gt;Node4 -->
<g id="edge3" class="edge">
<title>Node3&#45;&gt;Node4</title>
<path fill="none" stroke="midnightblue" d="M287.92,-29C297.57,-29 307.69,-29 317.6,-29"/>
<polygon fill="midnightblue" stroke="midnightblue" points="317.82,-32.5 327.82,-29 317.82,-25.5 317.82,-32.5"/>
</g>
<!-- Node5 -->
<g id="node5" class="node">
<title>Node5</title>
<g id="a_node5"><a xlink:href="slave_8h.html#ad1165bb6d12af1db502a05df5da55aed" target="_top" xlink:title="Allocates memory for slave&#39;s response frame.">
<polygon fill="none" stroke="black" points="479,-19.5 479,-38.5 634,-38.5 634,-19.5 479,-19.5"/>
<text text-anchor="middle" x="556.5" y="-26.5" font-family="Helvetica,sans-Serif" font-size="10.00">modbusSlaveAllocateResponse</text>
</a>
</g>
</g>
<!-- Node4&#45;&gt;Node5 -->
<g id="edge4" class="edge">
<title>Node4&#45;&gt;Node5</title>
<path fill="none" stroke="midnightblue" d="M443.24,-29C451.45,-29 460.04,-29 468.67,-29"/>
<polygon fill="midnightblue" stroke="midnightblue" points="468.79,-32.5 478.79,-29 468.79,-25.5 468.79,-32.5"/>
</g>
<!-- Node6 -->
<g id="node6" class="node">
<title>Node6</title>
<g id="a_node6"><a xlink:href="base_8h.html#a54f7d1db7f58ffd329b1955ad1a66f37" target="_top" xlink:title="Allocates memory to hold Modbus ADU.">
<polygon fill="none" stroke="black" points="675,-38.5 675,-57.5 808,-57.5 808,-38.5 675,-38.5"/>
<text text-anchor="middle" x="741.5" y="-45.5" font-family="Helvetica,sans-Serif" font-size="10.00">modbusBufferAllocateADU</text>
</a>
</g>
</g>
<!-- Node5&#45;&gt;Node6 -->
<g id="edge5" class="edge">
<title>Node5&#45;&gt;Node6</title>
<path fill="none" stroke="midnightblue" d="M634.05,-36.95C644.19,-38 654.57,-39.08 664.7,-40.13"/>
<polygon fill="midnightblue" stroke="midnightblue" points="664.41,-43.62 674.72,-41.17 665.13,-36.66 664.41,-43.62"/>
</g>
<!-- Node7 -->
<g id="node7" class="node">
<title>Node7</title>
<g id="a_node7"><a xlink:href="slave_8h.html#abbbf205b4c4a0b74b5ae29b865ca3262" target="_top" xlink:title="Retreieves the custom context pointer.">
<polygon fill="none" stroke="black" points="670,-0.5 670,-19.5 813,-19.5 813,-0.5 670,-0.5"/>
<text text-anchor="middle" x="741.5" y="-7.5" font-family="Helvetica,sans-Serif" font-size="10.00">modbusSlaveGetUserPointer</text>
</a>
</g>
</g>
<!-- Node5&#45;&gt;Node7 -->
<g id="edge6" class="edge">
<title>Node5&#45;&gt;Node7</title>
<path fill="none" stroke="midnightblue" d="M634.05,-21.05C642.57,-20.17 651.26,-19.27 659.83,-18.38"/>
<polygon fill="midnightblue" stroke="midnightblue" points="660.22,-21.85 669.81,-17.34 659.5,-14.89 660.22,-21.85"/>
</g>
</g>
</svg>
