<?xml version="1.0" encoding="UTF-8" standalone="no"?>
<!DOCTYPE svg PUBLIC "-//W3C//DTD SVG 1.1//EN"
 "http://www.w3.org/Graphics/SVG/1.1/DTD/svg11.dtd">
<!-- Generated by graphviz version 2.44.0 ()
 -->
<!-- Title: modbusParseRequestRTU Pages: 1 -->
<svg width="840pt" height="294pt"
 viewBox="0.00 0.00 840.00 294.00" xmlns="http://www.w3.org/2000/svg" xmlns:xlink="http://www.w3.org/1999/xlink">
<g id="graph0" class="graph" transform="scale(1 1) rotate(0) translate(4 290)">
<title>modbusParseRequestRTU</title>
<!-- Node1 -->
<g id="node1" class="node">
<title>Node1</title>
<g id="a_node1"><a xlink:title="Parses provided Modbus RTU request frame and generates a Modbus RTU response.">
<polygon fill="#bfbfbf" stroke="black" points="0,-171.5 0,-190.5 133,-190.5 133,-171.5 0,-171.5"/>
<text text-anchor="middle" x="66.5" y="-178.5" font-family="Helvetica,sans-Serif" font-size="10.00">modbusParseRequestRTU</text>
</a>
</g>
</g>
<!-- Node2 -->
<g id="node2" class="node">
<title>Node2</title>
<g id="a_node2"><a xlink:href="base_8h.html#ad274c6156d4373b79930b577e373692a" target="_top" xlink:title="Prepares buffer to store a Modbus RTU message.">
<polygon fill="none" stroke="black" points="178,-266.5 178,-285.5 299,-285.5 299,-266.5 178,-266.5"/>
<text text-anchor="middle" x="238.5" y="-273.5" font-family="Helvetica,sans-Serif" font-size="10.00">modbusBufferModeRTU</text>
</a>
</g>
</g>
<!-- Node1&#45;&gt;Node2 -->
<g id="edge1" class="edge">
<title>Node1&#45;&gt;Node2</title>
<path fill="none" stroke="midnightblue" d="M77.59,-190.63C94.92,-206.66 132.05,-238.85 169,-257 173.66,-259.29 178.63,-261.34 183.7,-263.16"/>
<polygon fill="midnightblue" stroke="midnightblue" points="182.89,-266.58 193.48,-266.41 185.09,-259.94 182.89,-266.58"/>
</g>
<!-- Node3 -->
<g id="node3" class="node">
<title>Node3</title>
<g id="a_node3"><a xlink:href="base_8h.html#a64880e7075f445881485396f3aa869c5" target="_top" xlink:title="Checks if ModbusErrorInfo contains an error.">
<polygon fill="none" stroke="black" points="202.5,-228.5 202.5,-247.5 274.5,-247.5 274.5,-228.5 202.5,-228.5"/>
<text text-anchor="middle" x="238.5" y="-235.5" font-family="Helvetica,sans-Serif" font-size="10.00">modbusIsOk</text>
</a>
</g>
</g>
<!-- Node1&#45;&gt;Node3 -->
<g id="edge2" class="edge">
<title>Node1&#45;&gt;Node3</title>
<path fill="none" stroke="midnightblue" d="M91.49,-190.66C111.93,-198.73 142.16,-210.27 169,-219 176.59,-221.47 184.72,-223.9 192.63,-226.16"/>
<polygon fill="midnightblue" stroke="midnightblue" points="191.9,-229.59 202.48,-228.92 193.79,-222.85 191.9,-229.59"/>
</g>
<!-- Node6 -->
<g id="node6" class="node">
<title>Node6</title>
<g id="a_node6"><a xlink:href="base_8h.html#af2cafe9debf86bea7042b4c40bb288cd" target="_top" xlink:title="Sets up address and CRC in a Modbus RTU frame.">
<polygon fill="none" stroke="black" points="191.5,-152.5 191.5,-171.5 285.5,-171.5 285.5,-152.5 191.5,-152.5"/>
<text text-anchor="middle" x="238.5" y="-159.5" font-family="Helvetica,sans-Serif" font-size="10.00">modbusPackRTU</text>
</a>
</g>
</g>
<!-- Node1&#45;&gt;Node6 -->
<g id="edge5" class="edge">
<title>Node1&#45;&gt;Node6</title>
<path fill="none" stroke="midnightblue" d="M133.23,-173.65C149.02,-171.89 165.74,-170.02 181.07,-168.31"/>
<polygon fill="midnightblue" stroke="midnightblue" points="181.88,-171.74 191.43,-167.15 181.1,-164.78 181.88,-171.74"/>
</g>
<!-- Node9 -->
<g id="node9" class="node">
<title>Node9</title>
<g id="a_node9"><a xlink:href="slave_8impl_8h.html#aff0a9164a0e37aa619232ae86e3ff97a" target="_top" xlink:title="Parses provided PDU and generates response honorinng pduOffset and padding set in ModbusSlave during ...">
<polygon fill="none" stroke="black" points="182,-190.5 182,-209.5 295,-209.5 295,-190.5 182,-190.5"/>
<text text-anchor="middle" x="238.5" y="-197.5" font-family="Helvetica,sans-Serif" font-size="10.00">modbusParseRequest</text>
</a>
</g>
</g>
<!-- Node1&#45;&gt;Node9 -->
<g id="edge8" class="edge">
<title>Node1&#45;&gt;Node9</title>
<path fill="none" stroke="midnightblue" d="M133.23,-188.35C145.91,-189.76 159.19,-191.25 171.87,-192.66"/>
<polygon fill="midnightblue" stroke="midnightblue" points="171.56,-196.15 181.88,-193.78 172.33,-189.19 171.56,-196.15"/>
</g>
<!-- Node14 -->
<g id="node14" class="node">
<title>Node14</title>
<g id="a_node14"><a xlink:href="slave_8h.html#aac289ce160ea61287c98e8a1ee4353d5" target="_top" xlink:title="Frees memory allocated for slave&#39;s response frame.">
<polygon fill="none" stroke="black" points="169,-38.5 169,-57.5 308,-57.5 308,-38.5 169,-38.5"/>
<text text-anchor="middle" x="238.5" y="-45.5" font-family="Helvetica,sans-Serif" font-size="10.00">modbusSlaveFreeResponse</text>
</a>
</g>
</g>
<!-- Node1&#45;&gt;Node14 -->
<g id="edge13" class="edge">
<title>Node1&#45;&gt;Node14</title>
<path fill="none" stroke="midnightblue" d="M79.73,-171.43C108.5,-148.92 180.77,-92.38 216.64,-64.32"/>
<polygon fill="midnightblue" stroke="midnightblue" points="219.21,-66.76 224.93,-57.84 214.89,-61.24 219.21,-66.76"/>
</g>
<!-- Node17 -->
<g id="node17" class="node">
<title>Node17</title>
<g id="a_node17"><a xlink:href="base_8h.html#a4dba88e9baf690b8dafa0fad81eb7d07" target="_top" xlink:title="Unpacks data from a Modbus RTU frame and optionally checks CRC.">
<polygon fill="none" stroke="black" points="186,-114.5 186,-133.5 291,-133.5 291,-114.5 186,-114.5"/>
<text text-anchor="middle" x="238.5" y="-121.5" font-family="Helvetica,sans-Serif" font-size="10.00">modbusUnpackRTU</text>
</a>
</g>
</g>
<!-- Node1&#45;&gt;Node17 -->
<g id="edge17" class="edge">
<title>Node1&#45;&gt;Node17</title>
<path fill="none" stroke="midnightblue" d="M91.49,-171.34C111.93,-163.27 142.16,-151.73 169,-143 176.02,-140.72 183.5,-138.46 190.84,-136.35"/>
<polygon fill="midnightblue" stroke="midnightblue" points="192.03,-139.65 200.71,-133.57 190.13,-132.91 192.03,-139.65"/>
</g>
<!-- Node4 -->
<g id="node4" class="node">
<title>Node4</title>
<g id="a_node4"><a xlink:href="base_8h.html#a29d2a7853b328113e4fcddae85fd3ce5" target="_top" xlink:title="Returns ModbusError contained in ModbusErrorInfo.">
<polygon fill="none" stroke="black" points="348,-266.5 348,-285.5 458,-285.5 458,-266.5 348,-266.5"/>
<text text-anchor="middle" x="403" y="-273.5" font-family="Helvetica,sans-Serif" font-size="10.00">modbusGetErrorCode</text>
</a>
</g>
</g>
<!-- Node3&#45;&gt;Node4 -->
<g id="edge3" class="edge">
<title>Node3&#45;&gt;Node4</title>
<path fill="none" stroke="midnightblue" d="M274.76,-246.25C297.16,-251.48 326.51,-258.35 351.37,-264.16"/>
<polygon fill="midnightblue" stroke="midnightblue" points="350.83,-267.63 361.37,-266.5 352.43,-260.81 350.83,-267.63"/>
</g>
<!-- Node5 -->
<g id="node5" class="node">
<title>Node5</title>
<g id="a_node5"><a xlink:href="base_8h.html#a9ee4c2e633c7a42f88acc09b95f8171e" target="_top" xlink:title="Returns uint8_t describing error source of ModbusErrorInfo.">
<polygon fill="none" stroke="black" points="344,-228.5 344,-247.5 462,-247.5 462,-228.5 344,-228.5"/>
<text text-anchor="middle" x="403" y="-235.5" font-family="Helvetica,sans-Serif" font-size="10.00">modbusGetErrorSource</text>
</a>
</g>
</g>
<!-- Node3&#45;&gt;Node5 -->
<g id="edge4" class="edge">
<title>Node3&#45;&gt;Node5</title>
<path fill="none" stroke="midnightblue" d="M274.76,-238C292.01,-238 313.38,-238 333.65,-238"/>
<polygon fill="midnightblue" stroke="midnightblue" points="333.81,-241.5 343.81,-238 333.81,-234.5 333.81,-241.5"/>
</g>
<!-- Node7 -->
<g id="node7" class="node">
<title>Node7</title>
<g id="a_node7"><a xlink:href="base_8h.html#a11346a546b84663cd92cb30f4ffd1393" target="_top" xlink:title="Calculates 16&#45;bit Modbus CRC of provided data.">
<polygon fill="none" stroke="black" points="367.5,-114.5 367.5,-133.5 438.5,-133.5 438.5,-114.5 367.5,-114.5"/>
<text text-anchor="middle" x="403" y="-121.5" font-family="Helvetica,sans-Serif" font-size="10.00">modbusCRC</text>
</a>
</g>
</g>
<!-- Node6&#45;&gt;Node7 -->
<g id="edge6" class="edge">
<title>Node6&#45;&gt;Node7</title>
<path fill="none" stroke="midnightblue" d="M280.51,-152.41C303.95,-146.93 333.38,-140.05 357.4,-134.43"/>
<polygon fill="midnightblue" stroke="midnightblue" points="358.39,-137.79 367.33,-132.11 356.8,-130.98 358.39,-137.79"/>
</g>
<!-- Node8 -->
<g id="node8" class="node">
<title>Node8</title>
<g id="a_node8"><a xlink:href="base_8h.html#af718da7da634f311c2ae8db6be3d9027" target="_top" xlink:title="Safely writes a little&#45;endian 16&#45;bit word to provided pointer.">
<polygon fill="none" stroke="black" points="367,-152.5 367,-171.5 439,-171.5 439,-152.5 367,-152.5"/>
<text text-anchor="middle" x="403" y="-159.5" font-family="Helvetica,sans-Serif" font-size="10.00">modbusWLE</text>
</a>
</g>
</g>
<!-- Node6&#45;&gt;Node8 -->
<g id="edge7" class="edge">
<title>Node6&#45;&gt;Node8</title>
<path fill="none" stroke="midnightblue" d="M285.63,-162C307.91,-162 334.54,-162 356.71,-162"/>
<polygon fill="midnightblue" stroke="midnightblue" points="356.87,-165.5 366.87,-162 356.87,-158.5 356.87,-165.5"/>
</g>
<!-- Node10 -->
<g id="node10" class="node">
<title>Node10</title>
<g id="a_node10"><a xlink:href="slave_8impl_8h.html#a58243ce1e1adaffd0a3260edc2d03603" target="_top" xlink:title="Builds an exception response frame.">
<polygon fill="none" stroke="black" points="345.5,-190.5 345.5,-209.5 460.5,-209.5 460.5,-190.5 345.5,-190.5"/>
<text text-anchor="middle" x="403" y="-197.5" font-family="Helvetica,sans-Serif" font-size="10.00">modbusBuildException</text>
</a>
</g>
</g>
<!-- Node9&#45;&gt;Node10 -->
<g id="edge9" class="edge">
<title>Node9&#45;&gt;Node10</title>
<path fill="none" stroke="midnightblue" d="M295.42,-200C308.3,-200 322.12,-200 335.4,-200"/>
<polygon fill="midnightblue" stroke="midnightblue" points="335.42,-203.5 345.42,-200 335.42,-196.5 335.42,-203.5"/>
</g>
<!-- Node11 -->
<g id="node11" class="node">
<title>Node11</title>
<g id="a_node11"><a xlink:href="slave_8h.html#ad1165bb6d12af1db502a05df5da55aed" target="_top" xlink:title="Allocates memory for slave&#39;s response frame.">
<polygon fill="none" stroke="black" points="498,-161.5 498,-180.5 653,-180.5 653,-161.5 498,-161.5"/>
<text text-anchor="middle" x="575.5" y="-168.5" font-family="Helvetica,sans-Serif" font-size="10.00">modbusSlaveAllocateResponse</text>
</a>
</g>
</g>
<!-- Node10&#45;&gt;Node11 -->
<g id="edge10" class="edge">
<title>Node10&#45;&gt;Node11</title>
<path fill="none" stroke="midnightblue" d="M460.3,-190.42C475.66,-187.81 492.44,-184.96 508.29,-182.26"/>
<polygon fill="midnightblue" stroke="midnightblue" points="509.28,-185.64 518.55,-180.52 508.1,-178.74 509.28,-185.64"/>
</g>
<!-- Node12 -->
<g id="node12" class="node">
<title>Node12</title>
<g id="a_node12"><a xlink:href="base_8h.html#a54f7d1db7f58ffd329b1955ad1a66f37" target="_top" xlink:title="Allocates memory to hold Modbus ADU.">
<polygon fill="none" stroke="black" points="694,-161.5 694,-180.5 827,-180.5 827,-161.5 694,-161.5"/>
<text text-anchor="middle" x="760.5" y="-168.5" font-family="Helvetica,sans-Serif" font-size="10.00">modbusBufferAllocateADU</text>
</a>
</g>
</g>
<!-- Node11&#45;&gt;Node12 -->
<g id="edge11" class="edge">
<title>Node11&#45;&gt;Node12</title>
<path fill="none" stroke="midnightblue" d="M653.05,-171C663.19,-171 673.57,-171 683.7,-171"/>
<polygon fill="midnightblue" stroke="midnightblue" points="683.72,-174.5 693.72,-171 683.72,-167.5 683.72,-174.5"/>
</g>
<!-- Node13 -->
<g id="node13" class="node">
<title>Node13</title>
<g id="a_node13"><a xlink:href="slave_8h.html#abbbf205b4c4a0b74b5ae29b865ca3262" target="_top" xlink:title="Retreieves the custom context pointer.">
<polygon fill="none" stroke="black" points="689,-95.5 689,-114.5 832,-114.5 832,-95.5 689,-95.5"/>
<text text-anchor="middle" x="760.5" y="-102.5" font-family="Helvetica,sans-Serif" font-size="10.00">modbusSlaveGetUserPointer</text>
</a>
</g>
</g>
<!-- Node11&#45;&gt;Node13 -->
<g id="edge12" class="edge">
<title>Node11&#45;&gt;Node13</title>
<path fill="none" stroke="midnightblue" d="M603.11,-161.4C634.91,-149.93 688.27,-130.69 723.68,-117.92"/>
<polygon fill="midnightblue" stroke="midnightblue" points="724.94,-121.19 733.16,-114.5 722.56,-114.6 724.94,-121.19"/>
</g>
<!-- Node14&#45;&gt;Node13 -->
<g id="edge16" class="edge">
<title>Node14&#45;&gt;Node13</title>
<path fill="none" stroke="midnightblue" d="M308.23,-53.12C352.24,-56.59 410.53,-61.52 462,-67 536.52,-74.94 621.28,-85.96 681.21,-94.09"/>
<polygon fill="midnightblue" stroke="midnightblue" points="680.98,-97.59 691.36,-95.47 681.92,-90.66 680.98,-97.59"/>
</g>
<!-- Node15 -->
<g id="node15" class="node">
<title>Node15</title>
<g id="a_node15"><a xlink:href="base_8h.html#a00605b5ebcf90f8035bfaa7a7c039776" target="_top" xlink:title="Frees memory allocated inside the buffer.">
<polygon fill="none" stroke="black" points="355,-0.5 355,-19.5 451,-19.5 451,-0.5 355,-0.5"/>
<text text-anchor="middle" x="403" y="-7.5" font-family="Helvetica,sans-Serif" font-size="10.00">modbusBufferFree</text>
</a>
</g>
</g>
<!-- Node14&#45;&gt;Node15 -->
<g id="edge14" class="edge">
<title>Node14&#45;&gt;Node15</title>
<path fill="none" stroke="midnightblue" d="M280.51,-38.41C302.05,-33.37 328.63,-27.16 351.44,-21.82"/>
<polygon fill="midnightblue" stroke="midnightblue" points="352.35,-25.21 361.29,-19.52 350.75,-18.39 352.35,-25.21"/>
</g>
<!-- Node16 -->
<g id="node16" class="node">
<title>Node16</title>
<g id="a_node16"><a xlink:href="base_8impl_8h.html#a54f7d1db7f58ffd329b1955ad1a66f37" target="_top" xlink:title="Allocates memory to hold Modbus ADU.">
<polygon fill="none" stroke="black" points="509,-0.5 509,-19.5 642,-19.5 642,-0.5 509,-0.5"/>
<text text-anchor="middle" x="575.5" y="-7.5" font-family="Helvetica,sans-Serif" font-size="10.00">modbusBufferAllocateADU</text>
</a>
</g>
</g>
<!-- Node15&#45;&gt;Node16 -->
<g id="edge15" class="edge">
<title>Node15&#45;&gt;Node16</title>
<path fill="none" stroke="midnightblue" d="M451.04,-10C465.82,-10 482.52,-10 498.76,-10"/>
<polygon fill="midnightblue" stroke="midnightblue" points="498.79,-13.5 508.79,-10 498.79,-6.5 498.79,-13.5"/>
</g>
<!-- Node17&#45;&gt;Node7 -->
<g id="edge18" class="edge">
<title>Node17&#45;&gt;Node7</title>
<path fill="none" stroke="midnightblue" d="M291.36,-124C312.4,-124 336.48,-124 356.79,-124"/>
<polygon fill="midnightblue" stroke="midnightblue" points="357.03,-127.5 367.03,-124 357.03,-120.5 357.03,-127.5"/>
</g>
<!-- Node18 -->
<g id="node18" class="node">
<title>Node18</title>
<g id="a_node18"><a xlink:href="base_8h.html#a0fc3f293c746d39a93e4c1158f792404" target="_top" xlink:title="Safely reads a little&#45;endian 16&#45;bit word from provided pointer.">
<polygon fill="none" stroke="black" points="368,-76.5 368,-95.5 438,-95.5 438,-76.5 368,-76.5"/>
<text text-anchor="middle" x="403" y="-83.5" font-family="Helvetica,sans-Serif" font-size="10.00">modbusRLE</text>
</a>
</g>
</g>
<!-- Node17&#45;&gt;Node18 -->
<g id="edge19" class="edge">
<title>Node17&#45;&gt;Node18</title>
<path fill="none" stroke="midnightblue" d="M280.51,-114.41C304.12,-108.89 333.79,-101.95 357.91,-96.31"/>
<polygon fill="midnightblue" stroke="midnightblue" points="358.93,-99.67 367.87,-93.98 357.33,-92.85 358.93,-99.67"/>
</g>
</g>
</svg>
