<?xml version="1.0" encoding="UTF-8" standalone="no"?>
<!DOCTYPE svg PUBLIC "-//W3C//DTD SVG 1.1//EN"
 "http://www.w3.org/Graphics/SVG/1.1/DTD/svg11.dtd">
<!-- Generated by graphviz version 2.44.0 ()
 -->
<!-- Title: modbusParseRequest22 Pages: 1 -->
<svg width="652pt" height="142pt"
 viewBox="0.00 0.00 652.00 142.00" xmlns="http://www.w3.org/2000/svg" xmlns:xlink="http://www.w3.org/1999/xlink">
<g id="graph0" class="graph" transform="scale(1 1) rotate(0) translate(4 138)">
<title>modbusParseRequest22</title>
<!-- Node1 -->
<g id="node1" class="node">
<title>Node1</title>
<g id="a_node1"><a xlink:title="Handles request 22 (Mask Write Register) and generates response.">
<polygon fill="#bfbfbf" stroke="black" points="0,-57.5 0,-76.5 123,-76.5 123,-57.5 0,-57.5"/>
<text text-anchor="middle" x="61.5" y="-64.5" font-family="Helvetica,sans-Serif" font-size="10.00">modbusParseRequest22</text>
</a>
</g>
</g>
<!-- Node2 -->
<g id="node2" class="node">
<title>Node2</title>
<g id="a_node2"><a xlink:href="slave_8h.html#a58243ce1e1adaffd0a3260edc2d03603" target="_top" xlink:title="Builds an exception response frame.">
<polygon fill="none" stroke="black" points="159,-114.5 159,-133.5 274,-133.5 274,-114.5 159,-114.5"/>
<text text-anchor="middle" x="216.5" y="-121.5" font-family="Helvetica,sans-Serif" font-size="10.00">modbusBuildException</text>
</a>
</g>
</g>
<!-- Node1&#45;&gt;Node2 -->
<g id="edge1" class="edge">
<title>Node1&#45;&gt;Node2</title>
<path fill="none" stroke="midnightblue" d="M88.11,-76.54C113.37,-85.95 152.19,-100.41 180.34,-110.9"/>
<polygon fill="midnightblue" stroke="midnightblue" points="179.21,-114.22 189.81,-114.43 181.66,-107.66 179.21,-114.22"/>
</g>
<!-- Node3 -->
<g id="node3" class="node">
<title>Node3</title>
<g id="a_node3"><a xlink:href="slave_8h.html#ad1165bb6d12af1db502a05df5da55aed" target="_top" xlink:title="Allocates memory for slave&#39;s response frame.">
<polygon fill="none" stroke="black" points="310,-95.5 310,-114.5 465,-114.5 465,-95.5 310,-95.5"/>
<text text-anchor="middle" x="387.5" y="-102.5" font-family="Helvetica,sans-Serif" font-size="10.00">modbusSlaveAllocateResponse</text>
</a>
</g>
</g>
<!-- Node1&#45;&gt;Node3 -->
<g id="edge6" class="edge">
<title>Node1&#45;&gt;Node3</title>
<path fill="none" stroke="midnightblue" d="M123.06,-74.1C172.81,-79.94 243.9,-88.28 299.7,-94.82"/>
<polygon fill="midnightblue" stroke="midnightblue" points="299.6,-98.33 309.94,-96.02 300.41,-91.38 299.6,-98.33"/>
</g>
<!-- Node6 -->
<g id="node6" class="node">
<title>Node6</title>
<g id="a_node6"><a xlink:href="base_8h.html#ace96da9afdf1e1796a6e2d7ac1f6c81a" target="_top" xlink:title="Safely reads a big&#45;endian 16&#45;bit word from provided pointer.">
<polygon fill="none" stroke="black" points="181,-38.5 181,-57.5 252,-57.5 252,-38.5 181,-38.5"/>
<text text-anchor="middle" x="216.5" y="-45.5" font-family="Helvetica,sans-Serif" font-size="10.00">modbusRBE</text>
</a>
</g>
</g>
<!-- Node1&#45;&gt;Node6 -->
<g id="edge5" class="edge">
<title>Node1&#45;&gt;Node6</title>
<path fill="none" stroke="midnightblue" d="M123.41,-59.44C139.1,-57.49 155.71,-55.43 170.43,-53.6"/>
<polygon fill="midnightblue" stroke="midnightblue" points="171.29,-57.02 180.78,-52.31 170.43,-50.07 171.29,-57.02"/>
</g>
<!-- Node7 -->
<g id="node7" class="node">
<title>Node7</title>
<g id="a_node7"><a xlink:href="base_8h.html#a73b9f793bbe67a1968cc8c53a22d4c4b" target="_top" xlink:title="Safely writes a big&#45;endian 16&#45;bit word to provided pointer.">
<polygon fill="none" stroke="black" points="180,-0.5 180,-19.5 253,-19.5 253,-0.5 180,-0.5"/>
<text text-anchor="middle" x="216.5" y="-7.5" font-family="Helvetica,sans-Serif" font-size="10.00">modbusWBE</text>
</a>
</g>
</g>
<!-- Node1&#45;&gt;Node7 -->
<g id="edge7" class="edge">
<title>Node1&#45;&gt;Node7</title>
<path fill="none" stroke="midnightblue" d="M85.77,-57.45C105.24,-49.56 133.8,-38.19 159,-29 164.61,-26.96 170.55,-24.87 176.4,-22.86"/>
<polygon fill="midnightblue" stroke="midnightblue" points="177.73,-26.11 186.08,-19.58 175.48,-19.48 177.73,-26.11"/>
</g>
<!-- Node2&#45;&gt;Node3 -->
<g id="edge2" class="edge">
<title>Node2&#45;&gt;Node3</title>
<path fill="none" stroke="midnightblue" d="M274.24,-117.62C282.45,-116.7 291.04,-115.73 299.67,-114.76"/>
<polygon fill="midnightblue" stroke="midnightblue" points="300.24,-118.22 309.79,-113.62 299.46,-111.26 300.24,-118.22"/>
</g>
<!-- Node4 -->
<g id="node4" class="node">
<title>Node4</title>
<g id="a_node4"><a xlink:href="base_8h.html#a54f7d1db7f58ffd329b1955ad1a66f37" target="_top" xlink:title="Allocates memory to hold Modbus ADU.">
<polygon fill="none" stroke="black" points="506,-114.5 506,-133.5 639,-133.5 639,-114.5 506,-114.5"/>
<text text-anchor="middle" x="572.5" y="-121.5" font-family="Helvetica,sans-Serif" font-size="10.00">modbusBufferAllocateADU</text>
</a>
</g>
</g>
<!-- Node3&#45;&gt;Node4 -->
<g id="edge3" class="edge">
<title>Node3&#45;&gt;Node4</title>
<path fill="none" stroke="midnightblue" d="M465.05,-112.95C475.19,-114 485.57,-115.08 495.7,-116.13"/>
<polygon fill="midnightblue" stroke="midnightblue" points="495.41,-119.62 505.72,-117.17 496.13,-112.66 495.41,-119.62"/>
</g>
<!-- Node5 -->
<g id="node5" class="node">
<title>Node5</title>
<g id="a_node5"><a xlink:href="slave_8h.html#abbbf205b4c4a0b74b5ae29b865ca3262" target="_top" xlink:title="Retreieves the custom context pointer.">
<polygon fill="none" stroke="black" points="501,-76.5 501,-95.5 644,-95.5 644,-76.5 501,-76.5"/>
<text text-anchor="middle" x="572.5" y="-83.5" font-family="Helvetica,sans-Serif" font-size="10.00">modbusSlaveGetUserPointer</text>
</a>
</g>
</g>
<!-- Node3&#45;&gt;Node5 -->
<g id="edge4" class="edge">
<title>Node3&#45;&gt;Node5</title>
<path fill="none" stroke="midnightblue" d="M465.05,-97.05C473.57,-96.17 482.26,-95.27 490.83,-94.38"/>
<polygon fill="midnightblue" stroke="midnightblue" points="491.22,-97.85 500.81,-93.34 490.5,-90.89 491.22,-97.85"/>
</g>
</g>
</svg>
