<?xml version="1.0" encoding="UTF-8" standalone="no"?>
<!DOCTYPE svg PUBLIC "-//W3C//DTD SVG 1.1//EN"
 "http://www.w3.org/Graphics/SVG/1.1/DTD/svg11.dtd">
<!-- Generated by graphviz version 2.44.0 ()
 -->
<!-- Title: ModbusMaster Pages: 1 -->
<svg width="314pt" height="164pt"
 viewBox="0.00 0.00 313.50 164.00" xmlns="http://www.w3.org/2000/svg" xmlns:xlink="http://www.w3.org/1999/xlink">
<g id="graph0" class="graph" transform="scale(1 1) rotate(0) translate(4 160)">
<title>ModbusMaster</title>
<!-- Node1 -->
<g id="node1" class="node">
<title>Node1</title>
<g id="a_node1"><a xlink:title="Master device status.">
<polygon fill="#bfbfbf" stroke="black" points="93,-1.5 93,-20.5 174,-20.5 174,-1.5 93,-1.5"/>
<text text-anchor="middle" x="133.5" y="-8.5" font-family="Helvetica,sans-Serif" font-size="10.00">ModbusMaster</text>
</a>
</g>
</g>
<!-- Node1&#45;&gt;Node1 -->
<g id="edge5" class="edge">
<title>Node1&#45;&gt;Node1</title>
<path fill="none" stroke="#9a32cd" stroke-dasharray="5,2" d="M184.32,-16.09C189.03,-15.04 192,-13.34 192,-11 192,-7.25 184.4,-5.15 174.23,-4.71"/>
<polygon fill="#9a32cd" stroke="#9a32cd" points="183.75,-12.64 174.23,-17.29 184.58,-19.59 183.75,-12.64"/>
<text text-anchor="middle" x="231.5" y="-14" font-family="Helvetica,sans-Serif" font-size="10.00"> dataCallback</text>
<text text-anchor="middle" x="231.5" y="-3" font-family="Helvetica,sans-Serif" font-size="10.00">exceptionCallback</text>
</g>
<!-- Node2 -->
<g id="node2" class="node">
<title>Node2</title>
<g id="a_node2"><a xlink:href="structModbusBuffer.html" target="_top" xlink:title="Stores a Modbus frame.">
<polygon fill="none" stroke="black" points="0,-69.5 0,-88.5 77,-88.5 77,-69.5 0,-69.5"/>
<text text-anchor="middle" x="38.5" y="-76.5" font-family="Helvetica,sans-Serif" font-size="10.00">ModbusBuffer</text>
</a>
</g>
</g>
<!-- Node2&#45;&gt;Node1 -->
<g id="edge1" class="edge">
<title>Node2&#45;&gt;Node1</title>
<path fill="none" stroke="#9a32cd" stroke-dasharray="5,2" d="M59.18,-63.63C78.06,-50.51 105.36,-31.55 121.08,-20.63"/>
<polygon fill="#9a32cd" stroke="#9a32cd" points="57.14,-60.79 50.92,-69.37 61.13,-66.54 57.14,-60.79"/>
<text text-anchor="middle" x="110" y="-43" font-family="Helvetica,sans-Serif" font-size="10.00"> request</text>
</g>
<!-- Node2&#45;&gt;Node2 -->
<g id="edge2" class="edge">
<title>Node2&#45;&gt;Node2</title>
<path fill="none" stroke="#9a32cd" stroke-dasharray="5,2" d="M87.22,-83.87C91.98,-82.89 95,-81.27 95,-79 95,-75.38 87.27,-73.39 77.06,-73.05"/>
<polygon fill="#9a32cd" stroke="#9a32cd" points="86.63,-80.41 77.06,-84.95 87.37,-87.38 86.63,-80.41"/>
<text text-anchor="middle" x="115" y="-76.5" font-family="Helvetica,sans-Serif" font-size="10.00"> allocator</text>
</g>
<!-- Node3 -->
<g id="node3" class="node">
<title>Node3</title>
<g id="a_node3"><a xlink:href="structModbusMasterFunctionHandler.html" target="_top" xlink:title="Associates Modbus function ID with a pointer to a response parsing function.">
<polygon fill="none" stroke="black" points="153.5,-69.5 153.5,-88.5 305.5,-88.5 305.5,-69.5 153.5,-69.5"/>
<text text-anchor="middle" x="229.5" y="-76.5" font-family="Helvetica,sans-Serif" font-size="10.00">ModbusMasterFunctionHandler</text>
</a>
</g>
</g>
<!-- Node3&#45;&gt;Node1 -->
<g id="edge3" class="edge">
<title>Node3&#45;&gt;Node1</title>
<path fill="none" stroke="#9a32cd" stroke-dasharray="5,2" d="M208.6,-63.63C189.52,-50.51 161.94,-31.55 146.05,-20.63"/>
<polygon fill="#9a32cd" stroke="#9a32cd" points="206.73,-66.59 216.95,-69.37 210.69,-60.82 206.73,-66.59"/>
<text text-anchor="middle" x="211" y="-43" font-family="Helvetica,sans-Serif" font-size="10.00"> functions</text>
</g>
<!-- Node4 -->
<g id="node4" class="node">
<title>Node4</title>
<g id="a_node4"><a xlink:href="structModbusErrorInfo.html" target="_top" xlink:title="Richer error represenation &#45; source and type of error.">
<polygon fill="none" stroke="black" points="185.5,-136.5 185.5,-155.5 273.5,-155.5 273.5,-136.5 185.5,-136.5"/>
<text text-anchor="middle" x="229.5" y="-143.5" font-family="Helvetica,sans-Serif" font-size="10.00">ModbusErrorInfo</text>
</a>
</g>
</g>
<!-- Node4&#45;&gt;Node3 -->
<g id="edge4" class="edge">
<title>Node4&#45;&gt;Node3</title>
<path fill="none" stroke="#9a32cd" stroke-dasharray="5,2" d="M229.5,-126.04C229.5,-113.67 229.5,-98.12 229.5,-88.63"/>
<polygon fill="#9a32cd" stroke="#9a32cd" points="226,-126.23 229.5,-136.23 233,-126.23 226,-126.23"/>
<text text-anchor="middle" x="236.5" y="-110" font-family="Helvetica,sans-Serif" font-size="10.00"> ptr</text>
</g>
</g>
</svg>
