<?xml version="1.0" encoding="UTF-8" standalone="no"?>
<!DOCTYPE svg PUBLIC "-//W3C//DTD SVG 1.1//EN"
 "http://www.w3.org/Graphics/SVG/1.1/DTD/svg11.dtd">
<!-- Generated by graphviz version 2.44.0 ()
 -->
<!-- Title: modbusBufferAllocate Pages: 1 -->
<svg width="859pt" height="655pt"
 viewBox="0.00 0.00 859.00 655.00" xmlns="http://www.w3.org/2000/svg" xmlns:xlink="http://www.w3.org/1999/xlink">
<g id="graph0" class="graph" transform="scale(1 1) rotate(0) translate(4 651)">
<title>modbusBufferAllocate</title>
<!-- Node1 -->
<g id="node1" class="node">
<title>Node1</title>
<g id="a_node1"><a xlink:title="Allocates memory to hold Modbus ADU.">
<polygon fill="#bfbfbf" stroke="black" points="739,-304.5 739,-323.5 851,-323.5 851,-304.5 739,-304.5"/>
<text text-anchor="middle" x="795" y="-311.5" font-family="Helvetica,sans-Serif" font-size="10.00">modbusBufferAllocate</text>
</a>
</g>
</g>
<!-- Node2 -->
<g id="node2" class="node">
<title>Node2</title>
<g id="a_node2"><a xlink:href="base_8h.html#a00605b5ebcf90f8035bfaa7a7c039776" target="_top" xlink:title="Frees memory allocated inside the buffer.">
<polygon fill="none" stroke="black" points="577.5,-570.5 577.5,-589.5 673.5,-589.5 673.5,-570.5 577.5,-570.5"/>
<text text-anchor="middle" x="625.5" y="-577.5" font-family="Helvetica,sans-Serif" font-size="10.00">modbusBufferFree</text>
</a>
</g>
</g>
<!-- Node1&#45;&gt;Node2 -->
<g id="edge1" class="edge">
<title>Node1&#45;&gt;Node2</title>
<path fill="none" stroke="midnightblue" d="M782.45,-332.33C749.72,-384.32 657.1,-531.41 632.54,-570.41"/>
<polygon fill="midnightblue" stroke="midnightblue" points="785.47,-334.11 787.84,-323.78 779.55,-330.38 785.47,-334.11"/>
</g>
<!-- Node9 -->
<g id="node9" class="node">
<title>Node9</title>
<g id="a_node9"><a xlink:href="master_8h.html#a004b932b2b69ad0c6649c26d974146b2" target="_top" xlink:title="Allocates memory for the request frame.">
<polygon fill="none" stroke="black" points="549.5,-95.5 549.5,-114.5 701.5,-114.5 701.5,-95.5 549.5,-95.5"/>
<text text-anchor="middle" x="625.5" y="-102.5" font-family="Helvetica,sans-Serif" font-size="10.00">modbusMasterAllocateRequest</text>
</a>
</g>
</g>
<!-- Node1&#45;&gt;Node9 -->
<g id="edge8" class="edge">
<title>Node1&#45;&gt;Node9</title>
<path fill="none" stroke="midnightblue" d="M779.94,-296.46C745.97,-254.07 660.3,-147.17 634.18,-114.58"/>
<polygon fill="midnightblue" stroke="midnightblue" points="777.38,-298.86 786.37,-304.48 782.84,-294.48 777.38,-298.86"/>
</g>
<!-- Node21 -->
<g id="node21" class="node">
<title>Node21</title>
<g id="a_node21"><a xlink:href="slave_8h.html#ad1165bb6d12af1db502a05df5da55aed" target="_top" xlink:title="Allocates memory for slave&#39;s response frame.">
<polygon fill="none" stroke="black" points="548,-304.5 548,-323.5 703,-323.5 703,-304.5 548,-304.5"/>
<text text-anchor="middle" x="625.5" y="-311.5" font-family="Helvetica,sans-Serif" font-size="10.00">modbusSlaveAllocateResponse</text>
</a>
</g>
</g>
<!-- Node1&#45;&gt;Node21 -->
<g id="edge20" class="edge">
<title>Node1&#45;&gt;Node21</title>
<path fill="none" stroke="midnightblue" d="M728.68,-314C720.35,-314 711.77,-314 703.28,-314"/>
<polygon fill="midnightblue" stroke="midnightblue" points="728.69,-317.5 738.69,-314 728.69,-310.5 728.69,-317.5"/>
</g>
<!-- Node3 -->
<g id="node3" class="node">
<title>Node3</title>
<g id="a_node3"><a xlink:href="base_8h.html#ac4ff5a6ae685570f045448e76e518a0c" target="_top" xlink:title="Equivalent of modbusBufferFree() \copydetail modbusBufferFree()">
<polygon fill="none" stroke="black" points="381.5,-551.5 381.5,-570.5 491.5,-570.5 491.5,-551.5 381.5,-551.5"/>
<text text-anchor="middle" x="436.5" y="-558.5" font-family="Helvetica,sans-Serif" font-size="10.00">modbusBufferDestroy</text>
</a>
</g>
</g>
<!-- Node2&#45;&gt;Node3 -->
<g id="edge2" class="edge">
<title>Node2&#45;&gt;Node3</title>
<path fill="none" stroke="midnightblue" d="M567.26,-574.18C543.19,-571.74 515.34,-568.91 491.63,-566.5"/>
<polygon fill="midnightblue" stroke="midnightblue" points="567.01,-577.68 577.31,-575.21 567.72,-570.71 567.01,-577.68"/>
</g>
<!-- Node6 -->
<g id="node6" class="node">
<title>Node6</title>
<g id="a_node6"><a xlink:href="master_8h.html#a040a82085ce05ff95c53d3dca4c3acfd" target="_top" xlink:title="Frees memory allocated for master&#39;s request frame.">
<polygon fill="none" stroke="black" points="368,-627.5 368,-646.5 505,-646.5 505,-627.5 368,-627.5"/>
<text text-anchor="middle" x="436.5" y="-634.5" font-family="Helvetica,sans-Serif" font-size="10.00">modbusMasterFreeRequest</text>
</a>
</g>
</g>
<!-- Node2&#45;&gt;Node6 -->
<g id="edge5" class="edge">
<title>Node2&#45;&gt;Node6</title>
<path fill="none" stroke="midnightblue" d="M588.28,-593.01C566.34,-600.7 537.71,-610.39 512,-618 500.74,-621.33 488.41,-624.62 477.09,-627.5"/>
<polygon fill="midnightblue" stroke="midnightblue" points="589.59,-596.26 597.86,-589.64 587.27,-589.66 589.59,-596.26"/>
</g>
<!-- Node7 -->
<g id="node7" class="node">
<title>Node7</title>
<g id="a_node7"><a xlink:href="slave_8h.html#aac289ce160ea61287c98e8a1ee4353d5" target="_top" xlink:title="Frees memory allocated for slave&#39;s response frame.">
<polygon fill="none" stroke="black" points="367,-589.5 367,-608.5 506,-608.5 506,-589.5 367,-589.5"/>
<text text-anchor="middle" x="436.5" y="-596.5" font-family="Helvetica,sans-Serif" font-size="10.00">modbusSlaveFreeResponse</text>
</a>
</g>
</g>
<!-- Node2&#45;&gt;Node7 -->
<g id="edge6" class="edge">
<title>Node2&#45;&gt;Node7</title>
<path fill="none" stroke="midnightblue" d="M567.19,-585.82C547.94,-587.78 526.26,-589.98 506.23,-592.02"/>
<polygon fill="midnightblue" stroke="midnightblue" points="567.72,-589.29 577.31,-584.79 567.01,-582.32 567.72,-589.29"/>
</g>
<!-- Node4 -->
<g id="node4" class="node">
<title>Node4</title>
<g id="a_node4"><a xlink:href="master_8h.html#a5fe38fae0f89de04fa616d105f660d25" target="_top" xlink:title="Deinitializes a ModbusMaster struct.">
<polygon fill="none" stroke="black" points="190.5,-532.5 190.5,-551.5 304.5,-551.5 304.5,-532.5 190.5,-532.5"/>
<text text-anchor="middle" x="247.5" y="-539.5" font-family="Helvetica,sans-Serif" font-size="10.00">modbusMasterDestroy</text>
</a>
</g>
</g>
<!-- Node3&#45;&gt;Node4 -->
<g id="edge3" class="edge">
<title>Node3&#45;&gt;Node4</title>
<path fill="none" stroke="midnightblue" d="M371.33,-554.48C349.69,-552.28 325.72,-549.85 304.74,-547.71"/>
<polygon fill="midnightblue" stroke="midnightblue" points="371.11,-557.98 381.41,-555.5 371.82,-551.01 371.11,-557.98"/>
</g>
<!-- Node5 -->
<g id="node5" class="node">
<title>Node5</title>
<g id="a_node5"><a xlink:href="slave_8h.html#a70695c3b7355bc0a3e6d49c46a4eef1f" target="_top" xlink:title="Frees memory allocated in the ModbusSlave struct.">
<polygon fill="none" stroke="black" points="193,-570.5 193,-589.5 302,-589.5 302,-570.5 193,-570.5"/>
<text text-anchor="middle" x="247.5" y="-577.5" font-family="Helvetica,sans-Serif" font-size="10.00">modbusSlaveDestroy</text>
</a>
</g>
</g>
<!-- Node3&#45;&gt;Node5 -->
<g id="edge4" class="edge">
<title>Node3&#45;&gt;Node5</title>
<path fill="none" stroke="midnightblue" d="M371.26,-567.53C348.74,-569.81 323.7,-572.36 302.14,-574.55"/>
<polygon fill="midnightblue" stroke="midnightblue" points="371.82,-570.99 381.41,-566.5 371.11,-564.02 371.82,-570.99"/>
</g>
<!-- Node8 -->
<g id="node8" class="node">
<title>Node8</title>
<g id="a_node8"><a xlink:href="slave_8h.html#a6a1e63faa64b7ca4b91d1ce7988be850" target="_top" xlink:title="Parses provided Modbus RTU request frame and generates a Modbus RTU response.">
<polygon fill="none" stroke="black" points="0.5,-503.5 0.5,-522.5 133.5,-522.5 133.5,-503.5 0.5,-503.5"/>
<text text-anchor="middle" x="67" y="-510.5" font-family="Helvetica,sans-Serif" font-size="10.00">modbusParseRequestRTU</text>
</a>
</g>
</g>
<!-- Node7&#45;&gt;Node8 -->
<g id="edge7" class="edge">
<title>Node7&#45;&gt;Node8</title>
<path fill="none" stroke="midnightblue" d="M377.82,-610.11C322.66,-618.19 238.07,-623.87 170,-599 127.58,-583.5 90.6,-541.72 75.39,-522.68"/>
<polygon fill="midnightblue" stroke="midnightblue" points="378.41,-613.56 387.76,-608.58 377.34,-606.64 378.41,-613.56"/>
</g>
<!-- Node10 -->
<g id="node10" class="node">
<title>Node10</title>
<g id="a_node10"><a xlink:href="master__func_8h.html#ad3a6d4576d762da3eb0bd73aa5bb24fe" target="_top" xlink:title="Read mutiple coils/discrete inputs/holding registers/input registers.">
<polygon fill="none" stroke="black" points="361,-114.5 361,-133.5 512,-133.5 512,-114.5 361,-114.5"/>
<text text-anchor="middle" x="436.5" y="-121.5" font-family="Helvetica,sans-Serif" font-size="10.00">modbusBuildRequest01020304</text>
</a>
</g>
</g>
<!-- Node9&#45;&gt;Node10 -->
<g id="edge9" class="edge">
<title>Node9&#45;&gt;Node10</title>
<path fill="none" stroke="midnightblue" d="M539.18,-113.67C530.21,-114.58 521.13,-115.5 512.29,-116.4"/>
<polygon fill="midnightblue" stroke="midnightblue" points="539.65,-117.14 549.25,-112.65 538.95,-110.17 539.65,-117.14"/>
</g>
<!-- Node15 -->
<g id="node15" class="node">
<title>Node15</title>
<g id="a_node15"><a xlink:href="master__func_8h.html#a5309a3003ea2d248e51193e75ab30044" target="_top" xlink:title="Write single coil/holding register.">
<polygon fill="none" stroke="black" points="371.5,-76.5 371.5,-95.5 501.5,-95.5 501.5,-76.5 371.5,-76.5"/>
<text text-anchor="middle" x="436.5" y="-83.5" font-family="Helvetica,sans-Serif" font-size="10.00">modbusBuildRequest0506</text>
</a>
</g>
</g>
<!-- Node9&#45;&gt;Node15 -->
<g id="edge14" class="edge">
<title>Node9&#45;&gt;Node15</title>
<path fill="none" stroke="midnightblue" d="M539.22,-96.33C526.63,-95.06 513.84,-93.76 501.78,-92.53"/>
<polygon fill="midnightblue" stroke="midnightblue" points="538.95,-99.83 549.25,-97.35 539.65,-92.86 538.95,-99.83"/>
</g>
<!-- Node18 -->
<g id="node18" class="node">
<title>Node18</title>
<g id="a_node18"><a xlink:href="master__func_8h.html#ae9842e659ccd8942905e685923de8916" target="_top" xlink:title="Write multiple coils.">
<polygon fill="none" stroke="black" points="377,-38.5 377,-57.5 496,-57.5 496,-38.5 377,-38.5"/>
<text text-anchor="middle" x="436.5" y="-45.5" font-family="Helvetica,sans-Serif" font-size="10.00">modbusBuildRequest15</text>
</a>
</g>
</g>
<!-- Node9&#45;&gt;Node18 -->
<g id="edge17" class="edge">
<title>Node9&#45;&gt;Node18</title>
<path fill="none" stroke="midnightblue" d="M588.28,-91.99C566.34,-84.3 537.71,-74.61 512,-67 500.74,-63.67 488.41,-60.38 477.09,-57.5"/>
<polygon fill="midnightblue" stroke="midnightblue" points="587.27,-95.34 597.86,-95.36 589.59,-88.74 587.27,-95.34"/>
</g>
<!-- Node19 -->
<g id="node19" class="node">
<title>Node19</title>
<g id="a_node19"><a xlink:href="master__func_8h.html#aca022c438a427d8f4b03db4427c2b344" target="_top" xlink:title="Write multiple holding registers.">
<polygon fill="none" stroke="black" points="377,-0.5 377,-19.5 496,-19.5 496,-0.5 377,-0.5"/>
<text text-anchor="middle" x="436.5" y="-7.5" font-family="Helvetica,sans-Serif" font-size="10.00">modbusBuildRequest16</text>
</a>
</g>
</g>
<!-- Node9&#45;&gt;Node19 -->
<g id="edge18" class="edge">
<title>Node9&#45;&gt;Node19</title>
<path fill="none" stroke="midnightblue" d="M605.16,-88.85C583.67,-71.68 547.34,-44.86 512,-29 503.6,-25.23 494.31,-22.11 485.23,-19.57"/>
<polygon fill="midnightblue" stroke="midnightblue" points="603.18,-91.76 613.15,-95.35 607.6,-86.32 603.18,-91.76"/>
</g>
<!-- Node20 -->
<g id="node20" class="node">
<title>Node20</title>
<g id="a_node20"><a xlink:href="master__func_8h.html#a6f2c5d59dee73c80ad54e53cca38aeec" target="_top" xlink:title="Mask write register request.">
<polygon fill="none" stroke="black" points="377,-152.5 377,-171.5 496,-171.5 496,-152.5 377,-152.5"/>
<text text-anchor="middle" x="436.5" y="-159.5" font-family="Helvetica,sans-Serif" font-size="10.00">modbusBuildRequest22</text>
</a>
</g>
</g>
<!-- Node9&#45;&gt;Node20 -->
<g id="edge19" class="edge">
<title>Node9&#45;&gt;Node20</title>
<path fill="none" stroke="midnightblue" d="M588.28,-118.01C566.34,-125.7 537.71,-135.39 512,-143 500.74,-146.33 488.41,-149.62 477.09,-152.5"/>
<polygon fill="midnightblue" stroke="midnightblue" points="589.59,-121.26 597.86,-114.64 587.27,-114.66 589.59,-121.26"/>
</g>
<!-- Node11 -->
<g id="node11" class="node">
<title>Node11</title>
<g id="a_node11"><a xlink:href="master__func_8h.html#aadb2b7e2d3ee4fbde22cdf076713d75e" target="_top" xlink:title="Read multiple coils &#45; a wrapper for modbusBuildRequest01020304()">
<polygon fill="none" stroke="black" points="188,-114.5 188,-133.5 307,-133.5 307,-114.5 188,-114.5"/>
<text text-anchor="middle" x="247.5" y="-121.5" font-family="Helvetica,sans-Serif" font-size="10.00">modbusBuildRequest01</text>
</a>
</g>
</g>
<!-- Node10&#45;&gt;Node11 -->
<g id="edge10" class="edge">
<title>Node10&#45;&gt;Node11</title>
<path fill="none" stroke="midnightblue" d="M350.69,-124C336.01,-124 321.05,-124 307.26,-124"/>
<polygon fill="midnightblue" stroke="midnightblue" points="350.79,-127.5 360.79,-124 350.79,-120.5 350.79,-127.5"/>
</g>
<!-- Node12 -->
<g id="node12" class="node">
<title>Node12</title>
<g id="a_node12"><a xlink:href="master__func_8h.html#a2a6452a8200d77483254bef08ee2cf8c" target="_top" xlink:title="Read multiple discrete inputs &#45; a wrapper for modbusBuildRequest01020304()">
<polygon fill="none" stroke="black" points="188,-76.5 188,-95.5 307,-95.5 307,-76.5 188,-76.5"/>
<text text-anchor="middle" x="247.5" y="-83.5" font-family="Helvetica,sans-Serif" font-size="10.00">modbusBuildRequest02</text>
</a>
</g>
</g>
<!-- Node10&#45;&gt;Node12 -->
<g id="edge11" class="edge">
<title>Node10&#45;&gt;Node12</title>
<path fill="none" stroke="midnightblue" d="M378.37,-112.39C351.77,-106.99 320.53,-100.64 295.35,-95.52"/>
<polygon fill="midnightblue" stroke="midnightblue" points="377.82,-115.85 388.31,-114.41 379.21,-108.99 377.82,-115.85"/>
</g>
<!-- Node13 -->
<g id="node13" class="node">
<title>Node13</title>
<g id="a_node13"><a xlink:href="master__func_8h.html#a1c7ed51c58b1ef42ee176833c7fd0515" target="_top" xlink:title="Read multiple holding registers &#45; a wrapper for modbusBuildRequest01020304()">
<polygon fill="none" stroke="black" points="188,-190.5 188,-209.5 307,-209.5 307,-190.5 188,-190.5"/>
<text text-anchor="middle" x="247.5" y="-197.5" font-family="Helvetica,sans-Serif" font-size="10.00">modbusBuildRequest03</text>
</a>
</g>
</g>
<!-- Node10&#45;&gt;Node13 -->
<g id="edge12" class="edge">
<title>Node10&#45;&gt;Node13</title>
<path fill="none" stroke="midnightblue" d="M372.68,-137.2C368.62,-138.91 364.69,-140.83 361,-143 340.94,-154.78 345.1,-169.28 325,-181 318.38,-184.86 311,-187.94 303.5,-190.4"/>
<polygon fill="midnightblue" stroke="midnightblue" points="374.18,-140.38 382.33,-133.61 371.74,-133.82 374.18,-140.38"/>
</g>
<!-- Node14 -->
<g id="node14" class="node">
<title>Node14</title>
<g id="a_node14"><a xlink:href="master__func_8h.html#a22bf4541196b3e88c0a86861d334e3b1" target="_top" xlink:title="Read multiple input registers &#45; a wrapper for modbusBuildRequest01020304()">
<polygon fill="none" stroke="black" points="188,-152.5 188,-171.5 307,-171.5 307,-152.5 188,-152.5"/>
<text text-anchor="middle" x="247.5" y="-159.5" font-family="Helvetica,sans-Serif" font-size="10.00">modbusBuildRequest04</text>
</a>
</g>
</g>
<!-- Node10&#45;&gt;Node14 -->
<g id="edge13" class="edge">
<title>Node10&#45;&gt;Node14</title>
<path fill="none" stroke="midnightblue" d="M378.37,-135.61C351.77,-141.01 320.53,-147.36 295.35,-152.48"/>
<polygon fill="midnightblue" stroke="midnightblue" points="379.21,-139.01 388.31,-133.59 377.82,-132.15 379.21,-139.01"/>
</g>
<!-- Node16 -->
<g id="node16" class="node">
<title>Node16</title>
<g id="a_node16"><a xlink:href="master__func_8h.html#a7151355c8c34af355fd779f88a64e125" target="_top" xlink:title="Write single coil &#45; a wrapper for modbusBuildRequest0506()">
<polygon fill="none" stroke="black" points="188,-38.5 188,-57.5 307,-57.5 307,-38.5 188,-38.5"/>
<text text-anchor="middle" x="247.5" y="-45.5" font-family="Helvetica,sans-Serif" font-size="10.00">modbusBuildRequest05</text>
</a>
</g>
</g>
<!-- Node15&#45;&gt;Node16 -->
<g id="edge15" class="edge">
<title>Node15&#45;&gt;Node16</title>
<path fill="none" stroke="midnightblue" d="M378.37,-74.39C351.77,-68.99 320.53,-62.64 295.35,-57.52"/>
<polygon fill="midnightblue" stroke="midnightblue" points="377.82,-77.85 388.31,-76.41 379.21,-70.99 377.82,-77.85"/>
</g>
<!-- Node17 -->
<g id="node17" class="node">
<title>Node17</title>
<g id="a_node17"><a xlink:href="master__func_8h.html#a56779853bdfd2bb75601be746c20eb09" target="_top" xlink:title="Write single holding register &#45; a wrapper for modbusBuildRequest0506()">
<polygon fill="none" stroke="black" points="188,-0.5 188,-19.5 307,-19.5 307,-0.5 188,-0.5"/>
<text text-anchor="middle" x="247.5" y="-7.5" font-family="Helvetica,sans-Serif" font-size="10.00">modbusBuildRequest06</text>
</a>
</g>
</g>
<!-- Node15&#45;&gt;Node17 -->
<g id="edge16" class="edge">
<title>Node15&#45;&gt;Node17</title>
<path fill="none" stroke="midnightblue" d="M372.68,-72.8C368.62,-71.09 364.69,-69.17 361,-67 340.94,-55.22 345.1,-40.72 325,-29 318.38,-25.14 311,-22.06 303.5,-19.6"/>
<polygon fill="midnightblue" stroke="midnightblue" points="371.74,-76.18 382.33,-76.39 374.18,-69.62 371.74,-76.18"/>
</g>
<!-- Node22 -->
<g id="node22" class="node">
<title>Node22</title>
<g id="a_node22"><a xlink:href="slave_8h.html#a58243ce1e1adaffd0a3260edc2d03603" target="_top" xlink:title="Builds an exception response frame.">
<polygon fill="none" stroke="black" points="379,-342.5 379,-361.5 494,-361.5 494,-342.5 379,-342.5"/>
<text text-anchor="middle" x="436.5" y="-349.5" font-family="Helvetica,sans-Serif" font-size="10.00">modbusBuildException</text>
</a>
</g>
</g>
<!-- Node21&#45;&gt;Node22 -->
<g id="edge21" class="edge">
<title>Node21&#45;&gt;Node22</title>
<path fill="none" stroke="midnightblue" d="M567.37,-325.61C540.77,-331.01 509.53,-337.36 484.35,-342.48"/>
<polygon fill="midnightblue" stroke="midnightblue" points="568.21,-329.01 577.31,-323.59 566.82,-322.15 568.21,-329.01"/>
</g>
<!-- Node29 -->
<g id="node29" class="node">
<title>Node29</title>
<g id="a_node29"><a xlink:href="slave__func_8h.html#aaff57f2a5c6a8e6c77d36c5dc7e48cfa" target="_top" xlink:title="Handles requests 01, 02, 03 and 04 (Read Multiple XX) and generates response.">
<polygon fill="none" stroke="black" points="170,-304.5 170,-323.5 325,-323.5 325,-304.5 170,-304.5"/>
<text text-anchor="middle" x="247.5" y="-311.5" font-family="Helvetica,sans-Serif" font-size="10.00">modbusParseRequest01020304</text>
</a>
</g>
</g>
<!-- Node21&#45;&gt;Node29 -->
<g id="edge33" class="edge">
<title>Node21&#45;&gt;Node29</title>
<path fill="none" stroke="midnightblue" d="M537.85,-314C473.66,-314 386.97,-314 325.26,-314"/>
<polygon fill="midnightblue" stroke="midnightblue" points="537.96,-317.5 547.96,-314 537.96,-310.5 537.96,-317.5"/>
</g>
<!-- Node30 -->
<g id="node30" class="node">
<title>Node30</title>
<g id="a_node30"><a xlink:href="slave__func_8h.html#a236881fe30a95d4cc9b031a9e24ae2a8" target="_top" xlink:title="Handles requests 05 and 06 (Write Single XX) and generates response.">
<polygon fill="none" stroke="black" points="180.5,-266.5 180.5,-285.5 314.5,-285.5 314.5,-266.5 180.5,-266.5"/>
<text text-anchor="middle" x="247.5" y="-273.5" font-family="Helvetica,sans-Serif" font-size="10.00">modbusParseRequest0506</text>
</a>
</g>
</g>
<!-- Node21&#45;&gt;Node30 -->
<g id="edge34" class="edge">
<title>Node21&#45;&gt;Node30</title>
<path fill="none" stroke="midnightblue" d="M537.69,-305.23C469.71,-298.36 376.58,-288.94 314.57,-282.68"/>
<polygon fill="midnightblue" stroke="midnightblue" points="537.66,-308.74 547.96,-306.26 538.36,-301.78 537.66,-308.74"/>
</g>
<!-- Node31 -->
<g id="node31" class="node">
<title>Node31</title>
<g id="a_node31"><a xlink:href="slave__func_8h.html#a0cb2a7bf59d4014088e1ce1c61523071" target="_top" xlink:title="Handles requests 15 and 16 (Write Multiple XX) and generates response.">
<polygon fill="none" stroke="black" points="180.5,-228.5 180.5,-247.5 314.5,-247.5 314.5,-228.5 180.5,-228.5"/>
<text text-anchor="middle" x="247.5" y="-235.5" font-family="Helvetica,sans-Serif" font-size="10.00">modbusParseRequest1516</text>
</a>
</g>
</g>
<!-- Node21&#45;&gt;Node31 -->
<g id="edge35" class="edge">
<title>Node21&#45;&gt;Node31</title>
<path fill="none" stroke="midnightblue" d="M581.84,-301.68C560.9,-295.87 535.24,-289.12 512,-284 444.2,-269.07 365.72,-255.89 312.16,-247.51"/>
<polygon fill="midnightblue" stroke="midnightblue" points="581.13,-305.11 591.7,-304.44 583.02,-298.37 581.13,-305.11"/>
</g>
<!-- Node32 -->
<g id="node32" class="node">
<title>Node32</title>
<g id="a_node32"><a xlink:href="slave__func_8h.html#a814f041d9acfa578998b8ce8fe53815c" target="_top" xlink:title="Handles request 22 (Mask Write Register) and generates response.">
<polygon fill="none" stroke="black" points="186,-494.5 186,-513.5 309,-513.5 309,-494.5 186,-494.5"/>
<text text-anchor="middle" x="247.5" y="-501.5" font-family="Helvetica,sans-Serif" font-size="10.00">modbusParseRequest22</text>
</a>
</g>
</g>
<!-- Node21&#45;&gt;Node32 -->
<g id="edge36" class="edge">
<title>Node21&#45;&gt;Node32</title>
<path fill="none" stroke="midnightblue" d="M602.46,-329.45C554.3,-362.55 435.17,-440.85 325,-485 315.73,-488.72 305.52,-491.86 295.67,-494.45"/>
<polygon fill="midnightblue" stroke="midnightblue" points="604.63,-332.21 610.86,-323.64 600.65,-326.45 604.63,-332.21"/>
</g>
<!-- Node23 -->
<g id="node23" class="node">
<title>Node23</title>
<g id="a_node23"><a xlink:href="slave_8h.html#a384f75966903cc0c249eb68a6a20180e" target="_top" xlink:title="Builds an exception PDU.">
<polygon fill="none" stroke="black" points="179.5,-456.5 179.5,-475.5 315.5,-475.5 315.5,-456.5 179.5,-456.5"/>
<text text-anchor="middle" x="247.5" y="-463.5" font-family="Helvetica,sans-Serif" font-size="10.00">modbusBuildExceptionPDU</text>
</a>
</g>
</g>
<!-- Node22&#45;&gt;Node23 -->
<g id="edge22" class="edge">
<title>Node22&#45;&gt;Node23</title>
<path fill="none" stroke="midnightblue" d="M420.42,-369.18C400.64,-390.63 363.87,-426.92 325,-447 317.58,-450.83 309.36,-453.91 301.13,-456.39"/>
<polygon fill="midnightblue" stroke="midnightblue" points="423.02,-371.52 427.13,-361.75 417.83,-366.82 423.02,-371.52"/>
</g>
<!-- Node24 -->
<g id="node24" class="node">
<title>Node24</title>
<g id="a_node24"><a xlink:href="slave_8h.html#a1da09df8858b91c61fe02c25783c2946" target="_top" xlink:title="Builds a Modbus RTU exception.">
<polygon fill="none" stroke="black" points="180,-418.5 180,-437.5 315,-437.5 315,-418.5 180,-418.5"/>
<text text-anchor="middle" x="247.5" y="-425.5" font-family="Helvetica,sans-Serif" font-size="10.00">modbusBuildExceptionRTU</text>
</a>
</g>
</g>
<!-- Node22&#45;&gt;Node24 -->
<g id="edge23" class="edge">
<title>Node22&#45;&gt;Node24</title>
<path fill="none" stroke="midnightblue" d="M411.3,-366.58C389.4,-379.25 355.94,-397.36 325,-409 315.27,-412.66 304.57,-415.82 294.34,-418.46"/>
<polygon fill="midnightblue" stroke="midnightblue" points="413.08,-369.59 419.93,-361.51 409.54,-363.55 413.08,-369.59"/>
</g>
<!-- Node25 -->
<g id="node25" class="node">
<title>Node25</title>
<g id="a_node25"><a xlink:href="slave_8h.html#a778e65356f7da66831f18ec53b975383" target="_top" xlink:title="Builds a Modbus TCP exception.">
<polygon fill="none" stroke="black" points="180.5,-380.5 180.5,-399.5 314.5,-399.5 314.5,-380.5 180.5,-380.5"/>
<text text-anchor="middle" x="247.5" y="-387.5" font-family="Helvetica,sans-Serif" font-size="10.00">modbusBuildExceptionTCP</text>
</a>
</g>
</g>
<!-- Node22&#45;&gt;Node25 -->
<g id="edge24" class="edge">
<title>Node22&#45;&gt;Node25</title>
<path fill="none" stroke="midnightblue" d="M378.37,-363.61C351.77,-369.01 320.53,-375.36 295.35,-380.48"/>
<polygon fill="midnightblue" stroke="midnightblue" points="379.21,-367.01 388.31,-361.59 377.82,-360.15 379.21,-367.01"/>
</g>
<!-- Node26 -->
<g id="node26" class="node">
<title>Node26</title>
<g id="a_node26"><a xlink:href="slave_8h.html#aff0a9164a0e37aa619232ae86e3ff97a" target="_top" xlink:title="Parses provided PDU and generates response honorinng pduOffset and padding set in ModbusSlave during ...">
<polygon fill="none" stroke="black" points="191,-342.5 191,-361.5 304,-361.5 304,-342.5 191,-342.5"/>
<text text-anchor="middle" x="247.5" y="-349.5" font-family="Helvetica,sans-Serif" font-size="10.00">modbusParseRequest</text>
</a>
</g>
</g>
<!-- Node22&#45;&gt;Node26 -->
<g id="edge25" class="edge">
<title>Node22&#45;&gt;Node26</title>
<path fill="none" stroke="midnightblue" d="M368.71,-352C347.61,-352 324.52,-352 304.28,-352"/>
<polygon fill="midnightblue" stroke="midnightblue" points="368.89,-355.5 378.89,-352 368.89,-348.5 368.89,-355.5"/>
</g>
<!-- Node22&#45;&gt;Node29 -->
<g id="edge29" class="edge">
<title>Node22&#45;&gt;Node29</title>
<path fill="none" stroke="midnightblue" d="M378.37,-340.39C351.77,-334.99 320.53,-328.64 295.35,-323.52"/>
<polygon fill="midnightblue" stroke="midnightblue" points="377.82,-343.85 388.31,-342.41 379.21,-336.99 377.82,-343.85"/>
</g>
<!-- Node22&#45;&gt;Node30 -->
<g id="edge30" class="edge">
<title>Node22&#45;&gt;Node30</title>
<path fill="none" stroke="midnightblue" d="M411.3,-337.42C389.4,-324.75 355.94,-306.64 325,-295 315.27,-291.34 304.57,-288.18 294.34,-285.54"/>
<polygon fill="midnightblue" stroke="midnightblue" points="409.54,-340.45 419.93,-342.49 413.08,-334.41 409.54,-340.45"/>
</g>
<!-- Node22&#45;&gt;Node31 -->
<g id="edge31" class="edge">
<title>Node22&#45;&gt;Node31</title>
<path fill="none" stroke="midnightblue" d="M420.42,-334.82C400.64,-313.37 363.87,-277.08 325,-257 317.58,-253.17 309.36,-250.09 301.13,-247.61"/>
<polygon fill="midnightblue" stroke="midnightblue" points="417.83,-337.18 427.13,-342.25 423.02,-332.48 417.83,-337.18"/>
</g>
<!-- Node22&#45;&gt;Node32 -->
<g id="edge32" class="edge">
<title>Node22&#45;&gt;Node32</title>
<path fill="none" stroke="midnightblue" d="M422.79,-369.93C399.34,-402.56 349.4,-469.68 325,-485 318.86,-488.86 311.98,-491.93 304.93,-494.38"/>
<polygon fill="midnightblue" stroke="midnightblue" points="425.7,-371.89 428.66,-361.72 420,-367.82 425.7,-371.89"/>
</g>
<!-- Node26&#45;&gt;Node8 -->
<g id="edge27" class="edge">
<title>Node26&#45;&gt;Node8</title>
<path fill="none" stroke="midnightblue" d="M181.42,-364.63C177.42,-366.47 173.57,-368.58 170,-371 117.99,-406.25 83.4,-477.34 72.06,-503.26"/>
<polygon fill="midnightblue" stroke="midnightblue" points="183.01,-367.76 191,-360.8 180.41,-361.26 183.01,-367.76"/>
</g>
<!-- Node27 -->
<g id="node27" class="node">
<title>Node27</title>
<g id="a_node27"><a xlink:href="slave_8h.html#ab5c5f3146a46cf8d221aca22e9c8a052" target="_top" xlink:title="Parses provided PDU and generates PDU for the response frame.">
<polygon fill="none" stroke="black" points="0,-361.5 0,-380.5 134,-380.5 134,-361.5 0,-361.5"/>
<text text-anchor="middle" x="67" y="-368.5" font-family="Helvetica,sans-Serif" font-size="10.00">modbusParseRequestPDU</text>
</a>
</g>
</g>
<!-- Node26&#45;&gt;Node27 -->
<g id="edge26" class="edge">
<title>Node26&#45;&gt;Node27</title>
<path fill="none" stroke="midnightblue" d="M180.67,-359.01C165.48,-360.62 149.32,-362.34 134.12,-363.96"/>
<polygon fill="midnightblue" stroke="midnightblue" points="181.43,-362.45 191,-357.91 180.69,-355.49 181.43,-362.45"/>
</g>
<!-- Node28 -->
<g id="node28" class="node">
<title>Node28</title>
<g id="a_node28"><a xlink:href="slave_8h.html#a5ad3fe86aa14f8982d7c459c68cd8b3e" target="_top" xlink:title="Parses provided Modbus TCP request frame and generates a Modbus TCP response.">
<polygon fill="none" stroke="black" points="1,-323.5 1,-342.5 133,-342.5 133,-323.5 1,-323.5"/>
<text text-anchor="middle" x="67" y="-330.5" font-family="Helvetica,sans-Serif" font-size="10.00">modbusParseRequestTCP</text>
</a>
</g>
</g>
<!-- Node26&#45;&gt;Node28 -->
<g id="edge28" class="edge">
<title>Node26&#45;&gt;Node28</title>
<path fill="none" stroke="midnightblue" d="M180.93,-345.02C165.35,-343.36 148.73,-341.59 133.16,-339.94"/>
<polygon fill="midnightblue" stroke="midnightblue" points="180.69,-348.51 191,-346.09 181.43,-341.55 180.69,-348.51"/>
</g>
</g>
</svg>
