<?xml version="1.0" encoding="UTF-8" standalone="no"?>
<!DOCTYPE svg PUBLIC "-//W3C//DTD SVG 1.1//EN"
 "http://www.w3.org/Graphics/SVG/1.1/DTD/svg11.dtd">
<!-- Generated by graphviz version 2.44.0 ()
 -->
<!-- Title: modbusUnpackRTU Pages: 1 -->
<svg width="289pt" height="66pt"
 viewBox="0.00 0.00 289.00 66.00" xmlns="http://www.w3.org/2000/svg" xmlns:xlink="http://www.w3.org/1999/xlink">
<g id="graph0" class="graph" transform="scale(1 1) rotate(0) translate(4 62)">
<title>modbusUnpackRTU</title>
<!-- Node1 -->
<g id="node1" class="node">
<title>Node1</title>
<g id="a_node1"><a xlink:title="Unpacks data from a Modbus RTU frame and optionally checks CRC.">
<polygon fill="#bfbfbf" stroke="black" points="176,-19.5 176,-38.5 281,-38.5 281,-19.5 176,-19.5"/>
<text text-anchor="middle" x="228.5" y="-26.5" font-family="Helvetica,sans-Serif" font-size="10.00">modbusUnpackRTU</text>
</a>
</g>
</g>
<!-- Node2 -->
<g id="node2" class="node">
<title>Node2</title>
<g id="a_node2"><a xlink:href="slave_8h.html#a6a1e63faa64b7ca4b91d1ce7988be850" target="_top" xlink:title="Parses provided Modbus RTU request frame and generates a Modbus RTU response.">
<polygon fill="none" stroke="black" points="3.5,-38.5 3.5,-57.5 136.5,-57.5 136.5,-38.5 3.5,-38.5"/>
<text text-anchor="middle" x="70" y="-45.5" font-family="Helvetica,sans-Serif" font-size="10.00">modbusParseRequestRTU</text>
</a>
</g>
</g>
<!-- Node1&#45;&gt;Node2 -->
<g id="edge1" class="edge">
<title>Node1&#45;&gt;Node2</title>
<path fill="none" stroke="midnightblue" d="M165.63,-36.51C156.08,-37.67 146.2,-38.87 136.58,-40.04"/>
<polygon fill="midnightblue" stroke="midnightblue" points="166.32,-39.95 175.82,-35.27 165.47,-33 166.32,-39.95"/>
</g>
<!-- Node3 -->
<g id="node3" class="node">
<title>Node3</title>
<g id="a_node3"><a xlink:href="master_8h.html#a151b85c221ae43804856eb92737498e5" target="_top" xlink:title="Parses a Modbus RTU slave response.">
<polygon fill="none" stroke="black" points="0,-0.5 0,-19.5 140,-19.5 140,-0.5 0,-0.5"/>
<text text-anchor="middle" x="70" y="-7.5" font-family="Helvetica,sans-Serif" font-size="10.00">modbusParseResponseRTU</text>
</a>
</g>
</g>
<!-- Node1&#45;&gt;Node3 -->
<g id="edge2" class="edge">
<title>Node1&#45;&gt;Node3</title>
<path fill="none" stroke="midnightblue" d="M165.75,-21.5C157.37,-20.49 148.72,-19.44 140.21,-18.4"/>
<polygon fill="midnightblue" stroke="midnightblue" points="165.47,-25 175.82,-22.73 166.32,-18.05 165.47,-25"/>
</g>
</g>
</svg>
