<?xml version="1.0" encoding="UTF-8" standalone="no"?>
<!DOCTYPE svg PUBLIC "-//W3C//DTD SVG 1.1//EN"
 "http://www.w3.org/Graphics/SVG/1.1/DTD/svg11.dtd">
<!-- Generated by graphviz version 2.44.0 ()
 -->
<!-- Title: modbusGetRequestError Pages: 1 -->
<svg width="455pt" height="408pt"
 viewBox="0.00 0.00 455.00 408.00" xmlns="http://www.w3.org/2000/svg" xmlns:xlink="http://www.w3.org/1999/xlink">
<g id="graph0" class="graph" transform="scale(1 1) rotate(0) translate(4 404)">
<title>modbusGetRequestError</title>
<!-- Node1 -->
<g id="node1" class="node">
<title>Node1</title>
<g id="a_node1"><a xlink:title="Returns request error from ModbusErrorInfo.">
<polygon fill="#bfbfbf" stroke="black" points="324,-190.5 324,-209.5 447,-209.5 447,-190.5 324,-190.5"/>
<text text-anchor="middle" x="385.5" y="-197.5" font-family="Helvetica,sans-Serif" font-size="10.00">modbusGetRequestError</text>
</a>
</g>
</g>
<!-- Node2 -->
<g id="node2" class="node">
<title>Node2</title>
<g id="a_node2"><a xlink:href="namespacellm.html#a57bd253b3362a63c62c8c5b5b0391252" target="_top" xlink:title="Throws an exception based on ModbusErrorInfo.">
<polygon fill="none" stroke="black" points="193,-190.5 193,-209.5 288,-209.5 288,-190.5 193,-190.5"/>
<text text-anchor="middle" x="240.5" y="-197.5" font-family="Helvetica,sans-Serif" font-size="10.00">llm::throwErrorInfo</text>
</a>
</g>
</g>
<!-- Node1&#45;&gt;Node2 -->
<g id="edge1" class="edge">
<title>Node1&#45;&gt;Node2</title>
<path fill="none" stroke="midnightblue" d="M313.77,-200C305.14,-200 296.51,-200 288.35,-200"/>
<polygon fill="midnightblue" stroke="midnightblue" points="313.86,-203.5 323.86,-200 313.86,-196.5 313.86,-203.5"/>
</g>
<!-- Node3 -->
<g id="node3" class="node">
<title>Node3</title>
<g id="a_node3"><a xlink:href="classllm_1_1Slave.html#ac915e0947f733a784a9069f5ff5b9737" target="_top" xlink:title=" ">
<polygon fill="none" stroke="black" points="5.5,-380.5 5.5,-399.5 151.5,-399.5 151.5,-380.5 5.5,-380.5"/>
<text text-anchor="middle" x="78.5" y="-387.5" font-family="Helvetica,sans-Serif" font-size="10.00">llm::Slave::buildExceptionPDU</text>
</a>
</g>
</g>
<!-- Node2&#45;&gt;Node3 -->
<g id="edge2" class="edge">
<title>Node2&#45;&gt;Node3</title>
<path fill="none" stroke="midnightblue" d="M235.74,-219.64C227.83,-255.45 206,-331.31 157,-371 152.26,-374.84 146.87,-377.92 141.17,-380.38"/>
<polygon fill="midnightblue" stroke="midnightblue" points="239.24,-220.02 237.84,-209.52 232.38,-218.6 239.24,-220.02"/>
</g>
<!-- Node4 -->
<g id="node4" class="node">
<title>Node4</title>
<g id="a_node4"><a xlink:href="classllm_1_1Slave.html#a10e79600053c725e639225264d966e63" target="_top" xlink:title=" ">
<polygon fill="none" stroke="black" points="5.5,-342.5 5.5,-361.5 151.5,-361.5 151.5,-342.5 5.5,-342.5"/>
<text text-anchor="middle" x="78.5" y="-349.5" font-family="Helvetica,sans-Serif" font-size="10.00">llm::Slave::buildExceptionRTU</text>
</a>
</g>
</g>
<!-- Node2&#45;&gt;Node4 -->
<g id="edge3" class="edge">
<title>Node2&#45;&gt;Node4</title>
<path fill="none" stroke="midnightblue" d="M232.94,-219.35C221.99,-248.63 197.14,-303.85 157,-333 151.62,-336.91 145.53,-340.02 139.19,-342.49"/>
<polygon fill="midnightblue" stroke="midnightblue" points="236.27,-220.43 236.35,-209.84 229.68,-218.07 236.27,-220.43"/>
</g>
<!-- Node5 -->
<g id="node5" class="node">
<title>Node5</title>
<g id="a_node5"><a xlink:href="classllm_1_1Slave.html#a844c37870a4e98bffc091ddfafb8f959" target="_top" xlink:title=" ">
<polygon fill="none" stroke="black" points="6,-304.5 6,-323.5 151,-323.5 151,-304.5 6,-304.5"/>
<text text-anchor="middle" x="78.5" y="-311.5" font-family="Helvetica,sans-Serif" font-size="10.00">llm::Slave::buildExceptionTCP</text>
</a>
</g>
</g>
<!-- Node2&#45;&gt;Node5 -->
<g id="edge4" class="edge">
<title>Node2&#45;&gt;Node5</title>
<path fill="none" stroke="midnightblue" d="M228.73,-218.13C214.9,-239.8 188.83,-275.57 157,-295 150.61,-298.9 143.48,-302 136.18,-304.46"/>
<polygon fill="midnightblue" stroke="midnightblue" points="231.77,-219.88 234.05,-209.53 225.81,-216.2 231.77,-219.88"/>
</g>
<!-- Node6 -->
<g id="node6" class="node">
<title>Node6</title>
<g id="a_node6"><a xlink:href="classllm_1_1Master.html#ac2e598f20d2c576e74590d461cf75f97" target="_top" xlink:title=" ">
<polygon fill="none" stroke="black" points="29.5,-266.5 29.5,-285.5 127.5,-285.5 127.5,-266.5 29.5,-266.5"/>
<text text-anchor="middle" x="78.5" y="-273.5" font-family="Helvetica,sans-Serif" font-size="10.00">llm::Master::Master</text>
</a>
</g>
</g>
<!-- Node2&#45;&gt;Node6 -->
<g id="edge5" class="edge">
<title>Node2&#45;&gt;Node6</title>
<path fill="none" stroke="midnightblue" d="M220.55,-216.1C204.56,-228.92 180.58,-246.4 157,-257 147.78,-261.15 137.51,-264.47 127.55,-267.11"/>
<polygon fill="midnightblue" stroke="midnightblue" points="223.04,-218.59 228.55,-209.54 218.6,-213.17 223.04,-218.59"/>
</g>
<!-- Node7 -->
<g id="node7" class="node">
<title>Node7</title>
<g id="a_node7"><a xlink:href="classllm_1_1Slave.html#af8cc9d8d58bf7f632f3f3cf7e6b9c84b" target="_top" xlink:title=" ">
<polygon fill="none" stroke="black" points="6.5,-228.5 6.5,-247.5 150.5,-247.5 150.5,-228.5 6.5,-228.5"/>
<text text-anchor="middle" x="78.5" y="-235.5" font-family="Helvetica,sans-Serif" font-size="10.00">llm::Slave::parseRequestPDU</text>
</a>
</g>
</g>
<!-- Node2&#45;&gt;Node7 -->
<g id="edge6" class="edge">
<title>Node2&#45;&gt;Node7</title>
<path fill="none" stroke="midnightblue" d="M189.11,-211.97C166.69,-217.29 140.65,-223.48 119.58,-228.48"/>
<polygon fill="midnightblue" stroke="midnightblue" points="190.2,-215.31 199.13,-209.59 188.59,-208.49 190.2,-215.31"/>
</g>
<!-- Node8 -->
<g id="node8" class="node">
<title>Node8</title>
<g id="a_node8"><a xlink:href="classllm_1_1Slave.html#a001591b9a38b69cf29adc853872a09fe" target="_top" xlink:title=" ">
<polygon fill="none" stroke="black" points="7,-190.5 7,-209.5 150,-209.5 150,-190.5 7,-190.5"/>
<text text-anchor="middle" x="78.5" y="-197.5" font-family="Helvetica,sans-Serif" font-size="10.00">llm::Slave::parseRequestRTU</text>
</a>
</g>
</g>
<!-- Node2&#45;&gt;Node8 -->
<g id="edge7" class="edge">
<title>Node2&#45;&gt;Node8</title>
<path fill="none" stroke="midnightblue" d="M182.51,-200C172,-200 160.91,-200 150.06,-200"/>
<polygon fill="midnightblue" stroke="midnightblue" points="182.79,-203.5 192.79,-200 182.79,-196.5 182.79,-203.5"/>
</g>
<!-- Node9 -->
<g id="node9" class="node">
<title>Node9</title>
<g id="a_node9"><a xlink:href="classllm_1_1Slave.html#a05169339916c3727c780c75157b399b9" target="_top" xlink:title=" ">
<polygon fill="none" stroke="black" points="7,-152.5 7,-171.5 150,-171.5 150,-152.5 7,-152.5"/>
<text text-anchor="middle" x="78.5" y="-159.5" font-family="Helvetica,sans-Serif" font-size="10.00">llm::Slave::parseRequestTCP</text>
</a>
</g>
</g>
<!-- Node2&#45;&gt;Node9 -->
<g id="edge8" class="edge">
<title>Node2&#45;&gt;Node9</title>
<path fill="none" stroke="midnightblue" d="M189.11,-188.03C166.69,-182.71 140.65,-176.52 119.58,-171.52"/>
<polygon fill="midnightblue" stroke="midnightblue" points="188.59,-191.51 199.13,-190.41 190.2,-184.69 188.59,-191.51"/>
</g>
<!-- Node10 -->
<g id="node10" class="node">
<title>Node10</title>
<g id="a_node10"><a xlink:href="classllm_1_1Master.html#a39b0210172c76ef4dc9e43668daef7c9" target="_top" xlink:title=" ">
<polygon fill="none" stroke="black" points="0,-114.5 0,-133.5 157,-133.5 157,-114.5 0,-114.5"/>
<text text-anchor="middle" x="78.5" y="-121.5" font-family="Helvetica,sans-Serif" font-size="10.00">llm::Master::parseResponsePDU</text>
</a>
</g>
</g>
<!-- Node2&#45;&gt;Node10 -->
<g id="edge9" class="edge">
<title>Node2&#45;&gt;Node10</title>
<path fill="none" stroke="midnightblue" d="M220.55,-183.9C204.56,-171.08 180.58,-153.6 157,-143 148.53,-139.19 139.19,-136.08 130.01,-133.55"/>
<polygon fill="midnightblue" stroke="midnightblue" points="218.6,-186.83 228.55,-190.46 223.04,-181.41 218.6,-186.83"/>
</g>
<!-- Node11 -->
<g id="node11" class="node">
<title>Node11</title>
<g id="a_node11"><a xlink:href="classllm_1_1Master.html#ab052e172e96808744ee43a8eff80b679" target="_top" xlink:title=" ">
<polygon fill="none" stroke="black" points="0.5,-76.5 0.5,-95.5 156.5,-95.5 156.5,-76.5 0.5,-76.5"/>
<text text-anchor="middle" x="78.5" y="-83.5" font-family="Helvetica,sans-Serif" font-size="10.00">llm::Master::parseResponseRTU</text>
</a>
</g>
</g>
<!-- Node2&#45;&gt;Node11 -->
<g id="edge10" class="edge">
<title>Node2&#45;&gt;Node11</title>
<path fill="none" stroke="midnightblue" d="M228.73,-181.87C214.9,-160.2 188.83,-124.43 157,-105 150.61,-101.1 143.48,-98 136.18,-95.54"/>
<polygon fill="midnightblue" stroke="midnightblue" points="225.81,-183.8 234.05,-190.47 231.77,-180.12 225.81,-183.8"/>
</g>
<!-- Node12 -->
<g id="node12" class="node">
<title>Node12</title>
<g id="a_node12"><a xlink:href="classllm_1_1Master.html#ad1f614f5d44a61a8507ae34968fa7903" target="_top" xlink:title=" ">
<polygon fill="none" stroke="black" points="1,-38.5 1,-57.5 156,-57.5 156,-38.5 1,-38.5"/>
<text text-anchor="middle" x="78.5" y="-45.5" font-family="Helvetica,sans-Serif" font-size="10.00">llm::Master::parseResponseTCP</text>
</a>
</g>
</g>
<!-- Node2&#45;&gt;Node12 -->
<g id="edge11" class="edge">
<title>Node2&#45;&gt;Node12</title>
<path fill="none" stroke="midnightblue" d="M232.94,-180.65C221.99,-151.37 197.14,-96.15 157,-67 151.62,-63.09 145.53,-59.98 139.19,-57.51"/>
<polygon fill="midnightblue" stroke="midnightblue" points="229.68,-181.93 236.35,-190.16 236.27,-179.57 229.68,-181.93"/>
</g>
<!-- Node13 -->
<g id="node13" class="node">
<title>Node13</title>
<g id="a_node13"><a xlink:href="classllm_1_1Slave.html#a6824a1d0fcfd26d8bedaa934f0abcf39" target="_top" xlink:title=" ">
<polygon fill="none" stroke="black" points="34.5,-0.5 34.5,-19.5 122.5,-19.5 122.5,-0.5 34.5,-0.5"/>
<text text-anchor="middle" x="78.5" y="-7.5" font-family="Helvetica,sans-Serif" font-size="10.00">llm::Slave::Slave</text>
</a>
</g>
</g>
<!-- Node2&#45;&gt;Node13 -->
<g id="edge12" class="edge">
<title>Node2&#45;&gt;Node13</title>
<path fill="none" stroke="midnightblue" d="M235.74,-180.36C227.83,-144.55 206,-68.69 157,-29 147.31,-21.15 134.86,-16.47 122.78,-13.71"/>
<polygon fill="midnightblue" stroke="midnightblue" points="232.38,-181.4 237.84,-190.48 239.24,-179.98 232.38,-181.4"/>
</g>
</g>
</svg>
