<?xml version="1.0" encoding="UTF-8" standalone="no"?>
<!DOCTYPE svg PUBLIC "-//W3C//DTD SVG 1.1//EN"
 "http://www.w3.org/Graphics/SVG/1.1/DTD/svg11.dtd">
<!-- Generated by graphviz version 2.44.0 ()
 -->
<!-- Title: modbusBufferInit Pages: 1 -->
<svg width="229pt" height="66pt"
 viewBox="0.00 0.00 229.00 66.00" xmlns="http://www.w3.org/2000/svg" xmlns:xlink="http://www.w3.org/1999/xlink">
<g id="graph0" class="graph" transform="scale(1 1) rotate(0) translate(4 62)">
<title>modbusBufferInit</title>
<!-- Node1 -->
<g id="node1" class="node">
<title>Node1</title>
<g id="a_node1"><a xlink:title="Initializes a buffer for use.">
<polygon fill="#bfbfbf" stroke="black" points="131,-19.5 131,-38.5 221,-38.5 221,-19.5 131,-19.5"/>
<text text-anchor="middle" x="176" y="-26.5" font-family="Helvetica,sans-Serif" font-size="10.00">modbusBufferInit</text>
</a>
</g>
</g>
<!-- Node2 -->
<g id="node2" class="node">
<title>Node2</title>
<g id="a_node2"><a xlink:href="master_8h.html#af3c4b8930f540697662dfdb0788f38ef" target="_top" xlink:title="Initializes a ModbusMaster struct.">
<polygon fill="none" stroke="black" points="0,-38.5 0,-57.5 95,-57.5 95,-38.5 0,-38.5"/>
<text text-anchor="middle" x="47.5" y="-45.5" font-family="Helvetica,sans-Serif" font-size="10.00">modbusMasterInit</text>
</a>
</g>
</g>
<!-- Node1&#45;&gt;Node2 -->
<g id="edge1" class="edge">
<title>Node1&#45;&gt;Node2</title>
<path fill="none" stroke="midnightblue" d="M120.84,-37.14C112.26,-38.42 103.46,-39.74 95.08,-41"/>
<polygon fill="midnightblue" stroke="midnightblue" points="121.39,-40.59 130.76,-35.65 120.35,-33.67 121.39,-40.59"/>
</g>
<!-- Node3 -->
<g id="node3" class="node">
<title>Node3</title>
<g id="a_node3"><a xlink:href="slave_8h.html#a2c30507da9547125c17f62e0e18d9194" target="_top" xlink:title="Initializes slave device.">
<polygon fill="none" stroke="black" points="3,-0.5 3,-19.5 92,-19.5 92,-0.5 3,-0.5"/>
<text text-anchor="middle" x="47.5" y="-7.5" font-family="Helvetica,sans-Serif" font-size="10.00">modbusSlaveInit</text>
</a>
</g>
</g>
<!-- Node1&#45;&gt;Node3 -->
<g id="edge2" class="edge">
<title>Node1&#45;&gt;Node3</title>
<path fill="none" stroke="midnightblue" d="M120.57,-20.83C111.05,-19.4 101.26,-17.92 92.08,-16.55"/>
<polygon fill="midnightblue" stroke="midnightblue" points="120.35,-24.33 130.76,-22.35 121.39,-17.41 120.35,-24.33"/>
</g>
</g>
</svg>
