<?xml version="1.0" encoding="UTF-8" standalone="no"?>
<!DOCTYPE svg PUBLIC "-//W3C//DTD SVG 1.1//EN"
 "http://www.w3.org/Graphics/SVG/1.1/DTD/svg11.dtd">
<!-- Generated by graphviz version 2.44.0 ()
 -->
<!-- Title: modbusCheckRangeU16 Pages: 1 -->
<svg width="486pt" height="313pt"
 viewBox="0.00 0.00 486.00 313.00" xmlns="http://www.w3.org/2000/svg" xmlns:xlink="http://www.w3.org/1999/xlink">
<g id="graph0" class="graph" transform="scale(1 1) rotate(0) translate(4 309)">
<title>modbusCheckRangeU16</title>
<!-- Node1 -->
<g id="node1" class="node">
<title>Node1</title>
<g id="a_node1"><a xlink:title="Checks whether provided address range causes an uint16_t overflow.">
<polygon fill="#bfbfbf" stroke="black" points="353,-114.5 353,-133.5 478,-133.5 478,-114.5 353,-114.5"/>
<text text-anchor="middle" x="415.5" y="-121.5" font-family="Helvetica,sans-Serif" font-size="10.00">modbusCheckRangeU16</text>
</a>
</g>
</g>
<!-- Node2 -->
<g id="node2" class="node">
<title>Node2</title>
<g id="a_node2"><a xlink:href="master__func_8h.html#ad3a6d4576d762da3eb0bd73aa5bb24fe" target="_top" xlink:title="Read mutiple coils/discrete inputs/holding registers/input registers.">
<polygon fill="none" stroke="black" points="160.5,-228.5 160.5,-247.5 311.5,-247.5 311.5,-228.5 160.5,-228.5"/>
<text text-anchor="middle" x="236" y="-235.5" font-family="Helvetica,sans-Serif" font-size="10.00">modbusBuildRequest01020304</text>
</a>
</g>
</g>
<!-- Node1&#45;&gt;Node2 -->
<g id="edge1" class="edge">
<title>Node1&#45;&gt;Node2</title>
<path fill="none" stroke="midnightblue" d="M401.48,-141.55C384.49,-163.15 352.67,-199.38 317,-219 310,-222.85 302.23,-225.93 294.36,-228.38"/>
<polygon fill="midnightblue" stroke="midnightblue" points="404.32,-143.59 407.63,-133.53 398.77,-139.33 404.32,-143.59"/>
</g>
<!-- Node7 -->
<g id="node7" class="node">
<title>Node7</title>
<g id="a_node7"><a xlink:href="master__func_8h.html#ae9842e659ccd8942905e685923de8916" target="_top" xlink:title="Write multiple coils.">
<polygon fill="none" stroke="black" points="176.5,-190.5 176.5,-209.5 295.5,-209.5 295.5,-190.5 176.5,-190.5"/>
<text text-anchor="middle" x="236" y="-197.5" font-family="Helvetica,sans-Serif" font-size="10.00">modbusBuildRequest15</text>
</a>
</g>
</g>
<!-- Node1&#45;&gt;Node7 -->
<g id="edge6" class="edge">
<title>Node1&#45;&gt;Node7</title>
<path fill="none" stroke="midnightblue" d="M392.65,-139.32C373.5,-152.12 344.5,-169.98 317,-181 307.59,-184.77 297.25,-187.91 287.21,-190.48"/>
<polygon fill="midnightblue" stroke="midnightblue" points="394.66,-142.19 400.96,-133.68 390.72,-136.4 394.66,-142.19"/>
</g>
<!-- Node8 -->
<g id="node8" class="node">
<title>Node8</title>
<g id="a_node8"><a xlink:href="master__func_8h.html#aca022c438a427d8f4b03db4427c2b344" target="_top" xlink:title="Write multiple holding registers.">
<polygon fill="none" stroke="black" points="176.5,-152.5 176.5,-171.5 295.5,-171.5 295.5,-152.5 176.5,-152.5"/>
<text text-anchor="middle" x="236" y="-159.5" font-family="Helvetica,sans-Serif" font-size="10.00">modbusBuildRequest16</text>
</a>
</g>
</g>
<!-- Node1&#45;&gt;Node8 -->
<g id="edge7" class="edge">
<title>Node1&#45;&gt;Node8</title>
<path fill="none" stroke="midnightblue" d="M359.6,-135.75C334.5,-141.13 305.16,-147.41 281.47,-152.48"/>
<polygon fill="midnightblue" stroke="midnightblue" points="360.66,-139.1 369.71,-133.59 359.2,-132.26 360.66,-139.1"/>
</g>
<!-- Node9 -->
<g id="node9" class="node">
<title>Node9</title>
<g id="a_node9"><a xlink:href="slave__func_8h.html#aaff57f2a5c6a8e6c77d36c5dc7e48cfa" target="_top" xlink:title="Handles requests 01, 02, 03 and 04 (Read Multiple XX) and generates response.">
<polygon fill="none" stroke="black" points="158.5,-114.5 158.5,-133.5 313.5,-133.5 313.5,-114.5 158.5,-114.5"/>
<text text-anchor="middle" x="236" y="-121.5" font-family="Helvetica,sans-Serif" font-size="10.00">modbusParseRequest01020304</text>
</a>
</g>
</g>
<!-- Node1&#45;&gt;Node9 -->
<g id="edge8" class="edge">
<title>Node1&#45;&gt;Node9</title>
<path fill="none" stroke="midnightblue" d="M342.71,-124C333.19,-124 323.4,-124 313.8,-124"/>
<polygon fill="midnightblue" stroke="midnightblue" points="342.92,-127.5 352.92,-124 342.92,-120.5 342.92,-127.5"/>
</g>
<!-- Node10 -->
<g id="node10" class="node">
<title>Node10</title>
<g id="a_node10"><a xlink:href="slave__func_8h.html#a0cb2a7bf59d4014088e1ce1c61523071" target="_top" xlink:title="Handles requests 15 and 16 (Write Multiple XX) and generates response.">
<polygon fill="none" stroke="black" points="169,-76.5 169,-95.5 303,-95.5 303,-76.5 169,-76.5"/>
<text text-anchor="middle" x="236" y="-83.5" font-family="Helvetica,sans-Serif" font-size="10.00">modbusParseRequest1516</text>
</a>
</g>
</g>
<!-- Node1&#45;&gt;Node10 -->
<g id="edge9" class="edge">
<title>Node1&#45;&gt;Node10</title>
<path fill="none" stroke="midnightblue" d="M359.6,-112.25C334.5,-106.87 305.16,-100.59 281.47,-95.52"/>
<polygon fill="midnightblue" stroke="midnightblue" points="359.2,-115.74 369.71,-114.41 360.66,-108.9 359.2,-115.74"/>
</g>
<!-- Node11 -->
<g id="node11" class="node">
<title>Node11</title>
<g id="a_node11"><a xlink:href="master__func_8h.html#adafbaa72d4df36b3577ce5494b460a2b" target="_top" xlink:title="Parses response to requests 01, 02, 03 and 04.">
<polygon fill="none" stroke="black" points="155,-38.5 155,-57.5 317,-57.5 317,-38.5 155,-38.5"/>
<text text-anchor="middle" x="236" y="-45.5" font-family="Helvetica,sans-Serif" font-size="10.00">modbusParseResponse01020304</text>
</a>
</g>
</g>
<!-- Node1&#45;&gt;Node11 -->
<g id="edge10" class="edge">
<title>Node1&#45;&gt;Node11</title>
<path fill="none" stroke="midnightblue" d="M392.65,-108.68C373.5,-95.88 344.5,-78.02 317,-67 307.59,-63.23 297.25,-60.09 287.21,-57.52"/>
<polygon fill="midnightblue" stroke="midnightblue" points="390.72,-111.6 400.96,-114.32 394.66,-105.81 390.72,-111.6"/>
</g>
<!-- Node12 -->
<g id="node12" class="node">
<title>Node12</title>
<g id="a_node12"><a xlink:href="master__func_8h.html#a0c53ade25c249f6aeed8c877b98f8016" target="_top" xlink:title="Parses response to requests 15 and 16 (write mutliple regsiters/coils)">
<polygon fill="none" stroke="black" points="165.5,-0.5 165.5,-19.5 306.5,-19.5 306.5,-0.5 165.5,-0.5"/>
<text text-anchor="middle" x="236" y="-7.5" font-family="Helvetica,sans-Serif" font-size="10.00">modbusParseResponse1516</text>
</a>
</g>
</g>
<!-- Node1&#45;&gt;Node12 -->
<g id="edge11" class="edge">
<title>Node1&#45;&gt;Node12</title>
<path fill="none" stroke="midnightblue" d="M401.48,-106.45C384.49,-84.85 352.67,-48.62 317,-29 310,-25.15 302.23,-22.07 294.36,-19.62"/>
<polygon fill="midnightblue" stroke="midnightblue" points="398.77,-108.67 407.63,-114.47 404.32,-104.41 398.77,-108.67"/>
</g>
<!-- Node3 -->
<g id="node3" class="node">
<title>Node3</title>
<g id="a_node3"><a xlink:href="master__func_8h.html#aadb2b7e2d3ee4fbde22cdf076713d75e" target="_top" xlink:title="Read multiple coils &#45; a wrapper for modbusBuildRequest01020304()">
<polygon fill="none" stroke="black" points="0,-285.5 0,-304.5 119,-304.5 119,-285.5 0,-285.5"/>
<text text-anchor="middle" x="59.5" y="-292.5" font-family="Helvetica,sans-Serif" font-size="10.00">modbusBuildRequest01</text>
</a>
</g>
</g>
<!-- Node2&#45;&gt;Node3 -->
<g id="edge2" class="edge">
<title>Node2&#45;&gt;Node3</title>
<path fill="none" stroke="midnightblue" d="M196.37,-250.68C173.81,-258.08 144.8,-267.58 119,-276 109.56,-279.08 99.26,-282.43 89.97,-285.45"/>
<polygon fill="midnightblue" stroke="midnightblue" points="197.52,-253.99 205.93,-247.55 195.33,-247.34 197.52,-253.99"/>
</g>
<!-- Node4 -->
<g id="node4" class="node">
<title>Node4</title>
<g id="a_node4"><a xlink:href="master__func_8h.html#a2a6452a8200d77483254bef08ee2cf8c" target="_top" xlink:title="Read multiple discrete inputs &#45; a wrapper for modbusBuildRequest01020304()">
<polygon fill="none" stroke="black" points="0,-247.5 0,-266.5 119,-266.5 119,-247.5 0,-247.5"/>
<text text-anchor="middle" x="59.5" y="-254.5" font-family="Helvetica,sans-Serif" font-size="10.00">modbusBuildRequest02</text>
</a>
</g>
</g>
<!-- Node2&#45;&gt;Node4 -->
<g id="edge3" class="edge">
<title>Node2&#45;&gt;Node4</title>
<path fill="none" stroke="midnightblue" d="M150.41,-247.21C139.85,-248.36 129.24,-249.52 119.2,-250.61"/>
<polygon fill="midnightblue" stroke="midnightblue" points="150.93,-250.67 160.49,-246.11 150.17,-243.72 150.93,-250.67"/>
</g>
<!-- Node5 -->
<g id="node5" class="node">
<title>Node5</title>
<g id="a_node5"><a xlink:href="master__func_8h.html#a1c7ed51c58b1ef42ee176833c7fd0515" target="_top" xlink:title="Read multiple holding registers &#45; a wrapper for modbusBuildRequest01020304()">
<polygon fill="none" stroke="black" points="0,-209.5 0,-228.5 119,-228.5 119,-209.5 0,-209.5"/>
<text text-anchor="middle" x="59.5" y="-216.5" font-family="Helvetica,sans-Serif" font-size="10.00">modbusBuildRequest03</text>
</a>
</g>
</g>
<!-- Node2&#45;&gt;Node5 -->
<g id="edge4" class="edge">
<title>Node2&#45;&gt;Node5</title>
<path fill="none" stroke="midnightblue" d="M150.41,-228.79C139.85,-227.64 129.24,-226.48 119.2,-225.39"/>
<polygon fill="midnightblue" stroke="midnightblue" points="150.17,-232.28 160.49,-229.89 150.93,-225.33 150.17,-232.28"/>
</g>
<!-- Node6 -->
<g id="node6" class="node">
<title>Node6</title>
<g id="a_node6"><a xlink:href="master__func_8h.html#a22bf4541196b3e88c0a86861d334e3b1" target="_top" xlink:title="Read multiple input registers &#45; a wrapper for modbusBuildRequest01020304()">
<polygon fill="none" stroke="black" points="0,-171.5 0,-190.5 119,-190.5 119,-171.5 0,-171.5"/>
<text text-anchor="middle" x="59.5" y="-178.5" font-family="Helvetica,sans-Serif" font-size="10.00">modbusBuildRequest04</text>
</a>
</g>
</g>
<!-- Node2&#45;&gt;Node6 -->
<g id="edge5" class="edge">
<title>Node2&#45;&gt;Node6</title>
<path fill="none" stroke="midnightblue" d="M176.32,-225.87C169.05,-223.84 161.8,-221.55 155,-219 138.06,-212.64 135.66,-207.04 119,-200 110.84,-196.55 101.82,-193.34 93.35,-190.58"/>
<polygon fill="midnightblue" stroke="midnightblue" points="175.62,-229.31 186.18,-228.48 177.41,-222.54 175.62,-229.31"/>
</g>
</g>
</svg>
