<?xml version="1.0" encoding="UTF-8" standalone="no"?>
<!DOCTYPE svg PUBLIC "-//W3C//DTD SVG 1.1//EN"
 "http://www.w3.org/Graphics/SVG/1.1/DTD/svg11.dtd">
<!-- Generated by graphviz version 2.44.0 ()
 -->
<!-- Title: modbusCRC Pages: 1 -->
<svg width="255pt" height="104pt"
 viewBox="0.00 0.00 255.00 104.00" xmlns="http://www.w3.org/2000/svg" xmlns:xlink="http://www.w3.org/1999/xlink">
<g id="graph0" class="graph" transform="scale(1 1) rotate(0) translate(4 100)">
<title>modbusCRC</title>
<!-- Node1 -->
<g id="node1" class="node">
<title>Node1</title>
<g id="a_node1"><a xlink:title="Calculates 16&#45;bit Modbus CRC of provided data.">
<polygon fill="#bfbfbf" stroke="black" points="176,-38.5 176,-57.5 247,-57.5 247,-38.5 176,-38.5"/>
<text text-anchor="middle" x="211.5" y="-45.5" font-family="Helvetica,sans-Serif" font-size="10.00">modbusCRC</text>
</a>
</g>
</g>
<!-- Node2 -->
<g id="node2" class="node">
<title>Node2</title>
<g id="a_node2"><a xlink:href="master_8h.html#a4623d6d41d5e4a148e399fe19051183c" target="_top" xlink:title="Finalizes a Modbus RTU request.">
<polygon fill="none" stroke="black" points="8,-76.5 8,-95.5 132,-95.5 132,-76.5 8,-76.5"/>
<text text-anchor="middle" x="70" y="-83.5" font-family="Helvetica,sans-Serif" font-size="10.00">modbusEndRequestRTU</text>
</a>
</g>
</g>
<!-- Node1&#45;&gt;Node2 -->
<g id="edge1" class="edge">
<title>Node1&#45;&gt;Node2</title>
<path fill="none" stroke="midnightblue" d="M165.82,-60.17C146.42,-65.46 124.03,-71.55 105.88,-76.5"/>
<polygon fill="midnightblue" stroke="midnightblue" points="166.93,-63.5 175.66,-57.49 165.09,-56.74 166.93,-63.5"/>
</g>
<!-- Node3 -->
<g id="node3" class="node">
<title>Node3</title>
<g id="a_node3"><a xlink:href="slave_8h.html#a28b9fe2f4559cd0b1c39aff30099d591" target="_top" xlink:title="Parses provided Modbus RTU request frame and generates a Modbus RTU response.">
<polygon fill="none" stroke="black" points="3.5,-38.5 3.5,-57.5 136.5,-57.5 136.5,-38.5 3.5,-38.5"/>
<text text-anchor="middle" x="70" y="-45.5" font-family="Helvetica,sans-Serif" font-size="10.00">modbusParseRequestRTU</text>
</a>
</g>
</g>
<!-- Node1&#45;&gt;Node3 -->
<g id="edge2" class="edge">
<title>Node1&#45;&gt;Node3</title>
<path fill="none" stroke="midnightblue" d="M165.56,-48C156.33,-48 146.43,-48 136.64,-48"/>
<polygon fill="midnightblue" stroke="midnightblue" points="165.66,-51.5 175.66,-48 165.66,-44.5 165.66,-51.5"/>
</g>
<!-- Node4 -->
<g id="node4" class="node">
<title>Node4</title>
<g id="a_node4"><a xlink:href="master_8h.html#a151b85c221ae43804856eb92737498e5" target="_top" xlink:title="Parses a Modbus RTU slave response.">
<polygon fill="none" stroke="black" points="0,-0.5 0,-19.5 140,-19.5 140,-0.5 0,-0.5"/>
<text text-anchor="middle" x="70" y="-7.5" font-family="Helvetica,sans-Serif" font-size="10.00">modbusParseResponseRTU</text>
</a>
</g>
</g>
<!-- Node1&#45;&gt;Node4 -->
<g id="edge3" class="edge">
<title>Node1&#45;&gt;Node4</title>
<path fill="none" stroke="midnightblue" d="M165.82,-35.83C146.42,-30.54 124.03,-24.45 105.88,-19.5"/>
<polygon fill="midnightblue" stroke="midnightblue" points="165.09,-39.26 175.66,-38.51 166.93,-32.5 165.09,-39.26"/>
</g>
</g>
</svg>
