<?xml version="1.0" encoding="UTF-8" standalone="no"?>
<!DOCTYPE svg PUBLIC "-//W3C//DTD SVG 1.1//EN"
 "http://www.w3.org/Graphics/SVG/1.1/DTD/svg11.dtd">
<!-- Generated by graphviz version 2.44.0 ()
 -->
<!-- Title: modbusWBE Pages: 1 -->
<svg width="442pt" height="484pt"
 viewBox="0.00 0.00 442.00 484.00" xmlns="http://www.w3.org/2000/svg" xmlns:xlink="http://www.w3.org/1999/xlink">
<g id="graph0" class="graph" transform="scale(1 1) rotate(0) translate(4 480)">
<title>modbusWBE</title>
<!-- Node1 -->
<g id="node1" class="node">
<title>Node1</title>
<g id="a_node1"><a xlink:title="Safely writes a big&#45;endian 16&#45;bit word to provided pointer.">
<polygon fill="#bfbfbf" stroke="black" points="361,-171.5 361,-190.5 434,-190.5 434,-171.5 361,-171.5"/>
<text text-anchor="middle" x="397.5" y="-178.5" font-family="Helvetica,sans-Serif" font-size="10.00">modbusWBE</text>
</a>
</g>
</g>
<!-- Node2 -->
<g id="node2" class="node">
<title>Node2</title>
<g id="a_node2"><a xlink:href="master__func_8h.html#ad3a6d4576d762da3eb0bd73aa5bb24fe" target="_top" xlink:title="Read mutiple coils/discrete inputs/holding registers/input registers.">
<polygon fill="none" stroke="black" points="172,-380.5 172,-399.5 323,-399.5 323,-380.5 172,-380.5"/>
<text text-anchor="middle" x="247.5" y="-387.5" font-family="Helvetica,sans-Serif" font-size="10.00">modbusBuildRequest01020304</text>
</a>
</g>
</g>
<!-- Node1&#45;&gt;Node2 -->
<g id="edge1" class="edge">
<title>Node1&#45;&gt;Node2</title>
<path fill="none" stroke="midnightblue" d="M390.69,-200.71C380.91,-231.45 358.85,-291.57 325,-333 308.34,-353.39 282.86,-370.44 265.95,-380.43"/>
<polygon fill="midnightblue" stroke="midnightblue" points="394.14,-201.39 393.73,-190.81 387.45,-199.34 394.14,-201.39"/>
</g>
<!-- Node7 -->
<g id="node7" class="node">
<title>Node7</title>
<g id="a_node7"><a xlink:href="master__func_8h.html#a5309a3003ea2d248e51193e75ab30044" target="_top" xlink:title="Write single coil/holding register.">
<polygon fill="none" stroke="black" points="182.5,-304.5 182.5,-323.5 312.5,-323.5 312.5,-304.5 182.5,-304.5"/>
<text text-anchor="middle" x="247.5" y="-311.5" font-family="Helvetica,sans-Serif" font-size="10.00">modbusBuildRequest0506</text>
</a>
</g>
</g>
<!-- Node1&#45;&gt;Node7 -->
<g id="edge6" class="edge">
<title>Node1&#45;&gt;Node7</title>
<path fill="none" stroke="midnightblue" d="M389.78,-200.08C379.76,-225.7 358.42,-270.78 325,-295 319.68,-298.85 313.67,-301.93 307.41,-304.39"/>
<polygon fill="midnightblue" stroke="midnightblue" points="393.07,-201.3 393.28,-190.71 386.51,-198.85 393.07,-201.3"/>
</g>
<!-- Node10 -->
<g id="node10" class="node">
<title>Node10</title>
<g id="a_node10"><a xlink:href="master__func_8h.html#ae9842e659ccd8942905e685923de8916" target="_top" xlink:title="Write multiple coils.">
<polygon fill="none" stroke="black" points="188,-266.5 188,-285.5 307,-285.5 307,-266.5 188,-266.5"/>
<text text-anchor="middle" x="247.5" y="-273.5" font-family="Helvetica,sans-Serif" font-size="10.00">modbusBuildRequest15</text>
</a>
</g>
</g>
<!-- Node1&#45;&gt;Node10 -->
<g id="edge9" class="edge">
<title>Node1&#45;&gt;Node10</title>
<path fill="none" stroke="midnightblue" d="M384.45,-198.84C371.72,-216.3 350.03,-242.35 325,-257 318.39,-260.87 311.01,-263.96 303.51,-266.42"/>
<polygon fill="midnightblue" stroke="midnightblue" points="387.36,-200.78 390.27,-190.6 381.64,-196.75 387.36,-200.78"/>
</g>
<!-- Node11 -->
<g id="node11" class="node">
<title>Node11</title>
<g id="a_node11"><a xlink:href="master__func_8h.html#aca022c438a427d8f4b03db4427c2b344" target="_top" xlink:title="Write multiple holding registers.">
<polygon fill="none" stroke="black" points="188,-228.5 188,-247.5 307,-247.5 307,-228.5 188,-228.5"/>
<text text-anchor="middle" x="247.5" y="-235.5" font-family="Helvetica,sans-Serif" font-size="10.00">modbusBuildRequest16</text>
</a>
</g>
</g>
<!-- Node1&#45;&gt;Node11 -->
<g id="edge10" class="edge">
<title>Node1&#45;&gt;Node11</title>
<path fill="none" stroke="midnightblue" d="M372.42,-195.7C358.87,-203.49 341.42,-212.71 325,-219 315.42,-222.67 304.88,-225.82 294.78,-228.44"/>
<polygon fill="midnightblue" stroke="midnightblue" points="374.27,-198.68 381.12,-190.6 370.72,-192.64 374.27,-198.68"/>
</g>
<!-- Node12 -->
<g id="node12" class="node">
<title>Node12</title>
<g id="a_node12"><a xlink:href="master__func_8h.html#a6f2c5d59dee73c80ad54e53cca38aeec" target="_top" xlink:title="Mask write register request.">
<polygon fill="none" stroke="black" points="188,-190.5 188,-209.5 307,-209.5 307,-190.5 188,-190.5"/>
<text text-anchor="middle" x="247.5" y="-197.5" font-family="Helvetica,sans-Serif" font-size="10.00">modbusBuildRequest22</text>
</a>
</g>
</g>
<!-- Node1&#45;&gt;Node12 -->
<g id="edge11" class="edge">
<title>Node1&#45;&gt;Node12</title>
<path fill="none" stroke="midnightblue" d="M350.5,-186.91C336.76,-188.67 321.52,-190.63 307.09,-192.48"/>
<polygon fill="midnightblue" stroke="midnightblue" points="351.2,-190.34 360.67,-185.6 350.31,-183.4 351.2,-190.34"/>
</g>
<!-- Node13 -->
<g id="node13" class="node">
<title>Node13</title>
<g id="a_node13"><a xlink:href="base_8h.html#a39dcd3aad118a779b7e1775fea3e5d77" target="_top" xlink:title="Sets up the MBAP header in a Modbus TCP frame.">
<polygon fill="none" stroke="black" points="201,-152.5 201,-171.5 294,-171.5 294,-152.5 201,-152.5"/>
<text text-anchor="middle" x="247.5" y="-159.5" font-family="Helvetica,sans-Serif" font-size="10.00">modbusPackTCP</text>
</a>
</g>
</g>
<!-- Node1&#45;&gt;Node13 -->
<g id="edge12" class="edge">
<title>Node1&#45;&gt;Node13</title>
<path fill="none" stroke="midnightblue" d="M350.7,-175.12C332.69,-172.81 312.08,-170.16 294.09,-167.85"/>
<polygon fill="midnightblue" stroke="midnightblue" points="350.31,-178.6 360.67,-176.4 351.2,-171.66 350.31,-178.6"/>
</g>
<!-- Node17 -->
<g id="node17" class="node">
<title>Node17</title>
<g id="a_node17"><a xlink:href="slave__func_8h.html#aaff57f2a5c6a8e6c77d36c5dc7e48cfa" target="_top" xlink:title="Handles requests 01, 02, 03 and 04 (Read Multiple XX) and generates response.">
<polygon fill="none" stroke="black" points="170,-114.5 170,-133.5 325,-133.5 325,-114.5 170,-114.5"/>
<text text-anchor="middle" x="247.5" y="-121.5" font-family="Helvetica,sans-Serif" font-size="10.00">modbusParseRequest01020304</text>
</a>
</g>
</g>
<!-- Node1&#45;&gt;Node17 -->
<g id="edge16" class="edge">
<title>Node1&#45;&gt;Node17</title>
<path fill="none" stroke="midnightblue" d="M372.42,-166.3C358.87,-158.51 341.42,-149.29 325,-143 315.42,-139.33 304.88,-136.18 294.78,-133.56"/>
<polygon fill="midnightblue" stroke="midnightblue" points="370.72,-169.36 381.12,-171.4 374.27,-163.32 370.72,-169.36"/>
</g>
<!-- Node18 -->
<g id="node18" class="node">
<title>Node18</title>
<g id="a_node18"><a xlink:href="slave__func_8h.html#a236881fe30a95d4cc9b031a9e24ae2a8" target="_top" xlink:title="Handles requests 05 and 06 (Write Single XX) and generates response.">
<polygon fill="none" stroke="black" points="180.5,-76.5 180.5,-95.5 314.5,-95.5 314.5,-76.5 180.5,-76.5"/>
<text text-anchor="middle" x="247.5" y="-83.5" font-family="Helvetica,sans-Serif" font-size="10.00">modbusParseRequest0506</text>
</a>
</g>
</g>
<!-- Node1&#45;&gt;Node18 -->
<g id="edge17" class="edge">
<title>Node1&#45;&gt;Node18</title>
<path fill="none" stroke="midnightblue" d="M384.45,-163.16C371.72,-145.7 350.03,-119.65 325,-105 318.39,-101.13 311.01,-98.04 303.51,-95.58"/>
<polygon fill="midnightblue" stroke="midnightblue" points="381.64,-165.25 390.27,-171.4 387.36,-161.22 381.64,-165.25"/>
</g>
<!-- Node19 -->
<g id="node19" class="node">
<title>Node19</title>
<g id="a_node19"><a xlink:href="slave__func_8h.html#a0cb2a7bf59d4014088e1ce1c61523071" target="_top" xlink:title="Handles requests 15 and 16 (Write Multiple XX) and generates response.">
<polygon fill="none" stroke="black" points="180.5,-38.5 180.5,-57.5 314.5,-57.5 314.5,-38.5 180.5,-38.5"/>
<text text-anchor="middle" x="247.5" y="-45.5" font-family="Helvetica,sans-Serif" font-size="10.00">modbusParseRequest1516</text>
</a>
</g>
</g>
<!-- Node1&#45;&gt;Node19 -->
<g id="edge18" class="edge">
<title>Node1&#45;&gt;Node19</title>
<path fill="none" stroke="midnightblue" d="M389.78,-161.92C379.76,-136.3 358.42,-91.22 325,-67 319.68,-63.15 313.67,-60.07 307.41,-57.61"/>
<polygon fill="midnightblue" stroke="midnightblue" points="386.51,-163.15 393.28,-171.29 393.07,-160.7 386.51,-163.15"/>
</g>
<!-- Node20 -->
<g id="node20" class="node">
<title>Node20</title>
<g id="a_node20"><a xlink:href="slave__func_8h.html#a814f041d9acfa578998b8ce8fe53815c" target="_top" xlink:title="Handles request 22 (Mask Write Register) and generates response.">
<polygon fill="none" stroke="black" points="186,-0.5 186,-19.5 309,-19.5 309,-0.5 186,-0.5"/>
<text text-anchor="middle" x="247.5" y="-7.5" font-family="Helvetica,sans-Serif" font-size="10.00">modbusParseRequest22</text>
</a>
</g>
</g>
<!-- Node1&#45;&gt;Node20 -->
<g id="edge19" class="edge">
<title>Node1&#45;&gt;Node20</title>
<path fill="none" stroke="midnightblue" d="M392.9,-161.34C385.87,-128.73 367.14,-63.59 325,-29 320.24,-25.09 314.79,-21.97 309.04,-19.48"/>
<polygon fill="midnightblue" stroke="midnightblue" points="389.52,-162.3 394.92,-171.42 396.39,-160.93 389.52,-162.3"/>
</g>
<!-- Node3 -->
<g id="node3" class="node">
<title>Node3</title>
<g id="a_node3"><a xlink:href="master__func_8h.html#aadb2b7e2d3ee4fbde22cdf076713d75e" target="_top" xlink:title="Read multiple coils &#45; a wrapper for modbusBuildRequest01020304()">
<polygon fill="none" stroke="black" points="7.5,-456.5 7.5,-475.5 126.5,-475.5 126.5,-456.5 7.5,-456.5"/>
<text text-anchor="middle" x="67" y="-463.5" font-family="Helvetica,sans-Serif" font-size="10.00">modbusBuildRequest01</text>
</a>
</g>
</g>
<!-- Node2&#45;&gt;Node3 -->
<g id="edge2" class="edge">
<title>Node2&#45;&gt;Node3</title>
<path fill="none" stroke="midnightblue" d="M221.33,-404.49C198.94,-416.95 165.02,-434.8 134,-447 125.01,-450.53 115.1,-453.73 105.76,-456.46"/>
<polygon fill="midnightblue" stroke="midnightblue" points="223.18,-407.46 230.18,-399.51 219.75,-401.36 223.18,-407.46"/>
</g>
<!-- Node4 -->
<g id="node4" class="node">
<title>Node4</title>
<g id="a_node4"><a xlink:href="master__func_8h.html#a2a6452a8200d77483254bef08ee2cf8c" target="_top" xlink:title="Read multiple discrete inputs &#45; a wrapper for modbusBuildRequest01020304()">
<polygon fill="none" stroke="black" points="7.5,-418.5 7.5,-437.5 126.5,-437.5 126.5,-418.5 7.5,-418.5"/>
<text text-anchor="middle" x="67" y="-425.5" font-family="Helvetica,sans-Serif" font-size="10.00">modbusBuildRequest02</text>
</a>
</g>
</g>
<!-- Node2&#45;&gt;Node4 -->
<g id="edge3" class="edge">
<title>Node2&#45;&gt;Node4</title>
<path fill="none" stroke="midnightblue" d="M191.63,-401.68C166.32,-407.07 136.65,-413.39 112.72,-418.48"/>
<polygon fill="midnightblue" stroke="midnightblue" points="192.4,-405.09 201.46,-399.59 190.95,-398.25 192.4,-405.09"/>
</g>
<!-- Node5 -->
<g id="node5" class="node">
<title>Node5</title>
<g id="a_node5"><a xlink:href="master__func_8h.html#a1c7ed51c58b1ef42ee176833c7fd0515" target="_top" xlink:title="Read multiple holding registers &#45; a wrapper for modbusBuildRequest01020304()">
<polygon fill="none" stroke="black" points="7.5,-380.5 7.5,-399.5 126.5,-399.5 126.5,-380.5 7.5,-380.5"/>
<text text-anchor="middle" x="67" y="-387.5" font-family="Helvetica,sans-Serif" font-size="10.00">modbusBuildRequest03</text>
</a>
</g>
</g>
<!-- Node2&#45;&gt;Node5 -->
<g id="edge4" class="edge">
<title>Node2&#45;&gt;Node5</title>
<path fill="none" stroke="midnightblue" d="M161.51,-390C149.7,-390 137.8,-390 126.63,-390"/>
<polygon fill="midnightblue" stroke="midnightblue" points="161.83,-393.5 171.83,-390 161.83,-386.5 161.83,-393.5"/>
</g>
<!-- Node6 -->
<g id="node6" class="node">
<title>Node6</title>
<g id="a_node6"><a xlink:href="master__func_8h.html#a22bf4541196b3e88c0a86861d334e3b1" target="_top" xlink:title="Read multiple input registers &#45; a wrapper for modbusBuildRequest01020304()">
<polygon fill="none" stroke="black" points="7.5,-342.5 7.5,-361.5 126.5,-361.5 126.5,-342.5 7.5,-342.5"/>
<text text-anchor="middle" x="67" y="-349.5" font-family="Helvetica,sans-Serif" font-size="10.00">modbusBuildRequest04</text>
</a>
</g>
</g>
<!-- Node2&#45;&gt;Node6 -->
<g id="edge5" class="edge">
<title>Node2&#45;&gt;Node6</title>
<path fill="none" stroke="midnightblue" d="M191.63,-378.32C166.32,-372.93 136.65,-366.61 112.72,-361.52"/>
<polygon fill="midnightblue" stroke="midnightblue" points="190.95,-381.75 201.46,-380.41 192.4,-374.91 190.95,-381.75"/>
</g>
<!-- Node8 -->
<g id="node8" class="node">
<title>Node8</title>
<g id="a_node8"><a xlink:href="master__func_8h.html#a7151355c8c34af355fd779f88a64e125" target="_top" xlink:title="Write single coil &#45; a wrapper for modbusBuildRequest0506()">
<polygon fill="none" stroke="black" points="7.5,-304.5 7.5,-323.5 126.5,-323.5 126.5,-304.5 7.5,-304.5"/>
<text text-anchor="middle" x="67" y="-311.5" font-family="Helvetica,sans-Serif" font-size="10.00">modbusBuildRequest05</text>
</a>
</g>
</g>
<!-- Node7&#45;&gt;Node8 -->
<g id="edge7" class="edge">
<title>Node7&#45;&gt;Node8</title>
<path fill="none" stroke="midnightblue" d="M171.94,-314C156.8,-314 141.07,-314 126.58,-314"/>
<polygon fill="midnightblue" stroke="midnightblue" points="172.31,-317.5 182.31,-314 172.31,-310.5 172.31,-317.5"/>
</g>
<!-- Node9 -->
<g id="node9" class="node">
<title>Node9</title>
<g id="a_node9"><a xlink:href="master__func_8h.html#a56779853bdfd2bb75601be746c20eb09" target="_top" xlink:title="Write single holding register &#45; a wrapper for modbusBuildRequest0506()">
<polygon fill="none" stroke="black" points="7.5,-266.5 7.5,-285.5 126.5,-285.5 126.5,-266.5 7.5,-266.5"/>
<text text-anchor="middle" x="67" y="-273.5" font-family="Helvetica,sans-Serif" font-size="10.00">modbusBuildRequest06</text>
</a>
</g>
</g>
<!-- Node7&#45;&gt;Node9 -->
<g id="edge8" class="edge">
<title>Node7&#45;&gt;Node9</title>
<path fill="none" stroke="midnightblue" d="M191.63,-302.32C166.32,-296.93 136.65,-290.61 112.72,-285.52"/>
<polygon fill="midnightblue" stroke="midnightblue" points="190.95,-305.75 201.46,-304.41 192.4,-298.91 190.95,-305.75"/>
</g>
<!-- Node14 -->
<g id="node14" class="node">
<title>Node14</title>
<g id="a_node14"><a xlink:href="slave_8h.html#a778e65356f7da66831f18ec53b975383" target="_top" xlink:title="Builds a Modbus TCP exception.">
<polygon fill="none" stroke="black" points="0,-190.5 0,-209.5 134,-209.5 134,-190.5 0,-190.5"/>
<text text-anchor="middle" x="67" y="-197.5" font-family="Helvetica,sans-Serif" font-size="10.00">modbusBuildExceptionTCP</text>
</a>
</g>
</g>
<!-- Node13&#45;&gt;Node14 -->
<g id="edge13" class="edge">
<title>Node13&#45;&gt;Node14</title>
<path fill="none" stroke="midnightblue" d="M191.63,-173.68C166.32,-179.07 136.65,-185.39 112.72,-190.48"/>
<polygon fill="midnightblue" stroke="midnightblue" points="192.4,-177.09 201.46,-171.59 190.95,-170.25 192.4,-177.09"/>
</g>
<!-- Node15 -->
<g id="node15" class="node">
<title>Node15</title>
<g id="a_node15"><a xlink:href="master_8h.html#a117f6d4b5ec63dac5e4e5ea0af78d079" target="_top" xlink:title="Finalizes a Modbus TCP request.">
<polygon fill="none" stroke="black" points="5.5,-152.5 5.5,-171.5 128.5,-171.5 128.5,-152.5 5.5,-152.5"/>
<text text-anchor="middle" x="67" y="-159.5" font-family="Helvetica,sans-Serif" font-size="10.00">modbusEndRequestTCP</text>
</a>
</g>
</g>
<!-- Node13&#45;&gt;Node15 -->
<g id="edge14" class="edge">
<title>Node13&#45;&gt;Node15</title>
<path fill="none" stroke="midnightblue" d="M190.91,-162C171.13,-162 148.76,-162 128.58,-162"/>
<polygon fill="midnightblue" stroke="midnightblue" points="191,-165.5 201,-162 191,-158.5 191,-165.5"/>
</g>
<!-- Node16 -->
<g id="node16" class="node">
<title>Node16</title>
<g id="a_node16"><a xlink:href="slave_8h.html#a5ad3fe86aa14f8982d7c459c68cd8b3e" target="_top" xlink:title="Parses provided Modbus TCP request frame and generates a Modbus TCP response.">
<polygon fill="none" stroke="black" points="1,-114.5 1,-133.5 133,-133.5 133,-114.5 1,-114.5"/>
<text text-anchor="middle" x="67" y="-121.5" font-family="Helvetica,sans-Serif" font-size="10.00">modbusParseRequestTCP</text>
</a>
</g>
</g>
<!-- Node13&#45;&gt;Node16 -->
<g id="edge15" class="edge">
<title>Node13&#45;&gt;Node16</title>
<path fill="none" stroke="midnightblue" d="M191.63,-150.32C166.32,-144.93 136.65,-138.61 112.72,-133.52"/>
<polygon fill="midnightblue" stroke="midnightblue" points="190.95,-153.75 201.46,-152.41 192.4,-146.91 190.95,-153.75"/>
</g>
</g>
</svg>
