<?xml version="1.0" encoding="UTF-8" standalone="no"?>
<!DOCTYPE svg PUBLIC "-//W3C//DTD SVG 1.1//EN"
 "http://www.w3.org/Graphics/SVG/1.1/DTD/svg11.dtd">
<!-- Generated by graphviz version 2.44.0 ()
 -->
<!-- Title: modbusWLE Pages: 1 -->
<svg width="563pt" height="104pt"
 viewBox="0.00 0.00 563.00 104.00" xmlns="http://www.w3.org/2000/svg" xmlns:xlink="http://www.w3.org/1999/xlink">
<g id="graph0" class="graph" transform="scale(1 1) rotate(0) translate(4 100)">
<title>modbusWLE</title>
<!-- Node1 -->
<g id="node1" class="node">
<title>Node1</title>
<g id="a_node1"><a xlink:title="Safely writes a little&#45;endian 16&#45;bit word to provided pointer.">
<polygon fill="#bfbfbf" stroke="black" points="483,-38.5 483,-57.5 555,-57.5 555,-38.5 483,-38.5"/>
<text text-anchor="middle" x="519" y="-45.5" font-family="Helvetica,sans-Serif" font-size="10.00">modbusWLE</text>
</a>
</g>
</g>
<!-- Node2 -->
<g id="node2" class="node">
<title>Node2</title>
<g id="a_node2"><a xlink:href="base_8h.html#af2cafe9debf86bea7042b4c40bb288cd" target="_top" xlink:title="Sets up address and CRC in a Modbus RTU frame.">
<polygon fill="none" stroke="black" points="353,-38.5 353,-57.5 447,-57.5 447,-38.5 353,-38.5"/>
<text text-anchor="middle" x="400" y="-45.5" font-family="Helvetica,sans-Serif" font-size="10.00">modbusPackRTU</text>
</a>
</g>
</g>
<!-- Node1&#45;&gt;Node2 -->
<g id="edge1" class="edge">
<title>Node1&#45;&gt;Node2</title>
<path fill="none" stroke="midnightblue" d="M472.64,-48C464.34,-48 455.67,-48 447.34,-48"/>
<polygon fill="midnightblue" stroke="midnightblue" points="472.9,-51.5 482.9,-48 472.9,-44.5 472.9,-51.5"/>
</g>
<!-- Node3 -->
<g id="node3" class="node">
<title>Node3</title>
<g id="a_node3"><a xlink:href="slave_8h.html#a1da09df8858b91c61fe02c25783c2946" target="_top" xlink:title="Builds a Modbus RTU exception.">
<polygon fill="none" stroke="black" points="182,-76.5 182,-95.5 317,-95.5 317,-76.5 182,-76.5"/>
<text text-anchor="middle" x="249.5" y="-83.5" font-family="Helvetica,sans-Serif" font-size="10.00">modbusBuildExceptionRTU</text>
</a>
</g>
</g>
<!-- Node2&#45;&gt;Node3 -->
<g id="edge2" class="edge">
<title>Node2&#45;&gt;Node3</title>
<path fill="none" stroke="midnightblue" d="M351.67,-60.11C330.99,-65.4 307.08,-71.52 287.7,-76.48"/>
<polygon fill="midnightblue" stroke="midnightblue" points="352.71,-63.46 361.53,-57.59 350.97,-56.68 352.71,-63.46"/>
</g>
<!-- Node5 -->
<g id="node5" class="node">
<title>Node5</title>
<g id="a_node5"><a xlink:href="master_8h.html#a4623d6d41d5e4a148e399fe19051183c" target="_top" xlink:title="Finalizes a Modbus RTU request.">
<polygon fill="none" stroke="black" points="187.5,-38.5 187.5,-57.5 311.5,-57.5 311.5,-38.5 187.5,-38.5"/>
<text text-anchor="middle" x="249.5" y="-45.5" font-family="Helvetica,sans-Serif" font-size="10.00">modbusEndRequestRTU</text>
</a>
</g>
</g>
<!-- Node2&#45;&gt;Node5 -->
<g id="edge4" class="edge">
<title>Node2&#45;&gt;Node5</title>
<path fill="none" stroke="midnightblue" d="M342.52,-48C332.43,-48 321.87,-48 311.66,-48"/>
<polygon fill="midnightblue" stroke="midnightblue" points="342.83,-51.5 352.83,-48 342.83,-44.5 342.83,-51.5"/>
</g>
<!-- Node6 -->
<g id="node6" class="node">
<title>Node6</title>
<g id="a_node6"><a xlink:href="slave_8h.html#a6a1e63faa64b7ca4b91d1ce7988be850" target="_top" xlink:title="Parses provided Modbus RTU request frame and generates a Modbus RTU response.">
<polygon fill="none" stroke="black" points="183,-0.5 183,-19.5 316,-19.5 316,-0.5 183,-0.5"/>
<text text-anchor="middle" x="249.5" y="-7.5" font-family="Helvetica,sans-Serif" font-size="10.00">modbusParseRequestRTU</text>
</a>
</g>
</g>
<!-- Node2&#45;&gt;Node6 -->
<g id="edge5" class="edge">
<title>Node2&#45;&gt;Node6</title>
<path fill="none" stroke="midnightblue" d="M351.67,-35.89C330.99,-30.6 307.08,-24.48 287.7,-19.52"/>
<polygon fill="midnightblue" stroke="midnightblue" points="350.97,-39.32 361.53,-38.41 352.71,-32.54 350.97,-39.32"/>
</g>
<!-- Node4 -->
<g id="node4" class="node">
<title>Node4</title>
<g id="a_node4"><a xlink:href="classllm_1_1Slave.html#a10e79600053c725e639225264d966e63" target="_top" xlink:title=" ">
<polygon fill="none" stroke="black" points="0,-76.5 0,-95.5 146,-95.5 146,-76.5 0,-76.5"/>
<text text-anchor="middle" x="73" y="-83.5" font-family="Helvetica,sans-Serif" font-size="10.00">llm::Slave::buildExceptionRTU</text>
</a>
</g>
</g>
<!-- Node3&#45;&gt;Node4 -->
<g id="edge3" class="edge">
<title>Node3&#45;&gt;Node4</title>
<path fill="none" stroke="midnightblue" d="M171.34,-86C162.92,-86 154.37,-86 146.01,-86"/>
<polygon fill="midnightblue" stroke="midnightblue" points="171.53,-89.5 181.53,-86 171.53,-82.5 171.53,-89.5"/>
</g>
<!-- Node7 -->
<g id="node7" class="node">
<title>Node7</title>
<g id="a_node7"><a xlink:href="classllm_1_1Slave.html#a001591b9a38b69cf29adc853872a09fe" target="_top" xlink:title=" ">
<polygon fill="none" stroke="black" points="1.5,-0.5 1.5,-19.5 144.5,-19.5 144.5,-0.5 1.5,-0.5"/>
<text text-anchor="middle" x="73" y="-7.5" font-family="Helvetica,sans-Serif" font-size="10.00">llm::Slave::parseRequestRTU</text>
</a>
</g>
</g>
<!-- Node6&#45;&gt;Node7 -->
<g id="edge6" class="edge">
<title>Node6&#45;&gt;Node7</title>
<path fill="none" stroke="midnightblue" d="M172.28,-10C163.12,-10 153.8,-10 144.72,-10"/>
<polygon fill="midnightblue" stroke="midnightblue" points="172.53,-13.5 182.53,-10 172.53,-6.5 172.53,-13.5"/>
</g>
</g>
</svg>
