<?xml version="1.0" encoding="UTF-8" standalone="no"?>
<!DOCTYPE svg PUBLIC "-//W3C//DTD SVG 1.1//EN"
 "http://www.w3.org/Graphics/SVG/1.1/DTD/svg11.dtd">
<!-- Generated by graphviz version 2.44.0 ()
 -->
<!-- Title: modbusCRC Pages: 1 -->
<svg width="396pt" height="142pt"
 viewBox="0.00 0.00 396.00 142.00" xmlns="http://www.w3.org/2000/svg" xmlns:xlink="http://www.w3.org/1999/xlink">
<g id="graph0" class="graph" transform="scale(1 1) rotate(0) translate(4 138)">
<title>modbusCRC</title>
<!-- Node1 -->
<g id="node1" class="node">
<title>Node1</title>
<g id="a_node1"><a xlink:title="Calculates 16&#45;bit Modbus CRC of provided data.">
<polygon fill="#bfbfbf" stroke="black" points="317,-57.5 317,-76.5 388,-76.5 388,-57.5 317,-57.5"/>
<text text-anchor="middle" x="352.5" y="-64.5" font-family="Helvetica,sans-Serif" font-size="10.00">modbusCRC</text>
</a>
</g>
</g>
<!-- Node2 -->
<g id="node2" class="node">
<title>Node2</title>
<g id="a_node2"><a xlink:href="base_8h.html#af2cafe9debf86bea7042b4c40bb288cd" target="_top" xlink:title="Sets up address and CRC in a Modbus RTU frame.">
<polygon fill="none" stroke="black" points="181.5,-76.5 181.5,-95.5 275.5,-95.5 275.5,-76.5 181.5,-76.5"/>
<text text-anchor="middle" x="228.5" y="-83.5" font-family="Helvetica,sans-Serif" font-size="10.00">modbusPackRTU</text>
</a>
</g>
</g>
<!-- Node1&#45;&gt;Node2 -->
<g id="edge1" class="edge">
<title>Node1&#45;&gt;Node2</title>
<path fill="none" stroke="midnightblue" d="M306.94,-73.94C296.74,-75.53 285.88,-77.22 275.62,-78.82"/>
<polygon fill="midnightblue" stroke="midnightblue" points="307.52,-77.39 316.87,-72.39 306.45,-70.47 307.52,-77.39"/>
</g>
<!-- Node6 -->
<g id="node6" class="node">
<title>Node6</title>
<g id="a_node6"><a xlink:href="base_8h.html#a4dba88e9baf690b8dafa0fad81eb7d07" target="_top" xlink:title="Unpacks data from a Modbus RTU frame and optionally checks CRC.">
<polygon fill="none" stroke="black" points="176,-38.5 176,-57.5 281,-57.5 281,-38.5 176,-38.5"/>
<text text-anchor="middle" x="228.5" y="-45.5" font-family="Helvetica,sans-Serif" font-size="10.00">modbusUnpackRTU</text>
</a>
</g>
</g>
<!-- Node1&#45;&gt;Node6 -->
<g id="edge5" class="edge">
<title>Node1&#45;&gt;Node6</title>
<path fill="none" stroke="midnightblue" d="M306.9,-60.05C298.5,-58.75 289.66,-57.37 281.08,-56.03"/>
<polygon fill="midnightblue" stroke="midnightblue" points="306.45,-63.53 316.87,-61.61 307.52,-56.61 306.45,-63.53"/>
</g>
<!-- Node3 -->
<g id="node3" class="node">
<title>Node3</title>
<g id="a_node3"><a xlink:href="slave_8h.html#a1da09df8858b91c61fe02c25783c2946" target="_top" xlink:title="Builds a Modbus RTU exception.">
<polygon fill="none" stroke="black" points="2.5,-114.5 2.5,-133.5 137.5,-133.5 137.5,-114.5 2.5,-114.5"/>
<text text-anchor="middle" x="70" y="-121.5" font-family="Helvetica,sans-Serif" font-size="10.00">modbusBuildExceptionRTU</text>
</a>
</g>
</g>
<!-- Node2&#45;&gt;Node3 -->
<g id="edge2" class="edge">
<title>Node2&#45;&gt;Node3</title>
<path fill="none" stroke="midnightblue" d="M178.21,-97.97C156.28,-103.29 130.82,-109.48 110.21,-114.48"/>
<polygon fill="midnightblue" stroke="midnightblue" points="179.12,-101.35 188.01,-95.59 177.46,-94.55 179.12,-101.35"/>
</g>
<!-- Node4 -->
<g id="node4" class="node">
<title>Node4</title>
<g id="a_node4"><a xlink:href="master_8h.html#a4623d6d41d5e4a148e399fe19051183c" target="_top" xlink:title="Finalizes a Modbus RTU request.">
<polygon fill="none" stroke="black" points="8,-76.5 8,-95.5 132,-95.5 132,-76.5 8,-76.5"/>
<text text-anchor="middle" x="70" y="-83.5" font-family="Helvetica,sans-Serif" font-size="10.00">modbusEndRequestRTU</text>
</a>
</g>
</g>
<!-- Node2&#45;&gt;Node4 -->
<g id="edge3" class="edge">
<title>Node2&#45;&gt;Node4</title>
<path fill="none" stroke="midnightblue" d="M171.02,-86C158.4,-86 144.96,-86 132.16,-86"/>
<polygon fill="midnightblue" stroke="midnightblue" points="171.39,-89.5 181.39,-86 171.39,-82.5 171.39,-89.5"/>
</g>
<!-- Node5 -->
<g id="node5" class="node">
<title>Node5</title>
<g id="a_node5"><a xlink:href="slave_8h.html#a6a1e63faa64b7ca4b91d1ce7988be850" target="_top" xlink:title="Parses provided Modbus RTU request frame and generates a Modbus RTU response.">
<polygon fill="none" stroke="black" points="3.5,-38.5 3.5,-57.5 136.5,-57.5 136.5,-38.5 3.5,-38.5"/>
<text text-anchor="middle" x="70" y="-45.5" font-family="Helvetica,sans-Serif" font-size="10.00">modbusParseRequestRTU</text>
</a>
</g>
</g>
<!-- Node2&#45;&gt;Node5 -->
<g id="edge4" class="edge">
<title>Node2&#45;&gt;Node5</title>
<path fill="none" stroke="midnightblue" d="M178.21,-74.03C156.28,-68.71 130.82,-62.52 110.21,-57.52"/>
<polygon fill="midnightblue" stroke="midnightblue" points="177.46,-77.45 188.01,-76.41 179.12,-70.65 177.46,-77.45"/>
</g>
<!-- Node6&#45;&gt;Node5 -->
<g id="edge6" class="edge">
<title>Node6&#45;&gt;Node5</title>
<path fill="none" stroke="midnightblue" d="M165.63,-48C156.08,-48 146.2,-48 136.58,-48"/>
<polygon fill="midnightblue" stroke="midnightblue" points="165.82,-51.5 175.82,-48 165.82,-44.5 165.82,-51.5"/>
</g>
<!-- Node7 -->
<g id="node7" class="node">
<title>Node7</title>
<g id="a_node7"><a xlink:href="master_8h.html#a151b85c221ae43804856eb92737498e5" target="_top" xlink:title="Parses a Modbus RTU slave response.">
<polygon fill="none" stroke="black" points="0,-0.5 0,-19.5 140,-19.5 140,-0.5 0,-0.5"/>
<text text-anchor="middle" x="70" y="-7.5" font-family="Helvetica,sans-Serif" font-size="10.00">modbusParseResponseRTU</text>
</a>
</g>
</g>
<!-- Node6&#45;&gt;Node7 -->
<g id="edge7" class="edge">
<title>Node6&#45;&gt;Node7</title>
<path fill="none" stroke="midnightblue" d="M178.21,-36.03C156.28,-30.71 130.82,-24.52 110.21,-19.52"/>
<polygon fill="midnightblue" stroke="midnightblue" points="177.46,-39.45 188.01,-38.41 179.12,-32.65 177.46,-39.45"/>
</g>
</g>
</svg>
