<?xml version="1.0" encoding="UTF-8" standalone="no"?>
<!DOCTYPE svg PUBLIC "-//W3C//DTD SVG 1.1//EN"
 "http://www.w3.org/Graphics/SVG/1.1/DTD/svg11.dtd">
<!-- Generated by graphviz version 2.44.0 ()
 -->
<!-- Title: modbusIsOk Pages: 1 -->
<svg width="252pt" height="180pt"
 viewBox="0.00 0.00 252.00 180.00" xmlns="http://www.w3.org/2000/svg" xmlns:xlink="http://www.w3.org/1999/xlink">
<g id="graph0" class="graph" transform="scale(1 1) rotate(0) translate(4 176)">
<title>modbusIsOk</title>
<!-- Node1 -->
<g id="node1" class="node">
<title>Node1</title>
<g id="a_node1"><a xlink:title="Checks if ModbusErrorInfo contains an error.">
<polygon fill="#bfbfbf" stroke="black" points="172,-76.5 172,-95.5 244,-95.5 244,-76.5 172,-76.5"/>
<text text-anchor="middle" x="208" y="-83.5" font-family="Helvetica,sans-Serif" font-size="10.00">modbusIsOk</text>
</a>
</g>
</g>
<!-- Node2 -->
<g id="node2" class="node">
<title>Node2</title>
<g id="a_node2"><a xlink:href="slave_8h.html#a384f75966903cc0c249eb68a6a20180e" target="_top" xlink:title="Builds an exception PDU.">
<polygon fill="none" stroke="black" points="0,-152.5 0,-171.5 136,-171.5 136,-152.5 0,-152.5"/>
<text text-anchor="middle" x="68" y="-159.5" font-family="Helvetica,sans-Serif" font-size="10.00">modbusBuildExceptionPDU</text>
</a>
</g>
</g>
<!-- Node1&#45;&gt;Node2 -->
<g id="edge1" class="edge">
<title>Node1&#45;&gt;Node2</title>
<path fill="none" stroke="midnightblue" d="M189.76,-103.17C176.19,-115.81 156.24,-132.55 136,-143 128.69,-146.77 120.54,-149.88 112.51,-152.41"/>
<polygon fill="midnightblue" stroke="midnightblue" points="192.53,-105.36 197.34,-95.92 187.69,-100.3 192.53,-105.36"/>
</g>
<!-- Node3 -->
<g id="node3" class="node">
<title>Node3</title>
<g id="a_node3"><a xlink:href="slave_8h.html#a1da09df8858b91c61fe02c25783c2946" target="_top" xlink:title="Builds a Modbus RTU exception.">
<polygon fill="none" stroke="black" points="0.5,-114.5 0.5,-133.5 135.5,-133.5 135.5,-114.5 0.5,-114.5"/>
<text text-anchor="middle" x="68" y="-121.5" font-family="Helvetica,sans-Serif" font-size="10.00">modbusBuildExceptionRTU</text>
</a>
</g>
</g>
<!-- Node1&#45;&gt;Node3 -->
<g id="edge2" class="edge">
<title>Node1&#45;&gt;Node3</title>
<path fill="none" stroke="midnightblue" d="M162.53,-98.25C143.51,-103.48 121.62,-109.51 103.81,-114.41"/>
<polygon fill="midnightblue" stroke="midnightblue" points="163.46,-101.62 172.18,-95.59 161.61,-94.87 163.46,-101.62"/>
</g>
<!-- Node4 -->
<g id="node4" class="node">
<title>Node4</title>
<g id="a_node4"><a xlink:href="slave_8h.html#a778e65356f7da66831f18ec53b975383" target="_top" xlink:title="Builds a Modbus TCP exception.">
<polygon fill="none" stroke="black" points="1,-76.5 1,-95.5 135,-95.5 135,-76.5 1,-76.5"/>
<text text-anchor="middle" x="68" y="-83.5" font-family="Helvetica,sans-Serif" font-size="10.00">modbusBuildExceptionTCP</text>
</a>
</g>
</g>
<!-- Node1&#45;&gt;Node4 -->
<g id="edge3" class="edge">
<title>Node1&#45;&gt;Node4</title>
<path fill="none" stroke="midnightblue" d="M161.77,-86C153.28,-86 144.24,-86 135.26,-86"/>
<polygon fill="midnightblue" stroke="midnightblue" points="161.82,-89.5 171.82,-86 161.82,-82.5 161.82,-89.5"/>
</g>
<!-- Node5 -->
<g id="node5" class="node">
<title>Node5</title>
<g id="a_node5"><a xlink:href="slave_8h.html#a6a1e63faa64b7ca4b91d1ce7988be850" target="_top" xlink:title="Parses provided Modbus RTU request frame and generates a Modbus RTU response.">
<polygon fill="none" stroke="black" points="1.5,-38.5 1.5,-57.5 134.5,-57.5 134.5,-38.5 1.5,-38.5"/>
<text text-anchor="middle" x="68" y="-45.5" font-family="Helvetica,sans-Serif" font-size="10.00">modbusParseRequestRTU</text>
</a>
</g>
</g>
<!-- Node1&#45;&gt;Node5 -->
<g id="edge4" class="edge">
<title>Node1&#45;&gt;Node5</title>
<path fill="none" stroke="midnightblue" d="M162.53,-73.75C143.51,-68.52 121.62,-62.49 103.81,-57.59"/>
<polygon fill="midnightblue" stroke="midnightblue" points="161.61,-77.13 172.18,-76.41 163.46,-70.38 161.61,-77.13"/>
</g>
<!-- Node6 -->
<g id="node6" class="node">
<title>Node6</title>
<g id="a_node6"><a xlink:href="slave_8h.html#a5ad3fe86aa14f8982d7c459c68cd8b3e" target="_top" xlink:title="Parses provided Modbus TCP request frame and generates a Modbus TCP response.">
<polygon fill="none" stroke="black" points="2,-0.5 2,-19.5 134,-19.5 134,-0.5 2,-0.5"/>
<text text-anchor="middle" x="68" y="-7.5" font-family="Helvetica,sans-Serif" font-size="10.00">modbusParseRequestTCP</text>
</a>
</g>
</g>
<!-- Node1&#45;&gt;Node6 -->
<g id="edge5" class="edge">
<title>Node1&#45;&gt;Node6</title>
<path fill="none" stroke="midnightblue" d="M189.76,-68.83C176.19,-56.19 156.24,-39.45 136,-29 128.69,-25.23 120.54,-22.12 112.51,-19.59"/>
<polygon fill="midnightblue" stroke="midnightblue" points="187.69,-71.7 197.34,-76.08 192.53,-66.64 187.69,-71.7"/>
</g>
</g>
</svg>
