<?xml version="1.0" encoding="UTF-8" standalone="no"?>
<!DOCTYPE svg PUBLIC "-//W3C//DTD SVG 1.1//EN"
 "http://www.w3.org/Graphics/SVG/1.1/DTD/svg11.dtd">
<!-- Generated by graphviz version 2.44.0 ()
 -->
<!-- Title: modbusGetErrorCode Pages: 1 -->
<svg width="457pt" height="218pt"
 viewBox="0.00 0.00 457.00 218.00" xmlns="http://www.w3.org/2000/svg" xmlns:xlink="http://www.w3.org/1999/xlink">
<g id="graph0" class="graph" transform="scale(1 1) rotate(0) translate(4 214)">
<title>modbusGetErrorCode</title>
<!-- Node1 -->
<g id="node1" class="node">
<title>Node1</title>
<g id="a_node1"><a xlink:title="Returns ModbusError contained in ModbusErrorInfo.">
<polygon fill="#bfbfbf" stroke="black" points="339,-133.5 339,-152.5 449,-152.5 449,-133.5 339,-133.5"/>
<text text-anchor="middle" x="394" y="-140.5" font-family="Helvetica,sans-Serif" font-size="10.00">modbusGetErrorCode</text>
</a>
</g>
</g>
<!-- Node2 -->
<g id="node2" class="node">
<title>Node2</title>
<g id="a_node2"><a xlink:href="base_8h.html#a84765449265aa5a31877b749f04cb568" target="_top" xlink:title="Returns general error from ModbusErrorInfo.">
<polygon fill="none" stroke="black" points="177,-190.5 177,-209.5 298,-209.5 298,-190.5 177,-190.5"/>
<text text-anchor="middle" x="237.5" y="-197.5" font-family="Helvetica,sans-Serif" font-size="10.00">modbusGetGeneralError</text>
</a>
</g>
</g>
<!-- Node1&#45;&gt;Node2 -->
<g id="edge1" class="edge">
<title>Node1&#45;&gt;Node2</title>
<path fill="none" stroke="midnightblue" d="M362.61,-156.84C345.32,-164.46 323.16,-173.8 303,-181 293.55,-184.38 283.16,-187.63 273.55,-190.46"/>
<polygon fill="midnightblue" stroke="midnightblue" points="364.46,-159.85 372.17,-152.59 361.61,-153.46 364.46,-159.85"/>
</g>
<!-- Node3 -->
<g id="node3" class="node">
<title>Node3</title>
<g id="a_node3"><a xlink:href="base_8h.html#a5c6f792a259423b2df55d8d49e91fd06" target="_top" xlink:title="Returns request error from ModbusErrorInfo.">
<polygon fill="none" stroke="black" points="176,-152.5 176,-171.5 299,-171.5 299,-152.5 176,-152.5"/>
<text text-anchor="middle" x="237.5" y="-159.5" font-family="Helvetica,sans-Serif" font-size="10.00">modbusGetRequestError</text>
</a>
</g>
</g>
<!-- Node1&#45;&gt;Node3 -->
<g id="edge2" class="edge">
<title>Node1&#45;&gt;Node3</title>
<path fill="none" stroke="midnightblue" d="M328.84,-150.89C319,-152.1 308.87,-153.35 299.11,-154.55"/>
<polygon fill="midnightblue" stroke="midnightblue" points="329.47,-154.34 338.96,-149.65 328.61,-147.39 329.47,-154.34"/>
</g>
<!-- Node4 -->
<g id="node4" class="node">
<title>Node4</title>
<g id="a_node4"><a xlink:href="base_8h.html#acbf9b7e6b679be88ce4e10ffb617d3e9" target="_top" xlink:title="Returns response error from ModbusErrorInfo.">
<polygon fill="none" stroke="black" points="172,-114.5 172,-133.5 303,-133.5 303,-114.5 172,-114.5"/>
<text text-anchor="middle" x="237.5" y="-121.5" font-family="Helvetica,sans-Serif" font-size="10.00">modbusGetResponseError</text>
</a>
</g>
</g>
<!-- Node1&#45;&gt;Node4 -->
<g id="edge3" class="edge">
<title>Node1&#45;&gt;Node4</title>
<path fill="none" stroke="midnightblue" d="M328.76,-135.1C320.29,-134.06 311.6,-132.99 303.12,-131.95"/>
<polygon fill="midnightblue" stroke="midnightblue" points="328.61,-138.61 338.96,-136.35 329.47,-131.66 328.61,-138.61"/>
</g>
<!-- Node5 -->
<g id="node5" class="node">
<title>Node5</title>
<g id="a_node5"><a xlink:href="base_8h.html#a64880e7075f445881485396f3aa869c5" target="_top" xlink:title="Checks if ModbusErrorInfo contains an error.">
<polygon fill="none" stroke="black" points="201.5,-76.5 201.5,-95.5 273.5,-95.5 273.5,-76.5 201.5,-76.5"/>
<text text-anchor="middle" x="237.5" y="-83.5" font-family="Helvetica,sans-Serif" font-size="10.00">modbusIsOk</text>
</a>
</g>
</g>
<!-- Node1&#45;&gt;Node5 -->
<g id="edge4" class="edge">
<title>Node1&#45;&gt;Node5</title>
<path fill="none" stroke="midnightblue" d="M362.61,-129.16C345.32,-121.54 323.16,-112.2 303,-105 293.55,-101.62 283.16,-98.37 273.55,-95.54"/>
<polygon fill="midnightblue" stroke="midnightblue" points="361.61,-132.54 372.17,-133.41 364.46,-126.15 361.61,-132.54"/>
</g>
<!-- Node6 -->
<g id="node6" class="node">
<title>Node6</title>
<g id="a_node6"><a xlink:href="slave_8h.html#a384f75966903cc0c249eb68a6a20180e" target="_top" xlink:title="Builds an exception PDU.">
<polygon fill="none" stroke="black" points="0,-152.5 0,-171.5 136,-171.5 136,-152.5 0,-152.5"/>
<text text-anchor="middle" x="68" y="-159.5" font-family="Helvetica,sans-Serif" font-size="10.00">modbusBuildExceptionPDU</text>
</a>
</g>
</g>
<!-- Node5&#45;&gt;Node6 -->
<g id="edge5" class="edge">
<title>Node5&#45;&gt;Node6</title>
<path fill="none" stroke="midnightblue" d="M191.4,-95.95C184.64,-98.38 177.95,-101.35 172,-105 152.16,-117.15 155.9,-130.95 136,-143 129.59,-146.88 122.35,-150 115.07,-152.49"/>
<polygon fill="midnightblue" stroke="midnightblue" points="192.83,-99.17 201.28,-92.78 190.69,-92.5 192.83,-99.17"/>
</g>
<!-- Node7 -->
<g id="node7" class="node">
<title>Node7</title>
<g id="a_node7"><a xlink:href="slave_8h.html#a1da09df8858b91c61fe02c25783c2946" target="_top" xlink:title="Builds a Modbus RTU exception.">
<polygon fill="none" stroke="black" points="0.5,-114.5 0.5,-133.5 135.5,-133.5 135.5,-114.5 0.5,-114.5"/>
<text text-anchor="middle" x="68" y="-121.5" font-family="Helvetica,sans-Serif" font-size="10.00">modbusBuildExceptionRTU</text>
</a>
</g>
</g>
<!-- Node5&#45;&gt;Node7 -->
<g id="edge6" class="edge">
<title>Node5&#45;&gt;Node7</title>
<path fill="none" stroke="midnightblue" d="M191.4,-96.23C166.35,-101.91 135.39,-108.94 110.88,-114.5"/>
<polygon fill="midnightblue" stroke="midnightblue" points="192.41,-99.59 201.39,-93.97 190.86,-92.77 192.41,-99.59"/>
</g>
<!-- Node8 -->
<g id="node8" class="node">
<title>Node8</title>
<g id="a_node8"><a xlink:href="slave_8h.html#a778e65356f7da66831f18ec53b975383" target="_top" xlink:title="Builds a Modbus TCP exception.">
<polygon fill="none" stroke="black" points="1,-76.5 1,-95.5 135,-95.5 135,-76.5 1,-76.5"/>
<text text-anchor="middle" x="68" y="-83.5" font-family="Helvetica,sans-Serif" font-size="10.00">modbusBuildExceptionTCP</text>
</a>
</g>
</g>
<!-- Node5&#45;&gt;Node8 -->
<g id="edge7" class="edge">
<title>Node5&#45;&gt;Node8</title>
<path fill="none" stroke="midnightblue" d="M191.07,-86C173.87,-86 153.92,-86 135.19,-86"/>
<polygon fill="midnightblue" stroke="midnightblue" points="191.39,-89.5 201.39,-86 191.39,-82.5 191.39,-89.5"/>
</g>
<!-- Node9 -->
<g id="node9" class="node">
<title>Node9</title>
<g id="a_node9"><a xlink:href="slave_8h.html#a6a1e63faa64b7ca4b91d1ce7988be850" target="_top" xlink:title="Parses provided Modbus RTU request frame and generates a Modbus RTU response.">
<polygon fill="none" stroke="black" points="1.5,-38.5 1.5,-57.5 134.5,-57.5 134.5,-38.5 1.5,-38.5"/>
<text text-anchor="middle" x="68" y="-45.5" font-family="Helvetica,sans-Serif" font-size="10.00">modbusParseRequestRTU</text>
</a>
</g>
</g>
<!-- Node5&#45;&gt;Node9 -->
<g id="edge8" class="edge">
<title>Node5&#45;&gt;Node9</title>
<path fill="none" stroke="midnightblue" d="M191.4,-75.77C166.35,-70.09 135.39,-63.06 110.88,-57.5"/>
<polygon fill="midnightblue" stroke="midnightblue" points="190.86,-79.23 201.39,-78.03 192.41,-72.41 190.86,-79.23"/>
</g>
<!-- Node10 -->
<g id="node10" class="node">
<title>Node10</title>
<g id="a_node10"><a xlink:href="slave_8h.html#a5ad3fe86aa14f8982d7c459c68cd8b3e" target="_top" xlink:title="Parses provided Modbus TCP request frame and generates a Modbus TCP response.">
<polygon fill="none" stroke="black" points="2,-0.5 2,-19.5 134,-19.5 134,-0.5 2,-0.5"/>
<text text-anchor="middle" x="68" y="-7.5" font-family="Helvetica,sans-Serif" font-size="10.00">modbusParseRequestTCP</text>
</a>
</g>
</g>
<!-- Node5&#45;&gt;Node10 -->
<g id="edge9" class="edge">
<title>Node5&#45;&gt;Node10</title>
<path fill="none" stroke="midnightblue" d="M213.44,-70.8C193.57,-58.23 163.8,-40.63 136,-29 127.3,-25.36 117.68,-22.18 108.51,-19.51"/>
<polygon fill="midnightblue" stroke="midnightblue" points="211.78,-73.89 222.08,-76.35 215.56,-68 211.78,-73.89"/>
</g>
</g>
</svg>
