<?xml version="1.0" encoding="UTF-8" standalone="no"?>
<!DOCTYPE svg PUBLIC "-//W3C//DTD SVG 1.1//EN"
 "http://www.w3.org/Graphics/SVG/1.1/DTD/svg11.dtd">
<!-- Generated by graphviz version 2.44.0 ()
 -->
<!-- Title: modbusGetErrorCode Pages: 1 -->
<svg width="454pt" height="161pt"
 viewBox="0.00 0.00 454.00 161.00" xmlns="http://www.w3.org/2000/svg" xmlns:xlink="http://www.w3.org/1999/xlink">
<g id="graph0" class="graph" transform="scale(1 1) rotate(0) translate(4 157)">
<title>modbusGetErrorCode</title>
<!-- Node1 -->
<g id="node1" class="node">
<title>Node1</title>
<g id="a_node1"><a xlink:title="Returns ModbusError contained in ModbusErrorInfo.">
<polygon fill="#bfbfbf" stroke="black" points="336,-76.5 336,-95.5 446,-95.5 446,-76.5 336,-76.5"/>
<text text-anchor="middle" x="391" y="-83.5" font-family="Helvetica,sans-Serif" font-size="10.00">modbusGetErrorCode</text>
</a>
</g>
</g>
<!-- Node2 -->
<g id="node2" class="node">
<title>Node2</title>
<g id="a_node2"><a xlink:href="base_8h.html#a84765449265aa5a31877b749f04cb568" target="_top" xlink:title="Returns general error from ModbusErrorInfo.">
<polygon fill="none" stroke="black" points="174,-133.5 174,-152.5 295,-152.5 295,-133.5 174,-133.5"/>
<text text-anchor="middle" x="234.5" y="-140.5" font-family="Helvetica,sans-Serif" font-size="10.00">modbusGetGeneralError</text>
</a>
</g>
</g>
<!-- Node1&#45;&gt;Node2 -->
<g id="edge1" class="edge">
<title>Node1&#45;&gt;Node2</title>
<path fill="none" stroke="midnightblue" d="M359.61,-99.84C342.32,-107.46 320.16,-116.8 300,-124 290.55,-127.38 280.16,-130.63 270.55,-133.46"/>
<polygon fill="midnightblue" stroke="midnightblue" points="361.46,-102.85 369.17,-95.59 358.61,-96.46 361.46,-102.85"/>
</g>
<!-- Node3 -->
<g id="node3" class="node">
<title>Node3</title>
<g id="a_node3"><a xlink:href="base_8h.html#a5c6f792a259423b2df55d8d49e91fd06" target="_top" xlink:title="Returns request error from ModbusErrorInfo.">
<polygon fill="none" stroke="black" points="173,-95.5 173,-114.5 296,-114.5 296,-95.5 173,-95.5"/>
<text text-anchor="middle" x="234.5" y="-102.5" font-family="Helvetica,sans-Serif" font-size="10.00">modbusGetRequestError</text>
</a>
</g>
</g>
<!-- Node1&#45;&gt;Node3 -->
<g id="edge2" class="edge">
<title>Node1&#45;&gt;Node3</title>
<path fill="none" stroke="midnightblue" d="M325.84,-93.89C316,-95.1 305.87,-96.35 296.11,-97.55"/>
<polygon fill="midnightblue" stroke="midnightblue" points="326.47,-97.34 335.96,-92.65 325.61,-90.39 326.47,-97.34"/>
</g>
<!-- Node4 -->
<g id="node4" class="node">
<title>Node4</title>
<g id="a_node4"><a xlink:href="base_8h.html#acbf9b7e6b679be88ce4e10ffb617d3e9" target="_top" xlink:title="Returns response error from ModbusErrorInfo.">
<polygon fill="none" stroke="black" points="169,-57.5 169,-76.5 300,-76.5 300,-57.5 169,-57.5"/>
<text text-anchor="middle" x="234.5" y="-64.5" font-family="Helvetica,sans-Serif" font-size="10.00">modbusGetResponseError</text>
</a>
</g>
</g>
<!-- Node1&#45;&gt;Node4 -->
<g id="edge3" class="edge">
<title>Node1&#45;&gt;Node4</title>
<path fill="none" stroke="midnightblue" d="M325.76,-78.1C317.29,-77.06 308.6,-75.99 300.12,-74.95"/>
<polygon fill="midnightblue" stroke="midnightblue" points="325.61,-81.61 335.96,-79.35 326.47,-74.66 325.61,-81.61"/>
</g>
<!-- Node5 -->
<g id="node5" class="node">
<title>Node5</title>
<g id="a_node5"><a xlink:href="base_8h.html#a64880e7075f445881485396f3aa869c5" target="_top" xlink:title="Checks if ModbusErrorInfo contains an error.">
<polygon fill="none" stroke="black" points="198.5,-19.5 198.5,-38.5 270.5,-38.5 270.5,-19.5 198.5,-19.5"/>
<text text-anchor="middle" x="234.5" y="-26.5" font-family="Helvetica,sans-Serif" font-size="10.00">modbusIsOk</text>
</a>
</g>
</g>
<!-- Node1&#45;&gt;Node5 -->
<g id="edge4" class="edge">
<title>Node1&#45;&gt;Node5</title>
<path fill="none" stroke="midnightblue" d="M359.61,-72.16C342.32,-64.54 320.16,-55.2 300,-48 290.55,-44.62 280.16,-41.37 270.55,-38.54"/>
<polygon fill="midnightblue" stroke="midnightblue" points="358.61,-75.54 369.17,-76.41 361.46,-69.15 358.61,-75.54"/>
</g>
<!-- Node6 -->
<g id="node6" class="node">
<title>Node6</title>
<g id="a_node6"><a xlink:href="slave_8h.html#a28b9fe2f4559cd0b1c39aff30099d591" target="_top" xlink:title="Parses provided Modbus RTU request frame and generates a Modbus RTU response.">
<polygon fill="none" stroke="black" points="0,-38.5 0,-57.5 133,-57.5 133,-38.5 0,-38.5"/>
<text text-anchor="middle" x="66.5" y="-45.5" font-family="Helvetica,sans-Serif" font-size="10.00">modbusParseRequestRTU</text>
</a>
</g>
</g>
<!-- Node5&#45;&gt;Node6 -->
<g id="edge5" class="edge">
<title>Node5&#45;&gt;Node6</title>
<path fill="none" stroke="midnightblue" d="M188.12,-34.19C171.17,-36.13 151.56,-38.38 133.14,-40.49"/>
<polygon fill="midnightblue" stroke="midnightblue" points="188.76,-37.64 198.3,-33.03 187.96,-30.69 188.76,-37.64"/>
</g>
<!-- Node7 -->
<g id="node7" class="node">
<title>Node7</title>
<g id="a_node7"><a xlink:href="slave_8h.html#a5ad3fe86aa14f8982d7c459c68cd8b3e" target="_top" xlink:title="Parses provided Modbus TCP request frame and generates a Modbus TCP response.">
<polygon fill="none" stroke="black" points="0.5,-0.5 0.5,-19.5 132.5,-19.5 132.5,-0.5 0.5,-0.5"/>
<text text-anchor="middle" x="66.5" y="-7.5" font-family="Helvetica,sans-Serif" font-size="10.00">modbusParseRequestTCP</text>
</a>
</g>
</g>
<!-- Node5&#45;&gt;Node7 -->
<g id="edge6" class="edge">
<title>Node5&#45;&gt;Node7</title>
<path fill="none" stroke="midnightblue" d="M188.07,-23.8C171.02,-21.85 151.3,-19.59 132.81,-17.48"/>
<polygon fill="midnightblue" stroke="midnightblue" points="187.96,-27.31 198.3,-24.97 188.76,-20.36 187.96,-27.31"/>
</g>
</g>
</svg>
