<?xml version="1.0" encoding="UTF-8" standalone="no"?>
<!DOCTYPE svg PUBLIC "-//W3C//DTD SVG 1.1//EN"
 "http://www.w3.org/Graphics/SVG/1.1/DTD/svg11.dtd">
<!-- Generated by graphviz version 2.44.0 ()
 -->
<!-- Title: include/lightmodbus/base.h Pages: 1 -->
<svg width="848pt" height="307pt"
 viewBox="0.00 0.00 848.04 307.00" xmlns="http://www.w3.org/2000/svg" xmlns:xlink="http://www.w3.org/1999/xlink">
<g id="graph0" class="graph" transform="scale(1 1) rotate(0) translate(4 303)">
<title>include/lightmodbus/base.h</title>
<!-- Node1 -->
<g id="node1" class="node">
<title>Node1</title>
<g id="a_node1"><a xlink:title=" ">
<polygon fill="#bfbfbf" stroke="black" points="381,-268.5 381,-298.5 484,-298.5 484,-268.5 381,-268.5"/>
<text text-anchor="start" x="389" y="-286.5" font-family="Helvetica,sans-Serif" font-size="10.00">include/lightmodbus</text>
<text text-anchor="middle" x="432.5" y="-275.5" font-family="Helvetica,sans-Serif" font-size="10.00">/base.h</text>
</a>
</g>
</g>
<!-- Node2 -->
<g id="node2" class="node">
<title>Node2</title>
<g id="a_node2"><a xlink:href="base_8impl_8h.html" target="_top" xlink:title=" ">
<polygon fill="none" stroke="black" points="0,-67.5 0,-97.5 103,-97.5 103,-67.5 0,-67.5"/>
<text text-anchor="start" x="8" y="-85.5" font-family="Helvetica,sans-Serif" font-size="10.00">include/lightmodbus</text>
<text text-anchor="middle" x="51.5" y="-74.5" font-family="Helvetica,sans-Serif" font-size="10.00">/base.impl.h</text>
</a>
</g>
</g>
<!-- Node1&#45;&gt;Node2 -->
<g id="edge1" class="edge">
<title>Node1&#45;&gt;Node2</title>
<path fill="none" stroke="midnightblue" d="M370.66,-269.62C337.07,-261.34 295.39,-248.93 260.5,-232 181.81,-193.82 100.78,-126.76 67.37,-97.65"/>
<polygon fill="midnightblue" stroke="midnightblue" points="370.26,-273.13 380.81,-272.06 371.9,-266.32 370.26,-273.13"/>
</g>
<!-- Node4 -->
<g id="node4" class="node">
<title>Node4</title>
<g id="a_node4"><a xlink:href="debug_8h.html" target="_top" xlink:title=" ">
<polygon fill="none" stroke="black" points="441,-134.5 441,-164.5 544,-164.5 544,-134.5 441,-134.5"/>
<text text-anchor="start" x="449" y="-152.5" font-family="Helvetica,sans-Serif" font-size="10.00">include/lightmodbus</text>
<text text-anchor="middle" x="492.5" y="-141.5" font-family="Helvetica,sans-Serif" font-size="10.00">/debug.h</text>
</a>
</g>
</g>
<!-- Node1&#45;&gt;Node4 -->
<g id="edge3" class="edge">
<title>Node1&#45;&gt;Node4</title>
<path fill="none" stroke="midnightblue" d="M443.13,-259.12C455.6,-231.68 475.87,-187.09 486.13,-164.52"/>
<polygon fill="midnightblue" stroke="midnightblue" points="439.87,-257.82 438.92,-268.37 446.25,-260.72 439.87,-257.82"/>
</g>
<!-- Node6 -->
<g id="node6" class="node">
<title>Node6</title>
<g id="a_node6"><a xlink:href="master_8h.html" target="_top" xlink:title=" ">
<polygon fill="none" stroke="black" points="301,-201.5 301,-231.5 404,-231.5 404,-201.5 301,-201.5"/>
<text text-anchor="start" x="309" y="-219.5" font-family="Helvetica,sans-Serif" font-size="10.00">include/lightmodbus</text>
<text text-anchor="middle" x="352.5" y="-208.5" font-family="Helvetica,sans-Serif" font-size="10.00">/master.h</text>
</a>
</g>
</g>
<!-- Node1&#45;&gt;Node6 -->
<g id="edge7" class="edge">
<title>Node1&#45;&gt;Node6</title>
<path fill="none" stroke="midnightblue" d="M407.13,-261.88C394.97,-252.01 380.72,-240.43 369.82,-231.58"/>
<polygon fill="midnightblue" stroke="midnightblue" points="405.17,-264.81 415.14,-268.4 409.59,-259.37 405.17,-264.81"/>
</g>
<!-- Node8 -->
<g id="node8" class="node">
<title>Node8</title>
<g id="a_node8"><a xlink:href="master__func_8h.html" target="_top" xlink:title=" ">
<polygon fill="none" stroke="black" points="183,-134.5 183,-164.5 286,-164.5 286,-134.5 183,-134.5"/>
<text text-anchor="start" x="191" y="-152.5" font-family="Helvetica,sans-Serif" font-size="10.00">include/lightmodbus</text>
<text text-anchor="middle" x="234.5" y="-141.5" font-family="Helvetica,sans-Serif" font-size="10.00">/master_func.h</text>
</a>
</g>
</g>
<!-- Node1&#45;&gt;Node8 -->
<g id="edge17" class="edge">
<title>Node1&#45;&gt;Node8</title>
<path fill="none" stroke="midnightblue" d="M370.94,-269.35C344.62,-261.59 314.68,-249.7 291.5,-232 267.62,-213.77 249.87,-182.67 240.95,-164.62"/>
<polygon fill="midnightblue" stroke="midnightblue" points="370.25,-272.8 380.83,-272.13 372.15,-266.06 370.25,-272.8"/>
</g>
<!-- Node10 -->
<g id="node10" class="node">
<title>Node10</title>
<g id="a_node10"><a xlink:href="slave_8h.html" target="_top" xlink:title=" ">
<polygon fill="none" stroke="black" points="521,-201.5 521,-231.5 624,-231.5 624,-201.5 521,-201.5"/>
<text text-anchor="start" x="529" y="-219.5" font-family="Helvetica,sans-Serif" font-size="10.00">include/lightmodbus</text>
<text text-anchor="middle" x="572.5" y="-208.5" font-family="Helvetica,sans-Serif" font-size="10.00">/slave.h</text>
</a>
</g>
</g>
<!-- Node1&#45;&gt;Node10 -->
<g id="edge18" class="edge">
<title>Node1&#45;&gt;Node10</title>
<path fill="none" stroke="midnightblue" d="M472.07,-264.13C494.31,-253.8 521.65,-241.11 542.18,-231.58"/>
<polygon fill="midnightblue" stroke="midnightblue" points="470.47,-261.01 462.88,-268.4 473.42,-267.36 470.47,-261.01"/>
</g>
<!-- Node13 -->
<g id="node13" class="node">
<title>Node13</title>
<g id="a_node13"><a xlink:href="slave__func_8h.html" target="_top" xlink:title=" ">
<polygon fill="none" stroke="black" points="682,-201.5 682,-231.5 785,-231.5 785,-201.5 682,-201.5"/>
<text text-anchor="start" x="690" y="-219.5" font-family="Helvetica,sans-Serif" font-size="10.00">include/lightmodbus</text>
<text text-anchor="middle" x="733.5" y="-208.5" font-family="Helvetica,sans-Serif" font-size="10.00">/slave_func.h</text>
</a>
</g>
</g>
<!-- Node1&#45;&gt;Node13 -->
<g id="edge25" class="edge">
<title>Node1&#45;&gt;Node13</title>
<path fill="none" stroke="midnightblue" d="M494.28,-269.16C549.65,-257.2 629.93,-239.87 681.93,-228.64"/>
<polygon fill="midnightblue" stroke="midnightblue" points="493.28,-265.79 484.24,-271.33 494.76,-272.64 493.28,-265.79"/>
</g>
<!-- Node3 -->
<g id="node3" class="node">
<title>Node3</title>
<g id="a_node3"><a xlink:href="lightmodbus_8h.html" target="_top" xlink:title=" ">
<polygon fill="none" stroke="black" points="441,-0.5 441,-30.5 544,-30.5 544,-0.5 441,-0.5"/>
<text text-anchor="start" x="449" y="-18.5" font-family="Helvetica,sans-Serif" font-size="10.00">include/lightmodbus</text>
<text text-anchor="middle" x="492.5" y="-7.5" font-family="Helvetica,sans-Serif" font-size="10.00">/lightmodbus.h</text>
</a>
</g>
</g>
<!-- Node2&#45;&gt;Node3 -->
<g id="edge2" class="edge">
<title>Node2&#45;&gt;Node3</title>
<path fill="none" stroke="midnightblue" d="M113.12,-67.79C114.6,-67.52 116.06,-67.26 117.5,-67 232.32,-46.69 368.2,-30.27 440.73,-22.1"/>
<polygon fill="midnightblue" stroke="midnightblue" points="112.45,-64.36 103.3,-69.7 113.78,-71.23 112.45,-64.36"/>
</g>
<!-- Node4&#45;&gt;Node3 -->
<g id="edge6" class="edge">
<title>Node4&#45;&gt;Node3</title>
<path fill="none" stroke="midnightblue" d="M527.02,-128.43C537.51,-120.42 547.77,-110.17 553.5,-98 559.36,-85.53 559.36,-79.47 553.5,-67 546.24,-51.57 531.71,-39.24 518.64,-30.63"/>
<polygon fill="midnightblue" stroke="midnightblue" points="524.78,-125.73 518.64,-134.37 528.82,-131.44 524.78,-125.73"/>
</g>
<!-- Node5 -->
<g id="node5" class="node">
<title>Node5</title>
<g id="a_node5"><a xlink:href="debug_8impl_8h.html" target="_top" xlink:title=" ">
<polygon fill="none" stroke="black" points="441,-67.5 441,-97.5 544,-97.5 544,-67.5 441,-67.5"/>
<text text-anchor="start" x="449" y="-85.5" font-family="Helvetica,sans-Serif" font-size="10.00">include/lightmodbus</text>
<text text-anchor="middle" x="492.5" y="-74.5" font-family="Helvetica,sans-Serif" font-size="10.00">/debug.impl.h</text>
</a>
</g>
</g>
<!-- Node4&#45;&gt;Node5 -->
<g id="edge4" class="edge">
<title>Node4&#45;&gt;Node5</title>
<path fill="none" stroke="midnightblue" d="M492.5,-124.11C492.5,-115.15 492.5,-105.32 492.5,-97.58"/>
<polygon fill="midnightblue" stroke="midnightblue" points="489,-124.4 492.5,-134.4 496,-124.4 489,-124.4"/>
</g>
<!-- Node5&#45;&gt;Node3 -->
<g id="edge5" class="edge">
<title>Node5&#45;&gt;Node3</title>
<path fill="none" stroke="midnightblue" d="M492.5,-57.11C492.5,-48.15 492.5,-38.32 492.5,-30.58"/>
<polygon fill="midnightblue" stroke="midnightblue" points="489,-57.4 492.5,-67.4 496,-57.4 489,-57.4"/>
</g>
<!-- Node6&#45;&gt;Node3 -->
<g id="edge8" class="edge">
<title>Node6&#45;&gt;Node3</title>
<path fill="none" stroke="midnightblue" d="M361.91,-191.88C374.86,-161.12 400.3,-106.6 432.5,-67 443.92,-52.95 459.67,-39.87 472.17,-30.54"/>
<polygon fill="midnightblue" stroke="midnightblue" points="358.58,-190.77 358,-201.34 365.05,-193.44 358.58,-190.77"/>
</g>
<!-- Node7 -->
<g id="node7" class="node">
<title>Node7</title>
<g id="a_node7"><a xlink:href="master_8impl_8h.html" target="_top" xlink:title=" ">
<polygon fill="none" stroke="black" points="160,-67.5 160,-97.5 263,-97.5 263,-67.5 160,-67.5"/>
<text text-anchor="start" x="168" y="-85.5" font-family="Helvetica,sans-Serif" font-size="10.00">include/lightmodbus</text>
<text text-anchor="middle" x="211.5" y="-74.5" font-family="Helvetica,sans-Serif" font-size="10.00">/master.impl.h</text>
</a>
</g>
</g>
<!-- Node6&#45;&gt;Node7 -->
<g id="edge9" class="edge">
<title>Node6&#45;&gt;Node7</title>
<path fill="none" stroke="midnightblue" d="M339.48,-192.24C328.93,-174.79 312.84,-151.07 294.5,-134 278.57,-119.18 257.62,-106.47 240.75,-97.51"/>
<polygon fill="midnightblue" stroke="midnightblue" points="336.67,-194.35 344.75,-201.2 342.7,-190.81 336.67,-194.35"/>
</g>
<!-- Node6&#45;&gt;Node8 -->
<g id="edge11" class="edge">
<title>Node6&#45;&gt;Node8</title>
<path fill="none" stroke="midnightblue" d="M317.89,-196.44C299.38,-186.24 276.98,-173.9 260.05,-164.58"/>
<polygon fill="midnightblue" stroke="midnightblue" points="316.45,-199.64 326.9,-201.4 319.83,-193.51 316.45,-199.64"/>
</g>
<!-- Node9 -->
<g id="node9" class="node">
<title>Node9</title>
<g id="a_node9"><a xlink:href="master__func_8impl_8h.html" target="_top" xlink:title=" ">
<polygon fill="none" stroke="black" points="281,-67.5 281,-97.5 384,-97.5 384,-67.5 281,-67.5"/>
<text text-anchor="start" x="289" y="-85.5" font-family="Helvetica,sans-Serif" font-size="10.00">include/lightmodbus</text>
<text text-anchor="middle" x="332.5" y="-74.5" font-family="Helvetica,sans-Serif" font-size="10.00">/master_func.impl.h</text>
</a>
</g>
</g>
<!-- Node6&#45;&gt;Node9 -->
<g id="edge16" class="edge">
<title>Node6&#45;&gt;Node9</title>
<path fill="none" stroke="midnightblue" d="M348.85,-191.39C344.68,-163.9 338.01,-119.89 334.62,-97.52"/>
<polygon fill="midnightblue" stroke="midnightblue" points="345.4,-192.01 350.36,-201.37 352.32,-190.96 345.4,-192.01"/>
</g>
<!-- Node7&#45;&gt;Node3 -->
<g id="edge10" class="edge">
<title>Node7&#45;&gt;Node3</title>
<path fill="none" stroke="midnightblue" d="M273.28,-66.6C336.05,-51.88 398.12,-37.76 440.66,-28.15"/>
<polygon fill="midnightblue" stroke="midnightblue" points="272.14,-63.27 263.2,-68.96 273.74,-70.08 272.14,-63.27"/>
</g>
<!-- Node8&#45;&gt;Node3 -->
<g id="edge12" class="edge">
<title>Node8&#45;&gt;Node3</title>
<path fill="none" stroke="midnightblue" d="M192.42,-129.72C162.45,-113.79 130.71,-89.93 150.5,-67 187.36,-24.29 354.53,-17.08 440.73,-16.26"/>
<polygon fill="midnightblue" stroke="midnightblue" points="191.11,-132.98 201.61,-134.41 194.29,-126.75 191.11,-132.98"/>
</g>
<!-- Node8&#45;&gt;Node7 -->
<g id="edge13" class="edge">
<title>Node8&#45;&gt;Node7</title>
<path fill="none" stroke="midnightblue" d="M226.08,-124.7C222.85,-115.59 219.28,-105.49 216.48,-97.58"/>
<polygon fill="midnightblue" stroke="midnightblue" points="222.87,-126.14 229.51,-134.4 229.47,-123.8 222.87,-126.14"/>
</g>
<!-- Node8&#45;&gt;Node9 -->
<g id="edge14" class="edge">
<title>Node8&#45;&gt;Node9</title>
<path fill="none" stroke="midnightblue" d="M264.3,-128.73C279.47,-118.68 297.54,-106.68 311.28,-97.58"/>
<polygon fill="midnightblue" stroke="midnightblue" points="262.16,-125.95 255.76,-134.4 266.03,-131.79 262.16,-125.95"/>
</g>
<!-- Node9&#45;&gt;Node3 -->
<g id="edge15" class="edge">
<title>Node9&#45;&gt;Node3</title>
<path fill="none" stroke="midnightblue" d="M376.7,-63.54C402.3,-53.14 434.07,-40.24 457.85,-30.58"/>
<polygon fill="midnightblue" stroke="midnightblue" points="375.16,-60.39 367.22,-67.4 377.8,-66.87 375.16,-60.39"/>
</g>
<!-- Node10&#45;&gt;Node3 -->
<g id="edge20" class="edge">
<title>Node10&#45;&gt;Node3</title>
<path fill="none" stroke="midnightblue" d="M578.51,-191.39C584.83,-160.47 591.16,-106.16 569.5,-67 560.45,-50.63 543.58,-38.68 527.94,-30.52"/>
<polygon fill="midnightblue" stroke="midnightblue" points="575.06,-190.77 576.32,-201.29 581.9,-192.28 575.06,-190.77"/>
</g>
<!-- Node10&#45;&gt;Node4 -->
<g id="edge19" class="edge">
<title>Node10&#45;&gt;Node4</title>
<path fill="none" stroke="midnightblue" d="M547.13,-194.88C534.97,-185.01 520.72,-173.43 509.82,-164.58"/>
<polygon fill="midnightblue" stroke="midnightblue" points="545.17,-197.81 555.14,-201.4 549.59,-192.37 545.17,-197.81"/>
</g>
<!-- Node11 -->
<g id="node11" class="node">
<title>Node11</title>
<g id="a_node11"><a xlink:href="slave_8impl_8h.html" target="_top" xlink:title=" ">
<polygon fill="none" stroke="black" points="601,-134.5 601,-164.5 704,-164.5 704,-134.5 601,-134.5"/>
<text text-anchor="start" x="609" y="-152.5" font-family="Helvetica,sans-Serif" font-size="10.00">include/lightmodbus</text>
<text text-anchor="middle" x="652.5" y="-141.5" font-family="Helvetica,sans-Serif" font-size="10.00">/slave.impl.h</text>
</a>
</g>
</g>
<!-- Node10&#45;&gt;Node11 -->
<g id="edge21" class="edge">
<title>Node10&#45;&gt;Node11</title>
<path fill="none" stroke="midnightblue" d="M597.87,-194.88C610.03,-185.01 624.28,-173.43 635.18,-164.58"/>
<polygon fill="midnightblue" stroke="midnightblue" points="595.41,-192.37 589.86,-201.4 599.83,-197.81 595.41,-192.37"/>
</g>
<!-- Node12 -->
<g id="node12" class="node">
<title>Node12</title>
<g id="a_node12"><a xlink:href="slave__func_8impl_8h.html" target="_top" xlink:title=" ">
<polygon fill="none" stroke="black" points="722,-134.5 722,-164.5 825,-164.5 825,-134.5 722,-134.5"/>
<text text-anchor="start" x="730" y="-152.5" font-family="Helvetica,sans-Serif" font-size="10.00">include/lightmodbus</text>
<text text-anchor="middle" x="773.5" y="-141.5" font-family="Helvetica,sans-Serif" font-size="10.00">/slave_func.impl.h</text>
</a>
</g>
</g>
<!-- Node10&#45;&gt;Node12 -->
<g id="edge23" class="edge">
<title>Node10&#45;&gt;Node12</title>
<path fill="none" stroke="midnightblue" d="M625.91,-198.23C658.43,-187.71 699.44,-174.45 729.97,-164.58"/>
<polygon fill="midnightblue" stroke="midnightblue" points="624.55,-194.99 616.11,-201.4 626.71,-201.65 624.55,-194.99"/>
</g>
<!-- Node11&#45;&gt;Node3 -->
<g id="edge22" class="edge">
<title>Node11&#45;&gt;Node3</title>
<path fill="none" stroke="midnightblue" d="M649.7,-124.23C646.45,-106.33 639.46,-82.49 624.5,-67 603.19,-44.94 571.22,-32.38 544.08,-25.31"/>
<polygon fill="midnightblue" stroke="midnightblue" points="646.26,-124.88 651.25,-134.22 653.18,-123.81 646.26,-124.88"/>
</g>
<!-- Node12&#45;&gt;Node3 -->
<g id="edge24" class="edge">
<title>Node12&#45;&gt;Node3</title>
<path fill="none" stroke="midnightblue" d="M746.8,-128.51C721.87,-110.55 683.12,-84.4 646.5,-67 613.59,-51.36 574.57,-38.62 544.04,-29.85"/>
<polygon fill="midnightblue" stroke="midnightblue" points="744.87,-131.43 755.02,-134.49 748.99,-125.77 744.87,-131.43"/>
</g>
<!-- Node13&#45;&gt;Node3 -->
<g id="edge26" class="edge">
<title>Node13&#45;&gt;Node3</title>
<path fill="none" stroke="midnightblue" d="M794.42,-198.13C810.17,-190.57 825.28,-179.92 834.5,-165 841.74,-153.28 841.95,-145.59 834.5,-134 772.18,-37.11 623.48,-18.75 544.26,-16.12"/>
<polygon fill="midnightblue" stroke="midnightblue" points="792.85,-194.99 785.11,-202.23 795.67,-201.4 792.85,-194.99"/>
</g>
<!-- Node13&#45;&gt;Node11 -->
<g id="edge27" class="edge">
<title>Node13&#45;&gt;Node11</title>
<path fill="none" stroke="midnightblue" d="M707.81,-194.88C695.5,-185.01 681.07,-173.43 670.04,-164.58"/>
<polygon fill="midnightblue" stroke="midnightblue" points="705.93,-197.87 715.92,-201.4 710.32,-192.41 705.93,-197.87"/>
</g>
<!-- Node13&#45;&gt;Node12 -->
<g id="edge28" class="edge">
<title>Node13&#45;&gt;Node12</title>
<path fill="none" stroke="midnightblue" d="M747.43,-192.87C753.22,-183.46 759.76,-172.83 764.84,-164.58"/>
<polygon fill="midnightblue" stroke="midnightblue" points="744.44,-191.05 742.18,-201.4 750.4,-194.71 744.44,-191.05"/>
</g>
</g>
</svg>
