<?xml version="1.0" encoding="UTF-8" standalone="no"?>
<!DOCTYPE svg PUBLIC "-//W3C//DTD SVG 1.1//EN"
 "http://www.w3.org/Graphics/SVG/1.1/DTD/svg11.dtd">
<!-- Generated by graphviz version 2.44.0 ()
 -->
<!-- Title: modbusWLE Pages: 1 -->
<svg width="249pt" height="66pt"
 viewBox="0.00 0.00 249.00 66.00" xmlns="http://www.w3.org/2000/svg" xmlns:xlink="http://www.w3.org/1999/xlink">
<g id="graph0" class="graph" transform="scale(1 1) rotate(0) translate(4 62)">
<title>modbusWLE</title>
<!-- Node1 -->
<g id="node1" class="node">
<title>Node1</title>
<g id="a_node1"><a xlink:title="Safely writes a little&#45;endian 16&#45;bit word to provided pointer.">
<polygon fill="#bfbfbf" stroke="black" points="169,-19.5 169,-38.5 241,-38.5 241,-19.5 169,-19.5"/>
<text text-anchor="middle" x="205" y="-26.5" font-family="Helvetica,sans-Serif" font-size="10.00">modbusWLE</text>
</a>
</g>
</g>
<!-- Node2 -->
<g id="node2" class="node">
<title>Node2</title>
<g id="a_node2"><a xlink:href="master_8h.html#a4623d6d41d5e4a148e399fe19051183c" target="_top" xlink:title="Finalizes a Modbus RTU request.">
<polygon fill="none" stroke="black" points="4.5,-38.5 4.5,-57.5 128.5,-57.5 128.5,-38.5 4.5,-38.5"/>
<text text-anchor="middle" x="66.5" y="-45.5" font-family="Helvetica,sans-Serif" font-size="10.00">modbusEndRequestRTU</text>
</a>
</g>
</g>
<!-- Node1&#45;&gt;Node2 -->
<g id="edge1" class="edge">
<title>Node1&#45;&gt;Node2</title>
<path fill="none" stroke="midnightblue" d="M158.74,-35.3C149.13,-36.64 138.84,-38.07 128.75,-39.47"/>
<polygon fill="midnightblue" stroke="midnightblue" points="159.43,-38.74 168.85,-33.89 158.46,-31.81 159.43,-38.74"/>
</g>
<!-- Node3 -->
<g id="node3" class="node">
<title>Node3</title>
<g id="a_node3"><a xlink:href="slave_8h.html#a28b9fe2f4559cd0b1c39aff30099d591" target="_top" xlink:title="Parses provided Modbus RTU request frame and generates a Modbus RTU response.">
<polygon fill="none" stroke="black" points="0,-0.5 0,-19.5 133,-19.5 133,-0.5 0,-0.5"/>
<text text-anchor="middle" x="66.5" y="-7.5" font-family="Helvetica,sans-Serif" font-size="10.00">modbusParseRequestRTU</text>
</a>
</g>
</g>
<!-- Node1&#45;&gt;Node3 -->
<g id="edge2" class="edge">
<title>Node1&#45;&gt;Node3</title>
<path fill="none" stroke="midnightblue" d="M158.71,-22.7C150.46,-21.55 141.71,-20.33 133.01,-19.12"/>
<polygon fill="midnightblue" stroke="midnightblue" points="158.46,-26.19 168.85,-24.11 159.43,-19.26 158.46,-26.19"/>
</g>
</g>
</svg>
