<?xml version="1.0" encoding="UTF-8" standalone="no"?>
<!DOCTYPE svg PUBLIC "-//W3C//DTD SVG 1.1//EN"
 "http://www.w3.org/Graphics/SVG/1.1/DTD/svg11.dtd">
<!-- Generated by graphviz version 2.44.0 ()
 -->
<!-- Title: modbusRBE Pages: 1 -->
<svg width="277pt" height="294pt"
 viewBox="0.00 0.00 277.00 294.00" xmlns="http://www.w3.org/2000/svg" xmlns:xlink="http://www.w3.org/1999/xlink">
<g id="graph0" class="graph" transform="scale(1 1) rotate(0) translate(4 290)">
<title>modbusRBE</title>
<!-- Node1 -->
<g id="node1" class="node">
<title>Node1</title>
<g id="a_node1"><a xlink:title="Safely reads a big&#45;endian 16&#45;bit word from provided pointer.">
<polygon fill="#bfbfbf" stroke="black" points="198,-133.5 198,-152.5 269,-152.5 269,-133.5 198,-133.5"/>
<text text-anchor="middle" x="233.5" y="-140.5" font-family="Helvetica,sans-Serif" font-size="10.00">modbusRBE</text>
</a>
</g>
</g>
<!-- Node2 -->
<g id="node2" class="node">
<title>Node2</title>
<g id="a_node2"><a xlink:href="slave__func_8h.html#aff8edb5d03d53414296edee03a83691a" target="_top" xlink:title="Handles requests 01, 02, 03 and 04 (Read Multiple XX) and generates response.">
<polygon fill="none" stroke="black" points="3.5,-266.5 3.5,-285.5 158.5,-285.5 158.5,-266.5 3.5,-266.5"/>
<text text-anchor="middle" x="81" y="-273.5" font-family="Helvetica,sans-Serif" font-size="10.00">modbusParseRequest01020304</text>
</a>
</g>
</g>
<!-- Node1&#45;&gt;Node2 -->
<g id="edge1" class="edge">
<title>Node1&#45;&gt;Node2</title>
<path fill="none" stroke="midnightblue" d="M225.86,-162.47C216.05,-188.2 195.19,-233.05 162,-257 156.67,-260.84 150.68,-263.92 144.43,-266.38"/>
<polygon fill="midnightblue" stroke="midnightblue" points="229.27,-163.33 229.39,-152.74 222.69,-160.94 229.27,-163.33"/>
</g>
<!-- Node3 -->
<g id="node3" class="node">
<title>Node3</title>
<g id="a_node3"><a xlink:href="slave__func_8h.html#ad3a342d423dbc1142cd509768ac986e7" target="_top" xlink:title="Handles requests 05 and 06 (Write Single XX) and generates response.">
<polygon fill="none" stroke="black" points="14,-228.5 14,-247.5 148,-247.5 148,-228.5 14,-228.5"/>
<text text-anchor="middle" x="81" y="-235.5" font-family="Helvetica,sans-Serif" font-size="10.00">modbusParseRequest0506</text>
</a>
</g>
</g>
<!-- Node1&#45;&gt;Node3 -->
<g id="edge2" class="edge">
<title>Node1&#45;&gt;Node3</title>
<path fill="none" stroke="midnightblue" d="M220.71,-160.9C208.22,-178.4 186.89,-204.48 162,-219 155.34,-222.88 147.93,-225.97 140.39,-228.43"/>
<polygon fill="midnightblue" stroke="midnightblue" points="223.61,-162.85 226.41,-152.63 217.85,-158.88 223.61,-162.85"/>
</g>
<!-- Node4 -->
<g id="node4" class="node">
<title>Node4</title>
<g id="a_node4"><a xlink:href="slave__func_8h.html#a50a1e72594d7aec7101698bf9089b4de" target="_top" xlink:title="Handles requests 15 and 16 (Write Multiple XX) and generates response.">
<polygon fill="none" stroke="black" points="14,-190.5 14,-209.5 148,-209.5 148,-190.5 14,-190.5"/>
<text text-anchor="middle" x="81" y="-197.5" font-family="Helvetica,sans-Serif" font-size="10.00">modbusParseRequest1516</text>
</a>
</g>
</g>
<!-- Node1&#45;&gt;Node4 -->
<g id="edge3" class="edge">
<title>Node1&#45;&gt;Node4</title>
<path fill="none" stroke="midnightblue" d="M208.43,-158.01C195.14,-165.77 178.1,-174.87 162,-181 152.26,-184.71 141.57,-187.85 131.26,-190.44"/>
<polygon fill="midnightblue" stroke="midnightblue" points="210.59,-160.8 217.37,-152.66 206.99,-154.79 210.59,-160.8"/>
</g>
<!-- Node5 -->
<g id="node5" class="node">
<title>Node5</title>
<g id="a_node5"><a xlink:href="slave__func_8h.html#a6495bc98691e5e944456bcc222d6ec63" target="_top" xlink:title="Handles request 22 (Mask Write Register) and generates response.">
<polygon fill="none" stroke="black" points="19.5,-152.5 19.5,-171.5 142.5,-171.5 142.5,-152.5 19.5,-152.5"/>
<text text-anchor="middle" x="81" y="-159.5" font-family="Helvetica,sans-Serif" font-size="10.00">modbusParseRequest22</text>
</a>
</g>
</g>
<!-- Node1&#45;&gt;Node5 -->
<g id="edge4" class="edge">
<title>Node1&#45;&gt;Node5</title>
<path fill="none" stroke="midnightblue" d="M187.98,-148.62C173.77,-150.41 157.8,-152.43 142.65,-154.34"/>
<polygon fill="midnightblue" stroke="midnightblue" points="188.49,-152.08 197.97,-147.36 187.61,-145.14 188.49,-152.08"/>
</g>
<!-- Node6 -->
<g id="node6" class="node">
<title>Node6</title>
<g id="a_node6"><a xlink:href="slave_8h.html#a11f5dfe3b6a3f37ca7c7eb179ca75864" target="_top" xlink:title="Parses provided Modbus TCP request frame and generates a Modbus TCP response.">
<polygon fill="none" stroke="black" points="15,-114.5 15,-133.5 147,-133.5 147,-114.5 15,-114.5"/>
<text text-anchor="middle" x="81" y="-121.5" font-family="Helvetica,sans-Serif" font-size="10.00">modbusParseRequestTCP</text>
</a>
</g>
</g>
<!-- Node1&#45;&gt;Node6 -->
<g id="edge5" class="edge">
<title>Node1&#45;&gt;Node6</title>
<path fill="none" stroke="midnightblue" d="M188.04,-137.39C175.21,-135.77 160.95,-133.97 147.15,-132.23"/>
<polygon fill="midnightblue" stroke="midnightblue" points="187.61,-140.86 197.97,-138.64 188.49,-133.92 187.61,-140.86"/>
</g>
<!-- Node7 -->
<g id="node7" class="node">
<title>Node7</title>
<g id="a_node7"><a xlink:href="master__func_8h.html#acf15843f080ad8ac8f4d095b5556d19b" target="_top" xlink:title="Parses response to requests 01, 02, 03 and 04.">
<polygon fill="none" stroke="black" points="0,-76.5 0,-95.5 162,-95.5 162,-76.5 0,-76.5"/>
<text text-anchor="middle" x="81" y="-83.5" font-family="Helvetica,sans-Serif" font-size="10.00">modbusParseResponse01020304</text>
</a>
</g>
</g>
<!-- Node1&#45;&gt;Node7 -->
<g id="edge6" class="edge">
<title>Node1&#45;&gt;Node7</title>
<path fill="none" stroke="midnightblue" d="M208.43,-127.99C195.14,-120.23 178.1,-111.13 162,-105 152.26,-101.29 141.57,-98.15 131.26,-95.56"/>
<polygon fill="midnightblue" stroke="midnightblue" points="206.99,-131.21 217.37,-133.34 210.59,-125.2 206.99,-131.21"/>
</g>
<!-- Node8 -->
<g id="node8" class="node">
<title>Node8</title>
<g id="a_node8"><a xlink:href="master__func_8h.html#afeaddc62f81c2cb558048140e110e942" target="_top" xlink:title="Parses response to requests 15 and 16.">
<polygon fill="none" stroke="black" points="10.5,-38.5 10.5,-57.5 151.5,-57.5 151.5,-38.5 10.5,-38.5"/>
<text text-anchor="middle" x="81" y="-45.5" font-family="Helvetica,sans-Serif" font-size="10.00">modbusParseResponse1516</text>
</a>
</g>
</g>
<!-- Node1&#45;&gt;Node8 -->
<g id="edge7" class="edge">
<title>Node1&#45;&gt;Node8</title>
<path fill="none" stroke="midnightblue" d="M220.71,-125.1C208.22,-107.6 186.89,-81.52 162,-67 155.34,-63.12 147.93,-60.03 140.39,-57.57"/>
<polygon fill="midnightblue" stroke="midnightblue" points="217.85,-127.12 226.41,-133.37 223.61,-123.15 217.85,-127.12"/>
</g>
<!-- Node9 -->
<g id="node9" class="node">
<title>Node9</title>
<g id="a_node9"><a xlink:href="master_8h.html#a53ea67c733b1e627e1cdcb0003270a1b" target="_top" xlink:title="Parses a Modbus TCP slave response.">
<polygon fill="none" stroke="black" points="11,-0.5 11,-19.5 151,-19.5 151,-0.5 11,-0.5"/>
<text text-anchor="middle" x="81" y="-7.5" font-family="Helvetica,sans-Serif" font-size="10.00">modbusParseResponseTCP</text>
</a>
</g>
</g>
<!-- Node1&#45;&gt;Node9 -->
<g id="edge8" class="edge">
<title>Node1&#45;&gt;Node9</title>
<path fill="none" stroke="midnightblue" d="M225.86,-123.53C216.05,-97.8 195.19,-52.95 162,-29 156.67,-25.16 150.68,-22.08 144.43,-19.62"/>
<polygon fill="midnightblue" stroke="midnightblue" points="222.69,-125.06 229.39,-133.26 229.27,-122.67 222.69,-125.06"/>
</g>
</g>
</svg>
