<?xml version="1.0" encoding="UTF-8" standalone="no"?>
<!DOCTYPE svg PUBLIC "-//W3C//DTD SVG 1.1//EN"
 "http://www.w3.org/Graphics/SVG/1.1/DTD/svg11.dtd">
<!-- Generated by graphviz version 2.44.0 ()
 -->
<!-- Title: modbusRBE Pages: 1 -->
<svg width="453pt" height="313pt"
 viewBox="0.00 0.00 453.00 313.00" xmlns="http://www.w3.org/2000/svg" xmlns:xlink="http://www.w3.org/1999/xlink">
<g id="graph0" class="graph" transform="scale(1 1) rotate(0) translate(4 309)">
<title>modbusRBE</title>
<!-- Node1 -->
<g id="node1" class="node">
<title>Node1</title>
<g id="a_node1"><a xlink:title="Safely reads a big&#45;endian 16&#45;bit word from provided pointer.">
<polygon fill="#bfbfbf" stroke="black" points="374,-152.5 374,-171.5 445,-171.5 445,-152.5 374,-152.5"/>
<text text-anchor="middle" x="409.5" y="-159.5" font-family="Helvetica,sans-Serif" font-size="10.00">modbusRBE</text>
</a>
</g>
</g>
<!-- Node2 -->
<g id="node2" class="node">
<title>Node2</title>
<g id="a_node2"><a xlink:href="slave__func_8h.html#aaff57f2a5c6a8e6c77d36c5dc7e48cfa" target="_top" xlink:title="Handles requests 01, 02, 03 and 04 (Read Multiple XX) and generates response.">
<polygon fill="none" stroke="black" points="179.5,-285.5 179.5,-304.5 334.5,-304.5 334.5,-285.5 179.5,-285.5"/>
<text text-anchor="middle" x="257" y="-292.5" font-family="Helvetica,sans-Serif" font-size="10.00">modbusParseRequest01020304</text>
</a>
</g>
</g>
<!-- Node1&#45;&gt;Node2 -->
<g id="edge1" class="edge">
<title>Node1&#45;&gt;Node2</title>
<path fill="none" stroke="midnightblue" d="M401.86,-181.47C392.05,-207.2 371.19,-252.05 338,-276 332.67,-279.84 326.68,-282.92 320.43,-285.38"/>
<polygon fill="midnightblue" stroke="midnightblue" points="405.27,-182.33 405.39,-171.74 398.69,-179.94 405.27,-182.33"/>
</g>
<!-- Node3 -->
<g id="node3" class="node">
<title>Node3</title>
<g id="a_node3"><a xlink:href="slave__func_8h.html#a236881fe30a95d4cc9b031a9e24ae2a8" target="_top" xlink:title="Handles requests 05 and 06 (Write Single XX) and generates response.">
<polygon fill="none" stroke="black" points="190,-247.5 190,-266.5 324,-266.5 324,-247.5 190,-247.5"/>
<text text-anchor="middle" x="257" y="-254.5" font-family="Helvetica,sans-Serif" font-size="10.00">modbusParseRequest0506</text>
</a>
</g>
</g>
<!-- Node1&#45;&gt;Node3 -->
<g id="edge2" class="edge">
<title>Node1&#45;&gt;Node3</title>
<path fill="none" stroke="midnightblue" d="M396.71,-179.9C384.22,-197.4 362.89,-223.48 338,-238 331.34,-241.88 323.93,-244.97 316.39,-247.43"/>
<polygon fill="midnightblue" stroke="midnightblue" points="399.61,-181.85 402.41,-171.63 393.85,-177.88 399.61,-181.85"/>
</g>
<!-- Node4 -->
<g id="node4" class="node">
<title>Node4</title>
<g id="a_node4"><a xlink:href="slave__func_8h.html#a0cb2a7bf59d4014088e1ce1c61523071" target="_top" xlink:title="Handles requests 15 and 16 (Write Multiple XX) and generates response.">
<polygon fill="none" stroke="black" points="190,-209.5 190,-228.5 324,-228.5 324,-209.5 190,-209.5"/>
<text text-anchor="middle" x="257" y="-216.5" font-family="Helvetica,sans-Serif" font-size="10.00">modbusParseRequest1516</text>
</a>
</g>
</g>
<!-- Node1&#45;&gt;Node4 -->
<g id="edge3" class="edge">
<title>Node1&#45;&gt;Node4</title>
<path fill="none" stroke="midnightblue" d="M384.43,-177.01C371.14,-184.77 354.1,-193.87 338,-200 328.26,-203.71 317.57,-206.85 307.26,-209.44"/>
<polygon fill="midnightblue" stroke="midnightblue" points="386.59,-179.8 393.37,-171.66 382.99,-173.79 386.59,-179.8"/>
</g>
<!-- Node5 -->
<g id="node5" class="node">
<title>Node5</title>
<g id="a_node5"><a xlink:href="slave__func_8h.html#a814f041d9acfa578998b8ce8fe53815c" target="_top" xlink:title="Handles request 22 (Mask Write Register) and generates response.">
<polygon fill="none" stroke="black" points="195.5,-171.5 195.5,-190.5 318.5,-190.5 318.5,-171.5 195.5,-171.5"/>
<text text-anchor="middle" x="257" y="-178.5" font-family="Helvetica,sans-Serif" font-size="10.00">modbusParseRequest22</text>
</a>
</g>
</g>
<!-- Node1&#45;&gt;Node5 -->
<g id="edge4" class="edge">
<title>Node1&#45;&gt;Node5</title>
<path fill="none" stroke="midnightblue" d="M363.98,-167.62C349.77,-169.41 333.8,-171.43 318.65,-173.34"/>
<polygon fill="midnightblue" stroke="midnightblue" points="364.49,-171.08 373.97,-166.36 363.61,-164.14 364.49,-171.08"/>
</g>
<!-- Node6 -->
<g id="node6" class="node">
<title>Node6</title>
<g id="a_node6"><a xlink:href="master__func_8h.html#adafbaa72d4df36b3577ce5494b460a2b" target="_top" xlink:title="Parses response to requests 01, 02, 03 and 04.">
<polygon fill="none" stroke="black" points="176,-133.5 176,-152.5 338,-152.5 338,-133.5 176,-133.5"/>
<text text-anchor="middle" x="257" y="-140.5" font-family="Helvetica,sans-Serif" font-size="10.00">modbusParseResponse01020304</text>
</a>
</g>
</g>
<!-- Node1&#45;&gt;Node6 -->
<g id="edge5" class="edge">
<title>Node1&#45;&gt;Node6</title>
<path fill="none" stroke="midnightblue" d="M363.9,-156.37C354.29,-155.16 343.88,-153.84 333.46,-152.53"/>
<polygon fill="midnightblue" stroke="midnightblue" points="363.61,-159.86 373.97,-157.64 364.49,-152.92 363.61,-159.86"/>
</g>
<!-- Node7 -->
<g id="node7" class="node">
<title>Node7</title>
<g id="a_node7"><a xlink:href="master__func_8h.html#a1a105f7339569601abe367a3254d38dc" target="_top" xlink:title="Parses response to requests 05 and 06.">
<polygon fill="none" stroke="black" points="186.5,-95.5 186.5,-114.5 327.5,-114.5 327.5,-95.5 186.5,-95.5"/>
<text text-anchor="middle" x="257" y="-102.5" font-family="Helvetica,sans-Serif" font-size="10.00">modbusParseResponse0506</text>
</a>
</g>
</g>
<!-- Node1&#45;&gt;Node7 -->
<g id="edge6" class="edge">
<title>Node1&#45;&gt;Node7</title>
<path fill="none" stroke="midnightblue" d="M384.43,-146.99C371.14,-139.23 354.1,-130.13 338,-124 328.26,-120.29 317.57,-117.15 307.26,-114.56"/>
<polygon fill="midnightblue" stroke="midnightblue" points="382.99,-150.21 393.37,-152.34 386.59,-144.2 382.99,-150.21"/>
</g>
<!-- Node8 -->
<g id="node8" class="node">
<title>Node8</title>
<g id="a_node8"><a xlink:href="master__func_8h.html#a0c53ade25c249f6aeed8c877b98f8016" target="_top" xlink:title="Parses response to requests 15 and 16 (write mutliple regsiters/coils)">
<polygon fill="none" stroke="black" points="186.5,-57.5 186.5,-76.5 327.5,-76.5 327.5,-57.5 186.5,-57.5"/>
<text text-anchor="middle" x="257" y="-64.5" font-family="Helvetica,sans-Serif" font-size="10.00">modbusParseResponse1516</text>
</a>
</g>
</g>
<!-- Node1&#45;&gt;Node8 -->
<g id="edge7" class="edge">
<title>Node1&#45;&gt;Node8</title>
<path fill="none" stroke="midnightblue" d="M396.71,-144.1C384.22,-126.6 362.89,-100.52 338,-86 331.34,-82.12 323.93,-79.03 316.39,-76.57"/>
<polygon fill="midnightblue" stroke="midnightblue" points="393.85,-146.12 402.41,-152.37 399.61,-142.15 393.85,-146.12"/>
</g>
<!-- Node9 -->
<g id="node9" class="node">
<title>Node9</title>
<g id="a_node9"><a xlink:href="base_8h.html#a616e5bdb5ebcd57b1604421f6ca22bc9" target="_top" xlink:title="Unpacks data from a Modbus TCP frame.">
<polygon fill="none" stroke="black" points="205,-19.5 205,-38.5 309,-38.5 309,-19.5 205,-19.5"/>
<text text-anchor="middle" x="257" y="-26.5" font-family="Helvetica,sans-Serif" font-size="10.00">modbusUnpackTCP</text>
</a>
</g>
</g>
<!-- Node1&#45;&gt;Node9 -->
<g id="edge8" class="edge">
<title>Node1&#45;&gt;Node9</title>
<path fill="none" stroke="midnightblue" d="M401.86,-142.53C392.05,-116.8 371.19,-71.95 338,-48 329.55,-41.9 319.41,-37.74 309.24,-34.9"/>
<polygon fill="midnightblue" stroke="midnightblue" points="398.69,-144.06 405.39,-152.26 405.27,-141.67 398.69,-144.06"/>
</g>
<!-- Node10 -->
<g id="node10" class="node">
<title>Node10</title>
<g id="a_node10"><a xlink:href="slave_8h.html#a5ad3fe86aa14f8982d7c459c68cd8b3e" target="_top" xlink:title="Parses provided Modbus TCP request frame and generates a Modbus TCP response.">
<polygon fill="none" stroke="black" points="4,-38.5 4,-57.5 136,-57.5 136,-38.5 4,-38.5"/>
<text text-anchor="middle" x="70" y="-45.5" font-family="Helvetica,sans-Serif" font-size="10.00">modbusParseRequestTCP</text>
</a>
</g>
</g>
<!-- Node9&#45;&gt;Node10 -->
<g id="edge9" class="edge">
<title>Node9&#45;&gt;Node10</title>
<path fill="none" stroke="midnightblue" d="M195,-35.27C176.12,-37.2 155.26,-39.35 136.12,-41.31"/>
<polygon fill="midnightblue" stroke="midnightblue" points="195.37,-38.75 204.96,-34.24 194.65,-31.78 195.37,-38.75"/>
</g>
<!-- Node11 -->
<g id="node11" class="node">
<title>Node11</title>
<g id="a_node11"><a xlink:href="master_8h.html#a53ea67c733b1e627e1cdcb0003270a1b" target="_top" xlink:title="Parses a Modbus TCP slave response.">
<polygon fill="none" stroke="black" points="0,-0.5 0,-19.5 140,-19.5 140,-0.5 0,-0.5"/>
<text text-anchor="middle" x="70" y="-7.5" font-family="Helvetica,sans-Serif" font-size="10.00">modbusParseResponseTCP</text>
</a>
</g>
</g>
<!-- Node9&#45;&gt;Node11 -->
<g id="edge10" class="edge">
<title>Node9&#45;&gt;Node11</title>
<path fill="none" stroke="midnightblue" d="M194.87,-22.72C177.37,-20.92 158.18,-18.95 140.23,-17.11"/>
<polygon fill="midnightblue" stroke="midnightblue" points="194.65,-26.22 204.96,-23.76 195.37,-19.25 194.65,-26.22"/>
</g>
</g>
</svg>
