<?xml version="1.0" encoding="UTF-8" standalone="no"?>
<!DOCTYPE svg PUBLIC "-//W3C//DTD SVG 1.1//EN"
 "http://www.w3.org/Graphics/SVG/1.1/DTD/svg11.dtd">
<!-- Generated by graphviz version 2.44.0 ()
 -->
<!-- Title: modbusIsOk Pages: 1 -->
<svg width="455pt" height="522pt"
 viewBox="0.00 0.00 455.00 521.83" xmlns="http://www.w3.org/2000/svg" xmlns:xlink="http://www.w3.org/1999/xlink">
<g id="graph0" class="graph" transform="scale(1 1) rotate(0) translate(4 517.83)">
<title>modbusIsOk</title>
<!-- Node1 -->
<g id="node1" class="node">
<title>Node1</title>
<g id="a_node1"><a xlink:title="Checks if ModbusErrorInfo contains an error.">
<polygon fill="#bfbfbf" stroke="black" points="375,-247.5 375,-266.5 447,-266.5 447,-247.5 375,-247.5"/>
<text text-anchor="middle" x="411" y="-254.5" font-family="Helvetica,sans-Serif" font-size="10.00">modbusIsOk</text>
</a>
</g>
</g>
<!-- Node2 -->
<g id="node2" class="node">
<title>Node2</title>
<g id="a_node2"><a xlink:href="classllm_1_1Slave.html#ac915e0947f733a784a9069f5ff5b9737" target="_top" xlink:title=" ">
<polygon fill="none" stroke="black" points="0,-465.5 0,-484.5 146,-484.5 146,-465.5 0,-465.5"/>
<text text-anchor="middle" x="73" y="-472.5" font-family="Helvetica,sans-Serif" font-size="10.00">llm::Slave::buildExceptionPDU</text>
</a>
</g>
</g>
<!-- Node1&#45;&gt;Node2 -->
<g id="edge1" class="edge">
<title>Node1&#45;&gt;Node2</title>
<path fill="none" stroke="midnightblue" d="M410.86,-276.6C411.66,-322.22 406.41,-435.39 339,-485 265.58,-539.03 147.21,-503.5 97.34,-484.63"/>
<polygon fill="midnightblue" stroke="midnightblue" points="414.36,-276.43 410.56,-266.54 407.36,-276.64 414.36,-276.43"/>
</g>
<!-- Node3 -->
<g id="node3" class="node">
<title>Node3</title>
<g id="a_node3"><a xlink:href="classllm_1_1Slave.html#a10e79600053c725e639225264d966e63" target="_top" xlink:title=" ">
<polygon fill="none" stroke="black" points="0,-408.5 0,-427.5 146,-427.5 146,-408.5 0,-408.5"/>
<text text-anchor="middle" x="73" y="-415.5" font-family="Helvetica,sans-Serif" font-size="10.00">llm::Slave::buildExceptionRTU</text>
</a>
</g>
</g>
<!-- Node1&#45;&gt;Node3 -->
<g id="edge2" class="edge">
<title>Node1&#45;&gt;Node3</title>
<path fill="none" stroke="midnightblue" d="M407.36,-276.72C401.68,-310.5 384.85,-378.71 339,-409 268.71,-455.44 163.5,-440.08 109.21,-427.55"/>
<polygon fill="midnightblue" stroke="midnightblue" points="410.85,-277.11 408.89,-266.69 403.93,-276.05 410.85,-277.11"/>
</g>
<!-- Node4 -->
<g id="node4" class="node">
<title>Node4</title>
<g id="a_node4"><a xlink:href="classllm_1_1Slave.html#a844c37870a4e98bffc091ddfafb8f959" target="_top" xlink:title=" ">
<polygon fill="none" stroke="black" points="0.5,-323.5 0.5,-342.5 145.5,-342.5 145.5,-323.5 0.5,-323.5"/>
<text text-anchor="middle" x="73" y="-330.5" font-family="Helvetica,sans-Serif" font-size="10.00">llm::Slave::buildExceptionTCP</text>
</a>
</g>
</g>
<!-- Node1&#45;&gt;Node4 -->
<g id="edge3" class="edge">
<title>Node1&#45;&gt;Node4</title>
<path fill="none" stroke="midnightblue" d="M399.31,-275.28C387.31,-293.79 365.94,-321.3 339,-333 264.94,-365.16 167.88,-353.23 114.16,-342.54"/>
<polygon fill="midnightblue" stroke="midnightblue" points="402.42,-276.9 404.71,-266.55 396.47,-273.21 402.42,-276.9"/>
</g>
<!-- Node5 -->
<g id="node5" class="node">
<title>Node5</title>
<g id="a_node5"><a xlink:href="slave_8h.html#a384f75966903cc0c249eb68a6a20180e" target="_top" xlink:title="Builds an exception PDU.">
<polygon fill="none" stroke="black" points="192.5,-456.5 192.5,-475.5 328.5,-475.5 328.5,-456.5 192.5,-456.5"/>
<text text-anchor="middle" x="260.5" y="-463.5" font-family="Helvetica,sans-Serif" font-size="10.00">modbusBuildExceptionPDU</text>
</a>
</g>
</g>
<!-- Node1&#45;&gt;Node5 -->
<g id="edge4" class="edge">
<title>Node1&#45;&gt;Node5</title>
<path fill="none" stroke="midnightblue" d="M408.03,-276.84C403.22,-314.49 387.48,-396.62 339,-442 332.21,-448.35 323.77,-453.02 314.99,-456.46"/>
<polygon fill="midnightblue" stroke="midnightblue" points="411.53,-277 409.19,-266.67 404.58,-276.2 411.53,-277"/>
</g>
<!-- Node6 -->
<g id="node6" class="node">
<title>Node6</title>
<g id="a_node6"><a xlink:href="slave_8h.html#a1da09df8858b91c61fe02c25783c2946" target="_top" xlink:title="Builds a Modbus RTU exception.">
<polygon fill="none" stroke="black" points="193,-380.5 193,-399.5 328,-399.5 328,-380.5 193,-380.5"/>
<text text-anchor="middle" x="260.5" y="-387.5" font-family="Helvetica,sans-Serif" font-size="10.00">modbusBuildExceptionRTU</text>
</a>
</g>
</g>
<!-- Node1&#45;&gt;Node6 -->
<g id="edge6" class="edge">
<title>Node1&#45;&gt;Node6</title>
<path fill="none" stroke="midnightblue" d="M402.49,-276.04C391.92,-300.41 370.38,-342.3 339,-366 330.68,-372.28 320.7,-376.94 310.71,-380.38"/>
<polygon fill="midnightblue" stroke="midnightblue" points="405.73,-277.35 406.34,-266.78 399.27,-274.67 405.73,-277.35"/>
</g>
<!-- Node7 -->
<g id="node7" class="node">
<title>Node7</title>
<g id="a_node7"><a xlink:href="slave_8h.html#a778e65356f7da66831f18ec53b975383" target="_top" xlink:title="Builds a Modbus TCP exception.">
<polygon fill="none" stroke="black" points="193.5,-304.5 193.5,-323.5 327.5,-323.5 327.5,-304.5 193.5,-304.5"/>
<text text-anchor="middle" x="260.5" y="-311.5" font-family="Helvetica,sans-Serif" font-size="10.00">modbusBuildExceptionTCP</text>
</a>
</g>
</g>
<!-- Node1&#45;&gt;Node7 -->
<g id="edge8" class="edge">
<title>Node1&#45;&gt;Node7</title>
<path fill="none" stroke="midnightblue" d="M386.11,-271.73C372.66,-279.52 355.34,-288.74 339,-295 329.43,-298.67 318.91,-301.8 308.8,-304.41"/>
<polygon fill="midnightblue" stroke="midnightblue" points="387.92,-274.73 394.74,-266.62 384.35,-268.71 387.92,-274.73"/>
</g>
<!-- Node8 -->
<g id="node8" class="node">
<title>Node8</title>
<g id="a_node8"><a xlink:href="slave_8h.html#a6a1e63faa64b7ca4b91d1ce7988be850" target="_top" xlink:title="Parses provided Modbus RTU request frame and generates a Modbus RTU response.">
<polygon fill="none" stroke="black" points="194,-266.5 194,-285.5 327,-285.5 327,-266.5 194,-266.5"/>
<text text-anchor="middle" x="260.5" y="-273.5" font-family="Helvetica,sans-Serif" font-size="10.00">modbusParseRequestRTU</text>
</a>
</g>
</g>
<!-- Node1&#45;&gt;Node8 -->
<g id="edge10" class="edge">
<title>Node1&#45;&gt;Node8</title>
<path fill="none" stroke="midnightblue" d="M364.76,-262.79C352.93,-264.3 339.95,-265.96 327.29,-267.58"/>
<polygon fill="midnightblue" stroke="midnightblue" points="365.33,-266.24 374.81,-261.5 364.44,-259.3 365.33,-266.24"/>
</g>
<!-- Node9 -->
<g id="node9" class="node">
<title>Node9</title>
<g id="a_node9"><a xlink:href="classllm_1_1Slave.html#a001591b9a38b69cf29adc853872a09fe" target="_top" xlink:title=" ">
<polygon fill="none" stroke="black" points="1.5,-247.5 1.5,-266.5 144.5,-266.5 144.5,-247.5 1.5,-247.5"/>
<text text-anchor="middle" x="73" y="-254.5" font-family="Helvetica,sans-Serif" font-size="10.00">llm::Slave::parseRequestRTU</text>
</a>
</g>
</g>
<!-- Node1&#45;&gt;Node9 -->
<g id="edge15" class="edge">
<title>Node1&#45;&gt;Node9</title>
<path fill="none" stroke="midnightblue" d="M364.94,-257C308.45,-257 210.99,-257 144.57,-257"/>
<polygon fill="midnightblue" stroke="midnightblue" points="364.99,-260.5 374.99,-257 364.99,-253.5 364.99,-260.5"/>
</g>
<!-- Node10 -->
<g id="node10" class="node">
<title>Node10</title>
<g id="a_node10"><a xlink:href="slave_8h.html#a5ad3fe86aa14f8982d7c459c68cd8b3e" target="_top" xlink:title="Parses provided Modbus TCP request frame and generates a Modbus TCP response.">
<polygon fill="none" stroke="black" points="194.5,-190.5 194.5,-209.5 326.5,-209.5 326.5,-190.5 194.5,-190.5"/>
<text text-anchor="middle" x="260.5" y="-197.5" font-family="Helvetica,sans-Serif" font-size="10.00">modbusParseRequestTCP</text>
</a>
</g>
</g>
<!-- Node1&#45;&gt;Node10 -->
<g id="edge12" class="edge">
<title>Node1&#45;&gt;Node10</title>
<path fill="none" stroke="midnightblue" d="M382.03,-242.94C369.11,-236.72 353.45,-229.57 339,-224 325.07,-218.63 309.39,-213.6 295.79,-209.54"/>
<polygon fill="midnightblue" stroke="midnightblue" points="380.79,-246.23 391.31,-247.47 383.86,-239.94 380.79,-246.23"/>
</g>
<!-- Node11 -->
<g id="node11" class="node">
<title>Node11</title>
<g id="a_node11"><a xlink:href="classllm_1_1Slave.html#a05169339916c3727c780c75157b399b9" target="_top" xlink:title=" ">
<polygon fill="none" stroke="black" points="1.5,-171.5 1.5,-190.5 144.5,-190.5 144.5,-171.5 1.5,-171.5"/>
<text text-anchor="middle" x="73" y="-178.5" font-family="Helvetica,sans-Serif" font-size="10.00">llm::Slave::parseRequestTCP</text>
</a>
</g>
</g>
<!-- Node1&#45;&gt;Node11 -->
<g id="edge16" class="edge">
<title>Node1&#45;&gt;Node11</title>
<path fill="none" stroke="midnightblue" d="M399.31,-238.72C387.31,-220.21 365.94,-192.7 339,-181 264.94,-148.84 167.88,-160.77 114.16,-171.46"/>
<polygon fill="midnightblue" stroke="midnightblue" points="396.47,-240.79 404.71,-247.45 402.42,-237.1 396.47,-240.79"/>
</g>
<!-- Node12 -->
<g id="node12" class="node">
<title>Node12</title>
<g id="a_node12"><a xlink:href="classllm_1_1Slave.html#af8cc9d8d58bf7f632f3f3cf7e6b9c84b" target="_top" xlink:title=" ">
<polygon fill="none" stroke="black" points="188.5,-114.5 188.5,-133.5 332.5,-133.5 332.5,-114.5 188.5,-114.5"/>
<text text-anchor="middle" x="260.5" y="-121.5" font-family="Helvetica,sans-Serif" font-size="10.00">llm::Slave::parseRequestPDU</text>
</a>
</g>
</g>
<!-- Node1&#45;&gt;Node12 -->
<g id="edge14" class="edge">
<title>Node1&#45;&gt;Node12</title>
<path fill="none" stroke="midnightblue" d="M402.49,-237.96C391.92,-213.59 370.38,-171.7 339,-148 330.68,-141.72 320.7,-137.06 310.71,-133.62"/>
<polygon fill="midnightblue" stroke="midnightblue" points="399.27,-239.33 406.34,-247.22 405.73,-236.65 399.27,-239.33"/>
</g>
<!-- Node13 -->
<g id="node13" class="node">
<title>Node13</title>
<g id="a_node13"><a xlink:href="classllm_1_1Master.html#a39b0210172c76ef4dc9e43668daef7c9" target="_top" xlink:title=" ">
<polygon fill="none" stroke="black" points="182,-76.5 182,-95.5 339,-95.5 339,-76.5 182,-76.5"/>
<text text-anchor="middle" x="260.5" y="-83.5" font-family="Helvetica,sans-Serif" font-size="10.00">llm::Master::parseResponsePDU</text>
</a>
</g>
</g>
<!-- Node1&#45;&gt;Node13 -->
<g id="edge17" class="edge">
<title>Node1&#45;&gt;Node13</title>
<path fill="none" stroke="midnightblue" d="M406.48,-237.33C399.57,-204.7 381.1,-139.54 339,-105 334.29,-101.13 328.91,-98.03 323.22,-95.55"/>
<polygon fill="midnightblue" stroke="midnightblue" points="403.1,-238.28 408.46,-247.42 409.97,-236.93 403.1,-238.28"/>
</g>
<!-- Node14 -->
<g id="node14" class="node">
<title>Node14</title>
<g id="a_node14"><a xlink:href="classllm_1_1Master.html#ab052e172e96808744ee43a8eff80b679" target="_top" xlink:title=" ">
<polygon fill="none" stroke="black" points="182.5,-38.5 182.5,-57.5 338.5,-57.5 338.5,-38.5 182.5,-38.5"/>
<text text-anchor="middle" x="260.5" y="-45.5" font-family="Helvetica,sans-Serif" font-size="10.00">llm::Master::parseResponseRTU</text>
</a>
</g>
</g>
<!-- Node1&#45;&gt;Node14 -->
<g id="edge18" class="edge">
<title>Node1&#45;&gt;Node14</title>
<path fill="none" stroke="midnightblue" d="M408.55,-237.42C404.62,-198.78 390.26,-112.58 339,-67 334.65,-63.13 329.64,-60.02 324.31,-57.53"/>
<polygon fill="midnightblue" stroke="midnightblue" points="405.07,-237.73 409.44,-247.38 412.04,-237.11 405.07,-237.73"/>
</g>
<!-- Node15 -->
<g id="node15" class="node">
<title>Node15</title>
<g id="a_node15"><a xlink:href="classllm_1_1Master.html#ad1f614f5d44a61a8507ae34968fa7903" target="_top" xlink:title=" ">
<polygon fill="none" stroke="black" points="183,-0.5 183,-19.5 338,-19.5 338,-0.5 183,-0.5"/>
<text text-anchor="middle" x="260.5" y="-7.5" font-family="Helvetica,sans-Serif" font-size="10.00">llm::Master::parseResponseTCP</text>
</a>
</g>
</g>
<!-- Node1&#45;&gt;Node15 -->
<g id="edge19" class="edge">
<title>Node1&#45;&gt;Node15</title>
<path fill="none" stroke="midnightblue" d="M409.96,-236.95C408.73,-192.61 399.29,-85.69 339,-29 334.96,-25.2 330.3,-22.13 325.29,-19.65"/>
<polygon fill="midnightblue" stroke="midnightblue" points="406.46,-237.09 410.12,-247.03 413.46,-236.97 406.46,-237.09"/>
</g>
<!-- Node5&#45;&gt;Node2 -->
<g id="edge5" class="edge">
<title>Node5&#45;&gt;Node2</title>
<path fill="none" stroke="midnightblue" d="M181.92,-469.76C170.02,-470.34 157.78,-470.94 146.01,-471.51"/>
<polygon fill="midnightblue" stroke="midnightblue" points="182.45,-473.24 192.27,-469.26 182.11,-466.25 182.45,-473.24"/>
</g>
<!-- Node6&#45;&gt;Node3 -->
<g id="edge7" class="edge">
<title>Node6&#45;&gt;Node3</title>
<path fill="none" stroke="midnightblue" d="M186.44,-401.03C170.16,-403.49 153.04,-406.07 137.2,-408.46"/>
<polygon fill="midnightblue" stroke="midnightblue" points="187.07,-404.47 196.44,-399.52 186.03,-397.55 187.07,-404.47"/>
</g>
<!-- Node7&#45;&gt;Node4 -->
<g id="edge9" class="edge">
<title>Node7&#45;&gt;Node4</title>
<path fill="none" stroke="midnightblue" d="M183.01,-321.83C170.6,-323.11 157.79,-324.42 145.5,-325.68"/>
<polygon fill="midnightblue" stroke="midnightblue" points="183.72,-325.28 193.32,-320.78 183.01,-318.32 183.72,-325.28"/>
</g>
<!-- Node8&#45;&gt;Node9 -->
<g id="edge11" class="edge">
<title>Node8&#45;&gt;Node9</title>
<path fill="none" stroke="midnightblue" d="M183.61,-268.23C170.71,-266.91 157.37,-265.54 144.61,-264.23"/>
<polygon fill="midnightblue" stroke="midnightblue" points="183.53,-271.74 193.84,-269.27 184.25,-264.77 183.53,-271.74"/>
</g>
<!-- Node10&#45;&gt;Node11 -->
<g id="edge13" class="edge">
<title>Node10&#45;&gt;Node11</title>
<path fill="none" stroke="midnightblue" d="M184.04,-192.27C171.03,-190.94 157.55,-189.56 144.66,-188.24"/>
<polygon fill="midnightblue" stroke="midnightblue" points="184.06,-195.79 194.36,-193.33 184.77,-188.83 184.06,-195.79"/>
</g>
</g>
</svg>
