<?xml version="1.0" encoding="UTF-8" standalone="no"?>
<!DOCTYPE svg PUBLIC "-//W3C//DTD SVG 1.1//EN"
 "http://www.w3.org/Graphics/SVG/1.1/DTD/svg11.dtd">
<!-- Generated by graphviz version 2.44.0 ()
 -->
<!-- Title: modbusWBE Pages: 1 -->
<svg width="427pt" height="522pt"
 viewBox="0.00 0.00 427.00 522.00" xmlns="http://www.w3.org/2000/svg" xmlns:xlink="http://www.w3.org/1999/xlink">
<g id="graph0" class="graph" transform="scale(1 1) rotate(0) translate(4 518)">
<title>modbusWBE</title>
<!-- Node1 -->
<g id="node1" class="node">
<title>Node1</title>
<g id="a_node1"><a xlink:title="Safely writes a big&#45;endian 16&#45;bit word to provided pointer.">
<polygon fill="#bfbfbf" stroke="black" points="346,-190.5 346,-209.5 419,-209.5 419,-190.5 346,-190.5"/>
<text text-anchor="middle" x="382.5" y="-197.5" font-family="Helvetica,sans-Serif" font-size="10.00">modbusWBE</text>
</a>
</g>
</g>
<!-- Node2 -->
<g id="node2" class="node">
<title>Node2</title>
<g id="a_node2"><a xlink:href="master__func_8h.html#ad3a6d4576d762da3eb0bd73aa5bb24fe" target="_top" xlink:title="Read mutiple coils/discrete inputs/holding registers/input registers.">
<polygon fill="none" stroke="black" points="157,-418.5 157,-437.5 308,-437.5 308,-418.5 157,-418.5"/>
<text text-anchor="middle" x="232.5" y="-425.5" font-family="Helvetica,sans-Serif" font-size="10.00">modbusBuildRequest01020304</text>
</a>
</g>
</g>
<!-- Node1&#45;&gt;Node2 -->
<g id="edge1" class="edge">
<title>Node1&#45;&gt;Node2</title>
<path fill="none" stroke="midnightblue" d="M376.9,-219.82C368.3,-253.62 347.2,-323.39 310,-371 293.89,-391.62 268.52,-408.5 251.47,-418.4"/>
<polygon fill="midnightblue" stroke="midnightblue" points="380.37,-220.36 379.34,-209.82 373.57,-218.7 380.37,-220.36"/>
</g>
<!-- Node7 -->
<g id="node7" class="node">
<title>Node7</title>
<g id="a_node7"><a xlink:href="master__func_8h.html#a5309a3003ea2d248e51193e75ab30044" target="_top" xlink:title="Write single coil/holding register.">
<polygon fill="none" stroke="black" points="167.5,-342.5 167.5,-361.5 297.5,-361.5 297.5,-342.5 167.5,-342.5"/>
<text text-anchor="middle" x="232.5" y="-349.5" font-family="Helvetica,sans-Serif" font-size="10.00">modbusBuildRequest0506</text>
</a>
</g>
</g>
<!-- Node1&#45;&gt;Node7 -->
<g id="edge6" class="edge">
<title>Node1&#45;&gt;Node7</title>
<path fill="none" stroke="midnightblue" d="M376.44,-219.68C367.87,-248.99 347.63,-303.76 310,-333 305.03,-336.86 299.37,-339.95 293.44,-342.42"/>
<polygon fill="midnightblue" stroke="midnightblue" points="379.88,-220.38 379.17,-209.81 373.14,-218.52 379.88,-220.38"/>
</g>
<!-- Node10 -->
<g id="node10" class="node">
<title>Node10</title>
<g id="a_node10"><a xlink:href="master__func_8h.html#ae9842e659ccd8942905e685923de8916" target="_top" xlink:title="Write multiple coils.">
<polygon fill="none" stroke="black" points="173,-304.5 173,-323.5 292,-323.5 292,-304.5 173,-304.5"/>
<text text-anchor="middle" x="232.5" y="-311.5" font-family="Helvetica,sans-Serif" font-size="10.00">modbusBuildRequest15</text>
</a>
</g>
</g>
<!-- Node1&#45;&gt;Node10 -->
<g id="edge9" class="edge">
<title>Node1&#45;&gt;Node10</title>
<path fill="none" stroke="midnightblue" d="M372.46,-218.71C360.99,-240.43 339.13,-275.73 310,-295 304.18,-298.85 297.64,-301.92 290.9,-304.37"/>
<polygon fill="midnightblue" stroke="midnightblue" points="375.72,-220.03 377.12,-209.53 369.47,-216.86 375.72,-220.03"/>
</g>
<!-- Node11 -->
<g id="node11" class="node">
<title>Node11</title>
<g id="a_node11"><a xlink:href="master__func_8h.html#aca022c438a427d8f4b03db4427c2b344" target="_top" xlink:title="Write multiple holding registers.">
<polygon fill="none" stroke="black" points="173,-266.5 173,-285.5 292,-285.5 292,-266.5 173,-266.5"/>
<text text-anchor="middle" x="232.5" y="-273.5" font-family="Helvetica,sans-Serif" font-size="10.00">modbusBuildRequest16</text>
</a>
</g>
</g>
<!-- Node1&#45;&gt;Node11 -->
<g id="edge10" class="edge">
<title>Node1&#45;&gt;Node11</title>
<path fill="none" stroke="midnightblue" d="M365.07,-216.55C351.43,-229.39 330.95,-246.67 310,-257 302.27,-260.81 293.71,-263.9 285.2,-266.39"/>
<polygon fill="midnightblue" stroke="midnightblue" points="367.5,-219.07 372.26,-209.6 362.64,-214.04 367.5,-219.07"/>
</g>
<!-- Node12 -->
<g id="node12" class="node">
<title>Node12</title>
<g id="a_node12"><a xlink:href="master__func_8h.html#a6f2c5d59dee73c80ad54e53cca38aeec" target="_top" xlink:title="Mask write register request.">
<polygon fill="none" stroke="black" points="173,-228.5 173,-247.5 292,-247.5 292,-228.5 173,-228.5"/>
<text text-anchor="middle" x="232.5" y="-235.5" font-family="Helvetica,sans-Serif" font-size="10.00">modbusBuildRequest22</text>
</a>
</g>
</g>
<!-- Node1&#45;&gt;Node12 -->
<g id="edge11" class="edge">
<title>Node1&#45;&gt;Node12</title>
<path fill="none" stroke="midnightblue" d="M335.97,-212.22C327.35,-214.5 318.4,-216.84 310,-219 297.81,-222.13 284.5,-225.47 272.45,-228.46"/>
<polygon fill="midnightblue" stroke="midnightblue" points="337.12,-215.53 345.89,-209.59 335.33,-208.77 337.12,-215.53"/>
</g>
<!-- Node13 -->
<g id="node13" class="node">
<title>Node13</title>
<g id="a_node13"><a xlink:href="master_8h.html#a117f6d4b5ec63dac5e4e5ea0af78d079" target="_top" xlink:title="Finalizes a Modbus TCP request.">
<polygon fill="none" stroke="black" points="171,-190.5 171,-209.5 294,-209.5 294,-190.5 171,-190.5"/>
<text text-anchor="middle" x="232.5" y="-197.5" font-family="Helvetica,sans-Serif" font-size="10.00">modbusEndRequestTCP</text>
</a>
</g>
</g>
<!-- Node1&#45;&gt;Node13 -->
<g id="edge12" class="edge">
<title>Node1&#45;&gt;Node13</title>
<path fill="none" stroke="midnightblue" d="M335.5,-200C322.41,-200 307.94,-200 294.11,-200"/>
<polygon fill="midnightblue" stroke="midnightblue" points="335.67,-203.5 345.67,-200 335.67,-196.5 335.67,-203.5"/>
</g>
<!-- Node14 -->
<g id="node14" class="node">
<title>Node14</title>
<g id="a_node14"><a xlink:href="slave__func_8h.html#aff8edb5d03d53414296edee03a83691a" target="_top" xlink:title="Handles requests 01, 02, 03 and 04 (Read Multiple XX) and generates response.">
<polygon fill="none" stroke="black" points="155,-152.5 155,-171.5 310,-171.5 310,-152.5 155,-152.5"/>
<text text-anchor="middle" x="232.5" y="-159.5" font-family="Helvetica,sans-Serif" font-size="10.00">modbusParseRequest01020304</text>
</a>
</g>
</g>
<!-- Node1&#45;&gt;Node14 -->
<g id="edge13" class="edge">
<title>Node1&#45;&gt;Node14</title>
<path fill="none" stroke="midnightblue" d="M335.97,-187.78C327.35,-185.5 318.4,-183.16 310,-181 297.81,-177.87 284.5,-174.53 272.45,-171.54"/>
<polygon fill="midnightblue" stroke="midnightblue" points="335.33,-191.23 345.89,-190.41 337.12,-184.47 335.33,-191.23"/>
</g>
<!-- Node15 -->
<g id="node15" class="node">
<title>Node15</title>
<g id="a_node15"><a xlink:href="slave__func_8h.html#ad3a342d423dbc1142cd509768ac986e7" target="_top" xlink:title="Handles requests 05 and 06 (Write Single XX) and generates response.">
<polygon fill="none" stroke="black" points="165.5,-114.5 165.5,-133.5 299.5,-133.5 299.5,-114.5 165.5,-114.5"/>
<text text-anchor="middle" x="232.5" y="-121.5" font-family="Helvetica,sans-Serif" font-size="10.00">modbusParseRequest0506</text>
</a>
</g>
</g>
<!-- Node1&#45;&gt;Node15 -->
<g id="edge14" class="edge">
<title>Node1&#45;&gt;Node15</title>
<path fill="none" stroke="midnightblue" d="M365.07,-183.45C351.43,-170.61 330.95,-153.33 310,-143 302.27,-139.19 293.71,-136.1 285.2,-133.61"/>
<polygon fill="midnightblue" stroke="midnightblue" points="362.64,-185.96 372.26,-190.4 367.5,-180.93 362.64,-185.96"/>
</g>
<!-- Node16 -->
<g id="node16" class="node">
<title>Node16</title>
<g id="a_node16"><a xlink:href="slave__func_8h.html#a50a1e72594d7aec7101698bf9089b4de" target="_top" xlink:title="Handles requests 15 and 16 (Write Multiple XX) and generates response.">
<polygon fill="none" stroke="black" points="165.5,-76.5 165.5,-95.5 299.5,-95.5 299.5,-76.5 165.5,-76.5"/>
<text text-anchor="middle" x="232.5" y="-83.5" font-family="Helvetica,sans-Serif" font-size="10.00">modbusParseRequest1516</text>
</a>
</g>
</g>
<!-- Node1&#45;&gt;Node16 -->
<g id="edge15" class="edge">
<title>Node1&#45;&gt;Node16</title>
<path fill="none" stroke="midnightblue" d="M372.46,-181.29C360.99,-159.57 339.13,-124.27 310,-105 304.18,-101.15 297.64,-98.08 290.9,-95.63"/>
<polygon fill="midnightblue" stroke="midnightblue" points="369.47,-183.14 377.12,-190.47 375.72,-179.97 369.47,-183.14"/>
</g>
<!-- Node17 -->
<g id="node17" class="node">
<title>Node17</title>
<g id="a_node17"><a xlink:href="slave__func_8h.html#a6495bc98691e5e944456bcc222d6ec63" target="_top" xlink:title="Handles request 22 (Mask Write Register) and generates response.">
<polygon fill="none" stroke="black" points="171,-38.5 171,-57.5 294,-57.5 294,-38.5 171,-38.5"/>
<text text-anchor="middle" x="232.5" y="-45.5" font-family="Helvetica,sans-Serif" font-size="10.00">modbusParseRequest22</text>
</a>
</g>
</g>
<!-- Node1&#45;&gt;Node17 -->
<g id="edge16" class="edge">
<title>Node1&#45;&gt;Node17</title>
<path fill="none" stroke="midnightblue" d="M376.44,-180.32C367.87,-151.01 347.63,-96.24 310,-67 305.03,-63.14 299.37,-60.05 293.44,-57.58"/>
<polygon fill="midnightblue" stroke="midnightblue" points="373.14,-181.48 379.17,-190.19 379.88,-179.62 373.14,-181.48"/>
</g>
<!-- Node18 -->
<g id="node18" class="node">
<title>Node18</title>
<g id="a_node18"><a xlink:href="slave_8h.html#a5ad3fe86aa14f8982d7c459c68cd8b3e" target="_top" xlink:title="Parses provided Modbus TCP request frame and generates a Modbus TCP response.">
<polygon fill="none" stroke="black" points="166.5,-0.5 166.5,-19.5 298.5,-19.5 298.5,-0.5 166.5,-0.5"/>
<text text-anchor="middle" x="232.5" y="-7.5" font-family="Helvetica,sans-Serif" font-size="10.00">modbusParseRequestTCP</text>
</a>
</g>
</g>
<!-- Node1&#45;&gt;Node18 -->
<g id="edge17" class="edge">
<title>Node1&#45;&gt;Node18</title>
<path fill="none" stroke="midnightblue" d="M378.98,-179.92C373.38,-144.03 356.5,-68.89 310,-29 305.53,-25.17 300.41,-22.09 294.97,-19.61"/>
<polygon fill="midnightblue" stroke="midnightblue" points="375.55,-180.7 380.43,-190.1 382.49,-179.71 375.55,-180.7"/>
</g>
<!-- Node3 -->
<g id="node3" class="node">
<title>Node3</title>
<g id="a_node3"><a xlink:href="master__func_8h.html#aadb2b7e2d3ee4fbde22cdf076713d75e" target="_top" xlink:title="Read multiple coils &#45; a wrapper for modbusBuildRequest01020304()">
<polygon fill="none" stroke="black" points="0,-494.5 0,-513.5 119,-513.5 119,-494.5 0,-494.5"/>
<text text-anchor="middle" x="59.5" y="-501.5" font-family="Helvetica,sans-Serif" font-size="10.00">modbusBuildRequest01</text>
</a>
</g>
</g>
<!-- Node2&#45;&gt;Node3 -->
<g id="edge2" class="edge">
<title>Node2&#45;&gt;Node3</title>
<path fill="none" stroke="midnightblue" d="M205.84,-442.44C183.38,-454.73 149.64,-472.35 119,-485 110.71,-488.42 101.56,-491.64 93.01,-494.43"/>
<polygon fill="midnightblue" stroke="midnightblue" points="207.67,-445.43 214.73,-437.53 204.29,-439.3 207.67,-445.43"/>
</g>
<!-- Node4 -->
<g id="node4" class="node">
<title>Node4</title>
<g id="a_node4"><a xlink:href="master__func_8h.html#a2a6452a8200d77483254bef08ee2cf8c" target="_top" xlink:title="Read multiple discrete inputs &#45; a wrapper for modbusBuildRequest01020304()">
<polygon fill="none" stroke="black" points="0,-456.5 0,-475.5 119,-475.5 119,-456.5 0,-456.5"/>
<text text-anchor="middle" x="59.5" y="-463.5" font-family="Helvetica,sans-Serif" font-size="10.00">modbusBuildRequest02</text>
</a>
</g>
</g>
<!-- Node2&#45;&gt;Node4 -->
<g id="edge3" class="edge">
<title>Node2&#45;&gt;Node4</title>
<path fill="none" stroke="midnightblue" d="M178.29,-439.82C154.18,-445.18 126.06,-451.43 103.34,-456.48"/>
<polygon fill="midnightblue" stroke="midnightblue" points="179.35,-443.18 188.35,-437.59 177.83,-436.34 179.35,-443.18"/>
</g>
<!-- Node5 -->
<g id="node5" class="node">
<title>Node5</title>
<g id="a_node5"><a xlink:href="master__func_8h.html#a1c7ed51c58b1ef42ee176833c7fd0515" target="_top" xlink:title="Read multiple holding registers &#45; a wrapper for modbusBuildRequest01020304()">
<polygon fill="none" stroke="black" points="0,-418.5 0,-437.5 119,-437.5 119,-418.5 0,-418.5"/>
<text text-anchor="middle" x="59.5" y="-425.5" font-family="Helvetica,sans-Serif" font-size="10.00">modbusBuildRequest03</text>
</a>
</g>
</g>
<!-- Node2&#45;&gt;Node5 -->
<g id="edge4" class="edge">
<title>Node2&#45;&gt;Node5</title>
<path fill="none" stroke="midnightblue" d="M146.83,-428C137.45,-428 128.04,-428 119.08,-428"/>
<polygon fill="midnightblue" stroke="midnightblue" points="146.99,-431.5 156.99,-428 146.99,-424.5 146.99,-431.5"/>
</g>
<!-- Node6 -->
<g id="node6" class="node">
<title>Node6</title>
<g id="a_node6"><a xlink:href="master__func_8h.html#a22bf4541196b3e88c0a86861d334e3b1" target="_top" xlink:title="Read multiple input registers &#45; a wrapper for modbusBuildRequest01020304()">
<polygon fill="none" stroke="black" points="0,-380.5 0,-399.5 119,-399.5 119,-380.5 0,-380.5"/>
<text text-anchor="middle" x="59.5" y="-387.5" font-family="Helvetica,sans-Serif" font-size="10.00">modbusBuildRequest04</text>
</a>
</g>
</g>
<!-- Node2&#45;&gt;Node6 -->
<g id="edge5" class="edge">
<title>Node2&#45;&gt;Node6</title>
<path fill="none" stroke="midnightblue" d="M178.29,-416.18C154.18,-410.82 126.06,-404.57 103.34,-399.52"/>
<polygon fill="midnightblue" stroke="midnightblue" points="177.83,-419.66 188.35,-418.41 179.35,-412.82 177.83,-419.66"/>
</g>
<!-- Node8 -->
<g id="node8" class="node">
<title>Node8</title>
<g id="a_node8"><a xlink:href="master__func_8h.html#a7151355c8c34af355fd779f88a64e125" target="_top" xlink:title="Write single coil &#45; a wrapper for modbusBuildRequest0506()">
<polygon fill="none" stroke="black" points="0,-342.5 0,-361.5 119,-361.5 119,-342.5 0,-342.5"/>
<text text-anchor="middle" x="59.5" y="-349.5" font-family="Helvetica,sans-Serif" font-size="10.00">modbusBuildRequest05</text>
</a>
</g>
</g>
<!-- Node7&#45;&gt;Node8 -->
<g id="edge7" class="edge">
<title>Node7&#45;&gt;Node8</title>
<path fill="none" stroke="midnightblue" d="M157.21,-352C144.46,-352 131.36,-352 119.1,-352"/>
<polygon fill="midnightblue" stroke="midnightblue" points="157.34,-355.5 167.34,-352 157.34,-348.5 157.34,-355.5"/>
</g>
<!-- Node9 -->
<g id="node9" class="node">
<title>Node9</title>
<g id="a_node9"><a xlink:href="master__func_8h.html#a56779853bdfd2bb75601be746c20eb09" target="_top" xlink:title="Write single holding register &#45; a wrapper for modbusBuildRequest0506()">
<polygon fill="none" stroke="black" points="0,-304.5 0,-323.5 119,-323.5 119,-304.5 0,-304.5"/>
<text text-anchor="middle" x="59.5" y="-311.5" font-family="Helvetica,sans-Serif" font-size="10.00">modbusBuildRequest06</text>
</a>
</g>
</g>
<!-- Node7&#45;&gt;Node9 -->
<g id="edge8" class="edge">
<title>Node7&#45;&gt;Node9</title>
<path fill="none" stroke="midnightblue" d="M178.29,-340.18C154.18,-334.82 126.06,-328.57 103.34,-323.52"/>
<polygon fill="midnightblue" stroke="midnightblue" points="177.83,-343.66 188.35,-342.41 179.35,-336.82 177.83,-343.66"/>
</g>
</g>
</svg>
