<?xml version="1.0" encoding="UTF-8" standalone="no"?>
<!DOCTYPE svg PUBLIC "-//W3C//DTD SVG 1.1//EN"
 "http://www.w3.org/Graphics/SVG/1.1/DTD/svg11.dtd">
<!-- Generated by graphviz version 2.44.0 ()
 -->
<!-- Title: modbusBufferModePDU Pages: 1 -->
<svg width="300pt" height="66pt"
 viewBox="0.00 0.00 300.00 66.00" xmlns="http://www.w3.org/2000/svg" xmlns:xlink="http://www.w3.org/1999/xlink">
<g id="graph0" class="graph" transform="scale(1 1) rotate(0) translate(4 62)">
<title>modbusBufferModePDU</title>
<!-- Node1 -->
<g id="node1" class="node">
<title>Node1</title>
<g id="a_node1"><a xlink:title="Prepares buffer to only store a Modbus PDU.">
<polygon fill="#bfbfbf" stroke="black" points="170,-19.5 170,-38.5 292,-38.5 292,-19.5 170,-19.5"/>
<text text-anchor="middle" x="231" y="-26.5" font-family="Helvetica,sans-Serif" font-size="10.00">modbusBufferModePDU</text>
</a>
</g>
</g>
<!-- Node2 -->
<g id="node2" class="node">
<title>Node2</title>
<g id="a_node2"><a xlink:href="master_8h.html#ad71d034901cd8e22b4d74da7f86cdda9" target="_top" xlink:title="Begins a PDU&#45;only request.">
<polygon fill="none" stroke="black" points="0.5,-38.5 0.5,-57.5 133.5,-57.5 133.5,-38.5 0.5,-38.5"/>
<text text-anchor="middle" x="67" y="-45.5" font-family="Helvetica,sans-Serif" font-size="10.00">modbusBeginRequestPDU</text>
</a>
</g>
</g>
<!-- Node1&#45;&gt;Node2 -->
<g id="edge1" class="edge">
<title>Node1&#45;&gt;Node2</title>
<path fill="none" stroke="midnightblue" d="M159.61,-37.26C150.95,-38.27 142.12,-39.31 133.54,-40.31"/>
<polygon fill="midnightblue" stroke="midnightblue" points="160.15,-40.72 169.68,-36.07 159.34,-33.76 160.15,-40.72"/>
</g>
<!-- Node3 -->
<g id="node3" class="node">
<title>Node3</title>
<g id="a_node3"><a xlink:href="slave_8h.html#ab5c5f3146a46cf8d221aca22e9c8a052" target="_top" xlink:title="Parses provided PDU and generates PDU for the response frame.">
<polygon fill="none" stroke="black" points="0,-0.5 0,-19.5 134,-19.5 134,-0.5 0,-0.5"/>
<text text-anchor="middle" x="67" y="-7.5" font-family="Helvetica,sans-Serif" font-size="10.00">modbusParseRequestPDU</text>
</a>
</g>
</g>
<!-- Node1&#45;&gt;Node3 -->
<g id="edge2" class="edge">
<title>Node1&#45;&gt;Node3</title>
<path fill="none" stroke="midnightblue" d="M159.49,-20.73C151.05,-19.74 142.46,-18.73 134.09,-17.75"/>
<polygon fill="midnightblue" stroke="midnightblue" points="159.34,-24.24 169.68,-21.93 160.15,-17.28 159.34,-24.24"/>
</g>
</g>
</svg>
