<?xml version="1.0" encoding="UTF-8" standalone="no"?>
<!DOCTYPE svg PUBLIC "-//W3C//DTD SVG 1.1//EN"
 "http://www.w3.org/Graphics/SVG/1.1/DTD/svg11.dtd">
<!-- Generated by graphviz version 2.44.0 ()
 -->
<!-- Title: modbusRBE Pages: 1 -->
<svg width="277pt" height="332pt"
 viewBox="0.00 0.00 277.00 332.00" xmlns="http://www.w3.org/2000/svg" xmlns:xlink="http://www.w3.org/1999/xlink">
<g id="graph0" class="graph" transform="scale(1 1) rotate(0) translate(4 328)">
<title>modbusRBE</title>
<!-- Node1 -->
<g id="node1" class="node">
<title>Node1</title>
<g id="a_node1"><a xlink:title="Safely reads a big&#45;endian 16&#45;bit word from provided pointer.">
<polygon fill="#bfbfbf" stroke="black" points="198,-152.5 198,-171.5 269,-171.5 269,-152.5 198,-152.5"/>
<text text-anchor="middle" x="233.5" y="-159.5" font-family="Helvetica,sans-Serif" font-size="10.00">modbusRBE</text>
</a>
</g>
</g>
<!-- Node2 -->
<g id="node2" class="node">
<title>Node2</title>
<g id="a_node2"><a xlink:href="slave__func_8h.html#aff8edb5d03d53414296edee03a83691a" target="_top" xlink:title="Handles requests 01, 02, 03 and 04 (Read Multiple XX) and generates response.">
<polygon fill="none" stroke="black" points="3.5,-304.5 3.5,-323.5 158.5,-323.5 158.5,-304.5 3.5,-304.5"/>
<text text-anchor="middle" x="81" y="-311.5" font-family="Helvetica,sans-Serif" font-size="10.00">modbusParseRequest01020304</text>
</a>
</g>
</g>
<!-- Node1&#45;&gt;Node2 -->
<g id="edge1" class="edge">
<title>Node1&#45;&gt;Node2</title>
<path fill="none" stroke="midnightblue" d="M227.63,-181.73C219.34,-211.09 199.58,-265.94 162,-295 157.03,-298.84 151.41,-301.93 145.5,-304.4"/>
<polygon fill="midnightblue" stroke="midnightblue" points="231.08,-182.39 230.27,-171.83 224.31,-180.59 231.08,-182.39"/>
</g>
<!-- Node3 -->
<g id="node3" class="node">
<title>Node3</title>
<g id="a_node3"><a xlink:href="slave__func_8h.html#ad3a342d423dbc1142cd509768ac986e7" target="_top" xlink:title="Handles requests 05 and 06 (Write Single XX) and generates response.">
<polygon fill="none" stroke="black" points="14,-266.5 14,-285.5 148,-285.5 148,-266.5 14,-266.5"/>
<text text-anchor="middle" x="81" y="-273.5" font-family="Helvetica,sans-Serif" font-size="10.00">modbusParseRequest0506</text>
</a>
</g>
</g>
<!-- Node1&#45;&gt;Node3 -->
<g id="edge2" class="edge">
<title>Node1&#45;&gt;Node3</title>
<path fill="none" stroke="midnightblue" d="M223.69,-180.76C212.47,-202.53 191.02,-237.87 162,-257 156.16,-260.85 149.62,-263.92 142.87,-266.37"/>
<polygon fill="midnightblue" stroke="midnightblue" points="226.94,-182.07 228.24,-171.56 220.67,-178.97 226.94,-182.07"/>
</g>
<!-- Node4 -->
<g id="node4" class="node">
<title>Node4</title>
<g id="a_node4"><a xlink:href="slave__func_8h.html#a50a1e72594d7aec7101698bf9089b4de" target="_top" xlink:title="Handles requests 15 and 16 (Write Multiple XX) and generates response.">
<polygon fill="none" stroke="black" points="14,-228.5 14,-247.5 148,-247.5 148,-228.5 14,-228.5"/>
<text text-anchor="middle" x="81" y="-235.5" font-family="Helvetica,sans-Serif" font-size="10.00">modbusParseRequest1516</text>
</a>
</g>
</g>
<!-- Node1&#45;&gt;Node4 -->
<g id="edge3" class="edge">
<title>Node1&#45;&gt;Node4</title>
<path fill="none" stroke="midnightblue" d="M215.99,-178.98C202.59,-191.81 182.59,-208.89 162,-219 154.18,-222.84 145.55,-225.93 136.93,-228.4"/>
<polygon fill="midnightblue" stroke="midnightblue" points="218.77,-181.16 223.43,-171.64 213.86,-176.17 218.77,-181.16"/>
</g>
<!-- Node5 -->
<g id="node5" class="node">
<title>Node5</title>
<g id="a_node5"><a xlink:href="slave__func_8h.html#a6495bc98691e5e944456bcc222d6ec63" target="_top" xlink:title="Handles request 22 (Mask Write Register) and generates response.">
<polygon fill="none" stroke="black" points="19.5,-190.5 19.5,-209.5 142.5,-209.5 142.5,-190.5 19.5,-190.5"/>
<text text-anchor="middle" x="81" y="-197.5" font-family="Helvetica,sans-Serif" font-size="10.00">modbusParseRequest22</text>
</a>
</g>
</g>
<!-- Node1&#45;&gt;Node5 -->
<g id="edge4" class="edge">
<title>Node1&#45;&gt;Node5</title>
<path fill="none" stroke="midnightblue" d="M187.91,-174.24C179.32,-176.53 170.39,-178.87 162,-181 149.41,-184.19 135.66,-187.51 123.17,-190.47"/>
<polygon fill="midnightblue" stroke="midnightblue" points="189.02,-177.56 197.77,-171.58 187.21,-170.8 189.02,-177.56"/>
</g>
<!-- Node6 -->
<g id="node6" class="node">
<title>Node6</title>
<g id="a_node6"><a xlink:href="slave_8h.html#a5ad3fe86aa14f8982d7c459c68cd8b3e" target="_top" xlink:title="Parses provided Modbus TCP request frame and generates a Modbus TCP response.">
<polygon fill="none" stroke="black" points="15,-152.5 15,-171.5 147,-171.5 147,-152.5 15,-152.5"/>
<text text-anchor="middle" x="81" y="-159.5" font-family="Helvetica,sans-Serif" font-size="10.00">modbusParseRequestTCP</text>
</a>
</g>
</g>
<!-- Node1&#45;&gt;Node6 -->
<g id="edge5" class="edge">
<title>Node1&#45;&gt;Node6</title>
<path fill="none" stroke="midnightblue" d="M187.65,-162C174.93,-162 160.82,-162 147.15,-162"/>
<polygon fill="midnightblue" stroke="midnightblue" points="187.97,-165.5 197.97,-162 187.97,-158.5 187.97,-165.5"/>
</g>
<!-- Node7 -->
<g id="node7" class="node">
<title>Node7</title>
<g id="a_node7"><a xlink:href="master__func_8h.html#adafbaa72d4df36b3577ce5494b460a2b" target="_top" xlink:title="Parses response to requests 01, 02, 03 and 04.">
<polygon fill="none" stroke="black" points="0,-114.5 0,-133.5 162,-133.5 162,-114.5 0,-114.5"/>
<text text-anchor="middle" x="81" y="-121.5" font-family="Helvetica,sans-Serif" font-size="10.00">modbusParseResponse01020304</text>
</a>
</g>
</g>
<!-- Node1&#45;&gt;Node7 -->
<g id="edge6" class="edge">
<title>Node1&#45;&gt;Node7</title>
<path fill="none" stroke="midnightblue" d="M187.91,-149.76C179.32,-147.47 170.39,-145.13 162,-143 149.41,-139.81 135.66,-136.49 123.17,-133.53"/>
<polygon fill="midnightblue" stroke="midnightblue" points="187.21,-153.2 197.77,-152.42 189.02,-146.44 187.21,-153.2"/>
</g>
<!-- Node8 -->
<g id="node8" class="node">
<title>Node8</title>
<g id="a_node8"><a xlink:href="master__func_8h.html#a1a105f7339569601abe367a3254d38dc" target="_top" xlink:title="Parses response to requests 05 and 06.">
<polygon fill="none" stroke="black" points="10.5,-76.5 10.5,-95.5 151.5,-95.5 151.5,-76.5 10.5,-76.5"/>
<text text-anchor="middle" x="81" y="-83.5" font-family="Helvetica,sans-Serif" font-size="10.00">modbusParseResponse0506</text>
</a>
</g>
</g>
<!-- Node1&#45;&gt;Node8 -->
<g id="edge7" class="edge">
<title>Node1&#45;&gt;Node8</title>
<path fill="none" stroke="midnightblue" d="M215.99,-145.02C202.59,-132.19 182.59,-115.11 162,-105 154.18,-101.16 145.55,-98.07 136.93,-95.6"/>
<polygon fill="midnightblue" stroke="midnightblue" points="213.86,-147.83 223.43,-152.36 218.77,-142.84 213.86,-147.83"/>
</g>
<!-- Node9 -->
<g id="node9" class="node">
<title>Node9</title>
<g id="a_node9"><a xlink:href="master__func_8h.html#a0c53ade25c249f6aeed8c877b98f8016" target="_top" xlink:title="Parses response to requests 15 and 16 (write mutliple regsiters/coils)">
<polygon fill="none" stroke="black" points="10.5,-38.5 10.5,-57.5 151.5,-57.5 151.5,-38.5 10.5,-38.5"/>
<text text-anchor="middle" x="81" y="-45.5" font-family="Helvetica,sans-Serif" font-size="10.00">modbusParseResponse1516</text>
</a>
</g>
</g>
<!-- Node1&#45;&gt;Node9 -->
<g id="edge8" class="edge">
<title>Node1&#45;&gt;Node9</title>
<path fill="none" stroke="midnightblue" d="M223.69,-143.24C212.47,-121.47 191.02,-86.13 162,-67 156.16,-63.15 149.62,-60.08 142.87,-57.63"/>
<polygon fill="midnightblue" stroke="midnightblue" points="220.67,-145.03 228.24,-152.44 226.94,-141.93 220.67,-145.03"/>
</g>
<!-- Node10 -->
<g id="node10" class="node">
<title>Node10</title>
<g id="a_node10"><a xlink:href="master_8h.html#a53ea67c733b1e627e1cdcb0003270a1b" target="_top" xlink:title="Parses a Modbus TCP slave response.">
<polygon fill="none" stroke="black" points="11,-0.5 11,-19.5 151,-19.5 151,-0.5 11,-0.5"/>
<text text-anchor="middle" x="81" y="-7.5" font-family="Helvetica,sans-Serif" font-size="10.00">modbusParseResponseTCP</text>
</a>
</g>
</g>
<!-- Node1&#45;&gt;Node10 -->
<g id="edge9" class="edge">
<title>Node1&#45;&gt;Node10</title>
<path fill="none" stroke="midnightblue" d="M227.63,-142.27C219.34,-112.91 199.58,-58.06 162,-29 157.03,-25.16 151.41,-22.07 145.5,-19.6"/>
<polygon fill="midnightblue" stroke="midnightblue" points="224.31,-143.41 230.27,-152.17 231.08,-141.61 224.31,-143.41"/>
</g>
</g>
</svg>
