<?xml version="1.0" encoding="UTF-8" standalone="no"?>
<!DOCTYPE svg PUBLIC "-//W3C//DTD SVG 1.1//EN"
 "http://www.w3.org/Graphics/SVG/1.1/DTD/svg11.dtd">
<!-- Generated by graphviz version 2.44.0 ()
 -->
<!-- Title: modbusBufferDestroy Pages: 1 -->
<svg width="268pt" height="66pt"
 viewBox="0.00 0.00 268.00 66.00" xmlns="http://www.w3.org/2000/svg" xmlns:xlink="http://www.w3.org/1999/xlink">
<g id="graph0" class="graph" transform="scale(1 1) rotate(0) translate(4 62)">
<title>modbusBufferDestroy</title>
<!-- Node1 -->
<g id="node1" class="node">
<title>Node1</title>
<g id="a_node1"><a xlink:title="Equivalent of modbusBufferFree() \copydetail modbusBufferFree()">
<polygon fill="#bfbfbf" stroke="black" points="150,-19.5 150,-38.5 260,-38.5 260,-19.5 150,-19.5"/>
<text text-anchor="middle" x="205" y="-26.5" font-family="Helvetica,sans-Serif" font-size="10.00">modbusBufferDestroy</text>
</a>
</g>
</g>
<!-- Node2 -->
<g id="node2" class="node">
<title>Node2</title>
<g id="a_node2"><a xlink:href="master_8h.html#a5fe38fae0f89de04fa616d105f660d25" target="_top" xlink:title="Deinitializes a ModbusMaster struct.">
<polygon fill="none" stroke="black" points="0,-38.5 0,-57.5 114,-57.5 114,-38.5 0,-38.5"/>
<text text-anchor="middle" x="57" y="-45.5" font-family="Helvetica,sans-Serif" font-size="10.00">modbusMasterDestroy</text>
</a>
</g>
</g>
<!-- Node1&#45;&gt;Node2 -->
<g id="edge1" class="edge">
<title>Node1&#45;&gt;Node2</title>
<path fill="none" stroke="midnightblue" d="M139.52,-37.39C131.13,-38.48 122.6,-39.59 114.36,-40.67"/>
<polygon fill="midnightblue" stroke="midnightblue" points="140.17,-40.84 149.63,-36.07 139.27,-33.89 140.17,-40.84"/>
</g>
<!-- Node3 -->
<g id="node3" class="node">
<title>Node3</title>
<g id="a_node3"><a xlink:href="slave_8h.html#a70695c3b7355bc0a3e6d49c46a4eef1f" target="_top" xlink:title="Frees memory allocated in the ModbusSlave struct.">
<polygon fill="none" stroke="black" points="2.5,-0.5 2.5,-19.5 111.5,-19.5 111.5,-0.5 2.5,-0.5"/>
<text text-anchor="middle" x="57" y="-7.5" font-family="Helvetica,sans-Serif" font-size="10.00">modbusSlaveDestroy</text>
</a>
</g>
</g>
<!-- Node1&#45;&gt;Node3 -->
<g id="edge2" class="edge">
<title>Node1&#45;&gt;Node3</title>
<path fill="none" stroke="midnightblue" d="M139.68,-20.63C130.42,-19.42 120.96,-18.19 111.92,-17.02"/>
<polygon fill="midnightblue" stroke="midnightblue" points="139.27,-24.11 149.63,-21.93 140.17,-17.16 139.27,-24.11"/>
</g>
</g>
</svg>
