<?xml version="1.0" encoding="UTF-8" standalone="no"?>
<!DOCTYPE svg PUBLIC "-//W3C//DTD SVG 1.1//EN"
 "http://www.w3.org/Graphics/SVG/1.1/DTD/svg11.dtd">
<!-- Generated by graphviz version 2.44.0 ()
 -->
<!-- Title: include/lightmodbus/base.h Pages: 1 -->
<svg width="818pt" height="374pt"
 viewBox="0.00 0.00 817.63 374.00" xmlns="http://www.w3.org/2000/svg" xmlns:xlink="http://www.w3.org/1999/xlink">
<g id="graph0" class="graph" transform="scale(1 1) rotate(0) translate(4 370)">
<title>include/lightmodbus/base.h</title>
<!-- Node1 -->
<g id="node1" class="node">
<title>Node1</title>
<g id="a_node1"><a xlink:title=" ">
<polygon fill="#bfbfbf" stroke="black" points="215.08,-335.5 215.08,-365.5 318.08,-365.5 318.08,-335.5 215.08,-335.5"/>
<text text-anchor="start" x="223.08" y="-353.5" font-family="Helvetica,sans-Serif" font-size="10.00">include/lightmodbus</text>
<text text-anchor="middle" x="266.58" y="-342.5" font-family="Helvetica,sans-Serif" font-size="10.00">/base.h</text>
</a>
</g>
</g>
<!-- Node2 -->
<g id="node2" class="node">
<title>Node2</title>
<g id="a_node2"><a xlink:href="base_8impl_8h.html" target="_top" xlink:title=" ">
<polygon fill="none" stroke="black" points="14.08,-268.5 14.08,-298.5 117.08,-298.5 117.08,-268.5 14.08,-268.5"/>
<text text-anchor="start" x="22.08" y="-286.5" font-family="Helvetica,sans-Serif" font-size="10.00">include/lightmodbus</text>
<text text-anchor="middle" x="65.58" y="-275.5" font-family="Helvetica,sans-Serif" font-size="10.00">/base.impl.h</text>
</a>
</g>
</g>
<!-- Node1&#45;&gt;Node2 -->
<g id="edge1" class="edge">
<title>Node1&#45;&gt;Node2</title>
<path fill="none" stroke="midnightblue" d="M213.17,-332.23C180.65,-321.71 139.64,-308.45 109.11,-298.58"/>
<polygon fill="midnightblue" stroke="midnightblue" points="212.37,-335.65 222.96,-335.4 214.53,-328.99 212.37,-335.65"/>
</g>
<!-- Node3 -->
<g id="node3" class="node">
<title>Node3</title>
<g id="a_node3"><a xlink:href="lightmodbus_8h.html" target="_top" xlink:title=" ">
<polygon fill="none" stroke="black" points="310.08,-67.5 310.08,-97.5 413.08,-97.5 413.08,-67.5 310.08,-67.5"/>
<text text-anchor="start" x="318.08" y="-85.5" font-family="Helvetica,sans-Serif" font-size="10.00">include/lightmodbus</text>
<text text-anchor="middle" x="361.58" y="-74.5" font-family="Helvetica,sans-Serif" font-size="10.00">/lightmodbus.h</text>
</a>
</g>
</g>
<!-- Node1&#45;&gt;Node3 -->
<g id="edge8" class="edge">
<title>Node1&#45;&gt;Node3</title>
<path fill="none" stroke="midnightblue" d="M204.5,-346.39C135.19,-341.46 29.44,-329.11 4.58,-299 -4.19,-288.38 2.45,-281.61 4.58,-268 14.25,-206.21 0.14,-174.76 47.58,-134 86.05,-100.94 231.07,-89.32 309.86,-85.4"/>
<polygon fill="midnightblue" stroke="midnightblue" points="204.66,-349.91 214.87,-347.09 205.13,-342.92 204.66,-349.91"/>
</g>
<!-- Node5 -->
<g id="node5" class="node">
<title>Node5</title>
<g id="a_node5"><a xlink:href="debug_8h.html" target="_top" xlink:title=" ">
<polygon fill="none" stroke="black" points="373.08,-201.5 373.08,-231.5 476.08,-231.5 476.08,-201.5 373.08,-201.5"/>
<text text-anchor="start" x="381.08" y="-219.5" font-family="Helvetica,sans-Serif" font-size="10.00">include/lightmodbus</text>
<text text-anchor="middle" x="424.58" y="-208.5" font-family="Helvetica,sans-Serif" font-size="10.00">/debug.h</text>
</a>
</g>
</g>
<!-- Node1&#45;&gt;Node5 -->
<g id="edge4" class="edge">
<title>Node1&#45;&gt;Node5</title>
<path fill="none" stroke="midnightblue" d="M291.19,-328.94C323.63,-301.84 379.84,-254.88 407.79,-231.52"/>
<polygon fill="midnightblue" stroke="midnightblue" points="288.92,-326.28 283.49,-335.37 293.41,-331.65 288.92,-326.28"/>
</g>
<!-- Node7 -->
<g id="node7" class="node">
<title>Node7</title>
<g id="a_node7"><a xlink:href="master_8h.html" target="_top" xlink:title=" ">
<polygon fill="none" stroke="black" points="135.08,-268.5 135.08,-298.5 238.08,-298.5 238.08,-268.5 135.08,-268.5"/>
<text text-anchor="start" x="143.08" y="-286.5" font-family="Helvetica,sans-Serif" font-size="10.00">include/lightmodbus</text>
<text text-anchor="middle" x="186.58" y="-275.5" font-family="Helvetica,sans-Serif" font-size="10.00">/master.h</text>
</a>
</g>
</g>
<!-- Node1&#45;&gt;Node7 -->
<g id="edge9" class="edge">
<title>Node1&#45;&gt;Node7</title>
<path fill="none" stroke="midnightblue" d="M241.2,-328.88C229.05,-319.01 214.8,-307.43 203.9,-298.58"/>
<polygon fill="midnightblue" stroke="midnightblue" points="239.25,-331.81 249.22,-335.4 243.67,-326.37 239.25,-331.81"/>
</g>
<!-- Node9 -->
<g id="node9" class="node">
<title>Node9</title>
<g id="a_node9"><a xlink:href="master__func_8h.html" target="_top" xlink:title=" ">
<polygon fill="none" stroke="black" points="215.08,-201.5 215.08,-231.5 318.08,-231.5 318.08,-201.5 215.08,-201.5"/>
<text text-anchor="start" x="223.08" y="-219.5" font-family="Helvetica,sans-Serif" font-size="10.00">include/lightmodbus</text>
<text text-anchor="middle" x="266.58" y="-208.5" font-family="Helvetica,sans-Serif" font-size="10.00">/master_func.h</text>
</a>
</g>
</g>
<!-- Node1&#45;&gt;Node9 -->
<g id="edge19" class="edge">
<title>Node1&#45;&gt;Node9</title>
<path fill="none" stroke="midnightblue" d="M266.58,-325.02C266.58,-297.51 266.58,-253.79 266.58,-231.52"/>
<polygon fill="midnightblue" stroke="midnightblue" points="263.08,-325.37 266.58,-335.37 270.08,-325.37 263.08,-325.37"/>
</g>
<!-- Node11 -->
<g id="node11" class="node">
<title>Node11</title>
<g id="a_node11"><a xlink:href="slave_8h.html" target="_top" xlink:title=" ">
<polygon fill="none" stroke="black" points="508.08,-268.5 508.08,-298.5 611.08,-298.5 611.08,-268.5 508.08,-268.5"/>
<text text-anchor="start" x="516.08" y="-286.5" font-family="Helvetica,sans-Serif" font-size="10.00">include/lightmodbus</text>
<text text-anchor="middle" x="559.58" y="-275.5" font-family="Helvetica,sans-Serif" font-size="10.00">/slave.h</text>
</a>
</g>
</g>
<!-- Node1&#45;&gt;Node11 -->
<g id="edge20" class="edge">
<title>Node1&#45;&gt;Node11</title>
<path fill="none" stroke="midnightblue" d="M328.3,-335.81C381.6,-323.98 457.74,-307.09 507.89,-295.97"/>
<polygon fill="midnightblue" stroke="midnightblue" points="327.29,-332.45 318.29,-338.03 328.81,-339.28 327.29,-332.45"/>
</g>
<!-- Node13 -->
<g id="node13" class="node">
<title>Node13</title>
<g id="a_node13"><a xlink:href="slave__func_8h.html" target="_top" xlink:title=" ">
<polygon fill="none" stroke="black" points="645.08,-201.5 645.08,-231.5 748.08,-231.5 748.08,-201.5 645.08,-201.5"/>
<text text-anchor="start" x="653.08" y="-219.5" font-family="Helvetica,sans-Serif" font-size="10.00">include/lightmodbus</text>
<text text-anchor="middle" x="696.58" y="-208.5" font-family="Helvetica,sans-Serif" font-size="10.00">/slave_func.h</text>
</a>
</g>
</g>
<!-- Node1&#45;&gt;Node13 -->
<g id="edge31" class="edge">
<title>Node1&#45;&gt;Node13</title>
<path fill="none" stroke="midnightblue" d="M328.38,-345.64C415.95,-339.33 571.01,-324.87 620.58,-299 650.76,-283.25 675.37,-250.63 687.79,-231.79"/>
<polygon fill="midnightblue" stroke="midnightblue" points="328.04,-342.15 318.31,-346.35 328.53,-349.14 328.04,-342.15"/>
</g>
<!-- Node2&#45;&gt;Node3 -->
<g id="edge2" class="edge">
<title>Node2&#45;&gt;Node3</title>
<path fill="none" stroke="midnightblue" d="M57.22,-258.24C47.76,-225.87 37.19,-168.61 66.58,-134 97.23,-97.91 233.75,-87.61 309.87,-84.67"/>
<polygon fill="midnightblue" stroke="midnightblue" points="54.01,-259.7 60.33,-268.2 60.69,-257.61 54.01,-259.7"/>
</g>
<!-- Node4 -->
<g id="node4" class="node">
<title>Node4</title>
<g id="a_node4"><a xlink:href="lightmodbus_8hpp.html" target="_top" xlink:title=" ">
<polygon fill="none" stroke="black" points="310.08,-0.5 310.08,-30.5 413.08,-30.5 413.08,-0.5 310.08,-0.5"/>
<text text-anchor="start" x="318.08" y="-18.5" font-family="Helvetica,sans-Serif" font-size="10.00">include/lightmodbus</text>
<text text-anchor="middle" x="361.58" y="-7.5" font-family="Helvetica,sans-Serif" font-size="10.00">/lightmodbus.hpp</text>
</a>
</g>
</g>
<!-- Node3&#45;&gt;Node4 -->
<g id="edge3" class="edge">
<title>Node3&#45;&gt;Node4</title>
<path fill="none" stroke="midnightblue" d="M361.58,-57.11C361.58,-48.15 361.58,-38.32 361.58,-30.58"/>
<polygon fill="midnightblue" stroke="midnightblue" points="358.08,-57.4 361.58,-67.4 365.08,-57.4 358.08,-57.4"/>
</g>
<!-- Node5&#45;&gt;Node3 -->
<g id="edge7" class="edge">
<title>Node5&#45;&gt;Node3</title>
<path fill="none" stroke="midnightblue" d="M413.42,-192.12C400.32,-164.68 379.04,-120.09 368.27,-97.52"/>
<polygon fill="midnightblue" stroke="midnightblue" points="410.37,-193.86 417.84,-201.37 416.69,-190.84 410.37,-193.86"/>
</g>
<!-- Node6 -->
<g id="node6" class="node">
<title>Node6</title>
<g id="a_node6"><a xlink:href="debug_8impl_8h.html" target="_top" xlink:title=" ">
<polygon fill="none" stroke="black" points="409.08,-134.5 409.08,-164.5 512.08,-164.5 512.08,-134.5 409.08,-134.5"/>
<text text-anchor="start" x="417.08" y="-152.5" font-family="Helvetica,sans-Serif" font-size="10.00">include/lightmodbus</text>
<text text-anchor="middle" x="460.58" y="-141.5" font-family="Helvetica,sans-Serif" font-size="10.00">/debug.impl.h</text>
</a>
</g>
</g>
<!-- Node5&#45;&gt;Node6 -->
<g id="edge5" class="edge">
<title>Node5&#45;&gt;Node6</title>
<path fill="none" stroke="midnightblue" d="M437.27,-192.58C442.44,-183.24 448.26,-172.75 452.78,-164.58"/>
<polygon fill="midnightblue" stroke="midnightblue" points="434.17,-190.95 432.39,-201.4 440.3,-194.34 434.17,-190.95"/>
</g>
<!-- Node6&#45;&gt;Node3 -->
<g id="edge6" class="edge">
<title>Node6&#45;&gt;Node3</title>
<path fill="none" stroke="midnightblue" d="M430.47,-128.73C415.15,-118.68 396.89,-106.68 383.02,-97.58"/>
<polygon fill="midnightblue" stroke="midnightblue" points="428.82,-131.83 439.1,-134.4 432.66,-125.98 428.82,-131.83"/>
</g>
<!-- Node7&#45;&gt;Node3 -->
<g id="edge10" class="edge">
<title>Node7&#45;&gt;Node3</title>
<path fill="none" stroke="midnightblue" d="M154.83,-262.84C111.68,-233.73 43.89,-177.87 80.58,-134 109.24,-99.73 236.85,-88.68 309.86,-85.15"/>
<polygon fill="midnightblue" stroke="midnightblue" points="153.08,-265.88 163.35,-268.47 156.93,-260.04 153.08,-265.88"/>
</g>
<!-- Node8 -->
<g id="node8" class="node">
<title>Node8</title>
<g id="a_node8"><a xlink:href="master_8impl_8h.html" target="_top" xlink:title=" ">
<polygon fill="none" stroke="black" points="90.08,-134.5 90.08,-164.5 193.08,-164.5 193.08,-134.5 90.08,-134.5"/>
<text text-anchor="start" x="98.08" y="-152.5" font-family="Helvetica,sans-Serif" font-size="10.00">include/lightmodbus</text>
<text text-anchor="middle" x="141.58" y="-141.5" font-family="Helvetica,sans-Serif" font-size="10.00">/master.impl.h</text>
</a>
</g>
</g>
<!-- Node7&#45;&gt;Node8 -->
<g id="edge11" class="edge">
<title>Node7&#45;&gt;Node8</title>
<path fill="none" stroke="midnightblue" d="M178.48,-258.75C169.12,-231.29 154.02,-186.99 146.36,-164.52"/>
<polygon fill="midnightblue" stroke="midnightblue" points="175.22,-260.04 181.76,-268.37 181.85,-257.78 175.22,-260.04"/>
</g>
<!-- Node7&#45;&gt;Node9 -->
<g id="edge13" class="edge">
<title>Node7&#45;&gt;Node9</title>
<path fill="none" stroke="midnightblue" d="M211.95,-261.88C224.11,-252.01 238.36,-240.43 249.25,-231.58"/>
<polygon fill="midnightblue" stroke="midnightblue" points="209.49,-259.37 203.94,-268.4 213.91,-264.81 209.49,-259.37"/>
</g>
<!-- Node10 -->
<g id="node10" class="node">
<title>Node10</title>
<g id="a_node10"><a xlink:href="master__func_8impl_8h.html" target="_top" xlink:title=" ">
<polygon fill="none" stroke="black" points="211.08,-134.5 211.08,-164.5 314.08,-164.5 314.08,-134.5 211.08,-134.5"/>
<text text-anchor="start" x="219.08" y="-152.5" font-family="Helvetica,sans-Serif" font-size="10.00">include/lightmodbus</text>
<text text-anchor="middle" x="262.58" y="-141.5" font-family="Helvetica,sans-Serif" font-size="10.00">/master_func.impl.h</text>
</a>
</g>
</g>
<!-- Node7&#45;&gt;Node10 -->
<g id="edge18" class="edge">
<title>Node7&#45;&gt;Node10</title>
<path fill="none" stroke="midnightblue" d="M188.76,-258.05C191.15,-241.06 196.15,-218.44 206.58,-201 215.31,-186.39 229.62,-173.6 241.58,-164.54"/>
<polygon fill="midnightblue" stroke="midnightblue" points="185.25,-257.94 187.53,-268.28 192.2,-258.77 185.25,-257.94"/>
</g>
<!-- Node8&#45;&gt;Node3 -->
<g id="edge12" class="edge">
<title>Node8&#45;&gt;Node3</title>
<path fill="none" stroke="midnightblue" d="M198.85,-131.58C234.58,-121.02 280.04,-107.59 313.82,-97.61"/>
<polygon fill="midnightblue" stroke="midnightblue" points="197.64,-128.29 189.04,-134.48 199.63,-135 197.64,-128.29"/>
</g>
<!-- Node9&#45;&gt;Node3 -->
<g id="edge14" class="edge">
<title>Node9&#45;&gt;Node3</title>
<path fill="none" stroke="midnightblue" d="M294.03,-195.12C304.21,-186.61 315.28,-176.12 323.58,-165 339.45,-143.73 351,-114.77 356.97,-97.71"/>
<polygon fill="midnightblue" stroke="midnightblue" points="291.71,-192.49 286.13,-201.49 296.11,-197.94 291.71,-192.49"/>
</g>
<!-- Node9&#45;&gt;Node8 -->
<g id="edge15" class="edge">
<title>Node9&#45;&gt;Node8</title>
<path fill="none" stroke="midnightblue" d="M230.45,-196.71C210.74,-186.46 186.74,-173.98 168.65,-164.58"/>
<polygon fill="midnightblue" stroke="midnightblue" points="228.97,-199.89 239.45,-201.4 232.2,-193.68 228.97,-199.89"/>
</g>
<!-- Node9&#45;&gt;Node10 -->
<g id="edge16" class="edge">
<title>Node9&#45;&gt;Node10</title>
<path fill="none" stroke="midnightblue" d="M265.1,-191.4C264.54,-182.37 263.93,-172.41 263.44,-164.58"/>
<polygon fill="midnightblue" stroke="midnightblue" points="261.6,-191.63 265.71,-201.4 268.59,-191.2 261.6,-191.63"/>
</g>
<!-- Node10&#45;&gt;Node3 -->
<g id="edge17" class="edge">
<title>Node10&#45;&gt;Node3</title>
<path fill="none" stroke="midnightblue" d="M292.68,-128.73C308,-118.68 326.27,-106.68 340.14,-97.58"/>
<polygon fill="midnightblue" stroke="midnightblue" points="290.5,-125.98 284.06,-134.4 294.34,-131.83 290.5,-125.98"/>
</g>
<!-- Node11&#45;&gt;Node3 -->
<g id="edge22" class="edge">
<title>Node11&#45;&gt;Node3</title>
<path fill="none" stroke="midnightblue" d="M560.2,-258.08C559.67,-225.51 553.79,-168.04 521.58,-134 493.55,-104.38 448.33,-92.05 413.1,-86.96"/>
<polygon fill="midnightblue" stroke="midnightblue" points="556.7,-258.1 560.2,-268.1 563.7,-258.09 556.7,-258.1"/>
</g>
<!-- Node11&#45;&gt;Node5 -->
<g id="edge21" class="edge">
<title>Node11&#45;&gt;Node5</title>
<path fill="none" stroke="midnightblue" d="M521.14,-263.99C499.74,-253.69 473.53,-241.07 453.81,-231.58"/>
<polygon fill="midnightblue" stroke="midnightblue" points="519.76,-267.21 530.28,-268.4 522.79,-260.9 519.76,-267.21"/>
</g>
<!-- Node12 -->
<g id="node12" class="node">
<title>Node12</title>
<g id="a_node12"><a xlink:href="slave_8impl_8h.html" target="_top" xlink:title=" ">
<polygon fill="none" stroke="black" points="690.08,-134.5 690.08,-164.5 793.08,-164.5 793.08,-134.5 690.08,-134.5"/>
<text text-anchor="start" x="698.08" y="-152.5" font-family="Helvetica,sans-Serif" font-size="10.00">include/lightmodbus</text>
<text text-anchor="middle" x="741.58" y="-141.5" font-family="Helvetica,sans-Serif" font-size="10.00">/slave.impl.h</text>
</a>
</g>
</g>
<!-- Node11&#45;&gt;Node12 -->
<g id="edge23" class="edge">
<title>Node11&#45;&gt;Node12</title>
<path fill="none" stroke="midnightblue" d="M578.71,-260.51C597.14,-239.65 624.02,-210.18 636.58,-201 657.32,-185.84 683.32,-173.3 704.26,-164.5"/>
<polygon fill="midnightblue" stroke="midnightblue" points="575.84,-258.47 571.87,-268.29 581.1,-263.09 575.84,-258.47"/>
</g>
<!-- Node11&#45;&gt;Node13 -->
<g id="edge25" class="edge">
<title>Node11&#45;&gt;Node13</title>
<path fill="none" stroke="midnightblue" d="M598.59,-263.99C620.3,-253.69 646.9,-241.07 666.91,-231.58"/>
<polygon fill="midnightblue" stroke="midnightblue" points="596.84,-260.95 589.3,-268.4 599.84,-267.27 596.84,-260.95"/>
</g>
<!-- Node14 -->
<g id="node14" class="node">
<title>Node14</title>
<g id="a_node14"><a xlink:href="slave__func_8impl_8h.html" target="_top" xlink:title=" ">
<polygon fill="none" stroke="black" points="569.08,-134.5 569.08,-164.5 672.08,-164.5 672.08,-134.5 569.08,-134.5"/>
<text text-anchor="start" x="577.08" y="-152.5" font-family="Helvetica,sans-Serif" font-size="10.00">include/lightmodbus</text>
<text text-anchor="middle" x="620.58" y="-141.5" font-family="Helvetica,sans-Serif" font-size="10.00">/slave_func.impl.h</text>
</a>
</g>
</g>
<!-- Node11&#45;&gt;Node14 -->
<g id="edge30" class="edge">
<title>Node11&#45;&gt;Node14</title>
<path fill="none" stroke="midnightblue" d="M570.38,-259.12C583.06,-231.68 603.67,-187.09 614.1,-164.52"/>
<polygon fill="midnightblue" stroke="midnightblue" points="567.12,-257.83 566.11,-268.37 573.48,-260.76 567.12,-257.83"/>
</g>
<!-- Node12&#45;&gt;Node3 -->
<g id="edge24" class="edge">
<title>Node12&#45;&gt;Node3</title>
<path fill="none" stroke="midnightblue" d="M680,-133.77C580.45,-114.21 474.77,-98.79 413.35,-90.36"/>
<polygon fill="midnightblue" stroke="midnightblue" points="679.44,-137.23 689.93,-135.74 680.8,-130.36 679.44,-137.23"/>
</g>
<!-- Node13&#45;&gt;Node3 -->
<g id="edge26" class="edge">
<title>Node13&#45;&gt;Node3</title>
<path fill="none" stroke="midnightblue" d="M750.31,-197.57C787.04,-182.52 825.27,-159.44 802.58,-134 777.02,-105.35 524.1,-90.71 413.22,-85.62"/>
<polygon fill="midnightblue" stroke="midnightblue" points="748.57,-194.49 740.55,-201.41 751.13,-201 748.57,-194.49"/>
</g>
<!-- Node13&#45;&gt;Node12 -->
<g id="edge27" class="edge">
<title>Node13&#45;&gt;Node12</title>
<path fill="none" stroke="midnightblue" d="M712.05,-193.16C718.61,-183.68 726.06,-172.92 731.83,-164.58"/>
<polygon fill="midnightblue" stroke="midnightblue" points="709.16,-191.18 706.34,-201.4 714.91,-195.17 709.16,-191.18"/>
</g>
<!-- Node13&#45;&gt;Node14 -->
<g id="edge28" class="edge">
<title>Node13&#45;&gt;Node14</title>
<path fill="none" stroke="midnightblue" d="M672.47,-194.88C660.92,-185.01 647.39,-173.43 637.04,-164.58"/>
<polygon fill="midnightblue" stroke="midnightblue" points="670.21,-197.56 680.09,-201.4 674.76,-192.24 670.21,-197.56"/>
</g>
<!-- Node14&#45;&gt;Node3 -->
<g id="edge29" class="edge">
<title>Node14&#45;&gt;Node3</title>
<path fill="none" stroke="midnightblue" d="M558.98,-133.04C514.55,-121.89 455.25,-107.01 413.28,-96.47"/>
<polygon fill="midnightblue" stroke="midnightblue" points="558.24,-136.46 568.79,-135.5 559.94,-129.67 558.24,-136.46"/>
</g>
</g>
</svg>
