<?xml version="1.0" encoding="UTF-8" standalone="no"?>
<!DOCTYPE svg PUBLIC "-//W3C//DTD SVG 1.1//EN"
 "http://www.w3.org/Graphics/SVG/1.1/DTD/svg11.dtd">
<!-- Generated by graphviz version 2.44.0 ()
 -->
<!-- Title: include/lightmodbus/base.h Pages: 1 -->
<svg width="818pt" height="307pt"
 viewBox="0.00 0.00 817.63 307.00" xmlns="http://www.w3.org/2000/svg" xmlns:xlink="http://www.w3.org/1999/xlink">
<g id="graph0" class="graph" transform="scale(1 1) rotate(0) translate(4 303)">
<title>include/lightmodbus/base.h</title>
<!-- Node1 -->
<g id="node1" class="node">
<title>Node1</title>
<g id="a_node1"><a xlink:title=" ">
<polygon fill="#bfbfbf" stroke="black" points="215.08,-268.5 215.08,-298.5 318.08,-298.5 318.08,-268.5 215.08,-268.5"/>
<text text-anchor="start" x="223.08" y="-286.5" font-family="Helvetica,sans-Serif" font-size="10.00">include/lightmodbus</text>
<text text-anchor="middle" x="266.58" y="-275.5" font-family="Helvetica,sans-Serif" font-size="10.00">/base.h</text>
</a>
</g>
</g>
<!-- Node2 -->
<g id="node2" class="node">
<title>Node2</title>
<g id="a_node2"><a xlink:href="base_8impl_8h.html" target="_top" xlink:title=" ">
<polygon fill="none" stroke="black" points="14.08,-201.5 14.08,-231.5 117.08,-231.5 117.08,-201.5 14.08,-201.5"/>
<text text-anchor="start" x="22.08" y="-219.5" font-family="Helvetica,sans-Serif" font-size="10.00">include/lightmodbus</text>
<text text-anchor="middle" x="65.58" y="-208.5" font-family="Helvetica,sans-Serif" font-size="10.00">/base.impl.h</text>
</a>
</g>
</g>
<!-- Node1&#45;&gt;Node2 -->
<g id="edge1" class="edge">
<title>Node1&#45;&gt;Node2</title>
<path fill="none" stroke="midnightblue" d="M213.17,-265.23C180.65,-254.71 139.64,-241.45 109.11,-231.58"/>
<polygon fill="midnightblue" stroke="midnightblue" points="212.37,-268.65 222.96,-268.4 214.53,-261.99 212.37,-268.65"/>
</g>
<!-- Node3 -->
<g id="node3" class="node">
<title>Node3</title>
<g id="a_node3"><a xlink:href="lightmodbus_8h.html" target="_top" xlink:title=" ">
<polygon fill="none" stroke="black" points="310.08,-0.5 310.08,-30.5 413.08,-30.5 413.08,-0.5 310.08,-0.5"/>
<text text-anchor="start" x="318.08" y="-18.5" font-family="Helvetica,sans-Serif" font-size="10.00">include/lightmodbus</text>
<text text-anchor="middle" x="361.58" y="-7.5" font-family="Helvetica,sans-Serif" font-size="10.00">/lightmodbus.h</text>
</a>
</g>
</g>
<!-- Node1&#45;&gt;Node3 -->
<g id="edge7" class="edge">
<title>Node1&#45;&gt;Node3</title>
<path fill="none" stroke="midnightblue" d="M204.5,-279.39C135.19,-274.46 29.44,-262.11 4.58,-232 -4.19,-221.38 2.45,-214.61 4.58,-201 14.25,-139.21 0.14,-107.76 47.58,-67 86.05,-33.94 231.07,-22.32 309.86,-18.4"/>
<polygon fill="midnightblue" stroke="midnightblue" points="204.66,-282.91 214.87,-280.09 205.13,-275.92 204.66,-282.91"/>
</g>
<!-- Node4 -->
<g id="node4" class="node">
<title>Node4</title>
<g id="a_node4"><a xlink:href="debug_8h.html" target="_top" xlink:title=" ">
<polygon fill="none" stroke="black" points="373.08,-134.5 373.08,-164.5 476.08,-164.5 476.08,-134.5 373.08,-134.5"/>
<text text-anchor="start" x="381.08" y="-152.5" font-family="Helvetica,sans-Serif" font-size="10.00">include/lightmodbus</text>
<text text-anchor="middle" x="424.58" y="-141.5" font-family="Helvetica,sans-Serif" font-size="10.00">/debug.h</text>
</a>
</g>
</g>
<!-- Node1&#45;&gt;Node4 -->
<g id="edge3" class="edge">
<title>Node1&#45;&gt;Node4</title>
<path fill="none" stroke="midnightblue" d="M291.19,-261.94C323.63,-234.84 379.84,-187.88 407.79,-164.52"/>
<polygon fill="midnightblue" stroke="midnightblue" points="288.92,-259.28 283.49,-268.37 293.41,-264.65 288.92,-259.28"/>
</g>
<!-- Node6 -->
<g id="node6" class="node">
<title>Node6</title>
<g id="a_node6"><a xlink:href="master_8h.html" target="_top" xlink:title=" ">
<polygon fill="none" stroke="black" points="135.08,-201.5 135.08,-231.5 238.08,-231.5 238.08,-201.5 135.08,-201.5"/>
<text text-anchor="start" x="143.08" y="-219.5" font-family="Helvetica,sans-Serif" font-size="10.00">include/lightmodbus</text>
<text text-anchor="middle" x="186.58" y="-208.5" font-family="Helvetica,sans-Serif" font-size="10.00">/master.h</text>
</a>
</g>
</g>
<!-- Node1&#45;&gt;Node6 -->
<g id="edge8" class="edge">
<title>Node1&#45;&gt;Node6</title>
<path fill="none" stroke="midnightblue" d="M241.2,-261.88C229.05,-252.01 214.8,-240.43 203.9,-231.58"/>
<polygon fill="midnightblue" stroke="midnightblue" points="239.25,-264.81 249.22,-268.4 243.67,-259.37 239.25,-264.81"/>
</g>
<!-- Node8 -->
<g id="node8" class="node">
<title>Node8</title>
<g id="a_node8"><a xlink:href="master__func_8h.html" target="_top" xlink:title=" ">
<polygon fill="none" stroke="black" points="215.08,-134.5 215.08,-164.5 318.08,-164.5 318.08,-134.5 215.08,-134.5"/>
<text text-anchor="start" x="223.08" y="-152.5" font-family="Helvetica,sans-Serif" font-size="10.00">include/lightmodbus</text>
<text text-anchor="middle" x="266.58" y="-141.5" font-family="Helvetica,sans-Serif" font-size="10.00">/master_func.h</text>
</a>
</g>
</g>
<!-- Node1&#45;&gt;Node8 -->
<g id="edge18" class="edge">
<title>Node1&#45;&gt;Node8</title>
<path fill="none" stroke="midnightblue" d="M266.58,-258.02C266.58,-230.51 266.58,-186.79 266.58,-164.52"/>
<polygon fill="midnightblue" stroke="midnightblue" points="263.08,-258.37 266.58,-268.37 270.08,-258.37 263.08,-258.37"/>
</g>
<!-- Node10 -->
<g id="node10" class="node">
<title>Node10</title>
<g id="a_node10"><a xlink:href="slave_8h.html" target="_top" xlink:title=" ">
<polygon fill="none" stroke="black" points="508.08,-201.5 508.08,-231.5 611.08,-231.5 611.08,-201.5 508.08,-201.5"/>
<text text-anchor="start" x="516.08" y="-219.5" font-family="Helvetica,sans-Serif" font-size="10.00">include/lightmodbus</text>
<text text-anchor="middle" x="559.58" y="-208.5" font-family="Helvetica,sans-Serif" font-size="10.00">/slave.h</text>
</a>
</g>
</g>
<!-- Node1&#45;&gt;Node10 -->
<g id="edge19" class="edge">
<title>Node1&#45;&gt;Node10</title>
<path fill="none" stroke="midnightblue" d="M328.3,-268.81C381.6,-256.98 457.74,-240.09 507.89,-228.97"/>
<polygon fill="midnightblue" stroke="midnightblue" points="327.29,-265.45 318.29,-271.03 328.81,-272.28 327.29,-265.45"/>
</g>
<!-- Node12 -->
<g id="node12" class="node">
<title>Node12</title>
<g id="a_node12"><a xlink:href="slave__func_8h.html" target="_top" xlink:title=" ">
<polygon fill="none" stroke="black" points="645.08,-134.5 645.08,-164.5 748.08,-164.5 748.08,-134.5 645.08,-134.5"/>
<text text-anchor="start" x="653.08" y="-152.5" font-family="Helvetica,sans-Serif" font-size="10.00">include/lightmodbus</text>
<text text-anchor="middle" x="696.58" y="-141.5" font-family="Helvetica,sans-Serif" font-size="10.00">/slave_func.h</text>
</a>
</g>
</g>
<!-- Node1&#45;&gt;Node12 -->
<g id="edge30" class="edge">
<title>Node1&#45;&gt;Node12</title>
<path fill="none" stroke="midnightblue" d="M328.38,-278.64C415.95,-272.33 571.01,-257.87 620.58,-232 650.76,-216.25 675.37,-183.63 687.79,-164.79"/>
<polygon fill="midnightblue" stroke="midnightblue" points="328.04,-275.15 318.31,-279.35 328.53,-282.14 328.04,-275.15"/>
</g>
<!-- Node2&#45;&gt;Node3 -->
<g id="edge2" class="edge">
<title>Node2&#45;&gt;Node3</title>
<path fill="none" stroke="midnightblue" d="M57.22,-191.24C47.76,-158.87 37.19,-101.61 66.58,-67 97.23,-30.91 233.75,-20.61 309.87,-17.67"/>
<polygon fill="midnightblue" stroke="midnightblue" points="54.01,-192.7 60.33,-201.2 60.69,-190.61 54.01,-192.7"/>
</g>
<!-- Node4&#45;&gt;Node3 -->
<g id="edge6" class="edge">
<title>Node4&#45;&gt;Node3</title>
<path fill="none" stroke="midnightblue" d="M413.42,-125.12C400.32,-97.68 379.04,-53.09 368.27,-30.52"/>
<polygon fill="midnightblue" stroke="midnightblue" points="410.37,-126.86 417.84,-134.37 416.69,-123.84 410.37,-126.86"/>
</g>
<!-- Node5 -->
<g id="node5" class="node">
<title>Node5</title>
<g id="a_node5"><a xlink:href="debug_8impl_8h.html" target="_top" xlink:title=" ">
<polygon fill="none" stroke="black" points="409.08,-67.5 409.08,-97.5 512.08,-97.5 512.08,-67.5 409.08,-67.5"/>
<text text-anchor="start" x="417.08" y="-85.5" font-family="Helvetica,sans-Serif" font-size="10.00">include/lightmodbus</text>
<text text-anchor="middle" x="460.58" y="-74.5" font-family="Helvetica,sans-Serif" font-size="10.00">/debug.impl.h</text>
</a>
</g>
</g>
<!-- Node4&#45;&gt;Node5 -->
<g id="edge4" class="edge">
<title>Node4&#45;&gt;Node5</title>
<path fill="none" stroke="midnightblue" d="M437.27,-125.58C442.44,-116.24 448.26,-105.75 452.78,-97.58"/>
<polygon fill="midnightblue" stroke="midnightblue" points="434.17,-123.95 432.39,-134.4 440.3,-127.34 434.17,-123.95"/>
</g>
<!-- Node5&#45;&gt;Node3 -->
<g id="edge5" class="edge">
<title>Node5&#45;&gt;Node3</title>
<path fill="none" stroke="midnightblue" d="M430.47,-61.73C415.15,-51.68 396.89,-39.68 383.02,-30.58"/>
<polygon fill="midnightblue" stroke="midnightblue" points="428.82,-64.83 439.1,-67.4 432.66,-58.98 428.82,-64.83"/>
</g>
<!-- Node6&#45;&gt;Node3 -->
<g id="edge9" class="edge">
<title>Node6&#45;&gt;Node3</title>
<path fill="none" stroke="midnightblue" d="M154.83,-195.84C111.68,-166.73 43.89,-110.87 80.58,-67 109.24,-32.73 236.85,-21.68 309.86,-18.15"/>
<polygon fill="midnightblue" stroke="midnightblue" points="153.08,-198.88 163.35,-201.47 156.93,-193.04 153.08,-198.88"/>
</g>
<!-- Node7 -->
<g id="node7" class="node">
<title>Node7</title>
<g id="a_node7"><a xlink:href="master_8impl_8h.html" target="_top" xlink:title=" ">
<polygon fill="none" stroke="black" points="90.08,-67.5 90.08,-97.5 193.08,-97.5 193.08,-67.5 90.08,-67.5"/>
<text text-anchor="start" x="98.08" y="-85.5" font-family="Helvetica,sans-Serif" font-size="10.00">include/lightmodbus</text>
<text text-anchor="middle" x="141.58" y="-74.5" font-family="Helvetica,sans-Serif" font-size="10.00">/master.impl.h</text>
</a>
</g>
</g>
<!-- Node6&#45;&gt;Node7 -->
<g id="edge10" class="edge">
<title>Node6&#45;&gt;Node7</title>
<path fill="none" stroke="midnightblue" d="M178.48,-191.75C169.12,-164.29 154.02,-119.99 146.36,-97.52"/>
<polygon fill="midnightblue" stroke="midnightblue" points="175.22,-193.04 181.76,-201.37 181.85,-190.78 175.22,-193.04"/>
</g>
<!-- Node6&#45;&gt;Node8 -->
<g id="edge12" class="edge">
<title>Node6&#45;&gt;Node8</title>
<path fill="none" stroke="midnightblue" d="M211.95,-194.88C224.11,-185.01 238.36,-173.43 249.25,-164.58"/>
<polygon fill="midnightblue" stroke="midnightblue" points="209.49,-192.37 203.94,-201.4 213.91,-197.81 209.49,-192.37"/>
</g>
<!-- Node9 -->
<g id="node9" class="node">
<title>Node9</title>
<g id="a_node9"><a xlink:href="master__func_8impl_8h.html" target="_top" xlink:title=" ">
<polygon fill="none" stroke="black" points="211.08,-67.5 211.08,-97.5 314.08,-97.5 314.08,-67.5 211.08,-67.5"/>
<text text-anchor="start" x="219.08" y="-85.5" font-family="Helvetica,sans-Serif" font-size="10.00">include/lightmodbus</text>
<text text-anchor="middle" x="262.58" y="-74.5" font-family="Helvetica,sans-Serif" font-size="10.00">/master_func.impl.h</text>
</a>
</g>
</g>
<!-- Node6&#45;&gt;Node9 -->
<g id="edge17" class="edge">
<title>Node6&#45;&gt;Node9</title>
<path fill="none" stroke="midnightblue" d="M188.76,-191.05C191.15,-174.06 196.15,-151.44 206.58,-134 215.31,-119.39 229.62,-106.6 241.58,-97.54"/>
<polygon fill="midnightblue" stroke="midnightblue" points="185.25,-190.94 187.53,-201.28 192.2,-191.77 185.25,-190.94"/>
</g>
<!-- Node7&#45;&gt;Node3 -->
<g id="edge11" class="edge">
<title>Node7&#45;&gt;Node3</title>
<path fill="none" stroke="midnightblue" d="M198.85,-64.58C234.58,-54.02 280.04,-40.59 313.82,-30.61"/>
<polygon fill="midnightblue" stroke="midnightblue" points="197.64,-61.29 189.04,-67.48 199.63,-68 197.64,-61.29"/>
</g>
<!-- Node8&#45;&gt;Node3 -->
<g id="edge13" class="edge">
<title>Node8&#45;&gt;Node3</title>
<path fill="none" stroke="midnightblue" d="M294.03,-128.12C304.21,-119.61 315.28,-109.12 323.58,-98 339.45,-76.73 351,-47.77 356.97,-30.71"/>
<polygon fill="midnightblue" stroke="midnightblue" points="291.71,-125.49 286.13,-134.49 296.11,-130.94 291.71,-125.49"/>
</g>
<!-- Node8&#45;&gt;Node7 -->
<g id="edge14" class="edge">
<title>Node8&#45;&gt;Node7</title>
<path fill="none" stroke="midnightblue" d="M230.45,-129.71C210.74,-119.46 186.74,-106.98 168.65,-97.58"/>
<polygon fill="midnightblue" stroke="midnightblue" points="228.97,-132.89 239.45,-134.4 232.2,-126.68 228.97,-132.89"/>
</g>
<!-- Node8&#45;&gt;Node9 -->
<g id="edge15" class="edge">
<title>Node8&#45;&gt;Node9</title>
<path fill="none" stroke="midnightblue" d="M265.1,-124.4C264.54,-115.37 263.93,-105.41 263.44,-97.58"/>
<polygon fill="midnightblue" stroke="midnightblue" points="261.6,-124.63 265.71,-134.4 268.59,-124.2 261.6,-124.63"/>
</g>
<!-- Node9&#45;&gt;Node3 -->
<g id="edge16" class="edge">
<title>Node9&#45;&gt;Node3</title>
<path fill="none" stroke="midnightblue" d="M292.68,-61.73C308,-51.68 326.27,-39.68 340.14,-30.58"/>
<polygon fill="midnightblue" stroke="midnightblue" points="290.5,-58.98 284.06,-67.4 294.34,-64.83 290.5,-58.98"/>
</g>
<!-- Node10&#45;&gt;Node3 -->
<g id="edge21" class="edge">
<title>Node10&#45;&gt;Node3</title>
<path fill="none" stroke="midnightblue" d="M560.2,-191.08C559.67,-158.51 553.79,-101.04 521.58,-67 493.55,-37.38 448.33,-25.05 413.1,-19.96"/>
<polygon fill="midnightblue" stroke="midnightblue" points="556.7,-191.1 560.2,-201.1 563.7,-191.09 556.7,-191.1"/>
</g>
<!-- Node10&#45;&gt;Node4 -->
<g id="edge20" class="edge">
<title>Node10&#45;&gt;Node4</title>
<path fill="none" stroke="midnightblue" d="M521.14,-196.99C499.74,-186.69 473.53,-174.07 453.81,-164.58"/>
<polygon fill="midnightblue" stroke="midnightblue" points="519.76,-200.21 530.28,-201.4 522.79,-193.9 519.76,-200.21"/>
</g>
<!-- Node11 -->
<g id="node11" class="node">
<title>Node11</title>
<g id="a_node11"><a xlink:href="slave_8impl_8h.html" target="_top" xlink:title=" ">
<polygon fill="none" stroke="black" points="690.08,-67.5 690.08,-97.5 793.08,-97.5 793.08,-67.5 690.08,-67.5"/>
<text text-anchor="start" x="698.08" y="-85.5" font-family="Helvetica,sans-Serif" font-size="10.00">include/lightmodbus</text>
<text text-anchor="middle" x="741.58" y="-74.5" font-family="Helvetica,sans-Serif" font-size="10.00">/slave.impl.h</text>
</a>
</g>
</g>
<!-- Node10&#45;&gt;Node11 -->
<g id="edge22" class="edge">
<title>Node10&#45;&gt;Node11</title>
<path fill="none" stroke="midnightblue" d="M578.71,-193.51C597.14,-172.65 624.02,-143.18 636.58,-134 657.32,-118.84 683.32,-106.3 704.26,-97.5"/>
<polygon fill="midnightblue" stroke="midnightblue" points="575.84,-191.47 571.87,-201.29 581.1,-196.09 575.84,-191.47"/>
</g>
<!-- Node10&#45;&gt;Node12 -->
<g id="edge24" class="edge">
<title>Node10&#45;&gt;Node12</title>
<path fill="none" stroke="midnightblue" d="M598.59,-196.99C620.3,-186.69 646.9,-174.07 666.91,-164.58"/>
<polygon fill="midnightblue" stroke="midnightblue" points="596.84,-193.95 589.3,-201.4 599.84,-200.27 596.84,-193.95"/>
</g>
<!-- Node13 -->
<g id="node13" class="node">
<title>Node13</title>
<g id="a_node13"><a xlink:href="slave__func_8impl_8h.html" target="_top" xlink:title=" ">
<polygon fill="none" stroke="black" points="569.08,-67.5 569.08,-97.5 672.08,-97.5 672.08,-67.5 569.08,-67.5"/>
<text text-anchor="start" x="577.08" y="-85.5" font-family="Helvetica,sans-Serif" font-size="10.00">include/lightmodbus</text>
<text text-anchor="middle" x="620.58" y="-74.5" font-family="Helvetica,sans-Serif" font-size="10.00">/slave_func.impl.h</text>
</a>
</g>
</g>
<!-- Node10&#45;&gt;Node13 -->
<g id="edge29" class="edge">
<title>Node10&#45;&gt;Node13</title>
<path fill="none" stroke="midnightblue" d="M570.38,-192.12C583.06,-164.68 603.67,-120.09 614.1,-97.52"/>
<polygon fill="midnightblue" stroke="midnightblue" points="567.12,-190.83 566.11,-201.37 573.48,-193.76 567.12,-190.83"/>
</g>
<!-- Node11&#45;&gt;Node3 -->
<g id="edge23" class="edge">
<title>Node11&#45;&gt;Node3</title>
<path fill="none" stroke="midnightblue" d="M680,-66.77C580.45,-47.21 474.77,-31.79 413.35,-23.36"/>
<polygon fill="midnightblue" stroke="midnightblue" points="679.44,-70.23 689.93,-68.74 680.8,-63.36 679.44,-70.23"/>
</g>
<!-- Node12&#45;&gt;Node3 -->
<g id="edge25" class="edge">
<title>Node12&#45;&gt;Node3</title>
<path fill="none" stroke="midnightblue" d="M750.31,-130.57C787.04,-115.52 825.27,-92.44 802.58,-67 777.02,-38.35 524.1,-23.71 413.22,-18.62"/>
<polygon fill="midnightblue" stroke="midnightblue" points="748.57,-127.49 740.55,-134.41 751.13,-134 748.57,-127.49"/>
</g>
<!-- Node12&#45;&gt;Node11 -->
<g id="edge26" class="edge">
<title>Node12&#45;&gt;Node11</title>
<path fill="none" stroke="midnightblue" d="M712.05,-126.16C718.61,-116.68 726.06,-105.92 731.83,-97.58"/>
<polygon fill="midnightblue" stroke="midnightblue" points="709.16,-124.18 706.34,-134.4 714.91,-128.17 709.16,-124.18"/>
</g>
<!-- Node12&#45;&gt;Node13 -->
<g id="edge27" class="edge">
<title>Node12&#45;&gt;Node13</title>
<path fill="none" stroke="midnightblue" d="M672.47,-127.88C660.92,-118.01 647.39,-106.43 637.04,-97.58"/>
<polygon fill="midnightblue" stroke="midnightblue" points="670.21,-130.56 680.09,-134.4 674.76,-125.24 670.21,-130.56"/>
</g>
<!-- Node13&#45;&gt;Node3 -->
<g id="edge28" class="edge">
<title>Node13&#45;&gt;Node3</title>
<path fill="none" stroke="midnightblue" d="M558.98,-66.04C514.55,-54.89 455.25,-40.01 413.28,-29.47"/>
<polygon fill="midnightblue" stroke="midnightblue" points="558.24,-69.46 568.79,-68.5 559.94,-62.67 558.24,-69.46"/>
</g>
</g>
</svg>
