<?xml version="1.0" encoding="UTF-8" standalone="no"?>
<!DOCTYPE svg PUBLIC "-//W3C//DTD SVG 1.1//EN"
 "http://www.w3.org/Graphics/SVG/1.1/DTD/svg11.dtd">
<!-- Generated by graphviz version 2.44.0 ()
 -->
<!-- Title: modbusGetErrorCode Pages: 1 -->
<svg width="638pt" height="199pt"
 viewBox="0.00 0.00 638.00 199.00" xmlns="http://www.w3.org/2000/svg" xmlns:xlink="http://www.w3.org/1999/xlink">
<g id="graph0" class="graph" transform="scale(1 1) rotate(0) translate(4 195)">
<title>modbusGetErrorCode</title>
<!-- Node1 -->
<g id="node1" class="node">
<title>Node1</title>
<g id="a_node1"><a xlink:title="Returns ModbusError contained in ModbusErrorInfo.">
<polygon fill="#bfbfbf" stroke="black" points="520,-114.5 520,-133.5 630,-133.5 630,-114.5 520,-114.5"/>
<text text-anchor="middle" x="575" y="-121.5" font-family="Helvetica,sans-Serif" font-size="10.00">modbusGetErrorCode</text>
</a>
</g>
</g>
<!-- Node2 -->
<g id="node2" class="node">
<title>Node2</title>
<g id="a_node2"><a xlink:href="base_8h.html#a84765449265aa5a31877b749f04cb568" target="_top" xlink:title="Returns general error from ModbusErrorInfo.">
<polygon fill="none" stroke="black" points="358,-171.5 358,-190.5 479,-190.5 479,-171.5 358,-171.5"/>
<text text-anchor="middle" x="418.5" y="-178.5" font-family="Helvetica,sans-Serif" font-size="10.00">modbusGetGeneralError</text>
</a>
</g>
</g>
<!-- Node1&#45;&gt;Node2 -->
<g id="edge1" class="edge">
<title>Node1&#45;&gt;Node2</title>
<path fill="none" stroke="midnightblue" d="M543.61,-137.84C526.32,-145.46 504.16,-154.8 484,-162 474.55,-165.38 464.16,-168.63 454.55,-171.46"/>
<polygon fill="midnightblue" stroke="midnightblue" points="545.46,-140.85 553.17,-133.59 542.61,-134.46 545.46,-140.85"/>
</g>
<!-- Node3 -->
<g id="node3" class="node">
<title>Node3</title>
<g id="a_node3"><a xlink:href="base_8h.html#a5c6f792a259423b2df55d8d49e91fd06" target="_top" xlink:title="Returns request error from ModbusErrorInfo.">
<polygon fill="none" stroke="black" points="357,-133.5 357,-152.5 480,-152.5 480,-133.5 357,-133.5"/>
<text text-anchor="middle" x="418.5" y="-140.5" font-family="Helvetica,sans-Serif" font-size="10.00">modbusGetRequestError</text>
</a>
</g>
</g>
<!-- Node1&#45;&gt;Node3 -->
<g id="edge2" class="edge">
<title>Node1&#45;&gt;Node3</title>
<path fill="none" stroke="midnightblue" d="M509.84,-131.89C500,-133.1 489.87,-134.35 480.11,-135.55"/>
<polygon fill="midnightblue" stroke="midnightblue" points="510.47,-135.34 519.96,-130.65 509.61,-128.39 510.47,-135.34"/>
</g>
<!-- Node4 -->
<g id="node4" class="node">
<title>Node4</title>
<g id="a_node4"><a xlink:href="base_8h.html#acbf9b7e6b679be88ce4e10ffb617d3e9" target="_top" xlink:title="Returns response error from ModbusErrorInfo.">
<polygon fill="none" stroke="black" points="353,-95.5 353,-114.5 484,-114.5 484,-95.5 353,-95.5"/>
<text text-anchor="middle" x="418.5" y="-102.5" font-family="Helvetica,sans-Serif" font-size="10.00">modbusGetResponseError</text>
</a>
</g>
</g>
<!-- Node1&#45;&gt;Node4 -->
<g id="edge3" class="edge">
<title>Node1&#45;&gt;Node4</title>
<path fill="none" stroke="midnightblue" d="M509.76,-116.1C501.29,-115.06 492.6,-113.99 484.12,-112.95"/>
<polygon fill="midnightblue" stroke="midnightblue" points="509.61,-119.61 519.96,-117.35 510.47,-112.66 509.61,-119.61"/>
</g>
<!-- Node5 -->
<g id="node5" class="node">
<title>Node5</title>
<g id="a_node5"><a xlink:href="base_8h.html#a64880e7075f445881485396f3aa869c5" target="_top" xlink:title="Checks if ModbusErrorInfo contains an error.">
<polygon fill="none" stroke="black" points="382.5,-57.5 382.5,-76.5 454.5,-76.5 454.5,-57.5 382.5,-57.5"/>
<text text-anchor="middle" x="418.5" y="-64.5" font-family="Helvetica,sans-Serif" font-size="10.00">modbusIsOk</text>
</a>
</g>
</g>
<!-- Node1&#45;&gt;Node5 -->
<g id="edge4" class="edge">
<title>Node1&#45;&gt;Node5</title>
<path fill="none" stroke="midnightblue" d="M543.61,-110.16C526.32,-102.54 504.16,-93.2 484,-86 474.55,-82.62 464.16,-79.37 454.55,-76.54"/>
<polygon fill="midnightblue" stroke="midnightblue" points="542.61,-113.54 553.17,-114.41 545.46,-107.15 542.61,-113.54"/>
</g>
<!-- Node6 -->
<g id="node6" class="node">
<title>Node6</title>
<g id="a_node6"><a xlink:href="slave_8h.html#a9da6d040ddc4a1ba71b03fad7a2fece3" target="_top" xlink:title="Parses provided Modbus RTU request frame and generates a Modbus RTU response.">
<polygon fill="none" stroke="black" points="180,-95.5 180,-114.5 313,-114.5 313,-95.5 180,-95.5"/>
<text text-anchor="middle" x="246.5" y="-102.5" font-family="Helvetica,sans-Serif" font-size="10.00">modbusParseRequestRTU</text>
</a>
</g>
</g>
<!-- Node5&#45;&gt;Node6 -->
<g id="edge5" class="edge">
<title>Node5&#45;&gt;Node6</title>
<path fill="none" stroke="midnightblue" d="M372.49,-77.06C347,-82.76 315.3,-89.84 290.21,-95.45"/>
<polygon fill="midnightblue" stroke="midnightblue" points="373.28,-80.47 382.28,-74.87 371.75,-73.64 373.28,-80.47"/>
</g>
<!-- Node7 -->
<g id="node7" class="node">
<title>Node7</title>
<g id="a_node7"><a xlink:href="slave_8h.html#a11f5dfe3b6a3f37ca7c7eb179ca75864" target="_top" xlink:title="Parses provided Modbus TCP request frame and generates a Modbus TCP response.">
<polygon fill="none" stroke="black" points="180.5,-57.5 180.5,-76.5 312.5,-76.5 312.5,-57.5 180.5,-57.5"/>
<text text-anchor="middle" x="246.5" y="-64.5" font-family="Helvetica,sans-Serif" font-size="10.00">modbusParseRequestTCP</text>
</a>
</g>
</g>
<!-- Node5&#45;&gt;Node7 -->
<g id="edge6" class="edge">
<title>Node5&#45;&gt;Node7</title>
<path fill="none" stroke="midnightblue" d="M372.19,-67C353.91,-67 332.47,-67 312.57,-67"/>
<polygon fill="midnightblue" stroke="midnightblue" points="372.28,-70.5 382.28,-67 372.28,-63.5 372.28,-70.5"/>
</g>
<!-- Node8 -->
<g id="node8" class="node">
<title>Node8</title>
<g id="a_node8"><a xlink:href="master_8h.html#ad8e87b7bdda035ea42cacc2241b406e3" target="_top" xlink:title="Parses a PDU section of a slave response.">
<polygon fill="none" stroke="black" points="176,-19.5 176,-38.5 317,-38.5 317,-19.5 176,-19.5"/>
<text text-anchor="middle" x="246.5" y="-26.5" font-family="Helvetica,sans-Serif" font-size="10.00">modbusParseResponsePDU</text>
</a>
</g>
</g>
<!-- Node5&#45;&gt;Node8 -->
<g id="edge7" class="edge">
<title>Node5&#45;&gt;Node8</title>
<path fill="none" stroke="midnightblue" d="M372.49,-56.94C347,-51.24 315.3,-44.16 290.21,-38.55"/>
<polygon fill="midnightblue" stroke="midnightblue" points="371.75,-60.36 382.28,-59.13 373.28,-53.53 371.75,-60.36"/>
</g>
<!-- Node9 -->
<g id="node9" class="node">
<title>Node9</title>
<g id="a_node9"><a xlink:href="master_8h.html#a151b85c221ae43804856eb92737498e5" target="_top" xlink:title="Parses a Modbus RTU slave response.">
<polygon fill="none" stroke="black" points="0,-38.5 0,-57.5 140,-57.5 140,-38.5 0,-38.5"/>
<text text-anchor="middle" x="70" y="-45.5" font-family="Helvetica,sans-Serif" font-size="10.00">modbusParseResponseRTU</text>
</a>
</g>
</g>
<!-- Node8&#45;&gt;Node9 -->
<g id="edge8" class="edge">
<title>Node8&#45;&gt;Node9</title>
<path fill="none" stroke="midnightblue" d="M165.76,-37.68C157.17,-38.62 148.49,-39.56 140.04,-40.48"/>
<polygon fill="midnightblue" stroke="midnightblue" points="166.22,-41.15 175.78,-36.59 165.46,-34.19 166.22,-41.15"/>
</g>
<!-- Node10 -->
<g id="node10" class="node">
<title>Node10</title>
<g id="a_node10"><a xlink:href="master_8h.html#a53ea67c733b1e627e1cdcb0003270a1b" target="_top" xlink:title="Parses a Modbus TCP slave response.">
<polygon fill="none" stroke="black" points="0,-0.5 0,-19.5 140,-19.5 140,-0.5 0,-0.5"/>
<text text-anchor="middle" x="70" y="-7.5" font-family="Helvetica,sans-Serif" font-size="10.00">modbusParseResponseTCP</text>
</a>
</g>
</g>
<!-- Node8&#45;&gt;Node10 -->
<g id="edge9" class="edge">
<title>Node8&#45;&gt;Node10</title>
<path fill="none" stroke="midnightblue" d="M165.76,-20.32C157.17,-19.38 148.49,-18.44 140.04,-17.52"/>
<polygon fill="midnightblue" stroke="midnightblue" points="165.46,-23.81 175.78,-21.41 166.22,-16.85 165.46,-23.81"/>
</g>
</g>
</svg>
