<?xml version="1.0" encoding="UTF-8" standalone="no"?>
<!DOCTYPE svg PUBLIC "-//W3C//DTD SVG 1.1//EN"
 "http://www.w3.org/Graphics/SVG/1.1/DTD/svg11.dtd">
<!-- Generated by graphviz version 2.44.0 ()
 -->
<!-- Title: modbusBufferInit Pages: 1 -->
<svg width="363pt" height="66pt"
 viewBox="0.00 0.00 363.00 66.00" xmlns="http://www.w3.org/2000/svg" xmlns:xlink="http://www.w3.org/1999/xlink">
<g id="graph0" class="graph" transform="scale(1 1) rotate(0) translate(4 62)">
<title>modbusBufferInit</title>
<!-- Node1 -->
<g id="node1" class="node">
<title>Node1</title>
<g id="a_node1"><a xlink:title="Initializes a buffer for use.">
<polygon fill="#bfbfbf" stroke="black" points="265,-19.5 265,-38.5 355,-38.5 355,-19.5 265,-19.5"/>
<text text-anchor="middle" x="310" y="-26.5" font-family="Helvetica,sans-Serif" font-size="10.00">modbusBufferInit</text>
</a>
</g>
</g>
<!-- Node2 -->
<g id="node2" class="node">
<title>Node2</title>
<g id="a_node2"><a xlink:href="master_8h.html#af3c4b8930f540697662dfdb0788f38ef" target="_top" xlink:title="Initializes a ModbusMaster struct.">
<polygon fill="none" stroke="black" points="134,-38.5 134,-57.5 229,-57.5 229,-38.5 134,-38.5"/>
<text text-anchor="middle" x="181.5" y="-45.5" font-family="Helvetica,sans-Serif" font-size="10.00">modbusMasterInit</text>
</a>
</g>
</g>
<!-- Node1&#45;&gt;Node2 -->
<g id="edge1" class="edge">
<title>Node1&#45;&gt;Node2</title>
<path fill="none" stroke="midnightblue" d="M254.84,-37.14C246.26,-38.42 237.46,-39.74 229.08,-41"/>
<polygon fill="midnightblue" stroke="midnightblue" points="255.39,-40.59 264.76,-35.65 254.35,-33.67 255.39,-40.59"/>
</g>
<!-- Node4 -->
<g id="node4" class="node">
<title>Node4</title>
<g id="a_node4"><a xlink:href="slave_8h.html#a2c30507da9547125c17f62e0e18d9194" target="_top" xlink:title="Initializes slave device.">
<polygon fill="none" stroke="black" points="137,-0.5 137,-19.5 226,-19.5 226,-0.5 137,-0.5"/>
<text text-anchor="middle" x="181.5" y="-7.5" font-family="Helvetica,sans-Serif" font-size="10.00">modbusSlaveInit</text>
</a>
</g>
</g>
<!-- Node1&#45;&gt;Node4 -->
<g id="edge3" class="edge">
<title>Node1&#45;&gt;Node4</title>
<path fill="none" stroke="midnightblue" d="M254.57,-20.83C245.05,-19.4 235.26,-17.92 226.08,-16.55"/>
<polygon fill="midnightblue" stroke="midnightblue" points="254.35,-24.33 264.76,-22.35 255.39,-17.41 254.35,-24.33"/>
</g>
<!-- Node3 -->
<g id="node3" class="node">
<title>Node3</title>
<g id="a_node3"><a xlink:href="classllm_1_1Master.html#ac2e598f20d2c576e74590d461cf75f97" target="_top" xlink:title=" ">
<polygon fill="none" stroke="black" points="0,-38.5 0,-57.5 98,-57.5 98,-38.5 0,-38.5"/>
<text text-anchor="middle" x="49" y="-45.5" font-family="Helvetica,sans-Serif" font-size="10.00">llm::Master::Master</text>
</a>
</g>
</g>
<!-- Node2&#45;&gt;Node3 -->
<g id="edge2" class="edge">
<title>Node2&#45;&gt;Node3</title>
<path fill="none" stroke="midnightblue" d="M123.56,-48C115.1,-48 106.44,-48 98.18,-48"/>
<polygon fill="midnightblue" stroke="midnightblue" points="123.76,-51.5 133.76,-48 123.76,-44.5 123.76,-51.5"/>
</g>
<!-- Node5 -->
<g id="node5" class="node">
<title>Node5</title>
<g id="a_node5"><a xlink:href="classllm_1_1Slave.html#a6824a1d0fcfd26d8bedaa934f0abcf39" target="_top" xlink:title=" ">
<polygon fill="none" stroke="black" points="5,-0.5 5,-19.5 93,-19.5 93,-0.5 5,-0.5"/>
<text text-anchor="middle" x="49" y="-7.5" font-family="Helvetica,sans-Serif" font-size="10.00">llm::Slave::Slave</text>
</a>
</g>
</g>
<!-- Node4&#45;&gt;Node5 -->
<g id="edge4" class="edge">
<title>Node4&#45;&gt;Node5</title>
<path fill="none" stroke="midnightblue" d="M126.58,-10C115.4,-10 103.77,-10 93.04,-10"/>
<polygon fill="midnightblue" stroke="midnightblue" points="126.68,-13.5 136.68,-10 126.68,-6.5 126.68,-13.5"/>
</g>
</g>
</svg>
