<?xml version="1.0" encoding="UTF-8" standalone="no"?>
<!DOCTYPE svg PUBLIC "-//W3C//DTD SVG 1.1//EN"
 "http://www.w3.org/Graphics/SVG/1.1/DTD/svg11.dtd">
<!-- Generated by graphviz version 2.44.0 ()
 -->
<!-- Title: include/lightmodbus/base.h Pages: 1 -->
<svg width="865pt" height="307pt"
 viewBox="0.00 0.00 864.60 307.00" xmlns="http://www.w3.org/2000/svg" xmlns:xlink="http://www.w3.org/1999/xlink">
<g id="graph0" class="graph" transform="scale(1 1) rotate(0) translate(4 303)">
<title>include/lightmodbus/base.h</title>
<!-- Node1 -->
<g id="node1" class="node">
<title>Node1</title>
<g id="a_node1"><a xlink:title=" ">
<polygon fill="#bfbfbf" stroke="black" points="310.64,-268.5 310.64,-298.5 413.64,-298.5 413.64,-268.5 310.64,-268.5"/>
<text text-anchor="start" x="318.64" y="-286.5" font-family="Helvetica,sans-Serif" font-size="10.00">include/lightmodbus</text>
<text text-anchor="middle" x="362.14" y="-275.5" font-family="Helvetica,sans-Serif" font-size="10.00">/base.h</text>
</a>
</g>
</g>
<!-- Node2 -->
<g id="node2" class="node">
<title>Node2</title>
<g id="a_node2"><a xlink:href="base_8impl_8h.html" target="_top" xlink:title=" ">
<polygon fill="none" stroke="black" points="29.64,-67.5 29.64,-97.5 132.64,-97.5 132.64,-67.5 29.64,-67.5"/>
<text text-anchor="start" x="37.64" y="-85.5" font-family="Helvetica,sans-Serif" font-size="10.00">include/lightmodbus</text>
<text text-anchor="middle" x="81.14" y="-74.5" font-family="Helvetica,sans-Serif" font-size="10.00">/base.impl.h</text>
</a>
</g>
</g>
<!-- Node1&#45;&gt;Node2 -->
<g id="edge1" class="edge">
<title>Node1&#45;&gt;Node2</title>
<path fill="none" stroke="midnightblue" d="M300.81,-267.42C274.92,-259.36 245.26,-247.78 221.14,-232 163.03,-193.98 111.84,-127.13 91.03,-97.88"/>
<polygon fill="midnightblue" stroke="midnightblue" points="299.94,-270.82 310.53,-270.34 301.96,-264.11 299.94,-270.82"/>
</g>
<!-- Node3 -->
<g id="node3" class="node">
<title>Node3</title>
<g id="a_node3"><a xlink:href="lightmodbus_8h.html" target="_top" xlink:title=" ">
<polygon fill="none" stroke="black" points="409.64,-0.5 409.64,-30.5 512.64,-30.5 512.64,-0.5 409.64,-0.5"/>
<text text-anchor="start" x="417.64" y="-18.5" font-family="Helvetica,sans-Serif" font-size="10.00">include/lightmodbus</text>
<text text-anchor="middle" x="461.14" y="-7.5" font-family="Helvetica,sans-Serif" font-size="10.00">/lightmodbus.h</text>
</a>
</g>
</g>
<!-- Node1&#45;&gt;Node3 -->
<g id="edge7" class="edge">
<title>Node1&#45;&gt;Node3</title>
<path fill="none" stroke="midnightblue" d="M300.38,-269.65C178.91,-241.79 -71.64,-169.9 20.14,-67 45.69,-38.35 298.62,-23.71 409.5,-18.62"/>
<polygon fill="midnightblue" stroke="midnightblue" points="299.79,-273.11 310.31,-271.9 301.33,-266.28 299.79,-273.11"/>
</g>
<!-- Node4 -->
<g id="node4" class="node">
<title>Node4</title>
<g id="a_node4"><a xlink:href="debug_8h.html" target="_top" xlink:title=" ">
<polygon fill="none" stroke="black" points="448.64,-134.5 448.64,-164.5 551.64,-164.5 551.64,-134.5 448.64,-134.5"/>
<text text-anchor="start" x="456.64" y="-152.5" font-family="Helvetica,sans-Serif" font-size="10.00">include/lightmodbus</text>
<text text-anchor="middle" x="500.14" y="-141.5" font-family="Helvetica,sans-Serif" font-size="10.00">/debug.h</text>
</a>
</g>
</g>
<!-- Node1&#45;&gt;Node4 -->
<g id="edge3" class="edge">
<title>Node1&#45;&gt;Node4</title>
<path fill="none" stroke="midnightblue" d="M384.36,-261.25C412.8,-234.04 461.27,-187.68 485.48,-164.52"/>
<polygon fill="midnightblue" stroke="midnightblue" points="381.72,-258.93 376.91,-268.37 386.56,-263.99 381.72,-258.93"/>
</g>
<!-- Node6 -->
<g id="node6" class="node">
<title>Node6</title>
<g id="a_node6"><a xlink:href="master_8h.html" target="_top" xlink:title=" ">
<polygon fill="none" stroke="black" points="230.64,-201.5 230.64,-231.5 333.64,-231.5 333.64,-201.5 230.64,-201.5"/>
<text text-anchor="start" x="238.64" y="-219.5" font-family="Helvetica,sans-Serif" font-size="10.00">include/lightmodbus</text>
<text text-anchor="middle" x="282.14" y="-208.5" font-family="Helvetica,sans-Serif" font-size="10.00">/master.h</text>
</a>
</g>
</g>
<!-- Node1&#45;&gt;Node6 -->
<g id="edge8" class="edge">
<title>Node1&#45;&gt;Node6</title>
<path fill="none" stroke="midnightblue" d="M336.77,-261.88C324.61,-252.01 310.36,-240.43 299.47,-231.58"/>
<polygon fill="midnightblue" stroke="midnightblue" points="334.81,-264.81 344.78,-268.4 339.23,-259.37 334.81,-264.81"/>
</g>
<!-- Node8 -->
<g id="node8" class="node">
<title>Node8</title>
<g id="a_node8"><a xlink:href="master__func_8h.html" target="_top" xlink:title=" ">
<polygon fill="none" stroke="black" points="310.64,-134.5 310.64,-164.5 413.64,-164.5 413.64,-134.5 310.64,-134.5"/>
<text text-anchor="start" x="318.64" y="-152.5" font-family="Helvetica,sans-Serif" font-size="10.00">include/lightmodbus</text>
<text text-anchor="middle" x="362.14" y="-141.5" font-family="Helvetica,sans-Serif" font-size="10.00">/master_func.h</text>
</a>
</g>
</g>
<!-- Node1&#45;&gt;Node8 -->
<g id="edge18" class="edge">
<title>Node1&#45;&gt;Node8</title>
<path fill="none" stroke="midnightblue" d="M362.14,-258.02C362.14,-230.51 362.14,-186.79 362.14,-164.52"/>
<polygon fill="midnightblue" stroke="midnightblue" points="358.64,-258.37 362.14,-268.37 365.64,-258.37 358.64,-258.37"/>
</g>
<!-- Node10 -->
<g id="node10" class="node">
<title>Node10</title>
<g id="a_node10"><a xlink:href="slave_8h.html" target="_top" xlink:title=" ">
<polygon fill="none" stroke="black" points="537.64,-201.5 537.64,-231.5 640.64,-231.5 640.64,-201.5 537.64,-201.5"/>
<text text-anchor="start" x="545.64" y="-219.5" font-family="Helvetica,sans-Serif" font-size="10.00">include/lightmodbus</text>
<text text-anchor="middle" x="589.14" y="-208.5" font-family="Helvetica,sans-Serif" font-size="10.00">/slave.h</text>
</a>
</g>
</g>
<!-- Node1&#45;&gt;Node10 -->
<g id="edge19" class="edge">
<title>Node1&#45;&gt;Node10</title>
<path fill="none" stroke="midnightblue" d="M420.76,-265.71C457.7,-255.14 504.86,-241.63 539.86,-231.61"/>
<polygon fill="midnightblue" stroke="midnightblue" points="419.77,-262.36 411.12,-268.48 421.69,-269.09 419.77,-262.36"/>
</g>
<!-- Node13 -->
<g id="node13" class="node">
<title>Node13</title>
<g id="a_node13"><a xlink:href="slave__func_8h.html" target="_top" xlink:title=" ">
<polygon fill="none" stroke="black" points="698.64,-201.5 698.64,-231.5 801.64,-231.5 801.64,-201.5 698.64,-201.5"/>
<text text-anchor="start" x="706.64" y="-219.5" font-family="Helvetica,sans-Serif" font-size="10.00">include/lightmodbus</text>
<text text-anchor="middle" x="750.14" y="-208.5" font-family="Helvetica,sans-Serif" font-size="10.00">/slave_func.h</text>
</a>
</g>
</g>
<!-- Node1&#45;&gt;Node13 -->
<g id="edge26" class="edge">
<title>Node1&#45;&gt;Node13</title>
<path fill="none" stroke="midnightblue" d="M423.56,-272.21C499.47,-259.49 627.27,-238.08 698.4,-226.17"/>
<polygon fill="midnightblue" stroke="midnightblue" points="422.95,-268.76 413.66,-273.87 424.11,-275.67 422.95,-268.76"/>
</g>
<!-- Node2&#45;&gt;Node3 -->
<g id="edge2" class="edge">
<title>Node2&#45;&gt;Node3</title>
<path fill="none" stroke="midnightblue" d="M142.77,-67.84C144.24,-67.56 145.7,-67.27 147.14,-67 239.22,-49.5 347.25,-33 409.59,-23.87"/>
<polygon fill="midnightblue" stroke="midnightblue" points="142.08,-64.41 132.97,-69.82 143.46,-71.28 142.08,-64.41"/>
</g>
<!-- Node4&#45;&gt;Node3 -->
<g id="edge6" class="edge">
<title>Node4&#45;&gt;Node3</title>
<path fill="none" stroke="midnightblue" d="M493.13,-124.75C485.01,-97.29 471.92,-52.99 465.29,-30.52"/>
<polygon fill="midnightblue" stroke="midnightblue" points="489.78,-125.78 495.97,-134.37 496.49,-123.79 489.78,-125.78"/>
</g>
<!-- Node5 -->
<g id="node5" class="node">
<title>Node5</title>
<g id="a_node5"><a xlink:href="debug_8impl_8h.html" target="_top" xlink:title=" ">
<polygon fill="none" stroke="black" points="508.64,-67.5 508.64,-97.5 611.64,-97.5 611.64,-67.5 508.64,-67.5"/>
<text text-anchor="start" x="516.64" y="-85.5" font-family="Helvetica,sans-Serif" font-size="10.00">include/lightmodbus</text>
<text text-anchor="middle" x="560.14" y="-74.5" font-family="Helvetica,sans-Serif" font-size="10.00">/debug.impl.h</text>
</a>
</g>
</g>
<!-- Node4&#45;&gt;Node5 -->
<g id="edge4" class="edge">
<title>Node4&#45;&gt;Node5</title>
<path fill="none" stroke="midnightblue" d="M519.97,-127.02C528.9,-117.34 539.21,-106.17 547.15,-97.58"/>
<polygon fill="midnightblue" stroke="midnightblue" points="517.37,-124.67 513.16,-134.4 522.52,-129.42 517.37,-124.67"/>
</g>
<!-- Node5&#45;&gt;Node3 -->
<g id="edge5" class="edge">
<title>Node5&#45;&gt;Node3</title>
<path fill="none" stroke="midnightblue" d="M530.04,-61.73C514.72,-51.68 496.45,-39.68 482.58,-30.58"/>
<polygon fill="midnightblue" stroke="midnightblue" points="528.38,-64.83 538.66,-67.4 532.22,-58.98 528.38,-64.83"/>
</g>
<!-- Node6&#45;&gt;Node3 -->
<g id="edge9" class="edge">
<title>Node6&#45;&gt;Node3</title>
<path fill="none" stroke="midnightblue" d="M251.35,-195.7C209.53,-166.41 143.91,-110.32 180.14,-67 208.8,-32.73 336.41,-21.68 409.42,-18.15"/>
<polygon fill="midnightblue" stroke="midnightblue" points="249.39,-198.6 259.61,-201.36 253.34,-192.82 249.39,-198.6"/>
</g>
<!-- Node7 -->
<g id="node7" class="node">
<title>Node7</title>
<g id="a_node7"><a xlink:href="master_8impl_8h.html" target="_top" xlink:title=" ">
<polygon fill="none" stroke="black" points="189.64,-67.5 189.64,-97.5 292.64,-97.5 292.64,-67.5 189.64,-67.5"/>
<text text-anchor="start" x="197.64" y="-85.5" font-family="Helvetica,sans-Serif" font-size="10.00">include/lightmodbus</text>
<text text-anchor="middle" x="241.14" y="-74.5" font-family="Helvetica,sans-Serif" font-size="10.00">/master.impl.h</text>
</a>
</g>
</g>
<!-- Node6&#45;&gt;Node7 -->
<g id="edge10" class="edge">
<title>Node6&#45;&gt;Node7</title>
<path fill="none" stroke="midnightblue" d="M274.77,-191.75C266.24,-164.29 252.47,-119.99 245.5,-97.52"/>
<polygon fill="midnightblue" stroke="midnightblue" points="271.44,-192.86 277.75,-201.37 278.13,-190.79 271.44,-192.86"/>
</g>
<!-- Node6&#45;&gt;Node8 -->
<g id="edge12" class="edge">
<title>Node6&#45;&gt;Node8</title>
<path fill="none" stroke="midnightblue" d="M307.52,-194.88C319.67,-185.01 333.92,-173.43 344.82,-164.58"/>
<polygon fill="midnightblue" stroke="midnightblue" points="305.05,-192.37 299.5,-201.4 309.47,-197.81 305.05,-192.37"/>
</g>
<!-- Node9 -->
<g id="node9" class="node">
<title>Node9</title>
<g id="a_node9"><a xlink:href="master__func_8impl_8h.html" target="_top" xlink:title=" ">
<polygon fill="none" stroke="black" points="310.64,-67.5 310.64,-97.5 413.64,-97.5 413.64,-67.5 310.64,-67.5"/>
<text text-anchor="start" x="318.64" y="-85.5" font-family="Helvetica,sans-Serif" font-size="10.00">include/lightmodbus</text>
<text text-anchor="middle" x="362.14" y="-74.5" font-family="Helvetica,sans-Serif" font-size="10.00">/master_func.impl.h</text>
</a>
</g>
</g>
<!-- Node6&#45;&gt;Node9 -->
<g id="edge17" class="edge">
<title>Node6&#45;&gt;Node9</title>
<path fill="none" stroke="midnightblue" d="M283.7,-191.22C285.74,-174.14 290.42,-151.33 301.14,-134 310.4,-119.04 325.65,-106.41 338.59,-97.53"/>
<polygon fill="midnightblue" stroke="midnightblue" points="280.19,-191.21 282.71,-201.5 287.16,-191.88 280.19,-191.21"/>
</g>
<!-- Node7&#45;&gt;Node3 -->
<g id="edge11" class="edge">
<title>Node7&#45;&gt;Node3</title>
<path fill="none" stroke="midnightblue" d="M298.41,-64.58C334.14,-54.02 379.6,-40.59 413.38,-30.61"/>
<polygon fill="midnightblue" stroke="midnightblue" points="297.21,-61.29 288.61,-67.48 299.19,-68 297.21,-61.29"/>
</g>
<!-- Node8&#45;&gt;Node3 -->
<g id="edge13" class="edge">
<title>Node8&#45;&gt;Node3</title>
<path fill="none" stroke="midnightblue" d="M391.75,-128.29C402.61,-119.85 414.37,-109.36 423.14,-98 439.46,-76.87 450.93,-47.61 456.75,-30.5"/>
<polygon fill="midnightblue" stroke="midnightblue" points="389.6,-125.53 383.69,-134.33 393.8,-131.14 389.6,-125.53"/>
</g>
<!-- Node8&#45;&gt;Node7 -->
<g id="edge14" class="edge">
<title>Node8&#45;&gt;Node7</title>
<path fill="none" stroke="midnightblue" d="M326.91,-129.57C307.88,-119.35 284.78,-106.94 267.35,-97.58"/>
<polygon fill="midnightblue" stroke="midnightblue" points="325.42,-132.75 335.89,-134.4 328.73,-126.58 325.42,-132.75"/>
</g>
<!-- Node8&#45;&gt;Node9 -->
<g id="edge15" class="edge">
<title>Node8&#45;&gt;Node9</title>
<path fill="none" stroke="midnightblue" d="M362.14,-124.11C362.14,-115.15 362.14,-105.32 362.14,-97.58"/>
<polygon fill="midnightblue" stroke="midnightblue" points="358.64,-124.4 362.14,-134.4 365.64,-124.4 358.64,-124.4"/>
</g>
<!-- Node9&#45;&gt;Node3 -->
<g id="edge16" class="edge">
<title>Node9&#45;&gt;Node3</title>
<path fill="none" stroke="midnightblue" d="M392.25,-61.73C407.57,-51.68 425.83,-39.68 439.7,-30.58"/>
<polygon fill="midnightblue" stroke="midnightblue" points="390.06,-58.98 383.62,-67.4 393.9,-64.83 390.06,-58.98"/>
</g>
<!-- Node10&#45;&gt;Node3 -->
<g id="edge21" class="edge">
<title>Node10&#45;&gt;Node3</title>
<path fill="none" stroke="midnightblue" d="M594.5,-191.47C598.26,-175.17 603.6,-153.17 609.14,-134 613.82,-117.8 618.44,-114.65 621.14,-98 623.35,-84.4 629.29,-78.11 621.14,-67 596.52,-33.4 549.48,-21.58 512.75,-17.69"/>
<polygon fill="midnightblue" stroke="midnightblue" points="591.07,-190.75 592.26,-201.27 597.9,-192.3 591.07,-190.75"/>
</g>
<!-- Node10&#45;&gt;Node4 -->
<g id="edge20" class="edge">
<title>Node10&#45;&gt;Node4</title>
<path fill="none" stroke="midnightblue" d="M561.69,-195.45C548,-185.45 531.77,-173.6 519.42,-164.58"/>
<polygon fill="midnightblue" stroke="midnightblue" points="559.69,-198.32 569.83,-201.4 563.82,-192.67 559.69,-198.32"/>
</g>
<!-- Node11 -->
<g id="node11" class="node">
<title>Node11</title>
<g id="a_node11"><a xlink:href="slave_8impl_8h.html" target="_top" xlink:title=" ">
<polygon fill="none" stroke="black" points="738.64,-134.5 738.64,-164.5 841.64,-164.5 841.64,-134.5 738.64,-134.5"/>
<text text-anchor="start" x="746.64" y="-152.5" font-family="Helvetica,sans-Serif" font-size="10.00">include/lightmodbus</text>
<text text-anchor="middle" x="790.14" y="-141.5" font-family="Helvetica,sans-Serif" font-size="10.00">/slave.impl.h</text>
</a>
</g>
</g>
<!-- Node10&#45;&gt;Node11 -->
<g id="edge22" class="edge">
<title>Node10&#45;&gt;Node11</title>
<path fill="none" stroke="midnightblue" d="M642.55,-198.23C675.07,-187.71 716.08,-174.45 746.61,-164.58"/>
<polygon fill="midnightblue" stroke="midnightblue" points="641.19,-194.99 632.76,-201.4 643.35,-201.65 641.19,-194.99"/>
</g>
<!-- Node12 -->
<g id="node12" class="node">
<title>Node12</title>
<g id="a_node12"><a xlink:href="slave__func_8impl_8h.html" target="_top" xlink:title=" ">
<polygon fill="none" stroke="black" points="617.64,-134.5 617.64,-164.5 720.64,-164.5 720.64,-134.5 617.64,-134.5"/>
<text text-anchor="start" x="625.64" y="-152.5" font-family="Helvetica,sans-Serif" font-size="10.00">include/lightmodbus</text>
<text text-anchor="middle" x="669.14" y="-141.5" font-family="Helvetica,sans-Serif" font-size="10.00">/slave_func.impl.h</text>
</a>
</g>
</g>
<!-- Node10&#45;&gt;Node12 -->
<g id="edge24" class="edge">
<title>Node10&#45;&gt;Node12</title>
<path fill="none" stroke="midnightblue" d="M614.52,-194.88C626.67,-185.01 640.92,-173.43 651.82,-164.58"/>
<polygon fill="midnightblue" stroke="midnightblue" points="612.05,-192.37 606.5,-201.4 616.47,-197.81 612.05,-192.37"/>
</g>
<!-- Node11&#45;&gt;Node3 -->
<g id="edge23" class="edge">
<title>Node11&#45;&gt;Node3</title>
<path fill="none" stroke="midnightblue" d="M766.78,-127.8C744.66,-109.25 709.75,-82.63 675.14,-67 622.43,-43.2 557.16,-29.88 512.66,-22.98"/>
<polygon fill="midnightblue" stroke="midnightblue" points="764.73,-130.65 774.61,-134.48 769.27,-125.33 764.73,-130.65"/>
</g>
<!-- Node12&#45;&gt;Node3 -->
<g id="edge25" class="edge">
<title>Node12&#45;&gt;Node3</title>
<path fill="none" stroke="midnightblue" d="M671.13,-124.36C671.26,-106.33 668.32,-82.26 654.14,-67 635.11,-46.51 563.28,-31.77 512.84,-23.69"/>
<polygon fill="midnightblue" stroke="midnightblue" points="667.63,-124.29 670.75,-134.42 674.63,-124.56 667.63,-124.29"/>
</g>
<!-- Node13&#45;&gt;Node3 -->
<g id="edge27" class="edge">
<title>Node13&#45;&gt;Node3</title>
<path fill="none" stroke="midnightblue" d="M811.06,-198.13C826.82,-190.57 841.92,-179.92 851.14,-165 858.38,-153.28 858.44,-145.69 851.14,-134 814.87,-75.89 610.11,-38.43 512.67,-23.66"/>
<polygon fill="midnightblue" stroke="midnightblue" points="809.49,-194.99 801.75,-202.23 812.31,-201.4 809.49,-194.99"/>
</g>
<!-- Node13&#45;&gt;Node11 -->
<g id="edge28" class="edge">
<title>Node13&#45;&gt;Node11</title>
<path fill="none" stroke="midnightblue" d="M764.07,-192.87C769.86,-183.46 776.4,-172.83 781.48,-164.58"/>
<polygon fill="midnightblue" stroke="midnightblue" points="761.08,-191.05 758.82,-201.4 767.04,-194.71 761.08,-191.05"/>
</g>
<!-- Node13&#45;&gt;Node12 -->
<g id="edge29" class="edge">
<title>Node13&#45;&gt;Node12</title>
<path fill="none" stroke="midnightblue" d="M724.45,-194.88C712.14,-185.01 697.71,-173.43 686.68,-164.58"/>
<polygon fill="midnightblue" stroke="midnightblue" points="722.58,-197.87 732.57,-201.4 726.96,-192.41 722.58,-197.87"/>
</g>
</g>
</svg>
