<?xml version="1.0" encoding="UTF-8" standalone="no"?>
<!DOCTYPE svg PUBLIC "-//W3C//DTD SVG 1.1//EN"
 "http://www.w3.org/Graphics/SVG/1.1/DTD/svg11.dtd">
<!-- Generated by graphviz version 2.44.0 ()
 -->
<!-- Title: include/lightmodbus/base.h Pages: 1 -->
<svg width="806pt" height="307pt"
 viewBox="0.00 0.00 805.87 307.00" xmlns="http://www.w3.org/2000/svg" xmlns:xlink="http://www.w3.org/1999/xlink">
<g id="graph0" class="graph" transform="scale(1 1) rotate(0) translate(4 303)">
<title>include/lightmodbus/base.h</title>
<!-- Node1 -->
<g id="node1" class="node">
<title>Node1</title>
<g id="a_node1"><a xlink:title=" ">
<polygon fill="#bfbfbf" stroke="black" points="317,-268.5 317,-298.5 420,-298.5 420,-268.5 317,-268.5"/>
<text text-anchor="start" x="325" y="-286.5" font-family="Helvetica,sans-Serif" font-size="10.00">include/lightmodbus</text>
<text text-anchor="middle" x="368.5" y="-275.5" font-family="Helvetica,sans-Serif" font-size="10.00">/base.h</text>
</a>
</g>
</g>
<!-- Node2 -->
<g id="node2" class="node">
<title>Node2</title>
<g id="a_node2"><a xlink:href="base_8impl_8h.html" target="_top" xlink:title=" ">
<polygon fill="none" stroke="black" points="0,-201.5 0,-231.5 103,-231.5 103,-201.5 0,-201.5"/>
<text text-anchor="start" x="8" y="-219.5" font-family="Helvetica,sans-Serif" font-size="10.00">include/lightmodbus</text>
<text text-anchor="middle" x="51.5" y="-208.5" font-family="Helvetica,sans-Serif" font-size="10.00">/base.impl.h</text>
</a>
</g>
</g>
<!-- Node1&#45;&gt;Node2 -->
<g id="edge1" class="edge">
<title>Node1&#45;&gt;Node2</title>
<path fill="none" stroke="midnightblue" d="M306.87,-269.86C247.54,-257.7 158.83,-239.51 103.11,-228.08"/>
<polygon fill="midnightblue" stroke="midnightblue" points="306.36,-273.33 316.86,-271.91 307.77,-266.47 306.36,-273.33"/>
</g>
<!-- Node4 -->
<g id="node4" class="node">
<title>Node4</title>
<g id="a_node4"><a xlink:href="debug_8h.html" target="_top" xlink:title=" ">
<polygon fill="none" stroke="black" points="79,-134.5 79,-164.5 182,-164.5 182,-134.5 79,-134.5"/>
<text text-anchor="start" x="87" y="-152.5" font-family="Helvetica,sans-Serif" font-size="10.00">include/lightmodbus</text>
<text text-anchor="middle" x="130.5" y="-141.5" font-family="Helvetica,sans-Serif" font-size="10.00">/debug.h</text>
</a>
</g>
</g>
<!-- Node1&#45;&gt;Node4 -->
<g id="edge3" class="edge">
<title>Node1&#45;&gt;Node4</title>
<path fill="none" stroke="midnightblue" d="M329.82,-263.98C310.87,-254.7 287.81,-243.1 267.5,-232 226.46,-209.57 179.9,-181.24 152.99,-164.57"/>
<polygon fill="midnightblue" stroke="midnightblue" points="328.51,-267.24 339.04,-268.47 331.58,-260.95 328.51,-267.24"/>
</g>
<!-- Node6 -->
<g id="node6" class="node">
<title>Node6</title>
<g id="a_node6"><a xlink:href="master_8h.html" target="_top" xlink:title=" ">
<polygon fill="none" stroke="black" points="277,-201.5 277,-231.5 380,-231.5 380,-201.5 277,-201.5"/>
<text text-anchor="start" x="285" y="-219.5" font-family="Helvetica,sans-Serif" font-size="10.00">include/lightmodbus</text>
<text text-anchor="middle" x="328.5" y="-208.5" font-family="Helvetica,sans-Serif" font-size="10.00">/master.h</text>
</a>
</g>
</g>
<!-- Node1&#45;&gt;Node6 -->
<g id="edge7" class="edge">
<title>Node1&#45;&gt;Node6</title>
<path fill="none" stroke="midnightblue" d="M354.57,-259.87C348.78,-250.46 342.24,-239.83 337.16,-231.58"/>
<polygon fill="midnightblue" stroke="midnightblue" points="351.6,-261.71 359.82,-268.4 357.56,-258.05 351.6,-261.71"/>
</g>
<!-- Node8 -->
<g id="node8" class="node">
<title>Node8</title>
<g id="a_node8"><a xlink:href="master__func_8h.html" target="_top" xlink:title=" ">
<polygon fill="none" stroke="black" points="357,-134.5 357,-164.5 460,-164.5 460,-134.5 357,-134.5"/>
<text text-anchor="start" x="365" y="-152.5" font-family="Helvetica,sans-Serif" font-size="10.00">include/lightmodbus</text>
<text text-anchor="middle" x="408.5" y="-141.5" font-family="Helvetica,sans-Serif" font-size="10.00">/master_func.h</text>
</a>
</g>
</g>
<!-- Node1&#45;&gt;Node8 -->
<g id="edge17" class="edge">
<title>Node1&#45;&gt;Node8</title>
<path fill="none" stroke="midnightblue" d="M378.73,-258.62C382.09,-250.29 385.69,-240.81 388.5,-232 395.94,-208.68 402.23,-180.87 405.67,-164.5"/>
<polygon fill="midnightblue" stroke="midnightblue" points="375.4,-257.53 374.81,-268.1 381.87,-260.2 375.4,-257.53"/>
</g>
<!-- Node10 -->
<g id="node10" class="node">
<title>Node10</title>
<g id="a_node10"><a xlink:href="slave_8h.html" target="_top" xlink:title=" ">
<polygon fill="none" stroke="black" points="498,-134.5 498,-164.5 601,-164.5 601,-134.5 498,-134.5"/>
<text text-anchor="start" x="506" y="-152.5" font-family="Helvetica,sans-Serif" font-size="10.00">include/lightmodbus</text>
<text text-anchor="middle" x="549.5" y="-141.5" font-family="Helvetica,sans-Serif" font-size="10.00">/slave.h</text>
</a>
</g>
</g>
<!-- Node1&#45;&gt;Node10 -->
<g id="edge18" class="edge">
<title>Node1&#45;&gt;Node10</title>
<path fill="none" stroke="midnightblue" d="M396.22,-262.28C433.31,-235.24 498.11,-187.98 530.27,-164.52"/>
<polygon fill="midnightblue" stroke="midnightblue" points="393.89,-259.65 387.87,-268.37 398.01,-265.31 393.89,-259.65"/>
</g>
<!-- Node13 -->
<g id="node13" class="node">
<title>Node13</title>
<g id="a_node13"><a xlink:href="slave__func_8h.html" target="_top" xlink:title=" ">
<polygon fill="none" stroke="black" points="659,-134.5 659,-164.5 762,-164.5 762,-134.5 659,-134.5"/>
<text text-anchor="start" x="667" y="-152.5" font-family="Helvetica,sans-Serif" font-size="10.00">include/lightmodbus</text>
<text text-anchor="middle" x="710.5" y="-141.5" font-family="Helvetica,sans-Serif" font-size="10.00">/slave_func.h</text>
</a>
</g>
</g>
<!-- Node1&#45;&gt;Node13 -->
<g id="edge24" class="edge">
<title>Node1&#45;&gt;Node13</title>
<path fill="none" stroke="midnightblue" d="M414.47,-264.76C483.21,-238.23 611.39,-188.75 674.08,-164.56"/>
<polygon fill="midnightblue" stroke="midnightblue" points="412.85,-261.63 404.78,-268.5 415.37,-268.16 412.85,-261.63"/>
</g>
<!-- Node3 -->
<g id="node3" class="node">
<title>Node3</title>
<g id="a_node3"><a xlink:href="lightmodbus_8h.html" target="_top" xlink:title=" ">
<polygon fill="none" stroke="black" points="360,-0.5 360,-30.5 463,-30.5 463,-0.5 360,-0.5"/>
<text text-anchor="start" x="368" y="-18.5" font-family="Helvetica,sans-Serif" font-size="10.00">include/lightmodbus</text>
<text text-anchor="middle" x="411.5" y="-7.5" font-family="Helvetica,sans-Serif" font-size="10.00">/lightmodbus.h</text>
</a>
</g>
</g>
<!-- Node2&#45;&gt;Node3 -->
<g id="edge2" class="edge">
<title>Node2&#45;&gt;Node3</title>
<path fill="none" stroke="midnightblue" d="M38.46,-192.04C22.49,-159.77 1.05,-101.76 31.5,-67 52.82,-42.66 261.1,-26.15 359.94,-19.63"/>
<polygon fill="midnightblue" stroke="midnightblue" points="35.48,-193.9 43.18,-201.17 41.7,-190.68 35.48,-193.9"/>
</g>
<!-- Node4&#45;&gt;Node3 -->
<g id="edge6" class="edge">
<title>Node4&#45;&gt;Node3</title>
<path fill="none" stroke="midnightblue" d="M143.25,-125.51C154.76,-106.9 173.41,-81.49 196.5,-67 246.35,-35.72 313.72,-23.79 359.68,-19.26"/>
<polygon fill="midnightblue" stroke="midnightblue" points="140.14,-123.89 138.04,-134.27 146.15,-127.47 140.14,-123.89"/>
</g>
<!-- Node5 -->
<g id="node5" class="node">
<title>Node5</title>
<g id="a_node5"><a xlink:href="debug_8impl_8h.html" target="_top" xlink:title=" ">
<polygon fill="none" stroke="black" points="41,-67.5 41,-97.5 144,-97.5 144,-67.5 41,-67.5"/>
<text text-anchor="start" x="49" y="-85.5" font-family="Helvetica,sans-Serif" font-size="10.00">include/lightmodbus</text>
<text text-anchor="middle" x="92.5" y="-74.5" font-family="Helvetica,sans-Serif" font-size="10.00">/debug.impl.h</text>
</a>
</g>
</g>
<!-- Node4&#45;&gt;Node5 -->
<g id="edge4" class="edge">
<title>Node4&#45;&gt;Node5</title>
<path fill="none" stroke="midnightblue" d="M117.1,-125.58C111.64,-116.24 105.51,-105.75 100.73,-97.58"/>
<polygon fill="midnightblue" stroke="midnightblue" points="114.19,-127.53 122.25,-134.4 120.23,-124 114.19,-127.53"/>
</g>
<!-- Node5&#45;&gt;Node3 -->
<g id="edge5" class="edge">
<title>Node5&#45;&gt;Node3</title>
<path fill="none" stroke="midnightblue" d="M154.04,-67.94C155.54,-67.62 157.03,-67.31 158.5,-67 227.98,-52.43 308.41,-36.55 359.59,-26.56"/>
<polygon fill="midnightblue" stroke="midnightblue" points="153.05,-64.57 144,-70.08 154.51,-71.42 153.05,-64.57"/>
</g>
<!-- Node6&#45;&gt;Node3 -->
<g id="edge8" class="edge">
<title>Node6&#45;&gt;Node3</title>
<path fill="none" stroke="midnightblue" d="M298.39,-195.61C258.2,-166.6 195.8,-111.33 229.5,-67 245.28,-46.25 311.66,-31.79 359.71,-23.82"/>
<polygon fill="midnightblue" stroke="midnightblue" points="296.39,-198.49 306.58,-201.39 300.43,-192.76 296.39,-198.49"/>
</g>
<!-- Node7 -->
<g id="node7" class="node">
<title>Node7</title>
<g id="a_node7"><a xlink:href="master_8impl_8h.html" target="_top" xlink:title=" ">
<polygon fill="none" stroke="black" points="360,-67.5 360,-97.5 463,-97.5 463,-67.5 360,-67.5"/>
<text text-anchor="start" x="368" y="-85.5" font-family="Helvetica,sans-Serif" font-size="10.00">include/lightmodbus</text>
<text text-anchor="middle" x="411.5" y="-74.5" font-family="Helvetica,sans-Serif" font-size="10.00">/master.impl.h</text>
</a>
</g>
</g>
<!-- Node6&#45;&gt;Node7 -->
<g id="edge9" class="edge">
<title>Node6&#45;&gt;Node7</title>
<path fill="none" stroke="midnightblue" d="M329.94,-191.14C331.92,-174.02 336.57,-151.2 347.5,-134 357.06,-118.95 372.72,-106.48 386.15,-97.7"/>
<polygon fill="midnightblue" stroke="midnightblue" points="326.42,-191.17 328.99,-201.45 333.39,-191.81 326.42,-191.17"/>
</g>
<!-- Node6&#45;&gt;Node8 -->
<g id="edge11" class="edge">
<title>Node6&#45;&gt;Node8</title>
<path fill="none" stroke="midnightblue" d="M353.87,-194.88C366.03,-185.01 380.28,-173.43 391.18,-164.58"/>
<polygon fill="midnightblue" stroke="midnightblue" points="351.41,-192.37 345.86,-201.4 355.83,-197.81 351.41,-192.37"/>
</g>
<!-- Node9 -->
<g id="node9" class="node">
<title>Node9</title>
<g id="a_node9"><a xlink:href="master__func_8impl_8h.html" target="_top" xlink:title=" ">
<polygon fill="none" stroke="black" points="239,-67.5 239,-97.5 342,-97.5 342,-67.5 239,-67.5"/>
<text text-anchor="start" x="247" y="-85.5" font-family="Helvetica,sans-Serif" font-size="10.00">include/lightmodbus</text>
<text text-anchor="middle" x="290.5" y="-74.5" font-family="Helvetica,sans-Serif" font-size="10.00">/master_func.impl.h</text>
</a>
</g>
</g>
<!-- Node6&#45;&gt;Node9 -->
<g id="edge16" class="edge">
<title>Node6&#45;&gt;Node9</title>
<path fill="none" stroke="midnightblue" d="M321.66,-191.75C313.76,-164.29 301,-119.99 294.54,-97.52"/>
<polygon fill="midnightblue" stroke="midnightblue" points="318.3,-192.73 324.43,-201.37 325.03,-190.8 318.3,-192.73"/>
</g>
<!-- Node7&#45;&gt;Node3 -->
<g id="edge10" class="edge">
<title>Node7&#45;&gt;Node3</title>
<path fill="none" stroke="midnightblue" d="M411.5,-57.11C411.5,-48.15 411.5,-38.32 411.5,-30.58"/>
<polygon fill="midnightblue" stroke="midnightblue" points="408,-57.4 411.5,-67.4 415,-57.4 408,-57.4"/>
</g>
<!-- Node8&#45;&gt;Node3 -->
<g id="edge12" class="edge">
<title>Node8&#45;&gt;Node3</title>
<path fill="none" stroke="midnightblue" d="M444.07,-128.69C454.93,-120.69 465.55,-110.39 471.5,-98 477.46,-85.58 477.31,-79.49 471.5,-67 464.32,-51.57 449.85,-39.17 436.91,-30.52"/>
<polygon fill="midnightblue" stroke="midnightblue" points="442.07,-125.82 435.8,-134.36 446.03,-131.59 442.07,-125.82"/>
</g>
<!-- Node8&#45;&gt;Node7 -->
<g id="edge13" class="edge">
<title>Node8&#45;&gt;Node7</title>
<path fill="none" stroke="midnightblue" d="M409.61,-124.4C410.03,-115.37 410.49,-105.41 410.85,-97.58"/>
<polygon fill="midnightblue" stroke="midnightblue" points="406.12,-124.25 409.15,-134.4 413.11,-124.57 406.12,-124.25"/>
</g>
<!-- Node8&#45;&gt;Node9 -->
<g id="edge14" class="edge">
<title>Node8&#45;&gt;Node9</title>
<path fill="none" stroke="midnightblue" d="M373.89,-129.44C355.38,-119.24 332.98,-106.9 316.05,-97.58"/>
<polygon fill="midnightblue" stroke="midnightblue" points="372.45,-132.64 382.9,-134.4 375.83,-126.51 372.45,-132.64"/>
</g>
<!-- Node9&#45;&gt;Node3 -->
<g id="edge15" class="edge">
<title>Node9&#45;&gt;Node3</title>
<path fill="none" stroke="midnightblue" d="M325.73,-62.57C344.76,-52.35 367.87,-39.94 385.3,-30.58"/>
<polygon fill="midnightblue" stroke="midnightblue" points="323.91,-59.58 316.76,-67.4 327.22,-65.75 323.91,-59.58"/>
</g>
<!-- Node10&#45;&gt;Node3 -->
<g id="edge19" class="edge">
<title>Node10&#45;&gt;Node3</title>
<path fill="none" stroke="midnightblue" d="M535.4,-125.46C524.09,-108.13 507.08,-84.46 488.5,-67 473.24,-52.66 453.43,-39.77 437.73,-30.6"/>
<polygon fill="midnightblue" stroke="midnightblue" points="532.75,-127.81 541.07,-134.36 538.65,-124.04 532.75,-127.81"/>
</g>
<!-- Node11 -->
<g id="node11" class="node">
<title>Node11</title>
<g id="a_node11"><a xlink:href="slave_8impl_8h.html" target="_top" xlink:title=" ">
<polygon fill="none" stroke="black" points="679,-67.5 679,-97.5 782,-97.5 782,-67.5 679,-67.5"/>
<text text-anchor="start" x="687" y="-85.5" font-family="Helvetica,sans-Serif" font-size="10.00">include/lightmodbus</text>
<text text-anchor="middle" x="730.5" y="-74.5" font-family="Helvetica,sans-Serif" font-size="10.00">/slave.impl.h</text>
</a>
</g>
</g>
<!-- Node10&#45;&gt;Node11 -->
<g id="edge20" class="edge">
<title>Node10&#45;&gt;Node11</title>
<path fill="none" stroke="midnightblue" d="M598.36,-130.96C627.51,-120.48 664.04,-107.37 691.3,-97.58"/>
<polygon fill="midnightblue" stroke="midnightblue" points="597,-127.72 588.77,-134.4 599.37,-134.31 597,-127.72"/>
</g>
<!-- Node12 -->
<g id="node12" class="node">
<title>Node12</title>
<g id="a_node12"><a xlink:href="slave__func_8impl_8h.html" target="_top" xlink:title=" ">
<polygon fill="none" stroke="black" points="558,-67.5 558,-97.5 661,-97.5 661,-67.5 558,-67.5"/>
<text text-anchor="start" x="566" y="-85.5" font-family="Helvetica,sans-Serif" font-size="10.00">include/lightmodbus</text>
<text text-anchor="middle" x="609.5" y="-74.5" font-family="Helvetica,sans-Serif" font-size="10.00">/slave_func.impl.h</text>
</a>
</g>
</g>
<!-- Node10&#45;&gt;Node12 -->
<g id="edge22" class="edge">
<title>Node10&#45;&gt;Node12</title>
<path fill="none" stroke="midnightblue" d="M569.32,-127.02C578.26,-117.34 588.57,-106.17 596.51,-97.58"/>
<polygon fill="midnightblue" stroke="midnightblue" points="566.73,-124.67 562.52,-134.4 571.87,-129.42 566.73,-124.67"/>
</g>
<!-- Node11&#45;&gt;Node3 -->
<g id="edge21" class="edge">
<title>Node11&#45;&gt;Node3</title>
<path fill="none" stroke="midnightblue" d="M668.97,-66.71C592.11,-50.09 513.47,-35.16 463.24,-25.89"/>
<polygon fill="midnightblue" stroke="midnightblue" points="668.31,-70.15 678.82,-68.86 669.8,-63.31 668.31,-70.15"/>
</g>
<!-- Node12&#45;&gt;Node3 -->
<g id="edge23" class="edge">
<title>Node12&#45;&gt;Node3</title>
<path fill="none" stroke="midnightblue" d="M556.89,-64.23C524.86,-53.71 484.46,-40.45 454.38,-30.58"/>
<polygon fill="midnightblue" stroke="midnightblue" points="555.94,-67.6 566.54,-67.4 558.13,-60.95 555.94,-67.6"/>
</g>
<!-- Node13&#45;&gt;Node3 -->
<g id="edge25" class="edge">
<title>Node13&#45;&gt;Node3</title>
<path fill="none" stroke="midnightblue" d="M750.81,-129.73C780.02,-113.62 811.21,-89.51 791.5,-67 770.18,-42.66 561.9,-26.15 463.06,-19.63"/>
<polygon fill="midnightblue" stroke="midnightblue" points="749.07,-126.69 741.87,-134.46 752.34,-132.87 749.07,-126.69"/>
</g>
<!-- Node13&#45;&gt;Node11 -->
<g id="edge26" class="edge">
<title>Node13&#45;&gt;Node11</title>
<path fill="none" stroke="midnightblue" d="M717.82,-124.7C720.63,-115.59 723.73,-105.49 726.17,-97.58"/>
<polygon fill="midnightblue" stroke="midnightblue" points="714.44,-123.81 714.84,-134.4 721.13,-125.87 714.44,-123.81"/>
</g>
<!-- Node13&#45;&gt;Node12 -->
<g id="edge27" class="edge">
<title>Node13&#45;&gt;Node12</title>
<path fill="none" stroke="midnightblue" d="M679.79,-128.73C664.16,-118.68 645.53,-106.68 631.37,-97.58"/>
<polygon fill="midnightblue" stroke="midnightblue" points="678.28,-131.93 688.58,-134.4 682.07,-126.04 678.28,-131.93"/>
</g>
</g>
</svg>
