<?xml version="1.0" encoding="UTF-8" standalone="no"?>
<!DOCTYPE svg PUBLIC "-//W3C//DTD SVG 1.1//EN"
 "http://www.w3.org/Graphics/SVG/1.1/DTD/svg11.dtd">
<!-- Generated by graphviz version 2.44.0 ()
 -->
<!-- Title: modbusErrorStr Pages: 1 -->
<svg width="244pt" height="116pt"
 viewBox="0.00 0.00 244.00 116.00" xmlns="http://www.w3.org/2000/svg" xmlns:xlink="http://www.w3.org/1999/xlink">
<g id="graph0" class="graph" transform="scale(1 1) rotate(0) translate(4 112)">
<title>modbusErrorStr</title>
<!-- Node1 -->
<g id="node1" class="node">
<title>Node1</title>
<g id="a_node1"><a xlink:title="Returns a string containing the name of the ModbusError value.">
<polygon fill="#bfbfbf" stroke="black" points="152,-44.5 152,-63.5 236,-63.5 236,-44.5 152,-44.5"/>
<text text-anchor="middle" x="194" y="-51.5" font-family="Helvetica,sans-Serif" font-size="10.00">modbusErrorStr</text>
</a>
</g>
</g>
<!-- Node2 -->
<g id="node2" class="node">
<title>Node2</title>
<g id="a_node2"><a xlink:href="classllm_1_1RequestError.html#a9bac08d3669734a868fd42f1c7f2bb23" target="_top" xlink:title=" ">
<polygon fill="none" stroke="black" points="0,-88.5 0,-107.5 116,-107.5 116,-88.5 0,-88.5"/>
<text text-anchor="middle" x="58" y="-95.5" font-family="Helvetica,sans-Serif" font-size="10.00">llm::RequestError::what</text>
</a>
</g>
</g>
<!-- Node1&#45;&gt;Node2 -->
<g id="edge1" class="edge">
<title>Node1&#45;&gt;Node2</title>
<path fill="none" stroke="midnightblue" d="M154.27,-66.72C133.14,-73.66 107.41,-82.1 88.02,-88.47"/>
<polygon fill="midnightblue" stroke="midnightblue" points="155.51,-69.99 163.92,-63.55 153.33,-63.34 155.51,-69.99"/>
</g>
<!-- Node3 -->
<g id="node3" class="node">
<title>Node3</title>
<g id="a_node3"><a xlink:href="classllm_1_1ResponseError.html#a33a2e978acba874ef1778aa172e4cb9c" target="_top" xlink:title=" ">
<polygon fill="none" stroke="black" points="9,-39 9,-69 107,-69 107,-39 9,-39"/>
<text text-anchor="start" x="17" y="-57" font-family="Helvetica,sans-Serif" font-size="10.00">llm::ResponseError</text>
<text text-anchor="middle" x="58" y="-46" font-family="Helvetica,sans-Serif" font-size="10.00">::what</text>
</a>
</g>
</g>
<!-- Node1&#45;&gt;Node3 -->
<g id="edge2" class="edge">
<title>Node1&#45;&gt;Node3</title>
<path fill="none" stroke="midnightblue" d="M141.61,-54C130.39,-54 118.55,-54 107.45,-54"/>
<polygon fill="midnightblue" stroke="midnightblue" points="141.7,-57.5 151.7,-54 141.7,-50.5 141.7,-57.5"/>
</g>
<!-- Node4 -->
<g id="node4" class="node">
<title>Node4</title>
<g id="a_node4"><a xlink:href="classllm_1_1GeneralError.html#afc7351f91e04823a3842a6c84a464b17" target="_top" xlink:title=" ">
<polygon fill="none" stroke="black" points="1.5,-0.5 1.5,-19.5 114.5,-19.5 114.5,-0.5 1.5,-0.5"/>
<text text-anchor="middle" x="58" y="-7.5" font-family="Helvetica,sans-Serif" font-size="10.00">llm::GeneralError::what</text>
</a>
</g>
</g>
<!-- Node1&#45;&gt;Node4 -->
<g id="edge3" class="edge">
<title>Node1&#45;&gt;Node4</title>
<path fill="none" stroke="midnightblue" d="M154.27,-41.28C133.14,-34.34 107.41,-25.9 88.02,-19.53"/>
<polygon fill="midnightblue" stroke="midnightblue" points="153.33,-44.66 163.92,-44.45 155.51,-38.01 153.33,-44.66"/>
</g>
</g>
</svg>
