<?xml version="1.0" encoding="UTF-8" standalone="no"?>
<!DOCTYPE svg PUBLIC "-//W3C//DTD SVG 1.1//EN"
 "http://www.w3.org/Graphics/SVG/1.1/DTD/svg11.dtd">
<!-- Generated by graphviz version 2.44.0 ()
 -->
<!-- Title: include/lightmodbus/debug.h Pages: 1 -->
<svg width="151pt" height="240pt"
 viewBox="0.00 0.00 151.00 240.00" xmlns="http://www.w3.org/2000/svg" xmlns:xlink="http://www.w3.org/1999/xlink">
<g id="graph0" class="graph" transform="scale(1 1) rotate(0) translate(4 236)">
<title>include/lightmodbus/debug.h</title>
<!-- Node1 -->
<g id="node1" class="node">
<title>Node1</title>
<g id="a_node1"><a xlink:title="Debug utilities (header)">
<polygon fill="#bfbfbf" stroke="black" points="40,-201.5 40,-231.5 143,-231.5 143,-201.5 40,-201.5"/>
<text text-anchor="start" x="48" y="-219.5" font-family="Helvetica,sans-Serif" font-size="10.00">include/lightmodbus</text>
<text text-anchor="middle" x="91.5" y="-208.5" font-family="Helvetica,sans-Serif" font-size="10.00">/debug.h</text>
</a>
</g>
</g>
<!-- Node2 -->
<g id="node2" class="node">
<title>Node2</title>
<g id="a_node2"><a xlink:href="debug_8impl_8h.html" target="_top" xlink:title="Debug utilities (implementation)">
<polygon fill="none" stroke="black" points="0,-134.5 0,-164.5 103,-164.5 103,-134.5 0,-134.5"/>
<text text-anchor="start" x="8" y="-152.5" font-family="Helvetica,sans-Serif" font-size="10.00">include/lightmodbus</text>
<text text-anchor="middle" x="51.5" y="-141.5" font-family="Helvetica,sans-Serif" font-size="10.00">/debug.impl.h</text>
</a>
</g>
</g>
<!-- Node1&#45;&gt;Node2 -->
<g id="edge1" class="edge">
<title>Node1&#45;&gt;Node2</title>
<path fill="none" stroke="midnightblue" d="M77.57,-192.87C71.78,-183.46 65.24,-172.83 60.16,-164.58"/>
<polygon fill="midnightblue" stroke="midnightblue" points="74.6,-194.71 82.82,-201.4 80.56,-191.05 74.6,-194.71"/>
</g>
<!-- Node3 -->
<g id="node3" class="node">
<title>Node3</title>
<g id="a_node3"><a xlink:href="lightmodbus_8h.html" target="_top" xlink:title="The main library header file (include this one)">
<polygon fill="none" stroke="black" points="40,-67.5 40,-97.5 143,-97.5 143,-67.5 40,-67.5"/>
<text text-anchor="start" x="48" y="-85.5" font-family="Helvetica,sans-Serif" font-size="10.00">include/lightmodbus</text>
<text text-anchor="middle" x="91.5" y="-74.5" font-family="Helvetica,sans-Serif" font-size="10.00">/lightmodbus.h</text>
</a>
</g>
</g>
<!-- Node1&#45;&gt;Node3 -->
<g id="edge4" class="edge">
<title>Node1&#45;&gt;Node3</title>
<path fill="none" stroke="midnightblue" d="M103.41,-192.26C107.09,-183.9 110.66,-174.24 112.5,-165 115.2,-151.49 115.2,-147.51 112.5,-134 109.93,-121.15 104.03,-107.48 99.14,-97.61"/>
<polygon fill="midnightblue" stroke="midnightblue" points="100.21,-190.85 99.14,-201.39 106.55,-193.82 100.21,-190.85"/>
</g>
<!-- Node2&#45;&gt;Node3 -->
<g id="edge2" class="edge">
<title>Node2&#45;&gt;Node3</title>
<path fill="none" stroke="midnightblue" d="M65.43,-125.87C71.22,-116.46 77.76,-105.83 82.84,-97.58"/>
<polygon fill="midnightblue" stroke="midnightblue" points="62.44,-124.05 60.18,-134.4 68.4,-127.71 62.44,-124.05"/>
</g>
<!-- Node4 -->
<g id="node4" class="node">
<title>Node4</title>
<g id="a_node4"><a xlink:href="lightmodbus_8hpp.html" target="_top" xlink:title="(Very) experimental liblightmodbus C++ interface">
<polygon fill="none" stroke="black" points="40,-0.5 40,-30.5 143,-30.5 143,-0.5 40,-0.5"/>
<text text-anchor="start" x="48" y="-18.5" font-family="Helvetica,sans-Serif" font-size="10.00">include/lightmodbus</text>
<text text-anchor="middle" x="91.5" y="-7.5" font-family="Helvetica,sans-Serif" font-size="10.00">/lightmodbus.hpp</text>
</a>
</g>
</g>
<!-- Node3&#45;&gt;Node4 -->
<g id="edge3" class="edge">
<title>Node3&#45;&gt;Node4</title>
<path fill="none" stroke="midnightblue" d="M91.5,-57.11C91.5,-48.15 91.5,-38.32 91.5,-30.58"/>
<polygon fill="midnightblue" stroke="midnightblue" points="88,-57.4 91.5,-67.4 95,-57.4 88,-57.4"/>
</g>
</g>
</svg>
