<?xml version="1.0" encoding="UTF-8" standalone="no"?>
<!DOCTYPE svg PUBLIC "-//W3C//DTD SVG 1.1//EN"
 "http://www.w3.org/Graphics/SVG/1.1/DTD/svg11.dtd">
<!-- Generated by graphviz version 2.44.0 ()
 -->
<!-- Title: Graphical Class Hierarchy Pages: 1 -->
<svg width="218pt" height="104pt"
 viewBox="0.00 0.00 218.00 104.00" xmlns="http://www.w3.org/2000/svg" xmlns:xlink="http://www.w3.org/1999/xlink">
<g id="graph0" class="graph" transform="scale(1 1) rotate(0) translate(4 100)">
<title>Graphical Class Hierarchy</title>
<!-- Node1 -->
<g id="node1" class="node">
<title>Node1</title>
<g id="a_node1"><a xlink:title=" ">
<polygon fill="none" stroke="#bfbfbf" points="0,-38.5 0,-57.5 76,-57.5 76,-38.5 0,-38.5"/>
<text text-anchor="middle" x="38" y="-45.5" font-family="Helvetica,sans-Serif" font-size="10.00">std::exception</text>
</a>
</g>
</g>
<!-- Node0 -->
<g id="node2" class="node">
<title>Node0</title>
<g id="a_node2"><a xlink:href="classllm_1_1GeneralError.html" target="_top" xlink:title="General error exception class.">
<polygon fill="none" stroke="black" points="117,-76.5 117,-95.5 205,-95.5 205,-76.5 117,-76.5"/>
<text text-anchor="middle" x="161" y="-83.5" font-family="Helvetica,sans-Serif" font-size="10.00">llm::GeneralError</text>
</a>
</g>
</g>
<!-- Node1&#45;&gt;Node0 -->
<g id="edge1" class="edge">
<title>Node1&#45;&gt;Node0</title>
<path fill="none" stroke="midnightblue" d="M79.38,-60.68C95.73,-65.81 114.29,-71.64 129.48,-76.41"/>
<polygon fill="midnightblue" stroke="midnightblue" points="80.12,-57.25 69.53,-57.59 78.03,-63.92 80.12,-57.25"/>
</g>
<!-- Node3 -->
<g id="node3" class="node">
<title>Node3</title>
<g id="a_node3"><a xlink:href="classllm_1_1RequestError.html" target="_top" xlink:title="Request error exception class.">
<polygon fill="none" stroke="black" points="116,-38.5 116,-57.5 206,-57.5 206,-38.5 116,-38.5"/>
<text text-anchor="middle" x="161" y="-45.5" font-family="Helvetica,sans-Serif" font-size="10.00">llm::RequestError</text>
</a>
</g>
</g>
<!-- Node1&#45;&gt;Node3 -->
<g id="edge2" class="edge">
<title>Node1&#45;&gt;Node3</title>
<path fill="none" stroke="midnightblue" d="M86.53,-48C96.18,-48 106.29,-48 115.82,-48"/>
<polygon fill="midnightblue" stroke="midnightblue" points="86.29,-44.5 76.29,-48 86.29,-51.5 86.29,-44.5"/>
</g>
<!-- Node4 -->
<g id="node4" class="node">
<title>Node4</title>
<g id="a_node4"><a xlink:href="classllm_1_1ResponseError.html" target="_top" xlink:title="Response error exception class.">
<polygon fill="none" stroke="black" points="112,-0.5 112,-19.5 210,-19.5 210,-0.5 112,-0.5"/>
<text text-anchor="middle" x="161" y="-7.5" font-family="Helvetica,sans-Serif" font-size="10.00">llm::ResponseError</text>
</a>
</g>
</g>
<!-- Node1&#45;&gt;Node4 -->
<g id="edge3" class="edge">
<title>Node1&#45;&gt;Node4</title>
<path fill="none" stroke="midnightblue" d="M79.38,-35.32C95.73,-30.19 114.29,-24.36 129.48,-19.59"/>
<polygon fill="midnightblue" stroke="midnightblue" points="78.03,-32.08 69.53,-38.41 80.12,-38.75 78.03,-32.08"/>
</g>
</g>
</svg>
