<?xml version="1.0" encoding="UTF-8" standalone="no"?>
<!DOCTYPE svg PUBLIC "-//W3C//DTD SVG 1.1//EN"
 "http://www.w3.org/Graphics/SVG/1.1/DTD/svg11.dtd">
<!-- Generated by graphviz version 2.44.0 ()
 -->
<!-- Title: include/lightmodbus/lightmodbus.h Pages: 1 -->
<svg width="706pt" height="319pt"
 viewBox="0.00 0.00 705.82 319.00" xmlns="http://www.w3.org/2000/svg" xmlns:xlink="http://www.w3.org/1999/xlink">
<g id="graph0" class="graph" transform="scale(1 1) rotate(0) translate(4 315)">
<title>include/lightmodbus/lightmodbus.h</title>
<!-- Node1 -->
<g id="node1" class="node">
<title>Node1</title>
<g id="a_node1"><a xlink:title=" ">
<polygon fill="#bfbfbf" stroke="black" points="232.82,-280.5 232.82,-310.5 335.82,-310.5 335.82,-280.5 232.82,-280.5"/>
<text text-anchor="start" x="240.82" y="-298.5" font-family="Helvetica,sans-Serif" font-size="10.00">include/lightmodbus</text>
<text text-anchor="middle" x="284.32" y="-287.5" font-family="Helvetica,sans-Serif" font-size="10.00">/lightmodbus.h</text>
</a>
</g>
</g>
<!-- Node2 -->
<g id="node2" class="node">
<title>Node2</title>
<g id="a_node2"><a xlink:href="slave_8h.html" target="_top" xlink:title=" ">
<polygon fill="none" stroke="black" points="175.82,-112.5 175.82,-131.5 222.82,-131.5 222.82,-112.5 175.82,-112.5"/>
<text text-anchor="middle" x="199.32" y="-119.5" font-family="Helvetica,sans-Serif" font-size="10.00">slave.h</text>
</a>
</g>
</g>
<!-- Node1&#45;&gt;Node2 -->
<g id="edge1" class="edge">
<title>Node1&#45;&gt;Node2</title>
<path fill="none" stroke="midnightblue" d="M232.73,-292.71C160.65,-288.99 35.46,-277.74 7.32,-244 -15.76,-216.33 22.87,-184.35 45.32,-168 81.28,-141.81 132.31,-130.78 165.62,-126.19"/>
<polygon fill="midnightblue" stroke="midnightblue" points="166.28,-129.64 175.76,-124.92 165.4,-122.69 166.28,-129.64"/>
</g>
<!-- Node6 -->
<g id="node6" class="node">
<title>Node6</title>
<g id="a_node6"><a xlink:href="slave__func_8h.html" target="_top" xlink:title=" ">
<polygon fill="none" stroke="black" points="178.82,-168.5 178.82,-187.5 249.82,-187.5 249.82,-168.5 178.82,-168.5"/>
<text text-anchor="middle" x="214.32" y="-175.5" font-family="Helvetica,sans-Serif" font-size="10.00">slave_func.h</text>
</a>
</g>
</g>
<!-- Node1&#45;&gt;Node6 -->
<g id="edge6" class="edge">
<title>Node1&#45;&gt;Node6</title>
<path fill="none" stroke="midnightblue" d="M263.63,-280.42C251.85,-271.36 237.8,-258.56 229.32,-244 221.03,-229.77 217.32,-211.3 215.67,-197.68"/>
<polygon fill="midnightblue" stroke="midnightblue" points="219.14,-197.21 214.7,-187.59 212.17,-197.88 219.14,-197.21"/>
</g>
<!-- Node7 -->
<g id="node7" class="node">
<title>Node7</title>
<g id="a_node7"><a xlink:href="master_8h.html" target="_top" xlink:title=" ">
<polygon fill="none" stroke="black" points="343.32,-112.5 343.32,-131.5 397.32,-131.5 397.32,-112.5 343.32,-112.5"/>
<text text-anchor="middle" x="370.32" y="-119.5" font-family="Helvetica,sans-Serif" font-size="10.00">master.h</text>
</a>
</g>
</g>
<!-- Node1&#45;&gt;Node7 -->
<g id="edge8" class="edge">
<title>Node1&#45;&gt;Node7</title>
<path fill="none" stroke="midnightblue" d="M304.89,-280.35C316.62,-271.26 330.67,-258.46 339.32,-244 358.84,-211.39 366.16,-166.73 368.84,-141.79"/>
<polygon fill="midnightblue" stroke="midnightblue" points="372.35,-141.84 369.79,-131.55 365.38,-141.19 372.35,-141.84"/>
</g>
<!-- Node8 -->
<g id="node8" class="node">
<title>Node8</title>
<g id="a_node8"><a xlink:href="master__func_8h.html" target="_top" xlink:title=" ">
<polygon fill="none" stroke="black" points="424.32,-168.5 424.32,-187.5 502.32,-187.5 502.32,-168.5 424.32,-168.5"/>
<text text-anchor="middle" x="463.32" y="-175.5" font-family="Helvetica,sans-Serif" font-size="10.00">master_func.h</text>
</a>
</g>
</g>
<!-- Node1&#45;&gt;Node8 -->
<g id="edge12" class="edge">
<title>Node1&#45;&gt;Node8</title>
<path fill="none" stroke="midnightblue" d="M336.04,-287.45C384.93,-279.6 453.16,-265.17 469.32,-244 479.41,-230.79 475.97,-211.39 471.19,-197.22"/>
<polygon fill="midnightblue" stroke="midnightblue" points="474.35,-195.67 467.48,-187.6 467.81,-198.19 474.35,-195.67"/>
</g>
<!-- Node9 -->
<g id="node9" class="node">
<title>Node9</title>
<g id="a_node9"><a xlink:href="debug_8h.html" target="_top" xlink:title=" ">
<polygon fill="none" stroke="black" points="54.32,-168.5 54.32,-187.5 104.32,-187.5 104.32,-168.5 54.32,-168.5"/>
<text text-anchor="middle" x="79.32" y="-175.5" font-family="Helvetica,sans-Serif" font-size="10.00">debug.h</text>
</a>
</g>
</g>
<!-- Node1&#45;&gt;Node9 -->
<g id="edge15" class="edge">
<title>Node1&#45;&gt;Node9</title>
<path fill="none" stroke="midnightblue" d="M232.73,-292.39C162.5,-288.31 42.4,-276.64 15.32,-244 -0.48,-224.96 26.85,-204.94 50.55,-192.24"/>
<polygon fill="midnightblue" stroke="midnightblue" points="52.36,-195.24 59.69,-187.59 49.19,-189.01 52.36,-195.24"/>
</g>
<!-- Node10 -->
<g id="node10" class="node">
<title>Node10</title>
<g id="a_node10"><a xlink:href="base_8impl_8h.html" target="_top" xlink:title=" ">
<polygon fill="none" stroke="black" points="632.82,-224.5 632.82,-243.5 697.82,-243.5 697.82,-224.5 632.82,-224.5"/>
<text text-anchor="middle" x="665.32" y="-231.5" font-family="Helvetica,sans-Serif" font-size="10.00">base.impl.h</text>
</a>
</g>
</g>
<!-- Node1&#45;&gt;Node10 -->
<g id="edge18" class="edge">
<title>Node1&#45;&gt;Node10</title>
<path fill="none" stroke="midnightblue" d="M335.89,-287.85C400.47,-279.29 514.71,-263.4 622.71,-244.01"/>
<polygon fill="midnightblue" stroke="midnightblue" points="623.59,-247.41 632.8,-242.18 622.34,-240.52 623.59,-247.41"/>
</g>
<!-- Node12 -->
<g id="node12" class="node">
<title>Node12</title>
<g id="a_node12"><a xlink:href="slave_8impl_8h.html" target="_top" xlink:title=" ">
<polygon fill="none" stroke="black" points="114.32,-224.5 114.32,-243.5 182.32,-243.5 182.32,-224.5 114.32,-224.5"/>
<text text-anchor="middle" x="148.32" y="-231.5" font-family="Helvetica,sans-Serif" font-size="10.00">slave.impl.h</text>
</a>
</g>
</g>
<!-- Node1&#45;&gt;Node12 -->
<g id="edge21" class="edge">
<title>Node1&#45;&gt;Node12</title>
<path fill="none" stroke="midnightblue" d="M252.09,-280.4C229.48,-270.51 199.48,-257.38 177.56,-247.79"/>
<polygon fill="midnightblue" stroke="midnightblue" points="178.68,-244.46 168.11,-243.66 175.87,-250.87 178.68,-244.46"/>
</g>
<!-- Node13 -->
<g id="node13" class="node">
<title>Node13</title>
<g id="a_node13"><a xlink:href="slave__func_8impl_8h.html" target="_top" xlink:title=" ">
<polygon fill="none" stroke="black" points="238.32,-224.5 238.32,-243.5 330.32,-243.5 330.32,-224.5 238.32,-224.5"/>
<text text-anchor="middle" x="284.32" y="-231.5" font-family="Helvetica,sans-Serif" font-size="10.00">slave_func.impl.h</text>
</a>
</g>
</g>
<!-- Node1&#45;&gt;Node13 -->
<g id="edge24" class="edge">
<title>Node1&#45;&gt;Node13</title>
<path fill="none" stroke="midnightblue" d="M284.32,-280.4C284.32,-272.47 284.32,-262.46 284.32,-253.86"/>
<polygon fill="midnightblue" stroke="midnightblue" points="287.82,-253.66 284.32,-243.66 280.82,-253.66 287.82,-253.66"/>
</g>
<!-- Node14 -->
<g id="node14" class="node">
<title>Node14</title>
<g id="a_node14"><a xlink:href="master_8impl_8h.html" target="_top" xlink:title=" ">
<polygon fill="none" stroke="black" points="386.32,-224.5 386.32,-243.5 460.32,-243.5 460.32,-224.5 386.32,-224.5"/>
<text text-anchor="middle" x="423.32" y="-231.5" font-family="Helvetica,sans-Serif" font-size="10.00">master.impl.h</text>
</a>
</g>
</g>
<!-- Node1&#45;&gt;Node14 -->
<g id="edge27" class="edge">
<title>Node1&#45;&gt;Node14</title>
<path fill="none" stroke="midnightblue" d="M317.26,-280.4C340.48,-270.46 371.31,-257.26 393.74,-247.66"/>
<polygon fill="midnightblue" stroke="midnightblue" points="395.28,-250.81 403.1,-243.66 392.53,-244.38 395.28,-250.81"/>
</g>
<!-- Node15 -->
<g id="node15" class="node">
<title>Node15</title>
<g id="a_node15"><a xlink:href="master__func_8impl_8h.html" target="_top" xlink:title=" ">
<polygon fill="none" stroke="black" points="516.32,-224.5 516.32,-243.5 614.32,-243.5 614.32,-224.5 516.32,-224.5"/>
<text text-anchor="middle" x="565.32" y="-231.5" font-family="Helvetica,sans-Serif" font-size="10.00">master_func.impl.h</text>
</a>
</g>
</g>
<!-- Node1&#45;&gt;Node15 -->
<g id="edge30" class="edge">
<title>Node1&#45;&gt;Node15</title>
<path fill="none" stroke="midnightblue" d="M335.86,-283.59C386.85,-272.79 464.4,-256.37 514.97,-245.66"/>
<polygon fill="midnightblue" stroke="midnightblue" points="515.97,-249.03 525.02,-243.53 514.52,-242.18 515.97,-249.03"/>
</g>
<!-- Node16 -->
<g id="node16" class="node">
<title>Node16</title>
<g id="a_node16"><a xlink:href="debug_8impl_8h.html" target="_top" xlink:title=" ">
<polygon fill="none" stroke="black" points="24.82,-224.5 24.82,-243.5 95.82,-243.5 95.82,-224.5 24.82,-224.5"/>
<text text-anchor="middle" x="60.32" y="-231.5" font-family="Helvetica,sans-Serif" font-size="10.00">debug.impl.h</text>
</a>
</g>
</g>
<!-- Node1&#45;&gt;Node16 -->
<g id="edge33" class="edge">
<title>Node1&#45;&gt;Node16</title>
<path fill="none" stroke="midnightblue" d="M232.65,-280.77C193.09,-270.27 139.21,-255.95 102.29,-246.15"/>
<polygon fill="midnightblue" stroke="midnightblue" points="102.91,-242.69 92.35,-243.51 101.12,-249.46 102.91,-242.69"/>
</g>
<!-- Node3 -->
<g id="node3" class="node">
<title>Node3</title>
<g id="a_node3"><a xlink:title=" ">
<polygon fill="none" stroke="#bfbfbf" points="295.32,-0.5 295.32,-19.5 343.32,-19.5 343.32,-0.5 295.32,-0.5"/>
<text text-anchor="middle" x="319.32" y="-7.5" font-family="Helvetica,sans-Serif" font-size="10.00">stdint.h</text>
</a>
</g>
</g>
<!-- Node2&#45;&gt;Node3 -->
<g id="edge2" class="edge">
<title>Node2&#45;&gt;Node3</title>
<path fill="none" stroke="midnightblue" d="M199.61,-112.33C200.5,-98.74 204.09,-72.29 218.32,-56 235.63,-36.19 263.34,-24.7 285.36,-18.29"/>
<polygon fill="midnightblue" stroke="midnightblue" points="286.27,-21.67 295.02,-15.69 284.46,-14.91 286.27,-21.67"/>
</g>
<!-- Node4 -->
<g id="node4" class="node">
<title>Node4</title>
<g id="a_node4"><a xlink:title=" ">
<polygon fill="none" stroke="#bfbfbf" points="227.82,-56.5 227.82,-75.5 278.82,-75.5 278.82,-56.5 227.82,-56.5"/>
<text text-anchor="middle" x="253.32" y="-63.5" font-family="Helvetica,sans-Serif" font-size="10.00">stddef.h</text>
</a>
</g>
</g>
<!-- Node2&#45;&gt;Node4 -->
<g id="edge3" class="edge">
<title>Node2&#45;&gt;Node4</title>
<path fill="none" stroke="midnightblue" d="M208.24,-112.08C216.1,-104.22 227.75,-92.57 237.24,-83.08"/>
<polygon fill="midnightblue" stroke="midnightblue" points="239.97,-85.3 244.57,-75.75 235.02,-80.35 239.97,-85.3"/>
</g>
<!-- Node5 -->
<g id="node5" class="node">
<title>Node5</title>
<g id="a_node5"><a xlink:href="base_8h.html" target="_top" xlink:title=" ">
<polygon fill="none" stroke="black" points="296.82,-56.5 296.82,-75.5 341.82,-75.5 341.82,-56.5 296.82,-56.5"/>
<text text-anchor="middle" x="319.32" y="-63.5" font-family="Helvetica,sans-Serif" font-size="10.00">base.h</text>
</a>
</g>
</g>
<!-- Node2&#45;&gt;Node5 -->
<g id="edge4" class="edge">
<title>Node2&#45;&gt;Node5</title>
<path fill="none" stroke="midnightblue" d="M218.34,-112.44C237.91,-103.64 268.63,-89.81 291.05,-79.72"/>
<polygon fill="midnightblue" stroke="midnightblue" points="292.71,-82.81 300.4,-75.52 289.84,-76.43 292.71,-82.81"/>
</g>
<!-- Node5&#45;&gt;Node3 -->
<g id="edge5" class="edge">
<title>Node5&#45;&gt;Node3</title>
<path fill="none" stroke="midnightblue" d="M319.32,-56.08C319.32,-49.01 319.32,-38.86 319.32,-29.99"/>
<polygon fill="midnightblue" stroke="midnightblue" points="322.82,-29.75 319.32,-19.75 315.82,-29.75 322.82,-29.75"/>
</g>
<!-- Node6&#45;&gt;Node5 -->
<g id="edge7" class="edge">
<title>Node6&#45;&gt;Node5</title>
<path fill="none" stroke="midnightblue" d="M227.63,-168.31C239.99,-159.88 258.5,-146.29 272.32,-132 286.63,-117.19 300.09,-97.81 308.91,-84.07"/>
<polygon fill="midnightblue" stroke="midnightblue" points="311.88,-85.92 314.23,-75.59 305.95,-82.2 311.88,-85.92"/>
</g>
<!-- Node7&#45;&gt;Node3 -->
<g id="edge9" class="edge">
<title>Node7&#45;&gt;Node3</title>
<path fill="none" stroke="midnightblue" d="M368.53,-112.27C365.71,-99.49 359.58,-75.13 350.32,-56 345.53,-46.09 338.71,-35.92 332.69,-27.76"/>
<polygon fill="midnightblue" stroke="midnightblue" points="335.46,-25.62 326.6,-19.8 329.9,-29.87 335.46,-25.62"/>
</g>
<!-- Node7&#45;&gt;Node4 -->
<g id="edge10" class="edge">
<title>Node7&#45;&gt;Node4</title>
<path fill="none" stroke="midnightblue" d="M351.78,-112.44C332.7,-103.64 302.75,-89.81 280.89,-79.72"/>
<polygon fill="midnightblue" stroke="midnightblue" points="282.32,-76.53 271.77,-75.52 279.39,-82.88 282.32,-76.53"/>
</g>
<!-- Node7&#45;&gt;Node5 -->
<g id="edge11" class="edge">
<title>Node7&#45;&gt;Node5</title>
<path fill="none" stroke="midnightblue" d="M361.9,-112.08C354.47,-104.22 343.47,-92.57 334.51,-83.08"/>
<polygon fill="midnightblue" stroke="midnightblue" points="337,-80.62 327.59,-75.75 331.91,-85.42 337,-80.62"/>
</g>
<!-- Node8&#45;&gt;Node5 -->
<g id="edge13" class="edge">
<title>Node8&#45;&gt;Node5</title>
<path fill="none" stroke="midnightblue" d="M457.18,-168.07C447.57,-154.59 427.83,-128.84 406.32,-112 389.26,-98.65 367.63,-87.44 350.21,-79.55"/>
<polygon fill="midnightblue" stroke="midnightblue" points="351.58,-76.33 341.02,-75.51 348.77,-82.74 351.58,-76.33"/>
</g>
<!-- Node8&#45;&gt;Node7 -->
<g id="edge14" class="edge">
<title>Node8&#45;&gt;Node7</title>
<path fill="none" stroke="midnightblue" d="M448.38,-168.32C433.74,-159.82 411.19,-146.73 394.08,-136.8"/>
<polygon fill="midnightblue" stroke="midnightblue" points="395.63,-133.65 385.23,-131.65 392.12,-139.7 395.63,-133.65"/>
</g>
<!-- Node9&#45;&gt;Node2 -->
<g id="edge17" class="edge">
<title>Node9&#45;&gt;Node2</title>
<path fill="none" stroke="midnightblue" d="M98.34,-168.44C117.91,-159.64 148.63,-145.81 171.05,-135.72"/>
<polygon fill="midnightblue" stroke="midnightblue" points="172.71,-138.81 180.4,-131.52 169.84,-132.43 172.71,-138.81"/>
</g>
<!-- Node9&#45;&gt;Node5 -->
<g id="edge16" class="edge">
<title>Node9&#45;&gt;Node5</title>
<path fill="none" stroke="midnightblue" d="M104.53,-172.35C135.53,-166.01 189.19,-152.98 231.32,-132 257.96,-118.73 284.96,-97.36 301.89,-82.77"/>
<polygon fill="midnightblue" stroke="midnightblue" points="304.58,-85.07 309.78,-75.84 299.96,-79.81 304.58,-85.07"/>
</g>
<!-- Node10&#45;&gt;Node5 -->
<g id="edge19" class="edge">
<title>Node10&#45;&gt;Node5</title>
<path fill="none" stroke="midnightblue" d="M649.97,-224.41C612.93,-203.83 515.52,-150.58 431.32,-112 404.77,-99.83 373.93,-87.58 351.34,-78.93"/>
<polygon fill="midnightblue" stroke="midnightblue" points="352.49,-75.63 341.9,-75.35 350.01,-82.17 352.49,-75.63"/>
</g>
<!-- Node11 -->
<g id="node11" class="node">
<title>Node11</title>
<g id="a_node11"><a xlink:title=" ">
<polygon fill="none" stroke="#bfbfbf" points="641.82,-168.5 641.82,-187.5 688.82,-187.5 688.82,-168.5 641.82,-168.5"/>
<text text-anchor="middle" x="665.32" y="-175.5" font-family="Helvetica,sans-Serif" font-size="10.00">stdlib.h</text>
</a>
</g>
</g>
<!-- Node10&#45;&gt;Node11 -->
<g id="edge20" class="edge">
<title>Node10&#45;&gt;Node11</title>
<path fill="none" stroke="midnightblue" d="M665.32,-224.08C665.32,-217.01 665.32,-206.86 665.32,-197.99"/>
<polygon fill="midnightblue" stroke="midnightblue" points="668.82,-197.75 665.32,-187.75 661.82,-197.75 668.82,-197.75"/>
</g>
<!-- Node12&#45;&gt;Node2 -->
<g id="edge22" class="edge">
<title>Node12&#45;&gt;Node2</title>
<path fill="none" stroke="midnightblue" d="M150.32,-224.3C153.42,-211.55 160.03,-187.22 169.32,-168 174.07,-158.17 180.69,-147.99 186.51,-139.8"/>
<polygon fill="midnightblue" stroke="midnightblue" points="189.49,-141.66 192.59,-131.53 183.85,-137.52 189.49,-141.66"/>
</g>
<!-- Node12&#45;&gt;Node6 -->
<g id="edge23" class="edge">
<title>Node12&#45;&gt;Node6</title>
<path fill="none" stroke="midnightblue" d="M158.93,-224.32C168.78,-216.26 183.67,-204.08 195.54,-194.37"/>
<polygon fill="midnightblue" stroke="midnightblue" points="198,-196.88 203.52,-187.83 193.57,-191.46 198,-196.88"/>
</g>
<!-- Node13&#45;&gt;Node2 -->
<g id="edge26" class="edge">
<title>Node13&#45;&gt;Node2</title>
<path fill="none" stroke="midnightblue" d="M282.42,-224.26C279.2,-211.03 271.71,-185.61 258.32,-168 248.88,-155.58 235.16,-144.84 223.33,-136.97"/>
<polygon fill="midnightblue" stroke="midnightblue" points="225.08,-133.93 214.76,-131.53 221.33,-139.84 225.08,-133.93"/>
</g>
<!-- Node13&#45;&gt;Node6 -->
<g id="edge25" class="edge">
<title>Node13&#45;&gt;Node6</title>
<path fill="none" stroke="midnightblue" d="M273.07,-224.32C262.52,-216.18 246.52,-203.84 233.88,-194.09"/>
<polygon fill="midnightblue" stroke="midnightblue" points="235.83,-191.17 225.77,-187.83 231.55,-196.71 235.83,-191.17"/>
</g>
<!-- Node14&#45;&gt;Node7 -->
<g id="edge28" class="edge">
<title>Node14&#45;&gt;Node7</title>
<path fill="none" stroke="midnightblue" d="M419.16,-224.37C410.49,-206.38 390.34,-164.55 378.81,-140.63"/>
<polygon fill="midnightblue" stroke="midnightblue" points="381.95,-139.08 374.46,-131.59 375.65,-142.12 381.95,-139.08"/>
</g>
<!-- Node14&#45;&gt;Node8 -->
<g id="edge29" class="edge">
<title>Node14&#45;&gt;Node8</title>
<path fill="none" stroke="midnightblue" d="M429.93,-224.08C435.58,-216.46 443.87,-205.26 450.77,-195.94"/>
<polygon fill="midnightblue" stroke="midnightblue" points="453.7,-197.87 456.84,-187.75 448.07,-193.7 453.7,-197.87"/>
</g>
<!-- Node15&#45;&gt;Node7 -->
<g id="edge32" class="edge">
<title>Node15&#45;&gt;Node7</title>
<path fill="none" stroke="midnightblue" d="M560.49,-224.5C552.2,-210.66 533.95,-183.26 511.32,-168 479.78,-146.73 437.57,-135.01 407.57,-128.91"/>
<polygon fill="midnightblue" stroke="midnightblue" points="407.99,-125.43 397.51,-126.98 406.67,-132.3 407.99,-125.43"/>
</g>
<!-- Node15&#45;&gt;Node8 -->
<g id="edge31" class="edge">
<title>Node15&#45;&gt;Node8</title>
<path fill="none" stroke="midnightblue" d="M548.93,-224.32C532.65,-215.7 507.45,-202.36 488.61,-192.39"/>
<polygon fill="midnightblue" stroke="midnightblue" points="490.14,-189.24 479.67,-187.65 486.87,-195.43 490.14,-189.24"/>
</g>
<!-- Node16&#45;&gt;Node9 -->
<g id="edge34" class="edge">
<title>Node16&#45;&gt;Node9</title>
<path fill="none" stroke="midnightblue" d="M63.46,-224.08C66,-216.85 69.68,-206.41 72.85,-197.4"/>
<polygon fill="midnightblue" stroke="midnightblue" points="76.22,-198.35 76.24,-187.75 69.62,-196.02 76.22,-198.35"/>
</g>
</g>
</svg>
