<?xml version="1.0" encoding="UTF-8" standalone="no"?>
<!DOCTYPE svg PUBLIC "-//W3C//DTD SVG 1.1//EN"
 "http://www.w3.org/Graphics/SVG/1.1/DTD/svg11.dtd">
<!-- Generated by graphviz version 2.44.0 ()
 -->
<!-- Title: include/lightmodbus/lightmodbus.hpp Pages: 1 -->
<svg width="767pt" height="375pt"
 viewBox="0.00 0.00 767.30 375.00" xmlns="http://www.w3.org/2000/svg" xmlns:xlink="http://www.w3.org/1999/xlink">
<g id="graph0" class="graph" transform="scale(1 1) rotate(0) translate(4 371)">
<title>include/lightmodbus/lightmodbus.hpp</title>
<!-- Node1 -->
<g id="node1" class="node">
<title>Node1</title>
<g id="a_node1"><a xlink:title=" ">
<polygon fill="#bfbfbf" stroke="black" points="286.97,-336.5 286.97,-366.5 389.97,-366.5 389.97,-336.5 286.97,-336.5"/>
<text text-anchor="start" x="294.97" y="-354.5" font-family="Helvetica,sans-Serif" font-size="10.00">include/lightmodbus</text>
<text text-anchor="middle" x="338.47" y="-343.5" font-family="Helvetica,sans-Serif" font-size="10.00">/lightmodbus.hpp</text>
</a>
</g>
</g>
<!-- Node2 -->
<g id="node2" class="node">
<title>Node2</title>
<g id="a_node2"><a xlink:title=" ">
<polygon fill="none" stroke="#bfbfbf" points="265.97,-280.5 265.97,-299.5 324.97,-299.5 324.97,-280.5 265.97,-280.5"/>
<text text-anchor="middle" x="295.47" y="-287.5" font-family="Helvetica,sans-Serif" font-size="10.00">stdexcept</text>
</a>
</g>
</g>
<!-- Node1&#45;&gt;Node2 -->
<g id="edge1" class="edge">
<title>Node1&#45;&gt;Node2</title>
<path fill="none" stroke="midnightblue" d="M328.28,-336.4C322.1,-327.84 314.17,-316.87 307.65,-307.86"/>
<polygon fill="midnightblue" stroke="midnightblue" points="310.42,-305.71 301.73,-299.66 304.75,-309.81 310.42,-305.71"/>
</g>
<!-- Node3 -->
<g id="node3" class="node">
<title>Node3</title>
<g id="a_node3"><a xlink:href="lightmodbus_8h.html" target="_top" xlink:title=" ">
<polygon fill="none" stroke="black" points="342.97,-280.5 342.97,-299.5 419.97,-299.5 419.97,-280.5 342.97,-280.5"/>
<text text-anchor="middle" x="381.47" y="-287.5" font-family="Helvetica,sans-Serif" font-size="10.00">lightmodbus.h</text>
</a>
</g>
</g>
<!-- Node1&#45;&gt;Node3 -->
<g id="edge2" class="edge">
<title>Node1&#45;&gt;Node3</title>
<path fill="none" stroke="midnightblue" d="M348.66,-336.4C354.85,-327.84 362.77,-316.87 369.29,-307.86"/>
<polygon fill="midnightblue" stroke="midnightblue" points="372.19,-309.81 375.21,-299.66 366.52,-305.71 372.19,-309.81"/>
</g>
<!-- Node4 -->
<g id="node4" class="node">
<title>Node4</title>
<g id="a_node4"><a xlink:href="base_8h.html" target="_top" xlink:title=" ">
<polygon fill="none" stroke="black" points="392.97,-56.5 392.97,-75.5 437.97,-75.5 437.97,-56.5 392.97,-56.5"/>
<text text-anchor="middle" x="415.47" y="-63.5" font-family="Helvetica,sans-Serif" font-size="10.00">base.h</text>
</a>
</g>
</g>
<!-- Node3&#45;&gt;Node4 -->
<g id="edge3" class="edge">
<title>Node3&#45;&gt;Node4</title>
<path fill="none" stroke="midnightblue" d="M420.29,-287C508.97,-282.04 720.45,-267.82 741.47,-244 832.04,-141.4 547.61,-87.17 448.35,-71.71"/>
<polygon fill="midnightblue" stroke="midnightblue" points="448.67,-68.22 438.26,-70.17 447.62,-75.14 448.67,-68.22"/>
</g>
<!-- Node6 -->
<g id="node6" class="node">
<title>Node6</title>
<g id="a_node6"><a xlink:href="slave_8h.html" target="_top" xlink:title=" ">
<polygon fill="none" stroke="black" points="183.97,-112.5 183.97,-131.5 230.97,-131.5 230.97,-112.5 183.97,-112.5"/>
<text text-anchor="middle" x="207.47" y="-119.5" font-family="Helvetica,sans-Serif" font-size="10.00">slave.h</text>
</a>
</g>
</g>
<!-- Node3&#45;&gt;Node6 -->
<g id="edge5" class="edge">
<title>Node3&#45;&gt;Node6</title>
<path fill="none" stroke="midnightblue" d="M342.74,-281.48C339.61,-280.95 336.49,-280.45 333.47,-280 262.26,-269.36 59.47,-297.67 11.47,-244 -41.27,-185.03 104.57,-144.94 173.56,-129.77"/>
<polygon fill="midnightblue" stroke="midnightblue" points="174.49,-133.15 183.53,-127.63 173.02,-126.3 174.49,-133.15"/>
</g>
<!-- Node8 -->
<g id="node8" class="node">
<title>Node8</title>
<g id="a_node8"><a xlink:href="slave__func_8h.html" target="_top" xlink:title=" ">
<polygon fill="none" stroke="black" points="166.97,-168.5 166.97,-187.5 237.97,-187.5 237.97,-168.5 166.97,-168.5"/>
<text text-anchor="middle" x="202.47" y="-175.5" font-family="Helvetica,sans-Serif" font-size="10.00">slave_func.h</text>
</a>
</g>
</g>
<!-- Node3&#45;&gt;Node8 -->
<g id="edge9" class="edge">
<title>Node3&#45;&gt;Node8</title>
<path fill="none" stroke="midnightblue" d="M342.76,-282.12C315.04,-275.75 277.91,-264.12 250.47,-244 233.56,-231.6 220.03,-211.51 211.7,-196.95"/>
<polygon fill="midnightblue" stroke="midnightblue" points="214.64,-195.02 206.79,-187.91 208.49,-198.37 214.64,-195.02"/>
</g>
<!-- Node9 -->
<g id="node9" class="node">
<title>Node9</title>
<g id="a_node9"><a xlink:href="master_8h.html" target="_top" xlink:title=" ">
<polygon fill="none" stroke="black" points="320.47,-112.5 320.47,-131.5 374.47,-131.5 374.47,-112.5 320.47,-112.5"/>
<text text-anchor="middle" x="347.47" y="-119.5" font-family="Helvetica,sans-Serif" font-size="10.00">master.h</text>
</a>
</g>
</g>
<!-- Node3&#45;&gt;Node9 -->
<g id="edge12" class="edge">
<title>Node3&#45;&gt;Node9</title>
<path fill="none" stroke="midnightblue" d="M342.67,-281.77C321.29,-275.6 296.51,-264.33 283.47,-244 260.21,-207.72 302.03,-162.11 328.39,-138.6"/>
<polygon fill="midnightblue" stroke="midnightblue" points="331.01,-140.97 336.31,-131.79 326.45,-135.66 331.01,-140.97"/>
</g>
<!-- Node10 -->
<g id="node10" class="node">
<title>Node10</title>
<g id="a_node10"><a xlink:href="master__func_8h.html" target="_top" xlink:title=" ">
<polygon fill="none" stroke="black" points="394.47,-168.5 394.47,-187.5 472.47,-187.5 472.47,-168.5 394.47,-168.5"/>
<text text-anchor="middle" x="433.47" y="-175.5" font-family="Helvetica,sans-Serif" font-size="10.00">master_func.h</text>
</a>
</g>
</g>
<!-- Node3&#45;&gt;Node10 -->
<g id="edge16" class="edge">
<title>Node3&#45;&gt;Node10</title>
<path fill="none" stroke="midnightblue" d="M420.19,-284.14C445.1,-278.79 475.66,-267.56 491.47,-244 504.4,-224.75 481.04,-205.24 460.22,-192.69"/>
<polygon fill="midnightblue" stroke="midnightblue" points="461.69,-189.5 451.27,-187.6 458.23,-195.59 461.69,-189.5"/>
</g>
<!-- Node11 -->
<g id="node11" class="node">
<title>Node11</title>
<g id="a_node11"><a xlink:href="debug_8h.html" target="_top" xlink:title=" ">
<polygon fill="none" stroke="black" points="520.47,-168.5 520.47,-187.5 570.47,-187.5 570.47,-168.5 520.47,-168.5"/>
<text text-anchor="middle" x="545.47" y="-175.5" font-family="Helvetica,sans-Serif" font-size="10.00">debug.h</text>
</a>
</g>
</g>
<!-- Node3&#45;&gt;Node11 -->
<g id="edge19" class="edge">
<title>Node3&#45;&gt;Node11</title>
<path fill="none" stroke="midnightblue" d="M420.35,-287.42C481,-284.05 593.76,-273.84 618.47,-244 635.41,-223.54 604.34,-203.8 577.64,-191.54"/>
<polygon fill="midnightblue" stroke="midnightblue" points="579.02,-188.33 568.46,-187.53 576.22,-194.75 579.02,-188.33"/>
</g>
<!-- Node12 -->
<g id="node12" class="node">
<title>Node12</title>
<g id="a_node12"><a xlink:href="base_8impl_8h.html" target="_top" xlink:title=" ">
<polygon fill="none" stroke="black" points="666.97,-224.5 666.97,-243.5 731.97,-243.5 731.97,-224.5 666.97,-224.5"/>
<text text-anchor="middle" x="699.47" y="-231.5" font-family="Helvetica,sans-Serif" font-size="10.00">base.impl.h</text>
</a>
</g>
</g>
<!-- Node3&#45;&gt;Node12 -->
<g id="edge22" class="edge">
<title>Node3&#45;&gt;Node12</title>
<path fill="none" stroke="midnightblue" d="M420.12,-282.89C472.74,-274.5 569.84,-258.77 652.47,-244 653.93,-243.74 655.41,-243.47 656.91,-243.2"/>
<polygon fill="midnightblue" stroke="midnightblue" points="657.68,-246.62 666.87,-241.35 656.4,-239.73 657.68,-246.62"/>
</g>
<!-- Node14 -->
<g id="node14" class="node">
<title>Node14</title>
<g id="a_node14"><a xlink:href="slave_8impl_8h.html" target="_top" xlink:title=" ">
<polygon fill="none" stroke="black" points="20.47,-224.5 20.47,-243.5 88.47,-243.5 88.47,-224.5 20.47,-224.5"/>
<text text-anchor="middle" x="54.47" y="-231.5" font-family="Helvetica,sans-Serif" font-size="10.00">slave.impl.h</text>
</a>
</g>
</g>
<!-- Node3&#45;&gt;Node14 -->
<g id="edge25" class="edge">
<title>Node3&#45;&gt;Node14</title>
<path fill="none" stroke="midnightblue" d="M342.72,-281.62C339.59,-281.06 336.48,-280.51 333.47,-280 232.04,-262.76 203.59,-262.85 98.75,-244.15"/>
<polygon fill="midnightblue" stroke="midnightblue" points="99.17,-240.67 88.71,-242.34 97.93,-247.56 99.17,-240.67"/>
</g>
<!-- Node15 -->
<g id="node15" class="node">
<title>Node15</title>
<g id="a_node15"><a xlink:href="slave__func_8impl_8h.html" target="_top" xlink:title=" ">
<polygon fill="none" stroke="black" points="106.47,-224.5 106.47,-243.5 198.47,-243.5 198.47,-224.5 106.47,-224.5"/>
<text text-anchor="middle" x="152.47" y="-231.5" font-family="Helvetica,sans-Serif" font-size="10.00">slave_func.impl.h</text>
</a>
</g>
</g>
<!-- Node3&#45;&gt;Node15 -->
<g id="edge28" class="edge">
<title>Node3&#45;&gt;Node15</title>
<path fill="none" stroke="midnightblue" d="M345.19,-280.44C305.49,-271.08 241.76,-256.06 198.56,-245.87"/>
<polygon fill="midnightblue" stroke="midnightblue" points="199.12,-242.41 188.59,-243.52 197.52,-249.22 199.12,-242.41"/>
</g>
<!-- Node16 -->
<g id="node16" class="node">
<title>Node16</title>
<g id="a_node16"><a xlink:href="master_8impl_8h.html" target="_top" xlink:title=" ">
<polygon fill="none" stroke="black" points="292.47,-224.5 292.47,-243.5 366.47,-243.5 366.47,-224.5 292.47,-224.5"/>
<text text-anchor="middle" x="329.47" y="-231.5" font-family="Helvetica,sans-Serif" font-size="10.00">master.impl.h</text>
</a>
</g>
</g>
<!-- Node3&#45;&gt;Node16 -->
<g id="edge31" class="edge">
<title>Node3&#45;&gt;Node16</title>
<path fill="none" stroke="midnightblue" d="M372.88,-280.08C365.31,-272.22 354.09,-260.57 344.96,-251.08"/>
<polygon fill="midnightblue" stroke="midnightblue" points="347.36,-248.53 337.9,-243.75 342.31,-253.38 347.36,-248.53"/>
</g>
<!-- Node17 -->
<g id="node17" class="node">
<title>Node17</title>
<g id="a_node17"><a xlink:href="master__func_8impl_8h.html" target="_top" xlink:title=" ">
<polygon fill="none" stroke="black" points="384.47,-224.5 384.47,-243.5 482.47,-243.5 482.47,-224.5 384.47,-224.5"/>
<text text-anchor="middle" x="433.47" y="-231.5" font-family="Helvetica,sans-Serif" font-size="10.00">master_func.impl.h</text>
</a>
</g>
</g>
<!-- Node3&#45;&gt;Node17 -->
<g id="edge34" class="edge">
<title>Node3&#45;&gt;Node17</title>
<path fill="none" stroke="midnightblue" d="M390.06,-280.08C397.63,-272.22 408.85,-260.57 417.99,-251.08"/>
<polygon fill="midnightblue" stroke="midnightblue" points="420.63,-253.38 425.04,-243.75 415.59,-248.53 420.63,-253.38"/>
</g>
<!-- Node18 -->
<g id="node18" class="node">
<title>Node18</title>
<g id="a_node18"><a xlink:href="debug_8impl_8h.html" target="_top" xlink:title=" ">
<polygon fill="none" stroke="black" points="538.97,-224.5 538.97,-243.5 609.97,-243.5 609.97,-224.5 538.97,-224.5"/>
<text text-anchor="middle" x="574.47" y="-231.5" font-family="Helvetica,sans-Serif" font-size="10.00">debug.impl.h</text>
</a>
</g>
</g>
<!-- Node3&#45;&gt;Node18 -->
<g id="edge37" class="edge">
<title>Node3&#45;&gt;Node18</title>
<path fill="none" stroke="midnightblue" d="M412.05,-280.44C445.09,-271.2 497.86,-256.44 534.24,-246.26"/>
<polygon fill="midnightblue" stroke="midnightblue" points="535.35,-249.58 544.03,-243.52 533.46,-242.84 535.35,-249.58"/>
</g>
<!-- Node5 -->
<g id="node5" class="node">
<title>Node5</title>
<g id="a_node5"><a xlink:title=" ">
<polygon fill="none" stroke="#bfbfbf" points="323.47,-0.5 323.47,-19.5 371.47,-19.5 371.47,-0.5 323.47,-0.5"/>
<text text-anchor="middle" x="347.47" y="-7.5" font-family="Helvetica,sans-Serif" font-size="10.00">stdint.h</text>
</a>
</g>
</g>
<!-- Node4&#45;&gt;Node5 -->
<g id="edge4" class="edge">
<title>Node4&#45;&gt;Node5</title>
<path fill="none" stroke="midnightblue" d="M404.55,-56.32C394.3,-48.18 378.75,-35.84 366.47,-26.09"/>
<polygon fill="midnightblue" stroke="midnightblue" points="368.6,-23.31 358.6,-19.83 364.25,-28.79 368.6,-23.31"/>
</g>
<!-- Node6&#45;&gt;Node4 -->
<g id="edge8" class="edge">
<title>Node6&#45;&gt;Node4</title>
<path fill="none" stroke="midnightblue" d="M231.33,-114.81C268.69,-105.11 341.07,-86.32 383.1,-75.4"/>
<polygon fill="midnightblue" stroke="midnightblue" points="384.04,-78.78 392.84,-72.88 382.28,-72 384.04,-78.78"/>
</g>
<!-- Node6&#45;&gt;Node5 -->
<g id="edge6" class="edge">
<title>Node6&#45;&gt;Node5</title>
<path fill="none" stroke="midnightblue" d="M210.99,-112.3C216.88,-98.66 229.97,-72.14 248.47,-56 267.3,-39.57 293.12,-28.11 313.67,-20.86"/>
<polygon fill="midnightblue" stroke="midnightblue" points="314.91,-24.13 323.28,-17.64 312.69,-17.5 314.91,-24.13"/>
</g>
<!-- Node7 -->
<g id="node7" class="node">
<title>Node7</title>
<g id="a_node7"><a xlink:title=" ">
<polygon fill="none" stroke="#bfbfbf" points="257.97,-56.5 257.97,-75.5 308.97,-75.5 308.97,-56.5 257.97,-56.5"/>
<text text-anchor="middle" x="283.47" y="-63.5" font-family="Helvetica,sans-Serif" font-size="10.00">stddef.h</text>
</a>
</g>
</g>
<!-- Node6&#45;&gt;Node7 -->
<g id="edge7" class="edge">
<title>Node6&#45;&gt;Node7</title>
<path fill="none" stroke="midnightblue" d="M219.68,-112.32C231.25,-104.11 248.85,-91.6 262.63,-81.81"/>
<polygon fill="midnightblue" stroke="midnightblue" points="264.91,-84.48 271.04,-75.83 260.86,-78.77 264.91,-84.48"/>
</g>
<!-- Node8&#45;&gt;Node4 -->
<g id="edge10" class="edge">
<title>Node8&#45;&gt;Node4</title>
<path fill="none" stroke="midnightblue" d="M215.58,-168.43C235.74,-155.42 275.77,-130.27 311.47,-112 335.36,-99.77 363.31,-87.8 384.22,-79.28"/>
<polygon fill="midnightblue" stroke="midnightblue" points="385.62,-82.5 393.58,-75.51 383,-76 385.62,-82.5"/>
</g>
<!-- Node8&#45;&gt;Node6 -->
<g id="edge11" class="edge">
<title>Node8&#45;&gt;Node6</title>
<path fill="none" stroke="midnightblue" d="M203.3,-168.08C203.95,-161.01 204.89,-150.86 205.71,-141.99"/>
<polygon fill="midnightblue" stroke="midnightblue" points="209.22,-142.03 206.66,-131.75 202.25,-141.39 209.22,-142.03"/>
</g>
<!-- Node9&#45;&gt;Node4 -->
<g id="edge15" class="edge">
<title>Node9&#45;&gt;Node4</title>
<path fill="none" stroke="midnightblue" d="M358.4,-112.32C368.65,-104.18 384.19,-91.84 396.47,-82.09"/>
<polygon fill="midnightblue" stroke="midnightblue" points="398.69,-84.79 404.35,-75.83 394.34,-79.31 398.69,-84.79"/>
</g>
<!-- Node9&#45;&gt;Node5 -->
<g id="edge13" class="edge">
<title>Node9&#45;&gt;Node5</title>
<path fill="none" stroke="midnightblue" d="M347.47,-112.37C347.47,-94.62 347.47,-53.67 347.47,-29.6"/>
<polygon fill="midnightblue" stroke="midnightblue" points="350.97,-29.59 347.47,-19.59 343.97,-29.59 350.97,-29.59"/>
</g>
<!-- Node9&#45;&gt;Node7 -->
<g id="edge14" class="edge">
<title>Node9&#45;&gt;Node7</title>
<path fill="none" stroke="midnightblue" d="M337.19,-112.32C327.63,-104.26 313.19,-92.08 301.69,-82.37"/>
<polygon fill="midnightblue" stroke="midnightblue" points="303.84,-79.61 293.94,-75.83 299.33,-84.96 303.84,-79.61"/>
</g>
<!-- Node10&#45;&gt;Node4 -->
<g id="edge17" class="edge">
<title>Node10&#45;&gt;Node4</title>
<path fill="none" stroke="midnightblue" d="M432.06,-168.37C429.15,-150.62 422.45,-109.67 418.51,-85.6"/>
<polygon fill="midnightblue" stroke="midnightblue" points="421.95,-84.89 416.88,-75.59 415.04,-86.03 421.95,-84.89"/>
</g>
<!-- Node10&#45;&gt;Node9 -->
<g id="edge18" class="edge">
<title>Node10&#45;&gt;Node9</title>
<path fill="none" stroke="midnightblue" d="M419.65,-168.32C406.24,-159.9 385.65,-146.97 369.89,-137.07"/>
<polygon fill="midnightblue" stroke="midnightblue" points="371.58,-134.01 361.25,-131.65 367.86,-139.94 371.58,-134.01"/>
</g>
<!-- Node11&#45;&gt;Node4 -->
<g id="edge20" class="edge">
<title>Node11&#45;&gt;Node4</title>
<path fill="none" stroke="midnightblue" d="M535.27,-168.37C513.25,-149.73 461.01,-105.53 433.36,-82.13"/>
<polygon fill="midnightblue" stroke="midnightblue" points="435.52,-79.38 425.62,-75.59 431,-84.72 435.52,-79.38"/>
</g>
<!-- Node11&#45;&gt;Node6 -->
<g id="edge21" class="edge">
<title>Node11&#45;&gt;Node6</title>
<path fill="none" stroke="midnightblue" d="M520.34,-172.99C460.51,-163.43 309.54,-139.31 241.57,-128.45"/>
<polygon fill="midnightblue" stroke="midnightblue" points="241.83,-124.94 231.4,-126.82 240.72,-131.86 241.83,-124.94"/>
</g>
<!-- Node12&#45;&gt;Node4 -->
<g id="edge23" class="edge">
<title>Node12&#45;&gt;Node4</title>
<path fill="none" stroke="midnightblue" d="M685.1,-224.41C651.72,-204.5 566.33,-153.67 494.47,-112 476.15,-101.38 455.34,-89.53 439.67,-80.66"/>
<polygon fill="midnightblue" stroke="midnightblue" points="441.08,-77.43 430.66,-75.56 437.64,-83.53 441.08,-77.43"/>
</g>
<!-- Node13 -->
<g id="node13" class="node">
<title>Node13</title>
<g id="a_node13"><a xlink:title=" ">
<polygon fill="none" stroke="#bfbfbf" points="675.97,-168.5 675.97,-187.5 722.97,-187.5 722.97,-168.5 675.97,-168.5"/>
<text text-anchor="middle" x="699.47" y="-175.5" font-family="Helvetica,sans-Serif" font-size="10.00">stdlib.h</text>
</a>
</g>
</g>
<!-- Node12&#45;&gt;Node13 -->
<g id="edge24" class="edge">
<title>Node12&#45;&gt;Node13</title>
<path fill="none" stroke="midnightblue" d="M699.47,-224.08C699.47,-217.01 699.47,-206.86 699.47,-197.99"/>
<polygon fill="midnightblue" stroke="midnightblue" points="702.97,-197.75 699.47,-187.75 695.97,-197.75 702.97,-197.75"/>
</g>
<!-- Node14&#45;&gt;Node6 -->
<g id="edge26" class="edge">
<title>Node14&#45;&gt;Node6</title>
<path fill="none" stroke="midnightblue" d="M66.48,-224.37C92.62,-205.57 154.94,-160.77 187.26,-137.53"/>
<polygon fill="midnightblue" stroke="midnightblue" points="189.44,-140.27 195.52,-131.59 185.36,-134.59 189.44,-140.27"/>
</g>
<!-- Node14&#45;&gt;Node8 -->
<g id="edge27" class="edge">
<title>Node14&#45;&gt;Node8</title>
<path fill="none" stroke="midnightblue" d="M77.92,-224.44C102.6,-215.44 141.66,-201.19 169.45,-191.05"/>
<polygon fill="midnightblue" stroke="midnightblue" points="170.94,-194.23 179.13,-187.52 168.54,-187.66 170.94,-194.23"/>
</g>
<!-- Node15&#45;&gt;Node6 -->
<g id="edge30" class="edge">
<title>Node15&#45;&gt;Node6</title>
<path fill="none" stroke="midnightblue" d="M151.2,-224.48C149.69,-211.54 148.37,-186.48 157.47,-168 163.51,-155.72 174.5,-145.25 184.64,-137.51"/>
<polygon fill="midnightblue" stroke="midnightblue" points="186.72,-140.33 192.83,-131.67 182.66,-134.63 186.72,-140.33"/>
</g>
<!-- Node15&#45;&gt;Node8 -->
<g id="edge29" class="edge">
<title>Node15&#45;&gt;Node8</title>
<path fill="none" stroke="midnightblue" d="M160.73,-224.08C167.94,-216.3 178.58,-204.8 187.32,-195.37"/>
<polygon fill="midnightblue" stroke="midnightblue" points="190.14,-197.47 194.37,-187.75 185.01,-192.71 190.14,-197.47"/>
</g>
<!-- Node16&#45;&gt;Node9 -->
<g id="edge32" class="edge">
<title>Node16&#45;&gt;Node9</title>
<path fill="none" stroke="midnightblue" d="M330.88,-224.37C333.79,-206.62 340.49,-165.67 344.43,-141.6"/>
<polygon fill="midnightblue" stroke="midnightblue" points="347.9,-142.03 346.07,-131.59 341,-140.89 347.9,-142.03"/>
</g>
<!-- Node16&#45;&gt;Node10 -->
<g id="edge33" class="edge">
<title>Node16&#45;&gt;Node10</title>
<path fill="none" stroke="midnightblue" d="M346.18,-224.32C362.78,-215.7 388.47,-202.36 407.69,-192.39"/>
<polygon fill="midnightblue" stroke="midnightblue" points="409.54,-195.37 416.8,-187.65 406.32,-189.16 409.54,-195.37"/>
</g>
<!-- Node17&#45;&gt;Node9 -->
<g id="edge36" class="edge">
<title>Node17&#45;&gt;Node9</title>
<path fill="none" stroke="midnightblue" d="M422.7,-224.47C412.37,-215.94 396.73,-202.11 385.47,-188 373.78,-173.34 363.26,-154.7 356.27,-141.15"/>
<polygon fill="midnightblue" stroke="midnightblue" points="359.26,-139.3 351.65,-131.92 353,-142.43 359.26,-139.3"/>
</g>
<!-- Node17&#45;&gt;Node10 -->
<g id="edge35" class="edge">
<title>Node17&#45;&gt;Node10</title>
<path fill="none" stroke="midnightblue" d="M433.47,-224.08C433.47,-217.01 433.47,-206.86 433.47,-197.99"/>
<polygon fill="midnightblue" stroke="midnightblue" points="436.97,-197.75 433.47,-187.75 429.97,-197.75 436.97,-197.75"/>
</g>
<!-- Node18&#45;&gt;Node11 -->
<g id="edge38" class="edge">
<title>Node18&#45;&gt;Node11</title>
<path fill="none" stroke="midnightblue" d="M569.68,-224.08C565.71,-216.69 559.95,-205.95 555.04,-196.81"/>
<polygon fill="midnightblue" stroke="midnightblue" points="557.99,-194.91 550.17,-187.75 551.82,-198.22 557.99,-194.91"/>
</g>
</g>
</svg>
