<?xml version="1.0" encoding="UTF-8" standalone="no"?>
<!DOCTYPE svg PUBLIC "-//W3C//DTD SVG 1.1//EN"
 "http://www.w3.org/Graphics/SVG/1.1/DTD/svg11.dtd">
<!-- Generated by graphviz version 2.44.0 ()
 -->
<!-- Title: include/lightmodbus/lightmodbus.h Pages: 1 -->
<svg width="747pt" height="319pt"
 viewBox="0.00 0.00 746.75 319.00" xmlns="http://www.w3.org/2000/svg" xmlns:xlink="http://www.w3.org/1999/xlink">
<g id="graph0" class="graph" transform="scale(1 1) rotate(0) translate(4 315)">
<title>include/lightmodbus/lightmodbus.h</title>
<!-- Node1 -->
<g id="node1" class="node">
<title>Node1</title>
<g id="a_node1"><a xlink:title=" ">
<polygon fill="#bfbfbf" stroke="black" points="336.03,-280.5 336.03,-310.5 439.03,-310.5 439.03,-280.5 336.03,-280.5"/>
<text text-anchor="start" x="344.03" y="-298.5" font-family="Helvetica,sans-Serif" font-size="10.00">include/lightmodbus</text>
<text text-anchor="middle" x="387.53" y="-287.5" font-family="Helvetica,sans-Serif" font-size="10.00">/lightmodbus.h</text>
</a>
</g>
</g>
<!-- Node2 -->
<g id="node2" class="node">
<title>Node2</title>
<g id="a_node2"><a xlink:href="base_8h.html" target="_top" xlink:title=" ">
<polygon fill="none" stroke="black" points="412.03,-56.5 412.03,-75.5 457.03,-75.5 457.03,-56.5 412.03,-56.5"/>
<text text-anchor="middle" x="434.53" y="-63.5" font-family="Helvetica,sans-Serif" font-size="10.00">base.h</text>
</a>
</g>
</g>
<!-- Node1&#45;&gt;Node2 -->
<g id="edge1" class="edge">
<title>Node1&#45;&gt;Node2</title>
<path fill="none" stroke="midnightblue" d="M439.26,-294.56C524,-293.44 686.61,-285.74 722.53,-244 802.8,-150.72 558.32,-91.49 467.26,-73.12"/>
<polygon fill="midnightblue" stroke="midnightblue" points="467.68,-69.64 457.2,-71.13 466.33,-76.5 467.68,-69.64"/>
</g>
<!-- Node4 -->
<g id="node4" class="node">
<title>Node4</title>
<g id="a_node4"><a xlink:href="slave_8h.html" target="_top" xlink:title=" ">
<polygon fill="none" stroke="black" points="283.03,-112.5 283.03,-131.5 330.03,-131.5 330.03,-112.5 283.03,-112.5"/>
<text text-anchor="middle" x="306.53" y="-119.5" font-family="Helvetica,sans-Serif" font-size="10.00">slave.h</text>
</a>
</g>
</g>
<!-- Node1&#45;&gt;Node4 -->
<g id="edge3" class="edge">
<title>Node1&#45;&gt;Node4</title>
<path fill="none" stroke="midnightblue" d="M335.78,-291.22C238.31,-284.52 35.35,-267.84 14.53,-244 -60.84,-157.74 180.83,-131.7 272.63,-125.03"/>
<polygon fill="midnightblue" stroke="midnightblue" points="273.07,-128.51 282.8,-124.33 272.59,-121.52 273.07,-128.51"/>
</g>
<!-- Node6 -->
<g id="node6" class="node">
<title>Node6</title>
<g id="a_node6"><a xlink:href="slave__func_8h.html" target="_top" xlink:title=" ">
<polygon fill="none" stroke="black" points="195.03,-168.5 195.03,-187.5 266.03,-187.5 266.03,-168.5 195.03,-168.5"/>
<text text-anchor="middle" x="230.53" y="-175.5" font-family="Helvetica,sans-Serif" font-size="10.00">slave_func.h</text>
</a>
</g>
</g>
<!-- Node1&#45;&gt;Node6 -->
<g id="edge7" class="edge">
<title>Node1&#45;&gt;Node6</title>
<path fill="none" stroke="midnightblue" d="M335.78,-287.58C306.4,-281.05 271.1,-268.41 248.53,-244 236.98,-231.52 232.74,-212.29 231.24,-197.98"/>
<polygon fill="midnightblue" stroke="midnightblue" points="234.71,-197.51 230.53,-187.78 227.73,-198 234.71,-197.51"/>
</g>
<!-- Node7 -->
<g id="node7" class="node">
<title>Node7</title>
<g id="a_node7"><a xlink:href="master_8h.html" target="_top" xlink:title=" ">
<polygon fill="none" stroke="black" points="462.53,-112.5 462.53,-131.5 516.53,-131.5 516.53,-112.5 462.53,-112.5"/>
<text text-anchor="middle" x="489.53" y="-119.5" font-family="Helvetica,sans-Serif" font-size="10.00">master.h</text>
</a>
</g>
</g>
<!-- Node1&#45;&gt;Node7 -->
<g id="edge9" class="edge">
<title>Node1&#45;&gt;Node7</title>
<path fill="none" stroke="midnightblue" d="M417.49,-280.44C432.55,-271.91 449.82,-259.64 460.53,-244 482.01,-212.62 487.66,-167.18 489.09,-141.86"/>
<polygon fill="midnightblue" stroke="midnightblue" points="492.59,-141.89 489.5,-131.76 485.6,-141.61 492.59,-141.89"/>
</g>
<!-- Node8 -->
<g id="node8" class="node">
<title>Node8</title>
<g id="a_node8"><a xlink:href="master__func_8h.html" target="_top" xlink:title=" ">
<polygon fill="none" stroke="black" points="583.53,-168.5 583.53,-187.5 661.53,-187.5 661.53,-168.5 583.53,-168.5"/>
<text text-anchor="middle" x="622.53" y="-175.5" font-family="Helvetica,sans-Serif" font-size="10.00">master_func.h</text>
</a>
</g>
</g>
<!-- Node1&#45;&gt;Node8 -->
<g id="edge13" class="edge">
<title>Node1&#45;&gt;Node8</title>
<path fill="none" stroke="midnightblue" d="M439.09,-294.12C520.43,-292.3 672.75,-283.54 706.53,-244 725.17,-222.18 690.09,-202.86 659.72,-191.07"/>
<polygon fill="midnightblue" stroke="midnightblue" points="660.69,-187.7 650.1,-187.52 658.26,-194.27 660.69,-187.7"/>
</g>
<!-- Node9 -->
<g id="node9" class="node">
<title>Node9</title>
<g id="a_node9"><a xlink:href="debug_8h.html" target="_top" xlink:title=" ">
<polygon fill="none" stroke="black" points="287.53,-168.5 287.53,-187.5 337.53,-187.5 337.53,-168.5 287.53,-168.5"/>
<text text-anchor="middle" x="312.53" y="-175.5" font-family="Helvetica,sans-Serif" font-size="10.00">debug.h</text>
</a>
</g>
</g>
<!-- Node1&#45;&gt;Node9 -->
<g id="edge16" class="edge">
<title>Node1&#45;&gt;Node9</title>
<path fill="none" stroke="midnightblue" d="M378.33,-280.34C364.57,-259.15 338.66,-219.24 323.79,-196.34"/>
<polygon fill="midnightblue" stroke="midnightblue" points="326.54,-194.15 318.16,-187.67 320.67,-197.96 326.54,-194.15"/>
</g>
<!-- Node10 -->
<g id="node10" class="node">
<title>Node10</title>
<g id="a_node10"><a xlink:href="base_8impl_8h.html" target="_top" xlink:title=" ">
<polygon fill="none" stroke="black" points="386.03,-224.5 386.03,-243.5 451.03,-243.5 451.03,-224.5 386.03,-224.5"/>
<text text-anchor="middle" x="418.53" y="-231.5" font-family="Helvetica,sans-Serif" font-size="10.00">base.impl.h</text>
</a>
</g>
</g>
<!-- Node1&#45;&gt;Node10 -->
<g id="edge19" class="edge">
<title>Node1&#45;&gt;Node10</title>
<path fill="none" stroke="midnightblue" d="M394.87,-280.4C399.19,-272.11 404.69,-261.55 409.3,-252.71"/>
<polygon fill="midnightblue" stroke="midnightblue" points="412.5,-254.14 414.01,-243.66 406.29,-250.91 412.5,-254.14"/>
</g>
<!-- Node12 -->
<g id="node12" class="node">
<title>Node12</title>
<g id="a_node12"><a xlink:href="slave_8impl_8h.html" target="_top" xlink:title=" ">
<polygon fill="none" stroke="black" points="133.53,-224.5 133.53,-243.5 201.53,-243.5 201.53,-224.5 133.53,-224.5"/>
<text text-anchor="middle" x="167.53" y="-231.5" font-family="Helvetica,sans-Serif" font-size="10.00">slave.impl.h</text>
</a>
</g>
</g>
<!-- Node1&#45;&gt;Node12 -->
<g id="edge22" class="edge">
<title>Node1&#45;&gt;Node12</title>
<path fill="none" stroke="midnightblue" d="M335.95,-280.55C297.17,-270.06 244.76,-255.89 208.75,-246.15"/>
<polygon fill="midnightblue" stroke="midnightblue" points="209.63,-242.76 199.06,-243.53 207.8,-249.52 209.63,-242.76"/>
</g>
<!-- Node13 -->
<g id="node13" class="node">
<title>Node13</title>
<g id="a_node13"><a xlink:href="slave__func_8impl_8h.html" target="_top" xlink:title=" ">
<polygon fill="none" stroke="black" points="23.53,-224.5 23.53,-243.5 115.53,-243.5 115.53,-224.5 23.53,-224.5"/>
<text text-anchor="middle" x="69.53" y="-231.5" font-family="Helvetica,sans-Serif" font-size="10.00">slave_func.impl.h</text>
</a>
</g>
</g>
<!-- Node1&#45;&gt;Node13 -->
<g id="edge25" class="edge">
<title>Node1&#45;&gt;Node13</title>
<path fill="none" stroke="midnightblue" d="M335.73,-284.81C277.83,-273.98 184.44,-256.5 125.06,-245.39"/>
<polygon fill="midnightblue" stroke="midnightblue" points="125.59,-241.93 115.11,-243.53 124.3,-248.81 125.59,-241.93"/>
</g>
<!-- Node14 -->
<g id="node14" class="node">
<title>Node14</title>
<g id="a_node14"><a xlink:href="master_8impl_8h.html" target="_top" xlink:title=" ">
<polygon fill="none" stroke="black" points="507.53,-224.5 507.53,-243.5 581.53,-243.5 581.53,-224.5 507.53,-224.5"/>
<text text-anchor="middle" x="544.53" y="-231.5" font-family="Helvetica,sans-Serif" font-size="10.00">master.impl.h</text>
</a>
</g>
</g>
<!-- Node1&#45;&gt;Node14 -->
<g id="edge28" class="edge">
<title>Node1&#45;&gt;Node14</title>
<path fill="none" stroke="midnightblue" d="M424.73,-280.4C451.31,-270.33 486.71,-256.91 512.13,-247.28"/>
<polygon fill="midnightblue" stroke="midnightblue" points="513.57,-250.47 521.68,-243.66 511.09,-243.93 513.57,-250.47"/>
</g>
<!-- Node15 -->
<g id="node15" class="node">
<title>Node15</title>
<g id="a_node15"><a xlink:href="master__func_8impl_8h.html" target="_top" xlink:title=" ">
<polygon fill="none" stroke="black" points="599.53,-224.5 599.53,-243.5 697.53,-243.5 697.53,-224.5 599.53,-224.5"/>
<text text-anchor="middle" x="648.53" y="-231.5" font-family="Helvetica,sans-Serif" font-size="10.00">master_func.impl.h</text>
</a>
</g>
</g>
<!-- Node1&#45;&gt;Node15 -->
<g id="edge31" class="edge">
<title>Node1&#45;&gt;Node15</title>
<path fill="none" stroke="midnightblue" d="M439.09,-282.74C486.19,-272.01 555.26,-256.26 601.03,-245.83"/>
<polygon fill="midnightblue" stroke="midnightblue" points="602.03,-249.19 611,-243.56 600.47,-242.37 602.03,-249.19"/>
</g>
<!-- Node16 -->
<g id="node16" class="node">
<title>Node16</title>
<g id="a_node16"><a xlink:href="debug_8impl_8h.html" target="_top" xlink:title=" ">
<polygon fill="none" stroke="black" points="258.03,-224.5 258.03,-243.5 329.03,-243.5 329.03,-224.5 258.03,-224.5"/>
<text text-anchor="middle" x="293.53" y="-231.5" font-family="Helvetica,sans-Serif" font-size="10.00">debug.impl.h</text>
</a>
</g>
</g>
<!-- Node1&#45;&gt;Node16 -->
<g id="edge34" class="edge">
<title>Node1&#45;&gt;Node16</title>
<path fill="none" stroke="midnightblue" d="M365.25,-280.4C350.32,-270.95 330.74,-258.56 315.82,-249.11"/>
<polygon fill="midnightblue" stroke="midnightblue" points="317.52,-246.05 307.2,-243.66 313.78,-251.96 317.52,-246.05"/>
</g>
<!-- Node3 -->
<g id="node3" class="node">
<title>Node3</title>
<g id="a_node3"><a xlink:title=" ">
<polygon fill="none" stroke="#bfbfbf" points="410.53,-0.5 410.53,-19.5 458.53,-19.5 458.53,-0.5 410.53,-0.5"/>
<text text-anchor="middle" x="434.53" y="-7.5" font-family="Helvetica,sans-Serif" font-size="10.00">stdint.h</text>
</a>
</g>
</g>
<!-- Node2&#45;&gt;Node3 -->
<g id="edge2" class="edge">
<title>Node2&#45;&gt;Node3</title>
<path fill="none" stroke="midnightblue" d="M434.53,-56.08C434.53,-49.01 434.53,-38.86 434.53,-29.99"/>
<polygon fill="midnightblue" stroke="midnightblue" points="438.03,-29.75 434.53,-19.75 431.03,-29.75 438.03,-29.75"/>
</g>
<!-- Node4&#45;&gt;Node2 -->
<g id="edge6" class="edge">
<title>Node4&#45;&gt;Node2</title>
<path fill="none" stroke="midnightblue" d="M326.81,-112.44C347.87,-103.56 381.04,-89.56 405.01,-79.45"/>
<polygon fill="midnightblue" stroke="midnightblue" points="406.49,-82.63 414.34,-75.52 403.76,-76.18 406.49,-82.63"/>
</g>
<!-- Node4&#45;&gt;Node3 -->
<g id="edge4" class="edge">
<title>Node4&#45;&gt;Node3</title>
<path fill="none" stroke="midnightblue" d="M307.7,-112.28C309.96,-98.62 316.15,-72.08 331.53,-56 350,-36.68 378.21,-25.15 400.43,-18.6"/>
<polygon fill="midnightblue" stroke="midnightblue" points="401.45,-21.95 410.17,-15.94 399.6,-15.2 401.45,-21.95"/>
</g>
<!-- Node5 -->
<g id="node5" class="node">
<title>Node5</title>
<g id="a_node5"><a xlink:title=" ">
<polygon fill="none" stroke="#bfbfbf" points="341.03,-56.5 341.03,-75.5 392.03,-75.5 392.03,-56.5 341.03,-56.5"/>
<text text-anchor="middle" x="366.53" y="-63.5" font-family="Helvetica,sans-Serif" font-size="10.00">stddef.h</text>
</a>
</g>
</g>
<!-- Node4&#45;&gt;Node5 -->
<g id="edge5" class="edge">
<title>Node4&#45;&gt;Node5</title>
<path fill="none" stroke="midnightblue" d="M316.17,-112.32C325.04,-104.34 338.4,-92.31 349.13,-82.65"/>
<polygon fill="midnightblue" stroke="midnightblue" points="351.62,-85.13 356.71,-75.83 346.94,-79.92 351.62,-85.13"/>
</g>
<!-- Node6&#45;&gt;Node2 -->
<g id="edge8" class="edge">
<title>Node6&#45;&gt;Node2</title>
<path fill="none" stroke="midnightblue" d="M254.76,-168.5C277.07,-160.3 310.82,-146.96 338.53,-132 366.51,-116.9 396.51,-95.68 415.39,-81.65"/>
<polygon fill="midnightblue" stroke="midnightblue" points="417.58,-84.38 423.47,-75.57 413.37,-78.79 417.58,-84.38"/>
</g>
<!-- Node7&#45;&gt;Node2 -->
<g id="edge12" class="edge">
<title>Node7&#45;&gt;Node2</title>
<path fill="none" stroke="midnightblue" d="M480.44,-112.08C472.35,-104.14 460.33,-92.34 450.62,-82.8"/>
<polygon fill="midnightblue" stroke="midnightblue" points="453.03,-80.26 443.44,-75.75 448.12,-85.25 453.03,-80.26"/>
</g>
<!-- Node7&#45;&gt;Node3 -->
<g id="edge10" class="edge">
<title>Node7&#45;&gt;Node3</title>
<path fill="none" stroke="midnightblue" d="M487.27,-112.27C483.79,-99.49 476.46,-75.12 466.53,-56 461.4,-46.13 454.34,-35.96 448.16,-27.79"/>
<polygon fill="midnightblue" stroke="midnightblue" points="450.85,-25.55 441.93,-19.83 445.34,-29.86 450.85,-25.55"/>
</g>
<!-- Node7&#45;&gt;Node5 -->
<g id="edge11" class="edge">
<title>Node7&#45;&gt;Node5</title>
<path fill="none" stroke="midnightblue" d="M470.04,-112.44C449.88,-103.6 418.2,-89.69 395.19,-79.59"/>
<polygon fill="midnightblue" stroke="midnightblue" points="396.49,-76.33 385.92,-75.52 393.67,-82.74 396.49,-76.33"/>
</g>
<!-- Node8&#45;&gt;Node2 -->
<g id="edge14" class="edge">
<title>Node8&#45;&gt;Node2</title>
<path fill="none" stroke="midnightblue" d="M610.9,-168.48C593.01,-155.54 557.45,-130.49 525.53,-112 505.1,-100.17 481.14,-88.4 462.93,-79.87"/>
<polygon fill="midnightblue" stroke="midnightblue" points="464.27,-76.63 453.73,-75.6 461.33,-82.98 464.27,-76.63"/>
</g>
<!-- Node8&#45;&gt;Node7 -->
<g id="edge15" class="edge">
<title>Node8&#45;&gt;Node7</title>
<path fill="none" stroke="midnightblue" d="M601.45,-168.44C579.47,-159.52 544.79,-145.44 519.86,-135.32"/>
<polygon fill="midnightblue" stroke="midnightblue" points="521.08,-132.04 510.5,-131.52 518.45,-138.52 521.08,-132.04"/>
</g>
<!-- Node9&#45;&gt;Node2 -->
<g id="edge17" class="edge">
<title>Node9&#45;&gt;Node2</title>
<path fill="none" stroke="midnightblue" d="M325.41,-168.27C337.89,-159.6 357.14,-145.66 372.53,-132 389.91,-116.56 408.07,-97.06 420.21,-83.47"/>
<polygon fill="midnightblue" stroke="midnightblue" points="422.93,-85.67 426.93,-75.86 417.68,-81.04 422.93,-85.67"/>
</g>
<!-- Node9&#45;&gt;Node4 -->
<g id="edge18" class="edge">
<title>Node9&#45;&gt;Node4</title>
<path fill="none" stroke="midnightblue" d="M311.53,-168.08C310.74,-160.93 309.6,-150.64 308.6,-141.69"/>
<polygon fill="midnightblue" stroke="midnightblue" points="312.08,-141.3 307.5,-131.75 305.12,-142.08 312.08,-141.3"/>
</g>
<!-- Node10&#45;&gt;Node2 -->
<g id="edge20" class="edge">
<title>Node10&#45;&gt;Node2</title>
<path fill="none" stroke="midnightblue" d="M419.39,-224.08C421.9,-197.95 429.3,-121.21 432.73,-85.58"/>
<polygon fill="midnightblue" stroke="midnightblue" points="436.22,-85.86 433.7,-75.57 429.26,-85.19 436.22,-85.86"/>
</g>
<!-- Node11 -->
<g id="node11" class="node">
<title>Node11</title>
<g id="a_node11"><a xlink:title=" ">
<polygon fill="none" stroke="#bfbfbf" points="359.03,-168.5 359.03,-187.5 406.03,-187.5 406.03,-168.5 359.03,-168.5"/>
<text text-anchor="middle" x="382.53" y="-175.5" font-family="Helvetica,sans-Serif" font-size="10.00">stdlib.h</text>
</a>
</g>
</g>
<!-- Node10&#45;&gt;Node11 -->
<g id="edge21" class="edge">
<title>Node10&#45;&gt;Node11</title>
<path fill="none" stroke="midnightblue" d="M412.58,-224.08C407.55,-216.53 400.19,-205.49 394.01,-196.23"/>
<polygon fill="midnightblue" stroke="midnightblue" points="396.82,-194.13 388.36,-187.75 390.99,-198.01 396.82,-194.13"/>
</g>
<!-- Node12&#45;&gt;Node4 -->
<g id="edge23" class="edge">
<title>Node12&#45;&gt;Node4</title>
<path fill="none" stroke="midnightblue" d="M167.54,-224.23C168.03,-210.51 170.96,-183.87 185.53,-168 208.23,-143.25 245.82,-132.06 273.08,-127.03"/>
<polygon fill="midnightblue" stroke="midnightblue" points="273.68,-130.48 282.97,-125.39 272.53,-123.57 273.68,-130.48"/>
</g>
<!-- Node12&#45;&gt;Node6 -->
<g id="edge24" class="edge">
<title>Node12&#45;&gt;Node6</title>
<path fill="none" stroke="midnightblue" d="M177.65,-224.32C187.05,-216.26 201.27,-204.08 212.59,-194.37"/>
<polygon fill="midnightblue" stroke="midnightblue" points="214.9,-197 220.22,-187.83 210.35,-191.68 214.9,-197"/>
</g>
<!-- Node13&#45;&gt;Node4 -->
<g id="edge27" class="edge">
<title>Node13&#45;&gt;Node4</title>
<path fill="none" stroke="midnightblue" d="M80.78,-224.39C98.88,-210.88 135.91,-184.54 170.53,-168 204.1,-151.96 244.89,-139.3 272.99,-131.54"/>
<polygon fill="midnightblue" stroke="midnightblue" points="273.99,-134.9 282.73,-128.91 272.16,-128.14 273.99,-134.9"/>
</g>
<!-- Node13&#45;&gt;Node6 -->
<g id="edge26" class="edge">
<title>Node13&#45;&gt;Node6</title>
<path fill="none" stroke="midnightblue" d="M95.04,-224.44C122.12,-215.36 165.12,-200.94 195.39,-190.78"/>
<polygon fill="midnightblue" stroke="midnightblue" points="196.77,-194.01 205.13,-187.52 194.54,-187.38 196.77,-194.01"/>
</g>
<!-- Node14&#45;&gt;Node7 -->
<g id="edge29" class="edge">
<title>Node14&#45;&gt;Node7</title>
<path fill="none" stroke="midnightblue" d="M540.21,-224.37C531.21,-206.38 510.3,-164.55 498.34,-140.63"/>
<polygon fill="midnightblue" stroke="midnightblue" points="501.42,-138.97 493.82,-131.59 495.16,-142.1 501.42,-138.97"/>
</g>
<!-- Node14&#45;&gt;Node8 -->
<g id="edge30" class="edge">
<title>Node14&#45;&gt;Node8</title>
<path fill="none" stroke="midnightblue" d="M557.06,-224.32C569.11,-215.98 587.55,-203.21 601.79,-193.35"/>
<polygon fill="midnightblue" stroke="midnightblue" points="603.79,-196.22 610.02,-187.65 599.81,-190.47 603.79,-196.22"/>
</g>
<!-- Node15&#45;&gt;Node7 -->
<g id="edge33" class="edge">
<title>Node15&#45;&gt;Node7</title>
<path fill="none" stroke="midnightblue" d="M633.49,-224.49C618.33,-215.76 594.39,-201.58 574.53,-188 550.89,-171.84 524.9,-151.58 507.96,-138.01"/>
<polygon fill="midnightblue" stroke="midnightblue" points="509.97,-135.13 499.99,-131.58 505.58,-140.58 509.97,-135.13"/>
</g>
<!-- Node15&#45;&gt;Node8 -->
<g id="edge32" class="edge">
<title>Node15&#45;&gt;Node8</title>
<path fill="none" stroke="midnightblue" d="M644.23,-224.08C640.67,-216.69 635.5,-205.95 631.1,-196.81"/>
<polygon fill="midnightblue" stroke="midnightblue" points="634.23,-195.24 626.74,-187.75 627.92,-198.28 634.23,-195.24"/>
</g>
<!-- Node16&#45;&gt;Node9 -->
<g id="edge35" class="edge">
<title>Node16&#45;&gt;Node9</title>
<path fill="none" stroke="midnightblue" d="M296.66,-224.08C299.21,-216.85 302.88,-206.41 306.05,-197.4"/>
<polygon fill="midnightblue" stroke="midnightblue" points="309.43,-198.35 309.45,-187.75 302.83,-196.02 309.43,-198.35"/>
</g>
</g>
</svg>
