<?xml version="1.0" encoding="UTF-8" standalone="no"?>
<!DOCTYPE svg PUBLIC "-//W3C//DTD SVG 1.1//EN"
 "http://www.w3.org/Graphics/SVG/1.1/DTD/svg11.dtd">
<!-- Generated by graphviz version 2.44.0 ()
 -->
<!-- Title: include/lightmodbus/lightmodbus.h Pages: 1 -->
<svg width="767pt" height="319pt"
 viewBox="0.00 0.00 766.79 319.00" xmlns="http://www.w3.org/2000/svg" xmlns:xlink="http://www.w3.org/1999/xlink">
<g id="graph0" class="graph" transform="scale(1 1) rotate(0) translate(4 315)">
<title>include/lightmodbus/lightmodbus.h</title>
<!-- Node1 -->
<g id="node1" class="node">
<title>Node1</title>
<g id="a_node1"><a xlink:title=" ">
<polygon fill="#bfbfbf" stroke="black" points="329.72,-280.5 329.72,-310.5 432.72,-310.5 432.72,-280.5 329.72,-280.5"/>
<text text-anchor="start" x="337.72" y="-298.5" font-family="Helvetica,sans-Serif" font-size="10.00">include/lightmodbus</text>
<text text-anchor="middle" x="381.22" y="-287.5" font-family="Helvetica,sans-Serif" font-size="10.00">/lightmodbus.h</text>
</a>
</g>
</g>
<!-- Node2 -->
<g id="node2" class="node">
<title>Node2</title>
<g id="a_node2"><a xlink:href="base_8h.html" target="_top" xlink:title=" ">
<polygon fill="none" stroke="black" points="392.72,-56.5 392.72,-75.5 437.72,-75.5 437.72,-56.5 392.72,-56.5"/>
<text text-anchor="middle" x="415.22" y="-63.5" font-family="Helvetica,sans-Serif" font-size="10.00">base.h</text>
</a>
</g>
</g>
<!-- Node1&#45;&gt;Node2 -->
<g id="edge1" class="edge">
<title>Node1&#45;&gt;Node2</title>
<path fill="none" stroke="midnightblue" d="M432.82,-295.18C522.63,-295.15 701.88,-289.24 741.22,-244 831.02,-140.72 547.1,-86.94 448.03,-71.65"/>
<polygon fill="midnightblue" stroke="midnightblue" points="448.37,-68.16 437.96,-70.13 447.33,-75.08 448.37,-68.16"/>
</g>
<!-- Node4 -->
<g id="node4" class="node">
<title>Node4</title>
<g id="a_node4"><a xlink:href="slave_8h.html" target="_top" xlink:title=" ">
<polygon fill="none" stroke="black" points="183.72,-112.5 183.72,-131.5 230.72,-131.5 230.72,-112.5 183.72,-112.5"/>
<text text-anchor="middle" x="207.22" y="-119.5" font-family="Helvetica,sans-Serif" font-size="10.00">slave.h</text>
</a>
</g>
</g>
<!-- Node1&#45;&gt;Node4 -->
<g id="edge3" class="edge">
<title>Node1&#45;&gt;Node4</title>
<path fill="none" stroke="midnightblue" d="M329.65,-295.41C237.86,-295.8 51.93,-290.65 11.22,-244 -40.8,-184.39 104.65,-144.65 173.42,-129.67"/>
<polygon fill="midnightblue" stroke="midnightblue" points="174.31,-133.06 183.37,-127.56 172.86,-126.21 174.31,-133.06"/>
</g>
<!-- Node6 -->
<g id="node6" class="node">
<title>Node6</title>
<g id="a_node6"><a xlink:href="slave__func_8h.html" target="_top" xlink:title=" ">
<polygon fill="none" stroke="black" points="166.72,-168.5 166.72,-187.5 237.72,-187.5 237.72,-168.5 166.72,-168.5"/>
<text text-anchor="middle" x="202.22" y="-175.5" font-family="Helvetica,sans-Serif" font-size="10.00">slave_func.h</text>
</a>
</g>
</g>
<!-- Node1&#45;&gt;Node6 -->
<g id="edge7" class="edge">
<title>Node1&#45;&gt;Node6</title>
<path fill="none" stroke="midnightblue" d="M329.6,-282C303.97,-274.04 273.58,-261.81 250.22,-244 233.54,-231.29 219.97,-211.25 211.57,-196.79"/>
<polygon fill="midnightblue" stroke="midnightblue" points="214.51,-194.87 206.61,-187.82 208.39,-198.26 214.51,-194.87"/>
</g>
<!-- Node7 -->
<g id="node7" class="node">
<title>Node7</title>
<g id="a_node7"><a xlink:href="master_8h.html" target="_top" xlink:title=" ">
<polygon fill="none" stroke="black" points="320.22,-112.5 320.22,-131.5 374.22,-131.5 374.22,-112.5 320.22,-112.5"/>
<text text-anchor="middle" x="347.22" y="-119.5" font-family="Helvetica,sans-Serif" font-size="10.00">master.h</text>
</a>
</g>
</g>
<!-- Node1&#45;&gt;Node7 -->
<g id="edge10" class="edge">
<title>Node1&#45;&gt;Node7</title>
<path fill="none" stroke="midnightblue" d="M330.08,-280.43C312.05,-272.74 293.68,-261.16 283.22,-244 260.79,-207.2 302.26,-161.81 328.36,-138.47"/>
<polygon fill="midnightblue" stroke="midnightblue" points="330.91,-140.89 336.19,-131.71 326.33,-135.6 330.91,-140.89"/>
</g>
<!-- Node8 -->
<g id="node8" class="node">
<title>Node8</title>
<g id="a_node8"><a xlink:href="master__func_8h.html" target="_top" xlink:title=" ">
<polygon fill="none" stroke="black" points="394.22,-168.5 394.22,-187.5 472.22,-187.5 472.22,-168.5 394.22,-168.5"/>
<text text-anchor="middle" x="433.22" y="-175.5" font-family="Helvetica,sans-Serif" font-size="10.00">master_func.h</text>
</a>
</g>
</g>
<!-- Node1&#45;&gt;Node8 -->
<g id="edge14" class="edge">
<title>Node1&#45;&gt;Node8</title>
<path fill="none" stroke="midnightblue" d="M432.99,-283.83C454.86,-276.49 478.23,-264.25 491.22,-244 503.74,-224.48 480.46,-205.03 459.77,-192.56"/>
<polygon fill="midnightblue" stroke="midnightblue" points="461.31,-189.41 450.88,-187.51 457.85,-195.5 461.31,-189.41"/>
</g>
<!-- Node9 -->
<g id="node9" class="node">
<title>Node9</title>
<g id="a_node9"><a xlink:href="debug_8h.html" target="_top" xlink:title=" ">
<polygon fill="none" stroke="black" points="520.22,-168.5 520.22,-187.5 570.22,-187.5 570.22,-168.5 520.22,-168.5"/>
<text text-anchor="middle" x="545.22" y="-175.5" font-family="Helvetica,sans-Serif" font-size="10.00">debug.h</text>
</a>
</g>
</g>
<!-- Node1&#45;&gt;Node9 -->
<g id="edge17" class="edge">
<title>Node1&#45;&gt;Node9</title>
<path fill="none" stroke="midnightblue" d="M432.86,-290.91C495.43,-285.37 595.36,-272.25 618.22,-244 634.77,-223.56 604.53,-204.05 578.09,-191.83"/>
<polygon fill="midnightblue" stroke="midnightblue" points="579.17,-188.48 568.61,-187.67 576.36,-194.89 579.17,-188.48"/>
</g>
<!-- Node10 -->
<g id="node10" class="node">
<title>Node10</title>
<g id="a_node10"><a xlink:href="base_8impl_8h.html" target="_top" xlink:title=" ">
<polygon fill="none" stroke="black" points="666.72,-224.5 666.72,-243.5 731.72,-243.5 731.72,-224.5 666.72,-224.5"/>
<text text-anchor="middle" x="699.22" y="-231.5" font-family="Helvetica,sans-Serif" font-size="10.00">base.impl.h</text>
</a>
</g>
</g>
<!-- Node1&#45;&gt;Node10 -->
<g id="edge20" class="edge">
<title>Node1&#45;&gt;Node10</title>
<path fill="none" stroke="midnightblue" d="M432.94,-284.94C487.48,-274.84 575.92,-258.41 652.22,-244 653.68,-243.73 655.16,-243.45 656.65,-243.16"/>
<polygon fill="midnightblue" stroke="midnightblue" points="657.44,-246.57 666.61,-241.27 656.13,-239.7 657.44,-246.57"/>
</g>
<!-- Node12 -->
<g id="node12" class="node">
<title>Node12</title>
<g id="a_node12"><a xlink:href="slave_8impl_8h.html" target="_top" xlink:title=" ">
<polygon fill="none" stroke="black" points="20.22,-224.5 20.22,-243.5 88.22,-243.5 88.22,-224.5 20.22,-224.5"/>
<text text-anchor="middle" x="54.22" y="-231.5" font-family="Helvetica,sans-Serif" font-size="10.00">slave.impl.h</text>
</a>
</g>
</g>
<!-- Node1&#45;&gt;Node12 -->
<g id="edge23" class="edge">
<title>Node1&#45;&gt;Node12</title>
<path fill="none" stroke="midnightblue" d="M329.57,-285.8C274.7,-276.45 185.18,-260.88 98.48,-244.2"/>
<polygon fill="midnightblue" stroke="midnightblue" points="98.95,-240.73 88.47,-242.27 97.62,-247.6 98.95,-240.73"/>
</g>
<!-- Node13 -->
<g id="node13" class="node">
<title>Node13</title>
<g id="a_node13"><a xlink:href="slave__func_8impl_8h.html" target="_top" xlink:title=" ">
<polygon fill="none" stroke="black" points="106.22,-224.5 106.22,-243.5 198.22,-243.5 198.22,-224.5 106.22,-224.5"/>
<text text-anchor="middle" x="152.22" y="-231.5" font-family="Helvetica,sans-Serif" font-size="10.00">slave_func.impl.h</text>
</a>
</g>
</g>
<!-- Node1&#45;&gt;Node13 -->
<g id="edge26" class="edge">
<title>Node1&#45;&gt;Node13</title>
<path fill="none" stroke="midnightblue" d="M329.54,-281.07C288.86,-270.5 232.84,-255.95 194.73,-246.04"/>
<polygon fill="midnightblue" stroke="midnightblue" points="195.52,-242.63 184.96,-243.51 193.76,-249.41 195.52,-242.63"/>
</g>
<!-- Node14 -->
<g id="node14" class="node">
<title>Node14</title>
<g id="a_node14"><a xlink:href="master_8impl_8h.html" target="_top" xlink:title=" ">
<polygon fill="none" stroke="black" points="292.22,-224.5 292.22,-243.5 366.22,-243.5 366.22,-224.5 292.22,-224.5"/>
<text text-anchor="middle" x="329.22" y="-231.5" font-family="Helvetica,sans-Serif" font-size="10.00">master.impl.h</text>
</a>
</g>
</g>
<!-- Node1&#45;&gt;Node14 -->
<g id="edge29" class="edge">
<title>Node1&#45;&gt;Node14</title>
<path fill="none" stroke="midnightblue" d="M368.9,-280.4C361.26,-271.66 351.43,-260.41 343.46,-251.3"/>
<polygon fill="midnightblue" stroke="midnightblue" points="346,-248.88 336.79,-243.66 340.73,-253.49 346,-248.88"/>
</g>
<!-- Node15 -->
<g id="node15" class="node">
<title>Node15</title>
<g id="a_node15"><a xlink:href="master__func_8impl_8h.html" target="_top" xlink:title=" ">
<polygon fill="none" stroke="black" points="384.22,-224.5 384.22,-243.5 482.22,-243.5 482.22,-224.5 384.22,-224.5"/>
<text text-anchor="middle" x="433.22" y="-231.5" font-family="Helvetica,sans-Serif" font-size="10.00">master_func.impl.h</text>
</a>
</g>
</g>
<!-- Node1&#45;&gt;Node15 -->
<g id="edge32" class="edge">
<title>Node1&#45;&gt;Node15</title>
<path fill="none" stroke="midnightblue" d="M393.54,-280.4C401.18,-271.66 411.01,-260.41 418.98,-251.3"/>
<polygon fill="midnightblue" stroke="midnightblue" points="421.71,-253.49 425.66,-243.66 416.44,-248.88 421.71,-253.49"/>
</g>
<!-- Node16 -->
<g id="node16" class="node">
<title>Node16</title>
<g id="a_node16"><a xlink:href="debug_8impl_8h.html" target="_top" xlink:title=" ">
<polygon fill="none" stroke="black" points="538.72,-224.5 538.72,-243.5 609.72,-243.5 609.72,-224.5 538.72,-224.5"/>
<text text-anchor="middle" x="574.22" y="-231.5" font-family="Helvetica,sans-Serif" font-size="10.00">debug.impl.h</text>
</a>
</g>
</g>
<!-- Node1&#45;&gt;Node16 -->
<g id="edge35" class="edge">
<title>Node1&#45;&gt;Node16</title>
<path fill="none" stroke="midnightblue" d="M426.96,-280.4C460.45,-270.07 505.36,-256.23 536.74,-246.56"/>
<polygon fill="midnightblue" stroke="midnightblue" points="537.9,-249.86 546.42,-243.57 535.83,-243.17 537.9,-249.86"/>
</g>
<!-- Node3 -->
<g id="node3" class="node">
<title>Node3</title>
<g id="a_node3"><a xlink:title=" ">
<polygon fill="none" stroke="#bfbfbf" points="323.22,-0.5 323.22,-19.5 371.22,-19.5 371.22,-0.5 323.22,-0.5"/>
<text text-anchor="middle" x="347.22" y="-7.5" font-family="Helvetica,sans-Serif" font-size="10.00">stdint.h</text>
</a>
</g>
</g>
<!-- Node2&#45;&gt;Node3 -->
<g id="edge2" class="edge">
<title>Node2&#45;&gt;Node3</title>
<path fill="none" stroke="midnightblue" d="M404.3,-56.32C394.05,-48.18 378.5,-35.84 366.22,-26.09"/>
<polygon fill="midnightblue" stroke="midnightblue" points="368.35,-23.31 358.35,-19.83 364,-28.79 368.35,-23.31"/>
</g>
<!-- Node4&#45;&gt;Node2 -->
<g id="edge6" class="edge">
<title>Node4&#45;&gt;Node2</title>
<path fill="none" stroke="midnightblue" d="M231.08,-114.81C268.44,-105.11 340.82,-86.32 382.85,-75.4"/>
<polygon fill="midnightblue" stroke="midnightblue" points="383.79,-78.78 392.59,-72.88 382.03,-72 383.79,-78.78"/>
</g>
<!-- Node4&#45;&gt;Node3 -->
<g id="edge4" class="edge">
<title>Node4&#45;&gt;Node3</title>
<path fill="none" stroke="midnightblue" d="M210.74,-112.3C216.64,-98.66 229.72,-72.14 248.22,-56 267.05,-39.57 292.87,-28.11 313.42,-20.86"/>
<polygon fill="midnightblue" stroke="midnightblue" points="314.66,-24.13 323.03,-17.64 312.44,-17.5 314.66,-24.13"/>
</g>
<!-- Node5 -->
<g id="node5" class="node">
<title>Node5</title>
<g id="a_node5"><a xlink:title=" ">
<polygon fill="none" stroke="#bfbfbf" points="257.72,-56.5 257.72,-75.5 308.72,-75.5 308.72,-56.5 257.72,-56.5"/>
<text text-anchor="middle" x="283.22" y="-63.5" font-family="Helvetica,sans-Serif" font-size="10.00">stddef.h</text>
</a>
</g>
</g>
<!-- Node4&#45;&gt;Node5 -->
<g id="edge5" class="edge">
<title>Node4&#45;&gt;Node5</title>
<path fill="none" stroke="midnightblue" d="M219.43,-112.32C231,-104.11 248.6,-91.6 262.38,-81.81"/>
<polygon fill="midnightblue" stroke="midnightblue" points="264.66,-84.48 270.79,-75.83 260.61,-78.77 264.66,-84.48"/>
</g>
<!-- Node6&#45;&gt;Node2 -->
<g id="edge8" class="edge">
<title>Node6&#45;&gt;Node2</title>
<path fill="none" stroke="midnightblue" d="M215.33,-168.43C235.49,-155.42 275.53,-130.27 311.22,-112 335.11,-99.77 363.07,-87.8 383.97,-79.28"/>
<polygon fill="midnightblue" stroke="midnightblue" points="385.37,-82.5 393.33,-75.51 382.75,-76 385.37,-82.5"/>
</g>
<!-- Node6&#45;&gt;Node4 -->
<g id="edge9" class="edge">
<title>Node6&#45;&gt;Node4</title>
<path fill="none" stroke="midnightblue" d="M203.05,-168.08C203.7,-161.01 204.64,-150.86 205.46,-141.99"/>
<polygon fill="midnightblue" stroke="midnightblue" points="208.97,-142.03 206.41,-131.75 202,-141.39 208.97,-142.03"/>
</g>
<!-- Node7&#45;&gt;Node2 -->
<g id="edge13" class="edge">
<title>Node7&#45;&gt;Node2</title>
<path fill="none" stroke="midnightblue" d="M358.15,-112.32C368.4,-104.18 383.94,-91.84 396.22,-82.09"/>
<polygon fill="midnightblue" stroke="midnightblue" points="398.44,-84.79 404.1,-75.83 394.09,-79.31 398.44,-84.79"/>
</g>
<!-- Node7&#45;&gt;Node3 -->
<g id="edge11" class="edge">
<title>Node7&#45;&gt;Node3</title>
<path fill="none" stroke="midnightblue" d="M347.22,-112.37C347.22,-94.62 347.22,-53.67 347.22,-29.6"/>
<polygon fill="midnightblue" stroke="midnightblue" points="350.72,-29.59 347.22,-19.59 343.72,-29.59 350.72,-29.59"/>
</g>
<!-- Node7&#45;&gt;Node5 -->
<g id="edge12" class="edge">
<title>Node7&#45;&gt;Node5</title>
<path fill="none" stroke="midnightblue" d="M336.94,-112.32C327.39,-104.26 312.94,-92.08 301.44,-82.37"/>
<polygon fill="midnightblue" stroke="midnightblue" points="303.59,-79.61 293.69,-75.83 299.08,-84.96 303.59,-79.61"/>
</g>
<!-- Node8&#45;&gt;Node2 -->
<g id="edge15" class="edge">
<title>Node8&#45;&gt;Node2</title>
<path fill="none" stroke="midnightblue" d="M431.81,-168.37C428.9,-150.62 422.2,-109.67 418.26,-85.6"/>
<polygon fill="midnightblue" stroke="midnightblue" points="421.7,-84.89 416.63,-75.59 414.79,-86.03 421.7,-84.89"/>
</g>
<!-- Node8&#45;&gt;Node7 -->
<g id="edge16" class="edge">
<title>Node8&#45;&gt;Node7</title>
<path fill="none" stroke="midnightblue" d="M419.4,-168.32C405.99,-159.9 385.4,-146.97 369.64,-137.07"/>
<polygon fill="midnightblue" stroke="midnightblue" points="371.33,-134.01 361,-131.65 367.61,-139.94 371.33,-134.01"/>
</g>
<!-- Node9&#45;&gt;Node2 -->
<g id="edge18" class="edge">
<title>Node9&#45;&gt;Node2</title>
<path fill="none" stroke="midnightblue" d="M535.02,-168.37C513,-149.73 460.76,-105.53 433.11,-82.13"/>
<polygon fill="midnightblue" stroke="midnightblue" points="435.27,-79.38 425.38,-75.59 430.75,-84.72 435.27,-79.38"/>
</g>
<!-- Node9&#45;&gt;Node4 -->
<g id="edge19" class="edge">
<title>Node9&#45;&gt;Node4</title>
<path fill="none" stroke="midnightblue" d="M520.09,-172.99C460.26,-163.43 309.29,-139.31 241.32,-128.45"/>
<polygon fill="midnightblue" stroke="midnightblue" points="241.58,-124.94 231.15,-126.82 240.47,-131.86 241.58,-124.94"/>
</g>
<!-- Node10&#45;&gt;Node2 -->
<g id="edge21" class="edge">
<title>Node10&#45;&gt;Node2</title>
<path fill="none" stroke="midnightblue" d="M684.85,-224.41C651.48,-204.5 566.08,-153.67 494.22,-112 475.9,-101.38 455.09,-89.53 439.43,-80.66"/>
<polygon fill="midnightblue" stroke="midnightblue" points="440.83,-77.43 430.41,-75.56 437.39,-83.53 440.83,-77.43"/>
</g>
<!-- Node11 -->
<g id="node11" class="node">
<title>Node11</title>
<g id="a_node11"><a xlink:title=" ">
<polygon fill="none" stroke="#bfbfbf" points="675.72,-168.5 675.72,-187.5 722.72,-187.5 722.72,-168.5 675.72,-168.5"/>
<text text-anchor="middle" x="699.22" y="-175.5" font-family="Helvetica,sans-Serif" font-size="10.00">stdlib.h</text>
</a>
</g>
</g>
<!-- Node10&#45;&gt;Node11 -->
<g id="edge22" class="edge">
<title>Node10&#45;&gt;Node11</title>
<path fill="none" stroke="midnightblue" d="M699.22,-224.08C699.22,-217.01 699.22,-206.86 699.22,-197.99"/>
<polygon fill="midnightblue" stroke="midnightblue" points="702.72,-197.75 699.22,-187.75 695.72,-197.75 702.72,-197.75"/>
</g>
<!-- Node12&#45;&gt;Node4 -->
<g id="edge24" class="edge">
<title>Node12&#45;&gt;Node4</title>
<path fill="none" stroke="midnightblue" d="M66.23,-224.37C92.37,-205.57 154.69,-160.77 187.01,-137.53"/>
<polygon fill="midnightblue" stroke="midnightblue" points="189.2,-140.27 195.27,-131.59 185.11,-134.59 189.2,-140.27"/>
</g>
<!-- Node12&#45;&gt;Node6 -->
<g id="edge25" class="edge">
<title>Node12&#45;&gt;Node6</title>
<path fill="none" stroke="midnightblue" d="M77.67,-224.44C102.35,-215.44 141.41,-201.19 169.2,-191.05"/>
<polygon fill="midnightblue" stroke="midnightblue" points="170.69,-194.23 178.88,-187.52 168.29,-187.66 170.69,-194.23"/>
</g>
<!-- Node13&#45;&gt;Node4 -->
<g id="edge28" class="edge">
<title>Node13&#45;&gt;Node4</title>
<path fill="none" stroke="midnightblue" d="M150.95,-224.48C149.44,-211.54 148.13,-186.48 157.22,-168 163.27,-155.72 174.25,-145.25 184.39,-137.51"/>
<polygon fill="midnightblue" stroke="midnightblue" points="186.47,-140.33 192.58,-131.67 182.41,-134.63 186.47,-140.33"/>
</g>
<!-- Node13&#45;&gt;Node6 -->
<g id="edge27" class="edge">
<title>Node13&#45;&gt;Node6</title>
<path fill="none" stroke="midnightblue" d="M160.48,-224.08C167.69,-216.3 178.33,-204.8 187.07,-195.37"/>
<polygon fill="midnightblue" stroke="midnightblue" points="189.89,-197.47 194.12,-187.75 184.76,-192.71 189.89,-197.47"/>
</g>
<!-- Node14&#45;&gt;Node7 -->
<g id="edge30" class="edge">
<title>Node14&#45;&gt;Node7</title>
<path fill="none" stroke="midnightblue" d="M330.63,-224.37C333.54,-206.62 340.24,-165.67 344.18,-141.6"/>
<polygon fill="midnightblue" stroke="midnightblue" points="347.65,-142.03 345.82,-131.59 340.75,-140.89 347.65,-142.03"/>
</g>
<!-- Node14&#45;&gt;Node8 -->
<g id="edge31" class="edge">
<title>Node14&#45;&gt;Node8</title>
<path fill="none" stroke="midnightblue" d="M345.93,-224.32C362.53,-215.7 388.22,-202.36 407.44,-192.39"/>
<polygon fill="midnightblue" stroke="midnightblue" points="409.29,-195.37 416.55,-187.65 406.07,-189.16 409.29,-195.37"/>
</g>
<!-- Node15&#45;&gt;Node7 -->
<g id="edge34" class="edge">
<title>Node15&#45;&gt;Node7</title>
<path fill="none" stroke="midnightblue" d="M422.45,-224.47C412.12,-215.94 396.48,-202.11 385.22,-188 373.53,-173.34 363.01,-154.7 356.02,-141.15"/>
<polygon fill="midnightblue" stroke="midnightblue" points="359.01,-139.3 351.4,-131.92 352.75,-142.43 359.01,-139.3"/>
</g>
<!-- Node15&#45;&gt;Node8 -->
<g id="edge33" class="edge">
<title>Node15&#45;&gt;Node8</title>
<path fill="none" stroke="midnightblue" d="M433.22,-224.08C433.22,-217.01 433.22,-206.86 433.22,-197.99"/>
<polygon fill="midnightblue" stroke="midnightblue" points="436.72,-197.75 433.22,-187.75 429.72,-197.75 436.72,-197.75"/>
</g>
<!-- Node16&#45;&gt;Node9 -->
<g id="edge36" class="edge">
<title>Node16&#45;&gt;Node9</title>
<path fill="none" stroke="midnightblue" d="M569.43,-224.08C565.46,-216.69 559.7,-205.95 554.79,-196.81"/>
<polygon fill="midnightblue" stroke="midnightblue" points="557.74,-194.91 549.92,-187.75 551.57,-198.22 557.74,-194.91"/>
</g>
</g>
</svg>
