<?xml version="1.0" encoding="UTF-8" standalone="no"?>
<!DOCTYPE svg PUBLIC "-//W3C//DTD SVG 1.1//EN"
 "http://www.w3.org/Graphics/SVG/1.1/DTD/svg11.dtd">
<!-- Generated by graphviz version 2.44.0 ()
 -->
<!-- Title: include/lightmodbus/lightmodbus.h Pages: 1 -->
<svg width="738pt" height="319pt"
 viewBox="0.00 0.00 738.25 319.00" xmlns="http://www.w3.org/2000/svg" xmlns:xlink="http://www.w3.org/1999/xlink">
<g id="graph0" class="graph" transform="scale(1 1) rotate(0) translate(4 315)">
<title>include/lightmodbus/lightmodbus.h</title>
<!-- Node1 -->
<g id="node1" class="node">
<title>Node1</title>
<g id="a_node1"><a xlink:title=" ">
<polygon fill="#bfbfbf" stroke="black" points="277.25,-280.5 277.25,-310.5 380.25,-310.5 380.25,-280.5 277.25,-280.5"/>
<text text-anchor="start" x="285.25" y="-298.5" font-family="Helvetica,sans-Serif" font-size="10.00">include/lightmodbus</text>
<text text-anchor="middle" x="328.75" y="-287.5" font-family="Helvetica,sans-Serif" font-size="10.00">/lightmodbus.h</text>
</a>
</g>
</g>
<!-- Node2 -->
<g id="node2" class="node">
<title>Node2</title>
<g id="a_node2"><a xlink:href="slave_8h.html" target="_top" xlink:title=" ">
<polygon fill="none" stroke="black" points="175.25,-112.5 175.25,-131.5 222.25,-131.5 222.25,-112.5 175.25,-112.5"/>
<text text-anchor="middle" x="198.75" y="-119.5" font-family="Helvetica,sans-Serif" font-size="10.00">slave.h</text>
</a>
</g>
</g>
<!-- Node1&#45;&gt;Node2 -->
<g id="edge1" class="edge">
<title>Node1&#45;&gt;Node2</title>
<path fill="none" stroke="midnightblue" d="M277.01,-294.08C195.85,-292.21 44.36,-283.38 10.75,-244 -38.77,-186 98.47,-145.75 164.96,-130.17"/>
<polygon fill="midnightblue" stroke="midnightblue" points="166.02,-133.52 174.99,-127.89 164.46,-126.7 166.02,-133.52"/>
</g>
<!-- Node6 -->
<g id="node6" class="node">
<title>Node6</title>
<g id="a_node6"><a xlink:href="slave__func_8h.html" target="_top" xlink:title=" ">
<polygon fill="none" stroke="black" points="89.25,-168.5 89.25,-187.5 160.25,-187.5 160.25,-168.5 89.25,-168.5"/>
<text text-anchor="middle" x="124.75" y="-175.5" font-family="Helvetica,sans-Serif" font-size="10.00">slave_func.h</text>
</a>
</g>
</g>
<!-- Node1&#45;&gt;Node6 -->
<g id="edge6" class="edge">
<title>Node1&#45;&gt;Node6</title>
<path fill="none" stroke="midnightblue" d="M277.13,-287.54C226.31,-279.59 153.64,-264.92 134.75,-244 123.64,-231.7 121.91,-212.44 122.5,-198.08"/>
<polygon fill="midnightblue" stroke="midnightblue" points="126.01,-198.08 123.33,-187.83 119.03,-197.52 126.01,-198.08"/>
</g>
<!-- Node7 -->
<g id="node7" class="node">
<title>Node7</title>
<g id="a_node7"><a xlink:href="master_8h.html" target="_top" xlink:title=" ">
<polygon fill="none" stroke="black" points="287.75,-112.5 287.75,-131.5 341.75,-131.5 341.75,-112.5 287.75,-112.5"/>
<text text-anchor="middle" x="314.75" y="-119.5" font-family="Helvetica,sans-Serif" font-size="10.00">master.h</text>
</a>
</g>
</g>
<!-- Node1&#45;&gt;Node7 -->
<g id="edge8" class="edge">
<title>Node1&#45;&gt;Node7</title>
<path fill="none" stroke="midnightblue" d="M310.33,-280.29C300.09,-271.18 288.31,-258.38 282.75,-244 268.89,-208.2 289.39,-164.19 303.44,-140.35"/>
<polygon fill="midnightblue" stroke="midnightblue" points="306.49,-142.06 308.77,-131.72 300.53,-138.39 306.49,-142.06"/>
</g>
<!-- Node8 -->
<g id="node8" class="node">
<title>Node8</title>
<g id="a_node8"><a xlink:href="master__func_8h.html" target="_top" xlink:title=" ">
<polygon fill="none" stroke="black" points="342.75,-168.5 342.75,-187.5 420.75,-187.5 420.75,-168.5 342.75,-168.5"/>
<text text-anchor="middle" x="381.75" y="-175.5" font-family="Helvetica,sans-Serif" font-size="10.00">master_func.h</text>
</a>
</g>
</g>
<!-- Node1&#45;&gt;Node8 -->
<g id="edge12" class="edge">
<title>Node1&#45;&gt;Node8</title>
<path fill="none" stroke="midnightblue" d="M346.14,-280.48C356.29,-271.25 368.32,-258.27 374.75,-244 381.23,-229.59 382.73,-211.63 382.75,-198.24"/>
<polygon fill="midnightblue" stroke="midnightblue" points="386.24,-197.76 382.48,-187.86 379.25,-197.95 386.24,-197.76"/>
</g>
<!-- Node9 -->
<g id="node9" class="node">
<title>Node9</title>
<g id="a_node9"><a xlink:href="debug_8h.html" target="_top" xlink:title=" ">
<polygon fill="none" stroke="black" points="522.75,-168.5 522.75,-187.5 572.75,-187.5 572.75,-168.5 522.75,-168.5"/>
<text text-anchor="middle" x="547.75" y="-175.5" font-family="Helvetica,sans-Serif" font-size="10.00">debug.h</text>
</a>
</g>
</g>
<!-- Node1&#45;&gt;Node9 -->
<g id="edge15" class="edge">
<title>Node1&#45;&gt;Node9</title>
<path fill="none" stroke="midnightblue" d="M380.43,-287.37C432.39,-279.19 507.73,-264.25 528.75,-244 541.17,-232.03 545.59,-212.42 547.11,-197.86"/>
<polygon fill="midnightblue" stroke="midnightblue" points="550.62,-197.73 547.79,-187.52 543.64,-197.26 550.62,-197.73"/>
</g>
<!-- Node10 -->
<g id="node10" class="node">
<title>Node10</title>
<g id="a_node10"><a xlink:href="base_8impl_8h.html" target="_top" xlink:title=" ">
<polygon fill="none" stroke="black" points="665.25,-224.5 665.25,-243.5 730.25,-243.5 730.25,-224.5 665.25,-224.5"/>
<text text-anchor="middle" x="697.75" y="-231.5" font-family="Helvetica,sans-Serif" font-size="10.00">base.impl.h</text>
</a>
</g>
</g>
<!-- Node1&#45;&gt;Node10 -->
<g id="edge17" class="edge">
<title>Node1&#45;&gt;Node10</title>
<path fill="none" stroke="midnightblue" d="M380.33,-287.59C443.06,-278.95 552.37,-263.17 655.18,-244.2"/>
<polygon fill="midnightblue" stroke="midnightblue" points="655.92,-247.63 665.11,-242.36 654.64,-240.75 655.92,-247.63"/>
</g>
<!-- Node12 -->
<g id="node12" class="node">
<title>Node12</title>
<g id="a_node12"><a xlink:href="slave_8impl_8h.html" target="_top" xlink:title=" ">
<polygon fill="none" stroke="black" points="19.75,-224.5 19.75,-243.5 87.75,-243.5 87.75,-224.5 19.75,-224.5"/>
<text text-anchor="middle" x="53.75" y="-231.5" font-family="Helvetica,sans-Serif" font-size="10.00">slave.impl.h</text>
</a>
</g>
</g>
<!-- Node1&#45;&gt;Node12 -->
<g id="edge20" class="edge">
<title>Node1&#45;&gt;Node12</title>
<path fill="none" stroke="midnightblue" d="M277.02,-283.31C225.31,-272.12 146.65,-255.1 97.82,-244.54"/>
<polygon fill="midnightblue" stroke="midnightblue" points="98.39,-241.08 87.87,-242.38 96.91,-247.92 98.39,-241.08"/>
</g>
<!-- Node13 -->
<g id="node13" class="node">
<title>Node13</title>
<g id="a_node13"><a xlink:href="slave__func_8impl_8h.html" target="_top" xlink:title=" ">
<polygon fill="none" stroke="black" points="143.75,-224.5 143.75,-243.5 235.75,-243.5 235.75,-224.5 143.75,-224.5"/>
<text text-anchor="middle" x="189.75" y="-231.5" font-family="Helvetica,sans-Serif" font-size="10.00">slave_func.impl.h</text>
</a>
</g>
</g>
<!-- Node1&#45;&gt;Node13 -->
<g id="edge23" class="edge">
<title>Node1&#45;&gt;Node13</title>
<path fill="none" stroke="midnightblue" d="M295.81,-280.4C272.59,-270.46 241.76,-257.26 219.33,-247.66"/>
<polygon fill="midnightblue" stroke="midnightblue" points="220.54,-244.38 209.97,-243.66 217.79,-250.81 220.54,-244.38"/>
</g>
<!-- Node14 -->
<g id="node14" class="node">
<title>Node14</title>
<g id="a_node14"><a xlink:href="master_8impl_8h.html" target="_top" xlink:title=" ">
<polygon fill="none" stroke="black" points="291.75,-224.5 291.75,-243.5 365.75,-243.5 365.75,-224.5 291.75,-224.5"/>
<text text-anchor="middle" x="328.75" y="-231.5" font-family="Helvetica,sans-Serif" font-size="10.00">master.impl.h</text>
</a>
</g>
</g>
<!-- Node1&#45;&gt;Node14 -->
<g id="edge26" class="edge">
<title>Node1&#45;&gt;Node14</title>
<path fill="none" stroke="midnightblue" d="M328.75,-280.4C328.75,-272.47 328.75,-262.46 328.75,-253.86"/>
<polygon fill="midnightblue" stroke="midnightblue" points="332.25,-253.66 328.75,-243.66 325.25,-253.66 332.25,-253.66"/>
</g>
<!-- Node15 -->
<g id="node15" class="node">
<title>Node15</title>
<g id="a_node15"><a xlink:href="master__func_8impl_8h.html" target="_top" xlink:title=" ">
<polygon fill="none" stroke="black" points="421.75,-224.5 421.75,-243.5 519.75,-243.5 519.75,-224.5 421.75,-224.5"/>
<text text-anchor="middle" x="470.75" y="-231.5" font-family="Helvetica,sans-Serif" font-size="10.00">master_func.impl.h</text>
</a>
</g>
</g>
<!-- Node1&#45;&gt;Node15 -->
<g id="edge29" class="edge">
<title>Node1&#45;&gt;Node15</title>
<path fill="none" stroke="midnightblue" d="M362.4,-280.4C386.22,-270.42 417.89,-257.15 440.83,-247.53"/>
<polygon fill="midnightblue" stroke="midnightblue" points="442.21,-250.75 450.08,-243.66 439.51,-244.29 442.21,-250.75"/>
</g>
<!-- Node16 -->
<g id="node16" class="node">
<title>Node16</title>
<g id="a_node16"><a xlink:href="debug_8impl_8h.html" target="_top" xlink:title=" ">
<polygon fill="none" stroke="black" points="576.25,-224.5 576.25,-243.5 647.25,-243.5 647.25,-224.5 576.25,-224.5"/>
<text text-anchor="middle" x="611.75" y="-231.5" font-family="Helvetica,sans-Serif" font-size="10.00">debug.impl.h</text>
</a>
</g>
</g>
<!-- Node1&#45;&gt;Node16 -->
<g id="edge32" class="edge">
<title>Node1&#45;&gt;Node16</title>
<path fill="none" stroke="midnightblue" d="M380.32,-283.66C433.42,-272.49 515.37,-255.26 566.16,-244.58"/>
<polygon fill="midnightblue" stroke="midnightblue" points="567.13,-247.96 576.19,-242.47 565.69,-241.11 567.13,-247.96"/>
</g>
<!-- Node3 -->
<g id="node3" class="node">
<title>Node3</title>
<g id="a_node3"><a xlink:title=" ">
<polygon fill="none" stroke="#bfbfbf" points="289.75,-0.5 289.75,-19.5 337.75,-19.5 337.75,-0.5 289.75,-0.5"/>
<text text-anchor="middle" x="313.75" y="-7.5" font-family="Helvetica,sans-Serif" font-size="10.00">stdint.h</text>
</a>
</g>
</g>
<!-- Node2&#45;&gt;Node3 -->
<g id="edge2" class="edge">
<title>Node2&#45;&gt;Node3</title>
<path fill="none" stroke="midnightblue" d="M199.86,-112.37C202.02,-98.83 207.94,-72.45 222.75,-56 237.9,-39.15 260.79,-27.88 279.82,-20.82"/>
<polygon fill="midnightblue" stroke="midnightblue" points="281.06,-24.1 289.36,-17.52 278.77,-17.49 281.06,-24.1"/>
</g>
<!-- Node4 -->
<g id="node4" class="node">
<title>Node4</title>
<g id="a_node4"><a xlink:title=" ">
<polygon fill="none" stroke="#bfbfbf" points="232.25,-56.5 232.25,-75.5 283.25,-75.5 283.25,-56.5 232.25,-56.5"/>
<text text-anchor="middle" x="257.75" y="-63.5" font-family="Helvetica,sans-Serif" font-size="10.00">stddef.h</text>
</a>
</g>
</g>
<!-- Node2&#45;&gt;Node4 -->
<g id="edge3" class="edge">
<title>Node2&#45;&gt;Node4</title>
<path fill="none" stroke="midnightblue" d="M208.23,-112.32C216.95,-104.34 230.09,-92.31 240.64,-82.65"/>
<polygon fill="midnightblue" stroke="midnightblue" points="243.08,-85.17 248.09,-75.83 238.35,-80 243.08,-85.17"/>
</g>
<!-- Node5 -->
<g id="node5" class="node">
<title>Node5</title>
<g id="a_node5"><a xlink:href="base_8h.html" target="_top" xlink:title=" ">
<polygon fill="none" stroke="black" points="342.25,-56.5 342.25,-75.5 387.25,-75.5 387.25,-56.5 342.25,-56.5"/>
<text text-anchor="middle" x="364.75" y="-63.5" font-family="Helvetica,sans-Serif" font-size="10.00">base.h</text>
</a>
</g>
</g>
<!-- Node2&#45;&gt;Node5 -->
<g id="edge4" class="edge">
<title>Node2&#45;&gt;Node5</title>
<path fill="none" stroke="midnightblue" d="M222.53,-113.26C251.33,-103.89 299.97,-88.07 332.22,-77.58"/>
<polygon fill="midnightblue" stroke="midnightblue" points="333.65,-80.8 342.07,-74.38 331.48,-74.14 333.65,-80.8"/>
</g>
<!-- Node5&#45;&gt;Node3 -->
<g id="edge5" class="edge">
<title>Node5&#45;&gt;Node3</title>
<path fill="none" stroke="midnightblue" d="M356.32,-56.08C348.9,-48.22 337.89,-36.57 328.93,-27.08"/>
<polygon fill="midnightblue" stroke="midnightblue" points="331.42,-24.62 322.01,-19.75 326.33,-29.42 331.42,-24.62"/>
</g>
<!-- Node6&#45;&gt;Node5 -->
<g id="edge7" class="edge">
<title>Node6&#45;&gt;Node5</title>
<path fill="none" stroke="midnightblue" d="M146,-168.35C167.5,-159.5 201.62,-145.23 230.75,-132 268.48,-114.85 311.51,-93.69 338.39,-80.27"/>
<polygon fill="midnightblue" stroke="midnightblue" points="340.16,-83.3 347.53,-75.69 337.02,-77.04 340.16,-83.3"/>
</g>
<!-- Node7&#45;&gt;Node3 -->
<g id="edge9" class="edge">
<title>Node7&#45;&gt;Node3</title>
<path fill="none" stroke="midnightblue" d="M314.67,-112.37C314.51,-94.62 314.13,-53.67 313.92,-29.6"/>
<polygon fill="midnightblue" stroke="midnightblue" points="317.42,-29.56 313.82,-19.59 310.42,-29.62 317.42,-29.56"/>
</g>
<!-- Node7&#45;&gt;Node4 -->
<g id="edge10" class="edge">
<title>Node7&#45;&gt;Node4</title>
<path fill="none" stroke="midnightblue" d="M305.59,-112.32C297.24,-104.42 284.71,-92.55 274.57,-82.94"/>
<polygon fill="midnightblue" stroke="midnightblue" points="276.74,-80.17 267.07,-75.83 271.92,-85.25 276.74,-80.17"/>
</g>
<!-- Node7&#45;&gt;Node5 -->
<g id="edge11" class="edge">
<title>Node7&#45;&gt;Node5</title>
<path fill="none" stroke="midnightblue" d="M323,-112.08C330.21,-104.3 340.86,-92.8 349.59,-83.37"/>
<polygon fill="midnightblue" stroke="midnightblue" points="352.42,-85.47 356.64,-75.75 347.28,-80.71 352.42,-85.47"/>
</g>
<!-- Node8&#45;&gt;Node5 -->
<g id="edge13" class="edge">
<title>Node8&#45;&gt;Node5</title>
<path fill="none" stroke="midnightblue" d="M380.41,-168.37C377.67,-150.62 371.34,-109.67 367.62,-85.6"/>
<polygon fill="midnightblue" stroke="midnightblue" points="371.06,-84.94 366.07,-75.59 364.14,-86.01 371.06,-84.94"/>
</g>
<!-- Node8&#45;&gt;Node7 -->
<g id="edge14" class="edge">
<title>Node8&#45;&gt;Node7</title>
<path fill="none" stroke="midnightblue" d="M370.98,-168.32C360.98,-160.26 345.86,-148.08 333.82,-138.37"/>
<polygon fill="midnightblue" stroke="midnightblue" points="335.69,-135.38 325.71,-131.83 331.3,-140.83 335.69,-135.38"/>
</g>
<!-- Node9&#45;&gt;Node5 -->
<g id="edge16" class="edge">
<title>Node9&#45;&gt;Node5</title>
<path fill="none" stroke="midnightblue" d="M533.39,-168.37C501.85,-149.41 426.3,-104 387.94,-80.94"/>
<polygon fill="midnightblue" stroke="midnightblue" points="389.41,-77.74 379.04,-75.59 385.81,-83.74 389.41,-77.74"/>
</g>
<!-- Node10&#45;&gt;Node5 -->
<g id="edge18" class="edge">
<title>Node10&#45;&gt;Node5</title>
<path fill="none" stroke="midnightblue" d="M683.16,-224.49C647.54,-203.88 552.99,-150.15 470.75,-112 445.7,-100.38 416.82,-88.2 395.54,-79.44"/>
<polygon fill="midnightblue" stroke="midnightblue" points="396.62,-76.11 386.04,-75.56 393.97,-82.59 396.62,-76.11"/>
</g>
<!-- Node11 -->
<g id="node11" class="node">
<title>Node11</title>
<g id="a_node11"><a xlink:title=" ">
<polygon fill="none" stroke="#bfbfbf" points="674.25,-168.5 674.25,-187.5 721.25,-187.5 721.25,-168.5 674.25,-168.5"/>
<text text-anchor="middle" x="697.75" y="-175.5" font-family="Helvetica,sans-Serif" font-size="10.00">stdlib.h</text>
</a>
</g>
</g>
<!-- Node10&#45;&gt;Node11 -->
<g id="edge19" class="edge">
<title>Node10&#45;&gt;Node11</title>
<path fill="none" stroke="midnightblue" d="M697.75,-224.08C697.75,-217.01 697.75,-206.86 697.75,-197.99"/>
<polygon fill="midnightblue" stroke="midnightblue" points="701.25,-197.75 697.75,-187.75 694.25,-197.75 701.25,-197.75"/>
</g>
<!-- Node12&#45;&gt;Node2 -->
<g id="edge21" class="edge">
<title>Node12&#45;&gt;Node2</title>
<path fill="none" stroke="midnightblue" d="M54.97,-224.18C57.34,-210.39 63.78,-183.66 79.75,-168 102.99,-145.19 138.93,-133.73 165.23,-128.11"/>
<polygon fill="midnightblue" stroke="midnightblue" points="166,-131.53 175.14,-126.17 164.66,-124.66 166,-131.53"/>
</g>
<!-- Node12&#45;&gt;Node6 -->
<g id="edge22" class="edge">
<title>Node12&#45;&gt;Node6</title>
<path fill="none" stroke="midnightblue" d="M65.15,-224.32C75.85,-216.18 92.09,-203.84 104.91,-194.09"/>
<polygon fill="midnightblue" stroke="midnightblue" points="107.29,-196.67 113.13,-187.83 103.05,-191.1 107.29,-196.67"/>
</g>
<!-- Node13&#45;&gt;Node2 -->
<g id="edge25" class="edge">
<title>Node13&#45;&gt;Node2</title>
<path fill="none" stroke="midnightblue" d="M190.45,-224.37C191.9,-206.62 195.26,-165.67 197.22,-141.6"/>
<polygon fill="midnightblue" stroke="midnightblue" points="200.72,-141.84 198.04,-131.59 193.74,-141.27 200.72,-141.84"/>
</g>
<!-- Node13&#45;&gt;Node6 -->
<g id="edge24" class="edge">
<title>Node13&#45;&gt;Node6</title>
<path fill="none" stroke="midnightblue" d="M179.3,-224.32C169.6,-216.26 154.93,-204.08 143.25,-194.37"/>
<polygon fill="midnightblue" stroke="midnightblue" points="145.31,-191.53 135.38,-187.83 140.83,-196.92 145.31,-191.53"/>
</g>
<!-- Node14&#45;&gt;Node7 -->
<g id="edge27" class="edge">
<title>Node14&#45;&gt;Node7</title>
<path fill="none" stroke="midnightblue" d="M327.65,-224.37C325.39,-206.62 320.18,-165.67 317.11,-141.6"/>
<polygon fill="midnightblue" stroke="midnightblue" points="320.57,-141.07 315.84,-131.59 313.63,-141.95 320.57,-141.07"/>
</g>
<!-- Node14&#45;&gt;Node8 -->
<g id="edge28" class="edge">
<title>Node14&#45;&gt;Node8</title>
<path fill="none" stroke="midnightblue" d="M337.5,-224.08C345.22,-216.22 356.65,-204.57 365.96,-195.08"/>
<polygon fill="midnightblue" stroke="midnightblue" points="368.65,-197.34 373.16,-187.75 363.65,-192.44 368.65,-197.34"/>
</g>
<!-- Node15&#45;&gt;Node7 -->
<g id="edge31" class="edge">
<title>Node15&#45;&gt;Node7</title>
<path fill="none" stroke="midnightblue" d="M467.33,-224.18C461.57,-210.37 448.67,-183.64 429.75,-168 407.19,-149.36 375.99,-137.8 351.78,-131.08"/>
<polygon fill="midnightblue" stroke="midnightblue" points="352.44,-127.63 341.88,-128.48 350.66,-134.4 352.44,-127.63"/>
</g>
<!-- Node15&#45;&gt;Node8 -->
<g id="edge30" class="edge">
<title>Node15&#45;&gt;Node8</title>
<path fill="none" stroke="midnightblue" d="M456.45,-224.32C442.56,-215.9 421.25,-202.97 404.94,-193.07"/>
<polygon fill="midnightblue" stroke="midnightblue" points="406.38,-189.85 396.01,-187.65 402.74,-195.83 406.38,-189.85"/>
</g>
<!-- Node16&#45;&gt;Node9 -->
<g id="edge33" class="edge">
<title>Node16&#45;&gt;Node9</title>
<path fill="none" stroke="midnightblue" d="M601.46,-224.32C591.91,-216.26 577.47,-204.08 565.96,-194.37"/>
<polygon fill="midnightblue" stroke="midnightblue" points="568.12,-191.61 558.22,-187.83 563.6,-196.96 568.12,-191.61"/>
</g>
</g>
</svg>
