<?xml version="1.0" encoding="UTF-8" standalone="no"?>
<!DOCTYPE svg PUBLIC "-//W3C//DTD SVG 1.1//EN"
 "http://www.w3.org/Graphics/SVG/1.1/DTD/svg11.dtd">
<!-- Generated by graphviz version 2.44.0 ()
 -->
<!-- Title: include/lightmodbus/master.impl.h Pages: 1 -->
<svg width="150pt" height="263pt"
 viewBox="0.00 0.00 150.35 263.00" xmlns="http://www.w3.org/2000/svg" xmlns:xlink="http://www.w3.org/1999/xlink">
<g id="graph0" class="graph" transform="scale(1 1) rotate(0) translate(4 259)">
<title>include/lightmodbus/master.impl.h</title>
<!-- Node1 -->
<g id="node1" class="node">
<title>Node1</title>
<g id="a_node1"><a xlink:title="Master&#39;s types and basic functions (implementation)">
<polygon fill="#bfbfbf" stroke="black" points="17.85,-224.5 17.85,-254.5 120.85,-254.5 120.85,-224.5 17.85,-224.5"/>
<text text-anchor="start" x="25.85" y="-242.5" font-family="Helvetica,sans-Serif" font-size="10.00">include/lightmodbus</text>
<text text-anchor="middle" x="69.35" y="-231.5" font-family="Helvetica,sans-Serif" font-size="10.00">/master.impl.h</text>
</a>
</g>
</g>
<!-- Node2 -->
<g id="node2" class="node">
<title>Node2</title>
<g id="a_node2"><a xlink:href="master_8h.html" target="_top" xlink:title="Master&#39;s types and basic functions (header)">
<polygon fill="none" stroke="black" points="10.35,-112.5 10.35,-131.5 64.35,-131.5 64.35,-112.5 10.35,-112.5"/>
<text text-anchor="middle" x="37.35" y="-119.5" font-family="Helvetica,sans-Serif" font-size="10.00">master.h</text>
</a>
</g>
</g>
<!-- Node1&#45;&gt;Node2 -->
<g id="edge1" class="edge">
<title>Node1&#45;&gt;Node2</title>
<path fill="none" stroke="midnightblue" d="M65.42,-224.34C59.66,-203.53 48.89,-164.66 42.49,-141.58"/>
<polygon fill="midnightblue" stroke="midnightblue" points="45.79,-140.37 39.75,-131.67 39.04,-142.24 45.79,-140.37"/>
</g>
<!-- Node6 -->
<g id="node6" class="node">
<title>Node6</title>
<g id="a_node6"><a xlink:href="master__func_8h.html" target="_top" xlink:title="Master&#39;s functions for building requests and parsing responses (header)">
<polygon fill="none" stroke="black" points="64.35,-168.5 64.35,-187.5 142.35,-187.5 142.35,-168.5 64.35,-168.5"/>
<text text-anchor="middle" x="103.35" y="-175.5" font-family="Helvetica,sans-Serif" font-size="10.00">master_func.h</text>
</a>
</g>
</g>
<!-- Node1&#45;&gt;Node6 -->
<g id="edge6" class="edge">
<title>Node1&#45;&gt;Node6</title>
<path fill="none" stroke="midnightblue" d="M77.4,-224.4C82.19,-216.02 88.3,-205.33 93.39,-196.42"/>
<polygon fill="midnightblue" stroke="midnightblue" points="96.48,-198.08 98.4,-187.66 90.4,-194.6 96.48,-198.08"/>
</g>
<!-- Node3 -->
<g id="node3" class="node">
<title>Node3</title>
<g id="a_node3"><a xlink:title=" ">
<polygon fill="none" stroke="#bfbfbf" points="19.35,-0.5 19.35,-19.5 67.35,-19.5 67.35,-0.5 19.35,-0.5"/>
<text text-anchor="middle" x="43.35" y="-7.5" font-family="Helvetica,sans-Serif" font-size="10.00">stdint.h</text>
</a>
</g>
</g>
<!-- Node2&#45;&gt;Node3 -->
<g id="edge2" class="edge">
<title>Node2&#45;&gt;Node3</title>
<path fill="none" stroke="midnightblue" d="M27.28,-112.5C14.25,-100.39 -5.89,-77.27 2.35,-56 6.8,-44.5 15.71,-34.13 24.09,-26.25"/>
<polygon fill="midnightblue" stroke="midnightblue" points="26.58,-28.73 31.8,-19.51 21.97,-23.46 26.58,-28.73"/>
</g>
<!-- Node4 -->
<g id="node4" class="node">
<title>Node4</title>
<g id="a_node4"><a xlink:title=" ">
<polygon fill="none" stroke="#bfbfbf" points="11.85,-56.5 11.85,-75.5 62.85,-75.5 62.85,-56.5 11.85,-56.5"/>
<text text-anchor="middle" x="37.35" y="-63.5" font-family="Helvetica,sans-Serif" font-size="10.00">stddef.h</text>
</a>
</g>
</g>
<!-- Node2&#45;&gt;Node4 -->
<g id="edge3" class="edge">
<title>Node2&#45;&gt;Node4</title>
<path fill="none" stroke="midnightblue" d="M37.35,-112.08C37.35,-105.01 37.35,-94.86 37.35,-85.99"/>
<polygon fill="midnightblue" stroke="midnightblue" points="40.85,-85.75 37.35,-75.75 33.85,-85.75 40.85,-85.75"/>
</g>
<!-- Node5 -->
<g id="node5" class="node">
<title>Node5</title>
<g id="a_node5"><a xlink:href="base_8h.html" target="_top" xlink:title="Common types and functions (header)">
<polygon fill="none" stroke="black" points="80.85,-56.5 80.85,-75.5 125.85,-75.5 125.85,-56.5 80.85,-56.5"/>
<text text-anchor="middle" x="103.35" y="-63.5" font-family="Helvetica,sans-Serif" font-size="10.00">base.h</text>
</a>
</g>
</g>
<!-- Node2&#45;&gt;Node5 -->
<g id="edge4" class="edge">
<title>Node2&#45;&gt;Node5</title>
<path fill="none" stroke="midnightblue" d="M47.95,-112.32C57.8,-104.26 72.7,-92.08 84.56,-82.37"/>
<polygon fill="midnightblue" stroke="midnightblue" points="87.03,-84.88 92.55,-75.83 82.59,-79.46 87.03,-84.88"/>
</g>
<!-- Node5&#45;&gt;Node3 -->
<g id="edge5" class="edge">
<title>Node5&#45;&gt;Node3</title>
<path fill="none" stroke="midnightblue" d="M93.71,-56.32C84.84,-48.34 71.47,-36.31 60.74,-26.65"/>
<polygon fill="midnightblue" stroke="midnightblue" points="62.94,-23.92 53.16,-19.83 58.25,-29.13 62.94,-23.92"/>
</g>
<!-- Node6&#45;&gt;Node2 -->
<g id="edge8" class="edge">
<title>Node6&#45;&gt;Node2</title>
<path fill="none" stroke="midnightblue" d="M92.74,-168.32C82.89,-160.26 67.99,-148.08 56.13,-138.37"/>
<polygon fill="midnightblue" stroke="midnightblue" points="58.1,-135.46 48.14,-131.83 53.67,-140.88 58.1,-135.46"/>
</g>
<!-- Node6&#45;&gt;Node5 -->
<g id="edge7" class="edge">
<title>Node6&#45;&gt;Node5</title>
<path fill="none" stroke="midnightblue" d="M103.35,-168.37C103.35,-150.62 103.35,-109.67 103.35,-85.6"/>
<polygon fill="midnightblue" stroke="midnightblue" points="106.85,-85.59 103.35,-75.59 99.85,-85.59 106.85,-85.59"/>
</g>
</g>
</svg>
