<?xml version="1.0" encoding="UTF-8" standalone="no"?>
<!DOCTYPE svg PUBLIC "-//W3C//DTD SVG 1.1//EN"
 "http://www.w3.org/Graphics/SVG/1.1/DTD/svg11.dtd">
<!-- Generated by graphviz version 2.44.0 ()
 -->
<!-- Title: include/lightmodbus/master_func.h Pages: 1 -->
<svg width="165pt" height="207pt"
 viewBox="0.00 0.00 165.00 207.00" xmlns="http://www.w3.org/2000/svg" xmlns:xlink="http://www.w3.org/1999/xlink">
<g id="graph0" class="graph" transform="scale(1 1) rotate(0) translate(4 203)">
<title>include/lightmodbus/master_func.h</title>
<!-- Node1 -->
<g id="node1" class="node">
<title>Node1</title>
<g id="a_node1"><a xlink:title=" ">
<polygon fill="#bfbfbf" stroke="black" points="0,-168.5 0,-198.5 103,-198.5 103,-168.5 0,-168.5"/>
<text text-anchor="start" x="8" y="-186.5" font-family="Helvetica,sans-Serif" font-size="10.00">include/lightmodbus</text>
<text text-anchor="middle" x="51.5" y="-175.5" font-family="Helvetica,sans-Serif" font-size="10.00">/master_func.h</text>
</a>
</g>
</g>
<!-- Node2 -->
<g id="node2" class="node">
<title>Node2</title>
<g id="a_node2"><a xlink:href="base_8h.html" target="_top" xlink:title=" ">
<polygon fill="none" stroke="black" points="4,-56.5 4,-75.5 49,-75.5 49,-56.5 4,-56.5"/>
<text text-anchor="middle" x="26.5" y="-63.5" font-family="Helvetica,sans-Serif" font-size="10.00">base.h</text>
</a>
</g>
</g>
<!-- Node1&#45;&gt;Node2 -->
<g id="edge1" class="edge">
<title>Node1&#45;&gt;Node2</title>
<path fill="none" stroke="midnightblue" d="M48.43,-168.34C43.93,-147.53 35.52,-108.66 30.52,-85.58"/>
<polygon fill="midnightblue" stroke="midnightblue" points="33.91,-84.7 28.38,-75.67 27.07,-86.18 33.91,-84.7"/>
</g>
<!-- Node4 -->
<g id="node4" class="node">
<title>Node4</title>
<g id="a_node4"><a xlink:href="master_8h.html" target="_top" xlink:title=" ">
<polygon fill="none" stroke="black" points="52.5,-112.5 52.5,-131.5 106.5,-131.5 106.5,-112.5 52.5,-112.5"/>
<text text-anchor="middle" x="79.5" y="-119.5" font-family="Helvetica,sans-Serif" font-size="10.00">master.h</text>
</a>
</g>
</g>
<!-- Node1&#45;&gt;Node4 -->
<g id="edge3" class="edge">
<title>Node1&#45;&gt;Node4</title>
<path fill="none" stroke="midnightblue" d="M58.14,-168.4C62.04,-160.11 67,-149.55 71.17,-140.71"/>
<polygon fill="midnightblue" stroke="midnightblue" points="74.33,-142.2 75.43,-131.66 68,-139.22 74.33,-142.2"/>
</g>
<!-- Node3 -->
<g id="node3" class="node">
<title>Node3</title>
<g id="a_node3"><a xlink:title=" ">
<polygon fill="none" stroke="#bfbfbf" points="27.5,-0.5 27.5,-19.5 75.5,-19.5 75.5,-0.5 27.5,-0.5"/>
<text text-anchor="middle" x="51.5" y="-7.5" font-family="Helvetica,sans-Serif" font-size="10.00">stdint.h</text>
</a>
</g>
</g>
<!-- Node2&#45;&gt;Node3 -->
<g id="edge2" class="edge">
<title>Node2&#45;&gt;Node3</title>
<path fill="none" stroke="midnightblue" d="M30.63,-56.08C34.01,-48.77 38.92,-38.18 43.12,-29.1"/>
<polygon fill="midnightblue" stroke="midnightblue" points="46.42,-30.3 47.45,-19.75 40.07,-27.36 46.42,-30.3"/>
</g>
<!-- Node4&#45;&gt;Node2 -->
<g id="edge6" class="edge">
<title>Node4&#45;&gt;Node2</title>
<path fill="none" stroke="midnightblue" d="M70.75,-112.08C63.03,-104.22 51.6,-92.57 42.28,-83.08"/>
<polygon fill="midnightblue" stroke="midnightblue" points="44.59,-80.44 35.09,-75.75 39.6,-85.34 44.59,-80.44"/>
</g>
<!-- Node4&#45;&gt;Node3 -->
<g id="edge4" class="edge">
<title>Node4&#45;&gt;Node3</title>
<path fill="none" stroke="midnightblue" d="M77.3,-112.37C72.78,-94.62 62.36,-53.67 56.23,-29.6"/>
<polygon fill="midnightblue" stroke="midnightblue" points="59.55,-28.42 53.69,-19.59 52.76,-30.15 59.55,-28.42"/>
</g>
<!-- Node5 -->
<g id="node5" class="node">
<title>Node5</title>
<g id="a_node5"><a xlink:title=" ">
<polygon fill="none" stroke="#bfbfbf" points="106,-56.5 106,-75.5 157,-75.5 157,-56.5 106,-56.5"/>
<text text-anchor="middle" x="131.5" y="-63.5" font-family="Helvetica,sans-Serif" font-size="10.00">stddef.h</text>
</a>
</g>
</g>
<!-- Node4&#45;&gt;Node5 -->
<g id="edge5" class="edge">
<title>Node4&#45;&gt;Node5</title>
<path fill="none" stroke="midnightblue" d="M88.09,-112.08C95.66,-104.22 106.88,-92.57 116.01,-83.08"/>
<polygon fill="midnightblue" stroke="midnightblue" points="118.66,-85.38 123.07,-75.75 113.62,-80.53 118.66,-85.38"/>
</g>
</g>
</svg>
