<?xml version="1.0" encoding="UTF-8" standalone="no"?>
<!DOCTYPE svg PUBLIC "-//W3C//DTD SVG 1.1//EN"
 "http://www.w3.org/Graphics/SVG/1.1/DTD/svg11.dtd">
<!-- Generated by graphviz version 2.44.0 ()
 -->
<!-- Title: modbusBuildRequest01020304 Pages: 1 -->
<svg width="314pt" height="142pt"
 viewBox="0.00 0.00 314.00 142.00" xmlns="http://www.w3.org/2000/svg" xmlns:xlink="http://www.w3.org/1999/xlink">
<g id="graph0" class="graph" transform="scale(1 1) rotate(0) translate(4 138)">
<title>modbusBuildRequest01020304</title>
<!-- Node1 -->
<g id="node1" class="node">
<title>Node1</title>
<g id="a_node1"><a xlink:title="Read mutiple coils/discrete inputs/holding registers/input registers.">
<polygon fill="#bfbfbf" stroke="black" points="155,-57.5 155,-76.5 306,-76.5 306,-57.5 155,-57.5"/>
<text text-anchor="middle" x="230.5" y="-64.5" font-family="Helvetica,sans-Serif" font-size="10.00">modbusBuildRequest01020304</text>
</a>
</g>
</g>
<!-- Node2 -->
<g id="node2" class="node">
<title>Node2</title>
<g id="a_node2"><a xlink:href="master__func_8h.html#a43625f73409a29020da28f377e0de02d" target="_top" xlink:title="Read multiple coils &#45; a wrapper for modbusBuildRequest01020304()">
<polygon fill="none" stroke="black" points="0,-114.5 0,-133.5 119,-133.5 119,-114.5 0,-114.5"/>
<text text-anchor="middle" x="59.5" y="-121.5" font-family="Helvetica,sans-Serif" font-size="10.00">modbusBuildRequest01</text>
</a>
</g>
</g>
<!-- Node1&#45;&gt;Node2 -->
<g id="edge1" class="edge">
<title>Node1&#45;&gt;Node2</title>
<path fill="none" stroke="midnightblue" d="M192.6,-79.87C171.15,-87.3 143.58,-96.78 119,-105 109.68,-108.11 99.51,-111.44 90.29,-114.43"/>
<polygon fill="midnightblue" stroke="midnightblue" points="194,-83.09 202.3,-76.5 191.7,-76.47 194,-83.09"/>
</g>
<!-- Node3 -->
<g id="node3" class="node">
<title>Node3</title>
<g id="a_node3"><a xlink:href="master__func_8h.html#a9843a13972c4fca9c0f252405ad1d3e5" target="_top" xlink:title="Read multiple discrete inputs &#45; a wrapper for modbusBuildRequest01020304()">
<polygon fill="none" stroke="black" points="0,-76.5 0,-95.5 119,-95.5 119,-76.5 0,-76.5"/>
<text text-anchor="middle" x="59.5" y="-83.5" font-family="Helvetica,sans-Serif" font-size="10.00">modbusBuildRequest02</text>
</a>
</g>
</g>
<!-- Node1&#45;&gt;Node3 -->
<g id="edge2" class="edge">
<title>Node1&#45;&gt;Node3</title>
<path fill="none" stroke="midnightblue" d="M144.77,-76.53C136.14,-77.5 127.51,-78.47 119.24,-79.4"/>
<polygon fill="midnightblue" stroke="midnightblue" points="145.34,-79.98 154.88,-75.39 144.55,-73.03 145.34,-79.98"/>
</g>
<!-- Node4 -->
<g id="node4" class="node">
<title>Node4</title>
<g id="a_node4"><a xlink:href="master__func_8h.html#aac59dbdb7f5e29c4aeca3be13bd13b0c" target="_top" xlink:title="Read multiple holding registers &#45; a wrapper for modbusBuildRequest01020304()">
<polygon fill="none" stroke="black" points="0,-38.5 0,-57.5 119,-57.5 119,-38.5 0,-38.5"/>
<text text-anchor="middle" x="59.5" y="-45.5" font-family="Helvetica,sans-Serif" font-size="10.00">modbusBuildRequest03</text>
</a>
</g>
</g>
<!-- Node1&#45;&gt;Node4 -->
<g id="edge3" class="edge">
<title>Node1&#45;&gt;Node4</title>
<path fill="none" stroke="midnightblue" d="M144.77,-57.47C136.14,-56.5 127.51,-55.53 119.24,-54.6"/>
<polygon fill="midnightblue" stroke="midnightblue" points="144.55,-60.97 154.88,-58.61 145.34,-54.02 144.55,-60.97"/>
</g>
<!-- Node5 -->
<g id="node5" class="node">
<title>Node5</title>
<g id="a_node5"><a xlink:href="master__func_8h.html#a3e418028607e875aafd104c1b6b37ccd" target="_top" xlink:title="Read multiple input registers &#45; a wrapper for modbusBuildRequest01020304()">
<polygon fill="none" stroke="black" points="0,-0.5 0,-19.5 119,-19.5 119,-0.5 0,-0.5"/>
<text text-anchor="middle" x="59.5" y="-7.5" font-family="Helvetica,sans-Serif" font-size="10.00">modbusBuildRequest04</text>
</a>
</g>
</g>
<!-- Node1&#45;&gt;Node5 -->
<g id="edge4" class="edge">
<title>Node1&#45;&gt;Node5</title>
<path fill="none" stroke="midnightblue" d="M192.6,-54.13C171.15,-46.7 143.58,-37.22 119,-29 109.68,-25.89 99.51,-22.56 90.29,-19.57"/>
<polygon fill="midnightblue" stroke="midnightblue" points="191.7,-57.53 202.3,-57.5 194,-50.91 191.7,-57.53"/>
</g>
</g>
</svg>
