<?xml version="1.0" encoding="UTF-8" standalone="no"?>
<!DOCTYPE svg PUBLIC "-//W3C//DTD SVG 1.1//EN"
 "http://www.w3.org/Graphics/SVG/1.1/DTD/svg11.dtd">
<!-- Generated by graphviz version 2.44.0 ()
 -->
<!-- Title: modbusBuildRequest22 Pages: 1 -->
<svg width="500pt" height="85pt"
 viewBox="0.00 0.00 500.00 85.00" xmlns="http://www.w3.org/2000/svg" xmlns:xlink="http://www.w3.org/1999/xlink">
<g id="graph0" class="graph" transform="scale(1 1) rotate(0) translate(4 81)">
<title>modbusBuildRequest22</title>
<!-- Node1 -->
<g id="node1" class="node">
<title>Node1</title>
<g id="a_node1"><a xlink:title="Mask write register request.">
<polygon fill="#bfbfbf" stroke="black" points="0,-19.5 0,-38.5 119,-38.5 119,-19.5 0,-19.5"/>
<text text-anchor="middle" x="59.5" y="-26.5" font-family="Helvetica,sans-Serif" font-size="10.00">modbusBuildRequest22</text>
</a>
</g>
</g>
<!-- Node2 -->
<g id="node2" class="node">
<title>Node2</title>
<g id="a_node2"><a xlink:href="master_8h.html#a004b932b2b69ad0c6649c26d974146b2" target="_top" xlink:title="Allocates memory for the request frame.">
<polygon fill="none" stroke="black" points="155,-38.5 155,-57.5 307,-57.5 307,-38.5 155,-38.5"/>
<text text-anchor="middle" x="231" y="-45.5" font-family="Helvetica,sans-Serif" font-size="10.00">modbusMasterAllocateRequest</text>
</a>
</g>
</g>
<!-- Node1&#45;&gt;Node2 -->
<g id="edge1" class="edge">
<title>Node1&#45;&gt;Node2</title>
<path fill="none" stroke="midnightblue" d="M119.31,-35.59C127.55,-36.52 136.16,-37.48 144.78,-38.45"/>
<polygon fill="midnightblue" stroke="midnightblue" points="144.55,-41.94 154.88,-39.58 145.33,-34.99 144.55,-41.94"/>
</g>
<!-- Node5 -->
<g id="node5" class="node">
<title>Node5</title>
<g id="a_node5"><a xlink:href="base_8h.html#a73b9f793bbe67a1968cc8c53a22d4c4b" target="_top" xlink:title="Safely writes a big&#45;endian 16&#45;bit word to provided pointer.">
<polygon fill="none" stroke="black" points="194.5,-0.5 194.5,-19.5 267.5,-19.5 267.5,-0.5 194.5,-0.5"/>
<text text-anchor="middle" x="231" y="-7.5" font-family="Helvetica,sans-Serif" font-size="10.00">modbusWBE</text>
</a>
</g>
</g>
<!-- Node1&#45;&gt;Node5 -->
<g id="edge4" class="edge">
<title>Node1&#45;&gt;Node5</title>
<path fill="none" stroke="midnightblue" d="M119.31,-22.41C140.48,-20.03 164.04,-17.39 183.96,-15.16"/>
<polygon fill="midnightblue" stroke="midnightblue" points="184.47,-18.63 194.02,-14.03 183.69,-11.67 184.47,-18.63"/>
</g>
<!-- Node3 -->
<g id="node3" class="node">
<title>Node3</title>
<g id="a_node3"><a xlink:href="base_8h.html#a54f7d1db7f58ffd329b1955ad1a66f37" target="_top" xlink:title="Allocates memory to hold Modbus ADU.">
<polygon fill="none" stroke="black" points="351,-57.5 351,-76.5 484,-76.5 484,-57.5 351,-57.5"/>
<text text-anchor="middle" x="417.5" y="-64.5" font-family="Helvetica,sans-Serif" font-size="10.00">modbusBufferAllocateADU</text>
</a>
</g>
</g>
<!-- Node2&#45;&gt;Node3 -->
<g id="edge2" class="edge">
<title>Node2&#45;&gt;Node3</title>
<path fill="none" stroke="midnightblue" d="M307.04,-55.73C318.2,-56.88 329.69,-58.06 340.86,-59.21"/>
<polygon fill="midnightblue" stroke="midnightblue" points="340.69,-62.71 351,-60.25 341.41,-55.75 340.69,-62.71"/>
</g>
<!-- Node4 -->
<g id="node4" class="node">
<title>Node4</title>
<g id="a_node4"><a xlink:href="master_8h.html#a6ecfd0864bb7cd392a04be7d47bcadfa" target="_top" xlink:title="Retreieves the custom context pointer.">
<polygon fill="none" stroke="black" points="343,-19.5 343,-38.5 492,-38.5 492,-19.5 343,-19.5"/>
<text text-anchor="middle" x="417.5" y="-26.5" font-family="Helvetica,sans-Serif" font-size="10.00">modbusMasterGetUserPointer</text>
</a>
</g>
</g>
<!-- Node2&#45;&gt;Node4 -->
<g id="edge3" class="edge">
<title>Node2&#45;&gt;Node4</title>
<path fill="none" stroke="midnightblue" d="M307.04,-40.27C315.5,-39.4 324.17,-38.51 332.73,-37.63"/>
<polygon fill="midnightblue" stroke="midnightblue" points="333.13,-41.1 342.72,-36.6 332.41,-34.14 333.13,-41.1"/>
</g>
</g>
</svg>
