<?xml version="1.0" encoding="UTF-8" standalone="no"?>
<!DOCTYPE svg PUBLIC "-//W3C//DTD SVG 1.1//EN"
 "http://www.w3.org/Graphics/SVG/1.1/DTD/svg11.dtd">
<!-- Generated by graphviz version 2.44.0 ()
 -->
<!-- Title: modbusMasterAllocateRequest Pages: 1 -->
<svg width="502pt" height="370pt"
 viewBox="0.00 0.00 502.00 370.00" xmlns="http://www.w3.org/2000/svg" xmlns:xlink="http://www.w3.org/1999/xlink">
<g id="graph0" class="graph" transform="scale(1 1) rotate(0) translate(4 366)">
<title>modbusMasterAllocateRequest</title>
<!-- Node1 -->
<g id="node1" class="node">
<title>Node1</title>
<g id="a_node1"><a xlink:title="Allocates memory for the request frame.">
<polygon fill="#bfbfbf" stroke="black" points="342,-114.5 342,-133.5 494,-133.5 494,-114.5 342,-114.5"/>
<text text-anchor="middle" x="418" y="-121.5" font-family="Helvetica,sans-Serif" font-size="10.00">modbusMasterAllocateRequest</text>
</a>
</g>
</g>
<!-- Node2 -->
<g id="node2" class="node">
<title>Node2</title>
<g id="a_node2"><a xlink:href="master__func_8h.html#ad3a6d4576d762da3eb0bd73aa5bb24fe" target="_top" xlink:title="Read mutiple coils/discrete inputs/holding registers/input registers.">
<polygon fill="none" stroke="black" points="155,-266.5 155,-285.5 306,-285.5 306,-266.5 155,-266.5"/>
<text text-anchor="middle" x="230.5" y="-273.5" font-family="Helvetica,sans-Serif" font-size="10.00">modbusBuildRequest01020304</text>
</a>
</g>
</g>
<!-- Node1&#45;&gt;Node2 -->
<g id="edge1" class="edge">
<title>Node1&#45;&gt;Node2</title>
<path fill="none" stroke="midnightblue" d="M398.6,-140.29C376.79,-159.47 339.22,-192.11 306,-219 284.86,-236.11 259.6,-255.15 244.59,-266.33"/>
<polygon fill="midnightblue" stroke="midnightblue" points="400.95,-142.88 406.14,-133.64 396.32,-137.63 400.95,-142.88"/>
</g>
<!-- Node7 -->
<g id="node7" class="node">
<title>Node7</title>
<g id="a_node7"><a xlink:href="master__func_8h.html#a5309a3003ea2d248e51193e75ab30044" target="_top" xlink:title="Write single coil/holding register.">
<polygon fill="none" stroke="black" points="165.5,-190.5 165.5,-209.5 295.5,-209.5 295.5,-190.5 165.5,-190.5"/>
<text text-anchor="middle" x="230.5" y="-197.5" font-family="Helvetica,sans-Serif" font-size="10.00">modbusBuildRequest0506</text>
</a>
</g>
</g>
<!-- Node1&#45;&gt;Node7 -->
<g id="edge6" class="edge">
<title>Node1&#45;&gt;Node7</title>
<path fill="none" stroke="midnightblue" d="M392.28,-138.74C370.26,-151.37 336.84,-169.32 306,-181 296.39,-184.64 285.82,-187.81 275.74,-190.46"/>
<polygon fill="midnightblue" stroke="midnightblue" points="394.09,-141.74 400.98,-133.69 390.57,-135.69 394.09,-141.74"/>
</g>
<!-- Node10 -->
<g id="node10" class="node">
<title>Node10</title>
<g id="a_node10"><a xlink:href="master__func_8h.html#a0870a4601ed4e853673660ce94e6361c" target="_top" xlink:title="Write multiple coils.">
<polygon fill="none" stroke="black" points="171,-152.5 171,-171.5 290,-171.5 290,-152.5 171,-152.5"/>
<text text-anchor="middle" x="230.5" y="-159.5" font-family="Helvetica,sans-Serif" font-size="10.00">modbusBuildRequest15</text>
</a>
</g>
</g>
<!-- Node1&#45;&gt;Node10 -->
<g id="edge9" class="edge">
<title>Node1&#45;&gt;Node10</title>
<path fill="none" stroke="midnightblue" d="M360.33,-135.61C333.94,-141.01 302.95,-147.36 277.97,-152.48"/>
<polygon fill="midnightblue" stroke="midnightblue" points="361.1,-139.02 370.19,-133.59 359.69,-132.17 361.1,-139.02"/>
</g>
<!-- Node11 -->
<g id="node11" class="node">
<title>Node11</title>
<g id="a_node11"><a xlink:href="master__func_8h.html#a2268e967480c9281b88760dc752e5fa1" target="_top" xlink:title="Write multiple holding registers.">
<polygon fill="none" stroke="black" points="171,-114.5 171,-133.5 290,-133.5 290,-114.5 171,-114.5"/>
<text text-anchor="middle" x="230.5" y="-121.5" font-family="Helvetica,sans-Serif" font-size="10.00">modbusBuildRequest16</text>
</a>
</g>
</g>
<!-- Node1&#45;&gt;Node11 -->
<g id="edge10" class="edge">
<title>Node1&#45;&gt;Node11</title>
<path fill="none" stroke="midnightblue" d="M331.68,-124C317.67,-124 303.44,-124 290.27,-124"/>
<polygon fill="midnightblue" stroke="midnightblue" points="331.82,-127.5 341.82,-124 331.82,-120.5 331.82,-127.5"/>
</g>
<!-- Node12 -->
<g id="node12" class="node">
<title>Node12</title>
<g id="a_node12"><a xlink:href="master__func_8h.html#a1e2e9087a1bd52b7d1329b05324339e6" target="_top" xlink:title="Mask write register request.">
<polygon fill="none" stroke="black" points="171,-76.5 171,-95.5 290,-95.5 290,-76.5 171,-76.5"/>
<text text-anchor="middle" x="230.5" y="-83.5" font-family="Helvetica,sans-Serif" font-size="10.00">modbusBuildRequest22</text>
</a>
</g>
</g>
<!-- Node1&#45;&gt;Node12 -->
<g id="edge11" class="edge">
<title>Node1&#45;&gt;Node12</title>
<path fill="none" stroke="midnightblue" d="M360.33,-112.39C333.94,-106.99 302.95,-100.64 277.97,-95.52"/>
<polygon fill="midnightblue" stroke="midnightblue" points="359.69,-115.83 370.19,-114.41 361.1,-108.98 359.69,-115.83"/>
</g>
<!-- Node13 -->
<g id="node13" class="node">
<title>Node13</title>
<g id="a_node13"><a xlink:href="master_8h.html#a5fe38fae0f89de04fa616d105f660d25" target="_top" xlink:title="Deinitializes a ModbusMaster struct.">
<polygon fill="none" stroke="black" points="173.5,-38.5 173.5,-57.5 287.5,-57.5 287.5,-38.5 173.5,-38.5"/>
<text text-anchor="middle" x="230.5" y="-45.5" font-family="Helvetica,sans-Serif" font-size="10.00">modbusMasterDestroy</text>
</a>
</g>
</g>
<!-- Node1&#45;&gt;Node13 -->
<g id="edge12" class="edge">
<title>Node1&#45;&gt;Node13</title>
<path fill="none" stroke="midnightblue" d="M392.28,-109.26C370.26,-96.63 336.84,-78.68 306,-67 296.39,-63.36 285.82,-60.19 275.74,-57.54"/>
<polygon fill="midnightblue" stroke="midnightblue" points="390.57,-112.31 400.98,-114.31 394.09,-106.26 390.57,-112.31"/>
</g>
<!-- Node14 -->
<g id="node14" class="node">
<title>Node14</title>
<g id="a_node14"><a xlink:href="master_8h.html#aee980bf753f0cadb1fac4f590e739fa6" target="_top" xlink:title="Frees memory allocated for master&#39;s request frame.">
<polygon fill="none" stroke="black" points="162,-0.5 162,-19.5 299,-19.5 299,-0.5 162,-0.5"/>
<text text-anchor="middle" x="230.5" y="-7.5" font-family="Helvetica,sans-Serif" font-size="10.00">modbusMasterFreeRequest</text>
</a>
</g>
</g>
<!-- Node1&#45;&gt;Node14 -->
<g id="edge13" class="edge">
<title>Node1&#45;&gt;Node14</title>
<path fill="none" stroke="midnightblue" d="M401.81,-106.86C381.91,-85.46 344.93,-49.21 306,-29 298.54,-25.13 290.23,-22.01 281.96,-19.51"/>
<polygon fill="midnightblue" stroke="midnightblue" points="399.25,-109.24 408.57,-114.27 404.42,-104.52 399.25,-109.24"/>
</g>
<!-- Node3 -->
<g id="node3" class="node">
<title>Node3</title>
<g id="a_node3"><a xlink:href="master__func_8h.html#a899edde7b2c063fff4fc952f009eff6f" target="_top" xlink:title="Read multiple coils &#45; a wrapper for modbusBuildRequest01020304()">
<polygon fill="none" stroke="black" points="0,-342.5 0,-361.5 119,-361.5 119,-342.5 0,-342.5"/>
<text text-anchor="middle" x="59.5" y="-349.5" font-family="Helvetica,sans-Serif" font-size="10.00">modbusBuildRequest01</text>
</a>
</g>
</g>
<!-- Node2&#45;&gt;Node3 -->
<g id="edge2" class="edge">
<title>Node2&#45;&gt;Node3</title>
<path fill="none" stroke="midnightblue" d="M204.33,-290.48C182.29,-302.79 149.16,-320.42 119,-333 110.72,-336.45 101.58,-339.69 93.03,-342.47"/>
<polygon fill="midnightblue" stroke="midnightblue" points="206.06,-293.52 213.05,-285.56 202.62,-287.42 206.06,-293.52"/>
</g>
<!-- Node4 -->
<g id="node4" class="node">
<title>Node4</title>
<g id="a_node4"><a xlink:href="master__func_8h.html#a7d26baeb0dae90a0a1c9e48732baa431" target="_top" xlink:title="Read multiple discrete inputs &#45; a wrapper for modbusBuildRequest01020304()">
<polygon fill="none" stroke="black" points="0,-304.5 0,-323.5 119,-323.5 119,-304.5 0,-304.5"/>
<text text-anchor="middle" x="59.5" y="-311.5" font-family="Helvetica,sans-Serif" font-size="10.00">modbusBuildRequest02</text>
</a>
</g>
</g>
<!-- Node2&#45;&gt;Node4 -->
<g id="edge3" class="edge">
<title>Node2&#45;&gt;Node4</title>
<path fill="none" stroke="midnightblue" d="M176.91,-287.82C153.09,-293.18 125.29,-299.43 102.84,-304.48"/>
<polygon fill="midnightblue" stroke="midnightblue" points="177.87,-291.2 186.85,-285.59 176.33,-284.37 177.87,-291.2"/>
</g>
<!-- Node5 -->
<g id="node5" class="node">
<title>Node5</title>
<g id="a_node5"><a xlink:href="master__func_8h.html#a48714bd3a58663857b26202575e33031" target="_top" xlink:title="Read multiple holding registers &#45; a wrapper for modbusBuildRequest01020304()">
<polygon fill="none" stroke="black" points="0,-266.5 0,-285.5 119,-285.5 119,-266.5 0,-266.5"/>
<text text-anchor="middle" x="59.5" y="-273.5" font-family="Helvetica,sans-Serif" font-size="10.00">modbusBuildRequest03</text>
</a>
</g>
</g>
<!-- Node2&#45;&gt;Node5 -->
<g id="edge4" class="edge">
<title>Node2&#45;&gt;Node5</title>
<path fill="none" stroke="midnightblue" d="M144.77,-276C136.14,-276 127.51,-276 119.24,-276"/>
<polygon fill="midnightblue" stroke="midnightblue" points="144.88,-279.5 154.88,-276 144.88,-272.5 144.88,-279.5"/>
</g>
<!-- Node6 -->
<g id="node6" class="node">
<title>Node6</title>
<g id="a_node6"><a xlink:href="master__func_8h.html#ae3c3a0a196c531187f89368f9f9773fe" target="_top" xlink:title="Read multiple input registers &#45; a wrapper for modbusBuildRequest01020304()">
<polygon fill="none" stroke="black" points="0,-228.5 0,-247.5 119,-247.5 119,-228.5 0,-228.5"/>
<text text-anchor="middle" x="59.5" y="-235.5" font-family="Helvetica,sans-Serif" font-size="10.00">modbusBuildRequest04</text>
</a>
</g>
</g>
<!-- Node2&#45;&gt;Node6 -->
<g id="edge5" class="edge">
<title>Node2&#45;&gt;Node6</title>
<path fill="none" stroke="midnightblue" d="M176.91,-264.18C153.09,-258.82 125.29,-252.57 102.84,-247.52"/>
<polygon fill="midnightblue" stroke="midnightblue" points="176.33,-267.63 186.85,-266.41 177.87,-260.8 176.33,-267.63"/>
</g>
<!-- Node8 -->
<g id="node8" class="node">
<title>Node8</title>
<g id="a_node8"><a xlink:href="master__func_8h.html#ac76dcec4fbebbc94983dec6adac2d7e2" target="_top" xlink:title="Write single coil &#45; a wrapper for modbusBuildRequest0506()">
<polygon fill="none" stroke="black" points="0,-190.5 0,-209.5 119,-209.5 119,-190.5 0,-190.5"/>
<text text-anchor="middle" x="59.5" y="-197.5" font-family="Helvetica,sans-Serif" font-size="10.00">modbusBuildRequest05</text>
</a>
</g>
</g>
<!-- Node7&#45;&gt;Node8 -->
<g id="edge7" class="edge">
<title>Node7&#45;&gt;Node8</title>
<path fill="none" stroke="midnightblue" d="M155.1,-200C143.06,-200 130.74,-200 119.15,-200"/>
<polygon fill="midnightblue" stroke="midnightblue" points="155.13,-203.5 165.13,-200 155.13,-196.5 155.13,-203.5"/>
</g>
<!-- Node9 -->
<g id="node9" class="node">
<title>Node9</title>
<g id="a_node9"><a xlink:href="master__func_8h.html#acb8640cff5648bad748c4d248b9be75e" target="_top" xlink:title="Write single holding register &#45; a wrapper for modbusBuildRequest0506()">
<polygon fill="none" stroke="black" points="0,-152.5 0,-171.5 119,-171.5 119,-152.5 0,-152.5"/>
<text text-anchor="middle" x="59.5" y="-159.5" font-family="Helvetica,sans-Serif" font-size="10.00">modbusBuildRequest06</text>
</a>
</g>
</g>
<!-- Node7&#45;&gt;Node9 -->
<g id="edge8" class="edge">
<title>Node7&#45;&gt;Node9</title>
<path fill="none" stroke="midnightblue" d="M176.91,-188.18C153.09,-182.82 125.29,-176.57 102.84,-171.52"/>
<polygon fill="midnightblue" stroke="midnightblue" points="176.33,-191.63 186.85,-190.41 177.87,-184.8 176.33,-191.63"/>
</g>
</g>
</svg>
