<?xml version="1.0" encoding="UTF-8" standalone="no"?>
<!DOCTYPE svg PUBLIC "-//W3C//DTD SVG 1.1//EN"
 "http://www.w3.org/Graphics/SVG/1.1/DTD/svg11.dtd">
<!-- Generated by graphviz version 2.44.0 ()
 -->
<!-- Title: include/lightmodbus/master.h Pages: 1 -->
<svg width="289pt" height="307pt"
 viewBox="0.00 0.00 288.53 307.00" xmlns="http://www.w3.org/2000/svg" xmlns:xlink="http://www.w3.org/1999/xlink">
<g id="graph0" class="graph" transform="scale(1 1) rotate(0) translate(4 303)">
<title>include/lightmodbus/master.h</title>
<!-- Node1 -->
<g id="node1" class="node">
<title>Node1</title>
<g id="a_node1"><a xlink:title=" ">
<polygon fill="#bfbfbf" stroke="black" points="57.53,-268.5 57.53,-298.5 160.53,-298.5 160.53,-268.5 57.53,-268.5"/>
<text text-anchor="start" x="65.53" y="-286.5" font-family="Helvetica,sans-Serif" font-size="10.00">include/lightmodbus</text>
<text text-anchor="middle" x="109.03" y="-275.5" font-family="Helvetica,sans-Serif" font-size="10.00">/master.h</text>
</a>
</g>
</g>
<!-- Node2 -->
<g id="node2" class="node">
<title>Node2</title>
<g id="a_node2"><a xlink:href="lightmodbus_8h.html" target="_top" xlink:title=" ">
<polygon fill="none" stroke="black" points="57.53,-67.5 57.53,-97.5 160.53,-97.5 160.53,-67.5 57.53,-67.5"/>
<text text-anchor="start" x="65.53" y="-85.5" font-family="Helvetica,sans-Serif" font-size="10.00">include/lightmodbus</text>
<text text-anchor="middle" x="109.03" y="-74.5" font-family="Helvetica,sans-Serif" font-size="10.00">/lightmodbus.h</text>
</a>
</g>
</g>
<!-- Node1&#45;&gt;Node2 -->
<g id="edge1" class="edge">
<title>Node1&#45;&gt;Node2</title>
<path fill="none" stroke="midnightblue" d="M78.2,-262.49C38.79,-234.3 -21.08,-181.1 8.03,-134 19.06,-116.16 38.51,-104.41 57.42,-96.77"/>
<polygon fill="midnightblue" stroke="midnightblue" points="76.54,-265.59 86.75,-268.44 80.54,-259.85 76.54,-265.59"/>
</g>
<!-- Node4 -->
<g id="node4" class="node">
<title>Node4</title>
<g id="a_node4"><a xlink:href="master_8impl_8h.html" target="_top" xlink:title=" ">
<polygon fill="none" stroke="black" points="17.53,-134.5 17.53,-164.5 120.53,-164.5 120.53,-134.5 17.53,-134.5"/>
<text text-anchor="start" x="25.53" y="-152.5" font-family="Helvetica,sans-Serif" font-size="10.00">include/lightmodbus</text>
<text text-anchor="middle" x="69.03" y="-141.5" font-family="Helvetica,sans-Serif" font-size="10.00">/master.impl.h</text>
</a>
</g>
</g>
<!-- Node1&#45;&gt;Node4 -->
<g id="edge3" class="edge">
<title>Node1&#45;&gt;Node4</title>
<path fill="none" stroke="midnightblue" d="M98.8,-258.62C95.44,-250.29 91.84,-240.81 89.03,-232 81.59,-208.68 75.3,-180.87 71.86,-164.5"/>
<polygon fill="midnightblue" stroke="midnightblue" points="95.66,-260.2 102.72,-268.1 102.13,-257.53 95.66,-260.2"/>
</g>
<!-- Node5 -->
<g id="node5" class="node">
<title>Node5</title>
<g id="a_node5"><a xlink:href="master__func_8h.html" target="_top" xlink:title=" ">
<polygon fill="none" stroke="black" points="97.53,-201.5 97.53,-231.5 200.53,-231.5 200.53,-201.5 97.53,-201.5"/>
<text text-anchor="start" x="105.53" y="-219.5" font-family="Helvetica,sans-Serif" font-size="10.00">include/lightmodbus</text>
<text text-anchor="middle" x="149.03" y="-208.5" font-family="Helvetica,sans-Serif" font-size="10.00">/master_func.h</text>
</a>
</g>
</g>
<!-- Node1&#45;&gt;Node5 -->
<g id="edge5" class="edge">
<title>Node1&#45;&gt;Node5</title>
<path fill="none" stroke="midnightblue" d="M122.96,-259.87C128.75,-250.46 135.29,-239.83 140.37,-231.58"/>
<polygon fill="midnightblue" stroke="midnightblue" points="119.97,-258.05 117.71,-268.4 125.93,-261.71 119.97,-258.05"/>
</g>
<!-- Node6 -->
<g id="node6" class="node">
<title>Node6</title>
<g id="a_node6"><a xlink:href="master__func_8impl_8h.html" target="_top" xlink:title=" ">
<polygon fill="none" stroke="black" points="177.53,-134.5 177.53,-164.5 280.53,-164.5 280.53,-134.5 177.53,-134.5"/>
<text text-anchor="start" x="185.53" y="-152.5" font-family="Helvetica,sans-Serif" font-size="10.00">include/lightmodbus</text>
<text text-anchor="middle" x="229.03" y="-141.5" font-family="Helvetica,sans-Serif" font-size="10.00">/master_func.impl.h</text>
</a>
</g>
</g>
<!-- Node1&#45;&gt;Node6 -->
<g id="edge10" class="edge">
<title>Node1&#45;&gt;Node6</title>
<path fill="none" stroke="midnightblue" d="M166.54,-264.3C182.69,-256.65 198.86,-246.15 210.03,-232 225.51,-212.38 228.77,-182.34 229.24,-164.73"/>
<polygon fill="midnightblue" stroke="midnightblue" points="164.81,-261.24 157.08,-268.48 167.64,-267.64 164.81,-261.24"/>
</g>
<!-- Node3 -->
<g id="node3" class="node">
<title>Node3</title>
<g id="a_node3"><a xlink:href="lightmodbus_8hpp.html" target="_top" xlink:title=" ">
<polygon fill="none" stroke="black" points="57.53,-0.5 57.53,-30.5 160.53,-30.5 160.53,-0.5 57.53,-0.5"/>
<text text-anchor="start" x="65.53" y="-18.5" font-family="Helvetica,sans-Serif" font-size="10.00">include/lightmodbus</text>
<text text-anchor="middle" x="109.03" y="-7.5" font-family="Helvetica,sans-Serif" font-size="10.00">/lightmodbus.hpp</text>
</a>
</g>
</g>
<!-- Node2&#45;&gt;Node3 -->
<g id="edge2" class="edge">
<title>Node2&#45;&gt;Node3</title>
<path fill="none" stroke="midnightblue" d="M109.03,-57.11C109.03,-48.15 109.03,-38.32 109.03,-30.58"/>
<polygon fill="midnightblue" stroke="midnightblue" points="105.53,-57.4 109.03,-67.4 112.53,-57.4 105.53,-57.4"/>
</g>
<!-- Node4&#45;&gt;Node2 -->
<g id="edge4" class="edge">
<title>Node4&#45;&gt;Node2</title>
<path fill="none" stroke="midnightblue" d="M82.96,-125.87C88.75,-116.46 95.29,-105.83 100.37,-97.58"/>
<polygon fill="midnightblue" stroke="midnightblue" points="79.97,-124.05 77.71,-134.4 85.93,-127.71 79.97,-124.05"/>
</g>
<!-- Node5&#45;&gt;Node2 -->
<g id="edge6" class="edge">
<title>Node5&#45;&gt;Node2</title>
<path fill="none" stroke="midnightblue" d="M144.54,-191.61C141.2,-175.22 136.17,-153.06 130.03,-134 126.01,-121.53 120.22,-107.83 115.74,-97.85"/>
<polygon fill="midnightblue" stroke="midnightblue" points="141.12,-192.33 146.49,-201.47 147.99,-190.98 141.12,-192.33"/>
</g>
<!-- Node5&#45;&gt;Node4 -->
<g id="edge7" class="edge">
<title>Node5&#45;&gt;Node4</title>
<path fill="none" stroke="midnightblue" d="M123.66,-194.88C111.5,-185.01 97.25,-173.43 86.35,-164.58"/>
<polygon fill="midnightblue" stroke="midnightblue" points="121.7,-197.81 131.67,-201.4 126.12,-192.37 121.7,-197.81"/>
</g>
<!-- Node5&#45;&gt;Node6 -->
<g id="edge8" class="edge">
<title>Node5&#45;&gt;Node6</title>
<path fill="none" stroke="midnightblue" d="M174.4,-194.88C186.56,-185.01 200.81,-173.43 211.71,-164.58"/>
<polygon fill="midnightblue" stroke="midnightblue" points="171.94,-192.37 166.39,-201.4 176.36,-197.81 171.94,-192.37"/>
</g>
<!-- Node6&#45;&gt;Node2 -->
<g id="edge9" class="edge">
<title>Node6&#45;&gt;Node2</title>
<path fill="none" stroke="midnightblue" d="M194.09,-129.57C175.21,-119.35 152.3,-106.94 135.02,-97.58"/>
<polygon fill="midnightblue" stroke="midnightblue" points="192.53,-132.71 202.99,-134.4 195.87,-126.56 192.53,-132.71"/>
</g>
</g>
</svg>
