<?xml version="1.0" encoding="UTF-8" standalone="no"?>
<!DOCTYPE svg PUBLIC "-//W3C//DTD SVG 1.1//EN"
 "http://www.w3.org/Graphics/SVG/1.1/DTD/svg11.dtd">
<!-- Generated by graphviz version 2.44.0 ()
 -->
<!-- Title: modbusParseResponseTCP Pages: 1 -->
<svg width="325pt" height="66pt"
 viewBox="0.00 0.00 325.00 66.00" xmlns="http://www.w3.org/2000/svg" xmlns:xlink="http://www.w3.org/1999/xlink">
<g id="graph0" class="graph" transform="scale(1 1) rotate(0) translate(4 62)">
<title>modbusParseResponseTCP</title>
<!-- Node1 -->
<g id="node1" class="node">
<title>Node1</title>
<g id="a_node1"><a xlink:title="Parses a Modbus TCP slave response.">
<polygon fill="#bfbfbf" stroke="black" points="0,-19.5 0,-38.5 140,-38.5 140,-19.5 0,-19.5"/>
<text text-anchor="middle" x="70" y="-26.5" font-family="Helvetica,sans-Serif" font-size="10.00">modbusParseResponseTCP</text>
</a>
</g>
</g>
<!-- Node2 -->
<g id="node2" class="node">
<title>Node2</title>
<g id="a_node2"><a xlink:href="master_8impl_8h.html#ad8e87b7bdda035ea42cacc2241b406e3" target="_top" xlink:title="Parses a PDU section of a slave response.">
<polygon fill="none" stroke="black" points="176,-38.5 176,-57.5 317,-57.5 317,-38.5 176,-38.5"/>
<text text-anchor="middle" x="246.5" y="-45.5" font-family="Helvetica,sans-Serif" font-size="10.00">modbusParseResponsePDU</text>
</a>
</g>
</g>
<!-- Node1&#45;&gt;Node2 -->
<g id="edge1" class="edge">
<title>Node1&#45;&gt;Node2</title>
<path fill="none" stroke="midnightblue" d="M140.22,-36.54C148.63,-37.45 157.28,-38.39 165.82,-39.32"/>
<polygon fill="midnightblue" stroke="midnightblue" points="165.47,-42.81 175.79,-40.41 166.23,-35.85 165.47,-42.81"/>
</g>
<!-- Node3 -->
<g id="node3" class="node">
<title>Node3</title>
<g id="a_node3"><a xlink:href="base_8h.html#ace96da9afdf1e1796a6e2d7ac1f6c81a" target="_top" xlink:title="Safely reads a big&#45;endian 16&#45;bit word from provided pointer.">
<polygon fill="none" stroke="black" points="211,-0.5 211,-19.5 282,-19.5 282,-0.5 211,-0.5"/>
<text text-anchor="middle" x="246.5" y="-7.5" font-family="Helvetica,sans-Serif" font-size="10.00">modbusRBE</text>
</a>
</g>
</g>
<!-- Node1&#45;&gt;Node3 -->
<g id="edge2" class="edge">
<title>Node1&#45;&gt;Node3</title>
<path fill="none" stroke="midnightblue" d="M140.22,-21.46C160.52,-19.25 182.18,-16.89 200.54,-14.9"/>
<polygon fill="midnightblue" stroke="midnightblue" points="201.09,-18.36 210.65,-13.79 200.33,-11.4 201.09,-18.36"/>
</g>
</g>
</svg>
