<?xml version="1.0" encoding="UTF-8" standalone="no"?>
<!DOCTYPE svg PUBLIC "-//W3C//DTD SVG 1.1//EN"
 "http://www.w3.org/Graphics/SVG/1.1/DTD/svg11.dtd">
<!-- Generated by graphviz version 2.44.0 ()
 -->
<!-- Title: modbusBuildRequest06 Pages: 1 -->
<svg width="666pt" height="85pt"
 viewBox="0.00 0.00 666.00 85.00" xmlns="http://www.w3.org/2000/svg" xmlns:xlink="http://www.w3.org/1999/xlink">
<g id="graph0" class="graph" transform="scale(1 1) rotate(0) translate(4 81)">
<title>modbusBuildRequest06</title>
<!-- Node1 -->
<g id="node1" class="node">
<title>Node1</title>
<g id="a_node1"><a xlink:title="Write single holding register &#45; a wrapper for modbusBuildRequest0506()">
<polygon fill="#bfbfbf" stroke="black" points="0,-19.5 0,-38.5 119,-38.5 119,-19.5 0,-19.5"/>
<text text-anchor="middle" x="59.5" y="-26.5" font-family="Helvetica,sans-Serif" font-size="10.00">modbusBuildRequest06</text>
</a>
</g>
</g>
<!-- Node2 -->
<g id="node2" class="node">
<title>Node2</title>
<g id="a_node2"><a xlink:href="master__func_8h.html#a5309a3003ea2d248e51193e75ab30044" target="_top" xlink:title="Write single coil/holding register.">
<polygon fill="none" stroke="black" points="155,-19.5 155,-38.5 285,-38.5 285,-19.5 155,-19.5"/>
<text text-anchor="middle" x="220" y="-26.5" font-family="Helvetica,sans-Serif" font-size="10.00">modbusBuildRequest0506</text>
</a>
</g>
</g>
<!-- Node1&#45;&gt;Node2 -->
<g id="edge1" class="edge">
<title>Node1&#45;&gt;Node2</title>
<path fill="none" stroke="midnightblue" d="M119.07,-29C127.44,-29 136.13,-29 144.75,-29"/>
<polygon fill="midnightblue" stroke="midnightblue" points="144.81,-32.5 154.81,-29 144.81,-25.5 144.81,-32.5"/>
</g>
<!-- Node3 -->
<g id="node3" class="node">
<title>Node3</title>
<g id="a_node3"><a xlink:href="master_8h.html#a004b932b2b69ad0c6649c26d974146b2" target="_top" xlink:title="Allocates memory for the request frame.">
<polygon fill="none" stroke="black" points="321,-38.5 321,-57.5 473,-57.5 473,-38.5 321,-38.5"/>
<text text-anchor="middle" x="397" y="-45.5" font-family="Helvetica,sans-Serif" font-size="10.00">modbusMasterAllocateRequest</text>
</a>
</g>
</g>
<!-- Node2&#45;&gt;Node3 -->
<g id="edge2" class="edge">
<title>Node2&#45;&gt;Node3</title>
<path fill="none" stroke="midnightblue" d="M285.17,-35.97C293.51,-36.87 302.16,-37.81 310.78,-38.75"/>
<polygon fill="midnightblue" stroke="midnightblue" points="310.55,-42.24 320.87,-39.84 311.3,-35.28 310.55,-42.24"/>
</g>
<!-- Node6 -->
<g id="node6" class="node">
<title>Node6</title>
<g id="a_node6"><a xlink:href="base_8h.html#a73b9f793bbe67a1968cc8c53a22d4c4b" target="_top" xlink:title="Safely writes a big&#45;endian 16&#45;bit word to provided pointer.">
<polygon fill="none" stroke="black" points="360.5,-0.5 360.5,-19.5 433.5,-19.5 433.5,-0.5 360.5,-0.5"/>
<text text-anchor="middle" x="397" y="-7.5" font-family="Helvetica,sans-Serif" font-size="10.00">modbusWBE</text>
</a>
</g>
</g>
<!-- Node2&#45;&gt;Node6 -->
<g id="edge5" class="edge">
<title>Node2&#45;&gt;Node6</title>
<path fill="none" stroke="midnightblue" d="M285.17,-22.03C306.77,-19.69 330.41,-17.12 350.29,-14.96"/>
<polygon fill="midnightblue" stroke="midnightblue" points="350.75,-18.43 360.32,-13.87 350,-11.47 350.75,-18.43"/>
</g>
<!-- Node4 -->
<g id="node4" class="node">
<title>Node4</title>
<g id="a_node4"><a xlink:href="base_8h.html#aab33bc005f4c5759d8ac918e5e8b71b9" target="_top" xlink:title="Allocates memory to hold Modbus ADU.">
<polygon fill="none" stroke="black" points="527.5,-57.5 527.5,-76.5 639.5,-76.5 639.5,-57.5 527.5,-57.5"/>
<text text-anchor="middle" x="583.5" y="-64.5" font-family="Helvetica,sans-Serif" font-size="10.00">modbusBufferAllocate</text>
</a>
</g>
</g>
<!-- Node3&#45;&gt;Node4 -->
<g id="edge3" class="edge">
<title>Node3&#45;&gt;Node4</title>
<path fill="none" stroke="midnightblue" d="M473.04,-55.73C487.65,-57.23 502.86,-58.8 517.13,-60.27"/>
<polygon fill="midnightblue" stroke="midnightblue" points="517.03,-63.78 527.33,-61.32 517.74,-56.81 517.03,-63.78"/>
</g>
<!-- Node5 -->
<g id="node5" class="node">
<title>Node5</title>
<g id="a_node5"><a xlink:href="master_8h.html#a6ecfd0864bb7cd392a04be7d47bcadfa" target="_top" xlink:title="Retreieves the custom context pointer.">
<polygon fill="none" stroke="black" points="509,-19.5 509,-38.5 658,-38.5 658,-19.5 509,-19.5"/>
<text text-anchor="middle" x="583.5" y="-26.5" font-family="Helvetica,sans-Serif" font-size="10.00">modbusMasterGetUserPointer</text>
</a>
</g>
</g>
<!-- Node3&#45;&gt;Node5 -->
<g id="edge4" class="edge">
<title>Node3&#45;&gt;Node5</title>
<path fill="none" stroke="midnightblue" d="M473.04,-40.27C481.5,-39.4 490.17,-38.51 498.73,-37.63"/>
<polygon fill="midnightblue" stroke="midnightblue" points="499.13,-41.1 508.72,-36.6 498.41,-34.14 499.13,-41.1"/>
</g>
</g>
</svg>
