<?xml version="1.0" encoding="UTF-8" standalone="no"?>
<!DOCTYPE svg PUBLIC "-//W3C//DTD SVG 1.1//EN"
 "http://www.w3.org/Graphics/SVG/1.1/DTD/svg11.dtd">
<!-- Generated by graphviz version 2.44.0 ()
 -->
<!-- Title: modbusBuildRequest01020304 Pages: 1 -->
<svg width="347pt" height="104pt"
 viewBox="0.00 0.00 347.00 104.00" xmlns="http://www.w3.org/2000/svg" xmlns:xlink="http://www.w3.org/1999/xlink">
<g id="graph0" class="graph" transform="scale(1 1) rotate(0) translate(4 100)">
<title>modbusBuildRequest01020304</title>
<!-- Node1 -->
<g id="node1" class="node">
<title>Node1</title>
<g id="a_node1"><a xlink:title="Read mutiple coils/discrete inputs/holding registers/input registers.">
<polygon fill="#bfbfbf" stroke="black" points="0,-38.5 0,-57.5 151,-57.5 151,-38.5 0,-38.5"/>
<text text-anchor="middle" x="75.5" y="-45.5" font-family="Helvetica,sans-Serif" font-size="10.00">modbusBuildRequest01020304</text>
</a>
</g>
</g>
<!-- Node2 -->
<g id="node2" class="node">
<title>Node2</title>
<g id="a_node2"><a xlink:href="base_8h.html#a61619958551d902c14ab6e51fb842ea0" target="_top" xlink:title="Checks whether provided address range causes an uint16_t overflow.">
<polygon fill="none" stroke="black" points="200.5,-76.5 200.5,-95.5 325.5,-95.5 325.5,-76.5 200.5,-76.5"/>
<text text-anchor="middle" x="263" y="-83.5" font-family="Helvetica,sans-Serif" font-size="10.00">modbusCheckRangeU16</text>
</a>
</g>
</g>
<!-- Node1&#45;&gt;Node2 -->
<g id="edge1" class="edge">
<title>Node1&#45;&gt;Node2</title>
<path fill="none" stroke="midnightblue" d="M123.31,-57.59C148.34,-62.72 179.34,-69.07 205.68,-74.46"/>
<polygon fill="midnightblue" stroke="midnightblue" points="205.03,-77.9 215.53,-76.48 206.43,-71.04 205.03,-77.9"/>
</g>
<!-- Node3 -->
<g id="node3" class="node">
<title>Node3</title>
<g id="a_node3"><a xlink:href="master_8h.html#a2f754195d448ab90661dd55351064e59" target="_top" xlink:title="Allocates memory for the request frame.">
<polygon fill="none" stroke="black" points="187,-38.5 187,-57.5 339,-57.5 339,-38.5 187,-38.5"/>
<text text-anchor="middle" x="263" y="-45.5" font-family="Helvetica,sans-Serif" font-size="10.00">modbusMasterAllocateRequest</text>
</a>
</g>
</g>
<!-- Node1&#45;&gt;Node3 -->
<g id="edge2" class="edge">
<title>Node1&#45;&gt;Node3</title>
<path fill="none" stroke="midnightblue" d="M151.15,-48C159.61,-48 168.29,-48 176.88,-48"/>
<polygon fill="midnightblue" stroke="midnightblue" points="176.9,-51.5 186.9,-48 176.9,-44.5 176.9,-51.5"/>
</g>
<!-- Node4 -->
<g id="node4" class="node">
<title>Node4</title>
<g id="a_node4"><a xlink:href="base_8h.html#a73b9f793bbe67a1968cc8c53a22d4c4b" target="_top" xlink:title="Safely writes a big&#45;endian 16&#45;bit word to provided pointer.">
<polygon fill="none" stroke="black" points="226.5,-0.5 226.5,-19.5 299.5,-19.5 299.5,-0.5 226.5,-0.5"/>
<text text-anchor="middle" x="263" y="-7.5" font-family="Helvetica,sans-Serif" font-size="10.00">modbusWBE</text>
</a>
</g>
</g>
<!-- Node1&#45;&gt;Node4 -->
<g id="edge3" class="edge">
<title>Node1&#45;&gt;Node4</title>
<path fill="none" stroke="midnightblue" d="M123.31,-38.41C151.8,-32.58 188.02,-25.16 216.3,-19.36"/>
<polygon fill="midnightblue" stroke="midnightblue" points="217.24,-22.74 226.33,-17.31 215.83,-15.89 217.24,-22.74"/>
</g>
</g>
</svg>
