<?xml version="1.0" encoding="UTF-8" standalone="no"?>
<!DOCTYPE svg PUBLIC "-//W3C//DTD SVG 1.1//EN"
 "http://www.w3.org/Graphics/SVG/1.1/DTD/svg11.dtd">
<!-- Generated by graphviz version 2.44.0 ()
 -->
<!-- Title: modbusMasterFreeRequest Pages: 1 -->
<svg width="499pt" height="66pt"
 viewBox="0.00 0.00 499.00 66.00" xmlns="http://www.w3.org/2000/svg" xmlns:xlink="http://www.w3.org/1999/xlink">
<g id="graph0" class="graph" transform="scale(1 1) rotate(0) translate(4 62)">
<title>modbusMasterFreeRequest</title>
<!-- Node1 -->
<g id="node1" class="node">
<title>Node1</title>
<g id="a_node1"><a xlink:title="Frees memory allocated for master&#39;s request frame.">
<polygon fill="#bfbfbf" stroke="black" points="0,-19.5 0,-38.5 137,-38.5 137,-19.5 0,-19.5"/>
<text text-anchor="middle" x="68.5" y="-26.5" font-family="Helvetica,sans-Serif" font-size="10.00">modbusMasterFreeRequest</text>
</a>
</g>
</g>
<!-- Node2 -->
<g id="node2" class="node">
<title>Node2</title>
<g id="a_node2"><a xlink:href="base_8h.html#a00605b5ebcf90f8035bfaa7a7c039776" target="_top" xlink:title="Frees memory allocated inside the buffer.">
<polygon fill="none" stroke="black" points="199.5,-38.5 199.5,-57.5 295.5,-57.5 295.5,-38.5 199.5,-38.5"/>
<text text-anchor="middle" x="247.5" y="-45.5" font-family="Helvetica,sans-Serif" font-size="10.00">modbusBufferFree</text>
</a>
</g>
</g>
<!-- Node1&#45;&gt;Node2 -->
<g id="edge1" class="edge">
<title>Node1&#45;&gt;Node2</title>
<path fill="none" stroke="midnightblue" d="M137.17,-36.26C154.39,-38.11 172.72,-40.08 189.35,-41.87"/>
<polygon fill="midnightblue" stroke="midnightblue" points="189.15,-45.36 199.46,-42.95 189.89,-38.4 189.15,-45.36"/>
</g>
<!-- Node4 -->
<g id="node4" class="node">
<title>Node4</title>
<g id="a_node4"><a xlink:href="master_8h.html#a6ecfd0864bb7cd392a04be7d47bcadfa" target="_top" xlink:title="Retreieves the custom context pointer.">
<polygon fill="none" stroke="black" points="173,-0.5 173,-19.5 322,-19.5 322,-0.5 173,-0.5"/>
<text text-anchor="middle" x="247.5" y="-7.5" font-family="Helvetica,sans-Serif" font-size="10.00">modbusMasterGetUserPointer</text>
</a>
</g>
</g>
<!-- Node1&#45;&gt;Node4 -->
<g id="edge3" class="edge">
<title>Node1&#45;&gt;Node4</title>
<path fill="none" stroke="midnightblue" d="M137.17,-21.74C145.59,-20.83 154.28,-19.9 162.9,-18.97"/>
<polygon fill="midnightblue" stroke="midnightblue" points="163.4,-22.44 172.97,-17.89 162.65,-15.48 163.4,-22.44"/>
</g>
<!-- Node3 -->
<g id="node3" class="node">
<title>Node3</title>
<g id="a_node3"><a xlink:href="base_8impl_8h.html#a54f7d1db7f58ffd329b1955ad1a66f37" target="_top" xlink:title="Allocates memory to hold Modbus ADU.">
<polygon fill="none" stroke="black" points="358,-38.5 358,-57.5 491,-57.5 491,-38.5 358,-38.5"/>
<text text-anchor="middle" x="424.5" y="-45.5" font-family="Helvetica,sans-Serif" font-size="10.00">modbusBufferAllocateADU</text>
</a>
</g>
</g>
<!-- Node2&#45;&gt;Node3 -->
<g id="edge2" class="edge">
<title>Node2&#45;&gt;Node3</title>
<path fill="none" stroke="midnightblue" d="M295.86,-48C311.77,-48 329.93,-48 347.48,-48"/>
<polygon fill="midnightblue" stroke="midnightblue" points="347.71,-51.5 357.71,-48 347.71,-44.5 347.71,-51.5"/>
</g>
</g>
</svg>
