<?xml version="1.0" encoding="UTF-8" standalone="no"?>
<!DOCTYPE svg PUBLIC "-//W3C//DTD SVG 1.1//EN"
 "http://www.w3.org/Graphics/SVG/1.1/DTD/svg11.dtd">
<!-- Generated by graphviz version 2.44.0 ()
 -->
<!-- Title: modbusBuildRequest0506 Pages: 1 -->
<svg width="326pt" height="66pt"
 viewBox="0.00 0.00 326.00 66.00" xmlns="http://www.w3.org/2000/svg" xmlns:xlink="http://www.w3.org/1999/xlink">
<g id="graph0" class="graph" transform="scale(1 1) rotate(0) translate(4 62)">
<title>modbusBuildRequest0506</title>
<!-- Node1 -->
<g id="node1" class="node">
<title>Node1</title>
<g id="a_node1"><a xlink:title="Write single coil/holding register.">
<polygon fill="#bfbfbf" stroke="black" points="0,-19.5 0,-38.5 130,-38.5 130,-19.5 0,-19.5"/>
<text text-anchor="middle" x="65" y="-26.5" font-family="Helvetica,sans-Serif" font-size="10.00">modbusBuildRequest0506</text>
</a>
</g>
</g>
<!-- Node2 -->
<g id="node2" class="node">
<title>Node2</title>
<g id="a_node2"><a xlink:href="master_8h.html#a2f754195d448ab90661dd55351064e59" target="_top" xlink:title="Allocates memory for the request frame.">
<polygon fill="none" stroke="black" points="166,-38.5 166,-57.5 318,-57.5 318,-38.5 166,-38.5"/>
<text text-anchor="middle" x="242" y="-45.5" font-family="Helvetica,sans-Serif" font-size="10.00">modbusMasterAllocateRequest</text>
</a>
</g>
</g>
<!-- Node1&#45;&gt;Node2 -->
<g id="edge1" class="edge">
<title>Node1&#45;&gt;Node2</title>
<path fill="none" stroke="midnightblue" d="M130.17,-35.97C138.51,-36.87 147.16,-37.81 155.78,-38.75"/>
<polygon fill="midnightblue" stroke="midnightblue" points="155.55,-42.24 165.87,-39.84 156.3,-35.28 155.55,-42.24"/>
</g>
<!-- Node3 -->
<g id="node3" class="node">
<title>Node3</title>
<g id="a_node3"><a xlink:href="base_8h.html#a73b9f793bbe67a1968cc8c53a22d4c4b" target="_top" xlink:title="Safely writes a big&#45;endian 16&#45;bit word to provided pointer.">
<polygon fill="none" stroke="black" points="205.5,-0.5 205.5,-19.5 278.5,-19.5 278.5,-0.5 205.5,-0.5"/>
<text text-anchor="middle" x="242" y="-7.5" font-family="Helvetica,sans-Serif" font-size="10.00">modbusWBE</text>
</a>
</g>
</g>
<!-- Node1&#45;&gt;Node3 -->
<g id="edge2" class="edge">
<title>Node1&#45;&gt;Node3</title>
<path fill="none" stroke="midnightblue" d="M130.17,-22.03C151.77,-19.69 175.41,-17.12 195.29,-14.96"/>
<polygon fill="midnightblue" stroke="midnightblue" points="195.75,-18.43 205.32,-13.87 195,-11.47 195.75,-18.43"/>
</g>
</g>
</svg>
