<?xml version="1.0" encoding="UTF-8" standalone="no"?>
<!DOCTYPE svg PUBLIC "-//W3C//DTD SVG 1.1//EN"
 "http://www.w3.org/Graphics/SVG/1.1/DTD/svg11.dtd">
<!-- Generated by graphviz version 2.44.0 ()
 -->
<!-- Title: modbusMasterGetUserPointer Pages: 1 -->
<svg width="687pt" height="370pt"
 viewBox="0.00 0.00 687.00 370.00" xmlns="http://www.w3.org/2000/svg" xmlns:xlink="http://www.w3.org/1999/xlink">
<g id="graph0" class="graph" transform="scale(1 1) rotate(0) translate(4 366)">
<title>modbusMasterGetUserPointer</title>
<!-- Node1 -->
<g id="node1" class="node">
<title>Node1</title>
<g id="a_node1"><a xlink:title="Retreieves the custom context pointer.">
<polygon fill="#bfbfbf" stroke="black" points="530,-94.5 530,-113.5 679,-113.5 679,-94.5 530,-94.5"/>
<text text-anchor="middle" x="604.5" y="-101.5" font-family="Helvetica,sans-Serif" font-size="10.00">modbusMasterGetUserPointer</text>
</a>
</g>
</g>
<!-- Node2 -->
<g id="node2" class="node">
<title>Node2</title>
<g id="a_node2"><a xlink:href="classllm_1_1Master.html#a87b7cabb9a65e6731ce69f38b6005727" target="_top" xlink:title=" ">
<polygon fill="none" stroke="black" points="351,-152.5 351,-171.5 485,-171.5 485,-152.5 351,-152.5"/>
<text text-anchor="middle" x="418" y="-159.5" font-family="Helvetica,sans-Serif" font-size="10.00">llm::Master::getUserPointer</text>
</a>
</g>
</g>
<!-- Node1&#45;&gt;Node2 -->
<g id="edge1" class="edge">
<title>Node1&#45;&gt;Node2</title>
<path fill="none" stroke="midnightblue" d="M568.87,-117.27C547.47,-125.24 519.34,-135.3 494,-143 482.95,-146.36 470.86,-149.61 459.67,-152.44"/>
<polygon fill="midnightblue" stroke="midnightblue" points="570.37,-120.45 578.5,-113.66 567.91,-113.9 570.37,-120.45"/>
</g>
<!-- Node3 -->
<g id="node3" class="node">
<title>Node3</title>
<g id="a_node3"><a xlink:href="master_8h.html#a004b932b2b69ad0c6649c26d974146b2" target="_top" xlink:title="Allocates memory for the request frame.">
<polygon fill="none" stroke="black" points="342,-114.5 342,-133.5 494,-133.5 494,-114.5 342,-114.5"/>
<text text-anchor="middle" x="418" y="-121.5" font-family="Helvetica,sans-Serif" font-size="10.00">modbusMasterAllocateRequest</text>
</a>
</g>
</g>
<!-- Node1&#45;&gt;Node3 -->
<g id="edge2" class="edge">
<title>Node1&#45;&gt;Node3</title>
<path fill="none" stroke="midnightblue" d="M519.8,-113.07C511.23,-114 502.57,-114.94 494.11,-115.86"/>
<polygon fill="midnightblue" stroke="midnightblue" points="520.22,-116.55 529.79,-111.99 519.47,-109.59 520.22,-116.55"/>
</g>
<!-- Node15 -->
<g id="node15" class="node">
<title>Node15</title>
<g id="a_node15"><a xlink:href="master_8h.html#a5fe38fae0f89de04fa616d105f660d25" target="_top" xlink:title="Deinitializes a ModbusMaster struct.">
<polygon fill="none" stroke="black" points="361,-66.5 361,-85.5 475,-85.5 475,-66.5 361,-66.5"/>
<text text-anchor="middle" x="418" y="-73.5" font-family="Helvetica,sans-Serif" font-size="10.00">modbusMasterDestroy</text>
</a>
</g>
</g>
<!-- Node1&#45;&gt;Node15 -->
<g id="edge14" class="edge">
<title>Node1&#45;&gt;Node15</title>
<path fill="none" stroke="midnightblue" d="M530.64,-92.94C512.14,-90.14 492.56,-87.16 475.05,-84.51"/>
<polygon fill="midnightblue" stroke="midnightblue" points="530.37,-96.44 540.78,-94.48 531.42,-89.52 530.37,-96.44"/>
</g>
<!-- Node17 -->
<g id="node17" class="node">
<title>Node17</title>
<g id="a_node17"><a xlink:href="master_8h.html#a040a82085ce05ff95c53d3dca4c3acfd" target="_top" xlink:title="Frees memory allocated for master&#39;s request frame.">
<polygon fill="none" stroke="black" points="349.5,-19.5 349.5,-38.5 486.5,-38.5 486.5,-19.5 349.5,-19.5"/>
<text text-anchor="middle" x="418" y="-26.5" font-family="Helvetica,sans-Serif" font-size="10.00">modbusMasterFreeRequest</text>
</a>
</g>
</g>
<!-- Node1&#45;&gt;Node17 -->
<g id="edge16" class="edge">
<title>Node1&#45;&gt;Node17</title>
<path fill="none" stroke="midnightblue" d="M572.4,-90.18C550.57,-80.59 520.64,-67.68 494,-57 478,-50.59 459.91,-43.82 445.5,-38.54"/>
<polygon fill="midnightblue" stroke="midnightblue" points="571.25,-93.5 581.81,-94.33 574.07,-87.09 571.25,-93.5"/>
</g>
<!-- Node4 -->
<g id="node4" class="node">
<title>Node4</title>
<g id="a_node4"><a xlink:href="master__func_8h.html#ad3a6d4576d762da3eb0bd73aa5bb24fe" target="_top" xlink:title="Read mutiple coils/discrete inputs/holding registers/input registers.">
<polygon fill="none" stroke="black" points="155,-266.5 155,-285.5 306,-285.5 306,-266.5 155,-266.5"/>
<text text-anchor="middle" x="230.5" y="-273.5" font-family="Helvetica,sans-Serif" font-size="10.00">modbusBuildRequest01020304</text>
</a>
</g>
</g>
<!-- Node3&#45;&gt;Node4 -->
<g id="edge3" class="edge">
<title>Node3&#45;&gt;Node4</title>
<path fill="none" stroke="midnightblue" d="M348.48,-138.39C346.21,-139.79 344.04,-141.32 342,-143 313.13,-166.74 329.5,-189.94 306,-219 289.72,-239.13 264.92,-256.25 248.47,-266.32"/>
<polygon fill="midnightblue" stroke="midnightblue" points="350.39,-141.34 357.65,-133.62 347.16,-135.13 350.39,-141.34"/>
</g>
<!-- Node9 -->
<g id="node9" class="node">
<title>Node9</title>
<g id="a_node9"><a xlink:href="master__func_8h.html#a5309a3003ea2d248e51193e75ab30044" target="_top" xlink:title="Write single coil/holding register.">
<polygon fill="none" stroke="black" points="165.5,-190.5 165.5,-209.5 295.5,-209.5 295.5,-190.5 165.5,-190.5"/>
<text text-anchor="middle" x="230.5" y="-197.5" font-family="Helvetica,sans-Serif" font-size="10.00">modbusBuildRequest0506</text>
</a>
</g>
</g>
<!-- Node3&#45;&gt;Node9 -->
<g id="edge8" class="edge">
<title>Node3&#45;&gt;Node9</title>
<path fill="none" stroke="midnightblue" d="M353.76,-137.18C349.68,-138.89 345.72,-140.82 342,-143 321.93,-154.77 326.06,-169.22 306,-181 299.44,-184.85 292.11,-187.93 284.67,-190.39"/>
<polygon fill="midnightblue" stroke="midnightblue" points="355.32,-140.34 363.47,-133.57 352.88,-133.78 355.32,-140.34"/>
</g>
<!-- Node12 -->
<g id="node12" class="node">
<title>Node12</title>
<g id="a_node12"><a xlink:href="master__func_8h.html#ae9842e659ccd8942905e685923de8916" target="_top" xlink:title="Write multiple coils.">
<polygon fill="none" stroke="black" points="171,-152.5 171,-171.5 290,-171.5 290,-152.5 171,-152.5"/>
<text text-anchor="middle" x="230.5" y="-159.5" font-family="Helvetica,sans-Serif" font-size="10.00">modbusBuildRequest15</text>
</a>
</g>
</g>
<!-- Node3&#45;&gt;Node12 -->
<g id="edge11" class="edge">
<title>Node3&#45;&gt;Node12</title>
<path fill="none" stroke="midnightblue" d="M360.33,-135.61C333.94,-141.01 302.95,-147.36 277.97,-152.48"/>
<polygon fill="midnightblue" stroke="midnightblue" points="361.1,-139.02 370.19,-133.59 359.69,-132.17 361.1,-139.02"/>
</g>
<!-- Node13 -->
<g id="node13" class="node">
<title>Node13</title>
<g id="a_node13"><a xlink:href="master__func_8h.html#aca022c438a427d8f4b03db4427c2b344" target="_top" xlink:title="Write multiple holding registers.">
<polygon fill="none" stroke="black" points="171,-114.5 171,-133.5 290,-133.5 290,-114.5 171,-114.5"/>
<text text-anchor="middle" x="230.5" y="-121.5" font-family="Helvetica,sans-Serif" font-size="10.00">modbusBuildRequest16</text>
</a>
</g>
</g>
<!-- Node3&#45;&gt;Node13 -->
<g id="edge12" class="edge">
<title>Node3&#45;&gt;Node13</title>
<path fill="none" stroke="midnightblue" d="M331.68,-124C317.67,-124 303.44,-124 290.27,-124"/>
<polygon fill="midnightblue" stroke="midnightblue" points="331.82,-127.5 341.82,-124 331.82,-120.5 331.82,-127.5"/>
</g>
<!-- Node14 -->
<g id="node14" class="node">
<title>Node14</title>
<g id="a_node14"><a xlink:href="master__func_8h.html#a6f2c5d59dee73c80ad54e53cca38aeec" target="_top" xlink:title="Mask write register request.">
<polygon fill="none" stroke="black" points="171,-76.5 171,-95.5 290,-95.5 290,-76.5 171,-76.5"/>
<text text-anchor="middle" x="230.5" y="-83.5" font-family="Helvetica,sans-Serif" font-size="10.00">modbusBuildRequest22</text>
</a>
</g>
</g>
<!-- Node3&#45;&gt;Node14 -->
<g id="edge13" class="edge">
<title>Node3&#45;&gt;Node14</title>
<path fill="none" stroke="midnightblue" d="M360.33,-112.39C333.94,-106.99 302.95,-100.64 277.97,-95.52"/>
<polygon fill="midnightblue" stroke="midnightblue" points="359.69,-115.83 370.19,-114.41 361.1,-108.98 359.69,-115.83"/>
</g>
<!-- Node5 -->
<g id="node5" class="node">
<title>Node5</title>
<g id="a_node5"><a xlink:href="master__func_8h.html#aadb2b7e2d3ee4fbde22cdf076713d75e" target="_top" xlink:title="Read multiple coils &#45; a wrapper for modbusBuildRequest01020304()">
<polygon fill="none" stroke="black" points="0,-342.5 0,-361.5 119,-361.5 119,-342.5 0,-342.5"/>
<text text-anchor="middle" x="59.5" y="-349.5" font-family="Helvetica,sans-Serif" font-size="10.00">modbusBuildRequest01</text>
</a>
</g>
</g>
<!-- Node4&#45;&gt;Node5 -->
<g id="edge4" class="edge">
<title>Node4&#45;&gt;Node5</title>
<path fill="none" stroke="midnightblue" d="M204.33,-290.48C182.29,-302.79 149.16,-320.42 119,-333 110.72,-336.45 101.58,-339.69 93.03,-342.47"/>
<polygon fill="midnightblue" stroke="midnightblue" points="206.06,-293.52 213.05,-285.56 202.62,-287.42 206.06,-293.52"/>
</g>
<!-- Node6 -->
<g id="node6" class="node">
<title>Node6</title>
<g id="a_node6"><a xlink:href="master__func_8h.html#a2a6452a8200d77483254bef08ee2cf8c" target="_top" xlink:title="Read multiple discrete inputs &#45; a wrapper for modbusBuildRequest01020304()">
<polygon fill="none" stroke="black" points="0,-304.5 0,-323.5 119,-323.5 119,-304.5 0,-304.5"/>
<text text-anchor="middle" x="59.5" y="-311.5" font-family="Helvetica,sans-Serif" font-size="10.00">modbusBuildRequest02</text>
</a>
</g>
</g>
<!-- Node4&#45;&gt;Node6 -->
<g id="edge5" class="edge">
<title>Node4&#45;&gt;Node6</title>
<path fill="none" stroke="midnightblue" d="M176.91,-287.82C153.09,-293.18 125.29,-299.43 102.84,-304.48"/>
<polygon fill="midnightblue" stroke="midnightblue" points="177.87,-291.2 186.85,-285.59 176.33,-284.37 177.87,-291.2"/>
</g>
<!-- Node7 -->
<g id="node7" class="node">
<title>Node7</title>
<g id="a_node7"><a xlink:href="master__func_8h.html#a1c7ed51c58b1ef42ee176833c7fd0515" target="_top" xlink:title="Read multiple holding registers &#45; a wrapper for modbusBuildRequest01020304()">
<polygon fill="none" stroke="black" points="0,-266.5 0,-285.5 119,-285.5 119,-266.5 0,-266.5"/>
<text text-anchor="middle" x="59.5" y="-273.5" font-family="Helvetica,sans-Serif" font-size="10.00">modbusBuildRequest03</text>
</a>
</g>
</g>
<!-- Node4&#45;&gt;Node7 -->
<g id="edge6" class="edge">
<title>Node4&#45;&gt;Node7</title>
<path fill="none" stroke="midnightblue" d="M144.77,-276C136.14,-276 127.51,-276 119.24,-276"/>
<polygon fill="midnightblue" stroke="midnightblue" points="144.88,-279.5 154.88,-276 144.88,-272.5 144.88,-279.5"/>
</g>
<!-- Node8 -->
<g id="node8" class="node">
<title>Node8</title>
<g id="a_node8"><a xlink:href="master__func_8h.html#a22bf4541196b3e88c0a86861d334e3b1" target="_top" xlink:title="Read multiple input registers &#45; a wrapper for modbusBuildRequest01020304()">
<polygon fill="none" stroke="black" points="0,-228.5 0,-247.5 119,-247.5 119,-228.5 0,-228.5"/>
<text text-anchor="middle" x="59.5" y="-235.5" font-family="Helvetica,sans-Serif" font-size="10.00">modbusBuildRequest04</text>
</a>
</g>
</g>
<!-- Node4&#45;&gt;Node8 -->
<g id="edge7" class="edge">
<title>Node4&#45;&gt;Node8</title>
<path fill="none" stroke="midnightblue" d="M176.91,-264.18C153.09,-258.82 125.29,-252.57 102.84,-247.52"/>
<polygon fill="midnightblue" stroke="midnightblue" points="176.33,-267.63 186.85,-266.41 177.87,-260.8 176.33,-267.63"/>
</g>
<!-- Node10 -->
<g id="node10" class="node">
<title>Node10</title>
<g id="a_node10"><a xlink:href="master__func_8h.html#a7151355c8c34af355fd779f88a64e125" target="_top" xlink:title="Write single coil &#45; a wrapper for modbusBuildRequest0506()">
<polygon fill="none" stroke="black" points="0,-190.5 0,-209.5 119,-209.5 119,-190.5 0,-190.5"/>
<text text-anchor="middle" x="59.5" y="-197.5" font-family="Helvetica,sans-Serif" font-size="10.00">modbusBuildRequest05</text>
</a>
</g>
</g>
<!-- Node9&#45;&gt;Node10 -->
<g id="edge9" class="edge">
<title>Node9&#45;&gt;Node10</title>
<path fill="none" stroke="midnightblue" d="M155.1,-200C143.06,-200 130.74,-200 119.15,-200"/>
<polygon fill="midnightblue" stroke="midnightblue" points="155.13,-203.5 165.13,-200 155.13,-196.5 155.13,-203.5"/>
</g>
<!-- Node11 -->
<g id="node11" class="node">
<title>Node11</title>
<g id="a_node11"><a xlink:href="master__func_8h.html#a56779853bdfd2bb75601be746c20eb09" target="_top" xlink:title="Write single holding register &#45; a wrapper for modbusBuildRequest0506()">
<polygon fill="none" stroke="black" points="0,-152.5 0,-171.5 119,-171.5 119,-152.5 0,-152.5"/>
<text text-anchor="middle" x="59.5" y="-159.5" font-family="Helvetica,sans-Serif" font-size="10.00">modbusBuildRequest06</text>
</a>
</g>
</g>
<!-- Node9&#45;&gt;Node11 -->
<g id="edge10" class="edge">
<title>Node9&#45;&gt;Node11</title>
<path fill="none" stroke="midnightblue" d="M176.91,-188.18C153.09,-182.82 125.29,-176.57 102.84,-171.52"/>
<polygon fill="midnightblue" stroke="midnightblue" points="176.33,-191.63 186.85,-190.41 177.87,-184.8 176.33,-191.63"/>
</g>
<!-- Node16 -->
<g id="node16" class="node">
<title>Node16</title>
<g id="a_node16"><a xlink:href="classllm_1_1Master.html#adae54d760d1eb2f0babcaff59325376d" target="_top" xlink:title=" ">
<polygon fill="none" stroke="black" points="178.5,-38.5 178.5,-57.5 282.5,-57.5 282.5,-38.5 178.5,-38.5"/>
<text text-anchor="middle" x="230.5" y="-45.5" font-family="Helvetica,sans-Serif" font-size="10.00">llm::Master::~Master</text>
</a>
</g>
</g>
<!-- Node15&#45;&gt;Node16 -->
<g id="edge15" class="edge">
<title>Node15&#45;&gt;Node16</title>
<path fill="none" stroke="midnightblue" d="M350.74,-66C328.37,-62.62 303.76,-58.91 282.73,-55.73"/>
<polygon fill="midnightblue" stroke="midnightblue" points="350.43,-69.49 360.84,-67.52 351.47,-62.57 350.43,-69.49"/>
</g>
<!-- Node18 -->
<g id="node18" class="node">
<title>Node18</title>
<g id="a_node18"><a xlink:href="classllm_1_1Master.html#a6c3883d0f98a5b4255a02f46f33c2423" target="_top" xlink:title=" ">
<polygon fill="none" stroke="black" points="170,-0.5 170,-19.5 291,-19.5 291,-0.5 170,-0.5"/>
<text text-anchor="middle" x="230.5" y="-7.5" font-family="Helvetica,sans-Serif" font-size="10.00">llm::Master::freeRequest</text>
</a>
</g>
</g>
<!-- Node17&#45;&gt;Node18 -->
<g id="edge17" class="edge">
<title>Node17&#45;&gt;Node18</title>
<path fill="none" stroke="midnightblue" d="M338.85,-21C322.88,-19.36 306.31,-17.66 291.11,-16.11"/>
<polygon fill="midnightblue" stroke="midnightblue" points="338.94,-24.52 349.24,-22.06 339.65,-17.56 338.94,-24.52"/>
</g>
</g>
</svg>
