<?xml version="1.0" encoding="UTF-8" standalone="no"?>
<!DOCTYPE svg PUBLIC "-//W3C//DTD SVG 1.1//EN"
 "http://www.w3.org/Graphics/SVG/1.1/DTD/svg11.dtd">
<!-- Generated by graphviz version 2.44.0 ()
 -->
<!-- Title: include/lightmodbus/slave.h Pages: 1 -->
<svg width="378pt" height="240pt"
 viewBox="0.00 0.00 378.00 240.00" xmlns="http://www.w3.org/2000/svg" xmlns:xlink="http://www.w3.org/1999/xlink">
<g id="graph0" class="graph" transform="scale(1 1) rotate(0) translate(4 236)">
<title>include/lightmodbus/slave.h</title>
<!-- Node1 -->
<g id="node1" class="node">
<title>Node1</title>
<g id="a_node1"><a xlink:title=" ">
<polygon fill="#bfbfbf" stroke="black" points="158,-201.5 158,-231.5 261,-231.5 261,-201.5 158,-201.5"/>
<text text-anchor="start" x="166" y="-219.5" font-family="Helvetica,sans-Serif" font-size="10.00">include/lightmodbus</text>
<text text-anchor="middle" x="209.5" y="-208.5" font-family="Helvetica,sans-Serif" font-size="10.00">/slave.h</text>
</a>
</g>
</g>
<!-- Node2 -->
<g id="node2" class="node">
<title>Node2</title>
<g id="a_node2"><a xlink:href="debug_8h.html" target="_top" xlink:title=" ">
<polygon fill="none" stroke="black" points="38,-134.5 38,-164.5 141,-164.5 141,-134.5 38,-134.5"/>
<text text-anchor="start" x="46" y="-152.5" font-family="Helvetica,sans-Serif" font-size="10.00">include/lightmodbus</text>
<text text-anchor="middle" x="89.5" y="-141.5" font-family="Helvetica,sans-Serif" font-size="10.00">/debug.h</text>
</a>
</g>
</g>
<!-- Node1&#45;&gt;Node2 -->
<g id="edge1" class="edge">
<title>Node1&#45;&gt;Node2</title>
<path fill="none" stroke="midnightblue" d="M174.56,-196.57C155.68,-186.35 132.77,-173.94 115.49,-164.58"/>
<polygon fill="midnightblue" stroke="midnightblue" points="173,-199.71 183.46,-201.4 176.34,-193.56 173,-199.71"/>
</g>
<!-- Node4 -->
<g id="node4" class="node">
<title>Node4</title>
<g id="a_node4"><a xlink:href="lightmodbus_8h.html" target="_top" xlink:title=" ">
<polygon fill="none" stroke="black" points="118,-0.5 118,-30.5 221,-30.5 221,-0.5 118,-0.5"/>
<text text-anchor="start" x="126" y="-18.5" font-family="Helvetica,sans-Serif" font-size="10.00">include/lightmodbus</text>
<text text-anchor="middle" x="169.5" y="-7.5" font-family="Helvetica,sans-Serif" font-size="10.00">/lightmodbus.h</text>
</a>
</g>
</g>
<!-- Node1&#45;&gt;Node4 -->
<g id="edge5" class="edge">
<title>Node1&#45;&gt;Node4</title>
<path fill="none" stroke="midnightblue" d="M198.73,-191.78C195.32,-183.46 191.84,-173.95 189.5,-165 176.88,-116.67 171.94,-57.31 170.26,-30.64"/>
<polygon fill="midnightblue" stroke="midnightblue" points="195.62,-193.41 202.77,-201.23 202.05,-190.66 195.62,-193.41"/>
</g>
<!-- Node5 -->
<g id="node5" class="node">
<title>Node5</title>
<g id="a_node5"><a xlink:href="slave_8impl_8h.html" target="_top" xlink:title=" ">
<polygon fill="none" stroke="black" points="198,-134.5 198,-164.5 301,-164.5 301,-134.5 198,-134.5"/>
<text text-anchor="start" x="206" y="-152.5" font-family="Helvetica,sans-Serif" font-size="10.00">include/lightmodbus</text>
<text text-anchor="middle" x="249.5" y="-141.5" font-family="Helvetica,sans-Serif" font-size="10.00">/slave.impl.h</text>
</a>
</g>
</g>
<!-- Node1&#45;&gt;Node5 -->
<g id="edge6" class="edge">
<title>Node1&#45;&gt;Node5</title>
<path fill="none" stroke="midnightblue" d="M223.43,-192.87C229.22,-183.46 235.76,-172.83 240.84,-164.58"/>
<polygon fill="midnightblue" stroke="midnightblue" points="220.44,-191.05 218.18,-201.4 226.4,-194.71 220.44,-191.05"/>
</g>
<!-- Node6 -->
<g id="node6" class="node">
<title>Node6</title>
<g id="a_node6"><a xlink:href="slave__func_8impl_8h.html" target="_top" xlink:title=" ">
<polygon fill="none" stroke="black" points="267,-67.5 267,-97.5 370,-97.5 370,-67.5 267,-67.5"/>
<text text-anchor="start" x="275" y="-85.5" font-family="Helvetica,sans-Serif" font-size="10.00">include/lightmodbus</text>
<text text-anchor="middle" x="318.5" y="-74.5" font-family="Helvetica,sans-Serif" font-size="10.00">/slave_func.impl.h</text>
</a>
</g>
</g>
<!-- Node1&#45;&gt;Node6 -->
<g id="edge8" class="edge">
<title>Node1&#45;&gt;Node6</title>
<path fill="none" stroke="midnightblue" d="M269.95,-197.32C285.53,-189.77 300.66,-179.31 310.5,-165 324.36,-144.85 323.21,-114.99 320.96,-97.56"/>
<polygon fill="midnightblue" stroke="midnightblue" points="268.45,-194.15 260.76,-201.44 271.32,-200.54 268.45,-194.15"/>
</g>
<!-- Node3 -->
<g id="node3" class="node">
<title>Node3</title>
<g id="a_node3"><a xlink:href="debug_8impl_8h.html" target="_top" xlink:title=" ">
<polygon fill="none" stroke="black" points="0,-67.5 0,-97.5 103,-97.5 103,-67.5 0,-67.5"/>
<text text-anchor="start" x="8" y="-85.5" font-family="Helvetica,sans-Serif" font-size="10.00">include/lightmodbus</text>
<text text-anchor="middle" x="51.5" y="-74.5" font-family="Helvetica,sans-Serif" font-size="10.00">/debug.impl.h</text>
</a>
</g>
</g>
<!-- Node2&#45;&gt;Node3 -->
<g id="edge2" class="edge">
<title>Node2&#45;&gt;Node3</title>
<path fill="none" stroke="midnightblue" d="M76.1,-125.58C70.64,-116.24 64.51,-105.75 59.73,-97.58"/>
<polygon fill="midnightblue" stroke="midnightblue" points="73.19,-127.53 81.25,-134.4 79.23,-124 73.19,-127.53"/>
</g>
<!-- Node2&#45;&gt;Node4 -->
<g id="edge4" class="edge">
<title>Node2&#45;&gt;Node4</title>
<path fill="none" stroke="midnightblue" d="M103.45,-125.48C120.06,-98.07 147.27,-53.19 161,-30.52"/>
<polygon fill="midnightblue" stroke="midnightblue" points="100.25,-124.01 98.06,-134.37 106.24,-127.64 100.25,-124.01"/>
</g>
<!-- Node3&#45;&gt;Node4 -->
<g id="edge3" class="edge">
<title>Node3&#45;&gt;Node4</title>
<path fill="none" stroke="midnightblue" d="M86.11,-62.44C104.62,-52.24 127.02,-39.9 143.95,-30.58"/>
<polygon fill="midnightblue" stroke="midnightblue" points="84.17,-59.51 77.1,-67.4 87.55,-65.64 84.17,-59.51"/>
</g>
<!-- Node5&#45;&gt;Node4 -->
<g id="edge7" class="edge">
<title>Node5&#45;&gt;Node4</title>
<path fill="none" stroke="midnightblue" d="M235.55,-125.48C218.94,-98.07 191.73,-53.19 178,-30.52"/>
<polygon fill="midnightblue" stroke="midnightblue" points="232.76,-127.64 240.94,-134.37 238.75,-124.01 232.76,-127.64"/>
</g>
<!-- Node6&#45;&gt;Node4 -->
<g id="edge9" class="edge">
<title>Node6&#45;&gt;Node4</title>
<path fill="none" stroke="midnightblue" d="M276.71,-63.27C252.98,-52.92 223.72,-40.15 201.77,-30.58"/>
<polygon fill="midnightblue" stroke="midnightblue" points="275.6,-66.61 286.17,-67.4 278.4,-60.19 275.6,-66.61"/>
</g>
</g>
</svg>
