<?xml version="1.0" encoding="UTF-8" standalone="no"?>
<!DOCTYPE svg PUBLIC "-//W3C//DTD SVG 1.1//EN"
 "http://www.w3.org/Graphics/SVG/1.1/DTD/svg11.dtd">
<!-- Generated by graphviz version 2.44.0 ()
 -->
<!-- Title: modbusParseRequestTCP Pages: 1 -->
<svg width="634pt" height="180pt"
 viewBox="0.00 0.00 634.00 180.00" xmlns="http://www.w3.org/2000/svg" xmlns:xlink="http://www.w3.org/1999/xlink">
<g id="graph0" class="graph" transform="scale(1 1) rotate(0) translate(4 176)">
<title>modbusParseRequestTCP</title>
<!-- Node1 -->
<g id="node1" class="node">
<title>Node1</title>
<g id="a_node1"><a xlink:title="Parses provided Modbus TCP request frame and generates a Modbus TCP response.">
<polygon fill="#bfbfbf" stroke="black" points="0,-57.5 0,-76.5 132,-76.5 132,-57.5 0,-57.5"/>
<text text-anchor="middle" x="66" y="-64.5" font-family="Helvetica,sans-Serif" font-size="10.00">modbusParseRequestTCP</text>
</a>
</g>
</g>
<!-- Node2 -->
<g id="node2" class="node">
<title>Node2</title>
<g id="a_node2"><a xlink:href="base_8h.html#a64880e7075f445881485396f3aa869c5" target="_top" xlink:title="Checks if ModbusErrorInfo contains an error.">
<polygon fill="none" stroke="black" points="188.5,-114.5 188.5,-133.5 260.5,-133.5 260.5,-114.5 188.5,-114.5"/>
<text text-anchor="middle" x="224.5" y="-121.5" font-family="Helvetica,sans-Serif" font-size="10.00">modbusIsOk</text>
</a>
</g>
</g>
<!-- Node1&#45;&gt;Node2 -->
<g id="edge1" class="edge">
<title>Node1&#45;&gt;Node2</title>
<path fill="none" stroke="midnightblue" d="M91.83,-76.58C112.23,-84.39 141.9,-95.63 168,-105 173.65,-107.03 179.64,-109.13 185.51,-111.16"/>
<polygon fill="midnightblue" stroke="midnightblue" points="184.61,-114.56 195.21,-114.5 186.89,-107.94 184.61,-114.56"/>
</g>
<!-- Node5 -->
<g id="node5" class="node">
<title>Node5</title>
<g id="a_node5"><a xlink:href="slave_8impl_8h.html#a4be93ca41808b56714f199dd21302541" target="_top" xlink:title="Parses provided PDU and generates response honorinng pduOffset and padding set in ModbusSlave during ...">
<polygon fill="none" stroke="black" points="168,-76.5 168,-95.5 281,-95.5 281,-76.5 168,-76.5"/>
<text text-anchor="middle" x="224.5" y="-83.5" font-family="Helvetica,sans-Serif" font-size="10.00">modbusParseRequest</text>
</a>
</g>
</g>
<!-- Node1&#45;&gt;Node5 -->
<g id="edge4" class="edge">
<title>Node1&#45;&gt;Node5</title>
<path fill="none" stroke="midnightblue" d="M132.01,-74.89C140.58,-75.93 149.37,-77 157.95,-78.04"/>
<polygon fill="midnightblue" stroke="midnightblue" points="157.55,-81.52 167.9,-79.25 158.4,-74.57 157.55,-81.52"/>
</g>
<!-- Node8 -->
<g id="node8" class="node">
<title>Node8</title>
<g id="a_node8"><a xlink:href="base_8h.html#ace96da9afdf1e1796a6e2d7ac1f6c81a" target="_top" xlink:title="Safely reads a big&#45;endian 16&#45;bit word from provided pointer.">
<polygon fill="none" stroke="black" points="189,-38.5 189,-57.5 260,-57.5 260,-38.5 189,-38.5"/>
<text text-anchor="middle" x="224.5" y="-45.5" font-family="Helvetica,sans-Serif" font-size="10.00">modbusRBE</text>
</a>
</g>
</g>
<!-- Node1&#45;&gt;Node8 -->
<g id="edge7" class="edge">
<title>Node1&#45;&gt;Node8</title>
<path fill="none" stroke="midnightblue" d="M132.01,-59.11C147.69,-57.2 164.1,-55.21 178.62,-53.45"/>
<polygon fill="midnightblue" stroke="midnightblue" points="179.32,-56.89 188.82,-52.21 178.47,-49.94 179.32,-56.89"/>
</g>
<!-- Node9 -->
<g id="node9" class="node">
<title>Node9</title>
<g id="a_node9"><a xlink:href="base_8h.html#a73b9f793bbe67a1968cc8c53a22d4c4b" target="_top" xlink:title="Safely writes a big&#45;endian 16&#45;bit word to provided pointer.">
<polygon fill="none" stroke="black" points="188,-0.5 188,-19.5 261,-19.5 261,-0.5 188,-0.5"/>
<text text-anchor="middle" x="224.5" y="-7.5" font-family="Helvetica,sans-Serif" font-size="10.00">modbusWBE</text>
</a>
</g>
</g>
<!-- Node1&#45;&gt;Node9 -->
<g id="edge8" class="edge">
<title>Node1&#45;&gt;Node9</title>
<path fill="none" stroke="midnightblue" d="M91.83,-57.42C112.23,-49.61 141.9,-38.37 168,-29 173.65,-26.97 179.64,-24.87 185.51,-22.84"/>
<polygon fill="midnightblue" stroke="midnightblue" points="186.89,-26.06 195.21,-19.5 184.61,-19.44 186.89,-26.06"/>
</g>
<!-- Node3 -->
<g id="node3" class="node">
<title>Node3</title>
<g id="a_node3"><a xlink:href="base_8h.html#a29d2a7853b328113e4fcddae85fd3ce5" target="_top" xlink:title="Returns ModbusError contained in ModbusErrorInfo.">
<polygon fill="none" stroke="black" points="321,-152.5 321,-171.5 431,-171.5 431,-152.5 321,-152.5"/>
<text text-anchor="middle" x="376" y="-159.5" font-family="Helvetica,sans-Serif" font-size="10.00">modbusGetErrorCode</text>
</a>
</g>
</g>
<!-- Node2&#45;&gt;Node3 -->
<g id="edge2" class="edge">
<title>Node2&#45;&gt;Node3</title>
<path fill="none" stroke="midnightblue" d="M260.55,-132.91C280.61,-138.01 306.04,-144.47 327.83,-150.01"/>
<polygon fill="midnightblue" stroke="midnightblue" points="327,-153.41 337.56,-152.48 328.73,-146.63 327,-153.41"/>
</g>
<!-- Node4 -->
<g id="node4" class="node">
<title>Node4</title>
<g id="a_node4"><a xlink:href="base_8h.html#a9ee4c2e633c7a42f88acc09b95f8171e" target="_top" xlink:title="Returns uint8_t describing error source of ModbusErrorInfo.">
<polygon fill="none" stroke="black" points="317,-114.5 317,-133.5 435,-133.5 435,-114.5 317,-114.5"/>
<text text-anchor="middle" x="376" y="-121.5" font-family="Helvetica,sans-Serif" font-size="10.00">modbusGetErrorSource</text>
</a>
</g>
</g>
<!-- Node2&#45;&gt;Node4 -->
<g id="edge3" class="edge">
<title>Node2&#45;&gt;Node4</title>
<path fill="none" stroke="midnightblue" d="M260.55,-124C274.29,-124 290.54,-124 306.42,-124"/>
<polygon fill="midnightblue" stroke="midnightblue" points="306.77,-127.5 316.77,-124 306.77,-120.5 306.77,-127.5"/>
</g>
<!-- Node6 -->
<g id="node6" class="node">
<title>Node6</title>
<g id="a_node6"><a xlink:href="slave_8impl_8h.html#a01b0b86602f899214d564f5bbe6ffdb2" target="_top" xlink:title="Builds an exception response frame.">
<polygon fill="none" stroke="black" points="318.5,-76.5 318.5,-95.5 433.5,-95.5 433.5,-76.5 318.5,-76.5"/>
<text text-anchor="middle" x="376" y="-83.5" font-family="Helvetica,sans-Serif" font-size="10.00">modbusBuildException</text>
</a>
</g>
</g>
<!-- Node5&#45;&gt;Node6 -->
<g id="edge5" class="edge">
<title>Node5&#45;&gt;Node6</title>
<path fill="none" stroke="midnightblue" d="M281.17,-86C289.97,-86 299.16,-86 308.19,-86"/>
<polygon fill="midnightblue" stroke="midnightblue" points="308.29,-89.5 318.29,-86 308.29,-82.5 308.29,-89.5"/>
</g>
<!-- Node7 -->
<g id="node7" class="node">
<title>Node7</title>
<g id="a_node7"><a xlink:href="slave_8impl_8h.html#aa87aa17ffca453550f7b0489b39f077b" target="_top" xlink:title="Allocates memory for slave&#39;s response frame.">
<polygon fill="none" stroke="black" points="471,-76.5 471,-95.5 626,-95.5 626,-76.5 471,-76.5"/>
<text text-anchor="middle" x="548.5" y="-83.5" font-family="Helvetica,sans-Serif" font-size="10.00">modbusSlaveAllocateResponse</text>
</a>
</g>
</g>
<!-- Node6&#45;&gt;Node7 -->
<g id="edge6" class="edge">
<title>Node6&#45;&gt;Node7</title>
<path fill="none" stroke="midnightblue" d="M433.77,-86C442.43,-86 451.53,-86 460.66,-86"/>
<polygon fill="midnightblue" stroke="midnightblue" points="460.94,-89.5 470.94,-86 460.94,-82.5 460.94,-89.5"/>
</g>
</g>
</svg>
