<?xml version="1.0" encoding="UTF-8" standalone="no"?>
<!DOCTYPE svg PUBLIC "-//W3C//DTD SVG 1.1//EN"
 "http://www.w3.org/Graphics/SVG/1.1/DTD/svg11.dtd">
<!-- Generated by graphviz version 2.44.0 ()
 -->
<!-- Title: include/lightmodbus/slave.h Pages: 1 -->
<svg width="469pt" height="240pt"
 viewBox="0.00 0.00 469.00 240.00" xmlns="http://www.w3.org/2000/svg" xmlns:xlink="http://www.w3.org/1999/xlink">
<g id="graph0" class="graph" transform="scale(1 1) rotate(0) translate(4 236)">
<title>include/lightmodbus/slave.h</title>
<!-- Node1 -->
<g id="node1" class="node">
<title>Node1</title>
<g id="a_node1"><a xlink:title=" ">
<polygon fill="#bfbfbf" stroke="black" points="198,-201.5 198,-231.5 301,-231.5 301,-201.5 198,-201.5"/>
<text text-anchor="start" x="206" y="-219.5" font-family="Helvetica,sans-Serif" font-size="10.00">include/lightmodbus</text>
<text text-anchor="middle" x="249.5" y="-208.5" font-family="Helvetica,sans-Serif" font-size="10.00">/slave.h</text>
</a>
</g>
</g>
<!-- Node2 -->
<g id="node2" class="node">
<title>Node2</title>
<g id="a_node2"><a xlink:href="debug_8h.html" target="_top" xlink:title=" ">
<polygon fill="none" stroke="black" points="38,-134.5 38,-164.5 141,-164.5 141,-134.5 38,-134.5"/>
<text text-anchor="start" x="46" y="-152.5" font-family="Helvetica,sans-Serif" font-size="10.00">include/lightmodbus</text>
<text text-anchor="middle" x="89.5" y="-141.5" font-family="Helvetica,sans-Serif" font-size="10.00">/debug.h</text>
</a>
</g>
</g>
<!-- Node1&#45;&gt;Node2 -->
<g id="edge1" class="edge">
<title>Node1&#45;&gt;Node2</title>
<path fill="none" stroke="midnightblue" d="M205.3,-197.54C179.7,-187.14 147.93,-174.24 124.15,-164.58"/>
<polygon fill="midnightblue" stroke="midnightblue" points="204.2,-200.87 214.78,-201.4 206.84,-194.39 204.2,-200.87"/>
</g>
<!-- Node4 -->
<g id="node4" class="node">
<title>Node4</title>
<g id="a_node4"><a xlink:href="lightmodbus_8h.html" target="_top" xlink:title=" ">
<polygon fill="none" stroke="black" points="158,-0.5 158,-30.5 261,-30.5 261,-0.5 158,-0.5"/>
<text text-anchor="start" x="166" y="-18.5" font-family="Helvetica,sans-Serif" font-size="10.00">include/lightmodbus</text>
<text text-anchor="middle" x="209.5" y="-7.5" font-family="Helvetica,sans-Serif" font-size="10.00">/lightmodbus.h</text>
</a>
</g>
</g>
<!-- Node1&#45;&gt;Node4 -->
<g id="edge5" class="edge">
<title>Node1&#45;&gt;Node4</title>
<path fill="none" stroke="midnightblue" d="M233.63,-192.58C218.89,-169.79 197.97,-133.23 189.5,-98 183.81,-74.34 194.05,-46.87 201.87,-30.62"/>
<polygon fill="midnightblue" stroke="midnightblue" points="230.89,-194.78 239.33,-201.18 236.72,-190.91 230.89,-194.78"/>
</g>
<!-- Node5 -->
<g id="node5" class="node">
<title>Node5</title>
<g id="a_node5"><a xlink:href="slave_8impl_8h.html" target="_top" xlink:title=" ">
<polygon fill="none" stroke="black" points="198,-67.5 198,-97.5 301,-97.5 301,-67.5 198,-67.5"/>
<text text-anchor="start" x="206" y="-85.5" font-family="Helvetica,sans-Serif" font-size="10.00">include/lightmodbus</text>
<text text-anchor="middle" x="249.5" y="-74.5" font-family="Helvetica,sans-Serif" font-size="10.00">/slave.impl.h</text>
</a>
</g>
</g>
<!-- Node1&#45;&gt;Node5 -->
<g id="edge6" class="edge">
<title>Node1&#45;&gt;Node5</title>
<path fill="none" stroke="midnightblue" d="M249.5,-191.02C249.5,-163.51 249.5,-119.79 249.5,-97.52"/>
<polygon fill="midnightblue" stroke="midnightblue" points="246,-191.37 249.5,-201.37 253,-191.37 246,-191.37"/>
</g>
<!-- Node6 -->
<g id="node6" class="node">
<title>Node6</title>
<g id="a_node6"><a xlink:href="slave__func_8h.html" target="_top" xlink:title=" ">
<polygon fill="none" stroke="black" points="278,-134.5 278,-164.5 381,-164.5 381,-134.5 278,-134.5"/>
<text text-anchor="start" x="286" y="-152.5" font-family="Helvetica,sans-Serif" font-size="10.00">include/lightmodbus</text>
<text text-anchor="middle" x="329.5" y="-141.5" font-family="Helvetica,sans-Serif" font-size="10.00">/slave_func.h</text>
</a>
</g>
</g>
<!-- Node1&#45;&gt;Node6 -->
<g id="edge8" class="edge">
<title>Node1&#45;&gt;Node6</title>
<path fill="none" stroke="midnightblue" d="M274.87,-194.88C287.03,-185.01 301.28,-173.43 312.18,-164.58"/>
<polygon fill="midnightblue" stroke="midnightblue" points="272.41,-192.37 266.86,-201.4 276.83,-197.81 272.41,-192.37"/>
</g>
<!-- Node7 -->
<g id="node7" class="node">
<title>Node7</title>
<g id="a_node7"><a xlink:href="slave__func_8impl_8h.html" target="_top" xlink:title=" ">
<polygon fill="none" stroke="black" points="358,-67.5 358,-97.5 461,-97.5 461,-67.5 358,-67.5"/>
<text text-anchor="start" x="366" y="-85.5" font-family="Helvetica,sans-Serif" font-size="10.00">include/lightmodbus</text>
<text text-anchor="middle" x="409.5" y="-74.5" font-family="Helvetica,sans-Serif" font-size="10.00">/slave_func.impl.h</text>
</a>
</g>
</g>
<!-- Node1&#45;&gt;Node7 -->
<g id="edge13" class="edge">
<title>Node1&#45;&gt;Node7</title>
<path fill="none" stroke="midnightblue" d="M311.4,-207.03C339.24,-200.14 370.32,-187.65 390.5,-165 407.22,-146.24 410.02,-115.61 410.08,-97.73"/>
<polygon fill="midnightblue" stroke="midnightblue" points="310.29,-203.7 301.31,-209.33 311.84,-210.52 310.29,-203.7"/>
</g>
<!-- Node3 -->
<g id="node3" class="node">
<title>Node3</title>
<g id="a_node3"><a xlink:href="debug_8impl_8h.html" target="_top" xlink:title=" ">
<polygon fill="none" stroke="black" points="0,-67.5 0,-97.5 103,-97.5 103,-67.5 0,-67.5"/>
<text text-anchor="start" x="8" y="-85.5" font-family="Helvetica,sans-Serif" font-size="10.00">include/lightmodbus</text>
<text text-anchor="middle" x="51.5" y="-74.5" font-family="Helvetica,sans-Serif" font-size="10.00">/debug.impl.h</text>
</a>
</g>
</g>
<!-- Node2&#45;&gt;Node3 -->
<g id="edge2" class="edge">
<title>Node2&#45;&gt;Node3</title>
<path fill="none" stroke="midnightblue" d="M76.1,-125.58C70.64,-116.24 64.51,-105.75 59.73,-97.58"/>
<polygon fill="midnightblue" stroke="midnightblue" points="73.19,-127.53 81.25,-134.4 79.23,-124 73.19,-127.53"/>
</g>
<!-- Node2&#45;&gt;Node4 -->
<g id="edge4" class="edge">
<title>Node2&#45;&gt;Node4</title>
<path fill="none" stroke="midnightblue" d="M106.11,-126.34C119.01,-109.55 137.64,-86.18 155.5,-67 167.57,-54.04 182.32,-40.37 193.35,-30.53"/>
<polygon fill="midnightblue" stroke="midnightblue" points="103.2,-124.39 99.92,-134.46 108.76,-128.63 103.2,-124.39"/>
</g>
<!-- Node3&#45;&gt;Node4 -->
<g id="edge3" class="edge">
<title>Node3&#45;&gt;Node4</title>
<path fill="none" stroke="midnightblue" d="M95.15,-63.54C120.43,-53.14 151.8,-40.24 175.28,-30.58"/>
<polygon fill="midnightblue" stroke="midnightblue" points="93.7,-60.35 85.78,-67.4 96.36,-66.83 93.7,-60.35"/>
</g>
<!-- Node5&#45;&gt;Node4 -->
<g id="edge7" class="edge">
<title>Node5&#45;&gt;Node4</title>
<path fill="none" stroke="midnightblue" d="M235.57,-58.87C229.78,-49.46 223.24,-38.83 218.16,-30.58"/>
<polygon fill="midnightblue" stroke="midnightblue" points="232.6,-60.71 240.82,-67.4 238.56,-57.05 232.6,-60.71"/>
</g>
<!-- Node6&#45;&gt;Node4 -->
<g id="edge9" class="edge">
<title>Node6&#45;&gt;Node4</title>
<path fill="none" stroke="midnightblue" d="M329.17,-124.21C327.76,-106.64 323.32,-83.25 310.5,-67 297.14,-50.07 276.61,-38.37 257.55,-30.52"/>
<polygon fill="midnightblue" stroke="midnightblue" points="325.68,-124.47 329.71,-134.27 332.67,-124.1 325.68,-124.47"/>
</g>
<!-- Node6&#45;&gt;Node5 -->
<g id="edge10" class="edge">
<title>Node6&#45;&gt;Node5</title>
<path fill="none" stroke="midnightblue" d="M304.13,-127.88C291.97,-118.01 277.72,-106.43 266.82,-97.58"/>
<polygon fill="midnightblue" stroke="midnightblue" points="302.17,-130.81 312.14,-134.4 306.59,-125.37 302.17,-130.81"/>
</g>
<!-- Node6&#45;&gt;Node7 -->
<g id="edge11" class="edge">
<title>Node6&#45;&gt;Node7</title>
<path fill="none" stroke="midnightblue" d="M354.87,-127.88C367.03,-118.01 381.28,-106.43 392.18,-97.58"/>
<polygon fill="midnightblue" stroke="midnightblue" points="352.41,-125.37 346.86,-134.4 356.83,-130.81 352.41,-125.37"/>
</g>
<!-- Node7&#45;&gt;Node4 -->
<g id="edge12" class="edge">
<title>Node7&#45;&gt;Node4</title>
<path fill="none" stroke="midnightblue" d="M356.35,-64.23C324,-53.71 283.19,-40.45 252.81,-30.58"/>
<polygon fill="midnightblue" stroke="midnightblue" points="355.51,-67.63 366.1,-67.4 357.67,-60.98 355.51,-67.63"/>
</g>
</g>
</svg>
