<?xml version="1.0" encoding="UTF-8" standalone="no"?>
<!DOCTYPE svg PUBLIC "-//W3C//DTD SVG 1.1//EN"
 "http://www.w3.org/Graphics/SVG/1.1/DTD/svg11.dtd">
<!-- Generated by graphviz version 2.44.0 ()
 -->
<!-- Title: modbusSlaveAllocateResponse Pages: 1 -->
<svg width="699pt" height="256pt"
 viewBox="0.00 0.00 699.00 256.00" xmlns="http://www.w3.org/2000/svg" xmlns:xlink="http://www.w3.org/1999/xlink">
<g id="graph0" class="graph" transform="scale(1 1) rotate(0) translate(4 252)">
<title>modbusSlaveAllocateResponse</title>
<!-- Node1 -->
<g id="node1" class="node">
<title>Node1</title>
<g id="a_node1"><a xlink:title="Allocates memory for slave&#39;s response frame.">
<polygon fill="#bfbfbf" stroke="black" points="536,-114.5 536,-133.5 691,-133.5 691,-114.5 536,-114.5"/>
<text text-anchor="middle" x="613.5" y="-121.5" font-family="Helvetica,sans-Serif" font-size="10.00">modbusSlaveAllocateResponse</text>
</a>
</g>
</g>
<!-- Node2 -->
<g id="node2" class="node">
<title>Node2</title>
<g id="a_node2"><a xlink:href="slave_8h.html#a01b0b86602f899214d564f5bbe6ffdb2" target="_top" xlink:title="Builds an exception response frame.">
<polygon fill="none" stroke="black" points="373,-152.5 373,-171.5 488,-171.5 488,-152.5 373,-152.5"/>
<text text-anchor="middle" x="430.5" y="-159.5" font-family="Helvetica,sans-Serif" font-size="10.00">modbusBuildException</text>
</a>
</g>
</g>
<!-- Node1&#45;&gt;Node2 -->
<g id="edge1" class="edge">
<title>Node1&#45;&gt;Node2</title>
<path fill="none" stroke="midnightblue" d="M556.86,-135.68C531.19,-141.07 501.11,-147.39 476.85,-152.48"/>
<polygon fill="midnightblue" stroke="midnightblue" points="557.76,-139.07 566.83,-133.59 556.32,-132.22 557.76,-139.07"/>
</g>
<!-- Node7 -->
<g id="node7" class="node">
<title>Node7</title>
<g id="a_node7"><a xlink:href="slave__func_8h.html#aff8edb5d03d53414296edee03a83691a" target="_top" xlink:title="Handles requests 01, 02, 03 and 04 (Read Multiple XX) and generates response.">
<polygon fill="none" stroke="black" points="170,-228.5 170,-247.5 325,-247.5 325,-228.5 170,-228.5"/>
<text text-anchor="middle" x="247.5" y="-235.5" font-family="Helvetica,sans-Serif" font-size="10.00">modbusParseRequest01020304</text>
</a>
</g>
</g>
<!-- Node1&#45;&gt;Node7 -->
<g id="edge10" class="edge">
<title>Node1&#45;&gt;Node7</title>
<path fill="none" stroke="midnightblue" d="M595.26,-140.41C574.46,-159.16 537.58,-189.15 500,-204 444.06,-226.1 376.28,-234.3 325.18,-237.14"/>
<polygon fill="midnightblue" stroke="midnightblue" points="597.67,-142.95 602.66,-133.6 592.93,-137.8 597.67,-142.95"/>
</g>
<!-- Node8 -->
<g id="node8" class="node">
<title>Node8</title>
<g id="a_node8"><a xlink:href="slave__func_8h.html#ad3a342d423dbc1142cd509768ac986e7" target="_top" xlink:title="Handles requests 05 and 06 (Write Single XX) and generates response.">
<polygon fill="none" stroke="black" points="180.5,-190.5 180.5,-209.5 314.5,-209.5 314.5,-190.5 180.5,-190.5"/>
<text text-anchor="middle" x="247.5" y="-197.5" font-family="Helvetica,sans-Serif" font-size="10.00">modbusParseRequest0506</text>
</a>
</g>
</g>
<!-- Node1&#45;&gt;Node8 -->
<g id="edge11" class="edge">
<title>Node1&#45;&gt;Node8</title>
<path fill="none" stroke="midnightblue" d="M589.74,-138.93C567.75,-152.51 533.03,-171.78 500,-181 438.74,-198.1 366.03,-201.91 314.59,-202.01"/>
<polygon fill="midnightblue" stroke="midnightblue" points="591.74,-141.8 598.33,-133.51 588.01,-135.88 591.74,-141.8"/>
</g>
<!-- Node9 -->
<g id="node9" class="node">
<title>Node9</title>
<g id="a_node9"><a xlink:href="slave__func_8h.html#a50a1e72594d7aec7101698bf9089b4de" target="_top" xlink:title="Handles requests 15 and 16 (Write Multiple XX) and generates response.">
<polygon fill="none" stroke="black" points="180.5,-114.5 180.5,-133.5 314.5,-133.5 314.5,-114.5 180.5,-114.5"/>
<text text-anchor="middle" x="247.5" y="-121.5" font-family="Helvetica,sans-Serif" font-size="10.00">modbusParseRequest1516</text>
</a>
</g>
</g>
<!-- Node1&#45;&gt;Node9 -->
<g id="edge12" class="edge">
<title>Node1&#45;&gt;Node9</title>
<path fill="none" stroke="midnightblue" d="M525.57,-124C460.87,-124 373.89,-124 314.77,-124"/>
<polygon fill="midnightblue" stroke="midnightblue" points="525.75,-127.5 535.75,-124 525.75,-120.5 525.75,-127.5"/>
</g>
<!-- Node10 -->
<g id="node10" class="node">
<title>Node10</title>
<g id="a_node10"><a xlink:href="slave__func_8h.html#a6495bc98691e5e944456bcc222d6ec63" target="_top" xlink:title="Handles request 22 (Mask Write Register) and generates response.">
<polygon fill="none" stroke="black" points="186,-76.5 186,-95.5 309,-95.5 309,-76.5 186,-76.5"/>
<text text-anchor="middle" x="247.5" y="-83.5" font-family="Helvetica,sans-Serif" font-size="10.00">modbusParseRequest22</text>
</a>
</g>
</g>
<!-- Node1&#45;&gt;Node10 -->
<g id="edge13" class="edge">
<title>Node1&#45;&gt;Node10</title>
<path fill="none" stroke="midnightblue" d="M525.66,-114.93C458.9,-107.96 368.35,-98.51 309.2,-92.34"/>
<polygon fill="midnightblue" stroke="midnightblue" points="525.44,-118.43 535.75,-115.99 526.17,-111.47 525.44,-118.43"/>
</g>
<!-- Node11 -->
<g id="node11" class="node">
<title>Node11</title>
<g id="a_node11"><a xlink:href="slave_8h.html#a70695c3b7355bc0a3e6d49c46a4eef1f" target="_top" xlink:title="Frees memory allocated in the ModbusSlave struct.">
<polygon fill="none" stroke="black" points="376,-38.5 376,-57.5 485,-57.5 485,-38.5 376,-38.5"/>
<text text-anchor="middle" x="430.5" y="-45.5" font-family="Helvetica,sans-Serif" font-size="10.00">modbusSlaveDestroy</text>
</a>
</g>
</g>
<!-- Node1&#45;&gt;Node11 -->
<g id="edge14" class="edge">
<title>Node1&#45;&gt;Node11</title>
<path fill="none" stroke="midnightblue" d="M584.22,-110.01C561.67,-99.08 529.14,-83.81 500,-72 487.27,-66.84 472.96,-61.73 460.73,-57.55"/>
<polygon fill="midnightblue" stroke="midnightblue" points="582.72,-113.17 593.24,-114.41 585.78,-106.88 582.72,-113.17"/>
</g>
<!-- Node12 -->
<g id="node12" class="node">
<title>Node12</title>
<g id="a_node12"><a xlink:href="slave_8h.html#a5e517b65cb8b32010146fa80b78bc848" target="_top" xlink:title="Frees memory allocated for slave&#39;s response frame.">
<polygon fill="none" stroke="black" points="361,-0.5 361,-19.5 500,-19.5 500,-0.5 361,-0.5"/>
<text text-anchor="middle" x="430.5" y="-7.5" font-family="Helvetica,sans-Serif" font-size="10.00">modbusSlaveFreeResponse</text>
</a>
</g>
</g>
<!-- Node1&#45;&gt;Node12 -->
<g id="edge15" class="edge">
<title>Node1&#45;&gt;Node12</title>
<path fill="none" stroke="midnightblue" d="M596.99,-107C576.7,-85.74 539.09,-49.64 500,-29 492.8,-25.2 484.76,-22.09 476.79,-19.58"/>
<polygon fill="midnightblue" stroke="midnightblue" points="594.5,-109.45 603.89,-114.35 599.6,-104.67 594.5,-109.45"/>
</g>
<!-- Node3 -->
<g id="node3" class="node">
<title>Node3</title>
<g id="a_node3"><a xlink:href="slave_8h.html#a418b412059b7882bf53b0bfdb11dea31" target="_top" xlink:title="Parses provided PDU and generates response honorinng pduOffset and padding set in ModbusSlave.">
<polygon fill="none" stroke="black" points="191,-152.5 191,-171.5 304,-171.5 304,-152.5 191,-152.5"/>
<text text-anchor="middle" x="247.5" y="-159.5" font-family="Helvetica,sans-Serif" font-size="10.00">modbusParseRequest</text>
</a>
</g>
</g>
<!-- Node2&#45;&gt;Node3 -->
<g id="edge2" class="edge">
<title>Node2&#45;&gt;Node3</title>
<path fill="none" stroke="midnightblue" d="M362.54,-162C343.33,-162 322.59,-162 304.14,-162"/>
<polygon fill="midnightblue" stroke="midnightblue" points="362.73,-165.5 372.73,-162 362.73,-158.5 362.73,-165.5"/>
</g>
<!-- Node2&#45;&gt;Node7 -->
<g id="edge6" class="edge">
<title>Node2&#45;&gt;Node7</title>
<path fill="none" stroke="midnightblue" d="M406.17,-176.99C385.52,-189.7 354.22,-207.62 325,-219 315.56,-222.68 305.19,-225.81 295.21,-228.42"/>
<polygon fill="midnightblue" stroke="midnightblue" points="408.23,-179.83 414.86,-171.57 404.52,-173.9 408.23,-179.83"/>
</g>
<!-- Node2&#45;&gt;Node8 -->
<g id="edge7" class="edge">
<title>Node2&#45;&gt;Node8</title>
<path fill="none" stroke="midnightblue" d="M373.86,-173.68C348.19,-179.07 318.11,-185.39 293.85,-190.48"/>
<polygon fill="midnightblue" stroke="midnightblue" points="374.76,-177.07 383.83,-171.59 373.32,-170.22 374.76,-177.07"/>
</g>
<!-- Node2&#45;&gt;Node9 -->
<g id="edge8" class="edge">
<title>Node2&#45;&gt;Node9</title>
<path fill="none" stroke="midnightblue" d="M373.86,-150.32C348.19,-144.93 318.11,-138.61 293.85,-133.52"/>
<polygon fill="midnightblue" stroke="midnightblue" points="373.32,-153.78 383.83,-152.41 374.76,-146.93 373.32,-153.78"/>
</g>
<!-- Node2&#45;&gt;Node10 -->
<g id="edge9" class="edge">
<title>Node2&#45;&gt;Node10</title>
<path fill="none" stroke="midnightblue" d="M406.17,-147.01C385.52,-134.3 354.22,-116.38 325,-105 315.56,-101.32 305.19,-98.19 295.21,-95.58"/>
<polygon fill="midnightblue" stroke="midnightblue" points="404.52,-150.1 414.86,-152.43 408.23,-144.17 404.52,-150.1"/>
</g>
<!-- Node4 -->
<g id="node4" class="node">
<title>Node4</title>
<g id="a_node4"><a xlink:href="slave_8h.html#a678436c7849be06c8871bc589d0c7011" target="_top" xlink:title="Parses provided PDU and generates PDU for the response frame.">
<polygon fill="none" stroke="black" points="0,-190.5 0,-209.5 134,-209.5 134,-190.5 0,-190.5"/>
<text text-anchor="middle" x="67" y="-197.5" font-family="Helvetica,sans-Serif" font-size="10.00">modbusParseRequestPDU</text>
</a>
</g>
</g>
<!-- Node3&#45;&gt;Node4 -->
<g id="edge3" class="edge">
<title>Node3&#45;&gt;Node4</title>
<path fill="none" stroke="midnightblue" d="M191.63,-173.68C166.32,-179.07 136.65,-185.39 112.72,-190.48"/>
<polygon fill="midnightblue" stroke="midnightblue" points="192.4,-177.09 201.46,-171.59 190.95,-170.25 192.4,-177.09"/>
</g>
<!-- Node5 -->
<g id="node5" class="node">
<title>Node5</title>
<g id="a_node5"><a xlink:href="slave_8h.html#a9da6d040ddc4a1ba71b03fad7a2fece3" target="_top" xlink:title="Parses provided Modbus RTU request frame and generates a Modbus RTU response.">
<polygon fill="none" stroke="black" points="0.5,-152.5 0.5,-171.5 133.5,-171.5 133.5,-152.5 0.5,-152.5"/>
<text text-anchor="middle" x="67" y="-159.5" font-family="Helvetica,sans-Serif" font-size="10.00">modbusParseRequestRTU</text>
</a>
</g>
</g>
<!-- Node3&#45;&gt;Node5 -->
<g id="edge4" class="edge">
<title>Node3&#45;&gt;Node5</title>
<path fill="none" stroke="midnightblue" d="M180.61,-162C165.33,-162 149.07,-162 133.8,-162"/>
<polygon fill="midnightblue" stroke="midnightblue" points="181,-165.5 191,-162 181,-158.5 181,-165.5"/>
</g>
<!-- Node6 -->
<g id="node6" class="node">
<title>Node6</title>
<g id="a_node6"><a xlink:href="slave_8h.html#a11f5dfe3b6a3f37ca7c7eb179ca75864" target="_top" xlink:title="Parses provided Modbus TCP request frame and generates a Modbus TCP response.">
<polygon fill="none" stroke="black" points="1,-114.5 1,-133.5 133,-133.5 133,-114.5 1,-114.5"/>
<text text-anchor="middle" x="67" y="-121.5" font-family="Helvetica,sans-Serif" font-size="10.00">modbusParseRequestTCP</text>
</a>
</g>
</g>
<!-- Node3&#45;&gt;Node6 -->
<g id="edge5" class="edge">
<title>Node3&#45;&gt;Node6</title>
<path fill="none" stroke="midnightblue" d="M191.63,-150.32C166.32,-144.93 136.65,-138.61 112.72,-133.52"/>
<polygon fill="midnightblue" stroke="midnightblue" points="190.95,-153.75 201.46,-152.41 192.4,-146.91 190.95,-153.75"/>
</g>
</g>
</svg>
