<?xml version="1.0" encoding="UTF-8" standalone="no"?>
<!DOCTYPE svg PUBLIC "-//W3C//DTD SVG 1.1//EN"
 "http://www.w3.org/Graphics/SVG/1.1/DTD/svg11.dtd">
<!-- Generated by graphviz version 2.44.0 ()
 -->
<!-- Title: modbusBuildExceptionPDU Pages: 1 -->
<svg width="665pt" height="123pt"
 viewBox="0.00 0.00 665.00 123.00" xmlns="http://www.w3.org/2000/svg" xmlns:xlink="http://www.w3.org/1999/xlink">
<g id="graph0" class="graph" transform="scale(1 1) rotate(0) translate(4 119)">
<title>modbusBuildExceptionPDU</title>
<!-- Node1 -->
<g id="node1" class="node">
<title>Node1</title>
<g id="a_node1"><a xlink:title="Builds an exception PDU.">
<polygon fill="#bfbfbf" stroke="black" points="0,-57.5 0,-76.5 136,-76.5 136,-57.5 0,-57.5"/>
<text text-anchor="middle" x="68" y="-64.5" font-family="Helvetica,sans-Serif" font-size="10.00">modbusBuildExceptionPDU</text>
</a>
</g>
</g>
<!-- Node2 -->
<g id="node2" class="node">
<title>Node2</title>
<g id="a_node2"><a xlink:href="slave_8impl_8h.html#a58243ce1e1adaffd0a3260edc2d03603" target="_top" xlink:title="Builds an exception response frame.">
<polygon fill="none" stroke="black" points="172,-76.5 172,-95.5 287,-95.5 287,-76.5 172,-76.5"/>
<text text-anchor="middle" x="229.5" y="-83.5" font-family="Helvetica,sans-Serif" font-size="10.00">modbusBuildException</text>
</a>
</g>
</g>
<!-- Node1&#45;&gt;Node2 -->
<g id="edge1" class="edge">
<title>Node1&#45;&gt;Node2</title>
<path fill="none" stroke="midnightblue" d="M136.18,-75C144.65,-76.01 153.32,-77.04 161.79,-78.05"/>
<polygon fill="midnightblue" stroke="midnightblue" points="161.65,-81.56 171.99,-79.27 162.47,-74.61 161.65,-81.56"/>
</g>
<!-- Node6 -->
<g id="node6" class="node">
<title>Node6</title>
<g id="a_node6"><a xlink:href="base_8h.html#a64880e7075f445881485396f3aa869c5" target="_top" xlink:title="Checks if ModbusErrorInfo contains an error.">
<polygon fill="none" stroke="black" points="193.5,-38.5 193.5,-57.5 265.5,-57.5 265.5,-38.5 193.5,-38.5"/>
<text text-anchor="middle" x="229.5" y="-45.5" font-family="Helvetica,sans-Serif" font-size="10.00">modbusIsOk</text>
</a>
</g>
</g>
<!-- Node1&#45;&gt;Node6 -->
<g id="edge5" class="edge">
<title>Node1&#45;&gt;Node6</title>
<path fill="none" stroke="midnightblue" d="M136.18,-59C151.94,-57.12 168.37,-55.16 182.92,-53.43"/>
<polygon fill="midnightblue" stroke="midnightblue" points="183.64,-56.87 193.15,-52.21 182.81,-49.92 183.64,-56.87"/>
</g>
<!-- Node3 -->
<g id="node3" class="node">
<title>Node3</title>
<g id="a_node3"><a xlink:href="slave_8h.html#ad1165bb6d12af1db502a05df5da55aed" target="_top" xlink:title="Allocates memory for slave&#39;s response frame.">
<polygon fill="none" stroke="black" points="323,-76.5 323,-95.5 478,-95.5 478,-76.5 323,-76.5"/>
<text text-anchor="middle" x="400.5" y="-83.5" font-family="Helvetica,sans-Serif" font-size="10.00">modbusSlaveAllocateResponse</text>
</a>
</g>
</g>
<!-- Node2&#45;&gt;Node3 -->
<g id="edge2" class="edge">
<title>Node2&#45;&gt;Node3</title>
<path fill="none" stroke="midnightblue" d="M287.24,-86C295.45,-86 304.04,-86 312.67,-86"/>
<polygon fill="midnightblue" stroke="midnightblue" points="312.79,-89.5 322.79,-86 312.79,-82.5 312.79,-89.5"/>
</g>
<!-- Node4 -->
<g id="node4" class="node">
<title>Node4</title>
<g id="a_node4"><a xlink:href="base_8h.html#aab33bc005f4c5759d8ac918e5e8b71b9" target="_top" xlink:title="Allocates memory to hold Modbus ADU.">
<polygon fill="none" stroke="black" points="529.5,-95.5 529.5,-114.5 641.5,-114.5 641.5,-95.5 529.5,-95.5"/>
<text text-anchor="middle" x="585.5" y="-102.5" font-family="Helvetica,sans-Serif" font-size="10.00">modbusBufferAllocate</text>
</a>
</g>
</g>
<!-- Node3&#45;&gt;Node4 -->
<g id="edge3" class="edge">
<title>Node3&#45;&gt;Node4</title>
<path fill="none" stroke="midnightblue" d="M478.05,-93.95C491.78,-95.37 505.98,-96.85 519.36,-98.24"/>
<polygon fill="midnightblue" stroke="midnightblue" points="519.1,-101.73 529.41,-99.28 519.82,-94.77 519.1,-101.73"/>
</g>
<!-- Node5 -->
<g id="node5" class="node">
<title>Node5</title>
<g id="a_node5"><a xlink:href="slave_8h.html#abbbf205b4c4a0b74b5ae29b865ca3262" target="_top" xlink:title="Retreieves the custom context pointer.">
<polygon fill="none" stroke="black" points="514,-57.5 514,-76.5 657,-76.5 657,-57.5 514,-57.5"/>
<text text-anchor="middle" x="585.5" y="-64.5" font-family="Helvetica,sans-Serif" font-size="10.00">modbusSlaveGetUserPointer</text>
</a>
</g>
</g>
<!-- Node3&#45;&gt;Node5 -->
<g id="edge4" class="edge">
<title>Node3&#45;&gt;Node5</title>
<path fill="none" stroke="midnightblue" d="M478.05,-78.05C486.57,-77.17 495.26,-76.27 503.83,-75.38"/>
<polygon fill="midnightblue" stroke="midnightblue" points="504.22,-78.85 513.81,-74.34 503.5,-71.89 504.22,-78.85"/>
</g>
<!-- Node7 -->
<g id="node7" class="node">
<title>Node7</title>
<g id="a_node7"><a xlink:href="base_8h.html#a29d2a7853b328113e4fcddae85fd3ce5" target="_top" xlink:title="Returns ModbusError contained in ModbusErrorInfo.">
<polygon fill="none" stroke="black" points="345.5,-38.5 345.5,-57.5 455.5,-57.5 455.5,-38.5 345.5,-38.5"/>
<text text-anchor="middle" x="400.5" y="-45.5" font-family="Helvetica,sans-Serif" font-size="10.00">modbusGetErrorCode</text>
</a>
</g>
</g>
<!-- Node6&#45;&gt;Node7 -->
<g id="edge6" class="edge">
<title>Node6&#45;&gt;Node7</title>
<path fill="none" stroke="midnightblue" d="M265.52,-48C285.56,-48 311.34,-48 334.92,-48"/>
<polygon fill="midnightblue" stroke="midnightblue" points="335.22,-51.5 345.22,-48 335.22,-44.5 335.22,-51.5"/>
</g>
<!-- Node8 -->
<g id="node8" class="node">
<title>Node8</title>
<g id="a_node8"><a xlink:href="base_8h.html#a9ee4c2e633c7a42f88acc09b95f8171e" target="_top" xlink:title="Returns uint8_t describing error source of ModbusErrorInfo.">
<polygon fill="none" stroke="black" points="341.5,-0.5 341.5,-19.5 459.5,-19.5 459.5,-0.5 341.5,-0.5"/>
<text text-anchor="middle" x="400.5" y="-7.5" font-family="Helvetica,sans-Serif" font-size="10.00">modbusGetErrorSource</text>
</a>
</g>
</g>
<!-- Node6&#45;&gt;Node8 -->
<g id="edge7" class="edge">
<title>Node6&#45;&gt;Node8</title>
<path fill="none" stroke="midnightblue" d="M265.52,-40.13C289.09,-34.83 320.6,-27.74 347.14,-21.77"/>
<polygon fill="midnightblue" stroke="midnightblue" points="348.05,-25.16 357.04,-19.55 346.52,-18.33 348.05,-25.16"/>
</g>
</g>
</svg>
