<?xml version="1.0" encoding="UTF-8" standalone="no"?>
<!DOCTYPE svg PUBLIC "-//W3C//DTD SVG 1.1//EN"
 "http://www.w3.org/Graphics/SVG/1.1/DTD/svg11.dtd">
<!-- Generated by graphviz version 2.44.0 ()
 -->
<!-- Title: modbusParseRequestTCP Pages: 1 -->
<svg width="634pt" height="218pt"
 viewBox="0.00 0.00 634.00 218.00" xmlns="http://www.w3.org/2000/svg" xmlns:xlink="http://www.w3.org/1999/xlink">
<g id="graph0" class="graph" transform="scale(1 1) rotate(0) translate(4 214)">
<title>modbusParseRequestTCP</title>
<!-- Node1 -->
<g id="node1" class="node">
<title>Node1</title>
<g id="a_node1"><a xlink:title="Parses provided Modbus TCP request frame and generates a Modbus TCP response.">
<polygon fill="#bfbfbf" stroke="black" points="0,-76.5 0,-95.5 132,-95.5 132,-76.5 0,-76.5"/>
<text text-anchor="middle" x="66" y="-83.5" font-family="Helvetica,sans-Serif" font-size="10.00">modbusParseRequestTCP</text>
</a>
</g>
</g>
<!-- Node2 -->
<g id="node2" class="node">
<title>Node2</title>
<g id="a_node2"><a xlink:href="base_8h.html#a64880e7075f445881485396f3aa869c5" target="_top" xlink:title="Checks if ModbusErrorInfo contains an error.">
<polygon fill="none" stroke="black" points="188.5,-152.5 188.5,-171.5 260.5,-171.5 260.5,-152.5 188.5,-152.5"/>
<text text-anchor="middle" x="224.5" y="-159.5" font-family="Helvetica,sans-Serif" font-size="10.00">modbusIsOk</text>
</a>
</g>
</g>
<!-- Node1&#45;&gt;Node2 -->
<g id="edge1" class="edge">
<title>Node1&#45;&gt;Node2</title>
<path fill="none" stroke="midnightblue" d="M81.94,-95.59C101.27,-107.72 136.22,-128.74 168,-143 172.7,-145.11 177.71,-147.13 182.72,-149.01"/>
<polygon fill="midnightblue" stroke="midnightblue" points="181.69,-152.35 192.29,-152.44 184.06,-145.77 181.69,-152.35"/>
</g>
<!-- Node5 -->
<g id="node5" class="node">
<title>Node5</title>
<g id="a_node5"><a xlink:href="slave_8impl_8h.html#a4be93ca41808b56714f199dd21302541" target="_top" xlink:title="Parses provided PDU and generates response honorinng pduOffset and padding set in ModbusSlave during ...">
<polygon fill="none" stroke="black" points="168,-114.5 168,-133.5 281,-133.5 281,-114.5 168,-114.5"/>
<text text-anchor="middle" x="224.5" y="-121.5" font-family="Helvetica,sans-Serif" font-size="10.00">modbusParseRequest</text>
</a>
</g>
</g>
<!-- Node1&#45;&gt;Node5 -->
<g id="edge4" class="edge">
<title>Node1&#45;&gt;Node5</title>
<path fill="none" stroke="midnightblue" d="M106.49,-95.59C127.14,-100.6 152.61,-106.79 174.51,-112.11"/>
<polygon fill="midnightblue" stroke="midnightblue" points="173.75,-115.52 184.29,-114.48 175.4,-108.72 173.75,-115.52"/>
</g>
<!-- Node7 -->
<g id="node7" class="node">
<title>Node7</title>
<g id="a_node7"><a xlink:href="slave_8impl_8h.html#aa87aa17ffca453550f7b0489b39f077b" target="_top" xlink:title="Allocates memory for slave&#39;s response frame.">
<polygon fill="none" stroke="black" points="471,-95.5 471,-114.5 626,-114.5 626,-95.5 471,-95.5"/>
<text text-anchor="middle" x="548.5" y="-102.5" font-family="Helvetica,sans-Serif" font-size="10.00">modbusSlaveAllocateResponse</text>
</a>
</g>
</g>
<!-- Node1&#45;&gt;Node7 -->
<g id="edge8" class="edge">
<title>Node1&#45;&gt;Node7</title>
<path fill="none" stroke="midnightblue" d="M132.05,-88.57C217.02,-91.93 366.07,-97.83 460.63,-101.56"/>
<polygon fill="midnightblue" stroke="midnightblue" points="460.61,-105.07 470.74,-101.96 460.89,-98.07 460.61,-105.07"/>
</g>
<!-- Node8 -->
<g id="node8" class="node">
<title>Node8</title>
<g id="a_node8"><a xlink:href="base_8h.html#ace96da9afdf1e1796a6e2d7ac1f6c81a" target="_top" xlink:title="Safely reads a big&#45;endian 16&#45;bit word from provided pointer.">
<polygon fill="none" stroke="black" points="189,-38.5 189,-57.5 260,-57.5 260,-38.5 189,-38.5"/>
<text text-anchor="middle" x="224.5" y="-45.5" font-family="Helvetica,sans-Serif" font-size="10.00">modbusRBE</text>
</a>
</g>
</g>
<!-- Node1&#45;&gt;Node8 -->
<g id="edge7" class="edge">
<title>Node1&#45;&gt;Node8</title>
<path fill="none" stroke="midnightblue" d="M106.49,-76.41C128.58,-71.05 156.17,-64.35 179.02,-58.8"/>
<polygon fill="midnightblue" stroke="midnightblue" points="179.92,-62.18 188.82,-56.42 178.27,-55.38 179.92,-62.18"/>
</g>
<!-- Node9 -->
<g id="node9" class="node">
<title>Node9</title>
<g id="a_node9"><a xlink:href="base_8h.html#a73b9f793bbe67a1968cc8c53a22d4c4b" target="_top" xlink:title="Safely writes a big&#45;endian 16&#45;bit word to provided pointer.">
<polygon fill="none" stroke="black" points="188,-0.5 188,-19.5 261,-19.5 261,-0.5 188,-0.5"/>
<text text-anchor="middle" x="224.5" y="-7.5" font-family="Helvetica,sans-Serif" font-size="10.00">modbusWBE</text>
</a>
</g>
</g>
<!-- Node1&#45;&gt;Node9 -->
<g id="edge9" class="edge">
<title>Node1&#45;&gt;Node9</title>
<path fill="none" stroke="midnightblue" d="M81.94,-76.41C101.27,-64.28 136.22,-43.26 168,-29 172.7,-26.89 177.71,-24.87 182.72,-22.99"/>
<polygon fill="midnightblue" stroke="midnightblue" points="184.06,-26.23 192.29,-19.56 181.69,-19.65 184.06,-26.23"/>
</g>
<!-- Node3 -->
<g id="node3" class="node">
<title>Node3</title>
<g id="a_node3"><a xlink:href="base_8h.html#a29d2a7853b328113e4fcddae85fd3ce5" target="_top" xlink:title="Returns ModbusError contained in ModbusErrorInfo.">
<polygon fill="none" stroke="black" points="321,-190.5 321,-209.5 431,-209.5 431,-190.5 321,-190.5"/>
<text text-anchor="middle" x="376" y="-197.5" font-family="Helvetica,sans-Serif" font-size="10.00">modbusGetErrorCode</text>
</a>
</g>
</g>
<!-- Node2&#45;&gt;Node3 -->
<g id="edge2" class="edge">
<title>Node2&#45;&gt;Node3</title>
<path fill="none" stroke="midnightblue" d="M260.55,-170.91C280.61,-176.01 306.04,-182.47 327.83,-188.01"/>
<polygon fill="midnightblue" stroke="midnightblue" points="327,-191.41 337.56,-190.48 328.73,-184.63 327,-191.41"/>
</g>
<!-- Node4 -->
<g id="node4" class="node">
<title>Node4</title>
<g id="a_node4"><a xlink:href="base_8h.html#a9ee4c2e633c7a42f88acc09b95f8171e" target="_top" xlink:title="Returns uint8_t describing error source of ModbusErrorInfo.">
<polygon fill="none" stroke="black" points="317,-152.5 317,-171.5 435,-171.5 435,-152.5 317,-152.5"/>
<text text-anchor="middle" x="376" y="-159.5" font-family="Helvetica,sans-Serif" font-size="10.00">modbusGetErrorSource</text>
</a>
</g>
</g>
<!-- Node2&#45;&gt;Node4 -->
<g id="edge3" class="edge">
<title>Node2&#45;&gt;Node4</title>
<path fill="none" stroke="midnightblue" d="M260.55,-162C274.29,-162 290.54,-162 306.42,-162"/>
<polygon fill="midnightblue" stroke="midnightblue" points="306.77,-165.5 316.77,-162 306.77,-158.5 306.77,-165.5"/>
</g>
<!-- Node6 -->
<g id="node6" class="node">
<title>Node6</title>
<g id="a_node6"><a xlink:href="slave_8impl_8h.html#a01b0b86602f899214d564f5bbe6ffdb2" target="_top" xlink:title="Builds an exception response frame.">
<polygon fill="none" stroke="black" points="318.5,-114.5 318.5,-133.5 433.5,-133.5 433.5,-114.5 318.5,-114.5"/>
<text text-anchor="middle" x="376" y="-121.5" font-family="Helvetica,sans-Serif" font-size="10.00">modbusBuildException</text>
</a>
</g>
</g>
<!-- Node5&#45;&gt;Node6 -->
<g id="edge5" class="edge">
<title>Node5&#45;&gt;Node6</title>
<path fill="none" stroke="midnightblue" d="M281.17,-124C289.97,-124 299.16,-124 308.19,-124"/>
<polygon fill="midnightblue" stroke="midnightblue" points="308.29,-127.5 318.29,-124 308.29,-120.5 308.29,-127.5"/>
</g>
<!-- Node6&#45;&gt;Node7 -->
<g id="edge6" class="edge">
<title>Node6&#45;&gt;Node7</title>
<path fill="none" stroke="midnightblue" d="M433.77,-117.67C442.52,-116.7 451.73,-115.67 460.95,-114.64"/>
<polygon fill="midnightblue" stroke="midnightblue" points="461.39,-118.12 470.94,-113.53 460.62,-111.16 461.39,-118.12"/>
</g>
</g>
</svg>
