<?xml version="1.0" encoding="UTF-8" standalone="no"?>
<!DOCTYPE svg PUBLIC "-//W3C//DTD SVG 1.1//EN"
 "http://www.w3.org/Graphics/SVG/1.1/DTD/svg11.dtd">
<!-- Generated by graphviz version 2.44.0 ()
 -->
<!-- Title: modbusBuildException Pages: 1 -->
<svg width="676pt" height="294pt"
 viewBox="0.00 0.00 676.00 294.00" xmlns="http://www.w3.org/2000/svg" xmlns:xlink="http://www.w3.org/1999/xlink">
<g id="graph0" class="graph" transform="scale(1 1) rotate(0) translate(4 290)">
<title>modbusBuildException</title>
<!-- Node1 -->
<g id="node1" class="node">
<title>Node1</title>
<g id="a_node1"><a xlink:title="Builds an exception response frame.">
<polygon fill="#bfbfbf" stroke="black" points="553,-133.5 553,-152.5 668,-152.5 668,-133.5 553,-133.5"/>
<text text-anchor="middle" x="610.5" y="-140.5" font-family="Helvetica,sans-Serif" font-size="10.00">modbusBuildException</text>
</a>
</g>
</g>
<!-- Node2 -->
<g id="node2" class="node">
<title>Node2</title>
<g id="a_node2"><a xlink:href="slave_8h.html#a384f75966903cc0c249eb68a6a20180e" target="_top" xlink:title="Builds an exception PDU.">
<polygon fill="none" stroke="black" points="371.5,-266.5 371.5,-285.5 507.5,-285.5 507.5,-266.5 371.5,-266.5"/>
<text text-anchor="middle" x="439.5" y="-273.5" font-family="Helvetica,sans-Serif" font-size="10.00">modbusBuildExceptionPDU</text>
</a>
</g>
</g>
<!-- Node1&#45;&gt;Node2 -->
<g id="edge1" class="edge">
<title>Node1&#45;&gt;Node2</title>
<path fill="none" stroke="midnightblue" d="M599.5,-161.76C584.86,-187.34 555.17,-232.74 517,-257 510.88,-260.89 504.01,-263.99 496.97,-266.45"/>
<polygon fill="midnightblue" stroke="midnightblue" points="602.72,-163.16 604.51,-152.72 596.6,-159.77 602.72,-163.16"/>
</g>
<!-- Node4 -->
<g id="node4" class="node">
<title>Node4</title>
<g id="a_node4"><a xlink:href="slave_8h.html#a1da09df8858b91c61fe02c25783c2946" target="_top" xlink:title="Builds a Modbus RTU exception.">
<polygon fill="none" stroke="black" points="372,-228.5 372,-247.5 507,-247.5 507,-228.5 372,-228.5"/>
<text text-anchor="middle" x="439.5" y="-235.5" font-family="Helvetica,sans-Serif" font-size="10.00">modbusBuildExceptionRTU</text>
</a>
</g>
</g>
<!-- Node1&#45;&gt;Node4 -->
<g id="edge3" class="edge">
<title>Node1&#45;&gt;Node4</title>
<path fill="none" stroke="midnightblue" d="M593.74,-159.77C576.51,-177.13 547.28,-203.79 517,-219 509.3,-222.87 500.75,-225.99 492.25,-228.49"/>
<polygon fill="midnightblue" stroke="midnightblue" points="596.32,-162.14 600.78,-152.52 591.3,-157.26 596.32,-162.14"/>
</g>
<!-- Node6 -->
<g id="node6" class="node">
<title>Node6</title>
<g id="a_node6"><a xlink:href="slave_8h.html#a778e65356f7da66831f18ec53b975383" target="_top" xlink:title="Builds a Modbus TCP exception.">
<polygon fill="none" stroke="black" points="372.5,-190.5 372.5,-209.5 506.5,-209.5 506.5,-190.5 372.5,-190.5"/>
<text text-anchor="middle" x="439.5" y="-197.5" font-family="Helvetica,sans-Serif" font-size="10.00">modbusBuildExceptionTCP</text>
</a>
</g>
</g>
<!-- Node1&#45;&gt;Node6 -->
<g id="edge5" class="edge">
<title>Node1&#45;&gt;Node6</title>
<path fill="none" stroke="midnightblue" d="M579.19,-156.77C561.33,-164.54 538.16,-174.07 517,-181 506.34,-184.49 494.66,-187.7 483.7,-190.44"/>
<polygon fill="midnightblue" stroke="midnightblue" points="580.78,-159.89 588.52,-152.65 577.96,-153.48 580.78,-159.89"/>
</g>
<!-- Node8 -->
<g id="node8" class="node">
<title>Node8</title>
<g id="a_node8"><a xlink:href="slave_8h.html#aff0a9164a0e37aa619232ae86e3ff97a" target="_top" xlink:title="Parses provided PDU and generates response honorinng pduOffset and padding set in ModbusSlave during ...">
<polygon fill="none" stroke="black" points="383,-152.5 383,-171.5 496,-171.5 496,-152.5 383,-152.5"/>
<text text-anchor="middle" x="439.5" y="-159.5" font-family="Helvetica,sans-Serif" font-size="10.00">modbusParseRequest</text>
</a>
</g>
</g>
<!-- Node1&#45;&gt;Node8 -->
<g id="edge7" class="edge">
<title>Node1&#45;&gt;Node8</title>
<path fill="none" stroke="midnightblue" d="M542.77,-150.5C527.36,-152.23 511.12,-154.06 496.23,-155.73"/>
<polygon fill="midnightblue" stroke="midnightblue" points="543.21,-153.97 552.76,-149.38 542.43,-147.02 543.21,-153.97"/>
</g>
<!-- Node15 -->
<g id="node15" class="node">
<title>Node15</title>
<g id="a_node15"><a xlink:href="slave__func_8h.html#aaff57f2a5c6a8e6c77d36c5dc7e48cfa" target="_top" xlink:title="Handles requests 01, 02, 03 and 04 (Read Multiple XX) and generates response.">
<polygon fill="none" stroke="black" points="362,-114.5 362,-133.5 517,-133.5 517,-114.5 362,-114.5"/>
<text text-anchor="middle" x="439.5" y="-121.5" font-family="Helvetica,sans-Serif" font-size="10.00">modbusParseRequest01020304</text>
</a>
</g>
</g>
<!-- Node1&#45;&gt;Node15 -->
<g id="edge14" class="edge">
<title>Node1&#45;&gt;Node15</title>
<path fill="none" stroke="midnightblue" d="M542.69,-135.49C534.33,-134.55 525.72,-133.58 517.21,-132.62"/>
<polygon fill="midnightblue" stroke="midnightblue" points="542.43,-138.98 552.76,-136.62 543.21,-132.03 542.43,-138.98"/>
</g>
<!-- Node16 -->
<g id="node16" class="node">
<title>Node16</title>
<g id="a_node16"><a xlink:href="slave__func_8h.html#a236881fe30a95d4cc9b031a9e24ae2a8" target="_top" xlink:title="Handles requests 05 and 06 (Write Single XX) and generates response.">
<polygon fill="none" stroke="black" points="372.5,-76.5 372.5,-95.5 506.5,-95.5 506.5,-76.5 372.5,-76.5"/>
<text text-anchor="middle" x="439.5" y="-83.5" font-family="Helvetica,sans-Serif" font-size="10.00">modbusParseRequest0506</text>
</a>
</g>
</g>
<!-- Node1&#45;&gt;Node16 -->
<g id="edge15" class="edge">
<title>Node1&#45;&gt;Node16</title>
<path fill="none" stroke="midnightblue" d="M579.19,-129.23C561.33,-121.46 538.16,-111.93 517,-105 506.34,-101.51 494.66,-98.3 483.7,-95.56"/>
<polygon fill="midnightblue" stroke="midnightblue" points="577.96,-132.52 588.52,-133.35 580.78,-126.11 577.96,-132.52"/>
</g>
<!-- Node17 -->
<g id="node17" class="node">
<title>Node17</title>
<g id="a_node17"><a xlink:href="slave__func_8h.html#a0cb2a7bf59d4014088e1ce1c61523071" target="_top" xlink:title="Handles requests 15 and 16 (Write Multiple XX) and generates response.">
<polygon fill="none" stroke="black" points="372.5,-38.5 372.5,-57.5 506.5,-57.5 506.5,-38.5 372.5,-38.5"/>
<text text-anchor="middle" x="439.5" y="-45.5" font-family="Helvetica,sans-Serif" font-size="10.00">modbusParseRequest1516</text>
</a>
</g>
</g>
<!-- Node1&#45;&gt;Node17 -->
<g id="edge16" class="edge">
<title>Node1&#45;&gt;Node17</title>
<path fill="none" stroke="midnightblue" d="M593.74,-126.23C576.51,-108.87 547.28,-82.21 517,-67 509.3,-63.13 500.75,-60.01 492.25,-57.51"/>
<polygon fill="midnightblue" stroke="midnightblue" points="591.3,-128.74 600.78,-133.48 596.32,-123.86 591.3,-128.74"/>
</g>
<!-- Node18 -->
<g id="node18" class="node">
<title>Node18</title>
<g id="a_node18"><a xlink:href="slave__func_8h.html#a814f041d9acfa578998b8ce8fe53815c" target="_top" xlink:title="Handles request 22 (Mask Write Register) and generates response.">
<polygon fill="none" stroke="black" points="378,-0.5 378,-19.5 501,-19.5 501,-0.5 378,-0.5"/>
<text text-anchor="middle" x="439.5" y="-7.5" font-family="Helvetica,sans-Serif" font-size="10.00">modbusParseRequest22</text>
</a>
</g>
</g>
<!-- Node1&#45;&gt;Node18 -->
<g id="edge17" class="edge">
<title>Node1&#45;&gt;Node18</title>
<path fill="none" stroke="midnightblue" d="M599.5,-124.24C584.86,-98.66 555.17,-53.26 517,-29 510.88,-25.11 504.01,-22.01 496.97,-19.55"/>
<polygon fill="midnightblue" stroke="midnightblue" points="596.6,-126.23 604.51,-133.28 602.72,-122.84 596.6,-126.23"/>
</g>
<!-- Node3 -->
<g id="node3" class="node">
<title>Node3</title>
<g id="a_node3"><a xlink:href="classllm_1_1Slave.html#ac915e0947f733a784a9069f5ff5b9737" target="_top" xlink:title=" ">
<polygon fill="none" stroke="black" points="180,-266.5 180,-285.5 326,-285.5 326,-266.5 180,-266.5"/>
<text text-anchor="middle" x="253" y="-273.5" font-family="Helvetica,sans-Serif" font-size="10.00">llm::Slave::buildExceptionPDU</text>
</a>
</g>
</g>
<!-- Node2&#45;&gt;Node3 -->
<g id="edge2" class="edge">
<title>Node2&#45;&gt;Node3</title>
<path fill="none" stroke="midnightblue" d="M361.23,-276C349.58,-276 337.6,-276 326.06,-276"/>
<polygon fill="midnightblue" stroke="midnightblue" points="361.37,-279.5 371.37,-276 361.37,-272.5 361.37,-279.5"/>
</g>
<!-- Node5 -->
<g id="node5" class="node">
<title>Node5</title>
<g id="a_node5"><a xlink:href="classllm_1_1Slave.html#a10e79600053c725e639225264d966e63" target="_top" xlink:title=" ">
<polygon fill="none" stroke="black" points="180,-228.5 180,-247.5 326,-247.5 326,-228.5 180,-228.5"/>
<text text-anchor="middle" x="253" y="-235.5" font-family="Helvetica,sans-Serif" font-size="10.00">llm::Slave::buildExceptionRTU</text>
</a>
</g>
</g>
<!-- Node4&#45;&gt;Node5 -->
<g id="edge4" class="edge">
<title>Node4&#45;&gt;Node5</title>
<path fill="none" stroke="midnightblue" d="M361.66,-238C349.89,-238 337.78,-238 326.13,-238"/>
<polygon fill="midnightblue" stroke="midnightblue" points="361.89,-241.5 371.89,-238 361.89,-234.5 361.89,-241.5"/>
</g>
<!-- Node7 -->
<g id="node7" class="node">
<title>Node7</title>
<g id="a_node7"><a xlink:href="classllm_1_1Slave.html#a844c37870a4e98bffc091ddfafb8f959" target="_top" xlink:title=" ">
<polygon fill="none" stroke="black" points="180.5,-190.5 180.5,-209.5 325.5,-209.5 325.5,-190.5 180.5,-190.5"/>
<text text-anchor="middle" x="253" y="-197.5" font-family="Helvetica,sans-Serif" font-size="10.00">llm::Slave::buildExceptionTCP</text>
</a>
</g>
</g>
<!-- Node6&#45;&gt;Node7 -->
<g id="edge6" class="edge">
<title>Node6&#45;&gt;Node7</title>
<path fill="none" stroke="midnightblue" d="M362.31,-200C350.15,-200 337.61,-200 325.56,-200"/>
<polygon fill="midnightblue" stroke="midnightblue" points="362.41,-203.5 372.41,-200 362.41,-196.5 362.41,-203.5"/>
</g>
<!-- Node9 -->
<g id="node9" class="node">
<title>Node9</title>
<g id="a_node9"><a xlink:href="slave_8h.html#ab5c5f3146a46cf8d221aca22e9c8a052" target="_top" xlink:title="Parses provided PDU and generates PDU for the response frame.">
<polygon fill="none" stroke="black" points="186,-152.5 186,-171.5 320,-171.5 320,-152.5 186,-152.5"/>
<text text-anchor="middle" x="253" y="-159.5" font-family="Helvetica,sans-Serif" font-size="10.00">modbusParseRequestPDU</text>
</a>
</g>
</g>
<!-- Node8&#45;&gt;Node9 -->
<g id="edge8" class="edge">
<title>Node8&#45;&gt;Node9</title>
<path fill="none" stroke="midnightblue" d="M372.5,-162C355.51,-162 337.22,-162 320.22,-162"/>
<polygon fill="midnightblue" stroke="midnightblue" points="372.89,-165.5 382.89,-162 372.89,-158.5 372.89,-165.5"/>
</g>
<!-- Node11 -->
<g id="node11" class="node">
<title>Node11</title>
<g id="a_node11"><a xlink:href="slave_8h.html#a6a1e63faa64b7ca4b91d1ce7988be850" target="_top" xlink:title="Parses provided Modbus RTU request frame and generates a Modbus RTU response.">
<polygon fill="none" stroke="black" points="186.5,-114.5 186.5,-133.5 319.5,-133.5 319.5,-114.5 186.5,-114.5"/>
<text text-anchor="middle" x="253" y="-121.5" font-family="Helvetica,sans-Serif" font-size="10.00">modbusParseRequestRTU</text>
</a>
</g>
</g>
<!-- Node8&#45;&gt;Node11 -->
<g id="edge10" class="edge">
<title>Node8&#45;&gt;Node11</title>
<path fill="none" stroke="midnightblue" d="M382.13,-150.39C355.89,-144.99 325.06,-138.64 300.22,-133.52"/>
<polygon fill="midnightblue" stroke="midnightblue" points="381.44,-153.82 391.94,-152.41 382.85,-146.97 381.44,-153.82"/>
</g>
<!-- Node13 -->
<g id="node13" class="node">
<title>Node13</title>
<g id="a_node13"><a xlink:href="slave_8h.html#a5ad3fe86aa14f8982d7c459c68cd8b3e" target="_top" xlink:title="Parses provided Modbus TCP request frame and generates a Modbus TCP response.">
<polygon fill="none" stroke="black" points="187,-76.5 187,-95.5 319,-95.5 319,-76.5 187,-76.5"/>
<text text-anchor="middle" x="253" y="-83.5" font-family="Helvetica,sans-Serif" font-size="10.00">modbusParseRequestTCP</text>
</a>
</g>
</g>
<!-- Node8&#45;&gt;Node13 -->
<g id="edge12" class="edge">
<title>Node8&#45;&gt;Node13</title>
<path fill="none" stroke="midnightblue" d="M373.78,-148.8C369.69,-147.1 365.72,-145.17 362,-143 341.9,-131.28 346.01,-116.87 326,-105 319.44,-101.11 312.08,-98 304.63,-95.53"/>
<polygon fill="midnightblue" stroke="midnightblue" points="372.91,-152.21 383.5,-152.4 375.34,-145.65 372.91,-152.21"/>
</g>
<!-- Node10 -->
<g id="node10" class="node">
<title>Node10</title>
<g id="a_node10"><a xlink:href="classllm_1_1Slave.html#af8cc9d8d58bf7f632f3f3cf7e6b9c84b" target="_top" xlink:title=" ">
<polygon fill="none" stroke="black" points="0,-152.5 0,-171.5 144,-171.5 144,-152.5 0,-152.5"/>
<text text-anchor="middle" x="72" y="-159.5" font-family="Helvetica,sans-Serif" font-size="10.00">llm::Slave::parseRequestPDU</text>
</a>
</g>
</g>
<!-- Node9&#45;&gt;Node10 -->
<g id="edge9" class="edge">
<title>Node9&#45;&gt;Node10</title>
<path fill="none" stroke="midnightblue" d="M175.57,-162C165.19,-162 154.57,-162 144.28,-162"/>
<polygon fill="midnightblue" stroke="midnightblue" points="175.86,-165.5 185.86,-162 175.86,-158.5 175.86,-165.5"/>
</g>
<!-- Node12 -->
<g id="node12" class="node">
<title>Node12</title>
<g id="a_node12"><a xlink:href="classllm_1_1Slave.html#a001591b9a38b69cf29adc853872a09fe" target="_top" xlink:title=" ">
<polygon fill="none" stroke="black" points="0.5,-114.5 0.5,-133.5 143.5,-133.5 143.5,-114.5 0.5,-114.5"/>
<text text-anchor="middle" x="72" y="-121.5" font-family="Helvetica,sans-Serif" font-size="10.00">llm::Slave::parseRequestRTU</text>
</a>
</g>
</g>
<!-- Node11&#45;&gt;Node12 -->
<g id="edge11" class="edge">
<title>Node11&#45;&gt;Node12</title>
<path fill="none" stroke="midnightblue" d="M176.16,-124C165.41,-124 154.4,-124 143.75,-124"/>
<polygon fill="midnightblue" stroke="midnightblue" points="176.36,-127.5 186.36,-124 176.36,-120.5 176.36,-127.5"/>
</g>
<!-- Node14 -->
<g id="node14" class="node">
<title>Node14</title>
<g id="a_node14"><a xlink:href="classllm_1_1Slave.html#a05169339916c3727c780c75157b399b9" target="_top" xlink:title=" ">
<polygon fill="none" stroke="black" points="0.5,-76.5 0.5,-95.5 143.5,-95.5 143.5,-76.5 0.5,-76.5"/>
<text text-anchor="middle" x="72" y="-83.5" font-family="Helvetica,sans-Serif" font-size="10.00">llm::Slave::parseRequestTCP</text>
</a>
</g>
</g>
<!-- Node13&#45;&gt;Node14 -->
<g id="edge13" class="edge">
<title>Node13&#45;&gt;Node14</title>
<path fill="none" stroke="midnightblue" d="M176.84,-86C165.8,-86 154.46,-86 143.52,-86"/>
<polygon fill="midnightblue" stroke="midnightblue" points="176.87,-89.5 186.87,-86 176.87,-82.5 176.87,-89.5"/>
</g>
</g>
</svg>
