<?xml version="1.0" encoding="UTF-8" standalone="no"?>
<!DOCTYPE svg PUBLIC "-//W3C//DTD SVG 1.1//EN"
 "http://www.w3.org/Graphics/SVG/1.1/DTD/svg11.dtd">
<!-- Generated by graphviz version 2.44.0 ()
 -->
<!-- Title: modbusParseRequest01020304 Pages: 1 -->
<svg width="545pt" height="256pt"
 viewBox="0.00 0.00 545.00 256.00" xmlns="http://www.w3.org/2000/svg" xmlns:xlink="http://www.w3.org/1999/xlink">
<g id="graph0" class="graph" transform="scale(1 1) rotate(0) translate(4 252)">
<title>modbusParseRequest01020304</title>
<!-- Node1 -->
<g id="node1" class="node">
<title>Node1</title>
<g id="a_node1"><a xlink:title="Handles requests 01, 02, 03 and 04 (Read Multiple XX) and generates response.">
<polygon fill="#bfbfbf" stroke="black" points="0,-114.5 0,-133.5 155,-133.5 155,-114.5 0,-114.5"/>
<text text-anchor="middle" x="77.5" y="-121.5" font-family="Helvetica,sans-Serif" font-size="10.00">modbusParseRequest01020304</text>
</a>
</g>
</g>
<!-- Node2 -->
<g id="node2" class="node">
<title>Node2</title>
<g id="a_node2"><a xlink:href="base_8h.html#af23a50b36bef9c09ac82214a52ff4d58" target="_top" xlink:title="Returns number of bytes necessary to hold given number of bits.">
<polygon fill="none" stroke="black" points="216.5,-228.5 216.5,-247.5 320.5,-247.5 320.5,-228.5 216.5,-228.5"/>
<text text-anchor="middle" x="268.5" y="-235.5" font-family="Helvetica,sans-Serif" font-size="10.00">modbusBitsToBytes</text>
</a>
</g>
</g>
<!-- Node1&#45;&gt;Node2 -->
<g id="edge1" class="edge">
<title>Node1&#45;&gt;Node2</title>
<path fill="none" stroke="midnightblue" d="M87.06,-133.75C104.57,-153.07 146.61,-196.32 191,-219 195.87,-221.49 201.09,-223.67 206.43,-225.57"/>
<polygon fill="midnightblue" stroke="midnightblue" points="205.52,-228.95 216.11,-228.69 207.67,-222.29 205.52,-228.95"/>
</g>
<!-- Node3 -->
<g id="node3" class="node">
<title>Node3</title>
<g id="a_node3"><a xlink:href="slave_8h.html#a58243ce1e1adaffd0a3260edc2d03603" target="_top" xlink:title="Builds an exception response frame.">
<polygon fill="none" stroke="black" points="211,-190.5 211,-209.5 326,-209.5 326,-190.5 211,-190.5"/>
<text text-anchor="middle" x="268.5" y="-197.5" font-family="Helvetica,sans-Serif" font-size="10.00">modbusBuildException</text>
</a>
</g>
</g>
<!-- Node1&#45;&gt;Node3 -->
<g id="edge2" class="edge">
<title>Node1&#45;&gt;Node3</title>
<path fill="none" stroke="midnightblue" d="M94.74,-133.71C116.15,-146.16 155.29,-167.71 191,-181 197.7,-183.49 204.85,-185.76 211.99,-187.79"/>
<polygon fill="midnightblue" stroke="midnightblue" points="211.11,-191.18 221.68,-190.41 212.94,-184.42 211.11,-191.18"/>
</g>
<!-- Node5 -->
<g id="node5" class="node">
<title>Node5</title>
<g id="a_node5"><a xlink:href="base_8h.html#a61619958551d902c14ab6e51fb842ea0" target="_top" xlink:title="Checks whether provided address range causes an uint16_t overflow.">
<polygon fill="none" stroke="black" points="206,-152.5 206,-171.5 331,-171.5 331,-152.5 206,-152.5"/>
<text text-anchor="middle" x="268.5" y="-159.5" font-family="Helvetica,sans-Serif" font-size="10.00">modbusCheckRangeU16</text>
</a>
</g>
</g>
<!-- Node1&#45;&gt;Node5 -->
<g id="edge4" class="edge">
<title>Node1&#45;&gt;Node5</title>
<path fill="none" stroke="midnightblue" d="M126.19,-133.59C151.7,-138.72 183.28,-145.07 210.12,-150.46"/>
<polygon fill="midnightblue" stroke="midnightblue" points="209.66,-153.94 220.15,-152.48 211.04,-147.08 209.66,-153.94"/>
</g>
<!-- Node6 -->
<g id="node6" class="node">
<title>Node6</title>
<g id="a_node6"><a xlink:href="base_8h.html#a5d9947eb500e2d0c87491a0adce53c2a" target="_top" xlink:title="Writes n&#45;th bit in an array.">
<polygon fill="none" stroke="black" points="219.5,-114.5 219.5,-133.5 317.5,-133.5 317.5,-114.5 219.5,-114.5"/>
<text text-anchor="middle" x="268.5" y="-121.5" font-family="Helvetica,sans-Serif" font-size="10.00">modbusMaskWrite</text>
</a>
</g>
</g>
<!-- Node1&#45;&gt;Node6 -->
<g id="edge5" class="edge">
<title>Node1&#45;&gt;Node6</title>
<path fill="none" stroke="midnightblue" d="M155.1,-124C173.07,-124 191.93,-124 208.96,-124"/>
<polygon fill="midnightblue" stroke="midnightblue" points="209.3,-127.5 219.3,-124 209.3,-120.5 209.3,-127.5"/>
</g>
<!-- Node7 -->
<g id="node7" class="node">
<title>Node7</title>
<g id="a_node7"><a xlink:href="base_8h.html#ace96da9afdf1e1796a6e2d7ac1f6c81a" target="_top" xlink:title="Safely reads a big&#45;endian 16&#45;bit word from provided pointer.">
<polygon fill="none" stroke="black" points="233,-76.5 233,-95.5 304,-95.5 304,-76.5 233,-76.5"/>
<text text-anchor="middle" x="268.5" y="-83.5" font-family="Helvetica,sans-Serif" font-size="10.00">modbusRBE</text>
</a>
</g>
</g>
<!-- Node1&#45;&gt;Node7 -->
<g id="edge6" class="edge">
<title>Node1&#45;&gt;Node7</title>
<path fill="none" stroke="midnightblue" d="M126.19,-114.41C155.93,-108.43 193.94,-100.79 223.05,-94.94"/>
<polygon fill="midnightblue" stroke="midnightblue" points="223.83,-98.35 232.94,-92.95 222.45,-91.49 223.83,-98.35"/>
</g>
<!-- Node8 -->
<g id="node8" class="node">
<title>Node8</title>
<g id="a_node8"><a xlink:href="slave_8h.html#af92eebc644e36158bddfba128235fef6" target="_top" xlink:title="Allocates memory for slave&#39;s response frame.">
<polygon fill="none" stroke="black" points="191,-38.5 191,-57.5 346,-57.5 346,-38.5 191,-38.5"/>
<text text-anchor="middle" x="268.5" y="-45.5" font-family="Helvetica,sans-Serif" font-size="10.00">modbusSlaveAllocateResponse</text>
</a>
</g>
</g>
<!-- Node1&#45;&gt;Node8 -->
<g id="edge7" class="edge">
<title>Node1&#45;&gt;Node8</title>
<path fill="none" stroke="midnightblue" d="M94.74,-114.29C116.15,-101.84 155.29,-80.29 191,-67 197.7,-64.51 204.85,-62.24 211.99,-60.21"/>
<polygon fill="midnightblue" stroke="midnightblue" points="212.94,-63.58 221.68,-57.59 211.11,-56.82 212.94,-63.58"/>
</g>
<!-- Node9 -->
<g id="node9" class="node">
<title>Node9</title>
<g id="a_node9"><a xlink:href="base_8h.html#a73b9f793bbe67a1968cc8c53a22d4c4b" target="_top" xlink:title="Safely writes a big&#45;endian 16&#45;bit word to provided pointer.">
<polygon fill="none" stroke="black" points="232,-0.5 232,-19.5 305,-19.5 305,-0.5 232,-0.5"/>
<text text-anchor="middle" x="268.5" y="-7.5" font-family="Helvetica,sans-Serif" font-size="10.00">modbusWBE</text>
</a>
</g>
</g>
<!-- Node1&#45;&gt;Node9 -->
<g id="edge8" class="edge">
<title>Node1&#45;&gt;Node9</title>
<path fill="none" stroke="midnightblue" d="M87.06,-114.25C104.57,-94.93 146.61,-51.68 191,-29 200.51,-24.14 211.34,-20.48 221.79,-17.73"/>
<polygon fill="midnightblue" stroke="midnightblue" points="222.73,-21.11 231.64,-15.38 221.1,-14.3 222.73,-21.11"/>
</g>
<!-- Node4 -->
<g id="node4" class="node">
<title>Node4</title>
<g id="a_node4"><a xlink:href="slave_8impl_8h.html#aa87aa17ffca453550f7b0489b39f077b" target="_top" xlink:title="Allocates memory for slave&#39;s response frame.">
<polygon fill="none" stroke="black" points="382,-190.5 382,-209.5 537,-209.5 537,-190.5 382,-190.5"/>
<text text-anchor="middle" x="459.5" y="-197.5" font-family="Helvetica,sans-Serif" font-size="10.00">modbusSlaveAllocateResponse</text>
</a>
</g>
</g>
<!-- Node3&#45;&gt;Node4 -->
<g id="edge3" class="edge">
<title>Node3&#45;&gt;Node4</title>
<path fill="none" stroke="midnightblue" d="M326.21,-200C340.57,-200 356.32,-200 371.79,-200"/>
<polygon fill="midnightblue" stroke="midnightblue" points="371.91,-203.5 381.91,-200 371.91,-196.5 371.91,-203.5"/>
</g>
</g>
</svg>
