<?xml version="1.0" encoding="UTF-8" standalone="no"?>
<!DOCTYPE svg PUBLIC "-//W3C//DTD SVG 1.1//EN"
 "http://www.w3.org/Graphics/SVG/1.1/DTD/svg11.dtd">
<!-- Generated by graphviz version 2.44.0 ()
 -->
<!-- Title: modbusSlaveAllocateResponse Pages: 1 -->
<svg width="675pt" height="294pt"
 viewBox="0.00 0.00 675.00 294.00" xmlns="http://www.w3.org/2000/svg" xmlns:xlink="http://www.w3.org/1999/xlink">
<g id="graph0" class="graph" transform="scale(1 1) rotate(0) translate(4 290)">
<title>modbusSlaveAllocateResponse</title>
<!-- Node1 -->
<g id="node1" class="node">
<title>Node1</title>
<g id="a_node1"><a xlink:title="Allocates memory for slave&#39;s response frame.">
<polygon fill="#bfbfbf" stroke="black" points="512,-76.5 512,-95.5 667,-95.5 667,-76.5 512,-76.5"/>
<text text-anchor="middle" x="589.5" y="-83.5" font-family="Helvetica,sans-Serif" font-size="10.00">modbusSlaveAllocateResponse</text>
</a>
</g>
</g>
<!-- Node2 -->
<g id="node2" class="node">
<title>Node2</title>
<g id="a_node2"><a xlink:href="slave_8h.html#a58243ce1e1adaffd0a3260edc2d03603" target="_top" xlink:title="Builds an exception response frame.">
<polygon fill="none" stroke="black" points="361,-152.5 361,-171.5 476,-171.5 476,-152.5 361,-152.5"/>
<text text-anchor="middle" x="418.5" y="-159.5" font-family="Helvetica,sans-Serif" font-size="10.00">modbusBuildException</text>
</a>
</g>
</g>
<!-- Node1&#45;&gt;Node2 -->
<g id="edge1" class="edge">
<title>Node1&#45;&gt;Node2</title>
<path fill="none" stroke="midnightblue" d="M559.18,-99.86C536.55,-110.48 504.4,-125.41 476,-138 464.99,-142.88 452.69,-148.13 442.39,-152.47"/>
<polygon fill="midnightblue" stroke="midnightblue" points="560.7,-103.01 568.26,-95.59 557.72,-96.67 560.7,-103.01"/>
</g>
<!-- Node10 -->
<g id="node10" class="node">
<title>Node10</title>
<g id="a_node10"><a xlink:href="slave__func_8h.html#aaff57f2a5c6a8e6c77d36c5dc7e48cfa" target="_top" xlink:title="Handles requests 01, 02, 03 and 04 (Read Multiple XX) and generates response.">
<polygon fill="none" stroke="black" points="170,-114.5 170,-133.5 325,-133.5 325,-114.5 170,-114.5"/>
<text text-anchor="middle" x="247.5" y="-121.5" font-family="Helvetica,sans-Serif" font-size="10.00">modbusParseRequest01020304</text>
</a>
</g>
</g>
<!-- Node1&#45;&gt;Node10 -->
<g id="edge13" class="edge">
<title>Node1&#45;&gt;Node10</title>
<path fill="none" stroke="midnightblue" d="M503.46,-96.75C494.2,-97.87 484.9,-98.98 476,-100 425.79,-105.77 369.29,-111.74 325.15,-116.27"/>
<polygon fill="midnightblue" stroke="midnightblue" points="503.98,-100.22 513.49,-95.53 503.14,-93.27 503.98,-100.22"/>
</g>
<!-- Node11 -->
<g id="node11" class="node">
<title>Node11</title>
<g id="a_node11"><a xlink:href="slave__func_8h.html#a236881fe30a95d4cc9b031a9e24ae2a8" target="_top" xlink:title="Handles requests 05 and 06 (Write Single XX) and generates response.">
<polygon fill="none" stroke="black" points="180.5,-76.5 180.5,-95.5 314.5,-95.5 314.5,-76.5 180.5,-76.5"/>
<text text-anchor="middle" x="247.5" y="-83.5" font-family="Helvetica,sans-Serif" font-size="10.00">modbusParseRequest0506</text>
</a>
</g>
</g>
<!-- Node1&#45;&gt;Node11 -->
<g id="edge14" class="edge">
<title>Node1&#45;&gt;Node11</title>
<path fill="none" stroke="midnightblue" d="M501.49,-86C443.3,-86 367.92,-86 314.63,-86"/>
<polygon fill="midnightblue" stroke="midnightblue" points="501.77,-89.5 511.77,-86 501.77,-82.5 501.77,-89.5"/>
</g>
<!-- Node12 -->
<g id="node12" class="node">
<title>Node12</title>
<g id="a_node12"><a xlink:href="slave__func_8h.html#a0cb2a7bf59d4014088e1ce1c61523071" target="_top" xlink:title="Handles requests 15 and 16 (Write Multiple XX) and generates response.">
<polygon fill="none" stroke="black" points="180.5,-38.5 180.5,-57.5 314.5,-57.5 314.5,-38.5 180.5,-38.5"/>
<text text-anchor="middle" x="247.5" y="-45.5" font-family="Helvetica,sans-Serif" font-size="10.00">modbusParseRequest1516</text>
</a>
</g>
</g>
<!-- Node1&#45;&gt;Node12 -->
<g id="edge15" class="edge">
<title>Node1&#45;&gt;Node12</title>
<path fill="none" stroke="midnightblue" d="M501.49,-76.27C443.3,-69.77 367.92,-61.35 314.63,-55.39"/>
<polygon fill="midnightblue" stroke="midnightblue" points="501.45,-79.79 511.77,-77.42 502.22,-72.84 501.45,-79.79"/>
</g>
<!-- Node13 -->
<g id="node13" class="node">
<title>Node13</title>
<g id="a_node13"><a xlink:href="slave__func_8h.html#a814f041d9acfa578998b8ce8fe53815c" target="_top" xlink:title="Handles request 22 (Mask Write Register) and generates response.">
<polygon fill="none" stroke="black" points="186,-0.5 186,-19.5 309,-19.5 309,-0.5 186,-0.5"/>
<text text-anchor="middle" x="247.5" y="-7.5" font-family="Helvetica,sans-Serif" font-size="10.00">modbusParseRequest22</text>
</a>
</g>
</g>
<!-- Node1&#45;&gt;Node13 -->
<g id="edge16" class="edge">
<title>Node1&#45;&gt;Node13</title>
<path fill="none" stroke="midnightblue" d="M541.71,-73.96C521.54,-68.86 497.65,-62.98 476,-58 414.04,-43.76 342.21,-28.87 296.1,-19.52"/>
<polygon fill="midnightblue" stroke="midnightblue" points="541.04,-77.39 551.59,-76.46 542.76,-70.61 541.04,-77.39"/>
</g>
<!-- Node3 -->
<g id="node3" class="node">
<title>Node3</title>
<g id="a_node3"><a xlink:href="slave_8h.html#a384f75966903cc0c249eb68a6a20180e" target="_top" xlink:title="Builds an exception PDU.">
<polygon fill="none" stroke="black" points="179.5,-266.5 179.5,-285.5 315.5,-285.5 315.5,-266.5 179.5,-266.5"/>
<text text-anchor="middle" x="247.5" y="-273.5" font-family="Helvetica,sans-Serif" font-size="10.00">modbusBuildExceptionPDU</text>
</a>
</g>
</g>
<!-- Node2&#45;&gt;Node3 -->
<g id="edge2" class="edge">
<title>Node2&#45;&gt;Node3</title>
<path fill="none" stroke="midnightblue" d="M405.11,-179.79C389.12,-201.39 359.24,-237.35 325,-257 318.23,-260.88 310.69,-263.98 303.05,-266.45"/>
<polygon fill="midnightblue" stroke="midnightblue" points="408.08,-181.67 411.09,-171.51 402.4,-177.57 408.08,-181.67"/>
</g>
<!-- Node4 -->
<g id="node4" class="node">
<title>Node4</title>
<g id="a_node4"><a xlink:href="slave_8h.html#a1da09df8858b91c61fe02c25783c2946" target="_top" xlink:title="Builds a Modbus RTU exception.">
<polygon fill="none" stroke="black" points="180,-228.5 180,-247.5 315,-247.5 315,-228.5 180,-228.5"/>
<text text-anchor="middle" x="247.5" y="-235.5" font-family="Helvetica,sans-Serif" font-size="10.00">modbusBuildExceptionRTU</text>
</a>
</g>
</g>
<!-- Node2&#45;&gt;Node4 -->
<g id="edge3" class="edge">
<title>Node2&#45;&gt;Node4</title>
<path fill="none" stroke="midnightblue" d="M396.12,-177.84C378,-190.58 350.92,-208.11 325,-219 316.04,-222.76 306.17,-225.9 296.58,-228.47"/>
<polygon fill="midnightblue" stroke="midnightblue" points="398.63,-180.34 404.72,-171.67 394.55,-174.65 398.63,-180.34"/>
</g>
<!-- Node5 -->
<g id="node5" class="node">
<title>Node5</title>
<g id="a_node5"><a xlink:href="slave_8h.html#a778e65356f7da66831f18ec53b975383" target="_top" xlink:title="Builds a Modbus TCP exception.">
<polygon fill="none" stroke="black" points="180.5,-190.5 180.5,-209.5 314.5,-209.5 314.5,-190.5 180.5,-190.5"/>
<text text-anchor="middle" x="247.5" y="-197.5" font-family="Helvetica,sans-Serif" font-size="10.00">modbusBuildExceptionTCP</text>
</a>
</g>
</g>
<!-- Node2&#45;&gt;Node5 -->
<g id="edge4" class="edge">
<title>Node2&#45;&gt;Node5</title>
<path fill="none" stroke="midnightblue" d="M364.91,-173.82C341.09,-179.18 313.29,-185.43 290.84,-190.48"/>
<polygon fill="midnightblue" stroke="midnightblue" points="365.87,-177.2 374.85,-171.59 364.33,-170.37 365.87,-177.2"/>
</g>
<!-- Node6 -->
<g id="node6" class="node">
<title>Node6</title>
<g id="a_node6"><a xlink:href="slave_8h.html#aff0a9164a0e37aa619232ae86e3ff97a" target="_top" xlink:title="Parses provided PDU and generates response honorinng pduOffset and padding set in ModbusSlave during ...">
<polygon fill="none" stroke="black" points="191,-152.5 191,-171.5 304,-171.5 304,-152.5 191,-152.5"/>
<text text-anchor="middle" x="247.5" y="-159.5" font-family="Helvetica,sans-Serif" font-size="10.00">modbusParseRequest</text>
</a>
</g>
</g>
<!-- Node2&#45;&gt;Node6 -->
<g id="edge5" class="edge">
<title>Node2&#45;&gt;Node6</title>
<path fill="none" stroke="midnightblue" d="M350.33,-162C335.05,-162 318.98,-162 304.23,-162"/>
<polygon fill="midnightblue" stroke="midnightblue" points="350.76,-165.5 360.76,-162 350.76,-158.5 350.76,-165.5"/>
</g>
<!-- Node2&#45;&gt;Node10 -->
<g id="edge9" class="edge">
<title>Node2&#45;&gt;Node10</title>
<path fill="none" stroke="midnightblue" d="M364.91,-150.18C341.09,-144.82 313.29,-138.57 290.84,-133.52"/>
<polygon fill="midnightblue" stroke="midnightblue" points="364.33,-153.63 374.85,-152.41 365.87,-146.8 364.33,-153.63"/>
</g>
<!-- Node2&#45;&gt;Node11 -->
<g id="edge10" class="edge">
<title>Node2&#45;&gt;Node11</title>
<path fill="none" stroke="midnightblue" d="M396.12,-146.16C378,-133.42 350.92,-115.89 325,-105 316.04,-101.24 306.17,-98.1 296.58,-95.53"/>
<polygon fill="midnightblue" stroke="midnightblue" points="394.55,-149.35 404.72,-152.33 398.63,-143.66 394.55,-149.35"/>
</g>
<!-- Node2&#45;&gt;Node12 -->
<g id="edge11" class="edge">
<title>Node2&#45;&gt;Node12</title>
<path fill="none" stroke="midnightblue" d="M405.11,-144.21C389.12,-122.61 359.24,-86.65 325,-67 318.23,-63.12 310.69,-60.02 303.05,-57.55"/>
<polygon fill="midnightblue" stroke="midnightblue" points="402.4,-146.43 411.09,-152.49 408.08,-142.33 402.4,-146.43"/>
</g>
<!-- Node2&#45;&gt;Node13 -->
<g id="edge12" class="edge">
<title>Node2&#45;&gt;Node13</title>
<path fill="none" stroke="midnightblue" d="M409.47,-142.64C396.31,-113.36 367.29,-58.13 325,-29 319.37,-25.12 313.01,-22.03 306.44,-19.57"/>
<polygon fill="midnightblue" stroke="midnightblue" points="406.41,-144.38 413.6,-152.16 412.83,-141.6 406.41,-144.38"/>
</g>
<!-- Node7 -->
<g id="node7" class="node">
<title>Node7</title>
<g id="a_node7"><a xlink:href="slave_8h.html#ab5c5f3146a46cf8d221aca22e9c8a052" target="_top" xlink:title="Parses provided PDU and generates PDU for the response frame.">
<polygon fill="none" stroke="black" points="0,-190.5 0,-209.5 134,-209.5 134,-190.5 0,-190.5"/>
<text text-anchor="middle" x="67" y="-197.5" font-family="Helvetica,sans-Serif" font-size="10.00">modbusParseRequestPDU</text>
</a>
</g>
</g>
<!-- Node6&#45;&gt;Node7 -->
<g id="edge6" class="edge">
<title>Node6&#45;&gt;Node7</title>
<path fill="none" stroke="midnightblue" d="M191.63,-173.68C166.32,-179.07 136.65,-185.39 112.72,-190.48"/>
<polygon fill="midnightblue" stroke="midnightblue" points="192.4,-177.09 201.46,-171.59 190.95,-170.25 192.4,-177.09"/>
</g>
<!-- Node8 -->
<g id="node8" class="node">
<title>Node8</title>
<g id="a_node8"><a xlink:href="slave_8h.html#a6a1e63faa64b7ca4b91d1ce7988be850" target="_top" xlink:title="Parses provided Modbus RTU request frame and generates a Modbus RTU response.">
<polygon fill="none" stroke="black" points="0.5,-152.5 0.5,-171.5 133.5,-171.5 133.5,-152.5 0.5,-152.5"/>
<text text-anchor="middle" x="67" y="-159.5" font-family="Helvetica,sans-Serif" font-size="10.00">modbusParseRequestRTU</text>
</a>
</g>
</g>
<!-- Node6&#45;&gt;Node8 -->
<g id="edge7" class="edge">
<title>Node6&#45;&gt;Node8</title>
<path fill="none" stroke="midnightblue" d="M180.61,-162C165.33,-162 149.07,-162 133.8,-162"/>
<polygon fill="midnightblue" stroke="midnightblue" points="181,-165.5 191,-162 181,-158.5 181,-165.5"/>
</g>
<!-- Node9 -->
<g id="node9" class="node">
<title>Node9</title>
<g id="a_node9"><a xlink:href="slave_8h.html#a5ad3fe86aa14f8982d7c459c68cd8b3e" target="_top" xlink:title="Parses provided Modbus TCP request frame and generates a Modbus TCP response.">
<polygon fill="none" stroke="black" points="1,-114.5 1,-133.5 133,-133.5 133,-114.5 1,-114.5"/>
<text text-anchor="middle" x="67" y="-121.5" font-family="Helvetica,sans-Serif" font-size="10.00">modbusParseRequestTCP</text>
</a>
</g>
</g>
<!-- Node6&#45;&gt;Node9 -->
<g id="edge8" class="edge">
<title>Node6&#45;&gt;Node9</title>
<path fill="none" stroke="midnightblue" d="M191.63,-150.32C166.32,-144.93 136.65,-138.61 112.72,-133.52"/>
<polygon fill="midnightblue" stroke="midnightblue" points="190.95,-153.75 201.46,-152.41 192.4,-146.91 190.95,-153.75"/>
</g>
</g>
</svg>
