<?xml version="1.0" encoding="UTF-8" standalone="no"?>
<!DOCTYPE svg PUBLIC "-//W3C//DTD SVG 1.1//EN"
 "http://www.w3.org/Graphics/SVG/1.1/DTD/svg11.dtd">
<!-- Generated by graphviz version 2.44.0 ()
 -->
<!-- Title: include/lightmodbus/slave.h Pages: 1 -->
<svg width="469pt" height="307pt"
 viewBox="0.00 0.00 469.00 307.00" xmlns="http://www.w3.org/2000/svg" xmlns:xlink="http://www.w3.org/1999/xlink">
<g id="graph0" class="graph" transform="scale(1 1) rotate(0) translate(4 303)">
<title>include/lightmodbus/slave.h</title>
<!-- Node1 -->
<g id="node1" class="node">
<title>Node1</title>
<g id="a_node1"><a xlink:title=" ">
<polygon fill="#bfbfbf" stroke="black" points="198,-268.5 198,-298.5 301,-298.5 301,-268.5 198,-268.5"/>
<text text-anchor="start" x="206" y="-286.5" font-family="Helvetica,sans-Serif" font-size="10.00">include/lightmodbus</text>
<text text-anchor="middle" x="249.5" y="-275.5" font-family="Helvetica,sans-Serif" font-size="10.00">/slave.h</text>
</a>
</g>
</g>
<!-- Node2 -->
<g id="node2" class="node">
<title>Node2</title>
<g id="a_node2"><a xlink:href="debug_8h.html" target="_top" xlink:title=" ">
<polygon fill="none" stroke="black" points="38,-201.5 38,-231.5 141,-231.5 141,-201.5 38,-201.5"/>
<text text-anchor="start" x="46" y="-219.5" font-family="Helvetica,sans-Serif" font-size="10.00">include/lightmodbus</text>
<text text-anchor="middle" x="89.5" y="-208.5" font-family="Helvetica,sans-Serif" font-size="10.00">/debug.h</text>
</a>
</g>
</g>
<!-- Node1&#45;&gt;Node2 -->
<g id="edge1" class="edge">
<title>Node1&#45;&gt;Node2</title>
<path fill="none" stroke="midnightblue" d="M205.3,-264.54C179.7,-254.14 147.93,-241.24 124.15,-231.58"/>
<polygon fill="midnightblue" stroke="midnightblue" points="204.2,-267.87 214.78,-268.4 206.84,-261.39 204.2,-267.87"/>
</g>
<!-- Node4 -->
<g id="node4" class="node">
<title>Node4</title>
<g id="a_node4"><a xlink:href="lightmodbus_8h.html" target="_top" xlink:title=" ">
<polygon fill="none" stroke="black" points="158,-67.5 158,-97.5 261,-97.5 261,-67.5 158,-67.5"/>
<text text-anchor="start" x="166" y="-85.5" font-family="Helvetica,sans-Serif" font-size="10.00">include/lightmodbus</text>
<text text-anchor="middle" x="209.5" y="-74.5" font-family="Helvetica,sans-Serif" font-size="10.00">/lightmodbus.h</text>
</a>
</g>
</g>
<!-- Node1&#45;&gt;Node4 -->
<g id="edge6" class="edge">
<title>Node1&#45;&gt;Node4</title>
<path fill="none" stroke="midnightblue" d="M233.63,-259.58C218.89,-236.79 197.97,-200.23 189.5,-165 183.81,-141.34 194.05,-113.87 201.87,-97.62"/>
<polygon fill="midnightblue" stroke="midnightblue" points="230.89,-261.78 239.33,-268.18 236.72,-257.91 230.89,-261.78"/>
</g>
<!-- Node6 -->
<g id="node6" class="node">
<title>Node6</title>
<g id="a_node6"><a xlink:href="slave_8impl_8h.html" target="_top" xlink:title=" ">
<polygon fill="none" stroke="black" points="198,-134.5 198,-164.5 301,-164.5 301,-134.5 198,-134.5"/>
<text text-anchor="start" x="206" y="-152.5" font-family="Helvetica,sans-Serif" font-size="10.00">include/lightmodbus</text>
<text text-anchor="middle" x="249.5" y="-141.5" font-family="Helvetica,sans-Serif" font-size="10.00">/slave.impl.h</text>
</a>
</g>
</g>
<!-- Node1&#45;&gt;Node6 -->
<g id="edge7" class="edge">
<title>Node1&#45;&gt;Node6</title>
<path fill="none" stroke="midnightblue" d="M249.5,-258.02C249.5,-230.51 249.5,-186.79 249.5,-164.52"/>
<polygon fill="midnightblue" stroke="midnightblue" points="246,-258.37 249.5,-268.37 253,-258.37 246,-258.37"/>
</g>
<!-- Node7 -->
<g id="node7" class="node">
<title>Node7</title>
<g id="a_node7"><a xlink:href="slave__func_8h.html" target="_top" xlink:title=" ">
<polygon fill="none" stroke="black" points="278,-201.5 278,-231.5 381,-231.5 381,-201.5 278,-201.5"/>
<text text-anchor="start" x="286" y="-219.5" font-family="Helvetica,sans-Serif" font-size="10.00">include/lightmodbus</text>
<text text-anchor="middle" x="329.5" y="-208.5" font-family="Helvetica,sans-Serif" font-size="10.00">/slave_func.h</text>
</a>
</g>
</g>
<!-- Node1&#45;&gt;Node7 -->
<g id="edge9" class="edge">
<title>Node1&#45;&gt;Node7</title>
<path fill="none" stroke="midnightblue" d="M274.87,-261.88C287.03,-252.01 301.28,-240.43 312.18,-231.58"/>
<polygon fill="midnightblue" stroke="midnightblue" points="272.41,-259.37 266.86,-268.4 276.83,-264.81 272.41,-259.37"/>
</g>
<!-- Node8 -->
<g id="node8" class="node">
<title>Node8</title>
<g id="a_node8"><a xlink:href="slave__func_8impl_8h.html" target="_top" xlink:title=" ">
<polygon fill="none" stroke="black" points="358,-134.5 358,-164.5 461,-164.5 461,-134.5 358,-134.5"/>
<text text-anchor="start" x="366" y="-152.5" font-family="Helvetica,sans-Serif" font-size="10.00">include/lightmodbus</text>
<text text-anchor="middle" x="409.5" y="-141.5" font-family="Helvetica,sans-Serif" font-size="10.00">/slave_func.impl.h</text>
</a>
</g>
</g>
<!-- Node1&#45;&gt;Node8 -->
<g id="edge14" class="edge">
<title>Node1&#45;&gt;Node8</title>
<path fill="none" stroke="midnightblue" d="M311.4,-274.03C339.24,-267.14 370.32,-254.65 390.5,-232 407.22,-213.24 410.02,-182.61 410.08,-164.73"/>
<polygon fill="midnightblue" stroke="midnightblue" points="310.29,-270.7 301.31,-276.33 311.84,-277.52 310.29,-270.7"/>
</g>
<!-- Node3 -->
<g id="node3" class="node">
<title>Node3</title>
<g id="a_node3"><a xlink:href="debug_8impl_8h.html" target="_top" xlink:title=" ">
<polygon fill="none" stroke="black" points="0,-134.5 0,-164.5 103,-164.5 103,-134.5 0,-134.5"/>
<text text-anchor="start" x="8" y="-152.5" font-family="Helvetica,sans-Serif" font-size="10.00">include/lightmodbus</text>
<text text-anchor="middle" x="51.5" y="-141.5" font-family="Helvetica,sans-Serif" font-size="10.00">/debug.impl.h</text>
</a>
</g>
</g>
<!-- Node2&#45;&gt;Node3 -->
<g id="edge2" class="edge">
<title>Node2&#45;&gt;Node3</title>
<path fill="none" stroke="midnightblue" d="M76.1,-192.58C70.64,-183.24 64.51,-172.75 59.73,-164.58"/>
<polygon fill="midnightblue" stroke="midnightblue" points="73.19,-194.53 81.25,-201.4 79.23,-191 73.19,-194.53"/>
</g>
<!-- Node2&#45;&gt;Node4 -->
<g id="edge5" class="edge">
<title>Node2&#45;&gt;Node4</title>
<path fill="none" stroke="midnightblue" d="M106.11,-193.34C119.01,-176.55 137.64,-153.18 155.5,-134 167.57,-121.04 182.32,-107.37 193.35,-97.53"/>
<polygon fill="midnightblue" stroke="midnightblue" points="103.2,-191.39 99.92,-201.46 108.76,-195.63 103.2,-191.39"/>
</g>
<!-- Node3&#45;&gt;Node4 -->
<g id="edge3" class="edge">
<title>Node3&#45;&gt;Node4</title>
<path fill="none" stroke="midnightblue" d="M95.15,-130.54C120.43,-120.14 151.8,-107.24 175.28,-97.58"/>
<polygon fill="midnightblue" stroke="midnightblue" points="93.7,-127.35 85.78,-134.4 96.36,-133.83 93.7,-127.35"/>
</g>
<!-- Node5 -->
<g id="node5" class="node">
<title>Node5</title>
<g id="a_node5"><a xlink:href="lightmodbus_8hpp.html" target="_top" xlink:title=" ">
<polygon fill="none" stroke="black" points="158,-0.5 158,-30.5 261,-30.5 261,-0.5 158,-0.5"/>
<text text-anchor="start" x="166" y="-18.5" font-family="Helvetica,sans-Serif" font-size="10.00">include/lightmodbus</text>
<text text-anchor="middle" x="209.5" y="-7.5" font-family="Helvetica,sans-Serif" font-size="10.00">/lightmodbus.hpp</text>
</a>
</g>
</g>
<!-- Node4&#45;&gt;Node5 -->
<g id="edge4" class="edge">
<title>Node4&#45;&gt;Node5</title>
<path fill="none" stroke="midnightblue" d="M209.5,-57.11C209.5,-48.15 209.5,-38.32 209.5,-30.58"/>
<polygon fill="midnightblue" stroke="midnightblue" points="206,-57.4 209.5,-67.4 213,-57.4 206,-57.4"/>
</g>
<!-- Node6&#45;&gt;Node4 -->
<g id="edge8" class="edge">
<title>Node6&#45;&gt;Node4</title>
<path fill="none" stroke="midnightblue" d="M235.57,-125.87C229.78,-116.46 223.24,-105.83 218.16,-97.58"/>
<polygon fill="midnightblue" stroke="midnightblue" points="232.6,-127.71 240.82,-134.4 238.56,-124.05 232.6,-127.71"/>
</g>
<!-- Node7&#45;&gt;Node4 -->
<g id="edge10" class="edge">
<title>Node7&#45;&gt;Node4</title>
<path fill="none" stroke="midnightblue" d="M329.17,-191.21C327.76,-173.64 323.32,-150.25 310.5,-134 297.14,-117.07 276.61,-105.37 257.55,-97.52"/>
<polygon fill="midnightblue" stroke="midnightblue" points="325.68,-191.47 329.71,-201.27 332.67,-191.1 325.68,-191.47"/>
</g>
<!-- Node7&#45;&gt;Node6 -->
<g id="edge11" class="edge">
<title>Node7&#45;&gt;Node6</title>
<path fill="none" stroke="midnightblue" d="M304.13,-194.88C291.97,-185.01 277.72,-173.43 266.82,-164.58"/>
<polygon fill="midnightblue" stroke="midnightblue" points="302.17,-197.81 312.14,-201.4 306.59,-192.37 302.17,-197.81"/>
</g>
<!-- Node7&#45;&gt;Node8 -->
<g id="edge12" class="edge">
<title>Node7&#45;&gt;Node8</title>
<path fill="none" stroke="midnightblue" d="M354.87,-194.88C367.03,-185.01 381.28,-173.43 392.18,-164.58"/>
<polygon fill="midnightblue" stroke="midnightblue" points="352.41,-192.37 346.86,-201.4 356.83,-197.81 352.41,-192.37"/>
</g>
<!-- Node8&#45;&gt;Node4 -->
<g id="edge13" class="edge">
<title>Node8&#45;&gt;Node4</title>
<path fill="none" stroke="midnightblue" d="M356.35,-131.23C324,-120.71 283.19,-107.45 252.81,-97.58"/>
<polygon fill="midnightblue" stroke="midnightblue" points="355.51,-134.63 366.1,-134.4 357.67,-127.98 355.51,-134.63"/>
</g>
</g>
</svg>
