<?xml version="1.0" encoding="UTF-8" standalone="no"?>
<!DOCTYPE svg PUBLIC "-//W3C//DTD SVG 1.1//EN"
 "http://www.w3.org/Graphics/SVG/1.1/DTD/svg11.dtd">
<!-- Generated by graphviz version 2.44.0 ()
 -->
<!-- Title: modbusParseRequestRTU Pages: 1 -->
<svg width="635pt" height="180pt"
 viewBox="0.00 0.00 635.00 180.00" xmlns="http://www.w3.org/2000/svg" xmlns:xlink="http://www.w3.org/1999/xlink">
<g id="graph0" class="graph" transform="scale(1 1) rotate(0) translate(4 176)">
<title>modbusParseRequestRTU</title>
<!-- Node1 -->
<g id="node1" class="node">
<title>Node1</title>
<g id="a_node1"><a xlink:title="Parses provided Modbus RTU request frame and generates a Modbus RTU response.">
<polygon fill="#bfbfbf" stroke="black" points="0,-76.5 0,-95.5 133,-95.5 133,-76.5 0,-76.5"/>
<text text-anchor="middle" x="66.5" y="-83.5" font-family="Helvetica,sans-Serif" font-size="10.00">modbusParseRequestRTU</text>
</a>
</g>
</g>
<!-- Node2 -->
<g id="node2" class="node">
<title>Node2</title>
<g id="a_node2"><a xlink:href="base_8h.html#a11346a546b84663cd92cb30f4ffd1393" target="_top" xlink:title="Calculates 16&#45;bit Modbus CRC of provided data.">
<polygon fill="none" stroke="black" points="190,-152.5 190,-171.5 261,-171.5 261,-152.5 190,-152.5"/>
<text text-anchor="middle" x="225.5" y="-159.5" font-family="Helvetica,sans-Serif" font-size="10.00">modbusCRC</text>
</a>
</g>
</g>
<!-- Node1&#45;&gt;Node2 -->
<g id="edge1" class="edge">
<title>Node1&#45;&gt;Node2</title>
<path fill="none" stroke="midnightblue" d="M82.53,-95.59C101.95,-107.71 137.09,-128.72 169,-143 173.7,-145.1 178.71,-147.12 183.73,-149"/>
<polygon fill="midnightblue" stroke="midnightblue" points="182.7,-152.34 193.29,-152.43 185.06,-145.76 182.7,-152.34"/>
</g>
<!-- Node3 -->
<g id="node3" class="node">
<title>Node3</title>
<g id="a_node3"><a xlink:href="base_8h.html#a64880e7075f445881485396f3aa869c5" target="_top" xlink:title="Checks if ModbusErrorInfo contains an error.">
<polygon fill="none" stroke="black" points="189.5,-114.5 189.5,-133.5 261.5,-133.5 261.5,-114.5 189.5,-114.5"/>
<text text-anchor="middle" x="225.5" y="-121.5" font-family="Helvetica,sans-Serif" font-size="10.00">modbusIsOk</text>
</a>
</g>
</g>
<!-- Node1&#45;&gt;Node3 -->
<g id="edge2" class="edge">
<title>Node1&#45;&gt;Node3</title>
<path fill="none" stroke="midnightblue" d="M107.12,-95.59C129.19,-100.93 156.76,-107.6 179.63,-113.14"/>
<polygon fill="midnightblue" stroke="midnightblue" points="178.9,-116.56 189.44,-115.51 180.55,-109.76 178.9,-116.56"/>
</g>
<!-- Node6 -->
<g id="node6" class="node">
<title>Node6</title>
<g id="a_node6"><a xlink:href="slave_8impl_8h.html#a418b412059b7882bf53b0bfdb11dea31" target="_top" xlink:title="Parses provided PDU and generates response honorinng pduOffset and padding set in ModbusSlave.">
<polygon fill="none" stroke="black" points="169,-76.5 169,-95.5 282,-95.5 282,-76.5 169,-76.5"/>
<text text-anchor="middle" x="225.5" y="-83.5" font-family="Helvetica,sans-Serif" font-size="10.00">modbusParseRequest</text>
</a>
</g>
</g>
<!-- Node1&#45;&gt;Node6 -->
<g id="edge5" class="edge">
<title>Node1&#45;&gt;Node6</title>
<path fill="none" stroke="midnightblue" d="M133.17,-86C141.54,-86 150.1,-86 158.47,-86"/>
<polygon fill="midnightblue" stroke="midnightblue" points="158.55,-89.5 168.55,-86 158.55,-82.5 158.55,-89.5"/>
</g>
<!-- Node9 -->
<g id="node9" class="node">
<title>Node9</title>
<g id="a_node9"><a xlink:href="base_8h.html#a0fc3f293c746d39a93e4c1158f792404" target="_top" xlink:title="Safely reads a little&#45;endian 16&#45;bit word from provided pointer.">
<polygon fill="none" stroke="black" points="190.5,-38.5 190.5,-57.5 260.5,-57.5 260.5,-38.5 190.5,-38.5"/>
<text text-anchor="middle" x="225.5" y="-45.5" font-family="Helvetica,sans-Serif" font-size="10.00">modbusRLE</text>
</a>
</g>
</g>
<!-- Node1&#45;&gt;Node9 -->
<g id="edge8" class="edge">
<title>Node1&#45;&gt;Node9</title>
<path fill="none" stroke="midnightblue" d="M107.12,-76.41C129.51,-70.99 157.55,-64.2 180.61,-58.62"/>
<polygon fill="midnightblue" stroke="midnightblue" points="181.59,-61.99 190.49,-56.23 179.94,-55.18 181.59,-61.99"/>
</g>
<!-- Node10 -->
<g id="node10" class="node">
<title>Node10</title>
<g id="a_node10"><a xlink:href="base_8h.html#af718da7da634f311c2ae8db6be3d9027" target="_top" xlink:title="Safely writes a little&#45;endian 16&#45;bit word to provided pointer.">
<polygon fill="none" stroke="black" points="189.5,-0.5 189.5,-19.5 261.5,-19.5 261.5,-0.5 189.5,-0.5"/>
<text text-anchor="middle" x="225.5" y="-7.5" font-family="Helvetica,sans-Serif" font-size="10.00">modbusWLE</text>
</a>
</g>
</g>
<!-- Node1&#45;&gt;Node10 -->
<g id="edge9" class="edge">
<title>Node1&#45;&gt;Node10</title>
<path fill="none" stroke="midnightblue" d="M82.53,-76.41C101.95,-64.29 137.09,-43.28 169,-29 173.7,-26.9 178.71,-24.88 183.73,-23"/>
<polygon fill="midnightblue" stroke="midnightblue" points="185.06,-26.24 193.29,-19.57 182.7,-19.66 185.06,-26.24"/>
</g>
<!-- Node4 -->
<g id="node4" class="node">
<title>Node4</title>
<g id="a_node4"><a xlink:href="base_8h.html#a29d2a7853b328113e4fcddae85fd3ce5" target="_top" xlink:title="Returns ModbusError contained in ModbusErrorInfo.">
<polygon fill="none" stroke="black" points="322,-152.5 322,-171.5 432,-171.5 432,-152.5 322,-152.5"/>
<text text-anchor="middle" x="377" y="-159.5" font-family="Helvetica,sans-Serif" font-size="10.00">modbusGetErrorCode</text>
</a>
</g>
</g>
<!-- Node3&#45;&gt;Node4 -->
<g id="edge3" class="edge">
<title>Node3&#45;&gt;Node4</title>
<path fill="none" stroke="midnightblue" d="M261.55,-132.91C281.61,-138.01 307.04,-144.47 328.83,-150.01"/>
<polygon fill="midnightblue" stroke="midnightblue" points="328,-153.41 338.56,-152.48 329.73,-146.63 328,-153.41"/>
</g>
<!-- Node5 -->
<g id="node5" class="node">
<title>Node5</title>
<g id="a_node5"><a xlink:href="base_8h.html#a9ee4c2e633c7a42f88acc09b95f8171e" target="_top" xlink:title="Returns uint8_t describing error source of ModbusErrorInfo.">
<polygon fill="none" stroke="black" points="318,-114.5 318,-133.5 436,-133.5 436,-114.5 318,-114.5"/>
<text text-anchor="middle" x="377" y="-121.5" font-family="Helvetica,sans-Serif" font-size="10.00">modbusGetErrorSource</text>
</a>
</g>
</g>
<!-- Node3&#45;&gt;Node5 -->
<g id="edge4" class="edge">
<title>Node3&#45;&gt;Node5</title>
<path fill="none" stroke="midnightblue" d="M261.55,-124C275.29,-124 291.54,-124 307.42,-124"/>
<polygon fill="midnightblue" stroke="midnightblue" points="307.77,-127.5 317.77,-124 307.77,-120.5 307.77,-127.5"/>
</g>
<!-- Node7 -->
<g id="node7" class="node">
<title>Node7</title>
<g id="a_node7"><a xlink:href="slave_8impl_8h.html#a01b0b86602f899214d564f5bbe6ffdb2" target="_top" xlink:title="Builds an exception response frame.">
<polygon fill="none" stroke="black" points="319.5,-76.5 319.5,-95.5 434.5,-95.5 434.5,-76.5 319.5,-76.5"/>
<text text-anchor="middle" x="377" y="-83.5" font-family="Helvetica,sans-Serif" font-size="10.00">modbusBuildException</text>
</a>
</g>
</g>
<!-- Node6&#45;&gt;Node7 -->
<g id="edge6" class="edge">
<title>Node6&#45;&gt;Node7</title>
<path fill="none" stroke="midnightblue" d="M282.17,-86C290.97,-86 300.16,-86 309.19,-86"/>
<polygon fill="midnightblue" stroke="midnightblue" points="309.29,-89.5 319.29,-86 309.29,-82.5 309.29,-89.5"/>
</g>
<!-- Node8 -->
<g id="node8" class="node">
<title>Node8</title>
<g id="a_node8"><a xlink:href="slave_8impl_8h.html#aa87aa17ffca453550f7b0489b39f077b" target="_top" xlink:title="Allocates memory for slave&#39;s response frame.">
<polygon fill="none" stroke="black" points="472,-76.5 472,-95.5 627,-95.5 627,-76.5 472,-76.5"/>
<text text-anchor="middle" x="549.5" y="-83.5" font-family="Helvetica,sans-Serif" font-size="10.00">modbusSlaveAllocateResponse</text>
</a>
</g>
</g>
<!-- Node7&#45;&gt;Node8 -->
<g id="edge7" class="edge">
<title>Node7&#45;&gt;Node8</title>
<path fill="none" stroke="midnightblue" d="M434.77,-86C443.43,-86 452.53,-86 461.66,-86"/>
<polygon fill="midnightblue" stroke="midnightblue" points="461.94,-89.5 471.94,-86 461.94,-82.5 461.94,-89.5"/>
</g>
</g>
</svg>
