<?xml version="1.0" encoding="UTF-8" standalone="no"?>
<!DOCTYPE svg PUBLIC "-//W3C//DTD SVG 1.1//EN"
 "http://www.w3.org/Graphics/SVG/1.1/DTD/svg11.dtd">
<!-- Generated by graphviz version 2.44.0 ()
 -->
<!-- Title: modbusSlaveGetUserPointer Pages: 1 -->
<svg width="878pt" height="327pt"
 viewBox="0.00 0.00 878.00 327.00" xmlns="http://www.w3.org/2000/svg" xmlns:xlink="http://www.w3.org/1999/xlink">
<g id="graph0" class="graph" transform="scale(1 1) rotate(0) translate(4 323)">
<title>modbusSlaveGetUserPointer</title>
<!-- Node1 -->
<g id="node1" class="node">
<title>Node1</title>
<g id="a_node1"><a xlink:title="Retreieves the custom context pointer.">
<polygon fill="#bfbfbf" stroke="black" points="727,-180.5 727,-199.5 870,-199.5 870,-180.5 727,-180.5"/>
<text text-anchor="middle" x="798.5" y="-187.5" font-family="Helvetica,sans-Serif" font-size="10.00">modbusSlaveGetUserPointer</text>
</a>
</g>
</g>
<!-- Node2 -->
<g id="node2" class="node">
<title>Node2</title>
<g id="a_node2"><a xlink:href="slave_8h.html#ad1165bb6d12af1db502a05df5da55aed" target="_top" xlink:title="Allocates memory for slave&#39;s response frame.">
<polygon fill="none" stroke="black" points="536,-180.5 536,-199.5 691,-199.5 691,-180.5 536,-180.5"/>
<text text-anchor="middle" x="613.5" y="-187.5" font-family="Helvetica,sans-Serif" font-size="10.00">modbusSlaveAllocateResponse</text>
</a>
</g>
</g>
<!-- Node1&#45;&gt;Node2 -->
<g id="edge1" class="edge">
<title>Node1&#45;&gt;Node2</title>
<path fill="none" stroke="midnightblue" d="M716.53,-190C708.09,-190 699.53,-190 691.14,-190"/>
<polygon fill="midnightblue" stroke="midnightblue" points="716.75,-193.5 726.75,-190 716.75,-186.5 716.75,-193.5"/>
</g>
<!-- Node15 -->
<g id="node15" class="node">
<title>Node15</title>
<g id="a_node15"><a xlink:href="slave_8h.html#a70695c3b7355bc0a3e6d49c46a4eef1f" target="_top" xlink:title="Frees memory allocated in the ModbusSlave struct.">
<polygon fill="none" stroke="black" points="559,-142.5 559,-161.5 668,-161.5 668,-142.5 559,-142.5"/>
<text text-anchor="middle" x="613.5" y="-149.5" font-family="Helvetica,sans-Serif" font-size="10.00">modbusSlaveDestroy</text>
</a>
</g>
</g>
<!-- Node1&#45;&gt;Node15 -->
<g id="edge18" class="edge">
<title>Node1&#45;&gt;Node15</title>
<path fill="none" stroke="midnightblue" d="M741.25,-178.32C715.29,-172.93 684.88,-166.61 660.35,-161.52"/>
<polygon fill="midnightblue" stroke="midnightblue" points="740.82,-181.8 751.32,-180.41 742.24,-174.95 740.82,-181.8"/>
</g>
<!-- Node16 -->
<g id="node16" class="node">
<title>Node16</title>
<g id="a_node16"><a xlink:href="slave_8h.html#aac289ce160ea61287c98e8a1ee4353d5" target="_top" xlink:title="Frees memory allocated for slave&#39;s response frame.">
<polygon fill="none" stroke="black" points="361,-299.5 361,-318.5 500,-318.5 500,-299.5 361,-299.5"/>
<text text-anchor="middle" x="430.5" y="-306.5" font-family="Helvetica,sans-Serif" font-size="10.00">modbusSlaveFreeResponse</text>
</a>
</g>
</g>
<!-- Node1&#45;&gt;Node16 -->
<g id="edge19" class="edge">
<title>Node1&#45;&gt;Node16</title>
<path fill="none" stroke="midnightblue" d="M758.34,-202.73C684.57,-226.72 526.56,-278.09 460.97,-299.42"/>
<polygon fill="midnightblue" stroke="midnightblue" points="759.74,-205.96 768.17,-199.54 757.58,-199.3 759.74,-205.96"/>
</g>
<!-- Node3 -->
<g id="node3" class="node">
<title>Node3</title>
<g id="a_node3"><a xlink:href="slave_8h.html#a58243ce1e1adaffd0a3260edc2d03603" target="_top" xlink:title="Builds an exception response frame.">
<polygon fill="none" stroke="black" points="373,-152.5 373,-171.5 488,-171.5 488,-152.5 373,-152.5"/>
<text text-anchor="middle" x="430.5" y="-159.5" font-family="Helvetica,sans-Serif" font-size="10.00">modbusBuildException</text>
</a>
</g>
</g>
<!-- Node2&#45;&gt;Node3 -->
<g id="edge2" class="edge">
<title>Node2&#45;&gt;Node3</title>
<path fill="none" stroke="midnightblue" d="M540.83,-178.91C523.37,-176.21 504.94,-173.36 488.29,-170.79"/>
<polygon fill="midnightblue" stroke="midnightblue" points="540.55,-182.41 550.97,-180.48 541.62,-175.49 540.55,-182.41"/>
</g>
<!-- Node11 -->
<g id="node11" class="node">
<title>Node11</title>
<g id="a_node11"><a xlink:href="slave__func_8h.html#aaff57f2a5c6a8e6c77d36c5dc7e48cfa" target="_top" xlink:title="Handles requests 01, 02, 03 and 04 (Read Multiple XX) and generates response.">
<polygon fill="none" stroke="black" points="170,-38.5 170,-57.5 325,-57.5 325,-38.5 170,-38.5"/>
<text text-anchor="middle" x="247.5" y="-45.5" font-family="Helvetica,sans-Serif" font-size="10.00">modbusParseRequest01020304</text>
</a>
</g>
</g>
<!-- Node2&#45;&gt;Node11 -->
<g id="edge14" class="edge">
<title>Node2&#45;&gt;Node11</title>
<path fill="none" stroke="midnightblue" d="M551.53,-177.36C546.18,-175.5 540.92,-173.39 536,-171 517.77,-162.14 517.43,-153.34 500,-143 427.07,-99.74 405.31,-94.2 325,-67 314.5,-63.44 302.99,-60.24 292.15,-57.51"/>
<polygon fill="midnightblue" stroke="midnightblue" points="550.66,-180.75 561.25,-180.43 552.77,-174.07 550.66,-180.75"/>
</g>
<!-- Node12 -->
<g id="node12" class="node">
<title>Node12</title>
<g id="a_node12"><a xlink:href="slave__func_8h.html#a236881fe30a95d4cc9b031a9e24ae2a8" target="_top" xlink:title="Handles requests 05 and 06 (Write Single XX) and generates response.">
<polygon fill="none" stroke="black" points="180.5,-0.5 180.5,-19.5 314.5,-19.5 314.5,-0.5 180.5,-0.5"/>
<text text-anchor="middle" x="247.5" y="-7.5" font-family="Helvetica,sans-Serif" font-size="10.00">modbusParseRequest0506</text>
</a>
</g>
</g>
<!-- Node2&#45;&gt;Node12 -->
<g id="edge15" class="edge">
<title>Node2&#45;&gt;Node12</title>
<path fill="none" stroke="midnightblue" d="M541.54,-175.29C539.6,-173.98 537.75,-172.55 536,-171 502.23,-141.02 533.48,-106.29 500,-76 449.29,-30.11 370.52,-15.42 314.66,-11.08"/>
<polygon fill="midnightblue" stroke="midnightblue" points="540.08,-178.49 550.51,-180.37 543.53,-172.4 540.08,-178.49"/>
</g>
<!-- Node13 -->
<g id="node13" class="node">
<title>Node13</title>
<g id="a_node13"><a xlink:href="slave__func_8h.html#a0cb2a7bf59d4014088e1ce1c61523071" target="_top" xlink:title="Handles requests 15 and 16 (Write Multiple XX) and generates response.">
<polygon fill="none" stroke="black" points="180.5,-266.5 180.5,-285.5 314.5,-285.5 314.5,-266.5 180.5,-266.5"/>
<text text-anchor="middle" x="247.5" y="-273.5" font-family="Helvetica,sans-Serif" font-size="10.00">modbusParseRequest1516</text>
</a>
</g>
</g>
<!-- Node2&#45;&gt;Node13 -->
<g id="edge16" class="edge">
<title>Node2&#45;&gt;Node13</title>
<path fill="none" stroke="midnightblue" d="M577.75,-203.12C555.7,-211.09 526.45,-221.04 500,-228 436.48,-244.7 362.51,-258.12 311.31,-266.47"/>
<polygon fill="midnightblue" stroke="midnightblue" points="579.15,-206.33 587.33,-199.61 576.74,-199.76 579.15,-206.33"/>
</g>
<!-- Node14 -->
<g id="node14" class="node">
<title>Node14</title>
<g id="a_node14"><a xlink:href="slave__func_8h.html#a814f041d9acfa578998b8ce8fe53815c" target="_top" xlink:title="Handles request 22 (Mask Write Register) and generates response.">
<polygon fill="none" stroke="black" points="186,-228.5 186,-247.5 309,-247.5 309,-228.5 186,-228.5"/>
<text text-anchor="middle" x="247.5" y="-235.5" font-family="Helvetica,sans-Serif" font-size="10.00">modbusParseRequest22</text>
</a>
</g>
</g>
<!-- Node2&#45;&gt;Node14 -->
<g id="edge17" class="edge">
<title>Node2&#45;&gt;Node14</title>
<path fill="none" stroke="midnightblue" d="M530.03,-200.88C462.9,-209.73 369.7,-222.02 309.24,-229.99"/>
<polygon fill="midnightblue" stroke="midnightblue" points="530.69,-204.32 540.15,-199.54 529.78,-197.38 530.69,-204.32"/>
</g>
<!-- Node4 -->
<g id="node4" class="node">
<title>Node4</title>
<g id="a_node4"><a xlink:href="slave_8h.html#a384f75966903cc0c249eb68a6a20180e" target="_top" xlink:title="Builds an exception PDU.">
<polygon fill="none" stroke="black" points="179.5,-190.5 179.5,-209.5 315.5,-209.5 315.5,-190.5 179.5,-190.5"/>
<text text-anchor="middle" x="247.5" y="-197.5" font-family="Helvetica,sans-Serif" font-size="10.00">modbusBuildExceptionPDU</text>
</a>
</g>
</g>
<!-- Node3&#45;&gt;Node4 -->
<g id="edge3" class="edge">
<title>Node3&#45;&gt;Node4</title>
<path fill="none" stroke="midnightblue" d="M373.86,-173.68C348.19,-179.07 318.11,-185.39 293.85,-190.48"/>
<polygon fill="midnightblue" stroke="midnightblue" points="374.76,-177.07 383.83,-171.59 373.32,-170.22 374.76,-177.07"/>
</g>
<!-- Node5 -->
<g id="node5" class="node">
<title>Node5</title>
<g id="a_node5"><a xlink:href="slave_8h.html#a1da09df8858b91c61fe02c25783c2946" target="_top" xlink:title="Builds a Modbus RTU exception.">
<polygon fill="none" stroke="black" points="180,-152.5 180,-171.5 315,-171.5 315,-152.5 180,-152.5"/>
<text text-anchor="middle" x="247.5" y="-159.5" font-family="Helvetica,sans-Serif" font-size="10.00">modbusBuildExceptionRTU</text>
</a>
</g>
</g>
<!-- Node3&#45;&gt;Node5 -->
<g id="edge4" class="edge">
<title>Node3&#45;&gt;Node5</title>
<path fill="none" stroke="midnightblue" d="M362.71,-162C347.2,-162 330.7,-162 315.21,-162"/>
<polygon fill="midnightblue" stroke="midnightblue" points="362.73,-165.5 372.73,-162 362.73,-158.5 362.73,-165.5"/>
</g>
<!-- Node6 -->
<g id="node6" class="node">
<title>Node6</title>
<g id="a_node6"><a xlink:href="slave_8h.html#a778e65356f7da66831f18ec53b975383" target="_top" xlink:title="Builds a Modbus TCP exception.">
<polygon fill="none" stroke="black" points="180.5,-114.5 180.5,-133.5 314.5,-133.5 314.5,-114.5 180.5,-114.5"/>
<text text-anchor="middle" x="247.5" y="-121.5" font-family="Helvetica,sans-Serif" font-size="10.00">modbusBuildExceptionTCP</text>
</a>
</g>
</g>
<!-- Node3&#45;&gt;Node6 -->
<g id="edge5" class="edge">
<title>Node3&#45;&gt;Node6</title>
<path fill="none" stroke="midnightblue" d="M373.86,-150.32C348.19,-144.93 318.11,-138.61 293.85,-133.52"/>
<polygon fill="midnightblue" stroke="midnightblue" points="373.32,-153.78 383.83,-152.41 374.76,-146.93 373.32,-153.78"/>
</g>
<!-- Node7 -->
<g id="node7" class="node">
<title>Node7</title>
<g id="a_node7"><a xlink:href="slave_8h.html#aff0a9164a0e37aa619232ae86e3ff97a" target="_top" xlink:title="Parses provided PDU and generates response honorinng pduOffset and padding set in ModbusSlave during ...">
<polygon fill="none" stroke="black" points="191,-76.5 191,-95.5 304,-95.5 304,-76.5 191,-76.5"/>
<text text-anchor="middle" x="247.5" y="-83.5" font-family="Helvetica,sans-Serif" font-size="10.00">modbusParseRequest</text>
</a>
</g>
</g>
<!-- Node3&#45;&gt;Node7 -->
<g id="edge6" class="edge">
<title>Node3&#45;&gt;Node7</title>
<path fill="none" stroke="midnightblue" d="M406.17,-147.01C385.52,-134.3 354.22,-116.38 325,-105 315.56,-101.32 305.19,-98.19 295.21,-95.58"/>
<polygon fill="midnightblue" stroke="midnightblue" points="404.52,-150.1 414.86,-152.43 408.23,-144.17 404.52,-150.1"/>
</g>
<!-- Node3&#45;&gt;Node11 -->
<g id="edge10" class="edge">
<title>Node3&#45;&gt;Node11</title>
<path fill="none" stroke="midnightblue" d="M410.99,-145.31C397.19,-132.84 377.89,-115.39 361,-100 344.95,-85.38 344.12,-77.27 325,-67 317.77,-63.12 309.72,-60.01 301.64,-57.53"/>
<polygon fill="midnightblue" stroke="midnightblue" points="409.03,-148.25 418.8,-152.36 413.72,-143.06 409.03,-148.25"/>
</g>
<!-- Node3&#45;&gt;Node12 -->
<g id="edge11" class="edge">
<title>Node3&#45;&gt;Node12</title>
<path fill="none" stroke="midnightblue" d="M419.96,-143.02C404.27,-113.84 370.22,-58.25 325,-29 319.02,-25.14 312.32,-22.06 305.43,-19.6"/>
<polygon fill="midnightblue" stroke="midnightblue" points="417,-144.92 424.73,-152.16 423.2,-141.68 417,-144.92"/>
</g>
<!-- Node3&#45;&gt;Node13 -->
<g id="edge12" class="edge">
<title>Node3&#45;&gt;Node13</title>
<path fill="none" stroke="midnightblue" d="M415.19,-179.5C396.64,-201.01 362.23,-237.11 325,-257 317.76,-260.87 309.71,-263.97 301.63,-266.45"/>
<polygon fill="midnightblue" stroke="midnightblue" points="417.94,-181.67 421.71,-171.77 412.59,-177.16 417.94,-181.67"/>
</g>
<!-- Node3&#45;&gt;Node14 -->
<g id="edge13" class="edge">
<title>Node3&#45;&gt;Node14</title>
<path fill="none" stroke="midnightblue" d="M406.17,-176.99C385.52,-189.7 354.22,-207.62 325,-219 315.56,-222.68 305.19,-225.81 295.21,-228.42"/>
<polygon fill="midnightblue" stroke="midnightblue" points="408.23,-179.83 414.86,-171.57 404.52,-173.9 408.23,-179.83"/>
</g>
<!-- Node8 -->
<g id="node8" class="node">
<title>Node8</title>
<g id="a_node8"><a xlink:href="slave_8h.html#ab5c5f3146a46cf8d221aca22e9c8a052" target="_top" xlink:title="Parses provided PDU and generates PDU for the response frame.">
<polygon fill="none" stroke="black" points="0,-95.5 0,-114.5 134,-114.5 134,-95.5 0,-95.5"/>
<text text-anchor="middle" x="67" y="-102.5" font-family="Helvetica,sans-Serif" font-size="10.00">modbusParseRequestPDU</text>
</a>
</g>
</g>
<!-- Node7&#45;&gt;Node8 -->
<g id="edge7" class="edge">
<title>Node7&#45;&gt;Node8</title>
<path fill="none" stroke="midnightblue" d="M180.67,-93.01C165.48,-94.62 149.32,-96.34 134.12,-97.96"/>
<polygon fill="midnightblue" stroke="midnightblue" points="181.43,-96.45 191,-91.91 180.69,-89.49 181.43,-96.45"/>
</g>
<!-- Node9 -->
<g id="node9" class="node">
<title>Node9</title>
<g id="a_node9"><a xlink:href="slave_8h.html#a6a1e63faa64b7ca4b91d1ce7988be850" target="_top" xlink:title="Parses provided Modbus RTU request frame and generates a Modbus RTU response.">
<polygon fill="none" stroke="black" points="0.5,-228.5 0.5,-247.5 133.5,-247.5 133.5,-228.5 0.5,-228.5"/>
<text text-anchor="middle" x="67" y="-235.5" font-family="Helvetica,sans-Serif" font-size="10.00">modbusParseRequestRTU</text>
</a>
</g>
</g>
<!-- Node7&#45;&gt;Node9 -->
<g id="edge8" class="edge">
<title>Node7&#45;&gt;Node9</title>
<path fill="none" stroke="midnightblue" d="M181.29,-98.85C177.34,-100.64 173.54,-102.68 170,-105 120.1,-137.69 84.71,-203.31 72.59,-228.16"/>
<polygon fill="midnightblue" stroke="midnightblue" points="182.71,-102.06 190.72,-95.12 180.13,-95.55 182.71,-102.06"/>
</g>
<!-- Node10 -->
<g id="node10" class="node">
<title>Node10</title>
<g id="a_node10"><a xlink:href="slave_8h.html#a5ad3fe86aa14f8982d7c459c68cd8b3e" target="_top" xlink:title="Parses provided Modbus TCP request frame and generates a Modbus TCP response.">
<polygon fill="none" stroke="black" points="1,-57.5 1,-76.5 133,-76.5 133,-57.5 1,-57.5"/>
<text text-anchor="middle" x="67" y="-64.5" font-family="Helvetica,sans-Serif" font-size="10.00">modbusParseRequestTCP</text>
</a>
</g>
</g>
<!-- Node7&#45;&gt;Node10 -->
<g id="edge9" class="edge">
<title>Node7&#45;&gt;Node10</title>
<path fill="none" stroke="midnightblue" d="M180.93,-79.02C165.35,-77.36 148.73,-75.59 133.16,-73.94"/>
<polygon fill="midnightblue" stroke="midnightblue" points="180.69,-82.51 191,-80.09 181.43,-75.55 180.69,-82.51"/>
</g>
<!-- Node16&#45;&gt;Node9 -->
<g id="edge20" class="edge">
<title>Node16&#45;&gt;Node9</title>
<path fill="none" stroke="midnightblue" d="M350.68,-313.9C298.43,-314.94 228.91,-312.05 170,-295 135.12,-284.9 99.15,-261.06 80.67,-247.63"/>
<polygon fill="midnightblue" stroke="midnightblue" points="350.98,-317.4 360.89,-313.65 350.8,-310.4 350.98,-317.4"/>
</g>
</g>
</svg>
