<?xml version="1.0" encoding="UTF-8" standalone="no"?>
<!DOCTYPE svg PUBLIC "-//W3C//DTD SVG 1.1//EN"
 "http://www.w3.org/Graphics/SVG/1.1/DTD/svg11.dtd">
<!-- Generated by graphviz version 2.44.0 ()
 -->
<!-- Title: modbusParseRequest01020304 Pages: 1 -->
<svg width="694pt" height="256pt"
 viewBox="0.00 0.00 694.00 256.00" xmlns="http://www.w3.org/2000/svg" xmlns:xlink="http://www.w3.org/1999/xlink">
<g id="graph0" class="graph" transform="scale(1 1) rotate(0) translate(4 252)">
<title>modbusParseRequest01020304</title>
<!-- Node1 -->
<g id="node1" class="node">
<title>Node1</title>
<g id="a_node1"><a xlink:title="Handles requests 01, 02, 03 and 04 (Read Multiple XX) and generates response.">
<polygon fill="#bfbfbf" stroke="black" points="0,-114.5 0,-133.5 155,-133.5 155,-114.5 0,-114.5"/>
<text text-anchor="middle" x="77.5" y="-121.5" font-family="Helvetica,sans-Serif" font-size="10.00">modbusParseRequest01020304</text>
</a>
</g>
</g>
<!-- Node2 -->
<g id="node2" class="node">
<title>Node2</title>
<g id="a_node2"><a xlink:href="base_8h.html#af23a50b36bef9c09ac82214a52ff4d58" target="_top" xlink:title="Returns number of bytes necessary to hold given number of bits.">
<polygon fill="none" stroke="black" points="201.5,-228.5 201.5,-247.5 305.5,-247.5 305.5,-228.5 201.5,-228.5"/>
<text text-anchor="middle" x="253.5" y="-235.5" font-family="Helvetica,sans-Serif" font-size="10.00">modbusBitsToBytes</text>
</a>
</g>
</g>
<!-- Node1&#45;&gt;Node2 -->
<g id="edge1" class="edge">
<title>Node1&#45;&gt;Node2</title>
<path fill="none" stroke="midnightblue" d="M87.17,-133.54C104.88,-152.48 147.26,-195.08 191,-219 194.97,-221.17 199.22,-223.13 203.56,-224.89"/>
<polygon fill="midnightblue" stroke="midnightblue" points="202.56,-228.25 213.15,-228.43 204.98,-221.68 202.56,-228.25"/>
</g>
<!-- Node3 -->
<g id="node3" class="node">
<title>Node3</title>
<g id="a_node3"><a xlink:href="slave_8h.html#a58243ce1e1adaffd0a3260edc2d03603" target="_top" xlink:title="Builds an exception response frame.">
<polygon fill="none" stroke="black" points="196,-190.5 196,-209.5 311,-209.5 311,-190.5 196,-190.5"/>
<text text-anchor="middle" x="253.5" y="-197.5" font-family="Helvetica,sans-Serif" font-size="10.00">modbusBuildException</text>
</a>
</g>
</g>
<!-- Node1&#45;&gt;Node3 -->
<g id="edge2" class="edge">
<title>Node1&#45;&gt;Node3</title>
<path fill="none" stroke="midnightblue" d="M98.25,-133.57C120.59,-144.3 158.14,-162.01 191,-176 199.5,-179.62 208.75,-183.34 217.44,-186.74"/>
<polygon fill="midnightblue" stroke="midnightblue" points="216.34,-190.07 226.93,-190.42 218.87,-183.54 216.34,-190.07"/>
</g>
<!-- Node4 -->
<g id="node4" class="node">
<title>Node4</title>
<g id="a_node4"><a xlink:href="slave_8h.html#ad1165bb6d12af1db502a05df5da55aed" target="_top" xlink:title="Allocates memory for slave&#39;s response frame.">
<polygon fill="none" stroke="black" points="352,-171.5 352,-190.5 507,-190.5 507,-171.5 352,-171.5"/>
<text text-anchor="middle" x="429.5" y="-178.5" font-family="Helvetica,sans-Serif" font-size="10.00">modbusSlaveAllocateResponse</text>
</a>
</g>
</g>
<!-- Node1&#45;&gt;Node4 -->
<g id="edge9" class="edge">
<title>Node1&#45;&gt;Node4</title>
<path fill="none" stroke="midnightblue" d="M134.28,-133.52C152.37,-136.58 172.53,-139.96 191,-143 247.05,-152.22 310.58,-162.37 357.83,-169.86"/>
<polygon fill="midnightblue" stroke="midnightblue" points="357.53,-173.35 367.95,-171.46 358.63,-166.44 357.53,-173.35"/>
</g>
<!-- Node7 -->
<g id="node7" class="node">
<title>Node7</title>
<g id="a_node7"><a xlink:href="base_8h.html#a61619958551d902c14ab6e51fb842ea0" target="_top" xlink:title="Checks whether provided address range causes an uint16_t overflow.">
<polygon fill="none" stroke="black" points="191,-114.5 191,-133.5 316,-133.5 316,-114.5 191,-114.5"/>
<text text-anchor="middle" x="253.5" y="-121.5" font-family="Helvetica,sans-Serif" font-size="10.00">modbusCheckRangeU16</text>
</a>
</g>
</g>
<!-- Node1&#45;&gt;Node7 -->
<g id="edge6" class="edge">
<title>Node1&#45;&gt;Node7</title>
<path fill="none" stroke="midnightblue" d="M155.07,-124C163.56,-124 172.19,-124 180.62,-124"/>
<polygon fill="midnightblue" stroke="midnightblue" points="180.78,-127.5 190.78,-124 180.78,-120.5 180.78,-127.5"/>
</g>
<!-- Node8 -->
<g id="node8" class="node">
<title>Node8</title>
<g id="a_node8"><a xlink:href="base_8h.html#a5d9947eb500e2d0c87491a0adce53c2a" target="_top" xlink:title="Writes n&#45;th bit in an array.">
<polygon fill="none" stroke="black" points="204.5,-76.5 204.5,-95.5 302.5,-95.5 302.5,-76.5 204.5,-76.5"/>
<text text-anchor="middle" x="253.5" y="-83.5" font-family="Helvetica,sans-Serif" font-size="10.00">modbusMaskWrite</text>
</a>
</g>
</g>
<!-- Node1&#45;&gt;Node8 -->
<g id="edge7" class="edge">
<title>Node1&#45;&gt;Node8</title>
<path fill="none" stroke="midnightblue" d="M122.41,-114.41C145.68,-109.33 174.45,-103.04 199.02,-97.68"/>
<polygon fill="midnightblue" stroke="midnightblue" points="199.89,-101.07 208.91,-95.52 198.39,-94.23 199.89,-101.07"/>
</g>
<!-- Node9 -->
<g id="node9" class="node">
<title>Node9</title>
<g id="a_node9"><a xlink:href="base_8h.html#ace96da9afdf1e1796a6e2d7ac1f6c81a" target="_top" xlink:title="Safely reads a big&#45;endian 16&#45;bit word from provided pointer.">
<polygon fill="none" stroke="black" points="218,-38.5 218,-57.5 289,-57.5 289,-38.5 218,-38.5"/>
<text text-anchor="middle" x="253.5" y="-45.5" font-family="Helvetica,sans-Serif" font-size="10.00">modbusRBE</text>
</a>
</g>
</g>
<!-- Node1&#45;&gt;Node9 -->
<g id="edge8" class="edge">
<title>Node1&#45;&gt;Node9</title>
<path fill="none" stroke="midnightblue" d="M95.24,-114.39C116.85,-102.24 155.88,-81.2 191,-67 196.51,-64.77 202.38,-62.65 208.23,-60.69"/>
<polygon fill="midnightblue" stroke="midnightblue" points="209.54,-63.94 217.98,-57.54 207.39,-57.28 209.54,-63.94"/>
</g>
<!-- Node10 -->
<g id="node10" class="node">
<title>Node10</title>
<g id="a_node10"><a xlink:href="base_8h.html#a73b9f793bbe67a1968cc8c53a22d4c4b" target="_top" xlink:title="Safely writes a big&#45;endian 16&#45;bit word to provided pointer.">
<polygon fill="none" stroke="black" points="217,-0.5 217,-19.5 290,-19.5 290,-0.5 217,-0.5"/>
<text text-anchor="middle" x="253.5" y="-7.5" font-family="Helvetica,sans-Serif" font-size="10.00">modbusWBE</text>
</a>
</g>
</g>
<!-- Node1&#45;&gt;Node10 -->
<g id="edge10" class="edge">
<title>Node1&#45;&gt;Node10</title>
<path fill="none" stroke="midnightblue" d="M87.17,-114.46C104.88,-95.52 147.26,-52.92 191,-29 195.96,-26.29 201.37,-23.9 206.85,-21.82"/>
<polygon fill="midnightblue" stroke="midnightblue" points="208.4,-24.99 216.71,-18.41 206.11,-18.37 208.4,-24.99"/>
</g>
<!-- Node3&#45;&gt;Node4 -->
<g id="edge3" class="edge">
<title>Node3&#45;&gt;Node4</title>
<path fill="none" stroke="midnightblue" d="M311.47,-193.78C321.14,-192.72 331.36,-191.61 341.59,-190.49"/>
<polygon fill="midnightblue" stroke="midnightblue" points="342.23,-193.94 351.79,-189.38 341.47,-186.98 342.23,-193.94"/>
</g>
<!-- Node5 -->
<g id="node5" class="node">
<title>Node5</title>
<g id="a_node5"><a xlink:href="base_8h.html#aab33bc005f4c5759d8ac918e5e8b71b9" target="_top" xlink:title="Allocates memory to hold Modbus ADU.">
<polygon fill="none" stroke="black" points="558.5,-190.5 558.5,-209.5 670.5,-209.5 670.5,-190.5 558.5,-190.5"/>
<text text-anchor="middle" x="614.5" y="-197.5" font-family="Helvetica,sans-Serif" font-size="10.00">modbusBufferAllocate</text>
</a>
</g>
</g>
<!-- Node4&#45;&gt;Node5 -->
<g id="edge4" class="edge">
<title>Node4&#45;&gt;Node5</title>
<path fill="none" stroke="midnightblue" d="M507.05,-188.95C520.78,-190.37 534.98,-191.85 548.36,-193.24"/>
<polygon fill="midnightblue" stroke="midnightblue" points="548.1,-196.73 558.41,-194.28 548.82,-189.77 548.1,-196.73"/>
</g>
<!-- Node6 -->
<g id="node6" class="node">
<title>Node6</title>
<g id="a_node6"><a xlink:href="slave_8h.html#abbbf205b4c4a0b74b5ae29b865ca3262" target="_top" xlink:title="Retreieves the custom context pointer.">
<polygon fill="none" stroke="black" points="543,-152.5 543,-171.5 686,-171.5 686,-152.5 543,-152.5"/>
<text text-anchor="middle" x="614.5" y="-159.5" font-family="Helvetica,sans-Serif" font-size="10.00">modbusSlaveGetUserPointer</text>
</a>
</g>
</g>
<!-- Node4&#45;&gt;Node6 -->
<g id="edge5" class="edge">
<title>Node4&#45;&gt;Node6</title>
<path fill="none" stroke="midnightblue" d="M507.05,-173.05C515.57,-172.17 524.26,-171.27 532.83,-170.38"/>
<polygon fill="midnightblue" stroke="midnightblue" points="533.22,-173.85 542.81,-169.34 532.5,-166.89 533.22,-173.85"/>
</g>
</g>
</svg>
