<?xml version="1.0" encoding="UTF-8" standalone="no"?>
<!DOCTYPE svg PUBLIC "-//W3C//DTD SVG 1.1//EN"
 "http://www.w3.org/Graphics/SVG/1.1/DTD/svg11.dtd">
<!-- Generated by graphviz version 2.44.0 ()
 -->
<!-- Title: modbusParseRequest Pages: 1 -->
<svg width="471pt" height="104pt"
 viewBox="0.00 0.00 471.00 104.00" xmlns="http://www.w3.org/2000/svg" xmlns:xlink="http://www.w3.org/1999/xlink">
<g id="graph0" class="graph" transform="scale(1 1) rotate(0) translate(4 100)">
<title>modbusParseRequest</title>
<!-- Node1 -->
<g id="node1" class="node">
<title>Node1</title>
<g id="a_node1"><a xlink:title="Parses provided PDU and generates response honorinng pduOffset and padding set in ModbusSlave during ...">
<polygon fill="#bfbfbf" stroke="black" points="350,-38.5 350,-57.5 463,-57.5 463,-38.5 350,-38.5"/>
<text text-anchor="middle" x="406.5" y="-45.5" font-family="Helvetica,sans-Serif" font-size="10.00">modbusParseRequest</text>
</a>
</g>
</g>
<!-- Node2 -->
<g id="node2" class="node">
<title>Node2</title>
<g id="a_node2"><a xlink:href="slave_8h.html#ab5c5f3146a46cf8d221aca22e9c8a052" target="_top" xlink:title="Parses provided PDU and generates PDU for the response frame.">
<polygon fill="none" stroke="black" points="180,-76.5 180,-95.5 314,-95.5 314,-76.5 180,-76.5"/>
<text text-anchor="middle" x="247" y="-83.5" font-family="Helvetica,sans-Serif" font-size="10.00">modbusParseRequestPDU</text>
</a>
</g>
</g>
<!-- Node1&#45;&gt;Node2 -->
<g id="edge1" class="edge">
<title>Node1&#45;&gt;Node2</title>
<path fill="none" stroke="midnightblue" d="M355.9,-59.97C333.82,-65.29 308.2,-71.48 287.46,-76.48"/>
<polygon fill="midnightblue" stroke="midnightblue" points="356.86,-63.34 365.76,-57.59 355.21,-56.53 356.86,-63.34"/>
</g>
<!-- Node4 -->
<g id="node4" class="node">
<title>Node4</title>
<g id="a_node4"><a xlink:href="slave_8h.html#a6a1e63faa64b7ca4b91d1ce7988be850" target="_top" xlink:title="Parses provided Modbus RTU request frame and generates a Modbus RTU response.">
<polygon fill="none" stroke="black" points="180.5,-38.5 180.5,-57.5 313.5,-57.5 313.5,-38.5 180.5,-38.5"/>
<text text-anchor="middle" x="247" y="-45.5" font-family="Helvetica,sans-Serif" font-size="10.00">modbusParseRequestRTU</text>
</a>
</g>
</g>
<!-- Node1&#45;&gt;Node4 -->
<g id="edge3" class="edge">
<title>Node1&#45;&gt;Node4</title>
<path fill="none" stroke="midnightblue" d="M339.88,-48C331.17,-48 322.25,-48 313.54,-48"/>
<polygon fill="midnightblue" stroke="midnightblue" points="339.97,-51.5 349.97,-48 339.97,-44.5 339.97,-51.5"/>
</g>
<!-- Node6 -->
<g id="node6" class="node">
<title>Node6</title>
<g id="a_node6"><a xlink:href="slave_8h.html#a5ad3fe86aa14f8982d7c459c68cd8b3e" target="_top" xlink:title="Parses provided Modbus TCP request frame and generates a Modbus TCP response.">
<polygon fill="none" stroke="black" points="181,-0.5 181,-19.5 313,-19.5 313,-0.5 181,-0.5"/>
<text text-anchor="middle" x="247" y="-7.5" font-family="Helvetica,sans-Serif" font-size="10.00">modbusParseRequestTCP</text>
</a>
</g>
</g>
<!-- Node1&#45;&gt;Node6 -->
<g id="edge5" class="edge">
<title>Node1&#45;&gt;Node6</title>
<path fill="none" stroke="midnightblue" d="M355.9,-36.03C333.82,-30.71 308.2,-24.52 287.46,-19.52"/>
<polygon fill="midnightblue" stroke="midnightblue" points="355.21,-39.47 365.76,-38.41 356.86,-32.66 355.21,-39.47"/>
</g>
<!-- Node3 -->
<g id="node3" class="node">
<title>Node3</title>
<g id="a_node3"><a xlink:href="classllm_1_1Slave.html#af8cc9d8d58bf7f632f3f3cf7e6b9c84b" target="_top" xlink:title=" ">
<polygon fill="none" stroke="black" points="0,-76.5 0,-95.5 144,-95.5 144,-76.5 0,-76.5"/>
<text text-anchor="middle" x="72" y="-83.5" font-family="Helvetica,sans-Serif" font-size="10.00">llm::Slave::parseRequestPDU</text>
</a>
</g>
</g>
<!-- Node2&#45;&gt;Node3 -->
<g id="edge2" class="edge">
<title>Node2&#45;&gt;Node3</title>
<path fill="none" stroke="midnightblue" d="M169.42,-86C161,-86 152.45,-86 144.1,-86"/>
<polygon fill="midnightblue" stroke="midnightblue" points="169.61,-89.5 179.61,-86 169.61,-82.5 169.61,-89.5"/>
</g>
<!-- Node5 -->
<g id="node5" class="node">
<title>Node5</title>
<g id="a_node5"><a xlink:href="classllm_1_1Slave.html#a001591b9a38b69cf29adc853872a09fe" target="_top" xlink:title=" ">
<polygon fill="none" stroke="black" points="0.5,-38.5 0.5,-57.5 143.5,-57.5 143.5,-38.5 0.5,-38.5"/>
<text text-anchor="middle" x="72" y="-45.5" font-family="Helvetica,sans-Serif" font-size="10.00">llm::Slave::parseRequestRTU</text>
</a>
</g>
</g>
<!-- Node4&#45;&gt;Node5 -->
<g id="edge4" class="edge">
<title>Node4&#45;&gt;Node5</title>
<path fill="none" stroke="midnightblue" d="M169.92,-48C161.17,-48 152.28,-48 143.61,-48"/>
<polygon fill="midnightblue" stroke="midnightblue" points="170.1,-51.5 180.1,-48 170.1,-44.5 170.1,-51.5"/>
</g>
<!-- Node7 -->
<g id="node7" class="node">
<title>Node7</title>
<g id="a_node7"><a xlink:href="classllm_1_1Slave.html#a05169339916c3727c780c75157b399b9" target="_top" xlink:title=" ">
<polygon fill="none" stroke="black" points="0.5,-0.5 0.5,-19.5 143.5,-19.5 143.5,-0.5 0.5,-0.5"/>
<text text-anchor="middle" x="72" y="-7.5" font-family="Helvetica,sans-Serif" font-size="10.00">llm::Slave::parseRequestTCP</text>
</a>
</g>
</g>
<!-- Node6&#45;&gt;Node7 -->
<g id="edge6" class="edge">
<title>Node6&#45;&gt;Node7</title>
<path fill="none" stroke="midnightblue" d="M170.31,-10C161.47,-10 152.47,-10 143.7,-10"/>
<polygon fill="midnightblue" stroke="midnightblue" points="170.6,-13.5 180.6,-10 170.6,-6.5 170.6,-13.5"/>
</g>
</g>
</svg>
