<?xml version="1.0" encoding="UTF-8" standalone="no"?>
<!DOCTYPE svg PUBLIC "-//W3C//DTD SVG 1.1//EN"
 "http://www.w3.org/Graphics/SVG/1.1/DTD/svg11.dtd">
<!-- Generated by graphviz version 2.44.0 ()
 -->
<!-- Title: modbusParseRequest01020304 Pages: 1 -->
<svg width="545pt" height="218pt"
 viewBox="0.00 0.00 545.00 218.00" xmlns="http://www.w3.org/2000/svg" xmlns:xlink="http://www.w3.org/1999/xlink">
<g id="graph0" class="graph" transform="scale(1 1) rotate(0) translate(4 214)">
<title>modbusParseRequest01020304</title>
<!-- Node1 -->
<g id="node1" class="node">
<title>Node1</title>
<g id="a_node1"><a xlink:title="Handles requests 01, 02, 03 and 04 (Read Multiple XX) and generates response.">
<polygon fill="#bfbfbf" stroke="black" points="0,-95.5 0,-114.5 155,-114.5 155,-95.5 0,-95.5"/>
<text text-anchor="middle" x="77.5" y="-102.5" font-family="Helvetica,sans-Serif" font-size="10.00">modbusParseRequest01020304</text>
</a>
</g>
</g>
<!-- Node2 -->
<g id="node2" class="node">
<title>Node2</title>
<g id="a_node2"><a xlink:href="base_8h.html#af23a50b36bef9c09ac82214a52ff4d58" target="_top" xlink:title="Returns number of bytes necessary to hold given number of bits.">
<polygon fill="none" stroke="black" points="216.5,-190.5 216.5,-209.5 320.5,-209.5 320.5,-190.5 216.5,-190.5"/>
<text text-anchor="middle" x="268.5" y="-197.5" font-family="Helvetica,sans-Serif" font-size="10.00">modbusBitsToBytes</text>
</a>
</g>
</g>
<!-- Node1&#45;&gt;Node2 -->
<g id="edge1" class="edge">
<title>Node1&#45;&gt;Node2</title>
<path fill="none" stroke="midnightblue" d="M89.84,-114.68C109.26,-130.79 150.73,-163.08 191,-181 196.45,-183.42 202.25,-185.57 208.14,-187.47"/>
<polygon fill="midnightblue" stroke="midnightblue" points="207.5,-190.93 218.08,-190.43 209.5,-184.22 207.5,-190.93"/>
</g>
<!-- Node3 -->
<g id="node3" class="node">
<title>Node3</title>
<g id="a_node3"><a xlink:href="slave_8h.html#a01b0b86602f899214d564f5bbe6ffdb2" target="_top" xlink:title="Builds an exception response frame.">
<polygon fill="none" stroke="black" points="211,-152.5 211,-171.5 326,-171.5 326,-152.5 211,-152.5"/>
<text text-anchor="middle" x="268.5" y="-159.5" font-family="Helvetica,sans-Serif" font-size="10.00">modbusBuildException</text>
</a>
</g>
</g>
<!-- Node1&#45;&gt;Node3 -->
<g id="edge2" class="edge">
<title>Node1&#45;&gt;Node3</title>
<path fill="none" stroke="midnightblue" d="M104.67,-114.52C127.35,-122.61 161.12,-134.26 191,-143 199.21,-145.4 207.98,-147.77 216.54,-149.96"/>
<polygon fill="midnightblue" stroke="midnightblue" points="215.89,-153.41 226.44,-152.46 217.6,-146.62 215.89,-153.41"/>
</g>
<!-- Node5 -->
<g id="node5" class="node">
<title>Node5</title>
<g id="a_node5"><a xlink:href="base_8h.html#a5d9947eb500e2d0c87491a0adce53c2a" target="_top" xlink:title="Writes n&#45;th bit in an array.">
<polygon fill="none" stroke="black" points="219.5,-114.5 219.5,-133.5 317.5,-133.5 317.5,-114.5 219.5,-114.5"/>
<text text-anchor="middle" x="268.5" y="-121.5" font-family="Helvetica,sans-Serif" font-size="10.00">modbusMaskWrite</text>
</a>
</g>
</g>
<!-- Node1&#45;&gt;Node5 -->
<g id="edge4" class="edge">
<title>Node1&#45;&gt;Node5</title>
<path fill="none" stroke="midnightblue" d="M155.1,-112.7C173.07,-114.51 191.93,-116.4 208.96,-118.11"/>
<polygon fill="midnightblue" stroke="midnightblue" points="209,-121.64 219.3,-119.15 209.7,-114.67 209,-121.64"/>
</g>
<!-- Node6 -->
<g id="node6" class="node">
<title>Node6</title>
<g id="a_node6"><a xlink:href="base_8h.html#ace96da9afdf1e1796a6e2d7ac1f6c81a" target="_top" xlink:title="Safely reads a big&#45;endian 16&#45;bit word from provided pointer.">
<polygon fill="none" stroke="black" points="233,-76.5 233,-95.5 304,-95.5 304,-76.5 233,-76.5"/>
<text text-anchor="middle" x="268.5" y="-83.5" font-family="Helvetica,sans-Serif" font-size="10.00">modbusRBE</text>
</a>
</g>
</g>
<!-- Node1&#45;&gt;Node6 -->
<g id="edge5" class="edge">
<title>Node1&#45;&gt;Node6</title>
<path fill="none" stroke="midnightblue" d="M155.1,-97.3C178.1,-94.99 202.58,-92.53 222.79,-90.49"/>
<polygon fill="midnightblue" stroke="midnightblue" points="223.35,-93.96 232.95,-89.47 222.65,-86.99 223.35,-93.96"/>
</g>
<!-- Node7 -->
<g id="node7" class="node">
<title>Node7</title>
<g id="a_node7"><a xlink:href="slave_8h.html#af92eebc644e36158bddfba128235fef6" target="_top" xlink:title="Allocates memory for slave&#39;s response frame.">
<polygon fill="none" stroke="black" points="191,-38.5 191,-57.5 346,-57.5 346,-38.5 191,-38.5"/>
<text text-anchor="middle" x="268.5" y="-45.5" font-family="Helvetica,sans-Serif" font-size="10.00">modbusSlaveAllocateResponse</text>
</a>
</g>
</g>
<!-- Node1&#45;&gt;Node7 -->
<g id="edge6" class="edge">
<title>Node1&#45;&gt;Node7</title>
<path fill="none" stroke="midnightblue" d="M104.67,-95.48C127.35,-87.39 161.12,-75.74 191,-67 199.21,-64.6 207.98,-62.23 216.54,-60.04"/>
<polygon fill="midnightblue" stroke="midnightblue" points="217.6,-63.38 226.44,-57.54 215.89,-56.59 217.6,-63.38"/>
</g>
<!-- Node8 -->
<g id="node8" class="node">
<title>Node8</title>
<g id="a_node8"><a xlink:href="base_8h.html#a73b9f793bbe67a1968cc8c53a22d4c4b" target="_top" xlink:title="Safely writes a big&#45;endian 16&#45;bit word to provided pointer.">
<polygon fill="none" stroke="black" points="232,-0.5 232,-19.5 305,-19.5 305,-0.5 232,-0.5"/>
<text text-anchor="middle" x="268.5" y="-7.5" font-family="Helvetica,sans-Serif" font-size="10.00">modbusWBE</text>
</a>
</g>
</g>
<!-- Node1&#45;&gt;Node8 -->
<g id="edge7" class="edge">
<title>Node1&#45;&gt;Node8</title>
<path fill="none" stroke="midnightblue" d="M89.84,-95.32C109.26,-79.21 150.73,-46.92 191,-29 200.76,-24.66 211.68,-21.2 222.14,-18.48"/>
<polygon fill="midnightblue" stroke="midnightblue" points="223.09,-21.86 231.99,-16.11 221.44,-15.05 223.09,-21.86"/>
</g>
<!-- Node4 -->
<g id="node4" class="node">
<title>Node4</title>
<g id="a_node4"><a xlink:href="slave_8impl_8h.html#aa87aa17ffca453550f7b0489b39f077b" target="_top" xlink:title="Allocates memory for slave&#39;s response frame.">
<polygon fill="none" stroke="black" points="382,-152.5 382,-171.5 537,-171.5 537,-152.5 382,-152.5"/>
<text text-anchor="middle" x="459.5" y="-159.5" font-family="Helvetica,sans-Serif" font-size="10.00">modbusSlaveAllocateResponse</text>
</a>
</g>
</g>
<!-- Node3&#45;&gt;Node4 -->
<g id="edge3" class="edge">
<title>Node3&#45;&gt;Node4</title>
<path fill="none" stroke="midnightblue" d="M326.21,-162C340.57,-162 356.32,-162 371.79,-162"/>
<polygon fill="midnightblue" stroke="midnightblue" points="371.91,-165.5 381.91,-162 371.91,-158.5 371.91,-165.5"/>
</g>
</g>
</svg>
