<?xml version="1.0" encoding="UTF-8" standalone="no"?>
<!DOCTYPE svg PUBLIC "-//W3C//DTD SVG 1.1//EN"
 "http://www.w3.org/Graphics/SVG/1.1/DTD/svg11.dtd">
<!-- Generated by graphviz version 2.44.0 ()
 -->
<!-- Title: modbusParseRequestRTU Pages: 1 -->
<svg width="661pt" height="256pt"
 viewBox="0.00 0.00 661.00 256.00" xmlns="http://www.w3.org/2000/svg" xmlns:xlink="http://www.w3.org/1999/xlink">
<g id="graph0" class="graph" transform="scale(1 1) rotate(0) translate(4 252)">
<title>modbusParseRequestRTU</title>
<!-- Node1 -->
<g id="node1" class="node">
<title>Node1</title>
<g id="a_node1"><a xlink:title="Parses provided Modbus RTU request frame and generates a Modbus RTU response.">
<polygon fill="#bfbfbf" stroke="black" points="0,-114.5 0,-133.5 133,-133.5 133,-114.5 0,-114.5"/>
<text text-anchor="middle" x="66.5" y="-121.5" font-family="Helvetica,sans-Serif" font-size="10.00">modbusParseRequestRTU</text>
</a>
</g>
</g>
<!-- Node2 -->
<g id="node2" class="node">
<title>Node2</title>
<g id="a_node2"><a xlink:href="base_8h.html#a64880e7075f445881485396f3aa869c5" target="_top" xlink:title="Checks if ModbusErrorInfo contains an error.">
<polygon fill="none" stroke="black" points="202.5,-190.5 202.5,-209.5 274.5,-209.5 274.5,-190.5 202.5,-190.5"/>
<text text-anchor="middle" x="238.5" y="-197.5" font-family="Helvetica,sans-Serif" font-size="10.00">modbusIsOk</text>
</a>
</g>
</g>
<!-- Node1&#45;&gt;Node2 -->
<g id="edge1" class="edge">
<title>Node1&#45;&gt;Node2</title>
<path fill="none" stroke="midnightblue" d="M82.06,-133.67C101.28,-146.08 136.49,-167.59 169,-181 176.54,-184.11 184.76,-186.88 192.8,-189.28"/>
<polygon fill="midnightblue" stroke="midnightblue" points="191.88,-192.66 202.46,-192.02 193.79,-185.93 191.88,-192.66"/>
</g>
<!-- Node5 -->
<g id="node5" class="node">
<title>Node5</title>
<g id="a_node5"><a xlink:href="base_8h.html#af2cafe9debf86bea7042b4c40bb288cd" target="_top" xlink:title="Sets up address and CRC in a Modbus RTU frame.">
<polygon fill="none" stroke="black" points="191.5,-114.5 191.5,-133.5 285.5,-133.5 285.5,-114.5 191.5,-114.5"/>
<text text-anchor="middle" x="238.5" y="-121.5" font-family="Helvetica,sans-Serif" font-size="10.00">modbusPackRTU</text>
</a>
</g>
</g>
<!-- Node1&#45;&gt;Node5 -->
<g id="edge4" class="edge">
<title>Node1&#45;&gt;Node5</title>
<path fill="none" stroke="midnightblue" d="M133.23,-124C149.02,-124 165.74,-124 181.07,-124"/>
<polygon fill="midnightblue" stroke="midnightblue" points="181.43,-127.5 191.43,-124 181.43,-120.5 181.43,-127.5"/>
</g>
<!-- Node8 -->
<g id="node8" class="node">
<title>Node8</title>
<g id="a_node8"><a xlink:href="slave_8impl_8h.html#aff0a9164a0e37aa619232ae86e3ff97a" target="_top" xlink:title="Parses provided PDU and generates response honorinng pduOffset and padding set in ModbusSlave during ...">
<polygon fill="none" stroke="black" points="182,-19.5 182,-38.5 295,-38.5 295,-19.5 182,-19.5"/>
<text text-anchor="middle" x="238.5" y="-26.5" font-family="Helvetica,sans-Serif" font-size="10.00">modbusParseRequest</text>
</a>
</g>
</g>
<!-- Node1&#45;&gt;Node8 -->
<g id="edge7" class="edge">
<title>Node1&#45;&gt;Node8</title>
<path fill="none" stroke="midnightblue" d="M84.37,-114.49C104.49,-103.16 139.18,-83.65 169,-67 183.05,-59.16 198.74,-50.45 211.55,-43.35"/>
<polygon fill="midnightblue" stroke="midnightblue" points="213.26,-46.41 220.31,-38.5 209.87,-40.28 213.26,-46.41"/>
</g>
<!-- Node11 -->
<g id="node11" class="node">
<title>Node11</title>
<g id="a_node11"><a xlink:href="slave_8impl_8h.html#a5e517b65cb8b32010146fa80b78bc848" target="_top" xlink:title="Frees memory allocated for slave&#39;s response frame.">
<polygon fill="none" stroke="black" points="169,-152.5 169,-171.5 308,-171.5 308,-152.5 169,-152.5"/>
<text text-anchor="middle" x="238.5" y="-159.5" font-family="Helvetica,sans-Serif" font-size="10.00">modbusSlaveFreeResponse</text>
</a>
</g>
</g>
<!-- Node1&#45;&gt;Node11 -->
<g id="edge10" class="edge">
<title>Node1&#45;&gt;Node11</title>
<path fill="none" stroke="midnightblue" d="M110.4,-133.59C133.03,-138.65 161,-144.9 184.93,-150.25"/>
<polygon fill="midnightblue" stroke="midnightblue" points="184.39,-153.71 194.91,-152.48 185.91,-146.88 184.39,-153.71"/>
</g>
<!-- Node12 -->
<g id="node12" class="node">
<title>Node12</title>
<g id="a_node12"><a xlink:href="base_8h.html#a4dba88e9baf690b8dafa0fad81eb7d07" target="_top" xlink:title="Unpacks data from a Modbus RTU frame and optionally checks CRC.">
<polygon fill="none" stroke="black" points="186,-76.5 186,-95.5 291,-95.5 291,-76.5 186,-76.5"/>
<text text-anchor="middle" x="238.5" y="-83.5" font-family="Helvetica,sans-Serif" font-size="10.00">modbusUnpackRTU</text>
</a>
</g>
</g>
<!-- Node1&#45;&gt;Node12 -->
<g id="edge12" class="edge">
<title>Node1&#45;&gt;Node12</title>
<path fill="none" stroke="midnightblue" d="M110.4,-114.41C133.03,-109.35 161,-103.1 184.93,-97.75"/>
<polygon fill="midnightblue" stroke="midnightblue" points="185.91,-101.12 194.91,-95.52 184.39,-94.29 185.91,-101.12"/>
</g>
<!-- Node3 -->
<g id="node3" class="node">
<title>Node3</title>
<g id="a_node3"><a xlink:href="base_8h.html#a29d2a7853b328113e4fcddae85fd3ce5" target="_top" xlink:title="Returns ModbusError contained in ModbusErrorInfo.">
<polygon fill="none" stroke="black" points="348,-190.5 348,-209.5 458,-209.5 458,-190.5 348,-190.5"/>
<text text-anchor="middle" x="403" y="-197.5" font-family="Helvetica,sans-Serif" font-size="10.00">modbusGetErrorCode</text>
</a>
</g>
</g>
<!-- Node2&#45;&gt;Node3 -->
<g id="edge2" class="edge">
<title>Node2&#45;&gt;Node3</title>
<path fill="none" stroke="midnightblue" d="M274.76,-200C293.21,-200 316.39,-200 337.88,-200"/>
<polygon fill="midnightblue" stroke="midnightblue" points="337.94,-203.5 347.94,-200 337.94,-196.5 337.94,-203.5"/>
</g>
<!-- Node4 -->
<g id="node4" class="node">
<title>Node4</title>
<g id="a_node4"><a xlink:href="base_8h.html#a9ee4c2e633c7a42f88acc09b95f8171e" target="_top" xlink:title="Returns uint8_t describing error source of ModbusErrorInfo.">
<polygon fill="none" stroke="black" points="344,-228.5 344,-247.5 462,-247.5 462,-228.5 344,-228.5"/>
<text text-anchor="middle" x="403" y="-235.5" font-family="Helvetica,sans-Serif" font-size="10.00">modbusGetErrorSource</text>
</a>
</g>
</g>
<!-- Node2&#45;&gt;Node4 -->
<g id="edge3" class="edge">
<title>Node2&#45;&gt;Node4</title>
<path fill="none" stroke="midnightblue" d="M274.76,-208.25C297.16,-213.48 326.51,-220.35 351.37,-226.16"/>
<polygon fill="midnightblue" stroke="midnightblue" points="350.83,-229.63 361.37,-228.5 352.43,-222.81 350.83,-229.63"/>
</g>
<!-- Node6 -->
<g id="node6" class="node">
<title>Node6</title>
<g id="a_node6"><a xlink:href="base_8h.html#a11346a546b84663cd92cb30f4ffd1393" target="_top" xlink:title="Calculates 16&#45;bit Modbus CRC of provided data.">
<polygon fill="none" stroke="black" points="367.5,-76.5 367.5,-95.5 438.5,-95.5 438.5,-76.5 367.5,-76.5"/>
<text text-anchor="middle" x="403" y="-83.5" font-family="Helvetica,sans-Serif" font-size="10.00">modbusCRC</text>
</a>
</g>
</g>
<!-- Node5&#45;&gt;Node6 -->
<g id="edge5" class="edge">
<title>Node5&#45;&gt;Node6</title>
<path fill="none" stroke="midnightblue" d="M280.51,-114.41C303.95,-108.93 333.38,-102.05 357.4,-96.43"/>
<polygon fill="midnightblue" stroke="midnightblue" points="358.39,-99.79 367.33,-94.11 356.8,-92.98 358.39,-99.79"/>
</g>
<!-- Node7 -->
<g id="node7" class="node">
<title>Node7</title>
<g id="a_node7"><a xlink:href="base_8h.html#af718da7da634f311c2ae8db6be3d9027" target="_top" xlink:title="Safely writes a little&#45;endian 16&#45;bit word to provided pointer.">
<polygon fill="none" stroke="black" points="367,-114.5 367,-133.5 439,-133.5 439,-114.5 367,-114.5"/>
<text text-anchor="middle" x="403" y="-121.5" font-family="Helvetica,sans-Serif" font-size="10.00">modbusWLE</text>
</a>
</g>
</g>
<!-- Node5&#45;&gt;Node7 -->
<g id="edge6" class="edge">
<title>Node5&#45;&gt;Node7</title>
<path fill="none" stroke="midnightblue" d="M285.63,-124C307.91,-124 334.54,-124 356.71,-124"/>
<polygon fill="midnightblue" stroke="midnightblue" points="356.87,-127.5 366.87,-124 356.87,-120.5 356.87,-127.5"/>
</g>
<!-- Node9 -->
<g id="node9" class="node">
<title>Node9</title>
<g id="a_node9"><a xlink:href="slave_8impl_8h.html#a58243ce1e1adaffd0a3260edc2d03603" target="_top" xlink:title="Builds an exception response frame.">
<polygon fill="none" stroke="black" points="345.5,-0.5 345.5,-19.5 460.5,-19.5 460.5,-0.5 345.5,-0.5"/>
<text text-anchor="middle" x="403" y="-7.5" font-family="Helvetica,sans-Serif" font-size="10.00">modbusBuildException</text>
</a>
</g>
</g>
<!-- Node8&#45;&gt;Node9 -->
<g id="edge8" class="edge">
<title>Node8&#45;&gt;Node9</title>
<path fill="none" stroke="midnightblue" d="M295.42,-22.46C308.3,-20.96 322.12,-19.34 335.4,-17.79"/>
<polygon fill="midnightblue" stroke="midnightblue" points="335.9,-21.25 345.42,-16.62 335.08,-14.3 335.9,-21.25"/>
</g>
<!-- Node10 -->
<g id="node10" class="node">
<title>Node10</title>
<g id="a_node10"><a xlink:href="slave_8impl_8h.html#aa87aa17ffca453550f7b0489b39f077b" target="_top" xlink:title="Allocates memory for slave&#39;s response frame.">
<polygon fill="none" stroke="black" points="498,-76.5 498,-95.5 653,-95.5 653,-76.5 498,-76.5"/>
<text text-anchor="middle" x="575.5" y="-83.5" font-family="Helvetica,sans-Serif" font-size="10.00">modbusSlaveAllocateResponse</text>
</a>
</g>
</g>
<!-- Node9&#45;&gt;Node10 -->
<g id="edge9" class="edge">
<title>Node9&#45;&gt;Node10</title>
<path fill="none" stroke="midnightblue" d="M436.23,-19.59C444.71,-22.38 453.78,-25.59 462,-29 492.62,-41.69 526.36,-59.3 548.83,-71.58"/>
<polygon fill="midnightblue" stroke="midnightblue" points="547.28,-74.72 557.73,-76.48 550.66,-68.59 547.28,-74.72"/>
</g>
<!-- Node11&#45;&gt;Node10 -->
<g id="edge11" class="edge">
<title>Node11&#45;&gt;Node10</title>
<path fill="none" stroke="midnightblue" d="M308.39,-162.86C352.97,-161.78 411.84,-157.26 462,-143 494.8,-133.67 529.33,-114.6 551.35,-101.09"/>
<polygon fill="midnightblue" stroke="midnightblue" points="553.36,-103.96 559.97,-95.68 549.64,-98.02 553.36,-103.96"/>
</g>
<!-- Node12&#45;&gt;Node6 -->
<g id="edge13" class="edge">
<title>Node12&#45;&gt;Node6</title>
<path fill="none" stroke="midnightblue" d="M291.36,-86C312.4,-86 336.48,-86 356.79,-86"/>
<polygon fill="midnightblue" stroke="midnightblue" points="357.03,-89.5 367.03,-86 357.03,-82.5 357.03,-89.5"/>
</g>
<!-- Node13 -->
<g id="node13" class="node">
<title>Node13</title>
<g id="a_node13"><a xlink:href="base_8h.html#a0fc3f293c746d39a93e4c1158f792404" target="_top" xlink:title="Safely reads a little&#45;endian 16&#45;bit word from provided pointer.">
<polygon fill="none" stroke="black" points="368,-38.5 368,-57.5 438,-57.5 438,-38.5 368,-38.5"/>
<text text-anchor="middle" x="403" y="-45.5" font-family="Helvetica,sans-Serif" font-size="10.00">modbusRLE</text>
</a>
</g>
</g>
<!-- Node12&#45;&gt;Node13 -->
<g id="edge14" class="edge">
<title>Node12&#45;&gt;Node13</title>
<path fill="none" stroke="midnightblue" d="M280.51,-76.41C304.12,-70.89 333.79,-63.95 357.91,-58.31"/>
<polygon fill="midnightblue" stroke="midnightblue" points="358.93,-61.67 367.87,-55.98 357.33,-54.85 358.93,-61.67"/>
</g>
</g>
</svg>
