<?xml version="1.0" encoding="UTF-8" standalone="no"?>
<!DOCTYPE svg PUBLIC "-//W3C//DTD SVG 1.1//EN"
 "http://www.w3.org/Graphics/SVG/1.1/DTD/svg11.dtd">
<!-- Generated by graphviz version 2.44.0 ()
 -->
<!-- Title: modbusParseRequest1516 Pages: 1 -->
<svg width="673pt" height="256pt"
 viewBox="0.00 0.00 673.00 256.00" xmlns="http://www.w3.org/2000/svg" xmlns:xlink="http://www.w3.org/1999/xlink">
<g id="graph0" class="graph" transform="scale(1 1) rotate(0) translate(4 252)">
<title>modbusParseRequest1516</title>
<!-- Node1 -->
<g id="node1" class="node">
<title>Node1</title>
<g id="a_node1"><a xlink:title="Handles requests 15 and 16 (Write Multiple XX) and generates response.">
<polygon fill="#bfbfbf" stroke="black" points="0,-114.5 0,-133.5 134,-133.5 134,-114.5 0,-114.5"/>
<text text-anchor="middle" x="67" y="-121.5" font-family="Helvetica,sans-Serif" font-size="10.00">modbusParseRequest1516</text>
</a>
</g>
</g>
<!-- Node2 -->
<g id="node2" class="node">
<title>Node2</title>
<g id="a_node2"><a xlink:href="base_8h.html#af23a50b36bef9c09ac82214a52ff4d58" target="_top" xlink:title="Returns number of bytes necessary to hold given number of bits.">
<polygon fill="none" stroke="black" points="180.5,-228.5 180.5,-247.5 284.5,-247.5 284.5,-228.5 180.5,-228.5"/>
<text text-anchor="middle" x="232.5" y="-235.5" font-family="Helvetica,sans-Serif" font-size="10.00">modbusBitsToBytes</text>
</a>
</g>
</g>
<!-- Node1&#45;&gt;Node2 -->
<g id="edge1" class="edge">
<title>Node1&#45;&gt;Node2</title>
<path fill="none" stroke="midnightblue" d="M75.66,-133.58C91.36,-152.61 129.16,-195.36 170,-219 173.7,-221.14 177.67,-223.07 181.74,-224.79"/>
<polygon fill="midnightblue" stroke="midnightblue" points="180.76,-228.17 191.35,-228.47 183.26,-221.63 180.76,-228.17"/>
</g>
<!-- Node3 -->
<g id="node3" class="node">
<title>Node3</title>
<g id="a_node3"><a xlink:href="slave_8h.html#a58243ce1e1adaffd0a3260edc2d03603" target="_top" xlink:title="Builds an exception response frame.">
<polygon fill="none" stroke="black" points="175,-190.5 175,-209.5 290,-209.5 290,-190.5 175,-190.5"/>
<text text-anchor="middle" x="232.5" y="-197.5" font-family="Helvetica,sans-Serif" font-size="10.00">modbusBuildException</text>
</a>
</g>
</g>
<!-- Node1&#45;&gt;Node3 -->
<g id="edge2" class="edge">
<title>Node1&#45;&gt;Node3</title>
<path fill="none" stroke="midnightblue" d="M85.43,-133.56C105.54,-144.42 139.71,-162.41 170,-176 178.28,-179.72 187.32,-183.43 195.87,-186.79"/>
<polygon fill="midnightblue" stroke="midnightblue" points="194.64,-190.06 205.23,-190.41 197.16,-183.54 194.64,-190.06"/>
</g>
<!-- Node4 -->
<g id="node4" class="node">
<title>Node4</title>
<g id="a_node4"><a xlink:href="slave_8h.html#ad1165bb6d12af1db502a05df5da55aed" target="_top" xlink:title="Allocates memory for slave&#39;s response frame.">
<polygon fill="none" stroke="black" points="331,-171.5 331,-190.5 486,-190.5 486,-171.5 331,-171.5"/>
<text text-anchor="middle" x="408.5" y="-178.5" font-family="Helvetica,sans-Serif" font-size="10.00">modbusSlaveAllocateResponse</text>
</a>
</g>
</g>
<!-- Node1&#45;&gt;Node4 -->
<g id="edge9" class="edge">
<title>Node1&#45;&gt;Node4</title>
<path fill="none" stroke="midnightblue" d="M117.76,-133.53C134.36,-136.64 152.96,-140.05 170,-143 225.2,-152.56 287.77,-162.53 334.82,-169.86"/>
<polygon fill="midnightblue" stroke="midnightblue" points="334.5,-173.36 344.92,-171.43 335.58,-166.44 334.5,-173.36"/>
</g>
<!-- Node7 -->
<g id="node7" class="node">
<title>Node7</title>
<g id="a_node7"><a xlink:href="base_8h.html#a61619958551d902c14ab6e51fb842ea0" target="_top" xlink:title="Checks whether provided address range causes an uint16_t overflow.">
<polygon fill="none" stroke="black" points="170,-114.5 170,-133.5 295,-133.5 295,-114.5 170,-114.5"/>
<text text-anchor="middle" x="232.5" y="-121.5" font-family="Helvetica,sans-Serif" font-size="10.00">modbusCheckRangeU16</text>
</a>
</g>
</g>
<!-- Node1&#45;&gt;Node7 -->
<g id="edge6" class="edge">
<title>Node1&#45;&gt;Node7</title>
<path fill="none" stroke="midnightblue" d="M134.03,-124C142.57,-124 151.34,-124 159.96,-124"/>
<polygon fill="midnightblue" stroke="midnightblue" points="159.98,-127.5 169.98,-124 159.98,-120.5 159.98,-127.5"/>
</g>
<!-- Node8 -->
<g id="node8" class="node">
<title>Node8</title>
<g id="a_node8"><a xlink:href="base_8h.html#aff2248343762719cdacf818e4dae3709" target="_top" xlink:title="Reads n&#45;th bit from an array.">
<polygon fill="none" stroke="black" points="183.5,-76.5 183.5,-95.5 281.5,-95.5 281.5,-76.5 183.5,-76.5"/>
<text text-anchor="middle" x="232.5" y="-83.5" font-family="Helvetica,sans-Serif" font-size="10.00">modbusMaskRead</text>
</a>
</g>
</g>
<!-- Node1&#45;&gt;Node8 -->
<g id="edge7" class="edge">
<title>Node1&#45;&gt;Node8</title>
<path fill="none" stroke="midnightblue" d="M109.26,-114.41C130.93,-109.37 157.68,-103.16 180.63,-97.82"/>
<polygon fill="midnightblue" stroke="midnightblue" points="181.59,-101.19 190.54,-95.52 180.01,-94.37 181.59,-101.19"/>
</g>
<!-- Node9 -->
<g id="node9" class="node">
<title>Node9</title>
<g id="a_node9"><a xlink:href="base_8h.html#ace96da9afdf1e1796a6e2d7ac1f6c81a" target="_top" xlink:title="Safely reads a big&#45;endian 16&#45;bit word from provided pointer.">
<polygon fill="none" stroke="black" points="197,-38.5 197,-57.5 268,-57.5 268,-38.5 197,-38.5"/>
<text text-anchor="middle" x="232.5" y="-45.5" font-family="Helvetica,sans-Serif" font-size="10.00">modbusRBE</text>
</a>
</g>
</g>
<!-- Node1&#45;&gt;Node9 -->
<g id="edge8" class="edge">
<title>Node1&#45;&gt;Node9</title>
<path fill="none" stroke="midnightblue" d="M82.7,-114.48C102.09,-102.23 137.55,-80.9 170,-67 175.46,-64.66 181.31,-62.47 187.14,-60.48"/>
<polygon fill="midnightblue" stroke="midnightblue" points="188.46,-63.73 196.88,-57.3 186.29,-57.07 188.46,-63.73"/>
</g>
<!-- Node10 -->
<g id="node10" class="node">
<title>Node10</title>
<g id="a_node10"><a xlink:href="base_8h.html#a73b9f793bbe67a1968cc8c53a22d4c4b" target="_top" xlink:title="Safely writes a big&#45;endian 16&#45;bit word to provided pointer.">
<polygon fill="none" stroke="black" points="196,-0.5 196,-19.5 269,-19.5 269,-0.5 196,-0.5"/>
<text text-anchor="middle" x="232.5" y="-7.5" font-family="Helvetica,sans-Serif" font-size="10.00">modbusWBE</text>
</a>
</g>
</g>
<!-- Node1&#45;&gt;Node10 -->
<g id="edge10" class="edge">
<title>Node1&#45;&gt;Node10</title>
<path fill="none" stroke="midnightblue" d="M75.66,-114.42C91.36,-95.39 129.16,-52.64 170,-29 175.08,-26.06 180.67,-23.52 186.33,-21.35"/>
<polygon fill="midnightblue" stroke="midnightblue" points="187.58,-24.63 195.88,-18.04 185.28,-18.01 187.58,-24.63"/>
</g>
<!-- Node3&#45;&gt;Node4 -->
<g id="edge3" class="edge">
<title>Node3&#45;&gt;Node4</title>
<path fill="none" stroke="midnightblue" d="M290.47,-193.78C300.14,-192.72 310.36,-191.61 320.59,-190.49"/>
<polygon fill="midnightblue" stroke="midnightblue" points="321.23,-193.94 330.79,-189.38 320.47,-186.98 321.23,-193.94"/>
</g>
<!-- Node5 -->
<g id="node5" class="node">
<title>Node5</title>
<g id="a_node5"><a xlink:href="base_8h.html#aab33bc005f4c5759d8ac918e5e8b71b9" target="_top" xlink:title="Allocates memory to hold Modbus ADU.">
<polygon fill="none" stroke="black" points="537.5,-190.5 537.5,-209.5 649.5,-209.5 649.5,-190.5 537.5,-190.5"/>
<text text-anchor="middle" x="593.5" y="-197.5" font-family="Helvetica,sans-Serif" font-size="10.00">modbusBufferAllocate</text>
</a>
</g>
</g>
<!-- Node4&#45;&gt;Node5 -->
<g id="edge4" class="edge">
<title>Node4&#45;&gt;Node5</title>
<path fill="none" stroke="midnightblue" d="M486.05,-188.95C499.78,-190.37 513.98,-191.85 527.36,-193.24"/>
<polygon fill="midnightblue" stroke="midnightblue" points="527.1,-196.73 537.41,-194.28 527.82,-189.77 527.1,-196.73"/>
</g>
<!-- Node6 -->
<g id="node6" class="node">
<title>Node6</title>
<g id="a_node6"><a xlink:href="slave_8h.html#abbbf205b4c4a0b74b5ae29b865ca3262" target="_top" xlink:title="Retreieves the custom context pointer.">
<polygon fill="none" stroke="black" points="522,-152.5 522,-171.5 665,-171.5 665,-152.5 522,-152.5"/>
<text text-anchor="middle" x="593.5" y="-159.5" font-family="Helvetica,sans-Serif" font-size="10.00">modbusSlaveGetUserPointer</text>
</a>
</g>
</g>
<!-- Node4&#45;&gt;Node6 -->
<g id="edge5" class="edge">
<title>Node4&#45;&gt;Node6</title>
<path fill="none" stroke="midnightblue" d="M486.05,-173.05C494.57,-172.17 503.26,-171.27 511.83,-170.38"/>
<polygon fill="midnightblue" stroke="midnightblue" points="512.22,-173.85 521.81,-169.34 511.5,-166.89 512.22,-173.85"/>
</g>
</g>
</svg>
