<?xml version="1.0" encoding="UTF-8" standalone="no"?>
<!DOCTYPE svg PUBLIC "-//W3C//DTD SVG 1.1//EN"
 "http://www.w3.org/Graphics/SVG/1.1/DTD/svg11.dtd">
<!-- Generated by graphviz version 2.44.0 ()
 -->
<!-- Title: include/lightmodbus/slave.impl.h Pages: 1 -->
<svg width="146pt" height="263pt"
 viewBox="0.00 0.00 145.83 263.00" xmlns="http://www.w3.org/2000/svg" xmlns:xlink="http://www.w3.org/1999/xlink">
<g id="graph0" class="graph" transform="scale(1 1) rotate(0) translate(4 259)">
<title>include/lightmodbus/slave.impl.h</title>
<!-- Node1 -->
<g id="node1" class="node">
<title>Node1</title>
<g id="a_node1"><a xlink:title="Slave&#39;s types and basic functions (implementation)">
<polygon fill="#bfbfbf" stroke="black" points="18.83,-224.5 18.83,-254.5 121.83,-254.5 121.83,-224.5 18.83,-224.5"/>
<text text-anchor="start" x="26.83" y="-242.5" font-family="Helvetica,sans-Serif" font-size="10.00">include/lightmodbus</text>
<text text-anchor="middle" x="70.33" y="-231.5" font-family="Helvetica,sans-Serif" font-size="10.00">/slave.impl.h</text>
</a>
</g>
</g>
<!-- Node2 -->
<g id="node2" class="node">
<title>Node2</title>
<g id="a_node2"><a xlink:href="slave_8h.html" target="_top" xlink:title="Slave&#39;s types and basic functions (header)">
<polygon fill="none" stroke="black" points="14.83,-112.5 14.83,-131.5 61.83,-131.5 61.83,-112.5 14.83,-112.5"/>
<text text-anchor="middle" x="38.33" y="-119.5" font-family="Helvetica,sans-Serif" font-size="10.00">slave.h</text>
</a>
</g>
</g>
<!-- Node1&#45;&gt;Node2 -->
<g id="edge1" class="edge">
<title>Node1&#45;&gt;Node2</title>
<path fill="none" stroke="midnightblue" d="M66.41,-224.34C60.64,-203.53 49.87,-164.66 43.48,-141.58"/>
<polygon fill="midnightblue" stroke="midnightblue" points="46.78,-140.37 40.73,-131.67 40.03,-142.24 46.78,-140.37"/>
</g>
<!-- Node6 -->
<g id="node6" class="node">
<title>Node6</title>
<g id="a_node6"><a xlink:href="slave__func_8h.html" target="_top" xlink:title="Slave&#39;s functions for parsing requests (header)">
<polygon fill="none" stroke="black" points="66.83,-168.5 66.83,-187.5 137.83,-187.5 137.83,-168.5 66.83,-168.5"/>
<text text-anchor="middle" x="102.33" y="-175.5" font-family="Helvetica,sans-Serif" font-size="10.00">slave_func.h</text>
</a>
</g>
</g>
<!-- Node1&#45;&gt;Node6 -->
<g id="edge6" class="edge">
<title>Node1&#45;&gt;Node6</title>
<path fill="none" stroke="midnightblue" d="M77.91,-224.4C82.37,-216.11 88.05,-205.55 92.81,-196.71"/>
<polygon fill="midnightblue" stroke="midnightblue" points="96.02,-198.12 97.67,-187.66 89.86,-194.81 96.02,-198.12"/>
</g>
<!-- Node3 -->
<g id="node3" class="node">
<title>Node3</title>
<g id="a_node3"><a xlink:title=" ">
<polygon fill="none" stroke="#bfbfbf" points="19.33,-0.5 19.33,-19.5 67.33,-19.5 67.33,-0.5 19.33,-0.5"/>
<text text-anchor="middle" x="43.33" y="-7.5" font-family="Helvetica,sans-Serif" font-size="10.00">stdint.h</text>
</a>
</g>
</g>
<!-- Node2&#45;&gt;Node3 -->
<g id="edge2" class="edge">
<title>Node2&#45;&gt;Node3</title>
<path fill="none" stroke="midnightblue" d="M27.58,-112.13C14.22,-99.96 -5.87,-77.17 2.33,-56 6.79,-44.5 15.7,-34.13 24.08,-26.25"/>
<polygon fill="midnightblue" stroke="midnightblue" points="26.57,-28.73 31.79,-19.51 21.96,-23.46 26.57,-28.73"/>
</g>
<!-- Node4 -->
<g id="node4" class="node">
<title>Node4</title>
<g id="a_node4"><a xlink:title=" ">
<polygon fill="none" stroke="#bfbfbf" points="11.83,-56.5 11.83,-75.5 62.83,-75.5 62.83,-56.5 11.83,-56.5"/>
<text text-anchor="middle" x="37.33" y="-63.5" font-family="Helvetica,sans-Serif" font-size="10.00">stddef.h</text>
</a>
</g>
</g>
<!-- Node2&#45;&gt;Node4 -->
<g id="edge3" class="edge">
<title>Node2&#45;&gt;Node4</title>
<path fill="none" stroke="midnightblue" d="M38.17,-112.08C38.04,-105.01 37.85,-94.86 37.68,-85.99"/>
<polygon fill="midnightblue" stroke="midnightblue" points="41.18,-85.68 37.49,-75.75 34.18,-85.81 41.18,-85.68"/>
</g>
<!-- Node5 -->
<g id="node5" class="node">
<title>Node5</title>
<g id="a_node5"><a xlink:href="base_8h.html" target="_top" xlink:title="Common types and functions (header)">
<polygon fill="none" stroke="black" points="80.83,-56.5 80.83,-75.5 125.83,-75.5 125.83,-56.5 80.83,-56.5"/>
<text text-anchor="middle" x="103.33" y="-63.5" font-family="Helvetica,sans-Serif" font-size="10.00">base.h</text>
</a>
</g>
</g>
<!-- Node2&#45;&gt;Node5 -->
<g id="edge4" class="edge">
<title>Node2&#45;&gt;Node5</title>
<path fill="none" stroke="midnightblue" d="M48.77,-112.32C58.48,-104.26 73.15,-92.08 84.83,-82.37"/>
<polygon fill="midnightblue" stroke="midnightblue" points="87.24,-84.92 92.7,-75.83 82.77,-79.53 87.24,-84.92"/>
</g>
<!-- Node5&#45;&gt;Node3 -->
<g id="edge5" class="edge">
<title>Node5&#45;&gt;Node3</title>
<path fill="none" stroke="midnightblue" d="M93.69,-56.32C84.82,-48.34 71.46,-36.31 60.72,-26.65"/>
<polygon fill="midnightblue" stroke="midnightblue" points="62.92,-23.92 53.15,-19.83 58.24,-29.13 62.92,-23.92"/>
</g>
<!-- Node6&#45;&gt;Node2 -->
<g id="edge8" class="edge">
<title>Node6&#45;&gt;Node2</title>
<path fill="none" stroke="midnightblue" d="M92.05,-168.32C82.49,-160.26 68.05,-148.08 56.55,-138.37"/>
<polygon fill="midnightblue" stroke="midnightblue" points="58.7,-135.61 48.8,-131.83 54.19,-140.96 58.7,-135.61"/>
</g>
<!-- Node6&#45;&gt;Node5 -->
<g id="edge7" class="edge">
<title>Node6&#45;&gt;Node5</title>
<path fill="none" stroke="midnightblue" d="M102.41,-168.37C102.57,-150.62 102.94,-109.67 103.16,-85.6"/>
<polygon fill="midnightblue" stroke="midnightblue" points="106.66,-85.62 103.25,-75.59 99.66,-85.56 106.66,-85.62"/>
</g>
</g>
</svg>
