<?xml version="1.0" encoding="UTF-8" standalone="no"?>
<!DOCTYPE svg PUBLIC "-//W3C//DTD SVG 1.1//EN"
 "http://www.w3.org/Graphics/SVG/1.1/DTD/svg11.dtd">
<!-- Generated by graphviz version 2.44.0 ()
 -->
<!-- Title: modbusParseRequest0506 Pages: 1 -->
<svg width="663pt" height="142pt"
 viewBox="0.00 0.00 663.00 142.00" xmlns="http://www.w3.org/2000/svg" xmlns:xlink="http://www.w3.org/1999/xlink">
<g id="graph0" class="graph" transform="scale(1 1) rotate(0) translate(4 138)">
<title>modbusParseRequest0506</title>
<!-- Node1 -->
<g id="node1" class="node">
<title>Node1</title>
<g id="a_node1"><a xlink:title="Handles requests 05 and 06 (Write Single XX) and generates response.">
<polygon fill="#bfbfbf" stroke="black" points="0,-57.5 0,-76.5 134,-76.5 134,-57.5 0,-57.5"/>
<text text-anchor="middle" x="67" y="-64.5" font-family="Helvetica,sans-Serif" font-size="10.00">modbusParseRequest0506</text>
</a>
</g>
</g>
<!-- Node2 -->
<g id="node2" class="node">
<title>Node2</title>
<g id="a_node2"><a xlink:href="slave_8h.html#a58243ce1e1adaffd0a3260edc2d03603" target="_top" xlink:title="Builds an exception response frame.">
<polygon fill="none" stroke="black" points="170,-114.5 170,-133.5 285,-133.5 285,-114.5 170,-114.5"/>
<text text-anchor="middle" x="227.5" y="-121.5" font-family="Helvetica,sans-Serif" font-size="10.00">modbusBuildException</text>
</a>
</g>
</g>
<!-- Node1&#45;&gt;Node2 -->
<g id="edge1" class="edge">
<title>Node1&#45;&gt;Node2</title>
<path fill="none" stroke="midnightblue" d="M94.53,-76.54C120.82,-85.99 161.27,-100.54 190.45,-111.04"/>
<polygon fill="midnightblue" stroke="midnightblue" points="189.29,-114.34 199.88,-114.43 191.66,-107.75 189.29,-114.34"/>
</g>
<!-- Node3 -->
<g id="node3" class="node">
<title>Node3</title>
<g id="a_node3"><a xlink:href="slave_8h.html#ad1165bb6d12af1db502a05df5da55aed" target="_top" xlink:title="Allocates memory for slave&#39;s response frame.">
<polygon fill="none" stroke="black" points="321,-95.5 321,-114.5 476,-114.5 476,-95.5 321,-95.5"/>
<text text-anchor="middle" x="398.5" y="-102.5" font-family="Helvetica,sans-Serif" font-size="10.00">modbusSlaveAllocateResponse</text>
</a>
</g>
</g>
<!-- Node1&#45;&gt;Node3 -->
<g id="edge6" class="edge">
<title>Node1&#45;&gt;Node3</title>
<path fill="none" stroke="midnightblue" d="M134.28,-74.64C185.06,-80.5 255.54,-88.63 310.8,-95"/>
<polygon fill="midnightblue" stroke="midnightblue" points="310.59,-98.5 320.93,-96.17 311.39,-91.55 310.59,-98.5"/>
</g>
<!-- Node6 -->
<g id="node6" class="node">
<title>Node6</title>
<g id="a_node6"><a xlink:href="base_8h.html#ace96da9afdf1e1796a6e2d7ac1f6c81a" target="_top" xlink:title="Safely reads a big&#45;endian 16&#45;bit word from provided pointer.">
<polygon fill="none" stroke="black" points="192,-38.5 192,-57.5 263,-57.5 263,-38.5 192,-38.5"/>
<text text-anchor="middle" x="227.5" y="-45.5" font-family="Helvetica,sans-Serif" font-size="10.00">modbusRBE</text>
</a>
</g>
</g>
<!-- Node1&#45;&gt;Node6 -->
<g id="edge5" class="edge">
<title>Node1&#45;&gt;Node6</title>
<path fill="none" stroke="midnightblue" d="M134.3,-59.05C150.14,-57.15 166.68,-55.17 181.31,-53.42"/>
<polygon fill="midnightblue" stroke="midnightblue" points="182.08,-56.85 191.59,-52.18 181.25,-49.9 182.08,-56.85"/>
</g>
<!-- Node7 -->
<g id="node7" class="node">
<title>Node7</title>
<g id="a_node7"><a xlink:href="base_8h.html#a73b9f793bbe67a1968cc8c53a22d4c4b" target="_top" xlink:title="Safely writes a big&#45;endian 16&#45;bit word to provided pointer.">
<polygon fill="none" stroke="black" points="191,-0.5 191,-19.5 264,-19.5 264,-0.5 191,-0.5"/>
<text text-anchor="middle" x="227.5" y="-7.5" font-family="Helvetica,sans-Serif" font-size="10.00">modbusWBE</text>
</a>
</g>
</g>
<!-- Node1&#45;&gt;Node7 -->
<g id="edge7" class="edge">
<title>Node1&#45;&gt;Node7</title>
<path fill="none" stroke="midnightblue" d="M93.07,-57.4C113.67,-49.58 143.64,-38.34 170,-29 175.69,-26.99 181.71,-24.9 187.63,-22.89"/>
<polygon fill="midnightblue" stroke="midnightblue" points="189.05,-26.1 197.4,-19.58 186.81,-19.47 189.05,-26.1"/>
</g>
<!-- Node2&#45;&gt;Node3 -->
<g id="edge2" class="edge">
<title>Node2&#45;&gt;Node3</title>
<path fill="none" stroke="midnightblue" d="M285.24,-117.62C293.45,-116.7 302.04,-115.73 310.67,-114.76"/>
<polygon fill="midnightblue" stroke="midnightblue" points="311.24,-118.22 320.79,-113.62 310.46,-111.26 311.24,-118.22"/>
</g>
<!-- Node4 -->
<g id="node4" class="node">
<title>Node4</title>
<g id="a_node4"><a xlink:href="base_8h.html#aab33bc005f4c5759d8ac918e5e8b71b9" target="_top" xlink:title="Allocates memory to hold Modbus ADU.">
<polygon fill="none" stroke="black" points="527.5,-114.5 527.5,-133.5 639.5,-133.5 639.5,-114.5 527.5,-114.5"/>
<text text-anchor="middle" x="583.5" y="-121.5" font-family="Helvetica,sans-Serif" font-size="10.00">modbusBufferAllocate</text>
</a>
</g>
</g>
<!-- Node3&#45;&gt;Node4 -->
<g id="edge3" class="edge">
<title>Node3&#45;&gt;Node4</title>
<path fill="none" stroke="midnightblue" d="M476.05,-112.95C489.78,-114.37 503.98,-115.85 517.36,-117.24"/>
<polygon fill="midnightblue" stroke="midnightblue" points="517.1,-120.73 527.41,-118.28 517.82,-113.77 517.1,-120.73"/>
</g>
<!-- Node5 -->
<g id="node5" class="node">
<title>Node5</title>
<g id="a_node5"><a xlink:href="slave_8h.html#abbbf205b4c4a0b74b5ae29b865ca3262" target="_top" xlink:title="Retreieves the custom context pointer.">
<polygon fill="none" stroke="black" points="512,-76.5 512,-95.5 655,-95.5 655,-76.5 512,-76.5"/>
<text text-anchor="middle" x="583.5" y="-83.5" font-family="Helvetica,sans-Serif" font-size="10.00">modbusSlaveGetUserPointer</text>
</a>
</g>
</g>
<!-- Node3&#45;&gt;Node5 -->
<g id="edge4" class="edge">
<title>Node3&#45;&gt;Node5</title>
<path fill="none" stroke="midnightblue" d="M476.05,-97.05C484.57,-96.17 493.26,-95.27 501.83,-94.38"/>
<polygon fill="midnightblue" stroke="midnightblue" points="502.22,-97.85 511.81,-93.34 501.5,-90.89 502.22,-97.85"/>
</g>
</g>
</svg>
