<?xml version="1.0" encoding="UTF-8" standalone="no"?>
<!DOCTYPE svg PUBLIC "-//W3C//DTD SVG 1.1//EN"
 "http://www.w3.org/Graphics/SVG/1.1/DTD/svg11.dtd">
<!-- Generated by graphviz version 2.44.0 ()
 -->
<!-- Title: modbusBuildException Pages: 1 -->
<svg width="484pt" height="294pt"
 viewBox="0.00 0.00 484.00 294.00" xmlns="http://www.w3.org/2000/svg" xmlns:xlink="http://www.w3.org/1999/xlink">
<g id="graph0" class="graph" transform="scale(1 1) rotate(0) translate(4 290)">
<title>modbusBuildException</title>
<!-- Node1 -->
<g id="node1" class="node">
<title>Node1</title>
<g id="a_node1"><a xlink:title="Builds an exception response frame.">
<polygon fill="#bfbfbf" stroke="black" points="361,-133.5 361,-152.5 476,-152.5 476,-133.5 361,-133.5"/>
<text text-anchor="middle" x="418.5" y="-140.5" font-family="Helvetica,sans-Serif" font-size="10.00">modbusBuildException</text>
</a>
</g>
</g>
<!-- Node2 -->
<g id="node2" class="node">
<title>Node2</title>
<g id="a_node2"><a xlink:href="slave_8h.html#a384f75966903cc0c249eb68a6a20180e" target="_top" xlink:title="Builds an exception PDU.">
<polygon fill="none" stroke="black" points="179.5,-266.5 179.5,-285.5 315.5,-285.5 315.5,-266.5 179.5,-266.5"/>
<text text-anchor="middle" x="247.5" y="-273.5" font-family="Helvetica,sans-Serif" font-size="10.00">modbusBuildExceptionPDU</text>
</a>
</g>
</g>
<!-- Node1&#45;&gt;Node2 -->
<g id="edge1" class="edge">
<title>Node1&#45;&gt;Node2</title>
<path fill="none" stroke="midnightblue" d="M407.5,-161.76C392.86,-187.34 363.17,-232.74 325,-257 318.88,-260.89 312.01,-263.99 304.97,-266.45"/>
<polygon fill="midnightblue" stroke="midnightblue" points="410.72,-163.16 412.51,-152.72 404.6,-159.77 410.72,-163.16"/>
</g>
<!-- Node3 -->
<g id="node3" class="node">
<title>Node3</title>
<g id="a_node3"><a xlink:href="slave_8h.html#a1da09df8858b91c61fe02c25783c2946" target="_top" xlink:title="Builds a Modbus RTU exception.">
<polygon fill="none" stroke="black" points="180,-228.5 180,-247.5 315,-247.5 315,-228.5 180,-228.5"/>
<text text-anchor="middle" x="247.5" y="-235.5" font-family="Helvetica,sans-Serif" font-size="10.00">modbusBuildExceptionRTU</text>
</a>
</g>
</g>
<!-- Node1&#45;&gt;Node3 -->
<g id="edge2" class="edge">
<title>Node1&#45;&gt;Node3</title>
<path fill="none" stroke="midnightblue" d="M401.74,-159.77C384.51,-177.13 355.28,-203.79 325,-219 317.3,-222.87 308.75,-225.99 300.25,-228.49"/>
<polygon fill="midnightblue" stroke="midnightblue" points="404.32,-162.14 408.78,-152.52 399.3,-157.26 404.32,-162.14"/>
</g>
<!-- Node4 -->
<g id="node4" class="node">
<title>Node4</title>
<g id="a_node4"><a xlink:href="slave_8h.html#a778e65356f7da66831f18ec53b975383" target="_top" xlink:title="Builds a Modbus TCP exception.">
<polygon fill="none" stroke="black" points="180.5,-190.5 180.5,-209.5 314.5,-209.5 314.5,-190.5 180.5,-190.5"/>
<text text-anchor="middle" x="247.5" y="-197.5" font-family="Helvetica,sans-Serif" font-size="10.00">modbusBuildExceptionTCP</text>
</a>
</g>
</g>
<!-- Node1&#45;&gt;Node4 -->
<g id="edge3" class="edge">
<title>Node1&#45;&gt;Node4</title>
<path fill="none" stroke="midnightblue" d="M387.19,-156.77C369.33,-164.54 346.16,-174.07 325,-181 314.34,-184.49 302.66,-187.7 291.7,-190.44"/>
<polygon fill="midnightblue" stroke="midnightblue" points="388.78,-159.89 396.52,-152.65 385.96,-153.48 388.78,-159.89"/>
</g>
<!-- Node5 -->
<g id="node5" class="node">
<title>Node5</title>
<g id="a_node5"><a xlink:href="slave_8h.html#aff0a9164a0e37aa619232ae86e3ff97a" target="_top" xlink:title="Parses provided PDU and generates response honorinng pduOffset and padding set in ModbusSlave during ...">
<polygon fill="none" stroke="black" points="191,-152.5 191,-171.5 304,-171.5 304,-152.5 191,-152.5"/>
<text text-anchor="middle" x="247.5" y="-159.5" font-family="Helvetica,sans-Serif" font-size="10.00">modbusParseRequest</text>
</a>
</g>
</g>
<!-- Node1&#45;&gt;Node5 -->
<g id="edge4" class="edge">
<title>Node1&#45;&gt;Node5</title>
<path fill="none" stroke="midnightblue" d="M350.77,-150.5C335.36,-152.23 319.12,-154.06 304.23,-155.73"/>
<polygon fill="midnightblue" stroke="midnightblue" points="351.21,-153.97 360.76,-149.38 350.43,-147.02 351.21,-153.97"/>
</g>
<!-- Node9 -->
<g id="node9" class="node">
<title>Node9</title>
<g id="a_node9"><a xlink:href="slave__func_8h.html#aaff57f2a5c6a8e6c77d36c5dc7e48cfa" target="_top" xlink:title="Handles requests 01, 02, 03 and 04 (Read Multiple XX) and generates response.">
<polygon fill="none" stroke="black" points="170,-114.5 170,-133.5 325,-133.5 325,-114.5 170,-114.5"/>
<text text-anchor="middle" x="247.5" y="-121.5" font-family="Helvetica,sans-Serif" font-size="10.00">modbusParseRequest01020304</text>
</a>
</g>
</g>
<!-- Node1&#45;&gt;Node9 -->
<g id="edge8" class="edge">
<title>Node1&#45;&gt;Node9</title>
<path fill="none" stroke="midnightblue" d="M350.69,-135.49C342.33,-134.55 333.72,-133.58 325.21,-132.62"/>
<polygon fill="midnightblue" stroke="midnightblue" points="350.43,-138.98 360.76,-136.62 351.21,-132.03 350.43,-138.98"/>
</g>
<!-- Node10 -->
<g id="node10" class="node">
<title>Node10</title>
<g id="a_node10"><a xlink:href="slave__func_8h.html#a236881fe30a95d4cc9b031a9e24ae2a8" target="_top" xlink:title="Handles requests 05 and 06 (Write Single XX) and generates response.">
<polygon fill="none" stroke="black" points="180.5,-76.5 180.5,-95.5 314.5,-95.5 314.5,-76.5 180.5,-76.5"/>
<text text-anchor="middle" x="247.5" y="-83.5" font-family="Helvetica,sans-Serif" font-size="10.00">modbusParseRequest0506</text>
</a>
</g>
</g>
<!-- Node1&#45;&gt;Node10 -->
<g id="edge9" class="edge">
<title>Node1&#45;&gt;Node10</title>
<path fill="none" stroke="midnightblue" d="M387.19,-129.23C369.33,-121.46 346.16,-111.93 325,-105 314.34,-101.51 302.66,-98.3 291.7,-95.56"/>
<polygon fill="midnightblue" stroke="midnightblue" points="385.96,-132.52 396.52,-133.35 388.78,-126.11 385.96,-132.52"/>
</g>
<!-- Node11 -->
<g id="node11" class="node">
<title>Node11</title>
<g id="a_node11"><a xlink:href="slave__func_8h.html#a0cb2a7bf59d4014088e1ce1c61523071" target="_top" xlink:title="Handles requests 15 and 16 (Write Multiple XX) and generates response.">
<polygon fill="none" stroke="black" points="180.5,-38.5 180.5,-57.5 314.5,-57.5 314.5,-38.5 180.5,-38.5"/>
<text text-anchor="middle" x="247.5" y="-45.5" font-family="Helvetica,sans-Serif" font-size="10.00">modbusParseRequest1516</text>
</a>
</g>
</g>
<!-- Node1&#45;&gt;Node11 -->
<g id="edge10" class="edge">
<title>Node1&#45;&gt;Node11</title>
<path fill="none" stroke="midnightblue" d="M401.74,-126.23C384.51,-108.87 355.28,-82.21 325,-67 317.3,-63.13 308.75,-60.01 300.25,-57.51"/>
<polygon fill="midnightblue" stroke="midnightblue" points="399.3,-128.74 408.78,-133.48 404.32,-123.86 399.3,-128.74"/>
</g>
<!-- Node12 -->
<g id="node12" class="node">
<title>Node12</title>
<g id="a_node12"><a xlink:href="slave__func_8h.html#a814f041d9acfa578998b8ce8fe53815c" target="_top" xlink:title="Handles request 22 (Mask Write Register) and generates response.">
<polygon fill="none" stroke="black" points="186,-0.5 186,-19.5 309,-19.5 309,-0.5 186,-0.5"/>
<text text-anchor="middle" x="247.5" y="-7.5" font-family="Helvetica,sans-Serif" font-size="10.00">modbusParseRequest22</text>
</a>
</g>
</g>
<!-- Node1&#45;&gt;Node12 -->
<g id="edge11" class="edge">
<title>Node1&#45;&gt;Node12</title>
<path fill="none" stroke="midnightblue" d="M407.5,-124.24C392.86,-98.66 363.17,-53.26 325,-29 318.88,-25.11 312.01,-22.01 304.97,-19.55"/>
<polygon fill="midnightblue" stroke="midnightblue" points="404.6,-126.23 412.51,-133.28 410.72,-122.84 404.6,-126.23"/>
</g>
<!-- Node6 -->
<g id="node6" class="node">
<title>Node6</title>
<g id="a_node6"><a xlink:href="slave_8h.html#ab5c5f3146a46cf8d221aca22e9c8a052" target="_top" xlink:title="Parses provided PDU and generates PDU for the response frame.">
<polygon fill="none" stroke="black" points="0,-190.5 0,-209.5 134,-209.5 134,-190.5 0,-190.5"/>
<text text-anchor="middle" x="67" y="-197.5" font-family="Helvetica,sans-Serif" font-size="10.00">modbusParseRequestPDU</text>
</a>
</g>
</g>
<!-- Node5&#45;&gt;Node6 -->
<g id="edge5" class="edge">
<title>Node5&#45;&gt;Node6</title>
<path fill="none" stroke="midnightblue" d="M191.63,-173.68C166.32,-179.07 136.65,-185.39 112.72,-190.48"/>
<polygon fill="midnightblue" stroke="midnightblue" points="192.4,-177.09 201.46,-171.59 190.95,-170.25 192.4,-177.09"/>
</g>
<!-- Node7 -->
<g id="node7" class="node">
<title>Node7</title>
<g id="a_node7"><a xlink:href="slave_8h.html#a6a1e63faa64b7ca4b91d1ce7988be850" target="_top" xlink:title="Parses provided Modbus RTU request frame and generates a Modbus RTU response.">
<polygon fill="none" stroke="black" points="0.5,-152.5 0.5,-171.5 133.5,-171.5 133.5,-152.5 0.5,-152.5"/>
<text text-anchor="middle" x="67" y="-159.5" font-family="Helvetica,sans-Serif" font-size="10.00">modbusParseRequestRTU</text>
</a>
</g>
</g>
<!-- Node5&#45;&gt;Node7 -->
<g id="edge6" class="edge">
<title>Node5&#45;&gt;Node7</title>
<path fill="none" stroke="midnightblue" d="M180.61,-162C165.33,-162 149.07,-162 133.8,-162"/>
<polygon fill="midnightblue" stroke="midnightblue" points="181,-165.5 191,-162 181,-158.5 181,-165.5"/>
</g>
<!-- Node8 -->
<g id="node8" class="node">
<title>Node8</title>
<g id="a_node8"><a xlink:href="slave_8h.html#a5ad3fe86aa14f8982d7c459c68cd8b3e" target="_top" xlink:title="Parses provided Modbus TCP request frame and generates a Modbus TCP response.">
<polygon fill="none" stroke="black" points="1,-114.5 1,-133.5 133,-133.5 133,-114.5 1,-114.5"/>
<text text-anchor="middle" x="67" y="-121.5" font-family="Helvetica,sans-Serif" font-size="10.00">modbusParseRequestTCP</text>
</a>
</g>
</g>
<!-- Node5&#45;&gt;Node8 -->
<g id="edge7" class="edge">
<title>Node5&#45;&gt;Node8</title>
<path fill="none" stroke="midnightblue" d="M191.63,-150.32C166.32,-144.93 136.65,-138.61 112.72,-133.52"/>
<polygon fill="midnightblue" stroke="midnightblue" points="190.95,-153.75 201.46,-152.41 192.4,-146.91 190.95,-153.75"/>
</g>
</g>
</svg>
