<?xml version="1.0" encoding="UTF-8" standalone="no"?>
<!DOCTYPE svg PUBLIC "-//W3C//DTD SVG 1.1//EN"
 "http://www.w3.org/Graphics/SVG/1.1/DTD/svg11.dtd">
<!-- Generated by graphviz version 2.44.0 ()
 -->
<!-- Title: modbusParseRequest1516 Pages: 1 -->
<svg width="524pt" height="218pt"
 viewBox="0.00 0.00 524.00 218.00" xmlns="http://www.w3.org/2000/svg" xmlns:xlink="http://www.w3.org/1999/xlink">
<g id="graph0" class="graph" transform="scale(1 1) rotate(0) translate(4 214)">
<title>modbusParseRequest1516</title>
<!-- Node1 -->
<g id="node1" class="node">
<title>Node1</title>
<g id="a_node1"><a xlink:title="Handles requests 15 and 16 (Write Multiple XX) and generates response.">
<polygon fill="#bfbfbf" stroke="black" points="0,-95.5 0,-114.5 134,-114.5 134,-95.5 0,-95.5"/>
<text text-anchor="middle" x="67" y="-102.5" font-family="Helvetica,sans-Serif" font-size="10.00">modbusParseRequest1516</text>
</a>
</g>
</g>
<!-- Node2 -->
<g id="node2" class="node">
<title>Node2</title>
<g id="a_node2"><a xlink:href="base_8h.html#af23a50b36bef9c09ac82214a52ff4d58" target="_top" xlink:title="Returns number of bytes necessary to hold given number of bits.">
<polygon fill="none" stroke="black" points="195.5,-190.5 195.5,-209.5 299.5,-209.5 299.5,-190.5 195.5,-190.5"/>
<text text-anchor="middle" x="247.5" y="-197.5" font-family="Helvetica,sans-Serif" font-size="10.00">modbusBitsToBytes</text>
</a>
</g>
</g>
<!-- Node1&#45;&gt;Node2 -->
<g id="edge1" class="edge">
<title>Node1&#45;&gt;Node2</title>
<path fill="none" stroke="midnightblue" d="M78.1,-114.74C95.45,-130.93 132.67,-163.34 170,-181 175.03,-183.38 180.38,-185.48 185.84,-187.33"/>
<polygon fill="midnightblue" stroke="midnightblue" points="185.13,-190.78 195.72,-190.41 187.21,-184.09 185.13,-190.78"/>
</g>
<!-- Node3 -->
<g id="node3" class="node">
<title>Node3</title>
<g id="a_node3"><a xlink:href="slave_8h.html#a01b0b86602f899214d564f5bbe6ffdb2" target="_top" xlink:title="Builds an exception response frame.">
<polygon fill="none" stroke="black" points="190,-152.5 190,-171.5 305,-171.5 305,-152.5 190,-152.5"/>
<text text-anchor="middle" x="247.5" y="-159.5" font-family="Helvetica,sans-Serif" font-size="10.00">modbusBuildException</text>
</a>
</g>
</g>
<!-- Node1&#45;&gt;Node3 -->
<g id="edge2" class="edge">
<title>Node1&#45;&gt;Node3</title>
<path fill="none" stroke="midnightblue" d="M91.24,-114.52C111.75,-122.71 142.56,-134.51 170,-143 177.99,-145.47 186.52,-147.84 194.88,-150.03"/>
<polygon fill="midnightblue" stroke="midnightblue" points="194.02,-153.42 204.58,-152.49 195.75,-146.64 194.02,-153.42"/>
</g>
<!-- Node5 -->
<g id="node5" class="node">
<title>Node5</title>
<g id="a_node5"><a xlink:href="base_8h.html#aff2248343762719cdacf818e4dae3709" target="_top" xlink:title="Reads n&#45;th bit from an array.">
<polygon fill="none" stroke="black" points="198.5,-114.5 198.5,-133.5 296.5,-133.5 296.5,-114.5 198.5,-114.5"/>
<text text-anchor="middle" x="247.5" y="-121.5" font-family="Helvetica,sans-Serif" font-size="10.00">modbusMaskRead</text>
</a>
</g>
</g>
<!-- Node1&#45;&gt;Node5 -->
<g id="edge4" class="edge">
<title>Node1&#45;&gt;Node5</title>
<path fill="none" stroke="midnightblue" d="M134.21,-112.05C151.96,-113.94 171.02,-115.97 188.3,-117.8"/>
<polygon fill="midnightblue" stroke="midnightblue" points="187.93,-121.29 198.24,-118.86 188.67,-114.32 187.93,-121.29"/>
</g>
<!-- Node6 -->
<g id="node6" class="node">
<title>Node6</title>
<g id="a_node6"><a xlink:href="base_8h.html#ace96da9afdf1e1796a6e2d7ac1f6c81a" target="_top" xlink:title="Safely reads a big&#45;endian 16&#45;bit word from provided pointer.">
<polygon fill="none" stroke="black" points="212,-76.5 212,-95.5 283,-95.5 283,-76.5 212,-76.5"/>
<text text-anchor="middle" x="247.5" y="-83.5" font-family="Helvetica,sans-Serif" font-size="10.00">modbusRBE</text>
</a>
</g>
</g>
<!-- Node1&#45;&gt;Node6 -->
<g id="edge5" class="edge">
<title>Node1&#45;&gt;Node6</title>
<path fill="none" stroke="midnightblue" d="M134.21,-97.95C156.79,-95.55 181.48,-92.92 201.94,-90.74"/>
<polygon fill="midnightblue" stroke="midnightblue" points="202.35,-94.22 211.92,-89.68 201.61,-87.26 202.35,-94.22"/>
</g>
<!-- Node7 -->
<g id="node7" class="node">
<title>Node7</title>
<g id="a_node7"><a xlink:href="slave_8h.html#af92eebc644e36158bddfba128235fef6" target="_top" xlink:title="Allocates memory for slave&#39;s response frame.">
<polygon fill="none" stroke="black" points="170,-38.5 170,-57.5 325,-57.5 325,-38.5 170,-38.5"/>
<text text-anchor="middle" x="247.5" y="-45.5" font-family="Helvetica,sans-Serif" font-size="10.00">modbusSlaveAllocateResponse</text>
</a>
</g>
</g>
<!-- Node1&#45;&gt;Node7 -->
<g id="edge6" class="edge">
<title>Node1&#45;&gt;Node7</title>
<path fill="none" stroke="midnightblue" d="M91.24,-95.48C111.75,-87.29 142.56,-75.49 170,-67 177.99,-64.53 186.52,-62.16 194.88,-59.97"/>
<polygon fill="midnightblue" stroke="midnightblue" points="195.75,-63.36 204.58,-57.51 194.02,-56.58 195.75,-63.36"/>
</g>
<!-- Node8 -->
<g id="node8" class="node">
<title>Node8</title>
<g id="a_node8"><a xlink:href="base_8h.html#a73b9f793bbe67a1968cc8c53a22d4c4b" target="_top" xlink:title="Safely writes a big&#45;endian 16&#45;bit word to provided pointer.">
<polygon fill="none" stroke="black" points="211,-0.5 211,-19.5 284,-19.5 284,-0.5 211,-0.5"/>
<text text-anchor="middle" x="247.5" y="-7.5" font-family="Helvetica,sans-Serif" font-size="10.00">modbusWBE</text>
</a>
</g>
</g>
<!-- Node1&#45;&gt;Node8 -->
<g id="edge7" class="edge">
<title>Node1&#45;&gt;Node8</title>
<path fill="none" stroke="midnightblue" d="M78.1,-95.26C95.45,-79.07 132.67,-46.66 170,-29 179.66,-24.43 190.53,-20.88 200.99,-18.16"/>
<polygon fill="midnightblue" stroke="midnightblue" points="201.94,-21.53 210.84,-15.79 200.3,-14.72 201.94,-21.53"/>
</g>
<!-- Node4 -->
<g id="node4" class="node">
<title>Node4</title>
<g id="a_node4"><a xlink:href="slave_8impl_8h.html#aa87aa17ffca453550f7b0489b39f077b" target="_top" xlink:title="Allocates memory for slave&#39;s response frame.">
<polygon fill="none" stroke="black" points="361,-152.5 361,-171.5 516,-171.5 516,-152.5 361,-152.5"/>
<text text-anchor="middle" x="438.5" y="-159.5" font-family="Helvetica,sans-Serif" font-size="10.00">modbusSlaveAllocateResponse</text>
</a>
</g>
</g>
<!-- Node3&#45;&gt;Node4 -->
<g id="edge3" class="edge">
<title>Node3&#45;&gt;Node4</title>
<path fill="none" stroke="midnightblue" d="M305.21,-162C319.57,-162 335.32,-162 350.79,-162"/>
<polygon fill="midnightblue" stroke="midnightblue" points="350.91,-165.5 360.91,-162 350.91,-158.5 350.91,-165.5"/>
</g>
</g>
</svg>
