<?xml version="1.0" encoding="UTF-8" standalone="no"?>
<!DOCTYPE svg PUBLIC "-//W3C//DTD SVG 1.1//EN"
 "http://www.w3.org/Graphics/SVG/1.1/DTD/svg11.dtd">
<!-- Generated by graphviz version 2.44.0 ()
 -->
<!-- Title: include/lightmodbus/slave_func.impl.h Pages: 1 -->
<svg width="174pt" height="263pt"
 viewBox="0.00 0.00 174.00 263.00" xmlns="http://www.w3.org/2000/svg" xmlns:xlink="http://www.w3.org/1999/xlink">
<g id="graph0" class="graph" transform="scale(1 1) rotate(0) translate(4 259)">
<title>include/lightmodbus/slave_func.impl.h</title>
<!-- Node1 -->
<g id="node1" class="node">
<title>Node1</title>
<g id="a_node1"><a xlink:title=" ">
<polygon fill="#bfbfbf" stroke="black" points="16,-224.5 16,-254.5 119,-254.5 119,-224.5 16,-224.5"/>
<text text-anchor="start" x="24" y="-242.5" font-family="Helvetica,sans-Serif" font-size="10.00">include/lightmodbus</text>
<text text-anchor="middle" x="67.5" y="-231.5" font-family="Helvetica,sans-Serif" font-size="10.00">/slave_func.impl.h</text>
</a>
</g>
</g>
<!-- Node2 -->
<g id="node2" class="node">
<title>Node2</title>
<g id="a_node2"><a xlink:href="slave__func_8h.html" target="_top" xlink:title=" ">
<polygon fill="none" stroke="black" points="0,-168.5 0,-187.5 71,-187.5 71,-168.5 0,-168.5"/>
<text text-anchor="middle" x="35.5" y="-175.5" font-family="Helvetica,sans-Serif" font-size="10.00">slave_func.h</text>
</a>
</g>
</g>
<!-- Node1&#45;&gt;Node2 -->
<g id="edge1" class="edge">
<title>Node1&#45;&gt;Node2</title>
<path fill="none" stroke="midnightblue" d="M59.92,-224.4C55.46,-216.11 49.78,-205.55 45.02,-196.71"/>
<polygon fill="midnightblue" stroke="midnightblue" points="47.98,-194.81 40.16,-187.66 41.81,-198.12 47.98,-194.81"/>
</g>
<!-- Node5 -->
<g id="node5" class="node">
<title>Node5</title>
<g id="a_node5"><a xlink:href="slave_8h.html" target="_top" xlink:title=" ">
<polygon fill="none" stroke="black" points="64,-112.5 64,-131.5 111,-131.5 111,-112.5 64,-112.5"/>
<text text-anchor="middle" x="87.5" y="-119.5" font-family="Helvetica,sans-Serif" font-size="10.00">slave.h</text>
</a>
</g>
</g>
<!-- Node1&#45;&gt;Node5 -->
<g id="edge8" class="edge">
<title>Node1&#45;&gt;Node5</title>
<path fill="none" stroke="midnightblue" d="M71.28,-224.44C73.89,-214.36 77.27,-200.42 79.5,-188 82.27,-172.59 84.37,-154.96 85.73,-141.95"/>
<polygon fill="midnightblue" stroke="midnightblue" points="89.22,-142.17 86.72,-131.88 82.26,-141.49 89.22,-142.17"/>
</g>
<!-- Node3 -->
<g id="node3" class="node">
<title>Node3</title>
<g id="a_node3"><a xlink:href="base_8h.html" target="_top" xlink:title=" ">
<polygon fill="none" stroke="black" points="13,-56.5 13,-75.5 58,-75.5 58,-56.5 13,-56.5"/>
<text text-anchor="middle" x="35.5" y="-63.5" font-family="Helvetica,sans-Serif" font-size="10.00">base.h</text>
</a>
</g>
</g>
<!-- Node2&#45;&gt;Node3 -->
<g id="edge2" class="edge">
<title>Node2&#45;&gt;Node3</title>
<path fill="none" stroke="midnightblue" d="M35.5,-168.37C35.5,-150.62 35.5,-109.67 35.5,-85.6"/>
<polygon fill="midnightblue" stroke="midnightblue" points="39,-85.59 35.5,-75.59 32,-85.59 39,-85.59"/>
</g>
<!-- Node2&#45;&gt;Node5 -->
<g id="edge4" class="edge">
<title>Node2&#45;&gt;Node5</title>
<path fill="none" stroke="midnightblue" d="M44.09,-168.08C51.66,-160.22 62.88,-148.57 72.01,-139.08"/>
<polygon fill="midnightblue" stroke="midnightblue" points="74.66,-141.38 79.07,-131.75 69.62,-136.53 74.66,-141.38"/>
</g>
<!-- Node4 -->
<g id="node4" class="node">
<title>Node4</title>
<g id="a_node4"><a xlink:title=" ">
<polygon fill="none" stroke="#bfbfbf" points="36.5,-0.5 36.5,-19.5 84.5,-19.5 84.5,-0.5 36.5,-0.5"/>
<text text-anchor="middle" x="60.5" y="-7.5" font-family="Helvetica,sans-Serif" font-size="10.00">stdint.h</text>
</a>
</g>
</g>
<!-- Node3&#45;&gt;Node4 -->
<g id="edge3" class="edge">
<title>Node3&#45;&gt;Node4</title>
<path fill="none" stroke="midnightblue" d="M39.63,-56.08C43.01,-48.77 47.92,-38.18 52.12,-29.1"/>
<polygon fill="midnightblue" stroke="midnightblue" points="55.42,-30.3 56.45,-19.75 49.07,-27.36 55.42,-30.3"/>
</g>
<!-- Node5&#45;&gt;Node3 -->
<g id="edge7" class="edge">
<title>Node5&#45;&gt;Node3</title>
<path fill="none" stroke="midnightblue" d="M78.91,-112.08C71.34,-104.22 60.12,-92.57 50.99,-83.08"/>
<polygon fill="midnightblue" stroke="midnightblue" points="53.38,-80.53 43.93,-75.75 48.34,-85.38 53.38,-80.53"/>
</g>
<!-- Node5&#45;&gt;Node4 -->
<g id="edge5" class="edge">
<title>Node5&#45;&gt;Node4</title>
<path fill="none" stroke="midnightblue" d="M85.38,-112.37C81.02,-94.62 70.97,-53.67 65.06,-29.6"/>
<polygon fill="midnightblue" stroke="midnightblue" points="68.39,-28.47 62.61,-19.59 61.59,-30.14 68.39,-28.47"/>
</g>
<!-- Node6 -->
<g id="node6" class="node">
<title>Node6</title>
<g id="a_node6"><a xlink:title=" ">
<polygon fill="none" stroke="#bfbfbf" points="115,-56.5 115,-75.5 166,-75.5 166,-56.5 115,-56.5"/>
<text text-anchor="middle" x="140.5" y="-63.5" font-family="Helvetica,sans-Serif" font-size="10.00">stddef.h</text>
</a>
</g>
</g>
<!-- Node5&#45;&gt;Node6 -->
<g id="edge6" class="edge">
<title>Node5&#45;&gt;Node6</title>
<path fill="none" stroke="midnightblue" d="M96.25,-112.08C103.97,-104.22 115.4,-92.57 124.72,-83.08"/>
<polygon fill="midnightblue" stroke="midnightblue" points="127.4,-85.34 131.91,-75.75 122.41,-80.44 127.4,-85.34"/>
</g>
</g>
</svg>
