<?xml version="1.0" encoding="UTF-8" standalone="no"?>
<!DOCTYPE svg PUBLIC "-//W3C//DTD SVG 1.1//EN"
 "http://www.w3.org/Graphics/SVG/1.1/DTD/svg11.dtd">
<!-- Generated by graphviz version 2.44.0 ()
 -->
<!-- Title: include/lightmodbus/slave_func.h Pages: 1 -->
<svg width="246pt" height="240pt"
 viewBox="0.00 0.00 245.90 240.00" xmlns="http://www.w3.org/2000/svg" xmlns:xlink="http://www.w3.org/1999/xlink">
<g id="graph0" class="graph" transform="scale(1 1) rotate(0) translate(4 236)">
<title>include/lightmodbus/slave_func.h</title>
<!-- Node1 -->
<g id="node1" class="node">
<title>Node1</title>
<g id="a_node1"><a xlink:title=" ">
<polygon fill="#bfbfbf" stroke="black" points="13.9,-201.5 13.9,-231.5 116.9,-231.5 116.9,-201.5 13.9,-201.5"/>
<text text-anchor="start" x="21.9" y="-219.5" font-family="Helvetica,sans-Serif" font-size="10.00">include/lightmodbus</text>
<text text-anchor="middle" x="65.4" y="-208.5" font-family="Helvetica,sans-Serif" font-size="10.00">/slave_func.h</text>
</a>
</g>
</g>
<!-- Node2 -->
<g id="node2" class="node">
<title>Node2</title>
<g id="a_node2"><a xlink:href="lightmodbus_8h.html" target="_top" xlink:title=" ">
<polygon fill="none" stroke="black" points="13.9,-67.5 13.9,-97.5 116.9,-97.5 116.9,-67.5 13.9,-67.5"/>
<text text-anchor="start" x="21.9" y="-85.5" font-family="Helvetica,sans-Serif" font-size="10.00">include/lightmodbus</text>
<text text-anchor="middle" x="65.4" y="-74.5" font-family="Helvetica,sans-Serif" font-size="10.00">/lightmodbus.h</text>
</a>
</g>
</g>
<!-- Node1&#45;&gt;Node2 -->
<g id="edge1" class="edge">
<title>Node1&#45;&gt;Node2</title>
<path fill="none" stroke="midnightblue" d="M30.87,-195.43C20.38,-187.42 10.12,-177.17 4.4,-165 -1.47,-152.53 -1.47,-146.47 4.4,-134 11.65,-118.57 26.19,-106.24 39.26,-97.63"/>
<polygon fill="midnightblue" stroke="midnightblue" points="29.07,-198.44 39.26,-201.37 33.12,-192.73 29.07,-198.44"/>
</g>
<!-- Node4 -->
<g id="node4" class="node">
<title>Node4</title>
<g id="a_node4"><a xlink:href="slave_8impl_8h.html" target="_top" xlink:title=" ">
<polygon fill="none" stroke="black" points="13.9,-134.5 13.9,-164.5 116.9,-164.5 116.9,-134.5 13.9,-134.5"/>
<text text-anchor="start" x="21.9" y="-152.5" font-family="Helvetica,sans-Serif" font-size="10.00">include/lightmodbus</text>
<text text-anchor="middle" x="65.4" y="-141.5" font-family="Helvetica,sans-Serif" font-size="10.00">/slave.impl.h</text>
</a>
</g>
</g>
<!-- Node1&#45;&gt;Node4 -->
<g id="edge3" class="edge">
<title>Node1&#45;&gt;Node4</title>
<path fill="none" stroke="midnightblue" d="M65.4,-191.11C65.4,-182.15 65.4,-172.32 65.4,-164.58"/>
<polygon fill="midnightblue" stroke="midnightblue" points="61.9,-191.4 65.4,-201.4 68.9,-191.4 61.9,-191.4"/>
</g>
<!-- Node5 -->
<g id="node5" class="node">
<title>Node5</title>
<g id="a_node5"><a xlink:href="slave__func_8impl_8h.html" target="_top" xlink:title=" ">
<polygon fill="none" stroke="black" points="134.9,-134.5 134.9,-164.5 237.9,-164.5 237.9,-134.5 134.9,-134.5"/>
<text text-anchor="start" x="142.9" y="-152.5" font-family="Helvetica,sans-Serif" font-size="10.00">include/lightmodbus</text>
<text text-anchor="middle" x="186.4" y="-141.5" font-family="Helvetica,sans-Serif" font-size="10.00">/slave_func.impl.h</text>
</a>
</g>
</g>
<!-- Node1&#45;&gt;Node5 -->
<g id="edge5" class="edge">
<title>Node1&#45;&gt;Node5</title>
<path fill="none" stroke="midnightblue" d="M100.63,-196.57C119.66,-186.35 142.76,-173.94 160.19,-164.58"/>
<polygon fill="midnightblue" stroke="midnightblue" points="98.81,-193.58 91.65,-201.4 102.12,-199.75 98.81,-193.58"/>
</g>
<!-- Node3 -->
<g id="node3" class="node">
<title>Node3</title>
<g id="a_node3"><a xlink:href="lightmodbus_8hpp.html" target="_top" xlink:title=" ">
<polygon fill="none" stroke="black" points="13.9,-0.5 13.9,-30.5 116.9,-30.5 116.9,-0.5 13.9,-0.5"/>
<text text-anchor="start" x="21.9" y="-18.5" font-family="Helvetica,sans-Serif" font-size="10.00">include/lightmodbus</text>
<text text-anchor="middle" x="65.4" y="-7.5" font-family="Helvetica,sans-Serif" font-size="10.00">/lightmodbus.hpp</text>
</a>
</g>
</g>
<!-- Node2&#45;&gt;Node3 -->
<g id="edge2" class="edge">
<title>Node2&#45;&gt;Node3</title>
<path fill="none" stroke="midnightblue" d="M65.4,-57.11C65.4,-48.15 65.4,-38.32 65.4,-30.58"/>
<polygon fill="midnightblue" stroke="midnightblue" points="61.9,-57.4 65.4,-67.4 68.9,-57.4 61.9,-57.4"/>
</g>
<!-- Node4&#45;&gt;Node2 -->
<g id="edge4" class="edge">
<title>Node4&#45;&gt;Node2</title>
<path fill="none" stroke="midnightblue" d="M65.4,-124.11C65.4,-115.15 65.4,-105.32 65.4,-97.58"/>
<polygon fill="midnightblue" stroke="midnightblue" points="61.9,-124.4 65.4,-134.4 68.9,-124.4 61.9,-124.4"/>
</g>
<!-- Node5&#45;&gt;Node2 -->
<g id="edge6" class="edge">
<title>Node5&#45;&gt;Node2</title>
<path fill="none" stroke="midnightblue" d="M151.17,-129.57C132.13,-119.35 109.03,-106.94 91.6,-97.58"/>
<polygon fill="midnightblue" stroke="midnightblue" points="149.68,-132.75 160.14,-134.4 152.99,-126.58 149.68,-132.75"/>
</g>
</g>
</svg>
