<?xml version="1.0" encoding="UTF-8" standalone="no"?>
<!DOCTYPE svg PUBLIC "-//W3C//DTD SVG 1.1//EN"
 "http://www.w3.org/Graphics/SVG/1.1/DTD/svg11.dtd">
<!-- Generated by graphviz version 2.44.0 ()
 -->
<!-- Title: modbusSlaveAllocateResponse Pages: 1 -->
<svg width="699pt" height="317pt"
 viewBox="0.00 0.00 699.00 317.23" xmlns="http://www.w3.org/2000/svg" xmlns:xlink="http://www.w3.org/1999/xlink">
<g id="graph0" class="graph" transform="scale(1 1) rotate(0) translate(4 313.23)">
<title>modbusSlaveAllocateResponse</title>
<!-- Node1 -->
<g id="node1" class="node">
<title>Node1</title>
<g id="a_node1"><a xlink:title="Allocates memory for slave&#39;s response frame.">
<polygon fill="#bfbfbf" stroke="black" points="536,-152.5 536,-171.5 691,-171.5 691,-152.5 536,-152.5"/>
<text text-anchor="middle" x="613.5" y="-159.5" font-family="Helvetica,sans-Serif" font-size="10.00">modbusSlaveAllocateResponse</text>
</a>
</g>
</g>
<!-- Node2 -->
<g id="node2" class="node">
<title>Node2</title>
<g id="a_node2"><a xlink:href="slave_8h.html#a01b0b86602f899214d564f5bbe6ffdb2" target="_top" xlink:title="Builds an exception response frame.">
<polygon fill="none" stroke="black" points="373,-190.5 373,-209.5 488,-209.5 488,-190.5 373,-190.5"/>
<text text-anchor="middle" x="430.5" y="-197.5" font-family="Helvetica,sans-Serif" font-size="10.00">modbusBuildException</text>
</a>
</g>
</g>
<!-- Node1&#45;&gt;Node2 -->
<g id="edge1" class="edge">
<title>Node1&#45;&gt;Node2</title>
<path fill="none" stroke="midnightblue" d="M556.86,-173.68C531.19,-179.07 501.11,-185.39 476.85,-190.48"/>
<polygon fill="midnightblue" stroke="midnightblue" points="557.76,-177.07 566.83,-171.59 556.32,-170.22 557.76,-177.07"/>
</g>
<!-- Node5 -->
<g id="node5" class="node">
<title>Node5</title>
<g id="a_node5"><a xlink:href="slave_8h.html#a28b9fe2f4559cd0b1c39aff30099d591" target="_top" xlink:title="Parses provided Modbus RTU request frame and generates a Modbus RTU response.">
<polygon fill="none" stroke="black" points="0.5,-266.5 0.5,-285.5 133.5,-285.5 133.5,-266.5 0.5,-266.5"/>
<text text-anchor="middle" x="67" y="-273.5" font-family="Helvetica,sans-Serif" font-size="10.00">modbusParseRequestRTU</text>
</a>
</g>
</g>
<!-- Node1&#45;&gt;Node5 -->
<g id="edge14" class="edge">
<title>Node1&#45;&gt;Node5</title>
<path fill="none" stroke="midnightblue" d="M599.92,-179.67C581.22,-204.42 543.57,-248.77 500,-270 367.17,-334.73 182.95,-303.39 105.1,-285.51"/>
<polygon fill="midnightblue" stroke="midnightblue" points="602.81,-181.64 605.93,-171.51 597.18,-177.49 602.81,-181.64"/>
</g>
<!-- Node6 -->
<g id="node6" class="node">
<title>Node6</title>
<g id="a_node6"><a xlink:href="slave_8h.html#a5ad3fe86aa14f8982d7c459c68cd8b3e" target="_top" xlink:title="Parses provided Modbus TCP request frame and generates a Modbus TCP response.">
<polygon fill="none" stroke="black" points="1,-114.5 1,-133.5 133,-133.5 133,-114.5 1,-114.5"/>
<text text-anchor="middle" x="67" y="-121.5" font-family="Helvetica,sans-Serif" font-size="10.00">modbusParseRequestTCP</text>
</a>
</g>
</g>
<!-- Node1&#45;&gt;Node6 -->
<g id="edge15" class="edge">
<title>Node1&#45;&gt;Node6</title>
<path fill="none" stroke="midnightblue" d="M570.34,-149.6C549.33,-143.72 523.46,-136.92 500,-132 355.98,-101.78 316.53,-91.47 170,-105 149.91,-106.86 127.88,-110.72 109.44,-114.49"/>
<polygon fill="midnightblue" stroke="midnightblue" points="569.65,-153.05 580.23,-152.41 571.56,-146.31 569.65,-153.05"/>
</g>
<!-- Node7 -->
<g id="node7" class="node">
<title>Node7</title>
<g id="a_node7"><a xlink:href="slave__func_8h.html#aff8edb5d03d53414296edee03a83691a" target="_top" xlink:title="Handles requests 01, 02, 03 and 04 (Read Multiple XX) and generates response.">
<polygon fill="none" stroke="black" points="170,-266.5 170,-285.5 325,-285.5 325,-266.5 170,-266.5"/>
<text text-anchor="middle" x="247.5" y="-273.5" font-family="Helvetica,sans-Serif" font-size="10.00">modbusParseRequest01020304</text>
</a>
</g>
</g>
<!-- Node1&#45;&gt;Node7 -->
<g id="edge10" class="edge">
<title>Node1&#45;&gt;Node7</title>
<path fill="none" stroke="midnightblue" d="M595.26,-178.41C574.46,-197.16 537.58,-227.15 500,-242 444.06,-264.1 376.28,-272.3 325.18,-275.14"/>
<polygon fill="midnightblue" stroke="midnightblue" points="597.67,-180.95 602.66,-171.6 592.93,-175.8 597.67,-180.95"/>
</g>
<!-- Node8 -->
<g id="node8" class="node">
<title>Node8</title>
<g id="a_node8"><a xlink:href="slave__func_8h.html#ad3a342d423dbc1142cd509768ac986e7" target="_top" xlink:title="Handles requests 05 and 06 (Write Single XX) and generates response.">
<polygon fill="none" stroke="black" points="180.5,-228.5 180.5,-247.5 314.5,-247.5 314.5,-228.5 180.5,-228.5"/>
<text text-anchor="middle" x="247.5" y="-235.5" font-family="Helvetica,sans-Serif" font-size="10.00">modbusParseRequest0506</text>
</a>
</g>
</g>
<!-- Node1&#45;&gt;Node8 -->
<g id="edge11" class="edge">
<title>Node1&#45;&gt;Node8</title>
<path fill="none" stroke="midnightblue" d="M589.74,-176.93C567.75,-190.51 533.03,-209.78 500,-219 438.74,-236.1 366.03,-239.91 314.59,-240.01"/>
<polygon fill="midnightblue" stroke="midnightblue" points="591.74,-179.8 598.33,-171.51 588.01,-173.88 591.74,-179.8"/>
</g>
<!-- Node9 -->
<g id="node9" class="node">
<title>Node9</title>
<g id="a_node9"><a xlink:href="slave__func_8h.html#a50a1e72594d7aec7101698bf9089b4de" target="_top" xlink:title="Handles requests 15 and 16 (Write Multiple XX) and generates response.">
<polygon fill="none" stroke="black" points="180.5,-152.5 180.5,-171.5 314.5,-171.5 314.5,-152.5 180.5,-152.5"/>
<text text-anchor="middle" x="247.5" y="-159.5" font-family="Helvetica,sans-Serif" font-size="10.00">modbusParseRequest1516</text>
</a>
</g>
</g>
<!-- Node1&#45;&gt;Node9 -->
<g id="edge12" class="edge">
<title>Node1&#45;&gt;Node9</title>
<path fill="none" stroke="midnightblue" d="M525.57,-162C460.87,-162 373.89,-162 314.77,-162"/>
<polygon fill="midnightblue" stroke="midnightblue" points="525.75,-165.5 535.75,-162 525.75,-158.5 525.75,-165.5"/>
</g>
<!-- Node10 -->
<g id="node10" class="node">
<title>Node10</title>
<g id="a_node10"><a xlink:href="slave__func_8h.html#a6495bc98691e5e944456bcc222d6ec63" target="_top" xlink:title="Handles request 22 (Mask Write Register) and generates response.">
<polygon fill="none" stroke="black" points="186,-114.5 186,-133.5 309,-133.5 309,-114.5 186,-114.5"/>
<text text-anchor="middle" x="247.5" y="-121.5" font-family="Helvetica,sans-Serif" font-size="10.00">modbusParseRequest22</text>
</a>
</g>
</g>
<!-- Node1&#45;&gt;Node10 -->
<g id="edge13" class="edge">
<title>Node1&#45;&gt;Node10</title>
<path fill="none" stroke="midnightblue" d="M525.66,-152.93C458.9,-145.96 368.35,-136.51 309.2,-130.34"/>
<polygon fill="midnightblue" stroke="midnightblue" points="525.44,-156.43 535.75,-153.99 526.17,-149.47 525.44,-156.43"/>
</g>
<!-- Node11 -->
<g id="node11" class="node">
<title>Node11</title>
<g id="a_node11"><a xlink:href="slave_8h.html#a70695c3b7355bc0a3e6d49c46a4eef1f" target="_top" xlink:title="Frees memory allocated in the ModbusSlave struct.">
<polygon fill="none" stroke="black" points="376,-38.5 376,-57.5 485,-57.5 485,-38.5 376,-38.5"/>
<text text-anchor="middle" x="430.5" y="-45.5" font-family="Helvetica,sans-Serif" font-size="10.00">modbusSlaveDestroy</text>
</a>
</g>
</g>
<!-- Node1&#45;&gt;Node11 -->
<g id="edge16" class="edge">
<title>Node1&#45;&gt;Node11</title>
<path fill="none" stroke="midnightblue" d="M595.35,-145.15C574.38,-125.34 537.09,-92.54 500,-72 489.42,-66.14 477.14,-61.3 465.93,-57.54"/>
<polygon fill="midnightblue" stroke="midnightblue" points="593.16,-147.9 602.8,-152.3 598.01,-142.85 593.16,-147.9"/>
</g>
<!-- Node12 -->
<g id="node12" class="node">
<title>Node12</title>
<g id="a_node12"><a xlink:href="slave_8h.html#a5e517b65cb8b32010146fa80b78bc848" target="_top" xlink:title="Frees memory allocated for slave&#39;s response frame.">
<polygon fill="none" stroke="black" points="361,-0.5 361,-19.5 500,-19.5 500,-0.5 361,-0.5"/>
<text text-anchor="middle" x="430.5" y="-7.5" font-family="Helvetica,sans-Serif" font-size="10.00">modbusSlaveFreeResponse</text>
</a>
</g>
</g>
<!-- Node1&#45;&gt;Node12 -->
<g id="edge17" class="edge">
<title>Node1&#45;&gt;Node12</title>
<path fill="none" stroke="midnightblue" d="M601.98,-143.56C584.55,-114.7 546.91,-59.04 500,-29 493.97,-25.14 487.16,-22.05 480.23,-19.59"/>
<polygon fill="midnightblue" stroke="midnightblue" points="599.01,-145.41 607.1,-152.25 605.04,-141.86 599.01,-145.41"/>
</g>
<!-- Node3 -->
<g id="node3" class="node">
<title>Node3</title>
<g id="a_node3"><a xlink:href="slave_8h.html#a4be93ca41808b56714f199dd21302541" target="_top" xlink:title="Parses provided PDU and generates response honorinng pduOffset and padding set in ModbusSlave during ...">
<polygon fill="none" stroke="black" points="191,-190.5 191,-209.5 304,-209.5 304,-190.5 191,-190.5"/>
<text text-anchor="middle" x="247.5" y="-197.5" font-family="Helvetica,sans-Serif" font-size="10.00">modbusParseRequest</text>
</a>
</g>
</g>
<!-- Node2&#45;&gt;Node3 -->
<g id="edge2" class="edge">
<title>Node2&#45;&gt;Node3</title>
<path fill="none" stroke="midnightblue" d="M362.54,-200C343.33,-200 322.59,-200 304.14,-200"/>
<polygon fill="midnightblue" stroke="midnightblue" points="362.73,-203.5 372.73,-200 362.73,-196.5 362.73,-203.5"/>
</g>
<!-- Node2&#45;&gt;Node7 -->
<g id="edge6" class="edge">
<title>Node2&#45;&gt;Node7</title>
<path fill="none" stroke="midnightblue" d="M406.17,-214.99C385.52,-227.7 354.22,-245.62 325,-257 315.56,-260.68 305.19,-263.81 295.21,-266.42"/>
<polygon fill="midnightblue" stroke="midnightblue" points="408.23,-217.83 414.86,-209.57 404.52,-211.9 408.23,-217.83"/>
</g>
<!-- Node2&#45;&gt;Node8 -->
<g id="edge7" class="edge">
<title>Node2&#45;&gt;Node8</title>
<path fill="none" stroke="midnightblue" d="M373.86,-211.68C348.19,-217.07 318.11,-223.39 293.85,-228.48"/>
<polygon fill="midnightblue" stroke="midnightblue" points="374.76,-215.07 383.83,-209.59 373.32,-208.22 374.76,-215.07"/>
</g>
<!-- Node2&#45;&gt;Node9 -->
<g id="edge8" class="edge">
<title>Node2&#45;&gt;Node9</title>
<path fill="none" stroke="midnightblue" d="M373.86,-188.32C348.19,-182.93 318.11,-176.61 293.85,-171.52"/>
<polygon fill="midnightblue" stroke="midnightblue" points="373.32,-191.78 383.83,-190.41 374.76,-184.93 373.32,-191.78"/>
</g>
<!-- Node2&#45;&gt;Node10 -->
<g id="edge9" class="edge">
<title>Node2&#45;&gt;Node10</title>
<path fill="none" stroke="midnightblue" d="M406.17,-185.01C385.52,-172.3 354.22,-154.38 325,-143 315.56,-139.32 305.19,-136.19 295.21,-133.58"/>
<polygon fill="midnightblue" stroke="midnightblue" points="404.52,-188.1 414.86,-190.43 408.23,-182.17 404.52,-188.1"/>
</g>
<!-- Node4 -->
<g id="node4" class="node">
<title>Node4</title>
<g id="a_node4"><a xlink:href="slave_8h.html#ad438e2f643c3237f52c445f699dbcc96" target="_top" xlink:title="Parses provided PDU and generates PDU for the response frame.">
<polygon fill="none" stroke="black" points="0,-190.5 0,-209.5 134,-209.5 134,-190.5 0,-190.5"/>
<text text-anchor="middle" x="67" y="-197.5" font-family="Helvetica,sans-Serif" font-size="10.00">modbusParseRequestPDU</text>
</a>
</g>
</g>
<!-- Node3&#45;&gt;Node4 -->
<g id="edge3" class="edge">
<title>Node3&#45;&gt;Node4</title>
<path fill="none" stroke="midnightblue" d="M180.67,-200C165.48,-200 149.32,-200 134.12,-200"/>
<polygon fill="midnightblue" stroke="midnightblue" points="181,-203.5 191,-200 181,-196.5 181,-203.5"/>
</g>
<!-- Node3&#45;&gt;Node5 -->
<g id="edge4" class="edge">
<title>Node3&#45;&gt;Node5</title>
<path fill="none" stroke="midnightblue" d="M189.86,-212.26C183.08,-214.25 176.33,-216.5 170,-219 136.99,-232.05 101.44,-253.9 82.26,-266.41"/>
<polygon fill="midnightblue" stroke="midnightblue" points="191.06,-215.55 199.76,-209.51 189.19,-208.81 191.06,-215.55"/>
</g>
<!-- Node3&#45;&gt;Node6 -->
<g id="edge5" class="edge">
<title>Node3&#45;&gt;Node6</title>
<path fill="none" stroke="midnightblue" d="M189.86,-187.74C183.08,-185.75 176.33,-183.5 170,-181 136.99,-167.95 101.44,-146.1 82.26,-133.59"/>
<polygon fill="midnightblue" stroke="midnightblue" points="189.19,-191.19 199.76,-190.49 191.06,-184.45 189.19,-191.19"/>
</g>
</g>
</svg>
