<?xml version="1.0" encoding="UTF-8" standalone="no"?>
<!DOCTYPE svg PUBLIC "-//W3C//DTD SVG 1.1//EN"
 "http://www.w3.org/Graphics/SVG/1.1/DTD/svg11.dtd">
<!-- Generated by graphviz version 2.44.0 ()
 -->
<!-- Title: modbusParseRequest1516 Pages: 1 -->
<svg width="524pt" height="256pt"
 viewBox="0.00 0.00 524.00 256.00" xmlns="http://www.w3.org/2000/svg" xmlns:xlink="http://www.w3.org/1999/xlink">
<g id="graph0" class="graph" transform="scale(1 1) rotate(0) translate(4 252)">
<title>modbusParseRequest1516</title>
<!-- Node1 -->
<g id="node1" class="node">
<title>Node1</title>
<g id="a_node1"><a xlink:title="Handles requests 15 and 16 (Write Multiple XX) and generates response.">
<polygon fill="#bfbfbf" stroke="black" points="0,-114.5 0,-133.5 134,-133.5 134,-114.5 0,-114.5"/>
<text text-anchor="middle" x="67" y="-121.5" font-family="Helvetica,sans-Serif" font-size="10.00">modbusParseRequest1516</text>
</a>
</g>
</g>
<!-- Node2 -->
<g id="node2" class="node">
<title>Node2</title>
<g id="a_node2"><a xlink:href="base_8h.html#af23a50b36bef9c09ac82214a52ff4d58" target="_top" xlink:title="Returns number of bytes necessary to hold given number of bits.">
<polygon fill="none" stroke="black" points="195.5,-228.5 195.5,-247.5 299.5,-247.5 299.5,-228.5 195.5,-228.5"/>
<text text-anchor="middle" x="247.5" y="-235.5" font-family="Helvetica,sans-Serif" font-size="10.00">modbusBitsToBytes</text>
</a>
</g>
</g>
<!-- Node1&#45;&gt;Node2 -->
<g id="edge1" class="edge">
<title>Node1&#45;&gt;Node2</title>
<path fill="none" stroke="midnightblue" d="M75.55,-133.78C91.05,-153.16 128.51,-196.52 170,-219 174.89,-221.65 180.15,-223.94 185.55,-225.91"/>
<polygon fill="midnightblue" stroke="midnightblue" points="184.76,-229.33 195.35,-229.13 186.94,-222.68 184.76,-229.33"/>
</g>
<!-- Node3 -->
<g id="node3" class="node">
<title>Node3</title>
<g id="a_node3"><a xlink:href="slave_8h.html#a58243ce1e1adaffd0a3260edc2d03603" target="_top" xlink:title="Builds an exception response frame.">
<polygon fill="none" stroke="black" points="190,-190.5 190,-209.5 305,-209.5 305,-190.5 190,-190.5"/>
<text text-anchor="middle" x="247.5" y="-197.5" font-family="Helvetica,sans-Serif" font-size="10.00">modbusBuildException</text>
</a>
</g>
</g>
<!-- Node1&#45;&gt;Node3 -->
<g id="edge2" class="edge">
<title>Node1&#45;&gt;Node3</title>
<path fill="none" stroke="midnightblue" d="M82.26,-133.59C101.44,-146.1 136.99,-167.95 170,-181 176.33,-183.5 183.08,-185.75 189.86,-187.74"/>
<polygon fill="midnightblue" stroke="midnightblue" points="189.19,-191.19 199.76,-190.49 191.06,-184.45 189.19,-191.19"/>
</g>
<!-- Node5 -->
<g id="node5" class="node">
<title>Node5</title>
<g id="a_node5"><a xlink:href="base_8h.html#a61619958551d902c14ab6e51fb842ea0" target="_top" xlink:title="Checks whether provided address range causes an uint16_t overflow.">
<polygon fill="none" stroke="black" points="185,-152.5 185,-171.5 310,-171.5 310,-152.5 185,-152.5"/>
<text text-anchor="middle" x="247.5" y="-159.5" font-family="Helvetica,sans-Serif" font-size="10.00">modbusCheckRangeU16</text>
</a>
</g>
</g>
<!-- Node1&#45;&gt;Node5 -->
<g id="edge4" class="edge">
<title>Node1&#45;&gt;Node5</title>
<path fill="none" stroke="midnightblue" d="M113.04,-133.59C137.02,-138.69 166.7,-145.01 191.97,-150.39"/>
<polygon fill="midnightblue" stroke="midnightblue" points="191.27,-153.82 201.78,-152.48 192.73,-146.97 191.27,-153.82"/>
</g>
<!-- Node6 -->
<g id="node6" class="node">
<title>Node6</title>
<g id="a_node6"><a xlink:href="base_8h.html#aff2248343762719cdacf818e4dae3709" target="_top" xlink:title="Reads n&#45;th bit from an array.">
<polygon fill="none" stroke="black" points="198.5,-114.5 198.5,-133.5 296.5,-133.5 296.5,-114.5 198.5,-114.5"/>
<text text-anchor="middle" x="247.5" y="-121.5" font-family="Helvetica,sans-Serif" font-size="10.00">modbusMaskRead</text>
</a>
</g>
</g>
<!-- Node1&#45;&gt;Node6 -->
<g id="edge5" class="edge">
<title>Node1&#45;&gt;Node6</title>
<path fill="none" stroke="midnightblue" d="M134.21,-124C151.8,-124 170.66,-124 187.81,-124"/>
<polygon fill="midnightblue" stroke="midnightblue" points="188.24,-127.5 198.24,-124 188.24,-120.5 188.24,-127.5"/>
</g>
<!-- Node7 -->
<g id="node7" class="node">
<title>Node7</title>
<g id="a_node7"><a xlink:href="base_8h.html#ace96da9afdf1e1796a6e2d7ac1f6c81a" target="_top" xlink:title="Safely reads a big&#45;endian 16&#45;bit word from provided pointer.">
<polygon fill="none" stroke="black" points="212,-76.5 212,-95.5 283,-95.5 283,-76.5 212,-76.5"/>
<text text-anchor="middle" x="247.5" y="-83.5" font-family="Helvetica,sans-Serif" font-size="10.00">modbusRBE</text>
</a>
</g>
</g>
<!-- Node1&#45;&gt;Node7 -->
<g id="edge6" class="edge">
<title>Node1&#45;&gt;Node7</title>
<path fill="none" stroke="midnightblue" d="M113.04,-114.41C140.24,-108.62 174.77,-101.27 201.89,-95.5"/>
<polygon fill="midnightblue" stroke="midnightblue" points="202.84,-98.87 211.89,-93.37 201.38,-92.03 202.84,-98.87"/>
</g>
<!-- Node8 -->
<g id="node8" class="node">
<title>Node8</title>
<g id="a_node8"><a xlink:href="slave_8h.html#af92eebc644e36158bddfba128235fef6" target="_top" xlink:title="Allocates memory for slave&#39;s response frame.">
<polygon fill="none" stroke="black" points="170,-38.5 170,-57.5 325,-57.5 325,-38.5 170,-38.5"/>
<text text-anchor="middle" x="247.5" y="-45.5" font-family="Helvetica,sans-Serif" font-size="10.00">modbusSlaveAllocateResponse</text>
</a>
</g>
</g>
<!-- Node1&#45;&gt;Node8 -->
<g id="edge7" class="edge">
<title>Node1&#45;&gt;Node8</title>
<path fill="none" stroke="midnightblue" d="M82.26,-114.41C101.44,-101.9 136.99,-80.05 170,-67 176.33,-64.5 183.08,-62.25 189.86,-60.26"/>
<polygon fill="midnightblue" stroke="midnightblue" points="191.06,-63.55 199.76,-57.51 189.19,-56.81 191.06,-63.55"/>
</g>
<!-- Node9 -->
<g id="node9" class="node">
<title>Node9</title>
<g id="a_node9"><a xlink:href="base_8h.html#a73b9f793bbe67a1968cc8c53a22d4c4b" target="_top" xlink:title="Safely writes a big&#45;endian 16&#45;bit word to provided pointer.">
<polygon fill="none" stroke="black" points="211,-0.5 211,-19.5 284,-19.5 284,-0.5 211,-0.5"/>
<text text-anchor="middle" x="247.5" y="-7.5" font-family="Helvetica,sans-Serif" font-size="10.00">modbusWBE</text>
</a>
</g>
</g>
<!-- Node1&#45;&gt;Node9 -->
<g id="edge8" class="edge">
<title>Node1&#45;&gt;Node9</title>
<path fill="none" stroke="midnightblue" d="M75.55,-114.22C91.05,-94.84 128.51,-51.48 170,-29 179.48,-23.86 190.38,-20.09 200.91,-17.32"/>
<polygon fill="midnightblue" stroke="midnightblue" points="201.93,-20.68 210.85,-14.97 200.31,-13.87 201.93,-20.68"/>
</g>
<!-- Node4 -->
<g id="node4" class="node">
<title>Node4</title>
<g id="a_node4"><a xlink:href="slave_8impl_8h.html#aa87aa17ffca453550f7b0489b39f077b" target="_top" xlink:title="Allocates memory for slave&#39;s response frame.">
<polygon fill="none" stroke="black" points="361,-190.5 361,-209.5 516,-209.5 516,-190.5 361,-190.5"/>
<text text-anchor="middle" x="438.5" y="-197.5" font-family="Helvetica,sans-Serif" font-size="10.00">modbusSlaveAllocateResponse</text>
</a>
</g>
</g>
<!-- Node3&#45;&gt;Node4 -->
<g id="edge3" class="edge">
<title>Node3&#45;&gt;Node4</title>
<path fill="none" stroke="midnightblue" d="M305.21,-200C319.57,-200 335.32,-200 350.79,-200"/>
<polygon fill="midnightblue" stroke="midnightblue" points="350.91,-203.5 360.91,-200 350.91,-196.5 350.91,-203.5"/>
</g>
</g>
</svg>
