<?xml version="1.0" encoding="UTF-8" standalone="no"?>
<!DOCTYPE svg PUBLIC "-//W3C//DTD SVG 1.1//EN"
 "http://www.w3.org/Graphics/SVG/1.1/DTD/svg11.dtd">
<!-- Generated by graphviz version 2.44.0 ()
 -->
<!-- Title: modbusBuildExceptionRTU Pages: 1 -->
<svg width="664pt" height="199pt"
 viewBox="0.00 0.00 664.00 199.00" xmlns="http://www.w3.org/2000/svg" xmlns:xlink="http://www.w3.org/1999/xlink">
<g id="graph0" class="graph" transform="scale(1 1) rotate(0) translate(4 195)">
<title>modbusBuildExceptionRTU</title>
<!-- Node1 -->
<g id="node1" class="node">
<title>Node1</title>
<g id="a_node1"><a xlink:title="Builds a Modbus RTU exception.">
<polygon fill="#bfbfbf" stroke="black" points="0,-95.5 0,-114.5 135,-114.5 135,-95.5 0,-95.5"/>
<text text-anchor="middle" x="67.5" y="-102.5" font-family="Helvetica,sans-Serif" font-size="10.00">modbusBuildExceptionRTU</text>
</a>
</g>
</g>
<!-- Node2 -->
<g id="node2" class="node">
<title>Node2</title>
<g id="a_node2"><a xlink:href="slave_8impl_8h.html#a58243ce1e1adaffd0a3260edc2d03603" target="_top" xlink:title="Builds an exception response frame.">
<polygon fill="none" stroke="black" points="171,-142.5 171,-161.5 286,-161.5 286,-142.5 171,-142.5"/>
<text text-anchor="middle" x="228.5" y="-149.5" font-family="Helvetica,sans-Serif" font-size="10.00">modbusBuildException</text>
</a>
</g>
</g>
<!-- Node1&#45;&gt;Node2 -->
<g id="edge1" class="edge">
<title>Node1&#45;&gt;Node2</title>
<path fill="none" stroke="midnightblue" d="M100.68,-114.51C125.06,-121.72 158.77,-131.68 185.31,-139.53"/>
<polygon fill="midnightblue" stroke="midnightblue" points="184.52,-142.94 195.1,-142.42 186.5,-136.23 184.52,-142.94"/>
</g>
<!-- Node6 -->
<g id="node6" class="node">
<title>Node6</title>
<g id="a_node6"><a xlink:href="base_8h.html#a64880e7075f445881485396f3aa869c5" target="_top" xlink:title="Checks if ModbusErrorInfo contains an error.">
<polygon fill="none" stroke="black" points="192.5,-95.5 192.5,-114.5 264.5,-114.5 264.5,-95.5 192.5,-95.5"/>
<text text-anchor="middle" x="228.5" y="-102.5" font-family="Helvetica,sans-Serif" font-size="10.00">modbusIsOk</text>
</a>
</g>
</g>
<!-- Node1&#45;&gt;Node6 -->
<g id="edge5" class="edge">
<title>Node1&#45;&gt;Node6</title>
<path fill="none" stroke="midnightblue" d="M135.01,-105C150.9,-105 167.49,-105 182.17,-105"/>
<polygon fill="midnightblue" stroke="midnightblue" points="182.48,-108.5 192.48,-105 182.48,-101.5 182.48,-108.5"/>
</g>
<!-- Node9 -->
<g id="node9" class="node">
<title>Node9</title>
<g id="a_node9"><a xlink:href="base_8h.html#af2cafe9debf86bea7042b4c40bb288cd" target="_top" xlink:title="Sets up address and CRC in a Modbus RTU frame.">
<polygon fill="none" stroke="black" points="181.5,-38.5 181.5,-57.5 275.5,-57.5 275.5,-38.5 181.5,-38.5"/>
<text text-anchor="middle" x="228.5" y="-45.5" font-family="Helvetica,sans-Serif" font-size="10.00">modbusPackRTU</text>
</a>
</g>
</g>
<!-- Node1&#45;&gt;Node9 -->
<g id="edge8" class="edge">
<title>Node1&#45;&gt;Node9</title>
<path fill="none" stroke="midnightblue" d="M95.11,-95.46C121.48,-86.01 162.06,-71.46 191.34,-60.96"/>
<polygon fill="midnightblue" stroke="midnightblue" points="192.57,-64.24 200.8,-57.57 190.21,-57.65 192.57,-64.24"/>
</g>
<!-- Node3 -->
<g id="node3" class="node">
<title>Node3</title>
<g id="a_node3"><a xlink:href="slave_8h.html#ad1165bb6d12af1db502a05df5da55aed" target="_top" xlink:title="Allocates memory for slave&#39;s response frame.">
<polygon fill="none" stroke="black" points="322,-152.5 322,-171.5 477,-171.5 477,-152.5 322,-152.5"/>
<text text-anchor="middle" x="399.5" y="-159.5" font-family="Helvetica,sans-Serif" font-size="10.00">modbusSlaveAllocateResponse</text>
</a>
</g>
</g>
<!-- Node2&#45;&gt;Node3 -->
<g id="edge2" class="edge">
<title>Node2&#45;&gt;Node3</title>
<path fill="none" stroke="midnightblue" d="M286.24,-155.36C294.45,-155.84 303.04,-156.35 311.67,-156.86"/>
<polygon fill="midnightblue" stroke="midnightblue" points="311.6,-160.36 321.79,-157.46 312.01,-153.38 311.6,-160.36"/>
</g>
<!-- Node4 -->
<g id="node4" class="node">
<title>Node4</title>
<g id="a_node4"><a xlink:href="base_8h.html#a54f7d1db7f58ffd329b1955ad1a66f37" target="_top" xlink:title="Allocates memory to hold Modbus ADU.">
<polygon fill="none" stroke="black" points="518,-171.5 518,-190.5 651,-190.5 651,-171.5 518,-171.5"/>
<text text-anchor="middle" x="584.5" y="-178.5" font-family="Helvetica,sans-Serif" font-size="10.00">modbusBufferAllocateADU</text>
</a>
</g>
</g>
<!-- Node3&#45;&gt;Node4 -->
<g id="edge3" class="edge">
<title>Node3&#45;&gt;Node4</title>
<path fill="none" stroke="midnightblue" d="M477.05,-169.95C487.19,-171 497.57,-172.08 507.7,-173.13"/>
<polygon fill="midnightblue" stroke="midnightblue" points="507.41,-176.62 517.72,-174.17 508.13,-169.66 507.41,-176.62"/>
</g>
<!-- Node5 -->
<g id="node5" class="node">
<title>Node5</title>
<g id="a_node5"><a xlink:href="slave_8h.html#abbbf205b4c4a0b74b5ae29b865ca3262" target="_top" xlink:title="Retreieves the custom context pointer.">
<polygon fill="none" stroke="black" points="513,-133.5 513,-152.5 656,-152.5 656,-133.5 513,-133.5"/>
<text text-anchor="middle" x="584.5" y="-140.5" font-family="Helvetica,sans-Serif" font-size="10.00">modbusSlaveGetUserPointer</text>
</a>
</g>
</g>
<!-- Node3&#45;&gt;Node5 -->
<g id="edge4" class="edge">
<title>Node3&#45;&gt;Node5</title>
<path fill="none" stroke="midnightblue" d="M477.05,-154.05C485.57,-153.17 494.26,-152.27 502.83,-151.38"/>
<polygon fill="midnightblue" stroke="midnightblue" points="503.22,-154.85 512.81,-150.34 502.5,-147.89 503.22,-154.85"/>
</g>
<!-- Node7 -->
<g id="node7" class="node">
<title>Node7</title>
<g id="a_node7"><a xlink:href="base_8h.html#a29d2a7853b328113e4fcddae85fd3ce5" target="_top" xlink:title="Returns ModbusError contained in ModbusErrorInfo.">
<polygon fill="none" stroke="black" points="344.5,-114.5 344.5,-133.5 454.5,-133.5 454.5,-114.5 344.5,-114.5"/>
<text text-anchor="middle" x="399.5" y="-121.5" font-family="Helvetica,sans-Serif" font-size="10.00">modbusGetErrorCode</text>
</a>
</g>
</g>
<!-- Node6&#45;&gt;Node7 -->
<g id="edge6" class="edge">
<title>Node6&#45;&gt;Node7</title>
<path fill="none" stroke="midnightblue" d="M264.52,-108.94C284.65,-111.2 310.57,-114.11 334.24,-116.78"/>
<polygon fill="midnightblue" stroke="midnightblue" points="333.9,-120.26 344.22,-117.9 334.68,-113.3 333.9,-120.26"/>
</g>
<!-- Node8 -->
<g id="node8" class="node">
<title>Node8</title>
<g id="a_node8"><a xlink:href="base_8h.html#a9ee4c2e633c7a42f88acc09b95f8171e" target="_top" xlink:title="Returns uint8_t describing error source of ModbusErrorInfo.">
<polygon fill="none" stroke="black" points="340.5,-76.5 340.5,-95.5 458.5,-95.5 458.5,-76.5 340.5,-76.5"/>
<text text-anchor="middle" x="399.5" y="-83.5" font-family="Helvetica,sans-Serif" font-size="10.00">modbusGetErrorSource</text>
</a>
</g>
</g>
<!-- Node6&#45;&gt;Node8 -->
<g id="edge7" class="edge">
<title>Node6&#45;&gt;Node8</title>
<path fill="none" stroke="midnightblue" d="M264.52,-101.06C283.47,-98.93 307.54,-96.23 330.04,-93.7"/>
<polygon fill="midnightblue" stroke="midnightblue" points="330.69,-97.15 340.24,-92.55 329.91,-90.19 330.69,-97.15"/>
</g>
<!-- Node10 -->
<g id="node10" class="node">
<title>Node10</title>
<g id="a_node10"><a xlink:href="base_8h.html#a11346a546b84663cd92cb30f4ffd1393" target="_top" xlink:title="Calculates 16&#45;bit Modbus CRC of provided data.">
<polygon fill="none" stroke="black" points="364,-38.5 364,-57.5 435,-57.5 435,-38.5 364,-38.5"/>
<text text-anchor="middle" x="399.5" y="-45.5" font-family="Helvetica,sans-Serif" font-size="10.00">modbusCRC</text>
</a>
</g>
</g>
<!-- Node9&#45;&gt;Node10 -->
<g id="edge9" class="edge">
<title>Node9&#45;&gt;Node10</title>
<path fill="none" stroke="midnightblue" d="M275.68,-48C299.94,-48 329.55,-48 353.62,-48"/>
<polygon fill="midnightblue" stroke="midnightblue" points="353.91,-51.5 363.91,-48 353.91,-44.5 353.91,-51.5"/>
</g>
<!-- Node11 -->
<g id="node11" class="node">
<title>Node11</title>
<g id="a_node11"><a xlink:href="base_8h.html#af718da7da634f311c2ae8db6be3d9027" target="_top" xlink:title="Safely writes a little&#45;endian 16&#45;bit word to provided pointer.">
<polygon fill="none" stroke="black" points="363.5,-0.5 363.5,-19.5 435.5,-19.5 435.5,-0.5 363.5,-0.5"/>
<text text-anchor="middle" x="399.5" y="-7.5" font-family="Helvetica,sans-Serif" font-size="10.00">modbusWLE</text>
</a>
</g>
</g>
<!-- Node9&#45;&gt;Node11 -->
<g id="edge10" class="edge">
<title>Node9&#45;&gt;Node11</title>
<path fill="none" stroke="midnightblue" d="M272.15,-38.41C296.9,-32.85 328.06,-25.84 353.24,-20.18"/>
<polygon fill="midnightblue" stroke="midnightblue" points="354.29,-23.53 363.28,-17.92 352.75,-16.7 354.29,-23.53"/>
</g>
</g>
</svg>
