<?xml version="1.0" encoding="UTF-8" standalone="no"?>
<!DOCTYPE svg PUBLIC "-//W3C//DTD SVG 1.1//EN"
 "http://www.w3.org/Graphics/SVG/1.1/DTD/svg11.dtd">
<!-- Generated by graphviz version 2.44.0 ()
 -->
<!-- Title: modbusBuildExceptionTCP Pages: 1 -->
<svg width="484pt" height="142pt"
 viewBox="0.00 0.00 484.00 142.00" xmlns="http://www.w3.org/2000/svg" xmlns:xlink="http://www.w3.org/1999/xlink">
<g id="graph0" class="graph" transform="scale(1 1) rotate(0) translate(4 138)">
<title>modbusBuildExceptionTCP</title>
<!-- Node1 -->
<g id="node1" class="node">
<title>Node1</title>
<g id="a_node1"><a xlink:title="Builds a Modbus TCP exception.">
<polygon fill="#bfbfbf" stroke="black" points="0,-66.5 0,-85.5 134,-85.5 134,-66.5 0,-66.5"/>
<text text-anchor="middle" x="67" y="-73.5" font-family="Helvetica,sans-Serif" font-size="10.00">modbusBuildExceptionTCP</text>
</a>
</g>
</g>
<!-- Node2 -->
<g id="node2" class="node">
<title>Node2</title>
<g id="a_node2"><a xlink:href="slave_8impl_8h.html#a58243ce1e1adaffd0a3260edc2d03603" target="_top" xlink:title="Builds an exception response frame.">
<polygon fill="none" stroke="black" points="170,-109.5 170,-128.5 285,-128.5 285,-109.5 170,-109.5"/>
<text text-anchor="middle" x="227.5" y="-116.5" font-family="Helvetica,sans-Serif" font-size="10.00">modbusBuildException</text>
</a>
</g>
</g>
<!-- Node1&#45;&gt;Node2 -->
<g id="edge1" class="edge">
<title>Node1&#45;&gt;Node2</title>
<path fill="none" stroke="midnightblue" d="M103.18,-85.54C126.26,-91.81 156.66,-100.05 181.5,-106.79"/>
<polygon fill="midnightblue" stroke="midnightblue" points="180.85,-110.24 191.42,-109.48 182.69,-103.49 180.85,-110.24"/>
</g>
<!-- Node4 -->
<g id="node4" class="node">
<title>Node4</title>
<g id="a_node4"><a xlink:href="base_8h.html#a64880e7075f445881485396f3aa869c5" target="_top" xlink:title="Checks if ModbusErrorInfo contains an error.">
<polygon fill="none" stroke="black" points="191.5,-66.5 191.5,-85.5 263.5,-85.5 263.5,-66.5 191.5,-66.5"/>
<text text-anchor="middle" x="227.5" y="-73.5" font-family="Helvetica,sans-Serif" font-size="10.00">modbusIsOk</text>
</a>
</g>
</g>
<!-- Node1&#45;&gt;Node4 -->
<g id="edge3" class="edge">
<title>Node1&#45;&gt;Node4</title>
<path fill="none" stroke="midnightblue" d="M134.3,-76C150,-76 166.4,-76 180.94,-76"/>
<polygon fill="midnightblue" stroke="midnightblue" points="181.16,-79.5 191.16,-76 181.16,-72.5 181.16,-79.5"/>
</g>
<!-- Node7 -->
<g id="node7" class="node">
<title>Node7</title>
<g id="a_node7"><a xlink:href="base_8h.html#a39dcd3aad118a779b7e1775fea3e5d77" target="_top" xlink:title="Sets up the MBAP header in a Modbus TCP frame.">
<polygon fill="none" stroke="black" points="181,-19.5 181,-38.5 274,-38.5 274,-19.5 181,-19.5"/>
<text text-anchor="middle" x="227.5" y="-26.5" font-family="Helvetica,sans-Serif" font-size="10.00">modbusPackTCP</text>
</a>
</g>
</g>
<!-- Node1&#45;&gt;Node7 -->
<g id="edge6" class="edge">
<title>Node1&#45;&gt;Node7</title>
<path fill="none" stroke="midnightblue" d="M100.07,-66.49C124.38,-59.28 157.99,-49.32 184.45,-41.47"/>
<polygon fill="midnightblue" stroke="midnightblue" points="185.61,-44.78 194.2,-38.58 183.62,-38.06 185.61,-44.78"/>
</g>
<!-- Node3 -->
<g id="node3" class="node">
<title>Node3</title>
<g id="a_node3"><a xlink:href="slave_8impl_8h.html#aa87aa17ffca453550f7b0489b39f077b" target="_top" xlink:title="Allocates memory for slave&#39;s response frame.">
<polygon fill="none" stroke="black" points="321,-114.5 321,-133.5 476,-133.5 476,-114.5 321,-114.5"/>
<text text-anchor="middle" x="398.5" y="-121.5" font-family="Helvetica,sans-Serif" font-size="10.00">modbusSlaveAllocateResponse</text>
</a>
</g>
</g>
<!-- Node2&#45;&gt;Node3 -->
<g id="edge2" class="edge">
<title>Node2&#45;&gt;Node3</title>
<path fill="none" stroke="midnightblue" d="M285.24,-120.68C293.45,-120.92 302.04,-121.18 310.67,-121.43"/>
<polygon fill="midnightblue" stroke="midnightblue" points="310.69,-124.93 320.79,-121.73 310.9,-117.94 310.69,-124.93"/>
</g>
<!-- Node5 -->
<g id="node5" class="node">
<title>Node5</title>
<g id="a_node5"><a xlink:href="base_8h.html#a29d2a7853b328113e4fcddae85fd3ce5" target="_top" xlink:title="Returns ModbusError contained in ModbusErrorInfo.">
<polygon fill="none" stroke="black" points="343.5,-76.5 343.5,-95.5 453.5,-95.5 453.5,-76.5 343.5,-76.5"/>
<text text-anchor="middle" x="398.5" y="-83.5" font-family="Helvetica,sans-Serif" font-size="10.00">modbusGetErrorCode</text>
</a>
</g>
</g>
<!-- Node4&#45;&gt;Node5 -->
<g id="edge4" class="edge">
<title>Node4&#45;&gt;Node5</title>
<path fill="none" stroke="midnightblue" d="M263.52,-78.07C283.65,-79.26 309.57,-80.8 333.24,-82.2"/>
<polygon fill="midnightblue" stroke="midnightblue" points="333.04,-85.69 343.22,-82.79 333.45,-78.7 333.04,-85.69"/>
</g>
<!-- Node6 -->
<g id="node6" class="node">
<title>Node6</title>
<g id="a_node6"><a xlink:href="base_8h.html#a9ee4c2e633c7a42f88acc09b95f8171e" target="_top" xlink:title="Returns uint8_t describing error source of ModbusErrorInfo.">
<polygon fill="none" stroke="black" points="339.5,-38.5 339.5,-57.5 457.5,-57.5 457.5,-38.5 339.5,-38.5"/>
<text text-anchor="middle" x="398.5" y="-45.5" font-family="Helvetica,sans-Serif" font-size="10.00">modbusGetErrorSource</text>
</a>
</g>
</g>
<!-- Node4&#45;&gt;Node6 -->
<g id="edge5" class="edge">
<title>Node4&#45;&gt;Node6</title>
<path fill="none" stroke="midnightblue" d="M263.52,-70.2C282.72,-67.02 307.18,-62.96 329.94,-59.19"/>
<polygon fill="midnightblue" stroke="midnightblue" points="330.61,-62.63 339.91,-57.54 329.47,-55.72 330.61,-62.63"/>
</g>
<!-- Node8 -->
<g id="node8" class="node">
<title>Node8</title>
<g id="a_node8"><a xlink:href="base_8h.html#a73b9f793bbe67a1968cc8c53a22d4c4b" target="_top" xlink:title="Safely writes a big&#45;endian 16&#45;bit word to provided pointer.">
<polygon fill="none" stroke="black" points="362,-0.5 362,-19.5 435,-19.5 435,-0.5 362,-0.5"/>
<text text-anchor="middle" x="398.5" y="-7.5" font-family="Helvetica,sans-Serif" font-size="10.00">modbusWBE</text>
</a>
</g>
</g>
<!-- Node7&#45;&gt;Node8 -->
<g id="edge7" class="edge">
<title>Node7&#45;&gt;Node8</title>
<path fill="none" stroke="midnightblue" d="M274.23,-23.86C298.35,-21.15 327.86,-17.83 351.95,-15.12"/>
<polygon fill="midnightblue" stroke="midnightblue" points="352.37,-18.6 361.91,-14 351.58,-11.64 352.37,-18.6"/>
</g>
</g>
</svg>
