<?xml version="1.0" encoding="UTF-8" standalone="no"?>
<!DOCTYPE svg PUBLIC "-//W3C//DTD SVG 1.1//EN"
 "http://www.w3.org/Graphics/SVG/1.1/DTD/svg11.dtd">
<!-- Generated by graphviz version 2.44.0 ()
 -->
<!-- Title: modbusSlaveAllocateResponse Pages: 1 -->
<svg width="699pt" height="370pt"
 viewBox="0.00 0.00 699.00 370.00" xmlns="http://www.w3.org/2000/svg" xmlns:xlink="http://www.w3.org/1999/xlink">
<g id="graph0" class="graph" transform="scale(1 1) rotate(0) translate(4 366)">
<title>modbusSlaveAllocateResponse</title>
<!-- Node1 -->
<g id="node1" class="node">
<title>Node1</title>
<g id="a_node1"><a xlink:title="Allocates memory for slave&#39;s response frame.">
<polygon fill="#bfbfbf" stroke="black" points="536,-114.5 536,-133.5 691,-133.5 691,-114.5 536,-114.5"/>
<text text-anchor="middle" x="613.5" y="-121.5" font-family="Helvetica,sans-Serif" font-size="10.00">modbusSlaveAllocateResponse</text>
</a>
</g>
</g>
<!-- Node2 -->
<g id="node2" class="node">
<title>Node2</title>
<g id="a_node2"><a xlink:href="slave_8h.html#a58243ce1e1adaffd0a3260edc2d03603" target="_top" xlink:title="Builds an exception response frame.">
<polygon fill="none" stroke="black" points="373,-228.5 373,-247.5 488,-247.5 488,-228.5 373,-228.5"/>
<text text-anchor="middle" x="430.5" y="-235.5" font-family="Helvetica,sans-Serif" font-size="10.00">modbusBuildException</text>
</a>
</g>
</g>
<!-- Node1&#45;&gt;Node2 -->
<g id="edge1" class="edge">
<title>Node1&#45;&gt;Node2</title>
<path fill="none" stroke="midnightblue" d="M595.35,-140.85C574.38,-160.66 537.09,-193.46 500,-214 489.42,-219.86 477.14,-224.7 465.93,-228.46"/>
<polygon fill="midnightblue" stroke="midnightblue" points="598.01,-143.15 602.8,-133.7 593.16,-138.1 598.01,-143.15"/>
</g>
<!-- Node10 -->
<g id="node10" class="node">
<title>Node10</title>
<g id="a_node10"><a xlink:href="slave__func_8h.html#aaff57f2a5c6a8e6c77d36c5dc7e48cfa" target="_top" xlink:title="Handles requests 01, 02, 03 and 04 (Read Multiple XX) and generates response.">
<polygon fill="none" stroke="black" points="170,-190.5 170,-209.5 325,-209.5 325,-190.5 170,-190.5"/>
<text text-anchor="middle" x="247.5" y="-197.5" font-family="Helvetica,sans-Serif" font-size="10.00">modbusParseRequest01020304</text>
</a>
</g>
</g>
<!-- Node1&#45;&gt;Node10 -->
<g id="edge13" class="edge">
<title>Node1&#45;&gt;Node10</title>
<path fill="none" stroke="midnightblue" d="M575.06,-136.63C553.33,-143.63 525.33,-152.08 500,-158 440.08,-172 371.08,-183.18 320.53,-190.47"/>
<polygon fill="midnightblue" stroke="midnightblue" points="576.14,-139.96 584.57,-133.53 573.97,-133.3 576.14,-139.96"/>
</g>
<!-- Node11 -->
<g id="node11" class="node">
<title>Node11</title>
<g id="a_node11"><a xlink:href="slave__func_8h.html#a236881fe30a95d4cc9b031a9e24ae2a8" target="_top" xlink:title="Handles requests 05 and 06 (Write Single XX) and generates response.">
<polygon fill="none" stroke="black" points="180.5,-152.5 180.5,-171.5 314.5,-171.5 314.5,-152.5 180.5,-152.5"/>
<text text-anchor="middle" x="247.5" y="-159.5" font-family="Helvetica,sans-Serif" font-size="10.00">modbusParseRequest0506</text>
</a>
</g>
</g>
<!-- Node1&#45;&gt;Node11 -->
<g id="edge14" class="edge">
<title>Node1&#45;&gt;Node11</title>
<path fill="none" stroke="midnightblue" d="M528.45,-134.73C518.86,-135.87 509.22,-136.99 500,-138 437.22,-144.9 365.49,-151.63 314.74,-156.2"/>
<polygon fill="midnightblue" stroke="midnightblue" points="528.9,-138.2 538.41,-133.53 528.06,-131.25 528.9,-138.2"/>
</g>
<!-- Node12 -->
<g id="node12" class="node">
<title>Node12</title>
<g id="a_node12"><a xlink:href="slave__func_8h.html#a0cb2a7bf59d4014088e1ce1c61523071" target="_top" xlink:title="Handles requests 15 and 16 (Write Multiple XX) and generates response.">
<polygon fill="none" stroke="black" points="180.5,-114.5 180.5,-133.5 314.5,-133.5 314.5,-114.5 180.5,-114.5"/>
<text text-anchor="middle" x="247.5" y="-121.5" font-family="Helvetica,sans-Serif" font-size="10.00">modbusParseRequest1516</text>
</a>
</g>
</g>
<!-- Node1&#45;&gt;Node12 -->
<g id="edge15" class="edge">
<title>Node1&#45;&gt;Node12</title>
<path fill="none" stroke="midnightblue" d="M525.57,-124C460.87,-124 373.89,-124 314.77,-124"/>
<polygon fill="midnightblue" stroke="midnightblue" points="525.75,-127.5 535.75,-124 525.75,-120.5 525.75,-127.5"/>
</g>
<!-- Node13 -->
<g id="node13" class="node">
<title>Node13</title>
<g id="a_node13"><a xlink:href="slave__func_8h.html#a814f041d9acfa578998b8ce8fe53815c" target="_top" xlink:title="Handles request 22 (Mask Write Register) and generates response.">
<polygon fill="none" stroke="black" points="186,-76.5 186,-95.5 309,-95.5 309,-76.5 186,-76.5"/>
<text text-anchor="middle" x="247.5" y="-83.5" font-family="Helvetica,sans-Serif" font-size="10.00">modbusParseRequest22</text>
</a>
</g>
</g>
<!-- Node1&#45;&gt;Node13 -->
<g id="edge16" class="edge">
<title>Node1&#45;&gt;Node13</title>
<path fill="none" stroke="midnightblue" d="M525.66,-114.93C458.9,-107.96 368.35,-98.51 309.2,-92.34"/>
<polygon fill="midnightblue" stroke="midnightblue" points="525.44,-118.43 535.75,-115.99 526.17,-111.47 525.44,-118.43"/>
</g>
<!-- Node14 -->
<g id="node14" class="node">
<title>Node14</title>
<g id="a_node14"><a xlink:href="slave_8h.html#a70695c3b7355bc0a3e6d49c46a4eef1f" target="_top" xlink:title="Frees memory allocated in the ModbusSlave struct.">
<polygon fill="none" stroke="black" points="376,-0.5 376,-19.5 485,-19.5 485,-0.5 376,-0.5"/>
<text text-anchor="middle" x="430.5" y="-7.5" font-family="Helvetica,sans-Serif" font-size="10.00">modbusSlaveDestroy</text>
</a>
</g>
</g>
<!-- Node1&#45;&gt;Node14 -->
<g id="edge17" class="edge">
<title>Node1&#45;&gt;Node14</title>
<path fill="none" stroke="midnightblue" d="M596.99,-107C576.7,-85.74 539.09,-49.64 500,-29 492.8,-25.2 484.76,-22.09 476.79,-19.58"/>
<polygon fill="midnightblue" stroke="midnightblue" points="594.5,-109.45 603.89,-114.35 599.6,-104.67 594.5,-109.45"/>
</g>
<!-- Node15 -->
<g id="node15" class="node">
<title>Node15</title>
<g id="a_node15"><a xlink:href="slave_8h.html#a5e517b65cb8b32010146fa80b78bc848" target="_top" xlink:title="Frees memory allocated for slave&#39;s response frame.">
<polygon fill="none" stroke="black" points="361,-38.5 361,-57.5 500,-57.5 500,-38.5 361,-38.5"/>
<text text-anchor="middle" x="430.5" y="-45.5" font-family="Helvetica,sans-Serif" font-size="10.00">modbusSlaveFreeResponse</text>
</a>
</g>
</g>
<!-- Node1&#45;&gt;Node15 -->
<g id="edge18" class="edge">
<title>Node1&#45;&gt;Node15</title>
<path fill="none" stroke="midnightblue" d="M584.22,-110.01C561.67,-99.08 529.14,-83.81 500,-72 487.27,-66.84 472.96,-61.73 460.73,-57.55"/>
<polygon fill="midnightblue" stroke="midnightblue" points="582.72,-113.17 593.24,-114.41 585.78,-106.88 582.72,-113.17"/>
</g>
<!-- Node3 -->
<g id="node3" class="node">
<title>Node3</title>
<g id="a_node3"><a xlink:href="slave_8h.html#a384f75966903cc0c249eb68a6a20180e" target="_top" xlink:title="Builds an exception PDU.">
<polygon fill="none" stroke="black" points="179.5,-228.5 179.5,-247.5 315.5,-247.5 315.5,-228.5 179.5,-228.5"/>
<text text-anchor="middle" x="247.5" y="-235.5" font-family="Helvetica,sans-Serif" font-size="10.00">modbusBuildExceptionPDU</text>
</a>
</g>
</g>
<!-- Node2&#45;&gt;Node3 -->
<g id="edge2" class="edge">
<title>Node2&#45;&gt;Node3</title>
<path fill="none" stroke="midnightblue" d="M362.32,-238C347.04,-238 330.81,-238 315.53,-238"/>
<polygon fill="midnightblue" stroke="midnightblue" points="362.73,-241.5 372.73,-238 362.73,-234.5 362.73,-241.5"/>
</g>
<!-- Node4 -->
<g id="node4" class="node">
<title>Node4</title>
<g id="a_node4"><a xlink:href="slave_8h.html#a1da09df8858b91c61fe02c25783c2946" target="_top" xlink:title="Builds a Modbus RTU exception.">
<polygon fill="none" stroke="black" points="180,-342.5 180,-361.5 315,-361.5 315,-342.5 180,-342.5"/>
<text text-anchor="middle" x="247.5" y="-349.5" font-family="Helvetica,sans-Serif" font-size="10.00">modbusBuildExceptionRTU</text>
</a>
</g>
</g>
<!-- Node2&#45;&gt;Node4 -->
<g id="edge3" class="edge">
<title>Node2&#45;&gt;Node4</title>
<path fill="none" stroke="midnightblue" d="M415.19,-255.5C396.64,-277.01 362.23,-313.11 325,-333 317.76,-336.87 309.71,-339.97 301.63,-342.45"/>
<polygon fill="midnightblue" stroke="midnightblue" points="417.94,-257.67 421.71,-247.77 412.59,-253.16 417.94,-257.67"/>
</g>
<!-- Node5 -->
<g id="node5" class="node">
<title>Node5</title>
<g id="a_node5"><a xlink:href="slave_8h.html#a778e65356f7da66831f18ec53b975383" target="_top" xlink:title="Builds a Modbus TCP exception.">
<polygon fill="none" stroke="black" points="180.5,-304.5 180.5,-323.5 314.5,-323.5 314.5,-304.5 180.5,-304.5"/>
<text text-anchor="middle" x="247.5" y="-311.5" font-family="Helvetica,sans-Serif" font-size="10.00">modbusBuildExceptionTCP</text>
</a>
</g>
</g>
<!-- Node2&#45;&gt;Node5 -->
<g id="edge4" class="edge">
<title>Node2&#45;&gt;Node5</title>
<path fill="none" stroke="midnightblue" d="M406.17,-252.99C385.52,-265.7 354.22,-283.62 325,-295 315.56,-298.68 305.19,-301.81 295.21,-304.42"/>
<polygon fill="midnightblue" stroke="midnightblue" points="408.23,-255.83 414.86,-247.57 404.52,-249.9 408.23,-255.83"/>
</g>
<!-- Node6 -->
<g id="node6" class="node">
<title>Node6</title>
<g id="a_node6"><a xlink:href="slave_8h.html#aff0a9164a0e37aa619232ae86e3ff97a" target="_top" xlink:title="Parses provided PDU and generates response honorinng pduOffset and padding set in ModbusSlave during ...">
<polygon fill="none" stroke="black" points="191,-266.5 191,-285.5 304,-285.5 304,-266.5 191,-266.5"/>
<text text-anchor="middle" x="247.5" y="-273.5" font-family="Helvetica,sans-Serif" font-size="10.00">modbusParseRequest</text>
</a>
</g>
</g>
<!-- Node2&#45;&gt;Node6 -->
<g id="edge5" class="edge">
<title>Node2&#45;&gt;Node6</title>
<path fill="none" stroke="midnightblue" d="M373.86,-249.68C348.19,-255.07 318.11,-261.39 293.85,-266.48"/>
<polygon fill="midnightblue" stroke="midnightblue" points="374.76,-253.07 383.83,-247.59 373.32,-246.22 374.76,-253.07"/>
</g>
<!-- Node2&#45;&gt;Node10 -->
<g id="edge9" class="edge">
<title>Node2&#45;&gt;Node10</title>
<path fill="none" stroke="midnightblue" d="M373.86,-226.32C348.19,-220.93 318.11,-214.61 293.85,-209.52"/>
<polygon fill="midnightblue" stroke="midnightblue" points="373.32,-229.78 383.83,-228.41 374.76,-222.93 373.32,-229.78"/>
</g>
<!-- Node2&#45;&gt;Node11 -->
<g id="edge10" class="edge">
<title>Node2&#45;&gt;Node11</title>
<path fill="none" stroke="midnightblue" d="M406.17,-223.01C385.52,-210.3 354.22,-192.38 325,-181 315.56,-177.32 305.19,-174.19 295.21,-171.58"/>
<polygon fill="midnightblue" stroke="midnightblue" points="404.52,-226.1 414.86,-228.43 408.23,-220.17 404.52,-226.1"/>
</g>
<!-- Node2&#45;&gt;Node12 -->
<g id="edge11" class="edge">
<title>Node2&#45;&gt;Node12</title>
<path fill="none" stroke="midnightblue" d="M415.19,-220.5C396.64,-198.99 362.23,-162.89 325,-143 317.76,-139.13 309.71,-136.03 301.63,-133.55"/>
<polygon fill="midnightblue" stroke="midnightblue" points="412.59,-222.84 421.71,-228.23 417.94,-218.33 412.59,-222.84"/>
</g>
<!-- Node2&#45;&gt;Node13 -->
<g id="edge12" class="edge">
<title>Node2&#45;&gt;Node13</title>
<path fill="none" stroke="midnightblue" d="M419.96,-219.02C404.27,-189.84 370.22,-134.25 325,-105 319.02,-101.14 312.32,-98.06 305.43,-95.6"/>
<polygon fill="midnightblue" stroke="midnightblue" points="417,-220.92 424.73,-228.16 423.2,-217.68 417,-220.92"/>
</g>
<!-- Node7 -->
<g id="node7" class="node">
<title>Node7</title>
<g id="a_node7"><a xlink:href="slave_8h.html#ab5c5f3146a46cf8d221aca22e9c8a052" target="_top" xlink:title="Parses provided PDU and generates PDU for the response frame.">
<polygon fill="none" stroke="black" points="0,-247.5 0,-266.5 134,-266.5 134,-247.5 0,-247.5"/>
<text text-anchor="middle" x="67" y="-254.5" font-family="Helvetica,sans-Serif" font-size="10.00">modbusParseRequestPDU</text>
</a>
</g>
</g>
<!-- Node6&#45;&gt;Node7 -->
<g id="edge6" class="edge">
<title>Node6&#45;&gt;Node7</title>
<path fill="none" stroke="midnightblue" d="M180.67,-268.99C165.48,-267.38 149.32,-265.66 134.12,-264.04"/>
<polygon fill="midnightblue" stroke="midnightblue" points="180.69,-272.51 191,-270.09 181.43,-265.55 180.69,-272.51"/>
</g>
<!-- Node8 -->
<g id="node8" class="node">
<title>Node8</title>
<g id="a_node8"><a xlink:href="slave_8h.html#a6a1e63faa64b7ca4b91d1ce7988be850" target="_top" xlink:title="Parses provided Modbus RTU request frame and generates a Modbus RTU response.">
<polygon fill="none" stroke="black" points="0.5,-133.5 0.5,-152.5 133.5,-152.5 133.5,-133.5 0.5,-133.5"/>
<text text-anchor="middle" x="67" y="-140.5" font-family="Helvetica,sans-Serif" font-size="10.00">modbusParseRequestRTU</text>
</a>
</g>
</g>
<!-- Node6&#45;&gt;Node8 -->
<g id="edge7" class="edge">
<title>Node6&#45;&gt;Node8</title>
<path fill="none" stroke="midnightblue" d="M181.49,-262.83C177.49,-261.12 173.63,-259.18 170,-257 124.27,-229.46 87.47,-174.89 73.77,-152.71"/>
<polygon fill="midnightblue" stroke="midnightblue" points="180.41,-266.16 191,-266.44 182.89,-259.62 180.41,-266.16"/>
</g>
<!-- Node9 -->
<g id="node9" class="node">
<title>Node9</title>
<g id="a_node9"><a xlink:href="slave_8h.html#a5ad3fe86aa14f8982d7c459c68cd8b3e" target="_top" xlink:title="Parses provided Modbus TCP request frame and generates a Modbus TCP response.">
<polygon fill="none" stroke="black" points="1,-285.5 1,-304.5 133,-304.5 133,-285.5 1,-285.5"/>
<text text-anchor="middle" x="67" y="-292.5" font-family="Helvetica,sans-Serif" font-size="10.00">modbusParseRequestTCP</text>
</a>
</g>
</g>
<!-- Node6&#45;&gt;Node9 -->
<g id="edge8" class="edge">
<title>Node6&#45;&gt;Node9</title>
<path fill="none" stroke="midnightblue" d="M180.93,-282.98C165.35,-284.64 148.73,-286.41 133.16,-288.06"/>
<polygon fill="midnightblue" stroke="midnightblue" points="181.43,-286.45 191,-281.91 180.69,-279.49 181.43,-286.45"/>
</g>
<!-- Node15&#45;&gt;Node8 -->
<g id="edge19" class="edge">
<title>Node15&#45;&gt;Node8</title>
<path fill="none" stroke="midnightblue" d="M350.59,-42.48C297.86,-41.49 227.84,-45.45 170,-67 130.68,-81.65 93.54,-116.42 77,-133.37"/>
<polygon fill="midnightblue" stroke="midnightblue" points="350.81,-45.99 360.89,-42.74 350.99,-38.99 350.81,-45.99"/>
</g>
</g>
</svg>
