<?xml version="1.0" encoding="UTF-8" standalone="no"?>
<!DOCTYPE svg PUBLIC "-//W3C//DTD SVG 1.1//EN"
 "http://www.w3.org/Graphics/SVG/1.1/DTD/svg11.dtd">
<!-- Generated by graphviz version 2.44.0 ()
 -->
<!-- Title: modbusSlaveAllocateResponse Pages: 1 -->
<svg width="699pt" height="281pt"
 viewBox="0.00 0.00 699.00 280.90" xmlns="http://www.w3.org/2000/svg" xmlns:xlink="http://www.w3.org/1999/xlink">
<g id="graph0" class="graph" transform="scale(1 1) rotate(0) translate(4 276.9)">
<title>modbusSlaveAllocateResponse</title>
<!-- Node1 -->
<g id="node1" class="node">
<title>Node1</title>
<g id="a_node1"><a xlink:title="Allocates memory for slave&#39;s response frame.">
<polygon fill="#bfbfbf" stroke="black" points="536,-133.5 536,-152.5 691,-152.5 691,-133.5 536,-133.5"/>
<text text-anchor="middle" x="613.5" y="-140.5" font-family="Helvetica,sans-Serif" font-size="10.00">modbusSlaveAllocateResponse</text>
</a>
</g>
</g>
<!-- Node2 -->
<g id="node2" class="node">
<title>Node2</title>
<g id="a_node2"><a xlink:href="slave_8h.html#a01b0b86602f899214d564f5bbe6ffdb2" target="_top" xlink:title="Builds an exception response frame.">
<polygon fill="none" stroke="black" points="373,-152.5 373,-171.5 488,-171.5 488,-152.5 373,-152.5"/>
<text text-anchor="middle" x="430.5" y="-159.5" font-family="Helvetica,sans-Serif" font-size="10.00">modbusBuildException</text>
</a>
</g>
</g>
<!-- Node1&#45;&gt;Node2 -->
<g id="edge1" class="edge">
<title>Node1&#45;&gt;Node2</title>
<path fill="none" stroke="midnightblue" d="M525.56,-152.13C512.82,-153.46 499.98,-154.81 488.06,-156.06"/>
<polygon fill="midnightblue" stroke="midnightblue" points="526.16,-155.58 535.74,-151.06 525.43,-148.62 526.16,-155.58"/>
</g>
<!-- Node5 -->
<g id="node5" class="node">
<title>Node5</title>
<g id="a_node5"><a xlink:href="slave_8h.html#a28b9fe2f4559cd0b1c39aff30099d591" target="_top" xlink:title="Parses provided Modbus RTU request frame and generates a Modbus RTU response.">
<polygon fill="none" stroke="black" points="0.5,-247.5 0.5,-266.5 133.5,-266.5 133.5,-247.5 0.5,-247.5"/>
<text text-anchor="middle" x="67" y="-254.5" font-family="Helvetica,sans-Serif" font-size="10.00">modbusParseRequestRTU</text>
</a>
</g>
</g>
<!-- Node1&#45;&gt;Node5 -->
<g id="edge14" class="edge">
<title>Node1&#45;&gt;Node5</title>
<path fill="none" stroke="midnightblue" d="M596.45,-159.8C576.07,-180.01 538.85,-213.31 500,-230 378.99,-281.97 221.21,-275.44 133.71,-266.15"/>
<polygon fill="midnightblue" stroke="midnightblue" points="599.11,-162.09 603.64,-152.51 594.13,-157.17 599.11,-162.09"/>
</g>
<!-- Node7 -->
<g id="node7" class="node">
<title>Node7</title>
<g id="a_node7"><a xlink:href="slave__func_8h.html#aff8edb5d03d53414296edee03a83691a" target="_top" xlink:title="Handles requests 01, 02, 03 and 04 (Read Multiple XX) and generates response.">
<polygon fill="none" stroke="black" points="170,-228.5 170,-247.5 325,-247.5 325,-228.5 170,-228.5"/>
<text text-anchor="middle" x="247.5" y="-235.5" font-family="Helvetica,sans-Serif" font-size="10.00">modbusParseRequest01020304</text>
</a>
</g>
</g>
<!-- Node1&#45;&gt;Node7 -->
<g id="edge10" class="edge">
<title>Node1&#45;&gt;Node7</title>
<path fill="none" stroke="midnightblue" d="M589.71,-158.26C567.71,-172.22 532.97,-192.29 500,-203 443.08,-221.49 375.81,-230.21 325.17,-234.33"/>
<polygon fill="midnightblue" stroke="midnightblue" points="591.82,-161.07 598.32,-152.7 588.02,-155.19 591.82,-161.07"/>
</g>
<!-- Node8 -->
<g id="node8" class="node">
<title>Node8</title>
<g id="a_node8"><a xlink:href="slave__func_8h.html#ad3a342d423dbc1142cd509768ac986e7" target="_top" xlink:title="Handles requests 05 and 06 (Write Single XX) and generates response.">
<polygon fill="none" stroke="black" points="180.5,-190.5 180.5,-209.5 314.5,-209.5 314.5,-190.5 180.5,-190.5"/>
<text text-anchor="middle" x="247.5" y="-197.5" font-family="Helvetica,sans-Serif" font-size="10.00">modbusParseRequest0506</text>
</a>
</g>
</g>
<!-- Node1&#45;&gt;Node8 -->
<g id="edge11" class="edge">
<title>Node1&#45;&gt;Node8</title>
<path fill="none" stroke="midnightblue" d="M580.12,-156.35C557.96,-164.88 527.68,-175.37 500,-181 437.89,-193.63 365.61,-198.05 314.52,-199.51"/>
<polygon fill="midnightblue" stroke="midnightblue" points="581.67,-159.5 589.7,-152.59 579.11,-152.99 581.67,-159.5"/>
</g>
<!-- Node9 -->
<g id="node9" class="node">
<title>Node9</title>
<g id="a_node9"><a xlink:href="slave__func_8h.html#a50a1e72594d7aec7101698bf9089b4de" target="_top" xlink:title="Handles requests 15 and 16 (Write Multiple XX) and generates response.">
<polygon fill="none" stroke="black" points="180.5,-114.5 180.5,-133.5 314.5,-133.5 314.5,-114.5 180.5,-114.5"/>
<text text-anchor="middle" x="247.5" y="-121.5" font-family="Helvetica,sans-Serif" font-size="10.00">modbusParseRequest1516</text>
</a>
</g>
</g>
<!-- Node1&#45;&gt;Node9 -->
<g id="edge12" class="edge">
<title>Node1&#45;&gt;Node9</title>
<path fill="none" stroke="midnightblue" d="M525.57,-138.46C460.87,-135.09 373.89,-130.55 314.77,-127.46"/>
<polygon fill="midnightblue" stroke="midnightblue" points="525.58,-141.97 535.75,-138.99 525.95,-134.98 525.58,-141.97"/>
</g>
<!-- Node10 -->
<g id="node10" class="node">
<title>Node10</title>
<g id="a_node10"><a xlink:href="slave__func_8h.html#a6495bc98691e5e944456bcc222d6ec63" target="_top" xlink:title="Handles request 22 (Mask Write Register) and generates response.">
<polygon fill="none" stroke="black" points="186,-76.5 186,-95.5 309,-95.5 309,-76.5 186,-76.5"/>
<text text-anchor="middle" x="247.5" y="-83.5" font-family="Helvetica,sans-Serif" font-size="10.00">modbusParseRequest22</text>
</a>
</g>
</g>
<!-- Node1&#45;&gt;Node10 -->
<g id="edge13" class="edge">
<title>Node1&#45;&gt;Node10</title>
<path fill="none" stroke="midnightblue" d="M541.42,-131.87C473.74,-121.27 372.97,-105.49 309.02,-95.48"/>
<polygon fill="midnightblue" stroke="midnightblue" points="541.15,-135.37 551.57,-133.46 542.24,-128.45 541.15,-135.37"/>
</g>
<!-- Node11 -->
<g id="node11" class="node">
<title>Node11</title>
<g id="a_node11"><a xlink:href="slave_8h.html#a70695c3b7355bc0a3e6d49c46a4eef1f" target="_top" xlink:title="Frees memory allocated in the ModbusSlave struct.">
<polygon fill="none" stroke="black" points="376,-38.5 376,-57.5 485,-57.5 485,-38.5 376,-38.5"/>
<text text-anchor="middle" x="430.5" y="-45.5" font-family="Helvetica,sans-Serif" font-size="10.00">modbusSlaveDestroy</text>
</a>
</g>
</g>
<!-- Node1&#45;&gt;Node11 -->
<g id="edge15" class="edge">
<title>Node1&#45;&gt;Node11</title>
<path fill="none" stroke="midnightblue" d="M591.29,-127.56C569.28,-112.04 533.45,-88.16 500,-72 488.43,-66.41 475.2,-61.46 463.48,-57.54"/>
<polygon fill="midnightblue" stroke="midnightblue" points="589.38,-130.5 599.56,-133.46 593.45,-124.8 589.38,-130.5"/>
</g>
<!-- Node12 -->
<g id="node12" class="node">
<title>Node12</title>
<g id="a_node12"><a xlink:href="slave_8h.html#a5e517b65cb8b32010146fa80b78bc848" target="_top" xlink:title="Frees memory allocated for slave&#39;s response frame.">
<polygon fill="none" stroke="black" points="361,-0.5 361,-19.5 500,-19.5 500,-0.5 361,-0.5"/>
<text text-anchor="middle" x="430.5" y="-7.5" font-family="Helvetica,sans-Serif" font-size="10.00">modbusSlaveFreeResponse</text>
</a>
</g>
</g>
<!-- Node1&#45;&gt;Node12 -->
<g id="edge16" class="edge">
<title>Node1&#45;&gt;Node12</title>
<path fill="none" stroke="midnightblue" d="M599.74,-125.11C580.82,-99.91 542.92,-54.22 500,-29 493.4,-25.12 485.98,-22.01 478.53,-19.52"/>
<polygon fill="midnightblue" stroke="midnightblue" points="597.08,-127.41 605.83,-133.4 602.73,-123.27 597.08,-127.41"/>
</g>
<!-- Node3 -->
<g id="node3" class="node">
<title>Node3</title>
<g id="a_node3"><a xlink:href="slave_8h.html#a4be93ca41808b56714f199dd21302541" target="_top" xlink:title="Parses provided PDU and generates response honorinng pduOffset and padding set in ModbusSlave during ...">
<polygon fill="none" stroke="black" points="191,-152.5 191,-171.5 304,-171.5 304,-152.5 191,-152.5"/>
<text text-anchor="middle" x="247.5" y="-159.5" font-family="Helvetica,sans-Serif" font-size="10.00">modbusParseRequest</text>
</a>
</g>
</g>
<!-- Node2&#45;&gt;Node3 -->
<g id="edge2" class="edge">
<title>Node2&#45;&gt;Node3</title>
<path fill="none" stroke="midnightblue" d="M362.54,-162C343.33,-162 322.59,-162 304.14,-162"/>
<polygon fill="midnightblue" stroke="midnightblue" points="362.73,-165.5 372.73,-162 362.73,-158.5 362.73,-165.5"/>
</g>
<!-- Node2&#45;&gt;Node7 -->
<g id="edge6" class="edge">
<title>Node2&#45;&gt;Node7</title>
<path fill="none" stroke="midnightblue" d="M406.17,-176.99C385.52,-189.7 354.22,-207.62 325,-219 315.56,-222.68 305.19,-225.81 295.21,-228.42"/>
<polygon fill="midnightblue" stroke="midnightblue" points="408.23,-179.83 414.86,-171.57 404.52,-173.9 408.23,-179.83"/>
</g>
<!-- Node2&#45;&gt;Node8 -->
<g id="edge7" class="edge">
<title>Node2&#45;&gt;Node8</title>
<path fill="none" stroke="midnightblue" d="M373.86,-173.68C348.19,-179.07 318.11,-185.39 293.85,-190.48"/>
<polygon fill="midnightblue" stroke="midnightblue" points="374.76,-177.07 383.83,-171.59 373.32,-170.22 374.76,-177.07"/>
</g>
<!-- Node2&#45;&gt;Node9 -->
<g id="edge8" class="edge">
<title>Node2&#45;&gt;Node9</title>
<path fill="none" stroke="midnightblue" d="M373.86,-150.32C348.19,-144.93 318.11,-138.61 293.85,-133.52"/>
<polygon fill="midnightblue" stroke="midnightblue" points="373.32,-153.78 383.83,-152.41 374.76,-146.93 373.32,-153.78"/>
</g>
<!-- Node2&#45;&gt;Node10 -->
<g id="edge9" class="edge">
<title>Node2&#45;&gt;Node10</title>
<path fill="none" stroke="midnightblue" d="M406.17,-147.01C385.52,-134.3 354.22,-116.38 325,-105 315.56,-101.32 305.19,-98.19 295.21,-95.58"/>
<polygon fill="midnightblue" stroke="midnightblue" points="404.52,-150.1 414.86,-152.43 408.23,-144.17 404.52,-150.1"/>
</g>
<!-- Node4 -->
<g id="node4" class="node">
<title>Node4</title>
<g id="a_node4"><a xlink:href="slave_8h.html#ad438e2f643c3237f52c445f699dbcc96" target="_top" xlink:title="Parses provided PDU and generates PDU for the response frame.">
<polygon fill="none" stroke="black" points="0,-133.5 0,-152.5 134,-152.5 134,-133.5 0,-133.5"/>
<text text-anchor="middle" x="67" y="-140.5" font-family="Helvetica,sans-Serif" font-size="10.00">modbusParseRequestPDU</text>
</a>
</g>
</g>
<!-- Node3&#45;&gt;Node4 -->
<g id="edge3" class="edge">
<title>Node3&#45;&gt;Node4</title>
<path fill="none" stroke="midnightblue" d="M180.67,-154.99C165.48,-153.38 149.32,-151.66 134.12,-150.04"/>
<polygon fill="midnightblue" stroke="midnightblue" points="180.69,-158.51 191,-156.09 181.43,-151.55 180.69,-158.51"/>
</g>
<!-- Node3&#45;&gt;Node5 -->
<g id="edge4" class="edge">
<title>Node3&#45;&gt;Node5</title>
<path fill="none" stroke="midnightblue" d="M185.84,-174.67C180.38,-176.52 175.03,-178.62 170,-181 132.67,-198.66 95.45,-231.07 78.1,-247.26"/>
<polygon fill="midnightblue" stroke="midnightblue" points="187.21,-177.91 195.72,-171.59 185.13,-171.22 187.21,-177.91"/>
</g>
<!-- Node6 -->
<g id="node6" class="node">
<title>Node6</title>
<g id="a_node6"><a xlink:href="slave_8h.html#a5ad3fe86aa14f8982d7c459c68cd8b3e" target="_top" xlink:title="Parses provided Modbus TCP request frame and generates a Modbus TCP response.">
<polygon fill="none" stroke="black" points="1,-171.5 1,-190.5 133,-190.5 133,-171.5 1,-171.5"/>
<text text-anchor="middle" x="67" y="-178.5" font-family="Helvetica,sans-Serif" font-size="10.00">modbusParseRequestTCP</text>
</a>
</g>
</g>
<!-- Node3&#45;&gt;Node6 -->
<g id="edge5" class="edge">
<title>Node3&#45;&gt;Node6</title>
<path fill="none" stroke="midnightblue" d="M180.93,-168.98C165.35,-170.64 148.73,-172.41 133.16,-174.06"/>
<polygon fill="midnightblue" stroke="midnightblue" points="181.43,-172.45 191,-167.91 180.69,-165.49 181.43,-172.45"/>
</g>
</g>
</svg>
