<?xml version="1.0" encoding="UTF-8" standalone="no"?>
<!DOCTYPE svg PUBLIC "-//W3C//DTD SVG 1.1//EN"
 "http://www.w3.org/Graphics/SVG/1.1/DTD/svg11.dtd">
<!-- Generated by graphviz version 2.44.0 ()
 -->
<!-- Title: modbusParseRequestTCP Pages: 1 -->
<svg width="820pt" height="180pt"
 viewBox="0.00 0.00 820.00 180.00" xmlns="http://www.w3.org/2000/svg" xmlns:xlink="http://www.w3.org/1999/xlink">
<g id="graph0" class="graph" transform="scale(1 1) rotate(0) translate(4 176)">
<title>modbusParseRequestTCP</title>
<!-- Node1 -->
<g id="node1" class="node">
<title>Node1</title>
<g id="a_node1"><a xlink:title="Parses provided Modbus TCP request frame and generates a Modbus TCP response.">
<polygon fill="#bfbfbf" stroke="black" points="0,-76.5 0,-95.5 132,-95.5 132,-76.5 0,-76.5"/>
<text text-anchor="middle" x="66" y="-83.5" font-family="Helvetica,sans-Serif" font-size="10.00">modbusParseRequestTCP</text>
</a>
</g>
</g>
<!-- Node2 -->
<g id="node2" class="node">
<title>Node2</title>
<g id="a_node2"><a xlink:href="base_8h.html#ae82c3ced0b1698622b222761851d02c0" target="_top" xlink:title="Prepares buffer to store a Modbus TCP message.">
<polygon fill="none" stroke="black" points="168,-152.5 168,-171.5 288,-171.5 288,-152.5 168,-152.5"/>
<text text-anchor="middle" x="228" y="-159.5" font-family="Helvetica,sans-Serif" font-size="10.00">modbusBufferModeTCP</text>
</a>
</g>
</g>
<!-- Node1&#45;&gt;Node2 -->
<g id="edge1" class="edge">
<title>Node1&#45;&gt;Node2</title>
<path fill="none" stroke="midnightblue" d="M81.9,-95.68C101.18,-107.91 136.09,-129.03 168,-143 172.99,-145.18 178.31,-147.25 183.64,-149.15"/>
<polygon fill="midnightblue" stroke="midnightblue" points="182.58,-152.49 193.18,-152.4 184.84,-145.86 182.58,-152.49"/>
</g>
<!-- Node3 -->
<g id="node3" class="node">
<title>Node3</title>
<g id="a_node3"><a xlink:href="base_8h.html#a64880e7075f445881485396f3aa869c5" target="_top" xlink:title="Checks if ModbusErrorInfo contains an error.">
<polygon fill="none" stroke="black" points="192,-114.5 192,-133.5 264,-133.5 264,-114.5 192,-114.5"/>
<text text-anchor="middle" x="228" y="-121.5" font-family="Helvetica,sans-Serif" font-size="10.00">modbusIsOk</text>
</a>
</g>
</g>
<!-- Node1&#45;&gt;Node3 -->
<g id="edge2" class="edge">
<title>Node1&#45;&gt;Node3</title>
<path fill="none" stroke="midnightblue" d="M107.37,-95.59C130.04,-100.97 158.37,-107.7 181.77,-113.26"/>
<polygon fill="midnightblue" stroke="midnightblue" points="181.27,-116.74 191.81,-115.64 182.89,-109.93 181.27,-116.74"/>
</g>
<!-- Node6 -->
<g id="node6" class="node">
<title>Node6</title>
<g id="a_node6"><a xlink:href="base_8h.html#a39dcd3aad118a779b7e1775fea3e5d77" target="_top" xlink:title="Sets up the MBAP header in a Modbus TCP frame.">
<polygon fill="none" stroke="black" points="181.5,-76.5 181.5,-95.5 274.5,-95.5 274.5,-76.5 181.5,-76.5"/>
<text text-anchor="middle" x="228" y="-83.5" font-family="Helvetica,sans-Serif" font-size="10.00">modbusPackTCP</text>
</a>
</g>
</g>
<!-- Node1&#45;&gt;Node6 -->
<g id="edge5" class="edge">
<title>Node1&#45;&gt;Node6</title>
<path fill="none" stroke="midnightblue" d="M132.08,-86C144.92,-86 158.29,-86 170.81,-86"/>
<polygon fill="midnightblue" stroke="midnightblue" points="171.1,-89.5 181.1,-86 171.1,-82.5 171.1,-89.5"/>
</g>
<!-- Node8 -->
<g id="node8" class="node">
<title>Node8</title>
<g id="a_node8"><a xlink:href="slave_8impl_8h.html#aff0a9164a0e37aa619232ae86e3ff97a" target="_top" xlink:title="Parses provided PDU and generates response honorinng pduOffset and padding set in ModbusSlave during ...">
<polygon fill="none" stroke="black" points="171.5,-38.5 171.5,-57.5 284.5,-57.5 284.5,-38.5 171.5,-38.5"/>
<text text-anchor="middle" x="228" y="-45.5" font-family="Helvetica,sans-Serif" font-size="10.00">modbusParseRequest</text>
</a>
</g>
</g>
<!-- Node1&#45;&gt;Node8 -->
<g id="edge7" class="edge">
<title>Node1&#45;&gt;Node8</title>
<path fill="none" stroke="midnightblue" d="M107.37,-76.41C128.49,-71.4 154.53,-65.21 176.92,-59.89"/>
<polygon fill="midnightblue" stroke="midnightblue" points="177.99,-63.24 186.92,-57.52 176.38,-56.43 177.99,-63.24"/>
</g>
<!-- Node13 -->
<g id="node13" class="node">
<title>Node13</title>
<g id="a_node13"><a xlink:href="base_8h.html#a616e5bdb5ebcd57b1604421f6ca22bc9" target="_top" xlink:title="Unpacks data from a Modbus TCP frame.">
<polygon fill="none" stroke="black" points="176,-0.5 176,-19.5 280,-19.5 280,-0.5 176,-0.5"/>
<text text-anchor="middle" x="228" y="-7.5" font-family="Helvetica,sans-Serif" font-size="10.00">modbusUnpackTCP</text>
</a>
</g>
</g>
<!-- Node1&#45;&gt;Node13 -->
<g id="edge12" class="edge">
<title>Node1&#45;&gt;Node13</title>
<path fill="none" stroke="midnightblue" d="M81.9,-76.32C101.18,-64.09 136.09,-42.97 168,-29 172.99,-26.82 178.31,-24.75 183.64,-22.85"/>
<polygon fill="midnightblue" stroke="midnightblue" points="184.84,-26.14 193.18,-19.6 182.58,-19.51 184.84,-26.14"/>
</g>
<!-- Node4 -->
<g id="node4" class="node">
<title>Node4</title>
<g id="a_node4"><a xlink:href="base_8h.html#a29d2a7853b328113e4fcddae85fd3ce5" target="_top" xlink:title="Returns ModbusError contained in ModbusErrorInfo.">
<polygon fill="none" stroke="black" points="328,-152.5 328,-171.5 438,-171.5 438,-152.5 328,-152.5"/>
<text text-anchor="middle" x="383" y="-159.5" font-family="Helvetica,sans-Serif" font-size="10.00">modbusGetErrorCode</text>
</a>
</g>
</g>
<!-- Node3&#45;&gt;Node4 -->
<g id="edge3" class="edge">
<title>Node3&#45;&gt;Node4</title>
<path fill="none" stroke="midnightblue" d="M264.1,-132.72C284.77,-137.85 311.22,-144.42 333.82,-150.03"/>
<polygon fill="midnightblue" stroke="midnightblue" points="333.03,-153.44 343.57,-152.46 334.71,-146.65 333.03,-153.44"/>
</g>
<!-- Node5 -->
<g id="node5" class="node">
<title>Node5</title>
<g id="a_node5"><a xlink:href="base_8h.html#a9ee4c2e633c7a42f88acc09b95f8171e" target="_top" xlink:title="Returns uint8_t describing error source of ModbusErrorInfo.">
<polygon fill="none" stroke="black" points="324,-114.5 324,-133.5 442,-133.5 442,-114.5 324,-114.5"/>
<text text-anchor="middle" x="383" y="-121.5" font-family="Helvetica,sans-Serif" font-size="10.00">modbusGetErrorSource</text>
</a>
</g>
</g>
<!-- Node3&#45;&gt;Node5 -->
<g id="edge4" class="edge">
<title>Node3&#45;&gt;Node5</title>
<path fill="none" stroke="midnightblue" d="M264.1,-124C278.93,-124 296.72,-124 313.93,-124"/>
<polygon fill="midnightblue" stroke="midnightblue" points="313.97,-127.5 323.97,-124 313.97,-120.5 313.97,-127.5"/>
</g>
<!-- Node7 -->
<g id="node7" class="node">
<title>Node7</title>
<g id="a_node7"><a xlink:href="base_8h.html#a73b9f793bbe67a1968cc8c53a22d4c4b" target="_top" xlink:title="Safely writes a big&#45;endian 16&#45;bit word to provided pointer.">
<polygon fill="none" stroke="black" points="346.5,-76.5 346.5,-95.5 419.5,-95.5 419.5,-76.5 346.5,-76.5"/>
<text text-anchor="middle" x="383" y="-83.5" font-family="Helvetica,sans-Serif" font-size="10.00">modbusWBE</text>
</a>
</g>
</g>
<!-- Node6&#45;&gt;Node7 -->
<g id="edge6" class="edge">
<title>Node6&#45;&gt;Node7</title>
<path fill="none" stroke="midnightblue" d="M274.91,-86C294.3,-86 316.85,-86 336.23,-86"/>
<polygon fill="midnightblue" stroke="midnightblue" points="336.34,-89.5 346.34,-86 336.34,-82.5 336.34,-89.5"/>
</g>
<!-- Node9 -->
<g id="node9" class="node">
<title>Node9</title>
<g id="a_node9"><a xlink:href="slave_8impl_8h.html#a58243ce1e1adaffd0a3260edc2d03603" target="_top" xlink:title="Builds an exception response frame.">
<polygon fill="none" stroke="black" points="325.5,-38.5 325.5,-57.5 440.5,-57.5 440.5,-38.5 325.5,-38.5"/>
<text text-anchor="middle" x="383" y="-45.5" font-family="Helvetica,sans-Serif" font-size="10.00">modbusBuildException</text>
</a>
</g>
</g>
<!-- Node8&#45;&gt;Node9 -->
<g id="edge8" class="edge">
<title>Node8&#45;&gt;Node9</title>
<path fill="none" stroke="midnightblue" d="M284.67,-48C294.6,-48 305.04,-48 315.25,-48"/>
<polygon fill="midnightblue" stroke="midnightblue" points="315.35,-51.5 325.35,-48 315.35,-44.5 315.35,-51.5"/>
</g>
<!-- Node10 -->
<g id="node10" class="node">
<title>Node10</title>
<g id="a_node10"><a xlink:href="slave_8h.html#ad1165bb6d12af1db502a05df5da55aed" target="_top" xlink:title="Allocates memory for slave&#39;s response frame.">
<polygon fill="none" stroke="black" points="478,-38.5 478,-57.5 633,-57.5 633,-38.5 478,-38.5"/>
<text text-anchor="middle" x="555.5" y="-45.5" font-family="Helvetica,sans-Serif" font-size="10.00">modbusSlaveAllocateResponse</text>
</a>
</g>
</g>
<!-- Node9&#45;&gt;Node10 -->
<g id="edge9" class="edge">
<title>Node9&#45;&gt;Node10</title>
<path fill="none" stroke="midnightblue" d="M440.77,-48C449.43,-48 458.53,-48 467.66,-48"/>
<polygon fill="midnightblue" stroke="midnightblue" points="467.94,-51.5 477.94,-48 467.94,-44.5 467.94,-51.5"/>
</g>
<!-- Node11 -->
<g id="node11" class="node">
<title>Node11</title>
<g id="a_node11"><a xlink:href="base_8h.html#aab33bc005f4c5759d8ac918e5e8b71b9" target="_top" xlink:title="Allocates memory to hold Modbus ADU.">
<polygon fill="none" stroke="black" points="684.5,-57.5 684.5,-76.5 796.5,-76.5 796.5,-57.5 684.5,-57.5"/>
<text text-anchor="middle" x="740.5" y="-64.5" font-family="Helvetica,sans-Serif" font-size="10.00">modbusBufferAllocate</text>
</a>
</g>
</g>
<!-- Node10&#45;&gt;Node11 -->
<g id="edge10" class="edge">
<title>Node10&#45;&gt;Node11</title>
<path fill="none" stroke="midnightblue" d="M633.05,-55.95C646.78,-57.37 660.98,-58.85 674.36,-60.24"/>
<polygon fill="midnightblue" stroke="midnightblue" points="674.1,-63.73 684.41,-61.28 674.82,-56.77 674.1,-63.73"/>
</g>
<!-- Node12 -->
<g id="node12" class="node">
<title>Node12</title>
<g id="a_node12"><a xlink:href="slave_8h.html#abbbf205b4c4a0b74b5ae29b865ca3262" target="_top" xlink:title="Retreieves the custom context pointer.">
<polygon fill="none" stroke="black" points="669,-19.5 669,-38.5 812,-38.5 812,-19.5 669,-19.5"/>
<text text-anchor="middle" x="740.5" y="-26.5" font-family="Helvetica,sans-Serif" font-size="10.00">modbusSlaveGetUserPointer</text>
</a>
</g>
</g>
<!-- Node10&#45;&gt;Node12 -->
<g id="edge11" class="edge">
<title>Node10&#45;&gt;Node12</title>
<path fill="none" stroke="midnightblue" d="M633.05,-40.05C641.57,-39.17 650.26,-38.27 658.83,-37.38"/>
<polygon fill="midnightblue" stroke="midnightblue" points="659.22,-40.85 668.81,-36.34 658.5,-33.89 659.22,-40.85"/>
</g>
<!-- Node14 -->
<g id="node14" class="node">
<title>Node14</title>
<g id="a_node14"><a xlink:href="base_8h.html#ace96da9afdf1e1796a6e2d7ac1f6c81a" target="_top" xlink:title="Safely reads a big&#45;endian 16&#45;bit word from provided pointer.">
<polygon fill="none" stroke="black" points="347.5,-0.5 347.5,-19.5 418.5,-19.5 418.5,-0.5 347.5,-0.5"/>
<text text-anchor="middle" x="383" y="-7.5" font-family="Helvetica,sans-Serif" font-size="10.00">modbusRBE</text>
</a>
</g>
</g>
<!-- Node13&#45;&gt;Node14 -->
<g id="edge13" class="edge">
<title>Node13&#45;&gt;Node14</title>
<path fill="none" stroke="midnightblue" d="M280.37,-10C298.81,-10 319.43,-10 337.25,-10"/>
<polygon fill="midnightblue" stroke="midnightblue" points="337.39,-13.5 347.39,-10 337.39,-6.5 337.39,-13.5"/>
</g>
</g>
</svg>
