<?xml version="1.0" encoding="UTF-8" standalone="no"?>
<!DOCTYPE svg PUBLIC "-//W3C//DTD SVG 1.1//EN"
 "http://www.w3.org/Graphics/SVG/1.1/DTD/svg11.dtd">
<!-- Generated by graphviz version 2.44.0 ()
 -->
<!-- Title: ModbusMaster Pages: 1 -->
<svg width="222pt" height="175pt"
 viewBox="0.00 0.00 221.50 175.00" xmlns="http://www.w3.org/2000/svg" xmlns:xlink="http://www.w3.org/1999/xlink">
<g id="graph0" class="graph" transform="scale(1 1) rotate(0) translate(4 171)">
<title>ModbusMaster</title>
<!-- Node1 -->
<g id="node1" class="node">
<title>Node1</title>
<g id="a_node1"><a xlink:title="Master device status.">
<polygon fill="#bfbfbf" stroke="black" points="35.5,-7 35.5,-26 116.5,-26 116.5,-7 35.5,-7"/>
<text text-anchor="middle" x="76" y="-14" font-family="Helvetica,sans-Serif" font-size="10.00">ModbusMaster</text>
</a>
</g>
</g>
<!-- Node1&#45;&gt;Node1 -->
<g id="edge3" class="edge">
<title>Node1&#45;&gt;Node1</title>
<path fill="none" stroke="#9a32cd" stroke-dasharray="5,2" d="M126.82,-22.49C131.53,-21.26 134.5,-19.26 134.5,-16.5 134.5,-12.09 126.9,-9.62 116.73,-9.1"/>
<polygon fill="#9a32cd" stroke="#9a32cd" points="126.16,-19.05 116.73,-23.9 127.12,-25.99 126.16,-19.05"/>
<text text-anchor="middle" x="174" y="-25" font-family="Helvetica,sans-Serif" font-size="10.00"> allocator</text>
<text text-anchor="middle" x="174" y="-14" font-family="Helvetica,sans-Serif" font-size="10.00">dataCallback</text>
<text text-anchor="middle" x="174" y="-3" font-family="Helvetica,sans-Serif" font-size="10.00">exceptionCallback</text>
</g>
<!-- Node2 -->
<g id="node2" class="node">
<title>Node2</title>
<g id="a_node2"><a xlink:href="structModbusMasterFunctionHandler.html" target="_top" xlink:title="Associates Modbus function ID with a pointer to a response parsing function.">
<polygon fill="none" stroke="black" points="0,-80.5 0,-99.5 152,-99.5 152,-80.5 0,-80.5"/>
<text text-anchor="middle" x="76" y="-87.5" font-family="Helvetica,sans-Serif" font-size="10.00">ModbusMasterFunctionHandler</text>
</a>
</g>
</g>
<!-- Node2&#45;&gt;Node1 -->
<g id="edge1" class="edge">
<title>Node2&#45;&gt;Node1</title>
<path fill="none" stroke="#9a32cd" stroke-dasharray="5,2" d="M76,-70.09C76,-55.93 76,-37.2 76,-26.34"/>
<polygon fill="#9a32cd" stroke="#9a32cd" points="72.5,-70.23 76,-80.23 79.5,-70.23 72.5,-70.23"/>
<text text-anchor="middle" x="97.5" y="-54" font-family="Helvetica,sans-Serif" font-size="10.00"> functions</text>
</g>
<!-- Node3 -->
<g id="node3" class="node">
<title>Node3</title>
<g id="a_node3"><a xlink:href="structModbusErrorInfo.html" target="_top" xlink:title="Richer error represenation &#45; source and type of error.">
<polygon fill="none" stroke="black" points="32,-147.5 32,-166.5 120,-166.5 120,-147.5 32,-147.5"/>
<text text-anchor="middle" x="76" y="-154.5" font-family="Helvetica,sans-Serif" font-size="10.00">ModbusErrorInfo</text>
</a>
</g>
</g>
<!-- Node3&#45;&gt;Node2 -->
<g id="edge2" class="edge">
<title>Node3&#45;&gt;Node2</title>
<path fill="none" stroke="#9a32cd" stroke-dasharray="5,2" d="M76,-137.04C76,-124.67 76,-109.12 76,-99.63"/>
<polygon fill="#9a32cd" stroke="#9a32cd" points="72.5,-137.23 76,-147.23 79.5,-137.23 72.5,-137.23"/>
<text text-anchor="middle" x="83" y="-121" font-family="Helvetica,sans-Serif" font-size="10.00"> ptr</text>
</g>
</g>
</svg>
