<?xml version="1.0" encoding="UTF-8" standalone="no"?>
<!DOCTYPE svg PUBLIC "-//W3C//DTD SVG 1.1//EN"
 "http://www.w3.org/Graphics/SVG/1.1/DTD/svg11.dtd">
<!-- Generated by graphviz version 2.44.0 ()
 -->
<!-- Title: ModbusSlave Pages: 1 -->
<svg width="308pt" height="164pt"
 viewBox="0.00 0.00 308.00 164.00" xmlns="http://www.w3.org/2000/svg" xmlns:xlink="http://www.w3.org/1999/xlink">
<g id="graph0" class="graph" transform="scale(1 1) rotate(0) translate(4 160)">
<title>ModbusSlave</title>
<!-- Node1 -->
<g id="node1" class="node">
<title>Node1</title>
<g id="a_node1"><a xlink:title="Slave device status.">
<polygon fill="#bfbfbf" stroke="black" points="93.5,-1.5 93.5,-20.5 169.5,-20.5 169.5,-1.5 93.5,-1.5"/>
<text text-anchor="middle" x="131.5" y="-8.5" font-family="Helvetica,sans-Serif" font-size="10.00">ModbusSlave</text>
</a>
</g>
</g>
<!-- Node1&#45;&gt;Node1 -->
<g id="edge5" class="edge">
<title>Node1&#45;&gt;Node1</title>
<path fill="none" stroke="#9a32cd" stroke-dasharray="5,2" d="M179.79,-16.18C184.51,-15.13 187.5,-13.41 187.5,-11 187.5,-7.15 179.83,-5.04 169.71,-4.68"/>
<polygon fill="#9a32cd" stroke="#9a32cd" points="179.26,-12.71 169.71,-17.32 180.04,-19.67 179.26,-12.71"/>
<text text-anchor="middle" x="228.5" y="-14" font-family="Helvetica,sans-Serif" font-size="10.00"> exceptionCallback</text>
<text text-anchor="middle" x="228.5" y="-3" font-family="Helvetica,sans-Serif" font-size="10.00">registerCallback</text>
</g>
<!-- Node2 -->
<g id="node2" class="node">
<title>Node2</title>
<g id="a_node2"><a xlink:href="structModbusBuffer.html" target="_top" xlink:title="Stores a Modbus frame.">
<polygon fill="none" stroke="black" points="0,-69.5 0,-88.5 77,-88.5 77,-69.5 0,-69.5"/>
<text text-anchor="middle" x="38.5" y="-76.5" font-family="Helvetica,sans-Serif" font-size="10.00">ModbusBuffer</text>
</a>
</g>
</g>
<!-- Node2&#45;&gt;Node1 -->
<g id="edge1" class="edge">
<title>Node2&#45;&gt;Node1</title>
<path fill="none" stroke="#9a32cd" stroke-dasharray="5,2" d="M59,-63.46C77.47,-50.34 104.02,-31.5 119.34,-20.63"/>
<polygon fill="#9a32cd" stroke="#9a32cd" points="56.79,-60.73 50.66,-69.37 60.84,-66.44 56.79,-60.73"/>
<text text-anchor="middle" x="112" y="-43" font-family="Helvetica,sans-Serif" font-size="10.00"> response</text>
</g>
<!-- Node2&#45;&gt;Node2 -->
<g id="edge2" class="edge">
<title>Node2&#45;&gt;Node2</title>
<path fill="none" stroke="#9a32cd" stroke-dasharray="5,2" d="M87.22,-83.87C91.98,-82.89 95,-81.27 95,-79 95,-75.38 87.27,-73.39 77.06,-73.05"/>
<polygon fill="#9a32cd" stroke="#9a32cd" points="86.63,-80.41 77.06,-84.95 87.37,-87.38 86.63,-80.41"/>
<text text-anchor="middle" x="115" y="-76.5" font-family="Helvetica,sans-Serif" font-size="10.00"> allocator</text>
</g>
<!-- Node3 -->
<g id="node3" class="node">
<title>Node3</title>
<g id="a_node3"><a xlink:href="structModbusSlaveFunctionHandler.html" target="_top" xlink:title="Associates Modbus function ID with a pointer to a parsing function.">
<polygon fill="none" stroke="black" points="153,-69.5 153,-88.5 300,-88.5 300,-69.5 153,-69.5"/>
<text text-anchor="middle" x="226.5" y="-76.5" font-family="Helvetica,sans-Serif" font-size="10.00">ModbusSlaveFunctionHandler</text>
</a>
</g>
</g>
<!-- Node3&#45;&gt;Node1 -->
<g id="edge3" class="edge">
<title>Node3&#45;&gt;Node1</title>
<path fill="none" stroke="#9a32cd" stroke-dasharray="5,2" d="M205.82,-63.63C186.94,-50.51 159.64,-31.55 143.92,-20.63"/>
<polygon fill="#9a32cd" stroke="#9a32cd" points="203.87,-66.54 214.08,-69.37 207.86,-60.79 203.87,-66.54"/>
<text text-anchor="middle" x="209" y="-43" font-family="Helvetica,sans-Serif" font-size="10.00"> functions</text>
</g>
<!-- Node4 -->
<g id="node4" class="node">
<title>Node4</title>
<g id="a_node4"><a xlink:href="structModbusErrorInfo.html" target="_top" xlink:title="Richer error represenation &#45; source and type of error.">
<polygon fill="none" stroke="black" points="182.5,-136.5 182.5,-155.5 270.5,-155.5 270.5,-136.5 182.5,-136.5"/>
<text text-anchor="middle" x="226.5" y="-143.5" font-family="Helvetica,sans-Serif" font-size="10.00">ModbusErrorInfo</text>
</a>
</g>
</g>
<!-- Node4&#45;&gt;Node3 -->
<g id="edge4" class="edge">
<title>Node4&#45;&gt;Node3</title>
<path fill="none" stroke="#9a32cd" stroke-dasharray="5,2" d="M226.5,-126.04C226.5,-113.67 226.5,-98.12 226.5,-88.63"/>
<polygon fill="#9a32cd" stroke="#9a32cd" points="223,-126.23 226.5,-136.23 230,-126.23 223,-126.23"/>
<text text-anchor="middle" x="233.5" y="-110" font-family="Helvetica,sans-Serif" font-size="10.00"> ptr</text>
</g>
</g>
</svg>
