<?xml version="1.0" encoding="UTF-8" standalone="no"?>
<!DOCTYPE svg PUBLIC "-//W3C//DTD SVG 1.1//EN"
 "http://www.w3.org/Graphics/SVG/1.1/DTD/svg11.dtd">
<!-- Generated by graphviz version 2.44.0 ()
 -->
<!-- Title: ModbusMaster Pages: 1 -->
<svg width="282pt" height="175pt"
 viewBox="0.00 0.00 282.00 175.00" xmlns="http://www.w3.org/2000/svg" xmlns:xlink="http://www.w3.org/1999/xlink">
<g id="graph0" class="graph" transform="scale(1 1) rotate(0) translate(4 171)">
<title>ModbusMaster</title>
<!-- Node1 -->
<g id="node1" class="node">
<title>Node1</title>
<g id="a_node1"><a xlink:title="Master device status.">
<polygon fill="#bfbfbf" stroke="black" points="62.5,-7 62.5,-26 143.5,-26 143.5,-7 62.5,-7"/>
<text text-anchor="middle" x="103" y="-14" font-family="Helvetica,sans-Serif" font-size="10.00">ModbusMaster</text>
</a>
</g>
</g>
<!-- Node1&#45;&gt;Node1 -->
<g id="edge4" class="edge">
<title>Node1&#45;&gt;Node1</title>
<path fill="none" stroke="#9a32cd" stroke-dasharray="5,2" d="M153.82,-22.49C158.53,-21.26 161.5,-19.26 161.5,-16.5 161.5,-12.09 153.9,-9.62 143.73,-9.1"/>
<polygon fill="#9a32cd" stroke="#9a32cd" points="153.16,-19.05 143.73,-23.9 154.12,-25.99 153.16,-19.05"/>
<text text-anchor="middle" x="201" y="-25" font-family="Helvetica,sans-Serif" font-size="10.00"> allocator</text>
<text text-anchor="middle" x="201" y="-14" font-family="Helvetica,sans-Serif" font-size="10.00">dataCallback</text>
<text text-anchor="middle" x="201" y="-3" font-family="Helvetica,sans-Serif" font-size="10.00">exceptionCallback</text>
</g>
<!-- Node2 -->
<g id="node2" class="node">
<title>Node2</title>
<g id="a_node2"><a xlink:href="structModbusFrameBuffer.html" target="_top" xlink:title="Stores a Modbus frame.">
<polygon fill="none" stroke="black" points="0,-80.5 0,-99.5 104,-99.5 104,-80.5 0,-80.5"/>
<text text-anchor="middle" x="52" y="-87.5" font-family="Helvetica,sans-Serif" font-size="10.00">ModbusFrameBuffer</text>
</a>
</g>
</g>
<!-- Node2&#45;&gt;Node1 -->
<g id="edge1" class="edge">
<title>Node2&#45;&gt;Node1</title>
<path fill="none" stroke="#9a32cd" stroke-dasharray="5,2" d="M64.3,-71.75C74.52,-57.43 88.64,-37.63 96.7,-26.34"/>
<polygon fill="#9a32cd" stroke="#9a32cd" points="61.21,-70.06 58.25,-80.23 66.91,-74.12 61.21,-70.06"/>
<text text-anchor="middle" x="96.5" y="-54" font-family="Helvetica,sans-Serif" font-size="10.00"> request</text>
</g>
<!-- Node3 -->
<g id="node3" class="node">
<title>Node3</title>
<g id="a_node3"><a xlink:href="structModbusMasterFunctionHandler.html" target="_top" xlink:title="Associates Modbus function ID with a pointer to a response parsing function.">
<polygon fill="none" stroke="black" points="122,-80.5 122,-99.5 274,-99.5 274,-80.5 122,-80.5"/>
<text text-anchor="middle" x="198" y="-87.5" font-family="Helvetica,sans-Serif" font-size="10.00">ModbusMasterFunctionHandler</text>
</a>
</g>
</g>
<!-- Node3&#45;&gt;Node1 -->
<g id="edge2" class="edge">
<title>Node3&#45;&gt;Node1</title>
<path fill="none" stroke="#9a32cd" stroke-dasharray="5,2" d="M178.23,-74.12C158.93,-59.59 130.24,-38 114.45,-26.12"/>
<polygon fill="#9a32cd" stroke="#9a32cd" points="176.26,-77.02 186.35,-80.23 180.47,-71.42 176.26,-77.02"/>
<text text-anchor="middle" x="182.5" y="-54" font-family="Helvetica,sans-Serif" font-size="10.00"> functions</text>
</g>
<!-- Node4 -->
<g id="node4" class="node">
<title>Node4</title>
<g id="a_node4"><a xlink:href="structModbusErrorInfo.html" target="_top" xlink:title="Richer error represenation &#45; source and type of error.">
<polygon fill="none" stroke="black" points="154,-147.5 154,-166.5 242,-166.5 242,-147.5 154,-147.5"/>
<text text-anchor="middle" x="198" y="-154.5" font-family="Helvetica,sans-Serif" font-size="10.00">ModbusErrorInfo</text>
</a>
</g>
</g>
<!-- Node4&#45;&gt;Node3 -->
<g id="edge3" class="edge">
<title>Node4&#45;&gt;Node3</title>
<path fill="none" stroke="#9a32cd" stroke-dasharray="5,2" d="M198,-137.04C198,-124.67 198,-109.12 198,-99.63"/>
<polygon fill="#9a32cd" stroke="#9a32cd" points="194.5,-137.23 198,-147.23 201.5,-137.23 194.5,-137.23"/>
<text text-anchor="middle" x="205" y="-121" font-family="Helvetica,sans-Serif" font-size="10.00"> ptr</text>
</g>
</g>
</svg>
