<?xml version="1.0" encoding="UTF-8" standalone="no"?>
<!DOCTYPE svg PUBLIC "-//W3C//DTD SVG 1.1//EN"
 "http://www.w3.org/Graphics/SVG/1.1/DTD/svg11.dtd">
<!-- Generated by graphviz version 2.44.0 ()
 -->
<!-- Title: ModbusSlave Pages: 1 -->
<svg width="289pt" height="175pt"
 viewBox="0.00 0.00 288.50 175.00" xmlns="http://www.w3.org/2000/svg" xmlns:xlink="http://www.w3.org/1999/xlink">
<g id="graph0" class="graph" transform="scale(1 1) rotate(0) translate(4 171)">
<title>ModbusSlave</title>
<!-- Node1 -->
<g id="node1" class="node">
<title>Node1</title>
<g id="a_node1"><a xlink:title="Slave device status.">
<polygon fill="#bfbfbf" stroke="black" points="107.5,-7 107.5,-26 183.5,-26 183.5,-7 107.5,-7"/>
<text text-anchor="middle" x="145.5" y="-14" font-family="Helvetica,sans-Serif" font-size="10.00">ModbusSlave</text>
</a>
</g>
</g>
<!-- Node1&#45;&gt;Node1 -->
<g id="edge3" class="edge">
<title>Node1&#45;&gt;Node1</title>
<path fill="none" stroke="#9a32cd" stroke-dasharray="5,2" d="M193.79,-22.59C198.51,-21.36 201.5,-19.33 201.5,-16.5 201.5,-11.97 193.83,-9.49 183.71,-9.07"/>
<polygon fill="#9a32cd" stroke="#9a32cd" points="193.16,-19.14 183.71,-23.93 194.09,-26.08 193.16,-19.14"/>
<text text-anchor="middle" x="241" y="-25" font-family="Helvetica,sans-Serif" font-size="10.00"> allocator</text>
<text text-anchor="middle" x="241" y="-14" font-family="Helvetica,sans-Serif" font-size="10.00">exceptionCallback</text>
<text text-anchor="middle" x="241" y="-3" font-family="Helvetica,sans-Serif" font-size="10.00">registerCallback</text>
</g>
<!-- Node2 -->
<g id="node2" class="node">
<title>Node2</title>
<g id="a_node2"><a xlink:href="structModbusSlaveFunctionHandler.html" target="_top" xlink:title="Associates Modbus function ID with a pointer to a parsing function.">
<polygon fill="none" stroke="black" points="0,-80.5 0,-99.5 147,-99.5 147,-80.5 0,-80.5"/>
<text text-anchor="middle" x="73.5" y="-87.5" font-family="Helvetica,sans-Serif" font-size="10.00">ModbusSlaveFunctionHandler</text>
</a>
</g>
</g>
<!-- Node2&#45;&gt;Node1 -->
<g id="edge1" class="edge">
<title>Node2&#45;&gt;Node1</title>
<path fill="none" stroke="#9a32cd" stroke-dasharray="5,2" d="M89.64,-72.97C104.15,-58.57 124.9,-37.95 136.6,-26.34"/>
<polygon fill="#9a32cd" stroke="#9a32cd" points="86.96,-70.7 82.33,-80.23 91.89,-75.67 86.96,-70.7"/>
<text text-anchor="middle" x="134" y="-54" font-family="Helvetica,sans-Serif" font-size="10.00"> functions</text>
</g>
<!-- Node3 -->
<g id="node3" class="node">
<title>Node3</title>
<g id="a_node3"><a xlink:href="structModbusErrorInfo.html" target="_top" xlink:title="Richer error represenation &#45; source and type of error.">
<polygon fill="none" stroke="black" points="29.5,-147.5 29.5,-166.5 117.5,-166.5 117.5,-147.5 29.5,-147.5"/>
<text text-anchor="middle" x="73.5" y="-154.5" font-family="Helvetica,sans-Serif" font-size="10.00">ModbusErrorInfo</text>
</a>
</g>
</g>
<!-- Node3&#45;&gt;Node2 -->
<g id="edge2" class="edge">
<title>Node3&#45;&gt;Node2</title>
<path fill="none" stroke="#9a32cd" stroke-dasharray="5,2" d="M73.5,-137.04C73.5,-124.67 73.5,-109.12 73.5,-99.63"/>
<polygon fill="#9a32cd" stroke="#9a32cd" points="70,-137.23 73.5,-147.23 77,-137.23 70,-137.23"/>
<text text-anchor="middle" x="80.5" y="-121" font-family="Helvetica,sans-Serif" font-size="10.00"> ptr</text>
</g>
<!-- Node4 -->
<g id="node4" class="node">
<title>Node4</title>
<g id="a_node4"><a xlink:href="structModbusFrameBuffer.html" target="_top" xlink:title="Stores a Modbus frame.">
<polygon fill="none" stroke="black" points="165.5,-80.5 165.5,-99.5 269.5,-99.5 269.5,-80.5 165.5,-80.5"/>
<text text-anchor="middle" x="217.5" y="-87.5" font-family="Helvetica,sans-Serif" font-size="10.00">ModbusFrameBuffer</text>
</a>
</g>
</g>
<!-- Node4&#45;&gt;Node1 -->
<g id="edge4" class="edge">
<title>Node4&#45;&gt;Node1</title>
<path fill="none" stroke="#9a32cd" stroke-dasharray="5,2" d="M201.36,-72.97C186.85,-58.57 166.1,-37.95 154.4,-26.34"/>
<polygon fill="#9a32cd" stroke="#9a32cd" points="199.11,-75.67 208.67,-80.23 204.04,-70.7 199.11,-75.67"/>
<text text-anchor="middle" x="211" y="-54" font-family="Helvetica,sans-Serif" font-size="10.00"> response</text>
</g>
</g>
</svg>
