<?xml version="1.0" encoding="UTF-8" standalone="no"?>
<!DOCTYPE svg PUBLIC "-//W3C//DTD SVG 1.1//EN"
 "http://www.w3.org/Graphics/SVG/1.1/DTD/svg11.dtd">
<!-- Generated by graphviz version 2.44.0 ()
 -->
<!-- Title: modbusDefaultAllocator Pages: 1 -->
<svg width="314pt" height="66pt"
 viewBox="0.00 0.00 314.00 66.00" xmlns="http://www.w3.org/2000/svg" xmlns:xlink="http://www.w3.org/1999/xlink">
<g id="graph0" class="graph" transform="scale(1 1) rotate(0) translate(4 62)">
<title>modbusDefaultAllocator</title>
<!-- Node1 -->
<g id="node1" class="node">
<title>Node1</title>
<g id="a_node1"><a xlink:title="The default memory allocator based on realloc()">
<polygon fill="#bfbfbf" stroke="black" points="186,-19.5 186,-38.5 306,-38.5 306,-19.5 186,-19.5"/>
<text text-anchor="middle" x="246" y="-26.5" font-family="Helvetica,sans-Serif" font-size="10.00">modbusDefaultAllocator</text>
</a>
</g>
</g>
<!-- Node2 -->
<g id="node2" class="node">
<title>Node2</title>
<g id="a_node2"><a xlink:href="master_8h.html#a51f83ba08c18745dd424b9dcf7579703" target="_top" xlink:title="Default allocator for master device. Based on modbusDefaultAllocator().">
<polygon fill="none" stroke="black" points="0,-38.5 0,-57.5 150,-57.5 150,-38.5 0,-38.5"/>
<text text-anchor="middle" x="75" y="-45.5" font-family="Helvetica,sans-Serif" font-size="10.00">modbusMasterDefaultAllocator</text>
</a>
</g>
</g>
<!-- Node1&#45;&gt;Node2 -->
<g id="edge1" class="edge">
<title>Node1&#45;&gt;Node2</title>
<path fill="none" stroke="midnightblue" d="M175.75,-36.79C167.34,-37.73 158.71,-38.7 150.23,-39.65"/>
<polygon fill="midnightblue" stroke="midnightblue" points="176.35,-40.24 185.89,-35.65 175.56,-33.28 176.35,-40.24"/>
</g>
<!-- Node3 -->
<g id="node3" class="node">
<title>Node3</title>
<g id="a_node3"><a xlink:href="slave_8h.html#afea4c9a9b7c29a34aa1674429bf7a5df" target="_top" xlink:title="Default allocator for the slave based on modbusDefaultAllocator().">
<polygon fill="none" stroke="black" points="2.5,-0.5 2.5,-19.5 147.5,-19.5 147.5,-0.5 2.5,-0.5"/>
<text text-anchor="middle" x="75" y="-7.5" font-family="Helvetica,sans-Serif" font-size="10.00">modbusSlaveDefaultAllocator</text>
</a>
</g>
</g>
<!-- Node1&#45;&gt;Node3 -->
<g id="edge2" class="edge">
<title>Node1&#45;&gt;Node3</title>
<path fill="none" stroke="midnightblue" d="M175.88,-21.23C166.55,-20.18 156.95,-19.1 147.57,-18.05"/>
<polygon fill="midnightblue" stroke="midnightblue" points="175.56,-24.72 185.89,-22.35 176.35,-17.76 175.56,-24.72"/>
</g>
</g>
</svg>
