<?xml version="1.0" encoding="UTF-8" standalone="no"?>
<!DOCTYPE svg PUBLIC "-//W3C//DTD SVG 1.1//EN"
 "http://www.w3.org/Graphics/SVG/1.1/DTD/svg11.dtd">
<!-- Generated by graphviz version 2.48.0 (0)
 -->
<!-- Title: modbusGetErrorSource Pages: 1 -->
<svg width="623pt" height="123pt"
 viewBox="0.00 0.00 623.00 123.00" xmlns="http://www.w3.org/2000/svg" xmlns:xlink="http://www.w3.org/1999/xlink">
<g id="graph0" class="graph" transform="scale(1 1) rotate(0) translate(4 119)">
<title>modbusGetErrorSource</title>
<!-- Node1 -->
<g id="node1" class="node">
<title>Node1</title>
<g id="a_node1"><a xlink:title=" ">
<polygon fill="#bfbfbf" stroke="black" points="486,-57.5 486,-76.5 615,-76.5 615,-57.5 486,-57.5"/>
<text text-anchor="middle" x="550.5" y="-64.5" font-family="Helvetica,sans-Serif" font-size="10.00">modbusGetErrorSource</text>
</a>
</g>
</g>
<!-- Node2 -->
<g id="node2" class="node">
<title>Node2</title>
<g id="a_node2"><a xlink:href="base_8h.html#ab945e5e4e573e91a217e0e0a389daa48" target="_top" xlink:title=" ">
<polygon fill="none" stroke="black" points="373,-57.5 373,-76.5 450,-76.5 450,-57.5 373,-57.5"/>
<text text-anchor="middle" x="411.5" y="-64.5" font-family="Helvetica,sans-Serif" font-size="10.00">modbusIsOk</text>
</a>
</g>
</g>
<!-- Node1&#45;&gt;Node2 -->
<g id="edge1" class="edge">
<title>Node1&#45;&gt;Node2</title>
<path fill="none" stroke="midnightblue" d="M475.54,-67C466.81,-67 458.19,-67 450.27,-67"/>
<polygon fill="midnightblue" stroke="midnightblue" points="475.81,-70.5 485.81,-67 475.81,-63.5 475.81,-70.5"/>
</g>
<!-- Node3 -->
<g id="node3" class="node">
<title>Node3</title>
<g id="a_node3"><a xlink:href="slave_8h.html#a9da6d040ddc4a1ba71b03fad7a2fece3" target="_top" xlink:title="Parses provided Modbus RTU request frame.">
<polygon fill="none" stroke="black" points="190,-95.5 190,-114.5 333,-114.5 333,-95.5 190,-95.5"/>
<text text-anchor="middle" x="261.5" y="-102.5" font-family="Helvetica,sans-Serif" font-size="10.00">modbusParseRequestRTU</text>
</a>
</g>
</g>
<!-- Node2&#45;&gt;Node3 -->
<g id="edge2" class="edge">
<title>Node2&#45;&gt;Node3</title>
<path fill="none" stroke="midnightblue" d="M363.68,-79.13C354.82,-81.42 345.63,-83.79 337,-86 324.98,-89.09 311.86,-92.44 300.02,-95.46"/>
<polygon fill="midnightblue" stroke="midnightblue" points="364.69,-82.48 373.49,-76.59 362.93,-75.71 364.69,-82.48"/>
</g>
<!-- Node4 -->
<g id="node4" class="node">
<title>Node4</title>
<g id="a_node4"><a xlink:href="slave_8h.html#a11f5dfe3b6a3f37ca7c7eb179ca75864" target="_top" xlink:title="Parses provided Modbus TCP request frame.">
<polygon fill="none" stroke="black" points="191,-57.5 191,-76.5 332,-76.5 332,-57.5 191,-57.5"/>
<text text-anchor="middle" x="261.5" y="-64.5" font-family="Helvetica,sans-Serif" font-size="10.00">modbusParseRequestTCP</text>
</a>
</g>
</g>
<!-- Node2&#45;&gt;Node4 -->
<g id="edge3" class="edge">
<title>Node2&#45;&gt;Node4</title>
<path fill="none" stroke="midnightblue" d="M362.53,-67C352.81,-67 342.4,-67 332.11,-67"/>
<polygon fill="midnightblue" stroke="midnightblue" points="362.77,-70.5 372.77,-67 362.77,-63.5 362.77,-70.5"/>
</g>
<!-- Node5 -->
<g id="node5" class="node">
<title>Node5</title>
<g id="a_node5"><a xlink:href="master_8h.html#a2a2853b9ec5742a5d4213532ebeefa93" target="_top" xlink:title="Parses a PDU section of a slave response.">
<polygon fill="none" stroke="black" points="186,-19.5 186,-38.5 337,-38.5 337,-19.5 186,-19.5"/>
<text text-anchor="middle" x="261.5" y="-26.5" font-family="Helvetica,sans-Serif" font-size="10.00">modbusParseResponsePDU</text>
</a>
</g>
</g>
<!-- Node2&#45;&gt;Node5 -->
<g id="edge4" class="edge">
<title>Node2&#45;&gt;Node5</title>
<path fill="none" stroke="midnightblue" d="M363.68,-54.87C354.82,-52.58 345.63,-50.21 337,-48 324.98,-44.91 311.86,-41.56 300.02,-38.54"/>
<polygon fill="midnightblue" stroke="midnightblue" points="362.93,-58.29 373.49,-57.41 364.69,-51.52 362.93,-58.29"/>
</g>
<!-- Node6 -->
<g id="node6" class="node">
<title>Node6</title>
<g id="a_node6"><a xlink:href="master_8h.html#acbcaff5b6c002edcb471b504e447727b" target="_top" xlink:title="Parses a Modbus RTU slave response.">
<polygon fill="none" stroke="black" points="0,-38.5 0,-57.5 150,-57.5 150,-38.5 0,-38.5"/>
<text text-anchor="middle" x="75" y="-45.5" font-family="Helvetica,sans-Serif" font-size="10.00">modbusParseResponseRTU</text>
</a>
</g>
</g>
<!-- Node5&#45;&gt;Node6 -->
<g id="edge5" class="edge">
<title>Node5&#45;&gt;Node6</title>
<path fill="none" stroke="midnightblue" d="M175.95,-37.71C167.36,-38.59 158.67,-39.49 150.19,-40.36"/>
<polygon fill="midnightblue" stroke="midnightblue" points="176.4,-41.18 185.99,-36.67 175.68,-34.22 176.4,-41.18"/>
</g>
<!-- Node7 -->
<g id="node7" class="node">
<title>Node7</title>
<g id="a_node7"><a xlink:href="master_8h.html#ad0d0240bb8310791f3165b55734035aa" target="_top" xlink:title="Parses a Modbus TCP slave response.">
<polygon fill="none" stroke="black" points="0.5,-0.5 0.5,-19.5 149.5,-19.5 149.5,-0.5 0.5,-0.5"/>
<text text-anchor="middle" x="75" y="-7.5" font-family="Helvetica,sans-Serif" font-size="10.00">modbusParseResponseTCP</text>
</a>
</g>
</g>
<!-- Node5&#45;&gt;Node7 -->
<g id="edge6" class="edge">
<title>Node5&#45;&gt;Node7</title>
<path fill="none" stroke="midnightblue" d="M175.78,-20.28C167.04,-19.38 158.2,-18.47 149.59,-17.58"/>
<polygon fill="midnightblue" stroke="midnightblue" points="175.68,-23.78 185.99,-21.33 176.4,-16.82 175.68,-23.78"/>
</g>
</g>
</svg>
