<?xml version="1.0" encoding="UTF-8" standalone="no"?>
<!DOCTYPE svg PUBLIC "-//W3C//DTD SVG 1.1//EN"
 "http://www.w3.org/Graphics/SVG/1.1/DTD/svg11.dtd">
<!-- Generated by graphviz version 2.48.0 (0)
 -->
<!-- Title: modbusRBE Pages: 1 -->
<svg width="297pt" height="294pt"
 viewBox="0.00 0.00 297.00 294.00" xmlns="http://www.w3.org/2000/svg" xmlns:xlink="http://www.w3.org/1999/xlink">
<g id="graph0" class="graph" transform="scale(1 1) rotate(0) translate(4 290)">
<title>modbusRBE</title>
<!-- Node1 -->
<g id="node1" class="node">
<title>Node1</title>
<g id="a_node1"><a xlink:title="Safely reads a big&#45;endian 16&#45;bit word from provided pointer.">
<polygon fill="#bfbfbf" stroke="black" points="214,-133.5 214,-152.5 289,-152.5 289,-133.5 214,-133.5"/>
<text text-anchor="middle" x="251.5" y="-140.5" font-family="Helvetica,sans-Serif" font-size="10.00">modbusRBE</text>
</a>
</g>
</g>
<!-- Node2 -->
<g id="node2" class="node">
<title>Node2</title>
<g id="a_node2"><a xlink:href="slave__func_8h.html#a070ffd089a641ac5c769dc81bd65a982" target="_top" xlink:title="Handles requests 01, 02, 03 and 04 (Read Multiple XX)">
<polygon fill="none" stroke="black" points="4,-266.5 4,-285.5 174,-285.5 174,-266.5 4,-266.5"/>
<text text-anchor="middle" x="89" y="-273.5" font-family="Helvetica,sans-Serif" font-size="10.00">modbusParseRequest01020304</text>
</a>
</g>
</g>
<!-- Node1&#45;&gt;Node2 -->
<g id="edge1" class="edge">
<title>Node1&#45;&gt;Node2</title>
<path fill="none" stroke="midnightblue" d="M243.72,-162.24C233.6,-188.03 212,-233.31 178,-257 172.49,-260.84 166.34,-263.93 159.93,-266.41"/>
<polygon fill="midnightblue" stroke="midnightblue" points="247.03,-163.39 247.26,-152.79 240.47,-160.93 247.03,-163.39"/>
</g>
<!-- Node3 -->
<g id="node3" class="node">
<title>Node3</title>
<g id="a_node3"><a xlink:href="slave__func_8h.html#a409a88238d5769dff441d1745e552352" target="_top" xlink:title="Handles requests 05 and 06 (Write Single XX)">
<polygon fill="none" stroke="black" points="16,-228.5 16,-247.5 162,-247.5 162,-228.5 16,-228.5"/>
<text text-anchor="middle" x="89" y="-235.5" font-family="Helvetica,sans-Serif" font-size="10.00">modbusParseRequest0506</text>
</a>
</g>
</g>
<!-- Node1&#45;&gt;Node3 -->
<g id="edge2" class="edge">
<title>Node1&#45;&gt;Node3</title>
<path fill="none" stroke="midnightblue" d="M238.32,-161C225.44,-178.58 203.47,-204.73 178,-219 171.05,-222.9 163.37,-226 155.54,-228.46"/>
<polygon fill="midnightblue" stroke="midnightblue" points="241.28,-162.87 244.2,-152.69 235.57,-158.83 241.28,-162.87"/>
</g>
<!-- Node4 -->
<g id="node4" class="node">
<title>Node4</title>
<g id="a_node4"><a xlink:href="slave__func_8h.html#a1b5c01b97863cc32a9b7aebbf1f652c6" target="_top" xlink:title="Handles requests 15 and 16 (Write Multiple XX)">
<polygon fill="none" stroke="black" points="16,-190.5 16,-209.5 162,-209.5 162,-190.5 16,-190.5"/>
<text text-anchor="middle" x="89" y="-197.5" font-family="Helvetica,sans-Serif" font-size="10.00">modbusParseRequest1516</text>
</a>
</g>
</g>
<!-- Node1&#45;&gt;Node4 -->
<g id="edge3" class="edge">
<title>Node1&#45;&gt;Node4</title>
<path fill="none" stroke="midnightblue" d="M226.4,-157.74C212.64,-165.61 194.83,-174.9 178,-181 167.57,-184.78 156.15,-187.93 145.1,-190.5"/>
<polygon fill="midnightblue" stroke="midnightblue" points="228.36,-160.65 235.22,-152.57 224.82,-154.61 228.36,-160.65"/>
</g>
<!-- Node5 -->
<g id="node5" class="node">
<title>Node5</title>
<g id="a_node5"><a xlink:href="slave__func_8h.html#a58c24d2648cb5487ac7cf110282e5c18" target="_top" xlink:title="Handles request 22 (Mask Write Register)">
<polygon fill="none" stroke="black" points="22,-152.5 22,-171.5 156,-171.5 156,-152.5 22,-152.5"/>
<text text-anchor="middle" x="89" y="-159.5" font-family="Helvetica,sans-Serif" font-size="10.00">modbusParseRequest22</text>
</a>
</g>
</g>
<!-- Node1&#45;&gt;Node5 -->
<g id="edge4" class="edge">
<title>Node1&#45;&gt;Node5</title>
<path fill="none" stroke="midnightblue" d="M203.74,-148.54C188.9,-150.29 172.21,-152.27 156.27,-154.15"/>
<polygon fill="midnightblue" stroke="midnightblue" points="204.16,-152.01 213.68,-147.36 203.34,-145.06 204.16,-152.01"/>
</g>
<!-- Node6 -->
<g id="node6" class="node">
<title>Node6</title>
<g id="a_node6"><a xlink:href="slave_8h.html#a11f5dfe3b6a3f37ca7c7eb179ca75864" target="_top" xlink:title="Parses provided Modbus TCP request frame.">
<polygon fill="none" stroke="black" points="18.5,-114.5 18.5,-133.5 159.5,-133.5 159.5,-114.5 18.5,-114.5"/>
<text text-anchor="middle" x="89" y="-121.5" font-family="Helvetica,sans-Serif" font-size="10.00">modbusParseRequestTCP</text>
</a>
</g>
</g>
<!-- Node1&#45;&gt;Node6 -->
<g id="edge5" class="edge">
<title>Node1&#45;&gt;Node6</title>
<path fill="none" stroke="midnightblue" d="M203.55,-137.44C189.85,-135.82 174.59,-134.01 159.8,-132.26"/>
<polygon fill="midnightblue" stroke="midnightblue" points="203.34,-140.94 213.68,-138.64 204.16,-133.99 203.34,-140.94"/>
</g>
<!-- Node7 -->
<g id="node7" class="node">
<title>Node7</title>
<g id="a_node7"><a xlink:href="master__func_8h.html#acf15843f080ad8ac8f4d095b5556d19b" target="_top" xlink:title="Parses response to requests 01, 02, 03 and 04.">
<polygon fill="none" stroke="black" points="0,-76.5 0,-95.5 178,-95.5 178,-76.5 0,-76.5"/>
<text text-anchor="middle" x="89" y="-83.5" font-family="Helvetica,sans-Serif" font-size="10.00">modbusParseResponse01020304</text>
</a>
</g>
</g>
<!-- Node1&#45;&gt;Node7 -->
<g id="edge6" class="edge">
<title>Node1&#45;&gt;Node7</title>
<path fill="none" stroke="midnightblue" d="M226.4,-128.26C212.64,-120.39 194.83,-111.1 178,-105 167.57,-101.22 156.15,-98.07 145.1,-95.5"/>
<polygon fill="midnightblue" stroke="midnightblue" points="224.82,-131.39 235.22,-133.43 228.36,-125.35 224.82,-131.39"/>
</g>
<!-- Node8 -->
<g id="node8" class="node">
<title>Node8</title>
<g id="a_node8"><a xlink:href="master__func_8h.html#afeaddc62f81c2cb558048140e110e942" target="_top" xlink:title="Parses response to requests 15 and 16.">
<polygon fill="none" stroke="black" points="12,-38.5 12,-57.5 166,-57.5 166,-38.5 12,-38.5"/>
<text text-anchor="middle" x="89" y="-45.5" font-family="Helvetica,sans-Serif" font-size="10.00">modbusParseResponse1516</text>
</a>
</g>
</g>
<!-- Node1&#45;&gt;Node8 -->
<g id="edge7" class="edge">
<title>Node1&#45;&gt;Node8</title>
<path fill="none" stroke="midnightblue" d="M238.32,-125C225.44,-107.42 203.47,-81.27 178,-67 171.05,-63.1 163.37,-60 155.54,-57.54"/>
<polygon fill="midnightblue" stroke="midnightblue" points="235.57,-127.17 244.2,-133.31 241.28,-123.13 235.57,-127.17"/>
</g>
<!-- Node9 -->
<g id="node9" class="node">
<title>Node9</title>
<g id="a_node9"><a xlink:href="master_8h.html#ad0d0240bb8310791f3165b55734035aa" target="_top" xlink:title="Parses a Modbus TCP slave response.">
<polygon fill="none" stroke="black" points="14.5,-0.5 14.5,-19.5 163.5,-19.5 163.5,-0.5 14.5,-0.5"/>
<text text-anchor="middle" x="89" y="-7.5" font-family="Helvetica,sans-Serif" font-size="10.00">modbusParseResponseTCP</text>
</a>
</g>
</g>
<!-- Node1&#45;&gt;Node9 -->
<g id="edge8" class="edge">
<title>Node1&#45;&gt;Node9</title>
<path fill="none" stroke="midnightblue" d="M243.72,-123.76C233.6,-97.97 212,-52.69 178,-29 172.49,-25.16 166.34,-22.07 159.93,-19.59"/>
<polygon fill="midnightblue" stroke="midnightblue" points="240.47,-125.07 247.26,-133.21 247.03,-122.61 240.47,-125.07"/>
</g>
</g>
</svg>
