<?xml version="1.0" encoding="UTF-8" standalone="no"?>
<!DOCTYPE svg PUBLIC "-//W3C//DTD SVG 1.1//EN"
 "http://www.w3.org/Graphics/SVG/1.1/DTD/svg11.dtd">
<!-- Generated by graphviz version 2.44.0 ()
 -->
<!-- Title: modbusGetErrorSource Pages: 1 -->
<svg width="587pt" height="123pt"
 viewBox="0.00 0.00 587.00 123.00" xmlns="http://www.w3.org/2000/svg" xmlns:xlink="http://www.w3.org/1999/xlink">
<g id="graph0" class="graph" transform="scale(1 1) rotate(0) translate(4 119)">
<title>modbusGetErrorSource</title>
<!-- Node1 -->
<g id="node1" class="node">
<title>Node1</title>
<g id="a_node1"><a xlink:title="Returns uint8_t describing error source of ModbusErrorInfo.">
<polygon fill="#bfbfbf" stroke="black" points="461,-57.5 461,-76.5 579,-76.5 579,-57.5 461,-57.5"/>
<text text-anchor="middle" x="520" y="-64.5" font-family="Helvetica,sans-Serif" font-size="10.00">modbusGetErrorSource</text>
</a>
</g>
</g>
<!-- Node2 -->
<g id="node2" class="node">
<title>Node2</title>
<g id="a_node2"><a xlink:href="base_8h.html#ab945e5e4e573e91a217e0e0a389daa48" target="_top" xlink:title="Checks if ModbusErrorInfo contains an error.">
<polygon fill="none" stroke="black" points="353,-57.5 353,-76.5 425,-76.5 425,-57.5 353,-57.5"/>
<text text-anchor="middle" x="389" y="-64.5" font-family="Helvetica,sans-Serif" font-size="10.00">modbusIsOk</text>
</a>
</g>
</g>
<!-- Node1&#45;&gt;Node2 -->
<g id="edge1" class="edge">
<title>Node1&#45;&gt;Node2</title>
<path fill="none" stroke="midnightblue" d="M450.9,-67C442.03,-67 433.25,-67 425.24,-67"/>
<polygon fill="midnightblue" stroke="midnightblue" points="450.92,-70.5 460.92,-67 450.92,-63.5 450.92,-70.5"/>
</g>
<!-- Node3 -->
<g id="node3" class="node">
<title>Node3</title>
<g id="a_node3"><a xlink:href="slave_8h.html#a9da6d040ddc4a1ba71b03fad7a2fece3" target="_top" xlink:title="Parses provided Modbus RTU request frame and generates a Modbus RTU response.">
<polygon fill="none" stroke="black" points="180,-95.5 180,-114.5 313,-114.5 313,-95.5 180,-95.5"/>
<text text-anchor="middle" x="246.5" y="-102.5" font-family="Helvetica,sans-Serif" font-size="10.00">modbusParseRequestRTU</text>
</a>
</g>
</g>
<!-- Node2&#45;&gt;Node3 -->
<g id="edge2" class="edge">
<title>Node2&#45;&gt;Node3</title>
<path fill="none" stroke="midnightblue" d="M343,-79.17C323.46,-84.46 300.91,-90.55 282.63,-95.5"/>
<polygon fill="midnightblue" stroke="midnightblue" points="344.17,-82.48 352.91,-76.49 342.34,-75.72 344.17,-82.48"/>
</g>
<!-- Node4 -->
<g id="node4" class="node">
<title>Node4</title>
<g id="a_node4"><a xlink:href="slave_8h.html#a11f5dfe3b6a3f37ca7c7eb179ca75864" target="_top" xlink:title="Parses provided Modbus TCP request frame and generates a Modbus TCP response.">
<polygon fill="none" stroke="black" points="180.5,-57.5 180.5,-76.5 312.5,-76.5 312.5,-57.5 180.5,-57.5"/>
<text text-anchor="middle" x="246.5" y="-64.5" font-family="Helvetica,sans-Serif" font-size="10.00">modbusParseRequestTCP</text>
</a>
</g>
</g>
<!-- Node2&#45;&gt;Node4 -->
<g id="edge3" class="edge">
<title>Node2&#45;&gt;Node4</title>
<path fill="none" stroke="midnightblue" d="M342.76,-67C333.11,-67 322.73,-67 312.51,-67"/>
<polygon fill="midnightblue" stroke="midnightblue" points="342.91,-70.5 352.91,-67 342.91,-63.5 342.91,-70.5"/>
</g>
<!-- Node5 -->
<g id="node5" class="node">
<title>Node5</title>
<g id="a_node5"><a xlink:href="master_8h.html#ad8e87b7bdda035ea42cacc2241b406e3" target="_top" xlink:title="Parses a PDU section of a slave response.">
<polygon fill="none" stroke="black" points="176,-19.5 176,-38.5 317,-38.5 317,-19.5 176,-19.5"/>
<text text-anchor="middle" x="246.5" y="-26.5" font-family="Helvetica,sans-Serif" font-size="10.00">modbusParseResponsePDU</text>
</a>
</g>
</g>
<!-- Node2&#45;&gt;Node5 -->
<g id="edge4" class="edge">
<title>Node2&#45;&gt;Node5</title>
<path fill="none" stroke="midnightblue" d="M343,-54.83C323.46,-49.54 300.91,-43.45 282.63,-38.5"/>
<polygon fill="midnightblue" stroke="midnightblue" points="342.34,-58.28 352.91,-57.51 344.17,-51.52 342.34,-58.28"/>
</g>
<!-- Node6 -->
<g id="node6" class="node">
<title>Node6</title>
<g id="a_node6"><a xlink:href="master_8h.html#a151b85c221ae43804856eb92737498e5" target="_top" xlink:title="Parses a Modbus RTU slave response.">
<polygon fill="none" stroke="black" points="0,-38.5 0,-57.5 140,-57.5 140,-38.5 0,-38.5"/>
<text text-anchor="middle" x="70" y="-45.5" font-family="Helvetica,sans-Serif" font-size="10.00">modbusParseResponseRTU</text>
</a>
</g>
</g>
<!-- Node5&#45;&gt;Node6 -->
<g id="edge5" class="edge">
<title>Node5&#45;&gt;Node6</title>
<path fill="none" stroke="midnightblue" d="M165.76,-37.68C157.17,-38.62 148.49,-39.56 140.04,-40.48"/>
<polygon fill="midnightblue" stroke="midnightblue" points="166.22,-41.15 175.78,-36.59 165.46,-34.19 166.22,-41.15"/>
</g>
<!-- Node7 -->
<g id="node7" class="node">
<title>Node7</title>
<g id="a_node7"><a xlink:href="master_8h.html#a53ea67c733b1e627e1cdcb0003270a1b" target="_top" xlink:title="Parses a Modbus TCP slave response.">
<polygon fill="none" stroke="black" points="0,-0.5 0,-19.5 140,-19.5 140,-0.5 0,-0.5"/>
<text text-anchor="middle" x="70" y="-7.5" font-family="Helvetica,sans-Serif" font-size="10.00">modbusParseResponseTCP</text>
</a>
</g>
</g>
<!-- Node5&#45;&gt;Node7 -->
<g id="edge6" class="edge">
<title>Node5&#45;&gt;Node7</title>
<path fill="none" stroke="midnightblue" d="M165.76,-20.32C157.17,-19.38 148.49,-18.44 140.04,-17.52"/>
<polygon fill="midnightblue" stroke="midnightblue" points="165.46,-23.81 175.78,-21.41 166.22,-16.85 165.46,-23.81"/>
</g>
</g>
</svg>
