<?xml version="1.0" encoding="UTF-8" standalone="no"?>
<!DOCTYPE svg PUBLIC "-//W3C//DTD SVG 1.1//EN"
 "http://www.w3.org/Graphics/SVG/1.1/DTD/svg11.dtd">
<!-- Generated by graphviz version 2.48.0 (0)
 -->
<!-- Title: modbusWBE Pages: 1 -->
<svg width="460pt" height="522pt"
 viewBox="0.00 0.00 460.00 522.00" xmlns="http://www.w3.org/2000/svg" xmlns:xlink="http://www.w3.org/1999/xlink">
<g id="graph0" class="graph" transform="scale(1 1) rotate(0) translate(4 518)">
<title>modbusWBE</title>
<!-- Node1 -->
<g id="node1" class="node">
<title>Node1</title>
<g id="a_node1"><a xlink:title="Safely writes a big&#45;endian 16&#45;bit word to provided pointer.">
<polygon fill="#bfbfbf" stroke="black" points="374,-190.5 374,-209.5 452,-209.5 452,-190.5 374,-190.5"/>
<text text-anchor="middle" x="413" y="-197.5" font-family="Helvetica,sans-Serif" font-size="10.00">modbusWBE</text>
</a>
</g>
</g>
<!-- Node2 -->
<g id="node2" class="node">
<title>Node2</title>
<g id="a_node2"><a xlink:href="master__func_8h.html#ad3a6d4576d762da3eb0bd73aa5bb24fe" target="_top" xlink:title="Read mutiple coils/discrete inputs/holding registers/input registers.">
<polygon fill="none" stroke="black" points="169,-418.5 169,-437.5 337,-437.5 337,-418.5 169,-418.5"/>
<text text-anchor="middle" x="253" y="-425.5" font-family="Helvetica,sans-Serif" font-size="10.00">modbusBuildRequest01020304</text>
</a>
</g>
</g>
<!-- Node1&#45;&gt;Node2 -->
<g id="edge1" class="edge">
<title>Node1&#45;&gt;Node2</title>
<path fill="none" stroke="midnightblue" d="M407.41,-219.51C398.67,-253.39 376.92,-323.99 338,-371 320.47,-392.18 293.11,-408.71 274.41,-418.4"/>
<polygon fill="midnightblue" stroke="midnightblue" points="410.88,-220.06 409.89,-209.51 404.09,-218.38 410.88,-220.06"/>
</g>
<!-- Node7 -->
<g id="node7" class="node">
<title>Node7</title>
<g id="a_node7"><a xlink:href="master__func_8h.html#a5309a3003ea2d248e51193e75ab30044" target="_top" xlink:title="Write single coil/holding register.">
<polygon fill="none" stroke="black" points="181,-342.5 181,-361.5 325,-361.5 325,-342.5 181,-342.5"/>
<text text-anchor="middle" x="253" y="-349.5" font-family="Helvetica,sans-Serif" font-size="10.00">modbusBuildRequest0506</text>
</a>
</g>
</g>
<!-- Node1&#45;&gt;Node7 -->
<g id="edge6" class="edge">
<title>Node1&#45;&gt;Node7</title>
<path fill="none" stroke="midnightblue" d="M406.77,-219.37C397.81,-248.71 376.63,-304.07 338,-333 332.85,-336.85 327.07,-339.95 321,-342.43"/>
<polygon fill="midnightblue" stroke="midnightblue" points="410.21,-220.08 409.62,-209.5 403.48,-218.14 410.21,-220.08"/>
</g>
<!-- Node10 -->
<g id="node10" class="node">
<title>Node10</title>
<g id="a_node10"><a xlink:href="master__func_8h.html#a0870a4601ed4e853673660ce94e6361c" target="_top" xlink:title="Write multiple coils.">
<polygon fill="none" stroke="black" points="187,-304.5 187,-323.5 319,-323.5 319,-304.5 187,-304.5"/>
<text text-anchor="middle" x="253" y="-311.5" font-family="Helvetica,sans-Serif" font-size="10.00">modbusBuildRequest15</text>
</a>
</g>
</g>
<!-- Node1&#45;&gt;Node10 -->
<g id="edge9" class="edge">
<title>Node1&#45;&gt;Node10</title>
<path fill="none" stroke="midnightblue" d="M402.71,-218.52C390.78,-240.32 368,-275.95 338,-295 331.94,-298.85 325.2,-301.92 318.25,-304.37"/>
<polygon fill="midnightblue" stroke="midnightblue" points="405.85,-220.07 407.41,-209.59 399.66,-216.81 405.85,-220.07"/>
</g>
<!-- Node11 -->
<g id="node11" class="node">
<title>Node11</title>
<g id="a_node11"><a xlink:href="master__func_8h.html#a2268e967480c9281b88760dc752e5fa1" target="_top" xlink:title="Write multiple holding registers.">
<polygon fill="none" stroke="black" points="187,-266.5 187,-285.5 319,-285.5 319,-266.5 187,-266.5"/>
<text text-anchor="middle" x="253" y="-273.5" font-family="Helvetica,sans-Serif" font-size="10.00">modbusBuildRequest16</text>
</a>
</g>
</g>
<!-- Node1&#45;&gt;Node11 -->
<g id="edge10" class="edge">
<title>Node1&#45;&gt;Node11</title>
<path fill="none" stroke="midnightblue" d="M394.95,-216.65C380.81,-229.54 359.59,-246.85 338,-257 329.75,-260.88 320.66,-263.99 311.6,-266.48"/>
<polygon fill="midnightblue" stroke="midnightblue" points="397.5,-219.06 402.4,-209.66 392.71,-213.95 397.5,-219.06"/>
</g>
<!-- Node12 -->
<g id="node12" class="node">
<title>Node12</title>
<g id="a_node12"><a xlink:href="master__func_8h.html#a1e2e9087a1bd52b7d1329b05324339e6" target="_top" xlink:title="Mask write register request.">
<polygon fill="none" stroke="black" points="187,-228.5 187,-247.5 319,-247.5 319,-228.5 187,-228.5"/>
<text text-anchor="middle" x="253" y="-235.5" font-family="Helvetica,sans-Serif" font-size="10.00">modbusBuildRequest22</text>
</a>
</g>
</g>
<!-- Node1&#45;&gt;Node12 -->
<g id="edge11" class="edge">
<title>Node1&#45;&gt;Node12</title>
<path fill="none" stroke="midnightblue" d="M365.77,-212.09C356.58,-214.43 347,-216.83 338,-219 324.77,-222.19 310.34,-225.52 297.22,-228.47"/>
<polygon fill="midnightblue" stroke="midnightblue" points="366.72,-215.46 375.54,-209.58 364.99,-208.68 366.72,-215.46"/>
</g>
<!-- Node13 -->
<g id="node13" class="node">
<title>Node13</title>
<g id="a_node13"><a xlink:href="master_8h.html#a117f6d4b5ec63dac5e4e5ea0af78d079" target="_top" xlink:title="Finalizes a Modbus TCP request.">
<polygon fill="none" stroke="black" points="187,-190.5 187,-209.5 319,-209.5 319,-190.5 187,-190.5"/>
<text text-anchor="middle" x="253" y="-197.5" font-family="Helvetica,sans-Serif" font-size="10.00">modbusEndRequestTCP</text>
</a>
</g>
</g>
<!-- Node1&#45;&gt;Node13 -->
<g id="edge12" class="edge">
<title>Node1&#45;&gt;Node13</title>
<path fill="none" stroke="midnightblue" d="M363.37,-200C349.36,-200 333.85,-200 319.02,-200"/>
<polygon fill="midnightblue" stroke="midnightblue" points="363.75,-203.5 373.75,-200 363.75,-196.5 363.75,-203.5"/>
</g>
<!-- Node14 -->
<g id="node14" class="node">
<title>Node14</title>
<g id="a_node14"><a xlink:href="slave__func_8h.html#a070ffd089a641ac5c769dc81bd65a982" target="_top" xlink:title="Handles requests 01, 02, 03 and 04 (Read Multiple XX)">
<polygon fill="none" stroke="black" points="168,-152.5 168,-171.5 338,-171.5 338,-152.5 168,-152.5"/>
<text text-anchor="middle" x="253" y="-159.5" font-family="Helvetica,sans-Serif" font-size="10.00">modbusParseRequest01020304</text>
</a>
</g>
</g>
<!-- Node1&#45;&gt;Node14 -->
<g id="edge13" class="edge">
<title>Node1&#45;&gt;Node14</title>
<path fill="none" stroke="midnightblue" d="M365.77,-187.91C356.58,-185.57 347,-183.17 338,-181 324.77,-177.81 310.34,-174.48 297.22,-171.53"/>
<polygon fill="midnightblue" stroke="midnightblue" points="364.99,-191.32 375.54,-190.42 366.72,-184.54 364.99,-191.32"/>
</g>
<!-- Node15 -->
<g id="node15" class="node">
<title>Node15</title>
<g id="a_node15"><a xlink:href="slave__func_8h.html#a409a88238d5769dff441d1745e552352" target="_top" xlink:title="Handles requests 05 and 06 (Write Single XX)">
<polygon fill="none" stroke="black" points="180,-114.5 180,-133.5 326,-133.5 326,-114.5 180,-114.5"/>
<text text-anchor="middle" x="253" y="-121.5" font-family="Helvetica,sans-Serif" font-size="10.00">modbusParseRequest0506</text>
</a>
</g>
</g>
<!-- Node1&#45;&gt;Node15 -->
<g id="edge14" class="edge">
<title>Node1&#45;&gt;Node15</title>
<path fill="none" stroke="midnightblue" d="M394.95,-183.35C380.81,-170.46 359.59,-153.15 338,-143 329.75,-139.12 320.66,-136.01 311.6,-133.52"/>
<polygon fill="midnightblue" stroke="midnightblue" points="392.71,-186.05 402.4,-190.34 397.5,-180.94 392.71,-186.05"/>
</g>
<!-- Node16 -->
<g id="node16" class="node">
<title>Node16</title>
<g id="a_node16"><a xlink:href="slave__func_8h.html#a1b5c01b97863cc32a9b7aebbf1f652c6" target="_top" xlink:title="Handles requests 15 and 16 (Write Multiple XX)">
<polygon fill="none" stroke="black" points="180,-76.5 180,-95.5 326,-95.5 326,-76.5 180,-76.5"/>
<text text-anchor="middle" x="253" y="-83.5" font-family="Helvetica,sans-Serif" font-size="10.00">modbusParseRequest1516</text>
</a>
</g>
</g>
<!-- Node1&#45;&gt;Node16 -->
<g id="edge15" class="edge">
<title>Node1&#45;&gt;Node16</title>
<path fill="none" stroke="midnightblue" d="M402.71,-181.48C390.78,-159.68 368,-124.05 338,-105 331.94,-101.15 325.2,-98.08 318.25,-95.63"/>
<polygon fill="midnightblue" stroke="midnightblue" points="399.66,-183.19 407.41,-190.41 405.85,-179.93 399.66,-183.19"/>
</g>
<!-- Node17 -->
<g id="node17" class="node">
<title>Node17</title>
<g id="a_node17"><a xlink:href="slave__func_8h.html#a58c24d2648cb5487ac7cf110282e5c18" target="_top" xlink:title="Handles request 22 (Mask Write Register)">
<polygon fill="none" stroke="black" points="186,-38.5 186,-57.5 320,-57.5 320,-38.5 186,-38.5"/>
<text text-anchor="middle" x="253" y="-45.5" font-family="Helvetica,sans-Serif" font-size="10.00">modbusParseRequest22</text>
</a>
</g>
</g>
<!-- Node1&#45;&gt;Node17 -->
<g id="edge16" class="edge">
<title>Node1&#45;&gt;Node17</title>
<path fill="none" stroke="midnightblue" d="M406.77,-180.63C397.81,-151.29 376.63,-95.93 338,-67 332.61,-62.97 326.53,-59.76 320.15,-57.23"/>
<polygon fill="midnightblue" stroke="midnightblue" points="403.48,-181.86 409.62,-190.5 410.21,-179.92 403.48,-181.86"/>
</g>
<!-- Node18 -->
<g id="node18" class="node">
<title>Node18</title>
<g id="a_node18"><a xlink:href="slave_8h.html#a11f5dfe3b6a3f37ca7c7eb179ca75864" target="_top" xlink:title="Parses provided Modbus TCP request frame.">
<polygon fill="none" stroke="black" points="182.5,-0.5 182.5,-19.5 323.5,-19.5 323.5,-0.5 182.5,-0.5"/>
<text text-anchor="middle" x="253" y="-7.5" font-family="Helvetica,sans-Serif" font-size="10.00">modbusParseRequestTCP</text>
</a>
</g>
</g>
<!-- Node1&#45;&gt;Node18 -->
<g id="edge17" class="edge">
<title>Node1&#45;&gt;Node18</title>
<path fill="none" stroke="midnightblue" d="M409.34,-180.32C403.4,-144.45 385.63,-68.5 338,-29 333.4,-25.18 328.18,-22.09 322.66,-19.6"/>
<polygon fill="midnightblue" stroke="midnightblue" points="405.91,-181.1 410.87,-190.46 412.83,-180.05 405.91,-181.1"/>
</g>
<!-- Node3 -->
<g id="node3" class="node">
<title>Node3</title>
<g id="a_node3"><a xlink:href="master__func_8h.html#a899edde7b2c063fff4fc952f009eff6f" target="_top" xlink:title="Read multiple coils.">
<polygon fill="none" stroke="black" points="0,-494.5 0,-513.5 132,-513.5 132,-494.5 0,-494.5"/>
<text text-anchor="middle" x="66" y="-501.5" font-family="Helvetica,sans-Serif" font-size="10.00">modbusBuildRequest01</text>
</a>
</g>
</g>
<!-- Node2&#45;&gt;Node3 -->
<g id="edge2" class="edge">
<title>Node2&#45;&gt;Node3</title>
<path fill="none" stroke="midnightblue" d="M224.92,-442.39C200.95,-454.75 164.77,-472.52 132,-485 122.88,-488.47 112.84,-491.69 103.44,-494.46"/>
<polygon fill="midnightblue" stroke="midnightblue" points="226.84,-445.33 234.1,-437.61 223.61,-439.13 226.84,-445.33"/>
</g>
<!-- Node4 -->
<g id="node4" class="node">
<title>Node4</title>
<g id="a_node4"><a xlink:href="master__func_8h.html#a7d26baeb0dae90a0a1c9e48732baa431" target="_top" xlink:title="Read multiple discrete inputs.">
<polygon fill="none" stroke="black" points="0,-456.5 0,-475.5 132,-475.5 132,-456.5 0,-456.5"/>
<text text-anchor="middle" x="66" y="-463.5" font-family="Helvetica,sans-Serif" font-size="10.00">modbusBuildRequest02</text>
</a>
</g>
</g>
<!-- Node2&#45;&gt;Node4 -->
<g id="edge3" class="edge">
<title>Node2&#45;&gt;Node4</title>
<path fill="none" stroke="midnightblue" d="M195.48,-439.61C169.17,-445.01 138.26,-451.36 113.35,-456.48"/>
<polygon fill="midnightblue" stroke="midnightblue" points="196.23,-443.03 205.32,-437.59 194.82,-436.17 196.23,-443.03"/>
</g>
<!-- Node5 -->
<g id="node5" class="node">
<title>Node5</title>
<g id="a_node5"><a xlink:href="master__func_8h.html#a48714bd3a58663857b26202575e33031" target="_top" xlink:title="Read multiple holding registers.">
<polygon fill="none" stroke="black" points="0,-418.5 0,-437.5 132,-437.5 132,-418.5 0,-418.5"/>
<text text-anchor="middle" x="66" y="-425.5" font-family="Helvetica,sans-Serif" font-size="10.00">modbusBuildRequest03</text>
</a>
</g>
</g>
<!-- Node2&#45;&gt;Node5 -->
<g id="edge4" class="edge">
<title>Node2&#45;&gt;Node5</title>
<path fill="none" stroke="midnightblue" d="M158.77,-428C149.73,-428 140.69,-428 132.01,-428"/>
<polygon fill="midnightblue" stroke="midnightblue" points="158.97,-431.5 168.97,-428 158.97,-424.5 158.97,-431.5"/>
</g>
<!-- Node6 -->
<g id="node6" class="node">
<title>Node6</title>
<g id="a_node6"><a xlink:href="master__func_8h.html#ae3c3a0a196c531187f89368f9f9773fe" target="_top" xlink:title="Read multiple input registers.">
<polygon fill="none" stroke="black" points="0,-380.5 0,-399.5 132,-399.5 132,-380.5 0,-380.5"/>
<text text-anchor="middle" x="66" y="-387.5" font-family="Helvetica,sans-Serif" font-size="10.00">modbusBuildRequest04</text>
</a>
</g>
</g>
<!-- Node2&#45;&gt;Node6 -->
<g id="edge5" class="edge">
<title>Node2&#45;&gt;Node6</title>
<path fill="none" stroke="midnightblue" d="M195.48,-416.39C169.17,-410.99 138.26,-404.64 113.35,-399.52"/>
<polygon fill="midnightblue" stroke="midnightblue" points="194.82,-419.83 205.32,-418.41 196.23,-412.97 194.82,-419.83"/>
</g>
<!-- Node8 -->
<g id="node8" class="node">
<title>Node8</title>
<g id="a_node8"><a xlink:href="master__func_8h.html#ac76dcec4fbebbc94983dec6adac2d7e2" target="_top" xlink:title="Write single coil.">
<polygon fill="none" stroke="black" points="0,-342.5 0,-361.5 132,-361.5 132,-342.5 0,-342.5"/>
<text text-anchor="middle" x="66" y="-349.5" font-family="Helvetica,sans-Serif" font-size="10.00">modbusBuildRequest05</text>
</a>
</g>
</g>
<!-- Node7&#45;&gt;Node8 -->
<g id="edge7" class="edge">
<title>Node7&#45;&gt;Node8</title>
<path fill="none" stroke="midnightblue" d="M170.53,-352C157.69,-352 144.57,-352 132.17,-352"/>
<polygon fill="midnightblue" stroke="midnightblue" points="170.74,-355.5 180.74,-352 170.74,-348.5 170.74,-355.5"/>
</g>
<!-- Node9 -->
<g id="node9" class="node">
<title>Node9</title>
<g id="a_node9"><a xlink:href="master__func_8h.html#acb8640cff5648bad748c4d248b9be75e" target="_top" xlink:title="Write single holding register.">
<polygon fill="none" stroke="black" points="0,-304.5 0,-323.5 132,-323.5 132,-304.5 0,-304.5"/>
<text text-anchor="middle" x="66" y="-311.5" font-family="Helvetica,sans-Serif" font-size="10.00">modbusBuildRequest06</text>
</a>
</g>
</g>
<!-- Node7&#45;&gt;Node9 -->
<g id="edge8" class="edge">
<title>Node7&#45;&gt;Node9</title>
<path fill="none" stroke="midnightblue" d="M195.48,-340.39C169.17,-334.99 138.26,-328.64 113.35,-323.52"/>
<polygon fill="midnightblue" stroke="midnightblue" points="194.82,-343.83 205.32,-342.41 196.23,-336.97 194.82,-343.83"/>
</g>
</g>
</svg>
