<?xml version="1.0" encoding="UTF-8" standalone="no"?>
<!DOCTYPE svg PUBLIC "-//W3C//DTD SVG 1.1//EN"
 "http://www.w3.org/Graphics/SVG/1.1/DTD/svg11.dtd">
<!-- Generated by graphviz version 2.48.0 (0)
 -->
<!-- Title: modbusMaskRead Pages: 1 -->
<svg width="329pt" height="104pt"
 viewBox="0.00 0.00 329.00 104.00" xmlns="http://www.w3.org/2000/svg" xmlns:xlink="http://www.w3.org/1999/xlink">
<g id="graph0" class="graph" transform="scale(1 1) rotate(0) translate(4 100)">
<title>modbusMaskRead</title>
<!-- Node1 -->
<g id="node1" class="node">
<title>Node1</title>
<g id="a_node1"><a xlink:title="Reads n&#45;th bit from an array.">
<polygon fill="#bfbfbf" stroke="black" points="214,-38.5 214,-57.5 321,-57.5 321,-38.5 214,-38.5"/>
<text text-anchor="middle" x="267.5" y="-45.5" font-family="Helvetica,sans-Serif" font-size="10.00">modbusMaskRead</text>
</a>
</g>
</g>
<!-- Node2 -->
<g id="node2" class="node">
<title>Node2</title>
<g id="a_node2"><a xlink:href="master__func_8h.html#a0870a4601ed4e853673660ce94e6361c" target="_top" xlink:title="Write multiple coils.">
<polygon fill="none" stroke="black" points="23,-76.5 23,-95.5 155,-95.5 155,-76.5 23,-76.5"/>
<text text-anchor="middle" x="89" y="-83.5" font-family="Helvetica,sans-Serif" font-size="10.00">modbusBuildRequest15</text>
</a>
</g>
</g>
<!-- Node1&#45;&gt;Node2 -->
<g id="edge1" class="edge">
<title>Node1&#45;&gt;Node2</title>
<path fill="none" stroke="midnightblue" d="M211.91,-59.75C186.96,-65.13 157.77,-71.41 134.22,-76.48"/>
<polygon fill="midnightblue" stroke="midnightblue" points="212.92,-63.12 221.96,-57.59 211.45,-56.27 212.92,-63.12"/>
</g>
<!-- Node3 -->
<g id="node3" class="node">
<title>Node3</title>
<g id="a_node3"><a xlink:href="slave__func_8h.html#a1b5c01b97863cc32a9b7aebbf1f652c6" target="_top" xlink:title="Handles requests 15 and 16 (Write Multiple XX)">
<polygon fill="none" stroke="black" points="16,-38.5 16,-57.5 162,-57.5 162,-38.5 16,-38.5"/>
<text text-anchor="middle" x="89" y="-45.5" font-family="Helvetica,sans-Serif" font-size="10.00">modbusParseRequest1516</text>
</a>
</g>
</g>
<!-- Node1&#45;&gt;Node3 -->
<g id="edge2" class="edge">
<title>Node1&#45;&gt;Node3</title>
<path fill="none" stroke="midnightblue" d="M203.5,-48C190.11,-48 175.88,-48 162.18,-48"/>
<polygon fill="midnightblue" stroke="midnightblue" points="203.54,-51.5 213.54,-48 203.54,-44.5 203.54,-51.5"/>
</g>
<!-- Node4 -->
<g id="node4" class="node">
<title>Node4</title>
<g id="a_node4"><a xlink:href="master__func_8h.html#acf15843f080ad8ac8f4d095b5556d19b" target="_top" xlink:title="Parses response to requests 01, 02, 03 and 04.">
<polygon fill="none" stroke="black" points="0,-0.5 0,-19.5 178,-19.5 178,-0.5 0,-0.5"/>
<text text-anchor="middle" x="89" y="-7.5" font-family="Helvetica,sans-Serif" font-size="10.00">modbusParseResponse01020304</text>
</a>
</g>
</g>
<!-- Node1&#45;&gt;Node4 -->
<g id="edge3" class="edge">
<title>Node1&#45;&gt;Node4</title>
<path fill="none" stroke="midnightblue" d="M211.91,-36.25C186.96,-30.87 157.77,-24.59 134.22,-19.52"/>
<polygon fill="midnightblue" stroke="midnightblue" points="211.45,-39.73 221.96,-38.41 212.92,-32.88 211.45,-39.73"/>
</g>
</g>
</svg>
