<?xml version="1.0" encoding="UTF-8" standalone="no"?>
<!DOCTYPE svg PUBLIC "-//W3C//DTD SVG 1.1//EN"
 "http://www.w3.org/Graphics/SVG/1.1/DTD/svg11.dtd">
<!-- Generated by graphviz version 2.48.0 (0)
 -->
<!-- Title: modbusGetErrorCode Pages: 1 -->
<svg width="681pt" height="237pt"
 viewBox="0.00 0.00 681.00 237.00" xmlns="http://www.w3.org/2000/svg" xmlns:xlink="http://www.w3.org/1999/xlink">
<g id="graph0" class="graph" transform="scale(1 1) rotate(0) translate(4 233)">
<title>modbusGetErrorCode</title>
<!-- Node1 -->
<g id="node1" class="node">
<title>Node1</title>
<g id="a_node1"><a xlink:title=" ">
<polygon fill="#bfbfbf" stroke="black" points="552,-133.5 552,-152.5 673,-152.5 673,-133.5 552,-133.5"/>
<text text-anchor="middle" x="612.5" y="-140.5" font-family="Helvetica,sans-Serif" font-size="10.00">modbusGetErrorCode</text>
</a>
</g>
</g>
<!-- Node2 -->
<g id="node2" class="node">
<title>Node2</title>
<g id="a_node2"><a xlink:href="base_8h.html#a714f91145c46e1f4869ed95a3c117e64" target="_top" xlink:title=" ">
<polygon fill="none" stroke="black" points="375.5,-209.5 375.5,-228.5 513.5,-228.5 513.5,-209.5 375.5,-209.5"/>
<text text-anchor="middle" x="444.5" y="-216.5" font-family="Helvetica,sans-Serif" font-size="10.00">modbusGetCallbackError</text>
</a>
</g>
</g>
<!-- Node1&#45;&gt;Node2 -->
<g id="edge1" class="edge">
<title>Node1&#45;&gt;Node2</title>
<path fill="none" stroke="midnightblue" d="M589.8,-158.32C571.02,-170.98 542.74,-188.67 516,-200 507.25,-203.71 497.57,-206.87 488.26,-209.5"/>
<polygon fill="midnightblue" stroke="midnightblue" points="591.94,-161.09 598.21,-152.55 587.99,-155.32 591.94,-161.09"/>
</g>
<!-- Node3 -->
<g id="node3" class="node">
<title>Node3</title>
<g id="a_node3"><a xlink:href="base_8h.html#ab217024b21790b1f2d2570129f89854e" target="_top" xlink:title=" ">
<polygon fill="none" stroke="black" points="377.5,-171.5 377.5,-190.5 511.5,-190.5 511.5,-171.5 377.5,-171.5"/>
<text text-anchor="middle" x="444.5" y="-178.5" font-family="Helvetica,sans-Serif" font-size="10.00">modbusGetGeneralError</text>
</a>
</g>
</g>
<!-- Node1&#45;&gt;Node3 -->
<g id="edge2" class="edge">
<title>Node1&#45;&gt;Node3</title>
<path fill="none" stroke="midnightblue" d="M559.85,-154.82C536.44,-160.18 509.14,-166.43 487.09,-171.48"/>
<polygon fill="midnightblue" stroke="midnightblue" points="560.64,-158.23 569.61,-152.59 559.08,-151.41 560.64,-158.23"/>
</g>
<!-- Node4 -->
<g id="node4" class="node">
<title>Node4</title>
<g id="a_node4"><a xlink:href="base_8h.html#a3cf04c2614190d4cd0c7dd463afcab4a" target="_top" xlink:title=" ">
<polygon fill="none" stroke="black" points="376.5,-133.5 376.5,-152.5 512.5,-152.5 512.5,-133.5 376.5,-133.5"/>
<text text-anchor="middle" x="444.5" y="-140.5" font-family="Helvetica,sans-Serif" font-size="10.00">modbusGetRequestError</text>
</a>
</g>
</g>
<!-- Node1&#45;&gt;Node4 -->
<g id="edge3" class="edge">
<title>Node1&#45;&gt;Node4</title>
<path fill="none" stroke="midnightblue" d="M541.37,-143C531.86,-143 522.12,-143 512.66,-143"/>
<polygon fill="midnightblue" stroke="midnightblue" points="541.57,-146.5 551.57,-143 541.57,-139.5 541.57,-146.5"/>
</g>
<!-- Node5 -->
<g id="node5" class="node">
<title>Node5</title>
<g id="a_node5"><a xlink:href="base_8h.html#aaf409a598de00e18bc9ad729cb75aabb" target="_top" xlink:title=" ">
<polygon fill="none" stroke="black" points="373,-95.5 373,-114.5 516,-114.5 516,-95.5 373,-95.5"/>
<text text-anchor="middle" x="444.5" y="-102.5" font-family="Helvetica,sans-Serif" font-size="10.00">modbusGetResponseError</text>
</a>
</g>
</g>
<!-- Node1&#45;&gt;Node5 -->
<g id="edge4" class="edge">
<title>Node1&#45;&gt;Node5</title>
<path fill="none" stroke="midnightblue" d="M559.85,-131.18C536.44,-125.82 509.14,-119.57 487.09,-114.52"/>
<polygon fill="midnightblue" stroke="midnightblue" points="559.08,-134.59 569.61,-133.41 560.64,-127.77 559.08,-134.59"/>
</g>
<!-- Node6 -->
<g id="node6" class="node">
<title>Node6</title>
<g id="a_node6"><a xlink:href="base_8h.html#ab945e5e4e573e91a217e0e0a389daa48" target="_top" xlink:title=" ">
<polygon fill="none" stroke="black" points="406,-57.5 406,-76.5 483,-76.5 483,-57.5 406,-57.5"/>
<text text-anchor="middle" x="444.5" y="-64.5" font-family="Helvetica,sans-Serif" font-size="10.00">modbusIsOk</text>
</a>
</g>
</g>
<!-- Node1&#45;&gt;Node6 -->
<g id="edge5" class="edge">
<title>Node1&#45;&gt;Node6</title>
<path fill="none" stroke="midnightblue" d="M589.8,-127.68C571.02,-115.02 542.74,-97.33 516,-86 505.61,-81.6 493.93,-77.96 483.1,-75.09"/>
<polygon fill="midnightblue" stroke="midnightblue" points="587.99,-130.68 598.21,-133.45 591.94,-124.91 587.99,-130.68"/>
</g>
<!-- Node7 -->
<g id="node7" class="node">
<title>Node7</title>
<g id="a_node7"><a xlink:href="slave_8h.html#a9da6d040ddc4a1ba71b03fad7a2fece3" target="_top" xlink:title="Parses provided Modbus RTU request frame.">
<polygon fill="none" stroke="black" points="190,-95.5 190,-114.5 333,-114.5 333,-95.5 190,-95.5"/>
<text text-anchor="middle" x="261.5" y="-102.5" font-family="Helvetica,sans-Serif" font-size="10.00">modbusParseRequestRTU</text>
</a>
</g>
</g>
<!-- Node6&#45;&gt;Node7 -->
<g id="edge6" class="edge">
<title>Node6&#45;&gt;Node7</title>
<path fill="none" stroke="midnightblue" d="M395.93,-76.99C368.74,-82.7 334.81,-89.82 307.97,-95.45"/>
<polygon fill="midnightblue" stroke="midnightblue" points="396.93,-80.35 406,-74.87 395.49,-73.5 396.93,-80.35"/>
</g>
<!-- Node8 -->
<g id="node8" class="node">
<title>Node8</title>
<g id="a_node8"><a xlink:href="slave_8h.html#a11f5dfe3b6a3f37ca7c7eb179ca75864" target="_top" xlink:title="Parses provided Modbus TCP request frame.">
<polygon fill="none" stroke="black" points="191,-57.5 191,-76.5 332,-76.5 332,-57.5 191,-57.5"/>
<text text-anchor="middle" x="261.5" y="-64.5" font-family="Helvetica,sans-Serif" font-size="10.00">modbusParseRequestTCP</text>
</a>
</g>
</g>
<!-- Node6&#45;&gt;Node8 -->
<g id="edge7" class="edge">
<title>Node6&#45;&gt;Node8</title>
<path fill="none" stroke="midnightblue" d="M395.86,-67C376.37,-67 353.44,-67 332.14,-67"/>
<polygon fill="midnightblue" stroke="midnightblue" points="396,-70.5 406,-67 396,-63.5 396,-70.5"/>
</g>
<!-- Node9 -->
<g id="node9" class="node">
<title>Node9</title>
<g id="a_node9"><a xlink:href="master_8h.html#a2a2853b9ec5742a5d4213532ebeefa93" target="_top" xlink:title="Parses a PDU section of a slave response.">
<polygon fill="none" stroke="black" points="186,-19.5 186,-38.5 337,-38.5 337,-19.5 186,-19.5"/>
<text text-anchor="middle" x="261.5" y="-26.5" font-family="Helvetica,sans-Serif" font-size="10.00">modbusParseResponsePDU</text>
</a>
</g>
</g>
<!-- Node6&#45;&gt;Node9 -->
<g id="edge8" class="edge">
<title>Node6&#45;&gt;Node9</title>
<path fill="none" stroke="midnightblue" d="M395.93,-57.01C368.74,-51.3 334.81,-44.18 307.97,-38.55"/>
<polygon fill="midnightblue" stroke="midnightblue" points="395.49,-60.5 406,-59.13 396.93,-53.65 395.49,-60.5"/>
</g>
<!-- Node10 -->
<g id="node10" class="node">
<title>Node10</title>
<g id="a_node10"><a xlink:href="master_8h.html#acbcaff5b6c002edcb471b504e447727b" target="_top" xlink:title="Parses a Modbus RTU slave response.">
<polygon fill="none" stroke="black" points="0,-38.5 0,-57.5 150,-57.5 150,-38.5 0,-38.5"/>
<text text-anchor="middle" x="75" y="-45.5" font-family="Helvetica,sans-Serif" font-size="10.00">modbusParseResponseRTU</text>
</a>
</g>
</g>
<!-- Node9&#45;&gt;Node10 -->
<g id="edge9" class="edge">
<title>Node9&#45;&gt;Node10</title>
<path fill="none" stroke="midnightblue" d="M175.95,-37.71C167.36,-38.59 158.67,-39.49 150.19,-40.36"/>
<polygon fill="midnightblue" stroke="midnightblue" points="176.4,-41.18 185.99,-36.67 175.68,-34.22 176.4,-41.18"/>
</g>
<!-- Node11 -->
<g id="node11" class="node">
<title>Node11</title>
<g id="a_node11"><a xlink:href="master_8h.html#ad0d0240bb8310791f3165b55734035aa" target="_top" xlink:title="Parses a Modbus TCP slave response.">
<polygon fill="none" stroke="black" points="0.5,-0.5 0.5,-19.5 149.5,-19.5 149.5,-0.5 0.5,-0.5"/>
<text text-anchor="middle" x="75" y="-7.5" font-family="Helvetica,sans-Serif" font-size="10.00">modbusParseResponseTCP</text>
</a>
</g>
</g>
<!-- Node9&#45;&gt;Node11 -->
<g id="edge10" class="edge">
<title>Node9&#45;&gt;Node11</title>
<path fill="none" stroke="midnightblue" d="M175.78,-20.28C167.04,-19.38 158.2,-18.47 149.59,-17.58"/>
<polygon fill="midnightblue" stroke="midnightblue" points="175.68,-23.78 185.99,-21.33 176.4,-16.82 175.68,-23.78"/>
</g>
</g>
</svg>
