<?xml version="1.0" encoding="UTF-8" standalone="no"?>
<!DOCTYPE svg PUBLIC "-//W3C//DTD SVG 1.1//EN"
 "http://www.w3.org/Graphics/SVG/1.1/DTD/svg11.dtd">
<!-- Generated by graphviz version 2.48.0 (0)
 -->
<!-- Title: modbusMaskWrite Pages: 1 -->
<svg width="322pt" height="66pt"
 viewBox="0.00 0.00 322.00 66.00" xmlns="http://www.w3.org/2000/svg" xmlns:xlink="http://www.w3.org/1999/xlink">
<g id="graph0" class="graph" transform="scale(1 1) rotate(0) translate(4 62)">
<title>modbusMaskWrite</title>
<!-- Node1 -->
<g id="node1" class="node">
<title>Node1</title>
<g id="a_node1"><a xlink:title="Writes n&#45;th bit in an array.">
<polygon fill="#bfbfbf" stroke="black" points="206,-19.5 206,-38.5 314,-38.5 314,-19.5 206,-19.5"/>
<text text-anchor="middle" x="260" y="-26.5" font-family="Helvetica,sans-Serif" font-size="10.00">modbusMaskWrite</text>
</a>
</g>
</g>
<!-- Node2 -->
<g id="node2" class="node">
<title>Node2</title>
<g id="a_node2"><a xlink:href="master__func_8h.html#a0870a4601ed4e853673660ce94e6361c" target="_top" xlink:title="Write multiple coils.">
<polygon fill="none" stroke="black" points="19,-38.5 19,-57.5 151,-57.5 151,-38.5 19,-38.5"/>
<text text-anchor="middle" x="85" y="-45.5" font-family="Helvetica,sans-Serif" font-size="10.00">modbusBuildRequest15</text>
</a>
</g>
</g>
<!-- Node1&#45;&gt;Node2 -->
<g id="edge1" class="edge">
<title>Node1&#45;&gt;Node2</title>
<path fill="none" stroke="midnightblue" d="M195.35,-35.99C180.9,-37.58 165.53,-39.27 151.02,-40.86"/>
<polygon fill="midnightblue" stroke="midnightblue" points="196.12,-39.43 205.68,-34.86 195.36,-32.47 196.12,-39.43"/>
</g>
<!-- Node3 -->
<g id="node3" class="node">
<title>Node3</title>
<g id="a_node3"><a xlink:href="slave__func_8h.html#a070ffd089a641ac5c769dc81bd65a982" target="_top" xlink:title="Handles requests 01, 02, 03 and 04 (Read Multiple XX)">
<polygon fill="none" stroke="black" points="0,-0.5 0,-19.5 170,-19.5 170,-0.5 0,-0.5"/>
<text text-anchor="middle" x="85" y="-7.5" font-family="Helvetica,sans-Serif" font-size="10.00">modbusParseRequest01020304</text>
</a>
</g>
</g>
<!-- Node1&#45;&gt;Node3 -->
<g id="edge2" class="edge">
<title>Node1&#45;&gt;Node3</title>
<path fill="none" stroke="midnightblue" d="M195.67,-22.04C187.31,-21.13 178.64,-20.17 170.01,-19.23"/>
<polygon fill="midnightblue" stroke="midnightblue" points="195.36,-25.53 205.68,-23.14 196.12,-18.57 195.36,-25.53"/>
</g>
</g>
</svg>
