<?xml version="1.0" encoding="UTF-8" standalone="no"?>
<!DOCTYPE svg PUBLIC "-//W3C//DTD SVG 1.1//EN"
 "http://www.w3.org/Graphics/SVG/1.1/DTD/svg11.dtd">
<!-- Generated by graphviz version 2.48.0 (0)
 -->
<!-- Title: modbusRLE Pages: 1 -->
<svg width="268pt" height="66pt"
 viewBox="0.00 0.00 268.00 66.00" xmlns="http://www.w3.org/2000/svg" xmlns:xlink="http://www.w3.org/1999/xlink">
<g id="graph0" class="graph" transform="scale(1 1) rotate(0) translate(4 62)">
<title>modbusRLE</title>
<!-- Node1 -->
<g id="node1" class="node">
<title>Node1</title>
<g id="a_node1"><a xlink:title="Safely reads a little&#45;endian 16&#45;bit word from provided pointer.">
<polygon fill="#bfbfbf" stroke="black" points="186,-19.5 186,-38.5 260,-38.5 260,-19.5 186,-19.5"/>
<text text-anchor="middle" x="223" y="-26.5" font-family="Helvetica,sans-Serif" font-size="10.00">modbusRLE</text>
</a>
</g>
</g>
<!-- Node2 -->
<g id="node2" class="node">
<title>Node2</title>
<g id="a_node2"><a xlink:href="slave_8h.html#a9da6d040ddc4a1ba71b03fad7a2fece3" target="_top" xlink:title="Parses provided Modbus RTU request frame.">
<polygon fill="none" stroke="black" points="3.5,-38.5 3.5,-57.5 146.5,-57.5 146.5,-38.5 3.5,-38.5"/>
<text text-anchor="middle" x="75" y="-45.5" font-family="Helvetica,sans-Serif" font-size="10.00">modbusParseRequestRTU</text>
</a>
</g>
</g>
<!-- Node1&#45;&gt;Node2 -->
<g id="edge1" class="edge">
<title>Node1&#45;&gt;Node2</title>
<path fill="none" stroke="midnightblue" d="M175.78,-35.01C166.53,-36.22 156.61,-37.51 146.74,-38.79"/>
<polygon fill="midnightblue" stroke="midnightblue" points="176.45,-38.46 185.91,-33.7 175.54,-31.52 176.45,-38.46"/>
</g>
<!-- Node3 -->
<g id="node3" class="node">
<title>Node3</title>
<g id="a_node3"><a xlink:href="master_8h.html#acbcaff5b6c002edcb471b504e447727b" target="_top" xlink:title="Parses a Modbus RTU slave response.">
<polygon fill="none" stroke="black" points="0,-0.5 0,-19.5 150,-19.5 150,-0.5 0,-0.5"/>
<text text-anchor="middle" x="75" y="-7.5" font-family="Helvetica,sans-Serif" font-size="10.00">modbusParseResponseRTU</text>
</a>
</g>
</g>
<!-- Node1&#45;&gt;Node3 -->
<g id="edge2" class="edge">
<title>Node1&#45;&gt;Node3</title>
<path fill="none" stroke="midnightblue" d="M175.81,-22.99C167.27,-21.88 158.16,-20.69 149.05,-19.51"/>
<polygon fill="midnightblue" stroke="midnightblue" points="175.54,-26.48 185.91,-24.3 176.45,-19.54 175.54,-26.48"/>
</g>
</g>
</svg>
