<?xml version="1.0" encoding="UTF-8" standalone="no"?>
<!DOCTYPE svg PUBLIC "-//W3C//DTD SVG 1.1//EN"
 "http://www.w3.org/Graphics/SVG/1.1/DTD/svg11.dtd">
<!-- Generated by graphviz version 2.44.0 ()
 -->
<!-- Title: modbusRLE Pages: 1 -->
<svg width="254pt" height="66pt"
 viewBox="0.00 0.00 254.00 66.00" xmlns="http://www.w3.org/2000/svg" xmlns:xlink="http://www.w3.org/1999/xlink">
<g id="graph0" class="graph" transform="scale(1 1) rotate(0) translate(4 62)">
<title>modbusRLE</title>
<!-- Node1 -->
<g id="node1" class="node">
<title>Node1</title>
<g id="a_node1"><a xlink:title="Safely reads a little&#45;endian 16&#45;bit word from provided pointer.">
<polygon fill="#bfbfbf" stroke="black" points="176,-19.5 176,-38.5 246,-38.5 246,-19.5 176,-19.5"/>
<text text-anchor="middle" x="211" y="-26.5" font-family="Helvetica,sans-Serif" font-size="10.00">modbusRLE</text>
</a>
</g>
</g>
<!-- Node2 -->
<g id="node2" class="node">
<title>Node2</title>
<g id="a_node2"><a xlink:href="slave_8h.html#a9da6d040ddc4a1ba71b03fad7a2fece3" target="_top" xlink:title="Parses provided Modbus RTU request frame and generates a Modbus RTU response.">
<polygon fill="none" stroke="black" points="3.5,-38.5 3.5,-57.5 136.5,-57.5 136.5,-38.5 3.5,-38.5"/>
<text text-anchor="middle" x="70" y="-45.5" font-family="Helvetica,sans-Serif" font-size="10.00">modbusParseRequestRTU</text>
</a>
</g>
</g>
<!-- Node1&#45;&gt;Node2 -->
<g id="edge1" class="edge">
<title>Node1&#45;&gt;Node2</title>
<path fill="none" stroke="midnightblue" d="M165.86,-35.03C156.57,-36.3 146.59,-37.67 136.71,-39.02"/>
<polygon fill="midnightblue" stroke="midnightblue" points="166.56,-38.47 176,-33.65 165.61,-31.53 166.56,-38.47"/>
</g>
<!-- Node3 -->
<g id="node3" class="node">
<title>Node3</title>
<g id="a_node3"><a xlink:href="master_8h.html#a151b85c221ae43804856eb92737498e5" target="_top" xlink:title="Parses a Modbus RTU slave response.">
<polygon fill="none" stroke="black" points="0,-0.5 0,-19.5 140,-19.5 140,-0.5 0,-0.5"/>
<text text-anchor="middle" x="70" y="-7.5" font-family="Helvetica,sans-Serif" font-size="10.00">modbusParseResponseRTU</text>
</a>
</g>
</g>
<!-- Node1&#45;&gt;Node3 -->
<g id="edge2" class="edge">
<title>Node1&#45;&gt;Node3</title>
<path fill="none" stroke="midnightblue" d="M165.88,-22.97C157.63,-21.84 148.82,-20.64 140.02,-19.43"/>
<polygon fill="midnightblue" stroke="midnightblue" points="165.61,-26.47 176,-24.35 166.56,-19.53 165.61,-26.47"/>
</g>
</g>
</svg>
