<?xml version="1.0" encoding="UTF-8" standalone="no"?>
<!DOCTYPE svg PUBLIC "-//W3C//DTD SVG 1.1//EN"
 "http://www.w3.org/Graphics/SVG/1.1/DTD/svg11.dtd">
<!-- Generated by graphviz version 2.48.0 (0)
 -->
<!-- Title: modbusDefaultAllocator Pages: 1 -->
<svg width="348pt" height="66pt"
 viewBox="0.00 0.00 348.00 66.00" xmlns="http://www.w3.org/2000/svg" xmlns:xlink="http://www.w3.org/1999/xlink">
<g id="graph0" class="graph" transform="scale(1 1) rotate(0) translate(4 62)">
<title>modbusDefaultAllocator</title>
<!-- Node1 -->
<g id="node1" class="node">
<title>Node1</title>
<g id="a_node1"><a xlink:title="The default memory allocator based on realloc()">
<polygon fill="#bfbfbf" stroke="black" points="205,-19.5 205,-38.5 340,-38.5 340,-19.5 205,-19.5"/>
<text text-anchor="middle" x="272.5" y="-26.5" font-family="Helvetica,sans-Serif" font-size="10.00">modbusDefaultAllocator</text>
</a>
</g>
</g>
<!-- Node2 -->
<g id="node2" class="node">
<title>Node2</title>
<g id="a_node2"><a xlink:href="master_8h.html#a51f83ba08c18745dd424b9dcf7579703" target="_top" xlink:title="Default allocator for master device. Based on modbusDefaultAllocator().">
<polygon fill="none" stroke="black" points="0,-38.5 0,-57.5 169,-57.5 169,-38.5 0,-38.5"/>
<text text-anchor="middle" x="84.5" y="-45.5" font-family="Helvetica,sans-Serif" font-size="10.00">modbusMasterDefaultAllocator</text>
</a>
</g>
</g>
<!-- Node1&#45;&gt;Node2 -->
<g id="edge1" class="edge">
<title>Node1&#45;&gt;Node2</title>
<path fill="none" stroke="midnightblue" d="M194.71,-36.84C186.29,-37.7 177.68,-38.58 169.18,-39.45"/>
<polygon fill="midnightblue" stroke="midnightblue" points="195.28,-40.3 204.88,-35.81 194.57,-33.34 195.28,-40.3"/>
</g>
<!-- Node3 -->
<g id="node3" class="node">
<title>Node3</title>
<g id="a_node3"><a xlink:href="slave_8h.html#afea4c9a9b7c29a34aa1674429bf7a5df" target="_top" xlink:title="Default allocator for the slave based on modbusDefaultAllocator().">
<polygon fill="none" stroke="black" points="3.5,-0.5 3.5,-19.5 165.5,-19.5 165.5,-0.5 3.5,-0.5"/>
<text text-anchor="middle" x="84.5" y="-7.5" font-family="Helvetica,sans-Serif" font-size="10.00">modbusSlaveDefaultAllocator</text>
</a>
</g>
</g>
<!-- Node1&#45;&gt;Node3 -->
<g id="edge2" class="edge">
<title>Node1&#45;&gt;Node3</title>
<path fill="none" stroke="midnightblue" d="M194.91,-21.18C185.25,-20.19 175.35,-19.18 165.64,-18.19"/>
<polygon fill="midnightblue" stroke="midnightblue" points="194.57,-24.66 204.88,-22.19 195.28,-17.7 194.57,-24.66"/>
</g>
</g>
</svg>
