<?xml version="1.0" encoding="UTF-8" standalone="no"?>
<!DOCTYPE svg PUBLIC "-//W3C//DTD SVG 1.1//EN"
 "http://www.w3.org/Graphics/SVG/1.1/DTD/svg11.dtd">
<!-- Generated by graphviz version 2.48.0 (0)
 -->
<!-- Title: include/lightmodbus/base.h Pages: 1 -->
<svg width="859pt" height="307pt"
 viewBox="0.00 0.00 859.06 307.00" xmlns="http://www.w3.org/2000/svg" xmlns:xlink="http://www.w3.org/1999/xlink">
<g id="graph0" class="graph" transform="scale(1 1) rotate(0) translate(4 303)">
<title>include/lightmodbus/base.h</title>
<!-- Node1 -->
<g id="node1" class="node">
<title>Node1</title>
<g id="a_node1"><a xlink:title=" ">
<polygon fill="#bfbfbf" stroke="black" points="327,-268.5 327,-298.5 443,-298.5 443,-268.5 327,-268.5"/>
<text text-anchor="start" x="335" y="-286.5" font-family="Helvetica,sans-Serif" font-size="10.00">include/lightmodbus</text>
<text text-anchor="middle" x="385" y="-275.5" font-family="Helvetica,sans-Serif" font-size="10.00">/base.h</text>
</a>
</g>
</g>
<!-- Node2 -->
<g id="node2" class="node">
<title>Node2</title>
<g id="a_node2"><a xlink:href="base_8impl_8h.html" target="_top" xlink:title=" ">
<polygon fill="none" stroke="black" points="0,-201.5 0,-231.5 116,-231.5 116,-201.5 0,-201.5"/>
<text text-anchor="start" x="8" y="-219.5" font-family="Helvetica,sans-Serif" font-size="10.00">include/lightmodbus</text>
<text text-anchor="middle" x="58" y="-208.5" font-family="Helvetica,sans-Serif" font-size="10.00">/base.impl.h</text>
</a>
</g>
</g>
<!-- Node1&#45;&gt;Node2 -->
<g id="edge1" class="edge">
<title>Node1&#45;&gt;Node2</title>
<path fill="none" stroke="midnightblue" d="M316.88,-268.96C257.5,-257.16 172.31,-240.22 116.09,-229.05"/>
<polygon fill="midnightblue" stroke="midnightblue" points="316.43,-272.44 326.92,-270.95 317.79,-265.57 316.43,-272.44"/>
</g>
<!-- Node4 -->
<g id="node4" class="node">
<title>Node4</title>
<g id="a_node4"><a xlink:href="debug_8h.html" target="_top" xlink:title=" ">
<polygon fill="none" stroke="black" points="69,-134.5 69,-164.5 185,-164.5 185,-134.5 69,-134.5"/>
<text text-anchor="start" x="77" y="-152.5" font-family="Helvetica,sans-Serif" font-size="10.00">include/lightmodbus</text>
<text text-anchor="middle" x="127" y="-141.5" font-family="Helvetica,sans-Serif" font-size="10.00">/debug.h</text>
</a>
</g>
</g>
<!-- Node1&#45;&gt;Node4 -->
<g id="edge3" class="edge">
<title>Node1&#45;&gt;Node4</title>
<path fill="none" stroke="midnightblue" d="M343.29,-264.22C322.59,-254.92 297.29,-243.24 275,-232 230.73,-209.69 180.41,-181.32 151.32,-164.61"/>
<polygon fill="midnightblue" stroke="midnightblue" points="341.9,-267.43 352.46,-268.31 344.75,-261.03 341.9,-267.43"/>
</g>
<!-- Node6 -->
<g id="node6" class="node">
<title>Node6</title>
<g id="a_node6"><a xlink:href="master_8h.html" target="_top" xlink:title=" ">
<polygon fill="none" stroke="black" points="284,-201.5 284,-231.5 400,-231.5 400,-201.5 284,-201.5"/>
<text text-anchor="start" x="292" y="-219.5" font-family="Helvetica,sans-Serif" font-size="10.00">include/lightmodbus</text>
<text text-anchor="middle" x="342" y="-208.5" font-family="Helvetica,sans-Serif" font-size="10.00">/master.h</text>
</a>
</g>
</g>
<!-- Node1&#45;&gt;Node6 -->
<g id="edge7" class="edge">
<title>Node1&#45;&gt;Node6</title>
<path fill="none" stroke="midnightblue" d="M370.03,-259.87C363.8,-250.46 356.77,-239.83 351.31,-231.58"/>
<polygon fill="midnightblue" stroke="midnightblue" points="367.23,-261.99 375.67,-268.4 373.07,-258.12 367.23,-261.99"/>
</g>
<!-- Node8 -->
<g id="node8" class="node">
<title>Node8</title>
<g id="a_node8"><a xlink:href="master__func_8h.html" target="_top" xlink:title=" ">
<polygon fill="none" stroke="black" points="370,-134.5 370,-164.5 486,-164.5 486,-134.5 370,-134.5"/>
<text text-anchor="start" x="378" y="-152.5" font-family="Helvetica,sans-Serif" font-size="10.00">include/lightmodbus</text>
<text text-anchor="middle" x="428" y="-141.5" font-family="Helvetica,sans-Serif" font-size="10.00">/master_func.h</text>
</a>
</g>
</g>
<!-- Node1&#45;&gt;Node8 -->
<g id="edge17" class="edge">
<title>Node1&#45;&gt;Node8</title>
<path fill="none" stroke="midnightblue" d="M397.41,-259.1C401.5,-250.72 405.82,-241.09 409,-232 417.06,-208.96 422.72,-181.06 425.66,-164.6"/>
<polygon fill="midnightblue" stroke="midnightblue" points="394.16,-257.76 392.78,-268.26 400.41,-260.91 394.16,-257.76"/>
</g>
<!-- Node10 -->
<g id="node10" class="node">
<title>Node10</title>
<g id="a_node10"><a xlink:href="slave_8h.html" target="_top" xlink:title=" ">
<polygon fill="none" stroke="black" points="504,-134.5 504,-164.5 620,-164.5 620,-134.5 504,-134.5"/>
<text text-anchor="start" x="512" y="-152.5" font-family="Helvetica,sans-Serif" font-size="10.00">include/lightmodbus</text>
<text text-anchor="middle" x="562" y="-141.5" font-family="Helvetica,sans-Serif" font-size="10.00">/slave.h</text>
</a>
</g>
</g>
<!-- Node1&#45;&gt;Node10 -->
<g id="edge18" class="edge">
<title>Node1&#45;&gt;Node10</title>
<path fill="none" stroke="midnightblue" d="M412.11,-262.28C448.38,-235.24 511.75,-187.98 543.19,-164.52"/>
<polygon fill="midnightblue" stroke="midnightblue" points="409.87,-259.59 403.94,-268.37 414.05,-265.2 409.87,-259.59"/>
</g>
<!-- Node13 -->
<g id="node13" class="node">
<title>Node13</title>
<g id="a_node13"><a xlink:href="slave__func_8h.html" target="_top" xlink:title=" ">
<polygon fill="none" stroke="black" points="678,-134.5 678,-164.5 794,-164.5 794,-134.5 678,-134.5"/>
<text text-anchor="start" x="686" y="-152.5" font-family="Helvetica,sans-Serif" font-size="10.00">include/lightmodbus</text>
<text text-anchor="middle" x="736" y="-141.5" font-family="Helvetica,sans-Serif" font-size="10.00">/slave_func.h</text>
</a>
</g>
</g>
<!-- Node1&#45;&gt;Node13 -->
<g id="edge24" class="edge">
<title>Node1&#45;&gt;Node13</title>
<path fill="none" stroke="midnightblue" d="M431.75,-264.92C502.19,-238.43 634.15,-188.8 698.62,-164.56"/>
<polygon fill="midnightblue" stroke="midnightblue" points="430.36,-261.7 422.23,-268.5 432.82,-268.25 430.36,-261.7"/>
</g>
<!-- Node3 -->
<g id="node3" class="node">
<title>Node3</title>
<g id="a_node3"><a xlink:href="lightmodbus_8h.html" target="_top" xlink:title=" ">
<polygon fill="none" stroke="black" points="375,-0.5 375,-30.5 491,-30.5 491,-0.5 375,-0.5"/>
<text text-anchor="start" x="383" y="-18.5" font-family="Helvetica,sans-Serif" font-size="10.00">include/lightmodbus</text>
<text text-anchor="middle" x="433" y="-7.5" font-family="Helvetica,sans-Serif" font-size="10.00">/lightmodbus.h</text>
</a>
</g>
</g>
<!-- Node2&#45;&gt;Node3 -->
<g id="edge2" class="edge">
<title>Node2&#45;&gt;Node3</title>
<path fill="none" stroke="midnightblue" d="M41.43,-192.6C20.47,-160.6 -9.36,-102.44 22,-67 44.98,-41.02 266.91,-25.51 374.75,-19.45"/>
<polygon fill="midnightblue" stroke="midnightblue" points="38.8,-194.96 47.32,-201.27 44.6,-191.03 38.8,-194.96"/>
</g>
<!-- Node4&#45;&gt;Node3 -->
<g id="edge6" class="edge">
<title>Node4&#45;&gt;Node3</title>
<path fill="none" stroke="midnightblue" d="M141.14,-125.66C153.94,-106.97 174.5,-81.35 199,-67 253.15,-35.28 324.83,-23.41 374.52,-19.01"/>
<polygon fill="midnightblue" stroke="midnightblue" points="138.09,-123.93 135.5,-134.2 143.93,-127.79 138.09,-123.93"/>
</g>
<!-- Node5 -->
<g id="node5" class="node">
<title>Node5</title>
<g id="a_node5"><a xlink:href="debug_8impl_8h.html" target="_top" xlink:title=" ">
<polygon fill="none" stroke="black" points="31,-67.5 31,-97.5 147,-97.5 147,-67.5 31,-67.5"/>
<text text-anchor="start" x="39" y="-85.5" font-family="Helvetica,sans-Serif" font-size="10.00">include/lightmodbus</text>
<text text-anchor="middle" x="89" y="-74.5" font-family="Helvetica,sans-Serif" font-size="10.00">/debug.impl.h</text>
</a>
</g>
</g>
<!-- Node4&#45;&gt;Node5 -->
<g id="edge4" class="edge">
<title>Node4&#45;&gt;Node5</title>
<path fill="none" stroke="midnightblue" d="M113.6,-125.58C108.14,-116.24 102.01,-105.75 97.23,-97.58"/>
<polygon fill="midnightblue" stroke="midnightblue" points="110.69,-127.53 118.75,-134.4 116.73,-124 110.69,-127.53"/>
</g>
<!-- Node5&#45;&gt;Node3 -->
<g id="edge5" class="edge">
<title>Node5&#45;&gt;Node3</title>
<path fill="none" stroke="midnightblue" d="M157.16,-67.75C158.45,-67.49 159.73,-67.25 161,-67 234.68,-52.74 319.75,-37.08 374.85,-27.03"/>
<polygon fill="midnightblue" stroke="midnightblue" points="156.28,-64.35 147.14,-69.71 157.63,-71.22 156.28,-64.35"/>
</g>
<!-- Node6&#45;&gt;Node3 -->
<g id="edge8" class="edge">
<title>Node6&#45;&gt;Node3</title>
<path fill="none" stroke="midnightblue" d="M309.01,-195.87C265.01,-167.23 196.56,-112.45 232,-67 249.48,-44.59 321.95,-30.6 374.87,-23.18"/>
<polygon fill="midnightblue" stroke="midnightblue" points="307.39,-198.99 317.71,-201.4 311.15,-193.08 307.39,-198.99"/>
</g>
<!-- Node7 -->
<g id="node7" class="node">
<title>Node7</title>
<g id="a_node7"><a xlink:href="master_8impl_8h.html" target="_top" xlink:title=" ">
<polygon fill="none" stroke="black" points="375,-67.5 375,-97.5 491,-97.5 491,-67.5 375,-67.5"/>
<text text-anchor="start" x="383" y="-85.5" font-family="Helvetica,sans-Serif" font-size="10.00">include/lightmodbus</text>
<text text-anchor="middle" x="433" y="-74.5" font-family="Helvetica,sans-Serif" font-size="10.00">/master.impl.h</text>
</a>
</g>
</g>
<!-- Node6&#45;&gt;Node7 -->
<g id="edge9" class="edge">
<title>Node6&#45;&gt;Node7</title>
<path fill="none" stroke="midnightblue" d="M343.14,-190.95C344.98,-173.74 349.59,-150.89 361,-134 371.51,-118.44 388.54,-106.17 403.4,-97.63"/>
<polygon fill="midnightblue" stroke="midnightblue" points="339.62,-191.07 342.29,-201.32 346.6,-191.64 339.62,-191.07"/>
</g>
<!-- Node6&#45;&gt;Node8 -->
<g id="edge11" class="edge">
<title>Node6&#45;&gt;Node8</title>
<path fill="none" stroke="midnightblue" d="M368.9,-195.17C382.05,-185.23 397.55,-173.51 409.38,-164.58"/>
<polygon fill="midnightblue" stroke="midnightblue" points="366.53,-192.57 360.66,-201.4 370.75,-198.16 366.53,-192.57"/>
</g>
<!-- Node9 -->
<g id="node9" class="node">
<title>Node9</title>
<g id="a_node9"><a xlink:href="master__func_8impl_8h.html" target="_top" xlink:title=" ">
<polygon fill="none" stroke="black" points="241,-67.5 241,-97.5 357,-97.5 357,-67.5 241,-67.5"/>
<text text-anchor="start" x="249" y="-85.5" font-family="Helvetica,sans-Serif" font-size="10.00">include/lightmodbus</text>
<text text-anchor="middle" x="299" y="-74.5" font-family="Helvetica,sans-Serif" font-size="10.00">/master_func.impl.h</text>
</a>
</g>
</g>
<!-- Node6&#45;&gt;Node9 -->
<g id="edge16" class="edge">
<title>Node6&#45;&gt;Node9</title>
<path fill="none" stroke="midnightblue" d="M334.26,-191.75C325.32,-164.29 310.89,-119.99 303.57,-97.52"/>
<polygon fill="midnightblue" stroke="midnightblue" points="330.97,-192.95 337.4,-201.37 337.63,-190.78 330.97,-192.95"/>
</g>
<!-- Node7&#45;&gt;Node3 -->
<g id="edge10" class="edge">
<title>Node7&#45;&gt;Node3</title>
<path fill="none" stroke="midnightblue" d="M433,-57.11C433,-48.15 433,-38.32 433,-30.58"/>
<polygon fill="midnightblue" stroke="midnightblue" points="429.5,-57.4 433,-67.4 436.5,-57.4 429.5,-57.4"/>
</g>
<!-- Node8&#45;&gt;Node3 -->
<g id="edge12" class="edge">
<title>Node8&#45;&gt;Node3</title>
<path fill="none" stroke="midnightblue" d="M469.39,-129.16C481.48,-121.3 493.25,-110.97 500,-98 506.36,-85.78 506.15,-79.33 500,-67 492.14,-51.23 476.74,-39.08 462.69,-30.66"/>
<polygon fill="midnightblue" stroke="midnightblue" points="467.36,-126.29 460.59,-134.44 470.96,-132.29 467.36,-126.29"/>
</g>
<!-- Node8&#45;&gt;Node7 -->
<g id="edge13" class="edge">
<title>Node8&#45;&gt;Node7</title>
<path fill="none" stroke="midnightblue" d="M429.85,-124.4C430.55,-115.37 431.31,-105.41 431.92,-97.58"/>
<polygon fill="midnightblue" stroke="midnightblue" points="426.36,-124.16 429.08,-134.4 433.34,-124.69 426.36,-124.16"/>
</g>
<!-- Node8&#45;&gt;Node9 -->
<g id="edge14" class="edge">
<title>Node8&#45;&gt;Node9</title>
<path fill="none" stroke="midnightblue" d="M390.99,-129.85C370.6,-119.58 345.69,-107.03 326.94,-97.58"/>
<polygon fill="midnightblue" stroke="midnightblue" points="389.5,-133.02 400.01,-134.4 392.65,-126.77 389.5,-133.02"/>
</g>
<!-- Node9&#45;&gt;Node3 -->
<g id="edge15" class="edge">
<title>Node9&#45;&gt;Node3</title>
<path fill="none" stroke="midnightblue" d="M337.15,-62.99C358.39,-52.69 384.41,-40.07 403.98,-30.58"/>
<polygon fill="midnightblue" stroke="midnightblue" points="335.55,-59.88 328.08,-67.4 338.6,-66.18 335.55,-59.88"/>
</g>
<!-- Node10&#45;&gt;Node3 -->
<g id="edge19" class="edge">
<title>Node10&#45;&gt;Node3</title>
<path fill="none" stroke="midnightblue" d="M552.6,-124.93C544.75,-107.43 532.25,-83.79 516,-67 501.22,-51.73 480.88,-39.26 464.04,-30.53"/>
<polygon fill="midnightblue" stroke="midnightblue" points="549.51,-126.61 556.67,-134.42 555.94,-123.85 549.51,-126.61"/>
</g>
<!-- Node11 -->
<g id="node11" class="node">
<title>Node11</title>
<g id="a_node11"><a xlink:href="slave_8impl_8h.html" target="_top" xlink:title=" ">
<polygon fill="none" stroke="black" points="719,-67.5 719,-97.5 835,-97.5 835,-67.5 719,-67.5"/>
<text text-anchor="start" x="727" y="-85.5" font-family="Helvetica,sans-Serif" font-size="10.00">include/lightmodbus</text>
<text text-anchor="middle" x="777" y="-74.5" font-family="Helvetica,sans-Serif" font-size="10.00">/slave.impl.h</text>
</a>
</g>
</g>
<!-- Node10&#45;&gt;Node11 -->
<g id="edge20" class="edge">
<title>Node10&#45;&gt;Node11</title>
<path fill="none" stroke="midnightblue" d="M617.97,-131.58C652.89,-121.02 697.31,-107.59 730.33,-97.61"/>
<polygon fill="midnightblue" stroke="midnightblue" points="616.95,-128.23 608.39,-134.48 618.97,-134.93 616.95,-128.23"/>
</g>
<!-- Node12 -->
<g id="node12" class="node">
<title>Node12</title>
<g id="a_node12"><a xlink:href="slave__func_8impl_8h.html" target="_top" xlink:title=" ">
<polygon fill="none" stroke="black" points="585,-67.5 585,-97.5 701,-97.5 701,-67.5 585,-67.5"/>
<text text-anchor="start" x="593" y="-85.5" font-family="Helvetica,sans-Serif" font-size="10.00">include/lightmodbus</text>
<text text-anchor="middle" x="643" y="-74.5" font-family="Helvetica,sans-Serif" font-size="10.00">/slave_func.impl.h</text>
</a>
</g>
</g>
<!-- Node10&#45;&gt;Node12 -->
<g id="edge22" class="edge">
<title>Node10&#45;&gt;Node12</title>
<path fill="none" stroke="midnightblue" d="M587.69,-127.88C600,-118.01 614.43,-106.43 625.46,-97.58"/>
<polygon fill="midnightblue" stroke="midnightblue" points="585.18,-125.41 579.58,-134.4 589.57,-130.87 585.18,-125.41"/>
</g>
<!-- Node11&#45;&gt;Node3 -->
<g id="edge21" class="edge">
<title>Node11&#45;&gt;Node3</title>
<path fill="none" stroke="midnightblue" d="M709.03,-66.84C627.84,-50.76 545.13,-35.97 491.2,-26.54"/>
<polygon fill="midnightblue" stroke="midnightblue" points="708.43,-70.29 718.92,-68.81 709.79,-63.43 708.43,-70.29"/>
</g>
<!-- Node12&#45;&gt;Node3 -->
<g id="edge23" class="edge">
<title>Node12&#45;&gt;Node3</title>
<path fill="none" stroke="midnightblue" d="M587.9,-64.44C553.86,-53.91 510.7,-40.55 478.59,-30.61"/>
<polygon fill="midnightblue" stroke="midnightblue" points="587.1,-67.86 597.69,-67.48 589.17,-61.18 587.1,-67.86"/>
</g>
<!-- Node13&#45;&gt;Node3 -->
<g id="edge25" class="edge">
<title>Node13&#45;&gt;Node3</title>
<path fill="none" stroke="midnightblue" d="M790.48,-130.83C827.85,-115.91 866.89,-92.87 844,-67 821.02,-41.02 599.09,-25.51 491.25,-19.45"/>
<polygon fill="midnightblue" stroke="midnightblue" points="789.13,-127.6 781.05,-134.45 791.64,-134.14 789.13,-127.6"/>
</g>
<!-- Node13&#45;&gt;Node11 -->
<g id="edge26" class="edge">
<title>Node13&#45;&gt;Node11</title>
<path fill="none" stroke="midnightblue" d="M750.28,-125.87C756.21,-116.46 762.91,-105.83 768.12,-97.58"/>
<polygon fill="midnightblue" stroke="midnightblue" points="747.27,-124.07 744.9,-134.4 753.19,-127.81 747.27,-124.07"/>
</g>
<!-- Node13&#45;&gt;Node12 -->
<g id="edge27" class="edge">
<title>Node13&#45;&gt;Node12</title>
<path fill="none" stroke="midnightblue" d="M707.31,-128.45C693.01,-118.45 676.05,-106.6 663.14,-97.58"/>
<polygon fill="midnightblue" stroke="midnightblue" points="705.62,-131.54 715.82,-134.4 709.63,-125.8 705.62,-131.54"/>
</g>
</g>
</svg>
