<?xml version="1.0" encoding="UTF-8" standalone="no"?>
<!DOCTYPE svg PUBLIC "-//W3C//DTD SVG 1.1//EN"
 "http://www.w3.org/Graphics/SVG/1.1/DTD/svg11.dtd">
<!-- Generated by graphviz version 2.48.0 (0)
 -->
<!-- Title: modbusBitsToBytes Pages: 1 -->
<svg width="335pt" height="142pt"
 viewBox="0.00 0.00 335.00 142.00" xmlns="http://www.w3.org/2000/svg" xmlns:xlink="http://www.w3.org/1999/xlink">
<g id="graph0" class="graph" transform="scale(1 1) rotate(0) translate(4 138)">
<title>modbusBitsToBytes</title>
<!-- Node1 -->
<g id="node1" class="node">
<title>Node1</title>
<g id="a_node1"><a xlink:title="Returns number of bytes necessary to hold given number of bits.">
<polygon fill="#bfbfbf" stroke="black" points="214,-57.5 214,-76.5 327,-76.5 327,-57.5 214,-57.5"/>
<text text-anchor="middle" x="270.5" y="-64.5" font-family="Helvetica,sans-Serif" font-size="10.00">modbusBitsToBytes</text>
</a>
</g>
</g>
<!-- Node2 -->
<g id="node2" class="node">
<title>Node2</title>
<g id="a_node2"><a xlink:href="master__func_8h.html#a0870a4601ed4e853673660ce94e6361c" target="_top" xlink:title="Write multiple coils.">
<polygon fill="none" stroke="black" points="23,-114.5 23,-133.5 155,-133.5 155,-114.5 23,-114.5"/>
<text text-anchor="middle" x="89" y="-121.5" font-family="Helvetica,sans-Serif" font-size="10.00">modbusBuildRequest15</text>
</a>
</g>
</g>
<!-- Node1&#45;&gt;Node2 -->
<g id="edge1" class="edge">
<title>Node1&#45;&gt;Node2</title>
<path fill="none" stroke="midnightblue" d="M240.31,-80.72C222.58,-88.64 199.33,-98.33 178,-105 166.36,-108.64 153.65,-111.82 141.59,-114.5"/>
<polygon fill="midnightblue" stroke="midnightblue" points="241.88,-83.84 249.54,-76.52 238.99,-77.47 241.88,-83.84"/>
</g>
<!-- Node3 -->
<g id="node3" class="node">
<title>Node3</title>
<g id="a_node3"><a xlink:href="slave__func_8h.html#a070ffd089a641ac5c769dc81bd65a982" target="_top" xlink:title="Handles requests 01, 02, 03 and 04 (Read Multiple XX)">
<polygon fill="none" stroke="black" points="4,-76.5 4,-95.5 174,-95.5 174,-76.5 4,-76.5"/>
<text text-anchor="middle" x="89" y="-83.5" font-family="Helvetica,sans-Serif" font-size="10.00">modbusParseRequest01020304</text>
</a>
</g>
</g>
<!-- Node1&#45;&gt;Node3 -->
<g id="edge2" class="edge">
<title>Node1&#45;&gt;Node3</title>
<path fill="none" stroke="midnightblue" d="M203.49,-73.99C193.92,-75 183.97,-76.05 174.11,-77.1"/>
<polygon fill="midnightblue" stroke="midnightblue" points="204.11,-77.44 213.69,-72.91 203.38,-70.48 204.11,-77.44"/>
</g>
<!-- Node4 -->
<g id="node4" class="node">
<title>Node4</title>
<g id="a_node4"><a xlink:href="slave__func_8h.html#a1b5c01b97863cc32a9b7aebbf1f652c6" target="_top" xlink:title="Handles requests 15 and 16 (Write Multiple XX)">
<polygon fill="none" stroke="black" points="16,-38.5 16,-57.5 162,-57.5 162,-38.5 16,-38.5"/>
<text text-anchor="middle" x="89" y="-45.5" font-family="Helvetica,sans-Serif" font-size="10.00">modbusParseRequest1516</text>
</a>
</g>
</g>
<!-- Node1&#45;&gt;Node4 -->
<g id="edge3" class="edge">
<title>Node1&#45;&gt;Node4</title>
<path fill="none" stroke="midnightblue" d="M203.59,-60.02C190.15,-58.6 175.95,-57.1 162.3,-55.65"/>
<polygon fill="midnightblue" stroke="midnightblue" points="203.38,-63.52 213.69,-61.09 204.11,-56.56 203.38,-63.52"/>
</g>
<!-- Node5 -->
<g id="node5" class="node">
<title>Node5</title>
<g id="a_node5"><a xlink:href="master__func_8h.html#acf15843f080ad8ac8f4d095b5556d19b" target="_top" xlink:title="Parses response to requests 01, 02, 03 and 04.">
<polygon fill="none" stroke="black" points="0,-0.5 0,-19.5 178,-19.5 178,-0.5 0,-0.5"/>
<text text-anchor="middle" x="89" y="-7.5" font-family="Helvetica,sans-Serif" font-size="10.00">modbusParseResponse01020304</text>
</a>
</g>
</g>
<!-- Node1&#45;&gt;Node5 -->
<g id="edge4" class="edge">
<title>Node1&#45;&gt;Node5</title>
<path fill="none" stroke="midnightblue" d="M240.31,-53.28C222.58,-45.36 199.33,-35.67 178,-29 166.36,-25.36 153.65,-22.18 141.59,-19.5"/>
<polygon fill="midnightblue" stroke="midnightblue" points="238.99,-56.53 249.54,-57.48 241.88,-50.16 238.99,-56.53"/>
</g>
</g>
</svg>
