<?xml version="1.0" encoding="UTF-8" standalone="no"?>
<!DOCTYPE svg PUBLIC "-//W3C//DTD SVG 1.1//EN"
 "http://www.w3.org/Graphics/SVG/1.1/DTD/svg11.dtd">
<!-- Generated by graphviz version 2.48.0 (0)
 -->
<!-- Title: include/lightmodbus/lightmodbus.h Pages: 1 -->
<svg width="805pt" height="319pt"
 viewBox="0.00 0.00 804.54 319.00" xmlns="http://www.w3.org/2000/svg" xmlns:xlink="http://www.w3.org/1999/xlink">
<g id="graph0" class="graph" transform="scale(1 1) rotate(0) translate(4 315)">
<title>include/lightmodbus/lightmodbus.h</title>
<!-- Node1 -->
<g id="node1" class="node">
<title>Node1</title>
<g id="a_node1"><a xlink:title=" ">
<polygon fill="#bfbfbf" stroke="black" points="299.54,-280.5 299.54,-310.5 415.54,-310.5 415.54,-280.5 299.54,-280.5"/>
<text text-anchor="start" x="307.54" y="-298.5" font-family="Helvetica,sans-Serif" font-size="10.00">include/lightmodbus</text>
<text text-anchor="middle" x="357.54" y="-287.5" font-family="Helvetica,sans-Serif" font-size="10.00">/lightmodbus.h</text>
</a>
</g>
</g>
<!-- Node2 -->
<g id="node2" class="node">
<title>Node2</title>
<g id="a_node2"><a xlink:href="slave_8h.html" target="_top" xlink:title=" ">
<polygon fill="none" stroke="black" points="194.54,-112.5 194.54,-131.5 246.54,-131.5 246.54,-112.5 194.54,-112.5"/>
<text text-anchor="middle" x="220.54" y="-119.5" font-family="Helvetica,sans-Serif" font-size="10.00">slave.h</text>
</a>
</g>
</g>
<!-- Node1&#45;&gt;Node2 -->
<g id="edge1" class="edge">
<title>Node1&#45;&gt;Node2</title>
<path fill="none" stroke="midnightblue" d="M299.5,-294.79C210.83,-293.85 48.07,-286.25 11.54,-244 -42.56,-181.43 110.87,-143.43 184.08,-129.3"/>
<polygon fill="midnightblue" stroke="midnightblue" points="185.08,-132.67 194.26,-127.39 183.79,-125.79 185.08,-132.67"/>
</g>
<!-- Node6 -->
<g id="node6" class="node">
<title>Node6</title>
<g id="a_node6"><a xlink:href="slave__func_8h.html" target="_top" xlink:title=" ">
<polygon fill="none" stroke="black" points="104.54,-168.5 104.54,-187.5 182.54,-187.5 182.54,-168.5 104.54,-168.5"/>
<text text-anchor="middle" x="143.54" y="-175.5" font-family="Helvetica,sans-Serif" font-size="10.00">slave_func.h</text>
</a>
</g>
</g>
<!-- Node1&#45;&gt;Node6 -->
<g id="edge6" class="edge">
<title>Node1&#45;&gt;Node6</title>
<path fill="none" stroke="midnightblue" d="M299.32,-288.52C243.43,-281.45 164.76,-267.57 145.54,-244 135.19,-231.29 135.93,-212.09 138.52,-197.85"/>
<polygon fill="midnightblue" stroke="midnightblue" points="142.02,-198.24 140.81,-187.71 135.19,-196.69 142.02,-198.24"/>
</g>
<!-- Node7 -->
<g id="node7" class="node">
<title>Node7</title>
<g id="a_node7"><a xlink:href="master_8h.html" target="_top" xlink:title=" ">
<polygon fill="none" stroke="black" points="323.54,-112.5 323.54,-131.5 383.54,-131.5 383.54,-112.5 323.54,-112.5"/>
<text text-anchor="middle" x="353.54" y="-119.5" font-family="Helvetica,sans-Serif" font-size="10.00">master.h</text>
</a>
</g>
</g>
<!-- Node1&#45;&gt;Node7 -->
<g id="edge8" class="edge">
<title>Node1&#45;&gt;Node7</title>
<path fill="none" stroke="midnightblue" d="M336.25,-280.38C324.82,-271.46 311.82,-258.84 305.54,-244 289.79,-206.74 319.54,-162.42 338.86,-139.14"/>
<polygon fill="midnightblue" stroke="midnightblue" points="341.51,-141.42 345.4,-131.56 336.21,-136.84 341.51,-141.42"/>
</g>
<!-- Node8 -->
<g id="node8" class="node">
<title>Node8</title>
<g id="a_node8"><a xlink:href="master__func_8h.html" target="_top" xlink:title=" ">
<polygon fill="none" stroke="black" points="381.54,-168.5 381.54,-187.5 467.54,-187.5 467.54,-168.5 381.54,-168.5"/>
<text text-anchor="middle" x="424.54" y="-175.5" font-family="Helvetica,sans-Serif" font-size="10.00">master_func.h</text>
</a>
</g>
</g>
<!-- Node1&#45;&gt;Node8 -->
<g id="edge12" class="edge">
<title>Node1&#45;&gt;Node8</title>
<path fill="none" stroke="midnightblue" d="M376.39,-280.29C387.33,-271.09 400.49,-258.2 408.54,-244 416.69,-229.63 420.73,-211.17 422.7,-197.6"/>
<polygon fill="midnightblue" stroke="midnightblue" points="426.19,-197.89 423.92,-187.54 419.24,-197.05 426.19,-197.89"/>
</g>
<!-- Node9 -->
<g id="node9" class="node">
<title>Node9</title>
<g id="a_node9"><a xlink:href="debug_8h.html" target="_top" xlink:title=" ">
<polygon fill="none" stroke="black" points="568.54,-168.5 568.54,-187.5 624.54,-187.5 624.54,-168.5 568.54,-168.5"/>
<text text-anchor="middle" x="596.54" y="-175.5" font-family="Helvetica,sans-Serif" font-size="10.00">debug.h</text>
</a>
</g>
</g>
<!-- Node1&#45;&gt;Node9 -->
<g id="edge15" class="edge">
<title>Node1&#45;&gt;Node9</title>
<path fill="none" stroke="midnightblue" d="M415.61,-287.71C472.36,-279.94 553.48,-265.46 576.54,-244 589.23,-232.2 593.94,-212.56 595.65,-197.96"/>
<polygon fill="midnightblue" stroke="midnightblue" points="599.18,-197.81 596.48,-187.57 592.2,-197.26 599.18,-197.81"/>
</g>
<!-- Node10 -->
<g id="node10" class="node">
<title>Node10</title>
<g id="a_node10"><a xlink:href="base_8impl_8h.html" target="_top" xlink:title=" ">
<polygon fill="none" stroke="black" points="722.54,-224.5 722.54,-243.5 796.54,-243.5 796.54,-224.5 722.54,-224.5"/>
<text text-anchor="middle" x="759.54" y="-231.5" font-family="Helvetica,sans-Serif" font-size="10.00">base.impl.h</text>
</a>
</g>
</g>
<!-- Node1&#45;&gt;Node10 -->
<g id="edge17" class="edge">
<title>Node1&#45;&gt;Node10</title>
<path fill="none" stroke="midnightblue" d="M415.65,-287.21C484.18,-278.39 601.76,-262.61 712.42,-244.12"/>
<polygon fill="midnightblue" stroke="midnightblue" points="713.13,-247.55 722.42,-242.44 711.97,-240.64 713.13,-247.55"/>
</g>
<!-- Node12 -->
<g id="node12" class="node">
<title>Node12</title>
<g id="a_node12"><a xlink:href="slave_8impl_8h.html" target="_top" xlink:title=" ">
<polygon fill="none" stroke="black" points="21.04,-224.5 21.04,-243.5 98.04,-243.5 98.04,-224.5 21.04,-224.5"/>
<text text-anchor="middle" x="59.54" y="-231.5" font-family="Helvetica,sans-Serif" font-size="10.00">slave.impl.h</text>
</a>
</g>
</g>
<!-- Node1&#45;&gt;Node12 -->
<g id="edge20" class="edge">
<title>Node1&#45;&gt;Node12</title>
<path fill="none" stroke="midnightblue" d="M299.38,-282.89C243.64,-271.76 160.48,-255.15 108.17,-244.71"/>
<polygon fill="midnightblue" stroke="midnightblue" points="108.63,-241.23 98.14,-242.71 107.26,-248.1 108.63,-241.23"/>
</g>
<!-- Node13 -->
<g id="node13" class="node">
<title>Node13</title>
<g id="a_node13"><a xlink:href="slave__func_8impl_8h.html" target="_top" xlink:title=" ">
<polygon fill="none" stroke="black" points="155.04,-224.5 155.04,-243.5 258.04,-243.5 258.04,-224.5 155.04,-224.5"/>
<text text-anchor="middle" x="206.54" y="-231.5" font-family="Helvetica,sans-Serif" font-size="10.00">slave_func.impl.h</text>
</a>
</g>
</g>
<!-- Node1&#45;&gt;Node13 -->
<g id="edge23" class="edge">
<title>Node1&#45;&gt;Node13</title>
<path fill="none" stroke="midnightblue" d="M321.76,-280.4C296.31,-270.37 262.45,-257.03 238.02,-247.4"/>
<polygon fill="midnightblue" stroke="midnightblue" points="239.1,-244.07 228.51,-243.66 236.54,-250.58 239.1,-244.07"/>
</g>
<!-- Node14 -->
<g id="node14" class="node">
<title>Node14</title>
<g id="a_node14"><a xlink:href="master_8impl_8h.html" target="_top" xlink:title=" ">
<polygon fill="none" stroke="black" points="315.04,-224.5 315.04,-243.5 400.04,-243.5 400.04,-224.5 315.04,-224.5"/>
<text text-anchor="middle" x="357.54" y="-231.5" font-family="Helvetica,sans-Serif" font-size="10.00">master.impl.h</text>
</a>
</g>
</g>
<!-- Node1&#45;&gt;Node14 -->
<g id="edge26" class="edge">
<title>Node1&#45;&gt;Node14</title>
<path fill="none" stroke="midnightblue" d="M357.54,-280.4C357.54,-272.47 357.54,-262.46 357.54,-253.86"/>
<polygon fill="midnightblue" stroke="midnightblue" points="361.04,-253.66 357.54,-243.66 354.04,-253.66 361.04,-253.66"/>
</g>
<!-- Node15 -->
<g id="node15" class="node">
<title>Node15</title>
<g id="a_node15"><a xlink:href="master__func_8impl_8h.html" target="_top" xlink:title=" ">
<polygon fill="none" stroke="black" points="457.04,-224.5 457.04,-243.5 568.04,-243.5 568.04,-224.5 457.04,-224.5"/>
<text text-anchor="middle" x="512.54" y="-231.5" font-family="Helvetica,sans-Serif" font-size="10.00">master_func.impl.h</text>
</a>
</g>
</g>
<!-- Node1&#45;&gt;Node15 -->
<g id="edge29" class="edge">
<title>Node1&#45;&gt;Node15</title>
<path fill="none" stroke="midnightblue" d="M394.28,-280.4C420.51,-270.33 455.47,-256.91 480.56,-247.28"/>
<polygon fill="midnightblue" stroke="midnightblue" points="481.91,-250.51 489.99,-243.66 479.4,-243.97 481.91,-250.51"/>
</g>
<!-- Node16 -->
<g id="node16" class="node">
<title>Node16</title>
<g id="a_node16"><a xlink:href="debug_8impl_8h.html" target="_top" xlink:title=" ">
<polygon fill="none" stroke="black" points="624.54,-224.5 624.54,-243.5 704.54,-243.5 704.54,-224.5 624.54,-224.5"/>
<text text-anchor="middle" x="664.54" y="-231.5" font-family="Helvetica,sans-Serif" font-size="10.00">debug.impl.h</text>
</a>
</g>
</g>
<!-- Node1&#45;&gt;Node16 -->
<g id="edge32" class="edge">
<title>Node1&#45;&gt;Node16</title>
<path fill="none" stroke="midnightblue" d="M415.65,-283.24C472.97,-272.13 559.69,-255.32 614.17,-244.76"/>
<polygon fill="midnightblue" stroke="midnightblue" points="615.14,-248.14 624.29,-242.8 613.8,-241.27 615.14,-248.14"/>
</g>
<!-- Node3 -->
<g id="node3" class="node">
<title>Node3</title>
<g id="a_node3"><a xlink:title=" ">
<polygon fill="none" stroke="#bfbfbf" points="327.04,-0.5 327.04,-19.5 380.04,-19.5 380.04,-0.5 327.04,-0.5"/>
<text text-anchor="middle" x="353.54" y="-7.5" font-family="Helvetica,sans-Serif" font-size="10.00">stdint.h</text>
</a>
</g>
</g>
<!-- Node2&#45;&gt;Node3 -->
<g id="edge2" class="edge">
<title>Node2&#45;&gt;Node3</title>
<path fill="none" stroke="midnightblue" d="M223.81,-112.34C229.32,-98.75 241.64,-72.3 259.54,-56 276.06,-40.96 298.52,-29.96 317.33,-22.6"/>
<polygon fill="midnightblue" stroke="midnightblue" points="318.64,-25.85 326.79,-19.08 316.2,-19.29 318.64,-25.85"/>
</g>
<!-- Node4 -->
<g id="node4" class="node">
<title>Node4</title>
<g id="a_node4"><a xlink:title=" ">
<polygon fill="none" stroke="#bfbfbf" points="268.54,-56.5 268.54,-75.5 324.54,-75.5 324.54,-56.5 268.54,-56.5"/>
<text text-anchor="middle" x="296.54" y="-63.5" font-family="Helvetica,sans-Serif" font-size="10.00">stddef.h</text>
</a>
</g>
</g>
<!-- Node2&#45;&gt;Node4 -->
<g id="edge3" class="edge">
<title>Node2&#45;&gt;Node4</title>
<path fill="none" stroke="midnightblue" d="M232.75,-112.32C244.32,-104.11 261.92,-91.6 275.7,-81.81"/>
<polygon fill="midnightblue" stroke="midnightblue" points="277.99,-84.48 284.11,-75.83 273.93,-78.77 277.99,-84.48"/>
</g>
<!-- Node5 -->
<g id="node5" class="node">
<title>Node5</title>
<g id="a_node5"><a xlink:href="base_8h.html" target="_top" xlink:title=" ">
<polygon fill="none" stroke="black" points="382.04,-56.5 382.04,-75.5 431.04,-75.5 431.04,-56.5 382.04,-56.5"/>
<text text-anchor="middle" x="406.54" y="-63.5" font-family="Helvetica,sans-Serif" font-size="10.00">base.h</text>
</a>
</g>
</g>
<!-- Node2&#45;&gt;Node5 -->
<g id="edge4" class="edge">
<title>Node2&#45;&gt;Node5</title>
<path fill="none" stroke="midnightblue" d="M246.8,-113.38C279.66,-103.84 336.02,-87.48 372.25,-76.96"/>
<polygon fill="midnightblue" stroke="midnightblue" points="373.28,-80.3 381.9,-74.15 371.32,-73.58 373.28,-80.3"/>
</g>
<!-- Node5&#45;&gt;Node3 -->
<g id="edge5" class="edge">
<title>Node5&#45;&gt;Node3</title>
<path fill="none" stroke="midnightblue" d="M397.79,-56.08C390.07,-48.22 378.64,-36.57 369.33,-27.08"/>
<polygon fill="midnightblue" stroke="midnightblue" points="371.63,-24.44 362.13,-19.75 366.64,-29.34 371.63,-24.44"/>
</g>
<!-- Node6&#45;&gt;Node5 -->
<g id="edge7" class="edge">
<title>Node6&#45;&gt;Node5</title>
<path fill="none" stroke="midnightblue" d="M165.5,-168.36C188.13,-159.42 224.39,-144.96 255.54,-132 298.16,-114.27 347.19,-93 377.53,-79.74"/>
<polygon fill="midnightblue" stroke="midnightblue" points="379.3,-82.78 387.06,-75.57 376.5,-76.37 379.3,-82.78"/>
</g>
<!-- Node7&#45;&gt;Node3 -->
<g id="edge9" class="edge">
<title>Node7&#45;&gt;Node3</title>
<path fill="none" stroke="midnightblue" d="M353.54,-112.37C353.54,-94.62 353.54,-53.67 353.54,-29.6"/>
<polygon fill="midnightblue" stroke="midnightblue" points="357.04,-29.59 353.54,-19.59 350.04,-29.59 357.04,-29.59"/>
</g>
<!-- Node7&#45;&gt;Node4 -->
<g id="edge10" class="edge">
<title>Node7&#45;&gt;Node4</title>
<path fill="none" stroke="midnightblue" d="M344.38,-112.32C336.04,-104.42 323.51,-92.55 313.37,-82.94"/>
<polygon fill="midnightblue" stroke="midnightblue" points="315.53,-80.17 305.87,-75.83 310.72,-85.25 315.53,-80.17"/>
</g>
<!-- Node7&#45;&gt;Node5 -->
<g id="edge11" class="edge">
<title>Node7&#45;&gt;Node5</title>
<path fill="none" stroke="midnightblue" d="M362.29,-112.08C370.01,-104.22 381.45,-92.57 390.76,-83.08"/>
<polygon fill="midnightblue" stroke="midnightblue" points="393.45,-85.34 397.95,-75.75 388.45,-80.44 393.45,-85.34"/>
</g>
<!-- Node8&#45;&gt;Node5 -->
<g id="edge13" class="edge">
<title>Node8&#45;&gt;Node5</title>
<path fill="none" stroke="midnightblue" d="M423.13,-168.37C420.23,-150.62 413.52,-109.67 409.59,-85.6"/>
<polygon fill="midnightblue" stroke="midnightblue" points="413.02,-84.89 407.95,-75.59 406.11,-86.03 413.02,-84.89"/>
</g>
<!-- Node8&#45;&gt;Node7 -->
<g id="edge14" class="edge">
<title>Node8&#45;&gt;Node7</title>
<path fill="none" stroke="midnightblue" d="M413.14,-168.32C402.43,-160.18 386.2,-147.84 373.38,-138.09"/>
<polygon fill="midnightblue" stroke="midnightblue" points="375.24,-135.1 365.16,-131.83 371,-140.67 375.24,-135.1"/>
</g>
<!-- Node9&#45;&gt;Node5 -->
<g id="edge16" class="edge">
<title>Node9&#45;&gt;Node5</title>
<path fill="none" stroke="midnightblue" d="M581.63,-168.37C548.75,-149.33 469.79,-103.62 430.12,-80.65"/>
<polygon fill="midnightblue" stroke="midnightblue" points="431.79,-77.57 421.38,-75.59 428.28,-83.63 431.79,-77.57"/>
</g>
<!-- Node10&#45;&gt;Node5 -->
<g id="edge18" class="edge">
<title>Node10&#45;&gt;Node5</title>
<path fill="none" stroke="midnightblue" d="M743.5,-224.44C704.8,-203.93 603.08,-150.81 515.54,-112 489.57,-100.49 459.74,-88.23 437.85,-79.43"/>
<polygon fill="midnightblue" stroke="midnightblue" points="438.98,-76.11 428.4,-75.64 436.38,-82.61 438.98,-76.11"/>
</g>
<!-- Node11 -->
<g id="node11" class="node">
<title>Node11</title>
<g id="a_node11"><a xlink:title=" ">
<polygon fill="none" stroke="#bfbfbf" points="733.04,-168.5 733.04,-187.5 786.04,-187.5 786.04,-168.5 733.04,-168.5"/>
<text text-anchor="middle" x="759.54" y="-175.5" font-family="Helvetica,sans-Serif" font-size="10.00">stdlib.h</text>
</a>
</g>
</g>
<!-- Node10&#45;&gt;Node11 -->
<g id="edge19" class="edge">
<title>Node10&#45;&gt;Node11</title>
<path fill="none" stroke="midnightblue" d="M759.54,-224.08C759.54,-217.01 759.54,-206.86 759.54,-197.99"/>
<polygon fill="midnightblue" stroke="midnightblue" points="763.04,-197.75 759.54,-187.75 756.04,-197.75 763.04,-197.75"/>
</g>
<!-- Node12&#45;&gt;Node2 -->
<g id="edge21" class="edge">
<title>Node12&#45;&gt;Node2</title>
<path fill="none" stroke="midnightblue" d="M62.19,-224.12C66.78,-210.23 77.47,-183.39 95.54,-168 120.93,-146.39 157.49,-134.84 184.52,-128.87"/>
<polygon fill="midnightblue" stroke="midnightblue" points="185.28,-132.29 194.37,-126.85 183.87,-125.43 185.28,-132.29"/>
</g>
<!-- Node12&#45;&gt;Node6 -->
<g id="edge22" class="edge">
<title>Node12&#45;&gt;Node6</title>
<path fill="none" stroke="midnightblue" d="M73.04,-224.32C86.14,-215.9 106.25,-202.97 121.65,-193.07"/>
<polygon fill="midnightblue" stroke="midnightblue" points="123.56,-196.01 130.08,-187.65 119.78,-190.12 123.56,-196.01"/>
</g>
<!-- Node13&#45;&gt;Node2 -->
<g id="edge25" class="edge">
<title>Node13&#45;&gt;Node2</title>
<path fill="none" stroke="midnightblue" d="M207.64,-224.37C209.9,-206.62 215.11,-165.67 218.18,-141.6"/>
<polygon fill="midnightblue" stroke="midnightblue" points="221.66,-141.95 219.45,-131.59 214.71,-141.07 221.66,-141.95"/>
</g>
<!-- Node13&#45;&gt;Node6 -->
<g id="edge24" class="edge">
<title>Node13&#45;&gt;Node6</title>
<path fill="none" stroke="midnightblue" d="M196.42,-224.32C187.02,-216.26 172.8,-204.08 161.47,-194.37"/>
<polygon fill="midnightblue" stroke="midnightblue" points="163.72,-191.68 153.85,-187.83 159.16,-197 163.72,-191.68"/>
</g>
<!-- Node14&#45;&gt;Node7 -->
<g id="edge27" class="edge">
<title>Node14&#45;&gt;Node7</title>
<path fill="none" stroke="midnightblue" d="M357.23,-224.37C356.58,-206.62 355.09,-165.67 354.22,-141.6"/>
<polygon fill="midnightblue" stroke="midnightblue" points="357.72,-141.46 353.86,-131.59 350.72,-141.71 357.72,-141.46"/>
</g>
<!-- Node14&#45;&gt;Node8 -->
<g id="edge28" class="edge">
<title>Node14&#45;&gt;Node8</title>
<path fill="none" stroke="midnightblue" d="M368.31,-224.32C378.31,-216.26 393.43,-204.08 405.47,-194.37"/>
<polygon fill="midnightblue" stroke="midnightblue" points="407.99,-196.83 413.58,-187.83 403.6,-191.38 407.99,-196.83"/>
</g>
<!-- Node15&#45;&gt;Node7 -->
<g id="edge31" class="edge">
<title>Node15&#45;&gt;Node7</title>
<path fill="none" stroke="midnightblue" d="M509.88,-224.13C505.28,-210.26 494.58,-183.43 476.54,-168 452.98,-147.83 419.61,-136.38 393.57,-130.08"/>
<polygon fill="midnightblue" stroke="midnightblue" points="394.15,-126.63 383.63,-127.84 392.61,-133.46 394.15,-126.63"/>
</g>
<!-- Node15&#45;&gt;Node8 -->
<g id="edge30" class="edge">
<title>Node15&#45;&gt;Node8</title>
<path fill="none" stroke="midnightblue" d="M498.4,-224.32C484.68,-215.9 463.61,-202.97 447.48,-193.07"/>
<polygon fill="midnightblue" stroke="midnightblue" points="449,-189.9 438.65,-187.65 445.34,-195.87 449,-189.9"/>
</g>
<!-- Node16&#45;&gt;Node9 -->
<g id="edge33" class="edge">
<title>Node16&#45;&gt;Node9</title>
<path fill="none" stroke="midnightblue" d="M653.62,-224.32C643.37,-216.18 627.82,-203.84 615.54,-194.09"/>
<polygon fill="midnightblue" stroke="midnightblue" points="617.67,-191.31 607.67,-187.83 613.32,-196.79 617.67,-191.31"/>
</g>
</g>
</svg>
