<?xml version="1.0" encoding="UTF-8" standalone="no"?>
<!DOCTYPE svg PUBLIC "-//W3C//DTD SVG 1.1//EN"
 "http://www.w3.org/Graphics/SVG/1.1/DTD/svg11.dtd">
<!-- Generated by graphviz version 2.48.0 (0)
 -->
<!-- Title: include/lightmodbus/master_func.impl.h Pages: 1 -->
<svg width="190pt" height="263pt"
 viewBox="0.00 0.00 190.00 263.00" xmlns="http://www.w3.org/2000/svg" xmlns:xlink="http://www.w3.org/1999/xlink">
<g id="graph0" class="graph" transform="scale(1 1) rotate(0) translate(4 259)">
<title>include/lightmodbus/master_func.impl.h</title>
<!-- Node1 -->
<g id="node1" class="node">
<title>Node1</title>
<g id="a_node1"><a xlink:title=" ">
<polygon fill="#bfbfbf" stroke="black" points="20,-224.5 20,-254.5 136,-254.5 136,-224.5 20,-224.5"/>
<text text-anchor="start" x="28" y="-242.5" font-family="Helvetica,sans-Serif" font-size="10.00">include/lightmodbus</text>
<text text-anchor="middle" x="78" y="-231.5" font-family="Helvetica,sans-Serif" font-size="10.00">/master_func.impl.h</text>
</a>
</g>
</g>
<!-- Node2 -->
<g id="node2" class="node">
<title>Node2</title>
<g id="a_node2"><a xlink:href="master__func_8h.html" target="_top" xlink:title=" ">
<polygon fill="none" stroke="black" points="0,-168.5 0,-187.5 86,-187.5 86,-168.5 0,-168.5"/>
<text text-anchor="middle" x="43" y="-175.5" font-family="Helvetica,sans-Serif" font-size="10.00">master_func.h</text>
</a>
</g>
</g>
<!-- Node1&#45;&gt;Node2 -->
<g id="edge1" class="edge">
<title>Node1&#45;&gt;Node2</title>
<path fill="none" stroke="midnightblue" d="M69.71,-224.4C64.78,-216.02 58.49,-205.33 53.25,-196.42"/>
<polygon fill="midnightblue" stroke="midnightblue" points="56.18,-194.5 48.09,-187.66 50.15,-198.05 56.18,-194.5"/>
</g>
<!-- Node5 -->
<g id="node5" class="node">
<title>Node5</title>
<g id="a_node5"><a xlink:href="master_8h.html" target="_top" xlink:title=" ">
<polygon fill="none" stroke="black" points="71,-112.5 71,-131.5 131,-131.5 131,-112.5 71,-112.5"/>
<text text-anchor="middle" x="101" y="-119.5" font-family="Helvetica,sans-Serif" font-size="10.00">master.h</text>
</a>
</g>
</g>
<!-- Node1&#45;&gt;Node5 -->
<g id="edge8" class="edge">
<title>Node1&#45;&gt;Node5</title>
<path fill="none" stroke="midnightblue" d="M83.82,-224.16C87.63,-214.19 92.36,-200.49 95,-188 98.26,-172.56 99.75,-154.69 100.43,-141.6"/>
<polygon fill="midnightblue" stroke="midnightblue" points="103.93,-141.64 100.84,-131.51 96.94,-141.36 103.93,-141.64"/>
</g>
<!-- Node3 -->
<g id="node3" class="node">
<title>Node3</title>
<g id="a_node3"><a xlink:href="base_8h.html" target="_top" xlink:title=" ">
<polygon fill="none" stroke="black" points="20.5,-56.5 20.5,-75.5 69.5,-75.5 69.5,-56.5 20.5,-56.5"/>
<text text-anchor="middle" x="45" y="-63.5" font-family="Helvetica,sans-Serif" font-size="10.00">base.h</text>
</a>
</g>
</g>
<!-- Node2&#45;&gt;Node3 -->
<g id="edge2" class="edge">
<title>Node2&#45;&gt;Node3</title>
<path fill="none" stroke="midnightblue" d="M43.16,-168.37C43.48,-150.62 44.22,-109.67 44.66,-85.6"/>
<polygon fill="midnightblue" stroke="midnightblue" points="48.16,-85.65 44.84,-75.59 41.16,-85.53 48.16,-85.65"/>
</g>
<!-- Node2&#45;&gt;Node5 -->
<g id="edge4" class="edge">
<title>Node2&#45;&gt;Node5</title>
<path fill="none" stroke="midnightblue" d="M52.32,-168.32C60.89,-160.34 73.81,-148.31 84.19,-138.65"/>
<polygon fill="midnightblue" stroke="midnightblue" points="86.58,-141.21 91.51,-131.83 81.81,-136.09 86.58,-141.21"/>
</g>
<!-- Node4 -->
<g id="node4" class="node">
<title>Node4</title>
<g id="a_node4"><a xlink:title=" ">
<polygon fill="none" stroke="#bfbfbf" points="44.5,-0.5 44.5,-19.5 97.5,-19.5 97.5,-0.5 44.5,-0.5"/>
<text text-anchor="middle" x="71" y="-7.5" font-family="Helvetica,sans-Serif" font-size="10.00">stdint.h</text>
</a>
</g>
</g>
<!-- Node3&#45;&gt;Node4 -->
<g id="edge3" class="edge">
<title>Node3&#45;&gt;Node4</title>
<path fill="none" stroke="midnightblue" d="M49.29,-56.08C52.85,-48.69 58.02,-37.95 62.42,-28.81"/>
<polygon fill="midnightblue" stroke="midnightblue" points="65.6,-30.28 66.79,-19.75 59.29,-27.24 65.6,-30.28"/>
</g>
<!-- Node5&#45;&gt;Node3 -->
<g id="edge7" class="edge">
<title>Node5&#45;&gt;Node3</title>
<path fill="none" stroke="midnightblue" d="M92,-112.32C83.81,-104.42 71.49,-92.55 61.53,-82.94"/>
<polygon fill="midnightblue" stroke="midnightblue" points="63.79,-80.26 54.16,-75.83 58.93,-85.29 63.79,-80.26"/>
</g>
<!-- Node5&#45;&gt;Node4 -->
<g id="edge5" class="edge">
<title>Node5&#45;&gt;Node4</title>
<path fill="none" stroke="midnightblue" d="M98.65,-112.37C93.78,-94.54 82.54,-53.3 75.98,-29.27"/>
<polygon fill="midnightblue" stroke="midnightblue" points="79.35,-28.32 73.34,-19.59 72.6,-30.16 79.35,-28.32"/>
</g>
<!-- Node6 -->
<g id="node6" class="node">
<title>Node6</title>
<g id="a_node6"><a xlink:title=" ">
<polygon fill="none" stroke="#bfbfbf" points="126,-56.5 126,-75.5 182,-75.5 182,-56.5 126,-56.5"/>
<text text-anchor="middle" x="154" y="-63.5" font-family="Helvetica,sans-Serif" font-size="10.00">stddef.h</text>
</a>
</g>
</g>
<!-- Node5&#45;&gt;Node6 -->
<g id="edge6" class="edge">
<title>Node5&#45;&gt;Node6</title>
<path fill="none" stroke="midnightblue" d="M109.75,-112.08C117.47,-104.22 128.9,-92.57 138.22,-83.08"/>
<polygon fill="midnightblue" stroke="midnightblue" points="140.9,-85.34 145.41,-75.75 135.91,-80.44 140.9,-85.34"/>
</g>
</g>
</svg>
