<?xml version="1.0" encoding="UTF-8" standalone="no"?>
<!DOCTYPE svg PUBLIC "-//W3C//DTD SVG 1.1//EN"
 "http://www.w3.org/Graphics/SVG/1.1/DTD/svg11.dtd">
<!-- Generated by graphviz version 2.48.0 (0)
 -->
<!-- Title: modbusParseResponseRTU Pages: 1 -->
<svg width="623pt" height="104pt"
 viewBox="0.00 0.00 623.00 104.00" xmlns="http://www.w3.org/2000/svg" xmlns:xlink="http://www.w3.org/1999/xlink">
<g id="graph0" class="graph" transform="scale(1 1) rotate(0) translate(4 100)">
<title>modbusParseResponseRTU</title>
<!-- Node1 -->
<g id="node1" class="node">
<title>Node1</title>
<g id="a_node1"><a xlink:title="Parses a Modbus RTU slave response.">
<polygon fill="#bfbfbf" stroke="black" points="0,-38.5 0,-57.5 150,-57.5 150,-38.5 0,-38.5"/>
<text text-anchor="middle" x="75" y="-45.5" font-family="Helvetica,sans-Serif" font-size="10.00">modbusParseResponseRTU</text>
</a>
</g>
</g>
<!-- Node2 -->
<g id="node2" class="node">
<title>Node2</title>
<g id="a_node2"><a xlink:href="base_8h.html#a11346a546b84663cd92cb30f4ffd1393" target="_top" xlink:title="Calculates 16&#45;bit Modbus CRC of provided data.">
<polygon fill="none" stroke="black" points="223.5,-76.5 223.5,-95.5 299.5,-95.5 299.5,-76.5 223.5,-76.5"/>
<text text-anchor="middle" x="261.5" y="-83.5" font-family="Helvetica,sans-Serif" font-size="10.00">modbusCRC</text>
</a>
</g>
</g>
<!-- Node1&#45;&gt;Node2 -->
<g id="edge1" class="edge">
<title>Node1&#45;&gt;Node2</title>
<path fill="none" stroke="midnightblue" d="M122.56,-57.59C150.32,-63.31 185.47,-70.55 213.34,-76.29"/>
<polygon fill="midnightblue" stroke="midnightblue" points="212.75,-79.74 223.25,-78.33 214.16,-72.88 212.75,-79.74"/>
</g>
<!-- Node3 -->
<g id="node3" class="node">
<title>Node3</title>
<g id="a_node3"><a xlink:href="master_8impl_8h.html#a2a2853b9ec5742a5d4213532ebeefa93" target="_top" xlink:title="Parses a PDU section of a slave response.">
<polygon fill="none" stroke="black" points="186,-38.5 186,-57.5 337,-57.5 337,-38.5 186,-38.5"/>
<text text-anchor="middle" x="261.5" y="-45.5" font-family="Helvetica,sans-Serif" font-size="10.00">modbusParseResponsePDU</text>
</a>
</g>
</g>
<!-- Node1&#45;&gt;Node3 -->
<g id="edge2" class="edge">
<title>Node1&#45;&gt;Node3</title>
<path fill="none" stroke="midnightblue" d="M150.25,-48C158.57,-48 167.11,-48 175.56,-48"/>
<polygon fill="midnightblue" stroke="midnightblue" points="175.81,-51.5 185.81,-48 175.81,-44.5 175.81,-51.5"/>
</g>
<!-- Node7 -->
<g id="node7" class="node">
<title>Node7</title>
<g id="a_node7"><a xlink:href="base_8h.html#a76f815c35e0b571e6cb75325822f94b4" target="_top" xlink:title="Safely reads a little&#45;endian 16&#45;bit word from provided pointer.">
<polygon fill="none" stroke="black" points="224.5,-0.5 224.5,-19.5 298.5,-19.5 298.5,-0.5 224.5,-0.5"/>
<text text-anchor="middle" x="261.5" y="-7.5" font-family="Helvetica,sans-Serif" font-size="10.00">modbusRLE</text>
</a>
</g>
</g>
<!-- Node1&#45;&gt;Node7 -->
<g id="edge6" class="edge">
<title>Node1&#45;&gt;Node7</title>
<path fill="none" stroke="midnightblue" d="M122.56,-38.41C150.7,-32.61 186.43,-25.26 214.48,-19.48"/>
<polygon fill="midnightblue" stroke="midnightblue" points="215.35,-22.87 224.43,-17.43 213.93,-16.02 215.35,-22.87"/>
</g>
<!-- Node4 -->
<g id="node4" class="node">
<title>Node4</title>
<g id="a_node4"><a xlink:href="base_8h.html#ab945e5e4e573e91a217e0e0a389daa48" target="_top" xlink:title=" ">
<polygon fill="none" stroke="black" points="373,-38.5 373,-57.5 450,-57.5 450,-38.5 373,-38.5"/>
<text text-anchor="middle" x="411.5" y="-45.5" font-family="Helvetica,sans-Serif" font-size="10.00">modbusIsOk</text>
</a>
</g>
</g>
<!-- Node3&#45;&gt;Node4 -->
<g id="edge3" class="edge">
<title>Node3&#45;&gt;Node4</title>
<path fill="none" stroke="midnightblue" d="M337.37,-48C346.04,-48 354.69,-48 362.86,-48"/>
<polygon fill="midnightblue" stroke="midnightblue" points="362.9,-51.5 372.9,-48 362.9,-44.5 362.9,-51.5"/>
</g>
<!-- Node5 -->
<g id="node5" class="node">
<title>Node5</title>
<g id="a_node5"><a xlink:href="base_8impl_8h.html#ab01c2addaafe619040a2e0fa302ed5d4" target="_top" xlink:title=" ">
<polygon fill="none" stroke="black" points="490,-57.5 490,-76.5 611,-76.5 611,-57.5 490,-57.5"/>
<text text-anchor="middle" x="550.5" y="-64.5" font-family="Helvetica,sans-Serif" font-size="10.00">modbusGetErrorCode</text>
</a>
</g>
</g>
<!-- Node4&#45;&gt;Node5 -->
<g id="edge4" class="edge">
<title>Node4&#45;&gt;Node5</title>
<path fill="none" stroke="midnightblue" d="M450.3,-53.24C459.51,-54.52 469.65,-55.93 479.82,-57.34"/>
<polygon fill="midnightblue" stroke="midnightblue" points="479.59,-60.84 489.97,-58.74 480.55,-53.9 479.59,-60.84"/>
</g>
<!-- Node6 -->
<g id="node6" class="node">
<title>Node6</title>
<g id="a_node6"><a xlink:href="base_8impl_8h.html#ad3119b6543dcad7c77b4e534c4545112" target="_top" xlink:title=" ">
<polygon fill="none" stroke="black" points="486,-19.5 486,-38.5 615,-38.5 615,-19.5 486,-19.5"/>
<text text-anchor="middle" x="550.5" y="-26.5" font-family="Helvetica,sans-Serif" font-size="10.00">modbusGetErrorSource</text>
</a>
</g>
</g>
<!-- Node4&#45;&gt;Node6 -->
<g id="edge5" class="edge">
<title>Node4&#45;&gt;Node6</title>
<path fill="none" stroke="midnightblue" d="M450.3,-42.76C458.3,-41.65 467,-40.44 475.82,-39.22"/>
<polygon fill="midnightblue" stroke="midnightblue" points="476.37,-42.68 485.79,-37.84 475.41,-35.74 476.37,-42.68"/>
</g>
</g>
</svg>
