<?xml version="1.0" encoding="UTF-8" standalone="no"?>
<!DOCTYPE svg PUBLIC "-//W3C//DTD SVG 1.1//EN"
 "http://www.w3.org/Graphics/SVG/1.1/DTD/svg11.dtd">
<!-- Generated by graphviz version 2.44.0 ()
 -->
<!-- Title: modbusParseResponseTCP Pages: 1 -->
<svg width="587pt" height="85pt"
 viewBox="0.00 0.00 587.00 85.00" xmlns="http://www.w3.org/2000/svg" xmlns:xlink="http://www.w3.org/1999/xlink">
<g id="graph0" class="graph" transform="scale(1 1) rotate(0) translate(4 81)">
<title>modbusParseResponseTCP</title>
<!-- Node1 -->
<g id="node1" class="node">
<title>Node1</title>
<g id="a_node1"><a xlink:title="Parses a Modbus TCP slave response.">
<polygon fill="#bfbfbf" stroke="black" points="0,-19.5 0,-38.5 140,-38.5 140,-19.5 0,-19.5"/>
<text text-anchor="middle" x="70" y="-26.5" font-family="Helvetica,sans-Serif" font-size="10.00">modbusParseResponseTCP</text>
</a>
</g>
</g>
<!-- Node2 -->
<g id="node2" class="node">
<title>Node2</title>
<g id="a_node2"><a xlink:href="master_8impl_8h.html#ad8e87b7bdda035ea42cacc2241b406e3" target="_top" xlink:title="Parses a PDU section of a slave response.">
<polygon fill="none" stroke="black" points="176,-38.5 176,-57.5 317,-57.5 317,-38.5 176,-38.5"/>
<text text-anchor="middle" x="246.5" y="-45.5" font-family="Helvetica,sans-Serif" font-size="10.00">modbusParseResponsePDU</text>
</a>
</g>
</g>
<!-- Node1&#45;&gt;Node2 -->
<g id="edge1" class="edge">
<title>Node1&#45;&gt;Node2</title>
<path fill="none" stroke="midnightblue" d="M140.22,-36.54C148.63,-37.45 157.28,-38.39 165.82,-39.32"/>
<polygon fill="midnightblue" stroke="midnightblue" points="165.47,-42.81 175.79,-40.41 166.23,-35.85 165.47,-42.81"/>
</g>
<!-- Node6 -->
<g id="node6" class="node">
<title>Node6</title>
<g id="a_node6"><a xlink:href="base_8h.html#a724223277fcf6255904a91f181aa1ac8" target="_top" xlink:title="Safely reads a big&#45;endian 16&#45;bit word from provided pointer.">
<polygon fill="none" stroke="black" points="211,-0.5 211,-19.5 282,-19.5 282,-0.5 211,-0.5"/>
<text text-anchor="middle" x="246.5" y="-7.5" font-family="Helvetica,sans-Serif" font-size="10.00">modbusRBE</text>
</a>
</g>
</g>
<!-- Node1&#45;&gt;Node6 -->
<g id="edge5" class="edge">
<title>Node1&#45;&gt;Node6</title>
<path fill="none" stroke="midnightblue" d="M140.22,-21.46C160.52,-19.25 182.18,-16.89 200.54,-14.9"/>
<polygon fill="midnightblue" stroke="midnightblue" points="201.09,-18.36 210.65,-13.79 200.33,-11.4 201.09,-18.36"/>
</g>
<!-- Node3 -->
<g id="node3" class="node">
<title>Node3</title>
<g id="a_node3"><a xlink:href="base_8h.html#ab945e5e4e573e91a217e0e0a389daa48" target="_top" xlink:title="Checks if ModbusErrorInfo contains an error.">
<polygon fill="none" stroke="black" points="353,-38.5 353,-57.5 425,-57.5 425,-38.5 353,-38.5"/>
<text text-anchor="middle" x="389" y="-45.5" font-family="Helvetica,sans-Serif" font-size="10.00">modbusIsOk</text>
</a>
</g>
</g>
<!-- Node2&#45;&gt;Node3 -->
<g id="edge2" class="edge">
<title>Node2&#45;&gt;Node3</title>
<path fill="none" stroke="midnightblue" d="M317.34,-48C325.86,-48 334.39,-48 342.43,-48"/>
<polygon fill="midnightblue" stroke="midnightblue" points="342.67,-51.5 352.67,-48 342.67,-44.5 342.67,-51.5"/>
</g>
<!-- Node4 -->
<g id="node4" class="node">
<title>Node4</title>
<g id="a_node4"><a xlink:href="base_8impl_8h.html#ab01c2addaafe619040a2e0fa302ed5d4" target="_top" xlink:title="Returns ModbusError contained in ModbusErrorInfo.">
<polygon fill="none" stroke="black" points="465,-57.5 465,-76.5 575,-76.5 575,-57.5 465,-57.5"/>
<text text-anchor="middle" x="520" y="-64.5" font-family="Helvetica,sans-Serif" font-size="10.00">modbusGetErrorCode</text>
</a>
</g>
</g>
<!-- Node3&#45;&gt;Node4 -->
<g id="edge3" class="edge">
<title>Node3&#45;&gt;Node4</title>
<path fill="none" stroke="midnightblue" d="M425.25,-53.19C434.43,-54.54 444.6,-56.04 454.77,-57.54"/>
<polygon fill="midnightblue" stroke="midnightblue" points="454.5,-61.04 464.9,-59.03 455.52,-54.11 454.5,-61.04"/>
</g>
<!-- Node5 -->
<g id="node5" class="node">
<title>Node5</title>
<g id="a_node5"><a xlink:href="base_8impl_8h.html#ad3119b6543dcad7c77b4e534c4545112" target="_top" xlink:title="Returns uint8_t describing error source of ModbusErrorInfo.">
<polygon fill="none" stroke="black" points="461,-19.5 461,-38.5 579,-38.5 579,-19.5 461,-19.5"/>
<text text-anchor="middle" x="520" y="-26.5" font-family="Helvetica,sans-Serif" font-size="10.00">modbusGetErrorSource</text>
</a>
</g>
</g>
<!-- Node3&#45;&gt;Node5 -->
<g id="edge4" class="edge">
<title>Node3&#45;&gt;Node5</title>
<path fill="none" stroke="midnightblue" d="M425.25,-42.81C433.27,-41.63 442.06,-40.33 450.94,-39.02"/>
<polygon fill="midnightblue" stroke="midnightblue" points="451.58,-42.47 460.96,-37.55 450.56,-35.54 451.58,-42.47"/>
</g>
</g>
</svg>
