<?xml version="1.0" encoding="UTF-8" standalone="no"?>
<!DOCTYPE svg PUBLIC "-//W3C//DTD SVG 1.1//EN"
 "http://www.w3.org/Graphics/SVG/1.1/DTD/svg11.dtd">
<!-- Generated by graphviz version 2.48.0 (0)
 -->
<!-- Title: include/lightmodbus/master.impl.h Pages: 1 -->
<svg width="161pt" height="263pt"
 viewBox="0.00 0.00 161.48 263.00" xmlns="http://www.w3.org/2000/svg" xmlns:xlink="http://www.w3.org/1999/xlink">
<g id="graph0" class="graph" transform="scale(1 1) rotate(0) translate(4 259)">
<title>include/lightmodbus/master.impl.h</title>
<!-- Node1 -->
<g id="node1" class="node">
<title>Node1</title>
<g id="a_node1"><a xlink:title=" ">
<polygon fill="#bfbfbf" stroke="black" points="16.48,-224.5 16.48,-254.5 132.48,-254.5 132.48,-224.5 16.48,-224.5"/>
<text text-anchor="start" x="24.48" y="-242.5" font-family="Helvetica,sans-Serif" font-size="10.00">include/lightmodbus</text>
<text text-anchor="middle" x="74.48" y="-231.5" font-family="Helvetica,sans-Serif" font-size="10.00">/master.impl.h</text>
</a>
</g>
</g>
<!-- Node2 -->
<g id="node2" class="node">
<title>Node2</title>
<g id="a_node2"><a xlink:href="master_8h.html" target="_top" xlink:title=" ">
<polygon fill="none" stroke="black" points="9.48,-112.5 9.48,-131.5 69.48,-131.5 69.48,-112.5 9.48,-112.5"/>
<text text-anchor="middle" x="39.48" y="-119.5" font-family="Helvetica,sans-Serif" font-size="10.00">master.h</text>
</a>
</g>
</g>
<!-- Node1&#45;&gt;Node2 -->
<g id="edge1" class="edge">
<title>Node1&#45;&gt;Node2</title>
<path fill="none" stroke="midnightblue" d="M69.91,-224.38C66.66,-214.27 62.23,-200.32 58.48,-188 53.72,-172.36 48.52,-154.53 44.77,-141.51"/>
<polygon fill="midnightblue" stroke="midnightblue" points="48.12,-140.5 42,-131.85 41.39,-142.43 48.12,-140.5"/>
</g>
<!-- Node6 -->
<g id="node6" class="node">
<title>Node6</title>
<g id="a_node6"><a xlink:href="master__func_8h.html" target="_top" xlink:title=" ">
<polygon fill="none" stroke="black" points="67.48,-168.5 67.48,-187.5 153.48,-187.5 153.48,-168.5 67.48,-168.5"/>
<text text-anchor="middle" x="110.48" y="-175.5" font-family="Helvetica,sans-Serif" font-size="10.00">master_func.h</text>
</a>
</g>
</g>
<!-- Node1&#45;&gt;Node6 -->
<g id="edge6" class="edge">
<title>Node1&#45;&gt;Node6</title>
<path fill="none" stroke="midnightblue" d="M83.01,-224.4C88.08,-216.02 94.55,-205.33 99.94,-196.42"/>
<polygon fill="midnightblue" stroke="midnightblue" points="103.06,-198.03 105.24,-187.66 97.07,-194.4 103.06,-198.03"/>
</g>
<!-- Node3 -->
<g id="node3" class="node">
<title>Node3</title>
<g id="a_node3"><a xlink:title=" ">
<polygon fill="none" stroke="#bfbfbf" points="19.98,-0.5 19.98,-19.5 72.98,-19.5 72.98,-0.5 19.98,-0.5"/>
<text text-anchor="middle" x="46.48" y="-7.5" font-family="Helvetica,sans-Serif" font-size="10.00">stdint.h</text>
</a>
</g>
</g>
<!-- Node2&#45;&gt;Node3 -->
<g id="edge2" class="edge">
<title>Node2&#45;&gt;Node3</title>
<path fill="none" stroke="midnightblue" d="M28.37,-112.12C14.58,-99.95 -6.15,-77.16 2.48,-56 7.28,-44.23 16.81,-33.86 25.77,-26.05"/>
<polygon fill="midnightblue" stroke="midnightblue" points="28.13,-28.64 33.7,-19.63 23.72,-23.2 28.13,-28.64"/>
</g>
<!-- Node4 -->
<g id="node4" class="node">
<title>Node4</title>
<g id="a_node4"><a xlink:title=" ">
<polygon fill="none" stroke="#bfbfbf" points="11.48,-56.5 11.48,-75.5 67.48,-75.5 67.48,-56.5 11.48,-56.5"/>
<text text-anchor="middle" x="39.48" y="-63.5" font-family="Helvetica,sans-Serif" font-size="10.00">stddef.h</text>
</a>
</g>
</g>
<!-- Node2&#45;&gt;Node4 -->
<g id="edge3" class="edge">
<title>Node2&#45;&gt;Node4</title>
<path fill="none" stroke="midnightblue" d="M39.48,-112.08C39.48,-105.01 39.48,-94.86 39.48,-85.99"/>
<polygon fill="midnightblue" stroke="midnightblue" points="42.98,-85.75 39.48,-75.75 35.98,-85.75 42.98,-85.75"/>
</g>
<!-- Node5 -->
<g id="node5" class="node">
<title>Node5</title>
<g id="a_node5"><a xlink:href="base_8h.html" target="_top" xlink:title=" ">
<polygon fill="none" stroke="black" points="85.98,-56.5 85.98,-75.5 134.98,-75.5 134.98,-56.5 85.98,-56.5"/>
<text text-anchor="middle" x="110.48" y="-63.5" font-family="Helvetica,sans-Serif" font-size="10.00">base.h</text>
</a>
</g>
</g>
<!-- Node2&#45;&gt;Node5 -->
<g id="edge4" class="edge">
<title>Node2&#45;&gt;Node5</title>
<path fill="none" stroke="midnightblue" d="M50.89,-112.32C61.59,-104.18 77.82,-91.84 90.64,-82.09"/>
<polygon fill="midnightblue" stroke="midnightblue" points="93.02,-84.67 98.86,-75.83 88.79,-79.1 93.02,-84.67"/>
</g>
<!-- Node5&#45;&gt;Node3 -->
<g id="edge5" class="edge">
<title>Node5&#45;&gt;Node3</title>
<path fill="none" stroke="midnightblue" d="M100.2,-56.32C90.64,-48.26 76.2,-36.08 64.69,-26.37"/>
<polygon fill="midnightblue" stroke="midnightblue" points="66.85,-23.61 56.95,-19.83 62.33,-28.96 66.85,-23.61"/>
</g>
<!-- Node6&#45;&gt;Node2 -->
<g id="edge8" class="edge">
<title>Node6&#45;&gt;Node2</title>
<path fill="none" stroke="midnightblue" d="M99.07,-168.32C88.37,-160.18 72.14,-147.84 59.32,-138.09"/>
<polygon fill="midnightblue" stroke="midnightblue" points="61.17,-135.1 51.09,-131.83 56.93,-140.67 61.17,-135.1"/>
</g>
<!-- Node6&#45;&gt;Node5 -->
<g id="edge7" class="edge">
<title>Node6&#45;&gt;Node5</title>
<path fill="none" stroke="midnightblue" d="M110.48,-168.37C110.48,-150.62 110.48,-109.67 110.48,-85.6"/>
<polygon fill="midnightblue" stroke="midnightblue" points="113.98,-85.59 110.48,-75.59 106.98,-85.59 113.98,-85.59"/>
</g>
</g>
</svg>
