<?xml version="1.0" encoding="UTF-8" standalone="no"?>
<!DOCTYPE svg PUBLIC "-//W3C//DTD SVG 1.1//EN"
 "http://www.w3.org/Graphics/SVG/1.1/DTD/svg11.dtd">
<!-- Generated by graphviz version 2.44.0 ()
 -->
<!-- Title: include/lightmodbus/master.h Pages: 1 -->
<svg width="289pt" height="240pt"
 viewBox="0.00 0.00 288.53 240.00" xmlns="http://www.w3.org/2000/svg" xmlns:xlink="http://www.w3.org/1999/xlink">
<g id="graph0" class="graph" transform="scale(1 1) rotate(0) translate(4 236)">
<title>include/lightmodbus/master.h</title>
<!-- Node1 -->
<g id="node1" class="node">
<title>Node1</title>
<g id="a_node1"><a xlink:title=" ">
<polygon fill="#bfbfbf" stroke="black" points="57.53,-201.5 57.53,-231.5 160.53,-231.5 160.53,-201.5 57.53,-201.5"/>
<text text-anchor="start" x="65.53" y="-219.5" font-family="Helvetica,sans-Serif" font-size="10.00">include/lightmodbus</text>
<text text-anchor="middle" x="109.03" y="-208.5" font-family="Helvetica,sans-Serif" font-size="10.00">/master.h</text>
</a>
</g>
</g>
<!-- Node2 -->
<g id="node2" class="node">
<title>Node2</title>
<g id="a_node2"><a xlink:href="lightmodbus_8h.html" target="_top" xlink:title=" ">
<polygon fill="none" stroke="black" points="57.53,-0.5 57.53,-30.5 160.53,-30.5 160.53,-0.5 57.53,-0.5"/>
<text text-anchor="start" x="65.53" y="-18.5" font-family="Helvetica,sans-Serif" font-size="10.00">include/lightmodbus</text>
<text text-anchor="middle" x="109.03" y="-7.5" font-family="Helvetica,sans-Serif" font-size="10.00">/lightmodbus.h</text>
</a>
</g>
</g>
<!-- Node1&#45;&gt;Node2 -->
<g id="edge1" class="edge">
<title>Node1&#45;&gt;Node2</title>
<path fill="none" stroke="midnightblue" d="M78.2,-195.49C38.79,-167.3 -21.08,-114.1 8.03,-67 19.06,-49.16 38.51,-37.41 57.42,-29.77"/>
<polygon fill="midnightblue" stroke="midnightblue" points="76.54,-198.59 86.75,-201.44 80.54,-192.85 76.54,-198.59"/>
</g>
<!-- Node3 -->
<g id="node3" class="node">
<title>Node3</title>
<g id="a_node3"><a xlink:href="master_8impl_8h.html" target="_top" xlink:title=" ">
<polygon fill="none" stroke="black" points="17.53,-67.5 17.53,-97.5 120.53,-97.5 120.53,-67.5 17.53,-67.5"/>
<text text-anchor="start" x="25.53" y="-85.5" font-family="Helvetica,sans-Serif" font-size="10.00">include/lightmodbus</text>
<text text-anchor="middle" x="69.03" y="-74.5" font-family="Helvetica,sans-Serif" font-size="10.00">/master.impl.h</text>
</a>
</g>
</g>
<!-- Node1&#45;&gt;Node3 -->
<g id="edge2" class="edge">
<title>Node1&#45;&gt;Node3</title>
<path fill="none" stroke="midnightblue" d="M98.8,-191.62C95.44,-183.29 91.84,-173.81 89.03,-165 81.59,-141.68 75.3,-113.87 71.86,-97.5"/>
<polygon fill="midnightblue" stroke="midnightblue" points="95.66,-193.2 102.72,-201.1 102.13,-190.53 95.66,-193.2"/>
</g>
<!-- Node4 -->
<g id="node4" class="node">
<title>Node4</title>
<g id="a_node4"><a xlink:href="master__func_8h.html" target="_top" xlink:title=" ">
<polygon fill="none" stroke="black" points="97.53,-134.5 97.53,-164.5 200.53,-164.5 200.53,-134.5 97.53,-134.5"/>
<text text-anchor="start" x="105.53" y="-152.5" font-family="Helvetica,sans-Serif" font-size="10.00">include/lightmodbus</text>
<text text-anchor="middle" x="149.03" y="-141.5" font-family="Helvetica,sans-Serif" font-size="10.00">/master_func.h</text>
</a>
</g>
</g>
<!-- Node1&#45;&gt;Node4 -->
<g id="edge4" class="edge">
<title>Node1&#45;&gt;Node4</title>
<path fill="none" stroke="midnightblue" d="M122.96,-192.87C128.75,-183.46 135.29,-172.83 140.37,-164.58"/>
<polygon fill="midnightblue" stroke="midnightblue" points="119.97,-191.05 117.71,-201.4 125.93,-194.71 119.97,-191.05"/>
</g>
<!-- Node5 -->
<g id="node5" class="node">
<title>Node5</title>
<g id="a_node5"><a xlink:href="master__func_8impl_8h.html" target="_top" xlink:title=" ">
<polygon fill="none" stroke="black" points="177.53,-67.5 177.53,-97.5 280.53,-97.5 280.53,-67.5 177.53,-67.5"/>
<text text-anchor="start" x="185.53" y="-85.5" font-family="Helvetica,sans-Serif" font-size="10.00">include/lightmodbus</text>
<text text-anchor="middle" x="229.03" y="-74.5" font-family="Helvetica,sans-Serif" font-size="10.00">/master_func.impl.h</text>
</a>
</g>
</g>
<!-- Node1&#45;&gt;Node5 -->
<g id="edge9" class="edge">
<title>Node1&#45;&gt;Node5</title>
<path fill="none" stroke="midnightblue" d="M166.54,-197.3C182.69,-189.65 198.86,-179.15 210.03,-165 225.51,-145.38 228.77,-115.34 229.24,-97.73"/>
<polygon fill="midnightblue" stroke="midnightblue" points="164.81,-194.24 157.08,-201.48 167.64,-200.64 164.81,-194.24"/>
</g>
<!-- Node3&#45;&gt;Node2 -->
<g id="edge3" class="edge">
<title>Node3&#45;&gt;Node2</title>
<path fill="none" stroke="midnightblue" d="M82.96,-58.87C88.75,-49.46 95.29,-38.83 100.37,-30.58"/>
<polygon fill="midnightblue" stroke="midnightblue" points="79.97,-57.05 77.71,-67.4 85.93,-60.71 79.97,-57.05"/>
</g>
<!-- Node4&#45;&gt;Node2 -->
<g id="edge5" class="edge">
<title>Node4&#45;&gt;Node2</title>
<path fill="none" stroke="midnightblue" d="M144.54,-124.61C141.2,-108.22 136.17,-86.06 130.03,-67 126.01,-54.53 120.22,-40.83 115.74,-30.85"/>
<polygon fill="midnightblue" stroke="midnightblue" points="141.12,-125.33 146.49,-134.47 147.99,-123.98 141.12,-125.33"/>
</g>
<!-- Node4&#45;&gt;Node3 -->
<g id="edge6" class="edge">
<title>Node4&#45;&gt;Node3</title>
<path fill="none" stroke="midnightblue" d="M123.66,-127.88C111.5,-118.01 97.25,-106.43 86.35,-97.58"/>
<polygon fill="midnightblue" stroke="midnightblue" points="121.7,-130.81 131.67,-134.4 126.12,-125.37 121.7,-130.81"/>
</g>
<!-- Node4&#45;&gt;Node5 -->
<g id="edge7" class="edge">
<title>Node4&#45;&gt;Node5</title>
<path fill="none" stroke="midnightblue" d="M174.4,-127.88C186.56,-118.01 200.81,-106.43 211.71,-97.58"/>
<polygon fill="midnightblue" stroke="midnightblue" points="171.94,-125.37 166.39,-134.4 176.36,-130.81 171.94,-125.37"/>
</g>
<!-- Node5&#45;&gt;Node2 -->
<g id="edge8" class="edge">
<title>Node5&#45;&gt;Node2</title>
<path fill="none" stroke="midnightblue" d="M194.09,-62.57C175.21,-52.35 152.3,-39.94 135.02,-30.58"/>
<polygon fill="midnightblue" stroke="midnightblue" points="192.53,-65.71 202.99,-67.4 195.87,-59.56 192.53,-65.71"/>
</g>
</g>
</svg>
