<?xml version="1.0" encoding="UTF-8" standalone="no"?>
<!DOCTYPE svg PUBLIC "-//W3C//DTD SVG 1.1//EN"
 "http://www.w3.org/Graphics/SVG/1.1/DTD/svg11.dtd">
<!-- Generated by graphviz version 2.48.0 (0)
 -->
<!-- Title: modbusParseResponsePDU Pages: 1 -->
<svg width="437pt" height="66pt"
 viewBox="0.00 0.00 437.00 66.00" xmlns="http://www.w3.org/2000/svg" xmlns:xlink="http://www.w3.org/1999/xlink">
<g id="graph0" class="graph" transform="scale(1 1) rotate(0) translate(4 62)">
<title>modbusParseResponsePDU</title>
<!-- Node1 -->
<g id="node1" class="node">
<title>Node1</title>
<g id="a_node1"><a xlink:title="Parses a PDU section of a slave response.">
<polygon fill="#bfbfbf" stroke="black" points="0,-19.5 0,-38.5 151,-38.5 151,-19.5 0,-19.5"/>
<text text-anchor="middle" x="75.5" y="-26.5" font-family="Helvetica,sans-Serif" font-size="10.00">modbusParseResponsePDU</text>
</a>
</g>
</g>
<!-- Node2 -->
<g id="node2" class="node">
<title>Node2</title>
<g id="a_node2"><a xlink:href="base_8h.html#ab945e5e4e573e91a217e0e0a389daa48" target="_top" xlink:title=" ">
<polygon fill="none" stroke="black" points="187,-19.5 187,-38.5 264,-38.5 264,-19.5 187,-19.5"/>
<text text-anchor="middle" x="225.5" y="-26.5" font-family="Helvetica,sans-Serif" font-size="10.00">modbusIsOk</text>
</a>
</g>
</g>
<!-- Node1&#45;&gt;Node2 -->
<g id="edge1" class="edge">
<title>Node1&#45;&gt;Node2</title>
<path fill="none" stroke="midnightblue" d="M151.37,-29C160.04,-29 168.69,-29 176.86,-29"/>
<polygon fill="midnightblue" stroke="midnightblue" points="176.9,-32.5 186.9,-29 176.9,-25.5 176.9,-32.5"/>
</g>
<!-- Node3 -->
<g id="node3" class="node">
<title>Node3</title>
<g id="a_node3"><a xlink:href="base_8impl_8h.html#ab01c2addaafe619040a2e0fa302ed5d4" target="_top" xlink:title=" ">
<polygon fill="none" stroke="black" points="304,-38.5 304,-57.5 425,-57.5 425,-38.5 304,-38.5"/>
<text text-anchor="middle" x="364.5" y="-45.5" font-family="Helvetica,sans-Serif" font-size="10.00">modbusGetErrorCode</text>
</a>
</g>
</g>
<!-- Node2&#45;&gt;Node3 -->
<g id="edge2" class="edge">
<title>Node2&#45;&gt;Node3</title>
<path fill="none" stroke="midnightblue" d="M264.3,-34.24C273.51,-35.52 283.65,-36.93 293.82,-38.34"/>
<polygon fill="midnightblue" stroke="midnightblue" points="293.59,-41.84 303.97,-39.74 294.55,-34.9 293.59,-41.84"/>
</g>
<!-- Node4 -->
<g id="node4" class="node">
<title>Node4</title>
<g id="a_node4"><a xlink:href="base_8impl_8h.html#ad3119b6543dcad7c77b4e534c4545112" target="_top" xlink:title=" ">
<polygon fill="none" stroke="black" points="300,-0.5 300,-19.5 429,-19.5 429,-0.5 300,-0.5"/>
<text text-anchor="middle" x="364.5" y="-7.5" font-family="Helvetica,sans-Serif" font-size="10.00">modbusGetErrorSource</text>
</a>
</g>
</g>
<!-- Node2&#45;&gt;Node4 -->
<g id="edge3" class="edge">
<title>Node2&#45;&gt;Node4</title>
<path fill="none" stroke="midnightblue" d="M264.3,-23.76C272.3,-22.65 281,-21.44 289.82,-20.22"/>
<polygon fill="midnightblue" stroke="midnightblue" points="290.37,-23.68 299.79,-18.84 289.41,-16.74 290.37,-23.68"/>
</g>
</g>
</svg>
