<?xml version="1.0" encoding="UTF-8" standalone="no"?>
<!DOCTYPE svg PUBLIC "-//W3C//DTD SVG 1.1//EN"
 "http://www.w3.org/Graphics/SVG/1.1/DTD/svg11.dtd">
<!-- Generated by graphviz version 2.48.0 (0)
 -->
<!-- Title: modbusEndRequestRTU Pages: 1 -->
<svg width="255pt" height="66pt"
 viewBox="0.00 0.00 255.00 66.00" xmlns="http://www.w3.org/2000/svg" xmlns:xlink="http://www.w3.org/1999/xlink">
<g id="graph0" class="graph" transform="scale(1 1) rotate(0) translate(4 62)">
<title>modbusEndRequestRTU</title>
<!-- Node1 -->
<g id="node1" class="node">
<title>Node1</title>
<g id="a_node1"><a xlink:title="Finalizes a Modbus RTU request.">
<polygon fill="#bfbfbf" stroke="black" points="0,-19.5 0,-38.5 134,-38.5 134,-19.5 0,-19.5"/>
<text text-anchor="middle" x="67" y="-26.5" font-family="Helvetica,sans-Serif" font-size="10.00">modbusEndRequestRTU</text>
</a>
</g>
</g>
<!-- Node2 -->
<g id="node2" class="node">
<title>Node2</title>
<g id="a_node2"><a xlink:href="base_8h.html#a11346a546b84663cd92cb30f4ffd1393" target="_top" xlink:title="Calculates 16&#45;bit Modbus CRC of provided data.">
<polygon fill="none" stroke="black" points="170.5,-38.5 170.5,-57.5 246.5,-57.5 246.5,-38.5 170.5,-38.5"/>
<text text-anchor="middle" x="208.5" y="-45.5" font-family="Helvetica,sans-Serif" font-size="10.00">modbusCRC</text>
</a>
</g>
</g>
<!-- Node1&#45;&gt;Node2 -->
<g id="edge1" class="edge">
<title>Node1&#45;&gt;Node2</title>
<path fill="none" stroke="midnightblue" d="M134.07,-38C142.88,-39.2 151.78,-40.41 160.18,-41.55"/>
<polygon fill="midnightblue" stroke="midnightblue" points="159.77,-45.03 170.15,-42.91 160.71,-38.1 159.77,-45.03"/>
</g>
<!-- Node3 -->
<g id="node3" class="node">
<title>Node3</title>
<g id="a_node3"><a xlink:href="base_8h.html#a0d0b3f5227ad052c53cf754ce32820fd" target="_top" xlink:title="Safely writes a little&#45;endian 16&#45;bit word to provided pointer.">
<polygon fill="none" stroke="black" points="170,-0.5 170,-19.5 247,-19.5 247,-0.5 170,-0.5"/>
<text text-anchor="middle" x="208.5" y="-7.5" font-family="Helvetica,sans-Serif" font-size="10.00">modbusWLE</text>
</a>
</g>
</g>
<!-- Node1&#45;&gt;Node3 -->
<g id="edge2" class="edge">
<title>Node1&#45;&gt;Node3</title>
<path fill="none" stroke="midnightblue" d="M134.07,-20C142.69,-18.83 151.38,-17.64 159.62,-16.52"/>
<polygon fill="midnightblue" stroke="midnightblue" points="160.33,-19.96 169.77,-15.14 159.39,-13.02 160.33,-19.96"/>
</g>
</g>
</svg>
