<?xml version="1.0" encoding="UTF-8" standalone="no"?>
<!DOCTYPE svg PUBLIC "-//W3C//DTD SVG 1.1//EN"
 "http://www.w3.org/Graphics/SVG/1.1/DTD/svg11.dtd">
<!-- Generated by graphviz version 2.44.0 ()
 -->
<!-- Title: modbusBuildRequest16 Pages: 1 -->
<svg width="315pt" height="66pt"
 viewBox="0.00 0.00 315.00 66.00" xmlns="http://www.w3.org/2000/svg" xmlns:xlink="http://www.w3.org/1999/xlink">
<g id="graph0" class="graph" transform="scale(1 1) rotate(0) translate(4 62)">
<title>modbusBuildRequest16</title>
<!-- Node1 -->
<g id="node1" class="node">
<title>Node1</title>
<g id="a_node1"><a xlink:title="Write multiple holding registers.">
<polygon fill="#bfbfbf" stroke="black" points="0,-19.5 0,-38.5 119,-38.5 119,-19.5 0,-19.5"/>
<text text-anchor="middle" x="59.5" y="-26.5" font-family="Helvetica,sans-Serif" font-size="10.00">modbusBuildRequest16</text>
</a>
</g>
</g>
<!-- Node2 -->
<g id="node2" class="node">
<title>Node2</title>
<g id="a_node2"><a xlink:href="master_8h.html#a2f754195d448ab90661dd55351064e59" target="_top" xlink:title="Allocates memory for the request frame.">
<polygon fill="none" stroke="black" points="155,-38.5 155,-57.5 307,-57.5 307,-38.5 155,-38.5"/>
<text text-anchor="middle" x="231" y="-45.5" font-family="Helvetica,sans-Serif" font-size="10.00">modbusMasterAllocateRequest</text>
</a>
</g>
</g>
<!-- Node1&#45;&gt;Node2 -->
<g id="edge1" class="edge">
<title>Node1&#45;&gt;Node2</title>
<path fill="none" stroke="midnightblue" d="M119.31,-35.59C127.55,-36.52 136.16,-37.48 144.78,-38.45"/>
<polygon fill="midnightblue" stroke="midnightblue" points="144.55,-41.94 154.88,-39.58 145.33,-34.99 144.55,-41.94"/>
</g>
<!-- Node3 -->
<g id="node3" class="node">
<title>Node3</title>
<g id="a_node3"><a xlink:href="base_8h.html#ae117274d7263b4d1bc696eb1874b3279" target="_top" xlink:title="Safely writes a big&#45;endian 16&#45;bit word to provided pointer.">
<polygon fill="none" stroke="black" points="194.5,-0.5 194.5,-19.5 267.5,-19.5 267.5,-0.5 194.5,-0.5"/>
<text text-anchor="middle" x="231" y="-7.5" font-family="Helvetica,sans-Serif" font-size="10.00">modbusWBE</text>
</a>
</g>
</g>
<!-- Node1&#45;&gt;Node3 -->
<g id="edge2" class="edge">
<title>Node1&#45;&gt;Node3</title>
<path fill="none" stroke="midnightblue" d="M119.31,-22.41C140.48,-20.03 164.04,-17.39 183.96,-15.16"/>
<polygon fill="midnightblue" stroke="midnightblue" points="184.47,-18.63 194.02,-14.03 183.69,-11.67 184.47,-18.63"/>
</g>
</g>
</svg>
