<?xml version="1.0" encoding="UTF-8" standalone="no"?>
<!DOCTYPE svg PUBLIC "-//W3C//DTD SVG 1.1//EN"
 "http://www.w3.org/Graphics/SVG/1.1/DTD/svg11.dtd">
<!-- Generated by graphviz version 2.48.0 (0)
 -->
<!-- Title: modbusBuildRequest01020304 Pages: 1 -->
<svg width="344pt" height="142pt"
 viewBox="0.00 0.00 344.00 142.00" xmlns="http://www.w3.org/2000/svg" xmlns:xlink="http://www.w3.org/1999/xlink">
<g id="graph0" class="graph" transform="scale(1 1) rotate(0) translate(4 138)">
<title>modbusBuildRequest01020304</title>
<!-- Node1 -->
<g id="node1" class="node">
<title>Node1</title>
<g id="a_node1"><a xlink:title="Read mutiple coils/discrete inputs/holding registers/input registers.">
<polygon fill="#bfbfbf" stroke="black" points="168,-57.5 168,-76.5 336,-76.5 336,-57.5 168,-57.5"/>
<text text-anchor="middle" x="252" y="-64.5" font-family="Helvetica,sans-Serif" font-size="10.00">modbusBuildRequest01020304</text>
</a>
</g>
</g>
<!-- Node2 -->
<g id="node2" class="node">
<title>Node2</title>
<g id="a_node2"><a xlink:href="master__func_8h.html#a899edde7b2c063fff4fc952f009eff6f" target="_top" xlink:title="Read multiple coils.">
<polygon fill="none" stroke="black" points="0,-114.5 0,-133.5 132,-133.5 132,-114.5 0,-114.5"/>
<text text-anchor="middle" x="66" y="-121.5" font-family="Helvetica,sans-Serif" font-size="10.00">modbusBuildRequest01</text>
</a>
</g>
</g>
<!-- Node1&#45;&gt;Node2 -->
<g id="edge1" class="edge">
<title>Node1&#45;&gt;Node2</title>
<path fill="none" stroke="midnightblue" d="M211.91,-79.75C188.73,-87.25 158.74,-96.82 132,-105 121.66,-108.16 110.35,-111.51 100.11,-114.49"/>
<polygon fill="midnightblue" stroke="midnightblue" points="213.29,-82.98 221.72,-76.57 211.13,-76.32 213.29,-82.98"/>
</g>
<!-- Node3 -->
<g id="node3" class="node">
<title>Node3</title>
<g id="a_node3"><a xlink:href="master__func_8h.html#a7d26baeb0dae90a0a1c9e48732baa431" target="_top" xlink:title="Read multiple discrete inputs.">
<polygon fill="none" stroke="black" points="0,-76.5 0,-95.5 132,-95.5 132,-76.5 0,-76.5"/>
<text text-anchor="middle" x="66" y="-83.5" font-family="Helvetica,sans-Serif" font-size="10.00">modbusBuildRequest02</text>
</a>
</g>
</g>
<!-- Node1&#45;&gt;Node3 -->
<g id="edge2" class="edge">
<title>Node1&#45;&gt;Node3</title>
<path fill="none" stroke="midnightblue" d="M157.73,-76.63C149.07,-77.53 140.42,-78.42 132.1,-79.28"/>
<polygon fill="midnightblue" stroke="midnightblue" points="158.29,-80.09 167.88,-75.58 157.58,-73.13 158.29,-80.09"/>
</g>
<!-- Node4 -->
<g id="node4" class="node">
<title>Node4</title>
<g id="a_node4"><a xlink:href="master__func_8h.html#a48714bd3a58663857b26202575e33031" target="_top" xlink:title="Read multiple holding registers.">
<polygon fill="none" stroke="black" points="0,-38.5 0,-57.5 132,-57.5 132,-38.5 0,-38.5"/>
<text text-anchor="middle" x="66" y="-45.5" font-family="Helvetica,sans-Serif" font-size="10.00">modbusBuildRequest03</text>
</a>
</g>
</g>
<!-- Node1&#45;&gt;Node4 -->
<g id="edge3" class="edge">
<title>Node1&#45;&gt;Node4</title>
<path fill="none" stroke="midnightblue" d="M157.73,-57.37C149.07,-56.47 140.42,-55.58 132.1,-54.72"/>
<polygon fill="midnightblue" stroke="midnightblue" points="157.58,-60.87 167.88,-58.42 158.29,-53.91 157.58,-60.87"/>
</g>
<!-- Node5 -->
<g id="node5" class="node">
<title>Node5</title>
<g id="a_node5"><a xlink:href="master__func_8h.html#ae3c3a0a196c531187f89368f9f9773fe" target="_top" xlink:title="Read multiple input registers.">
<polygon fill="none" stroke="black" points="0,-0.5 0,-19.5 132,-19.5 132,-0.5 0,-0.5"/>
<text text-anchor="middle" x="66" y="-7.5" font-family="Helvetica,sans-Serif" font-size="10.00">modbusBuildRequest04</text>
</a>
</g>
</g>
<!-- Node1&#45;&gt;Node5 -->
<g id="edge4" class="edge">
<title>Node1&#45;&gt;Node5</title>
<path fill="none" stroke="midnightblue" d="M211.91,-54.25C188.73,-46.75 158.74,-37.18 132,-29 121.66,-25.84 110.35,-22.49 100.11,-19.51"/>
<polygon fill="midnightblue" stroke="midnightblue" points="211.13,-57.68 221.72,-57.43 213.29,-51.02 211.13,-57.68"/>
</g>
</g>
</svg>
