<?xml version="1.0" encoding="UTF-8" standalone="no"?>
<!DOCTYPE svg PUBLIC "-//W3C//DTD SVG 1.1//EN"
 "http://www.w3.org/Graphics/SVG/1.1/DTD/svg11.dtd">
<!-- Generated by graphviz version 2.48.0 (0)
 -->
<!-- Title: modbusParseResponse01020304 Pages: 1 -->
<svg width="335pt" height="104pt"
 viewBox="0.00 0.00 335.00 104.00" xmlns="http://www.w3.org/2000/svg" xmlns:xlink="http://www.w3.org/1999/xlink">
<g id="graph0" class="graph" transform="scale(1 1) rotate(0) translate(4 100)">
<title>modbusParseResponse01020304</title>
<!-- Node1 -->
<g id="node1" class="node">
<title>Node1</title>
<g id="a_node1"><a xlink:title="Parses response to requests 01, 02, 03 and 04.">
<polygon fill="#bfbfbf" stroke="black" points="0,-38.5 0,-57.5 178,-57.5 178,-38.5 0,-38.5"/>
<text text-anchor="middle" x="89" y="-45.5" font-family="Helvetica,sans-Serif" font-size="10.00">modbusParseResponse01020304</text>
</a>
</g>
</g>
<!-- Node2 -->
<g id="node2" class="node">
<title>Node2</title>
<g id="a_node2"><a xlink:href="base_8h.html#a98cb625b5c4b9ee5d7f529650c4d9112" target="_top" xlink:title="Returns number of bytes necessary to hold given number of bits.">
<polygon fill="none" stroke="black" points="214,-76.5 214,-95.5 327,-95.5 327,-76.5 214,-76.5"/>
<text text-anchor="middle" x="270.5" y="-83.5" font-family="Helvetica,sans-Serif" font-size="10.00">modbusBitsToBytes</text>
</a>
</g>
</g>
<!-- Node1&#45;&gt;Node2 -->
<g id="edge1" class="edge">
<title>Node1&#45;&gt;Node2</title>
<path fill="none" stroke="midnightblue" d="M135.3,-57.59C159.41,-62.69 189.25,-69.01 214.67,-74.39"/>
<polygon fill="midnightblue" stroke="midnightblue" points="214.02,-77.83 224.53,-76.48 215.47,-70.98 214.02,-77.83"/>
</g>
<!-- Node3 -->
<g id="node3" class="node">
<title>Node3</title>
<g id="a_node3"><a xlink:href="base_8h.html#ad0d4b7190cf5fcc183f3656ce1c03b0b" target="_top" xlink:title="Reads n&#45;th bit from an array.">
<polygon fill="none" stroke="black" points="217,-38.5 217,-57.5 324,-57.5 324,-38.5 217,-38.5"/>
<text text-anchor="middle" x="270.5" y="-45.5" font-family="Helvetica,sans-Serif" font-size="10.00">modbusMaskRead</text>
</a>
</g>
</g>
<!-- Node1&#45;&gt;Node3 -->
<g id="edge2" class="edge">
<title>Node1&#45;&gt;Node3</title>
<path fill="none" stroke="midnightblue" d="M178.17,-48C187.71,-48 197.26,-48 206.41,-48"/>
<polygon fill="midnightblue" stroke="midnightblue" points="206.55,-51.5 216.55,-48 206.55,-44.5 206.55,-51.5"/>
</g>
<!-- Node4 -->
<g id="node4" class="node">
<title>Node4</title>
<g id="a_node4"><a xlink:href="base_8h.html#a724223277fcf6255904a91f181aa1ac8" target="_top" xlink:title="Safely reads a big&#45;endian 16&#45;bit word from provided pointer.">
<polygon fill="none" stroke="black" points="233,-0.5 233,-19.5 308,-19.5 308,-0.5 233,-0.5"/>
<text text-anchor="middle" x="270.5" y="-7.5" font-family="Helvetica,sans-Serif" font-size="10.00">modbusRBE</text>
</a>
</g>
</g>
<!-- Node1&#45;&gt;Node4 -->
<g id="edge3" class="edge">
<title>Node1&#45;&gt;Node4</title>
<path fill="none" stroke="midnightblue" d="M135.3,-38.41C162.09,-32.74 195.97,-25.57 222.98,-19.85"/>
<polygon fill="midnightblue" stroke="midnightblue" points="223.91,-23.23 232.97,-17.73 222.46,-16.38 223.91,-23.23"/>
</g>
</g>
</svg>
