<?xml version="1.0" encoding="UTF-8" standalone="no"?>
<!DOCTYPE svg PUBLIC "-//W3C//DTD SVG 1.1//EN"
 "http://www.w3.org/Graphics/SVG/1.1/DTD/svg11.dtd">
<!-- Generated by graphviz version 2.48.0 (0)
 -->
<!-- Title: include/lightmodbus/master.h Pages: 1 -->
<svg width="313pt" height="240pt"
 viewBox="0.00 0.00 313.38 240.00" xmlns="http://www.w3.org/2000/svg" xmlns:xlink="http://www.w3.org/1999/xlink">
<g id="graph0" class="graph" transform="scale(1 1) rotate(0) translate(4 236)">
<title>include/lightmodbus/master.h</title>
<!-- Node1 -->
<g id="node1" class="node">
<title>Node1</title>
<g id="a_node1"><a xlink:title=" ">
<polygon fill="#bfbfbf" stroke="black" points="60.38,-201.5 60.38,-231.5 176.38,-231.5 176.38,-201.5 60.38,-201.5"/>
<text text-anchor="start" x="68.38" y="-219.5" font-family="Helvetica,sans-Serif" font-size="10.00">include/lightmodbus</text>
<text text-anchor="middle" x="118.38" y="-208.5" font-family="Helvetica,sans-Serif" font-size="10.00">/master.h</text>
</a>
</g>
</g>
<!-- Node2 -->
<g id="node2" class="node">
<title>Node2</title>
<g id="a_node2"><a xlink:href="lightmodbus_8h.html" target="_top" xlink:title=" ">
<polygon fill="none" stroke="black" points="60.38,-0.5 60.38,-30.5 176.38,-30.5 176.38,-0.5 60.38,-0.5"/>
<text text-anchor="start" x="68.38" y="-18.5" font-family="Helvetica,sans-Serif" font-size="10.00">include/lightmodbus</text>
<text text-anchor="middle" x="118.38" y="-7.5" font-family="Helvetica,sans-Serif" font-size="10.00">/lightmodbus.h</text>
</a>
</g>
</g>
<!-- Node1&#45;&gt;Node2 -->
<g id="edge1" class="edge">
<title>Node1&#45;&gt;Node2</title>
<path fill="none" stroke="midnightblue" d="M85.54,-196.04C42.93,-168.22 -22.49,-115.13 8.38,-67 20.12,-48.69 40.34,-36.93 60.28,-29.42"/>
<polygon fill="midnightblue" stroke="midnightblue" points="83.66,-198.99 93.98,-201.41 87.43,-193.09 83.66,-198.99"/>
</g>
<!-- Node3 -->
<g id="node3" class="node">
<title>Node3</title>
<g id="a_node3"><a xlink:href="master_8impl_8h.html" target="_top" xlink:title=" ">
<polygon fill="none" stroke="black" points="17.38,-67.5 17.38,-97.5 133.38,-97.5 133.38,-67.5 17.38,-67.5"/>
<text text-anchor="start" x="25.38" y="-85.5" font-family="Helvetica,sans-Serif" font-size="10.00">include/lightmodbus</text>
<text text-anchor="middle" x="75.38" y="-74.5" font-family="Helvetica,sans-Serif" font-size="10.00">/master.impl.h</text>
</a>
</g>
</g>
<!-- Node1&#45;&gt;Node3 -->
<g id="edge2" class="edge">
<title>Node1&#45;&gt;Node3</title>
<path fill="none" stroke="midnightblue" d="M105.97,-192.1C101.87,-183.72 97.55,-174.09 94.38,-165 86.32,-141.96 80.65,-114.06 77.71,-97.6"/>
<polygon fill="midnightblue" stroke="midnightblue" points="102.96,-193.91 110.6,-201.26 109.21,-190.76 102.96,-193.91"/>
</g>
<!-- Node4 -->
<g id="node4" class="node">
<title>Node4</title>
<g id="a_node4"><a xlink:href="master__func_8h.html" target="_top" xlink:title=" ">
<polygon fill="none" stroke="black" points="103.38,-134.5 103.38,-164.5 219.38,-164.5 219.38,-134.5 103.38,-134.5"/>
<text text-anchor="start" x="111.38" y="-152.5" font-family="Helvetica,sans-Serif" font-size="10.00">include/lightmodbus</text>
<text text-anchor="middle" x="161.38" y="-141.5" font-family="Helvetica,sans-Serif" font-size="10.00">/master_func.h</text>
</a>
</g>
</g>
<!-- Node1&#45;&gt;Node4 -->
<g id="edge4" class="edge">
<title>Node1&#45;&gt;Node4</title>
<path fill="none" stroke="midnightblue" d="M133.35,-192.87C139.57,-183.46 146.6,-172.83 152.06,-164.58"/>
<polygon fill="midnightblue" stroke="midnightblue" points="130.3,-191.12 127.71,-201.4 136.14,-194.99 130.3,-191.12"/>
</g>
<!-- Node5 -->
<g id="node5" class="node">
<title>Node5</title>
<g id="a_node5"><a xlink:href="master__func_8impl_8h.html" target="_top" xlink:title=" ">
<polygon fill="none" stroke="black" points="189.38,-67.5 189.38,-97.5 305.38,-97.5 305.38,-67.5 189.38,-67.5"/>
<text text-anchor="start" x="197.38" y="-85.5" font-family="Helvetica,sans-Serif" font-size="10.00">include/lightmodbus</text>
<text text-anchor="middle" x="247.38" y="-74.5" font-family="Helvetica,sans-Serif" font-size="10.00">/master_func.impl.h</text>
</a>
</g>
</g>
<!-- Node1&#45;&gt;Node5 -->
<g id="edge9" class="edge">
<title>Node1&#45;&gt;Node5</title>
<path fill="none" stroke="midnightblue" d="M182.62,-197.57C199.64,-190.01 216.55,-179.49 228.38,-165 244.27,-145.53 247.36,-115.16 247.69,-97.51"/>
<polygon fill="midnightblue" stroke="midnightblue" points="181.09,-194.41 173.19,-201.47 183.77,-200.88 181.09,-194.41"/>
</g>
<!-- Node3&#45;&gt;Node2 -->
<g id="edge3" class="edge">
<title>Node3&#45;&gt;Node2</title>
<path fill="none" stroke="midnightblue" d="M90.35,-58.87C96.57,-49.46 103.6,-38.83 109.06,-30.58"/>
<polygon fill="midnightblue" stroke="midnightblue" points="87.3,-57.12 84.71,-67.4 93.14,-60.99 87.3,-57.12"/>
</g>
<!-- Node4&#45;&gt;Node2 -->
<g id="edge5" class="edge">
<title>Node4&#45;&gt;Node2</title>
<path fill="none" stroke="midnightblue" d="M157.19,-124.51C153.98,-108.07 148.98,-85.9 142.38,-67 137.95,-54.35 131.33,-40.67 126.15,-30.74"/>
<polygon fill="midnightblue" stroke="midnightblue" points="153.76,-125.21 159.04,-134.4 160.64,-123.92 153.76,-125.21"/>
</g>
<!-- Node4&#45;&gt;Node3 -->
<g id="edge6" class="edge">
<title>Node4&#45;&gt;Node3</title>
<path fill="none" stroke="midnightblue" d="M134.47,-128.17C121.32,-118.23 105.83,-106.51 94,-97.58"/>
<polygon fill="midnightblue" stroke="midnightblue" points="132.63,-131.16 142.72,-134.4 136.85,-125.57 132.63,-131.16"/>
</g>
<!-- Node4&#45;&gt;Node5 -->
<g id="edge7" class="edge">
<title>Node4&#45;&gt;Node5</title>
<path fill="none" stroke="midnightblue" d="M188.28,-128.17C201.43,-118.23 216.93,-106.51 228.75,-97.58"/>
<polygon fill="midnightblue" stroke="midnightblue" points="185.9,-125.57 180.04,-134.4 190.12,-131.16 185.9,-125.57"/>
</g>
<!-- Node5&#45;&gt;Node2 -->
<g id="edge8" class="edge">
<title>Node5&#45;&gt;Node2</title>
<path fill="none" stroke="midnightblue" d="M210.37,-62.85C189.97,-52.58 165.06,-40.03 146.31,-30.58"/>
<polygon fill="midnightblue" stroke="midnightblue" points="208.88,-66.02 219.38,-67.4 212.03,-59.77 208.88,-66.02"/>
</g>
</g>
</svg>
