<?xml version="1.0" encoding="UTF-8" standalone="no"?>
<!DOCTYPE svg PUBLIC "-//W3C//DTD SVG 1.1//EN"
 "http://www.w3.org/Graphics/SVG/1.1/DTD/svg11.dtd">
<!-- Generated by graphviz version 2.48.0 (0)
 -->
<!-- Title: modbusMasterAllocateRequest Pages: 1 -->
<svg width="549pt" height="332pt"
 viewBox="0.00 0.00 549.00 332.00" xmlns="http://www.w3.org/2000/svg" xmlns:xlink="http://www.w3.org/1999/xlink">
<g id="graph0" class="graph" transform="scale(1 1) rotate(0) translate(4 328)">
<title>modbusMasterAllocateRequest</title>
<!-- Node1 -->
<g id="node1" class="node">
<title>Node1</title>
<g id="a_node1"><a xlink:title="Allocates memory for the request frame.">
<polygon fill="#bfbfbf" stroke="black" points="372,-95.5 372,-114.5 541,-114.5 541,-95.5 372,-95.5"/>
<text text-anchor="middle" x="456.5" y="-102.5" font-family="Helvetica,sans-Serif" font-size="10.00">modbusMasterAllocateRequest</text>
</a>
</g>
</g>
<!-- Node2 -->
<g id="node2" class="node">
<title>Node2</title>
<g id="a_node2"><a xlink:href="master__func_8h.html#ad3a6d4576d762da3eb0bd73aa5bb24fe" target="_top" xlink:title="Read mutiple coils/discrete inputs/holding registers/input registers.">
<polygon fill="none" stroke="black" points="168,-228.5 168,-247.5 336,-247.5 336,-228.5 168,-228.5"/>
<text text-anchor="middle" x="252" y="-235.5" font-family="Helvetica,sans-Serif" font-size="10.00">modbusBuildRequest01020304</text>
</a>
</g>
</g>
<!-- Node1&#45;&gt;Node2 -->
<g id="edge1" class="edge">
<title>Node1&#45;&gt;Node2</title>
<path fill="none" stroke="midnightblue" d="M432.47,-120.12C390.48,-147.71 302.57,-205.44 267.7,-228.34"/>
<polygon fill="midnightblue" stroke="midnightblue" points="434.5,-122.98 440.94,-114.57 430.66,-117.13 434.5,-122.98"/>
</g>
<!-- Node7 -->
<g id="node7" class="node">
<title>Node7</title>
<g id="a_node7"><a xlink:href="master__func_8h.html#a5309a3003ea2d248e51193e75ab30044" target="_top" xlink:title="Write single coil/holding register.">
<polygon fill="none" stroke="black" points="180,-152.5 180,-171.5 324,-171.5 324,-152.5 180,-152.5"/>
<text text-anchor="middle" x="252" y="-159.5" font-family="Helvetica,sans-Serif" font-size="10.00">modbusBuildRequest0506</text>
</a>
</g>
</g>
<!-- Node1&#45;&gt;Node7 -->
<g id="edge6" class="edge">
<title>Node1&#45;&gt;Node7</title>
<path fill="none" stroke="midnightblue" d="M418.13,-117.76C394.69,-125.55 363.75,-135.43 336,-143 323.74,-146.35 310.34,-149.59 297.97,-152.42"/>
<polygon fill="midnightblue" stroke="midnightblue" points="419.31,-121.06 427.69,-114.57 417.09,-114.42 419.31,-121.06"/>
</g>
<!-- Node10 -->
<g id="node10" class="node">
<title>Node10</title>
<g id="a_node10"><a xlink:href="master__func_8h.html#a0870a4601ed4e853673660ce94e6361c" target="_top" xlink:title="Write multiple coils.">
<polygon fill="none" stroke="black" points="186,-114.5 186,-133.5 318,-133.5 318,-114.5 186,-114.5"/>
<text text-anchor="middle" x="252" y="-121.5" font-family="Helvetica,sans-Serif" font-size="10.00">modbusBuildRequest15</text>
</a>
</g>
</g>
<!-- Node1&#45;&gt;Node10 -->
<g id="edge9" class="edge">
<title>Node1&#45;&gt;Node10</title>
<path fill="none" stroke="midnightblue" d="M361.79,-113.79C347.02,-115.18 332.03,-116.58 318.09,-117.89"/>
<polygon fill="midnightblue" stroke="midnightblue" points="362.34,-117.26 371.97,-112.84 361.68,-110.29 362.34,-117.26"/>
</g>
<!-- Node11 -->
<g id="node11" class="node">
<title>Node11</title>
<g id="a_node11"><a xlink:href="master__func_8h.html#a2268e967480c9281b88760dc752e5fa1" target="_top" xlink:title="Write multiple holding registers.">
<polygon fill="none" stroke="black" points="186,-76.5 186,-95.5 318,-95.5 318,-76.5 186,-76.5"/>
<text text-anchor="middle" x="252" y="-83.5" font-family="Helvetica,sans-Serif" font-size="10.00">modbusBuildRequest16</text>
</a>
</g>
</g>
<!-- Node1&#45;&gt;Node11 -->
<g id="edge10" class="edge">
<title>Node1&#45;&gt;Node11</title>
<path fill="none" stroke="midnightblue" d="M361.79,-96.21C347.02,-94.82 332.03,-93.42 318.09,-92.11"/>
<polygon fill="midnightblue" stroke="midnightblue" points="361.68,-99.71 371.97,-97.16 362.34,-92.74 361.68,-99.71"/>
</g>
<!-- Node12 -->
<g id="node12" class="node">
<title>Node12</title>
<g id="a_node12"><a xlink:href="master__func_8h.html#a1e2e9087a1bd52b7d1329b05324339e6" target="_top" xlink:title="Mask write register request.">
<polygon fill="none" stroke="black" points="186,-38.5 186,-57.5 318,-57.5 318,-38.5 186,-38.5"/>
<text text-anchor="middle" x="252" y="-45.5" font-family="Helvetica,sans-Serif" font-size="10.00">modbusBuildRequest22</text>
</a>
</g>
</g>
<!-- Node1&#45;&gt;Node12 -->
<g id="edge11" class="edge">
<title>Node1&#45;&gt;Node12</title>
<path fill="none" stroke="midnightblue" d="M418.13,-92.24C394.69,-84.45 363.75,-74.57 336,-67 323.74,-63.65 310.34,-60.41 297.97,-57.58"/>
<polygon fill="midnightblue" stroke="midnightblue" points="417.09,-95.58 427.69,-95.43 419.31,-88.94 417.09,-95.58"/>
</g>
<!-- Node13 -->
<g id="node13" class="node">
<title>Node13</title>
<g id="a_node13"><a xlink:href="master_8h.html#a5fe38fae0f89de04fa616d105f660d25" target="_top" xlink:title="Deinitializes a ModbusMaster struct.">
<polygon fill="none" stroke="black" points="188,-0.5 188,-19.5 316,-19.5 316,-0.5 188,-0.5"/>
<text text-anchor="middle" x="252" y="-7.5" font-family="Helvetica,sans-Serif" font-size="10.00">modbusMasterDestroy</text>
</a>
</g>
</g>
<!-- Node1&#45;&gt;Node13 -->
<g id="edge12" class="edge">
<title>Node1&#45;&gt;Node13</title>
<path fill="none" stroke="midnightblue" d="M435.16,-88.97C412.3,-71.72 373.45,-44.65 336,-29 326.86,-25.18 316.82,-22.06 306.98,-19.53"/>
<polygon fill="midnightblue" stroke="midnightblue" points="433.32,-91.97 443.38,-95.28 437.58,-86.41 433.32,-91.97"/>
</g>
<!-- Node3 -->
<g id="node3" class="node">
<title>Node3</title>
<g id="a_node3"><a xlink:href="master__func_8h.html#a899edde7b2c063fff4fc952f009eff6f" target="_top" xlink:title="Read multiple coils.">
<polygon fill="none" stroke="black" points="0,-304.5 0,-323.5 132,-323.5 132,-304.5 0,-304.5"/>
<text text-anchor="middle" x="66" y="-311.5" font-family="Helvetica,sans-Serif" font-size="10.00">modbusBuildRequest01</text>
</a>
</g>
</g>
<!-- Node2&#45;&gt;Node3 -->
<g id="edge2" class="edge">
<title>Node2&#45;&gt;Node3</title>
<path fill="none" stroke="midnightblue" d="M224.16,-252.4C200.4,-264.78 164.53,-282.55 132,-295 122.89,-298.49 112.85,-301.71 103.45,-304.48"/>
<polygon fill="midnightblue" stroke="midnightblue" points="226.03,-255.37 233.26,-247.62 222.78,-249.18 226.03,-255.37"/>
</g>
<!-- Node4 -->
<g id="node4" class="node">
<title>Node4</title>
<g id="a_node4"><a xlink:href="master__func_8h.html#a7d26baeb0dae90a0a1c9e48732baa431" target="_top" xlink:title="Read multiple discrete inputs.">
<polygon fill="none" stroke="black" points="0,-266.5 0,-285.5 132,-285.5 132,-266.5 0,-266.5"/>
<text text-anchor="middle" x="66" y="-273.5" font-family="Helvetica,sans-Serif" font-size="10.00">modbusBuildRequest02</text>
</a>
</g>
</g>
<!-- Node2&#45;&gt;Node4 -->
<g id="edge3" class="edge">
<title>Node2&#45;&gt;Node4</title>
<path fill="none" stroke="midnightblue" d="M194.44,-249.68C168.35,-255.07 137.76,-261.39 113.1,-266.48"/>
<polygon fill="midnightblue" stroke="midnightblue" points="195.48,-253.04 204.57,-247.59 194.07,-246.18 195.48,-253.04"/>
</g>
<!-- Node5 -->
<g id="node5" class="node">
<title>Node5</title>
<g id="a_node5"><a xlink:href="master__func_8h.html#a48714bd3a58663857b26202575e33031" target="_top" xlink:title="Read multiple holding registers.">
<polygon fill="none" stroke="black" points="0,-228.5 0,-247.5 132,-247.5 132,-228.5 0,-228.5"/>
<text text-anchor="middle" x="66" y="-235.5" font-family="Helvetica,sans-Serif" font-size="10.00">modbusBuildRequest03</text>
</a>
</g>
</g>
<!-- Node2&#45;&gt;Node5 -->
<g id="edge4" class="edge">
<title>Node2&#45;&gt;Node5</title>
<path fill="none" stroke="midnightblue" d="M157.73,-238C149.07,-238 140.42,-238 132.1,-238"/>
<polygon fill="midnightblue" stroke="midnightblue" points="157.88,-241.5 167.88,-238 157.88,-234.5 157.88,-241.5"/>
</g>
<!-- Node6 -->
<g id="node6" class="node">
<title>Node6</title>
<g id="a_node6"><a xlink:href="master__func_8h.html#ae3c3a0a196c531187f89368f9f9773fe" target="_top" xlink:title="Read multiple input registers.">
<polygon fill="none" stroke="black" points="0,-190.5 0,-209.5 132,-209.5 132,-190.5 0,-190.5"/>
<text text-anchor="middle" x="66" y="-197.5" font-family="Helvetica,sans-Serif" font-size="10.00">modbusBuildRequest04</text>
</a>
</g>
</g>
<!-- Node2&#45;&gt;Node6 -->
<g id="edge5" class="edge">
<title>Node2&#45;&gt;Node6</title>
<path fill="none" stroke="midnightblue" d="M194.44,-226.32C168.35,-220.93 137.76,-214.61 113.1,-209.52"/>
<polygon fill="midnightblue" stroke="midnightblue" points="194.07,-229.82 204.57,-228.41 195.48,-222.96 194.07,-229.82"/>
</g>
<!-- Node8 -->
<g id="node8" class="node">
<title>Node8</title>
<g id="a_node8"><a xlink:href="master__func_8h.html#ac76dcec4fbebbc94983dec6adac2d7e2" target="_top" xlink:title="Write single coil.">
<polygon fill="none" stroke="black" points="0,-152.5 0,-171.5 132,-171.5 132,-152.5 0,-152.5"/>
<text text-anchor="middle" x="66" y="-159.5" font-family="Helvetica,sans-Serif" font-size="10.00">modbusBuildRequest05</text>
</a>
</g>
</g>
<!-- Node7&#45;&gt;Node8 -->
<g id="edge7" class="edge">
<title>Node7&#45;&gt;Node8</title>
<path fill="none" stroke="midnightblue" d="M169.85,-162C157.26,-162 144.4,-162 132.23,-162"/>
<polygon fill="midnightblue" stroke="midnightblue" points="169.86,-165.5 179.86,-162 169.86,-158.5 169.86,-165.5"/>
</g>
<!-- Node9 -->
<g id="node9" class="node">
<title>Node9</title>
<g id="a_node9"><a xlink:href="master__func_8h.html#acb8640cff5648bad748c4d248b9be75e" target="_top" xlink:title="Write single holding register.">
<polygon fill="none" stroke="black" points="0,-114.5 0,-133.5 132,-133.5 132,-114.5 0,-114.5"/>
<text text-anchor="middle" x="66" y="-121.5" font-family="Helvetica,sans-Serif" font-size="10.00">modbusBuildRequest06</text>
</a>
</g>
</g>
<!-- Node7&#45;&gt;Node9 -->
<g id="edge8" class="edge">
<title>Node7&#45;&gt;Node9</title>
<path fill="none" stroke="midnightblue" d="M194.44,-150.32C168.35,-144.93 137.76,-138.61 113.1,-133.52"/>
<polygon fill="midnightblue" stroke="midnightblue" points="194.07,-153.82 204.57,-152.41 195.48,-146.96 194.07,-153.82"/>
</g>
</g>
</svg>
