<?xml version="1.0" encoding="UTF-8" standalone="no"?>
<!DOCTYPE svg PUBLIC "-//W3C//DTD SVG 1.1//EN"
 "http://www.w3.org/Graphics/SVG/1.1/DTD/svg11.dtd">
<!-- Generated by graphviz version 2.48.0 (0)
 -->
<!-- Title: include/lightmodbus/master_func.h Pages: 1 -->
<svg width="176pt" height="207pt"
 viewBox="0.00 0.00 176.00 207.00" xmlns="http://www.w3.org/2000/svg" xmlns:xlink="http://www.w3.org/1999/xlink">
<g id="graph0" class="graph" transform="scale(1 1) rotate(0) translate(4 203)">
<title>include/lightmodbus/master_func.h</title>
<!-- Node1 -->
<g id="node1" class="node">
<title>Node1</title>
<g id="a_node1"><a xlink:title=" ">
<polygon fill="#bfbfbf" stroke="black" points="0,-168.5 0,-198.5 116,-198.5 116,-168.5 0,-168.5"/>
<text text-anchor="start" x="8" y="-186.5" font-family="Helvetica,sans-Serif" font-size="10.00">include/lightmodbus</text>
<text text-anchor="middle" x="58" y="-175.5" font-family="Helvetica,sans-Serif" font-size="10.00">/master_func.h</text>
</a>
</g>
</g>
<!-- Node2 -->
<g id="node2" class="node">
<title>Node2</title>
<g id="a_node2"><a xlink:href="base_8h.html" target="_top" xlink:title=" ">
<polygon fill="none" stroke="black" points="6.5,-56.5 6.5,-75.5 55.5,-75.5 55.5,-56.5 6.5,-56.5"/>
<text text-anchor="middle" x="31" y="-63.5" font-family="Helvetica,sans-Serif" font-size="10.00">base.h</text>
</a>
</g>
</g>
<!-- Node1&#45;&gt;Node2 -->
<g id="edge1" class="edge">
<title>Node1&#45;&gt;Node2</title>
<path fill="none" stroke="midnightblue" d="M54.69,-168.34C49.82,-147.53 40.74,-108.66 35.34,-85.58"/>
<polygon fill="midnightblue" stroke="midnightblue" points="38.71,-84.61 33.03,-75.67 31.89,-86.2 38.71,-84.61"/>
</g>
<!-- Node4 -->
<g id="node4" class="node">
<title>Node4</title>
<g id="a_node4"><a xlink:href="master_8h.html" target="_top" xlink:title=" ">
<polygon fill="none" stroke="black" points="57,-112.5 57,-131.5 117,-131.5 117,-112.5 57,-112.5"/>
<text text-anchor="middle" x="87" y="-119.5" font-family="Helvetica,sans-Serif" font-size="10.00">master.h</text>
</a>
</g>
</g>
<!-- Node1&#45;&gt;Node4 -->
<g id="edge3" class="edge">
<title>Node1&#45;&gt;Node4</title>
<path fill="none" stroke="midnightblue" d="M64.87,-168.4C68.91,-160.11 74.06,-149.55 78.37,-140.71"/>
<polygon fill="midnightblue" stroke="midnightblue" points="81.55,-142.18 82.78,-131.66 75.25,-139.11 81.55,-142.18"/>
</g>
<!-- Node3 -->
<g id="node3" class="node">
<title>Node3</title>
<g id="a_node3"><a xlink:title=" ">
<polygon fill="none" stroke="#bfbfbf" points="30.5,-0.5 30.5,-19.5 83.5,-19.5 83.5,-0.5 30.5,-0.5"/>
<text text-anchor="middle" x="57" y="-7.5" font-family="Helvetica,sans-Serif" font-size="10.00">stdint.h</text>
</a>
</g>
</g>
<!-- Node2&#45;&gt;Node3 -->
<g id="edge2" class="edge">
<title>Node2&#45;&gt;Node3</title>
<path fill="none" stroke="midnightblue" d="M35.29,-56.08C38.85,-48.69 44.02,-37.95 48.42,-28.81"/>
<polygon fill="midnightblue" stroke="midnightblue" points="51.6,-30.28 52.79,-19.75 45.29,-27.24 51.6,-30.28"/>
</g>
<!-- Node4&#45;&gt;Node2 -->
<g id="edge6" class="edge">
<title>Node4&#45;&gt;Node2</title>
<path fill="none" stroke="midnightblue" d="M78,-112.32C69.81,-104.42 57.49,-92.55 47.53,-82.94"/>
<polygon fill="midnightblue" stroke="midnightblue" points="49.79,-80.26 40.16,-75.83 44.93,-85.29 49.79,-80.26"/>
</g>
<!-- Node4&#45;&gt;Node3 -->
<g id="edge4" class="edge">
<title>Node4&#45;&gt;Node3</title>
<path fill="none" stroke="midnightblue" d="M84.65,-112.37C79.78,-94.54 68.54,-53.3 61.98,-29.27"/>
<polygon fill="midnightblue" stroke="midnightblue" points="65.35,-28.32 59.34,-19.59 58.6,-30.16 65.35,-28.32"/>
</g>
<!-- Node5 -->
<g id="node5" class="node">
<title>Node5</title>
<g id="a_node5"><a xlink:title=" ">
<polygon fill="none" stroke="#bfbfbf" points="112,-56.5 112,-75.5 168,-75.5 168,-56.5 112,-56.5"/>
<text text-anchor="middle" x="140" y="-63.5" font-family="Helvetica,sans-Serif" font-size="10.00">stddef.h</text>
</a>
</g>
</g>
<!-- Node4&#45;&gt;Node5 -->
<g id="edge5" class="edge">
<title>Node4&#45;&gt;Node5</title>
<path fill="none" stroke="midnightblue" d="M95.75,-112.08C103.47,-104.22 114.9,-92.57 124.22,-83.08"/>
<polygon fill="midnightblue" stroke="midnightblue" points="126.9,-85.34 131.41,-75.75 121.91,-80.44 126.9,-85.34"/>
</g>
</g>
</svg>
