<?xml version="1.0" encoding="UTF-8" standalone="no"?>
<!DOCTYPE svg PUBLIC "-//W3C//DTD SVG 1.1//EN"
 "http://www.w3.org/Graphics/SVG/1.1/DTD/svg11.dtd">
<!-- Generated by graphviz version 2.48.0 (0)
 -->
<!-- Title: modbusBuildRequest15 Pages: 1 -->
<svg width="345pt" height="180pt"
 viewBox="0.00 0.00 345.00 180.00" xmlns="http://www.w3.org/2000/svg" xmlns:xlink="http://www.w3.org/1999/xlink">
<g id="graph0" class="graph" transform="scale(1 1) rotate(0) translate(4 176)">
<title>modbusBuildRequest15</title>
<!-- Node1 -->
<g id="node1" class="node">
<title>Node1</title>
<g id="a_node1"><a xlink:title="Write multiple coils.">
<polygon fill="#bfbfbf" stroke="black" points="0,-76.5 0,-95.5 132,-95.5 132,-76.5 0,-76.5"/>
<text text-anchor="middle" x="66" y="-83.5" font-family="Helvetica,sans-Serif" font-size="10.00">modbusBuildRequest15</text>
</a>
</g>
</g>
<!-- Node2 -->
<g id="node2" class="node">
<title>Node2</title>
<g id="a_node2"><a xlink:href="base_8h.html#a98cb625b5c4b9ee5d7f529650c4d9112" target="_top" xlink:title="Returns number of bytes necessary to hold given number of bits.">
<polygon fill="none" stroke="black" points="196,-152.5 196,-171.5 309,-171.5 309,-152.5 196,-152.5"/>
<text text-anchor="middle" x="252.5" y="-159.5" font-family="Helvetica,sans-Serif" font-size="10.00">modbusBitsToBytes</text>
</a>
</g>
</g>
<!-- Node1&#45;&gt;Node2 -->
<g id="edge1" class="edge">
<title>Node1&#45;&gt;Node2</title>
<path fill="none" stroke="midnightblue" d="M81.06,-95.69C100,-108.33 135.13,-130.3 168,-143 174.67,-145.58 181.79,-147.86 188.94,-149.86"/>
<polygon fill="midnightblue" stroke="midnightblue" points="188.13,-153.27 198.69,-152.43 189.91,-146.5 188.13,-153.27"/>
</g>
<!-- Node3 -->
<g id="node3" class="node">
<title>Node3</title>
<g id="a_node3"><a xlink:href="base_8h.html#ad0d4b7190cf5fcc183f3656ce1c03b0b" target="_top" xlink:title="Reads n&#45;th bit from an array.">
<polygon fill="none" stroke="black" points="199,-114.5 199,-133.5 306,-133.5 306,-114.5 199,-114.5"/>
<text text-anchor="middle" x="252.5" y="-121.5" font-family="Helvetica,sans-Serif" font-size="10.00">modbusMaskRead</text>
</a>
</g>
</g>
<!-- Node1&#45;&gt;Node3 -->
<g id="edge2" class="edge">
<title>Node1&#45;&gt;Node3</title>
<path fill="none" stroke="midnightblue" d="M113.56,-95.59C138.34,-100.69 169.02,-107.01 195.14,-112.39"/>
<polygon fill="midnightblue" stroke="midnightblue" points="194.78,-115.89 205.28,-114.48 196.19,-109.03 194.78,-115.89"/>
</g>
<!-- Node4 -->
<g id="node4" class="node">
<title>Node4</title>
<g id="a_node4"><a xlink:href="base_8h.html#a7dca9da954f66416aeb47668db390afe" target="_top" xlink:title="Writes n&#45;th bit in an array.">
<polygon fill="none" stroke="black" points="198.5,-76.5 198.5,-95.5 306.5,-95.5 306.5,-76.5 198.5,-76.5"/>
<text text-anchor="middle" x="252.5" y="-83.5" font-family="Helvetica,sans-Serif" font-size="10.00">modbusMaskWrite</text>
</a>
</g>
</g>
<!-- Node1&#45;&gt;Node4 -->
<g id="edge3" class="edge">
<title>Node1&#45;&gt;Node4</title>
<path fill="none" stroke="midnightblue" d="M132.05,-86C150.26,-86 170.02,-86 188.13,-86"/>
<polygon fill="midnightblue" stroke="midnightblue" points="188.29,-89.5 198.29,-86 188.29,-82.5 188.29,-89.5"/>
</g>
<!-- Node5 -->
<g id="node5" class="node">
<title>Node5</title>
<g id="a_node5"><a xlink:href="master_8h.html#a2f754195d448ab90661dd55351064e59" target="_top" xlink:title="Allocates memory for the request frame.">
<polygon fill="none" stroke="black" points="168,-38.5 168,-57.5 337,-57.5 337,-38.5 168,-38.5"/>
<text text-anchor="middle" x="252.5" y="-45.5" font-family="Helvetica,sans-Serif" font-size="10.00">modbusMasterAllocateRequest</text>
</a>
</g>
</g>
<!-- Node1&#45;&gt;Node5 -->
<g id="edge4" class="edge">
<title>Node1&#45;&gt;Node5</title>
<path fill="none" stroke="midnightblue" d="M113.56,-76.41C138.34,-71.31 169.02,-64.99 195.14,-59.61"/>
<polygon fill="midnightblue" stroke="midnightblue" points="196.19,-62.97 205.28,-57.52 194.78,-56.11 196.19,-62.97"/>
</g>
<!-- Node6 -->
<g id="node6" class="node">
<title>Node6</title>
<g id="a_node6"><a xlink:href="base_8h.html#ae117274d7263b4d1bc696eb1874b3279" target="_top" xlink:title="Safely writes a big&#45;endian 16&#45;bit word to provided pointer.">
<polygon fill="none" stroke="black" points="213.5,-0.5 213.5,-19.5 291.5,-19.5 291.5,-0.5 213.5,-0.5"/>
<text text-anchor="middle" x="252.5" y="-7.5" font-family="Helvetica,sans-Serif" font-size="10.00">modbusWBE</text>
</a>
</g>
</g>
<!-- Node1&#45;&gt;Node6 -->
<g id="edge5" class="edge">
<title>Node1&#45;&gt;Node6</title>
<path fill="none" stroke="midnightblue" d="M81.06,-76.31C100,-63.67 135.13,-41.7 168,-29 179.15,-24.69 191.54,-21.21 203.29,-18.47"/>
<polygon fill="midnightblue" stroke="midnightblue" points="204.38,-21.81 213.4,-16.25 202.88,-14.98 204.38,-21.81"/>
</g>
</g>
</svg>
