<?xml version="1.0" encoding="UTF-8" standalone="no"?>
<!DOCTYPE svg PUBLIC "-//W3C//DTD SVG 1.1//EN"
 "http://www.w3.org/Graphics/SVG/1.1/DTD/svg11.dtd">
<!-- Generated by graphviz version 2.48.0 (0)
 -->
<!-- Title: modbusParseResponseTCP Pages: 1 -->
<svg width="622pt" height="85pt"
 viewBox="0.00 0.00 622.00 85.00" xmlns="http://www.w3.org/2000/svg" xmlns:xlink="http://www.w3.org/1999/xlink">
<g id="graph0" class="graph" transform="scale(1 1) rotate(0) translate(4 81)">
<title>modbusParseResponseTCP</title>
<!-- Node1 -->
<g id="node1" class="node">
<title>Node1</title>
<g id="a_node1"><a xlink:title="Parses a Modbus TCP slave response.">
<polygon fill="#bfbfbf" stroke="black" points="0,-19.5 0,-38.5 149,-38.5 149,-19.5 0,-19.5"/>
<text text-anchor="middle" x="74.5" y="-26.5" font-family="Helvetica,sans-Serif" font-size="10.00">modbusParseResponseTCP</text>
</a>
</g>
</g>
<!-- Node2 -->
<g id="node2" class="node">
<title>Node2</title>
<g id="a_node2"><a xlink:href="master_8impl_8h.html#a2a2853b9ec5742a5d4213532ebeefa93" target="_top" xlink:title="Parses a PDU section of a slave response.">
<polygon fill="none" stroke="black" points="185,-38.5 185,-57.5 336,-57.5 336,-38.5 185,-38.5"/>
<text text-anchor="middle" x="260.5" y="-45.5" font-family="Helvetica,sans-Serif" font-size="10.00">modbusParseResponsePDU</text>
</a>
</g>
</g>
<!-- Node1&#45;&gt;Node2 -->
<g id="edge1" class="edge">
<title>Node1&#45;&gt;Node2</title>
<path fill="none" stroke="midnightblue" d="M149.01,-36.59C157.5,-37.47 166.21,-38.37 174.84,-39.26"/>
<polygon fill="midnightblue" stroke="midnightblue" points="174.59,-42.75 184.9,-40.3 175.31,-35.79 174.59,-42.75"/>
</g>
<!-- Node6 -->
<g id="node6" class="node">
<title>Node6</title>
<g id="a_node6"><a xlink:href="base_8h.html#a724223277fcf6255904a91f181aa1ac8" target="_top" xlink:title="Safely reads a big&#45;endian 16&#45;bit word from provided pointer.">
<polygon fill="none" stroke="black" points="223,-0.5 223,-19.5 298,-19.5 298,-0.5 223,-0.5"/>
<text text-anchor="middle" x="260.5" y="-7.5" font-family="Helvetica,sans-Serif" font-size="10.00">modbusRBE</text>
</a>
</g>
</g>
<!-- Node1&#45;&gt;Node6 -->
<g id="edge5" class="edge">
<title>Node1&#45;&gt;Node6</title>
<path fill="none" stroke="midnightblue" d="M149.01,-21.41C170.57,-19.18 193.53,-16.81 212.91,-14.81"/>
<polygon fill="midnightblue" stroke="midnightblue" points="213.39,-18.28 222.98,-13.77 212.67,-11.32 213.39,-18.28"/>
</g>
<!-- Node3 -->
<g id="node3" class="node">
<title>Node3</title>
<g id="a_node3"><a xlink:href="base_8h.html#ab945e5e4e573e91a217e0e0a389daa48" target="_top" xlink:title=" ">
<polygon fill="none" stroke="black" points="372,-38.5 372,-57.5 449,-57.5 449,-38.5 372,-38.5"/>
<text text-anchor="middle" x="410.5" y="-45.5" font-family="Helvetica,sans-Serif" font-size="10.00">modbusIsOk</text>
</a>
</g>
</g>
<!-- Node2&#45;&gt;Node3 -->
<g id="edge2" class="edge">
<title>Node2&#45;&gt;Node3</title>
<path fill="none" stroke="midnightblue" d="M336.37,-48C345.04,-48 353.69,-48 361.86,-48"/>
<polygon fill="midnightblue" stroke="midnightblue" points="361.9,-51.5 371.9,-48 361.9,-44.5 361.9,-51.5"/>
</g>
<!-- Node4 -->
<g id="node4" class="node">
<title>Node4</title>
<g id="a_node4"><a xlink:href="base_8impl_8h.html#ab01c2addaafe619040a2e0fa302ed5d4" target="_top" xlink:title=" ">
<polygon fill="none" stroke="black" points="489,-57.5 489,-76.5 610,-76.5 610,-57.5 489,-57.5"/>
<text text-anchor="middle" x="549.5" y="-64.5" font-family="Helvetica,sans-Serif" font-size="10.00">modbusGetErrorCode</text>
</a>
</g>
</g>
<!-- Node3&#45;&gt;Node4 -->
<g id="edge3" class="edge">
<title>Node3&#45;&gt;Node4</title>
<path fill="none" stroke="midnightblue" d="M449.3,-53.24C458.51,-54.52 468.65,-55.93 478.82,-57.34"/>
<polygon fill="midnightblue" stroke="midnightblue" points="478.59,-60.84 488.97,-58.74 479.55,-53.9 478.59,-60.84"/>
</g>
<!-- Node5 -->
<g id="node5" class="node">
<title>Node5</title>
<g id="a_node5"><a xlink:href="base_8impl_8h.html#ad3119b6543dcad7c77b4e534c4545112" target="_top" xlink:title=" ">
<polygon fill="none" stroke="black" points="485,-19.5 485,-38.5 614,-38.5 614,-19.5 485,-19.5"/>
<text text-anchor="middle" x="549.5" y="-26.5" font-family="Helvetica,sans-Serif" font-size="10.00">modbusGetErrorSource</text>
</a>
</g>
</g>
<!-- Node3&#45;&gt;Node5 -->
<g id="edge4" class="edge">
<title>Node3&#45;&gt;Node5</title>
<path fill="none" stroke="midnightblue" d="M449.3,-42.76C457.3,-41.65 466,-40.44 474.82,-39.22"/>
<polygon fill="midnightblue" stroke="midnightblue" points="475.37,-42.68 484.79,-37.84 474.41,-35.74 475.37,-42.68"/>
</g>
</g>
</svg>
