<?xml version="1.0" encoding="UTF-8" standalone="no"?>
<!DOCTYPE svg PUBLIC "-//W3C//DTD SVG 1.1//EN"
 "http://www.w3.org/Graphics/SVG/1.1/DTD/svg11.dtd">
<!-- Generated by graphviz version 2.44.0 ()
 -->
<!-- Title: include/lightmodbus/slave_func.impl.h Pages: 1 -->
<svg width="187pt" height="207pt"
 viewBox="0.00 0.00 187.00 207.00" xmlns="http://www.w3.org/2000/svg" xmlns:xlink="http://www.w3.org/1999/xlink">
<g id="graph0" class="graph" transform="scale(1 1) rotate(0) translate(4 203)">
<title>include/lightmodbus/slave_func.impl.h</title>
<!-- Node1 -->
<g id="node1" class="node">
<title>Node1</title>
<g id="a_node1"><a xlink:title=" ">
<polygon fill="#bfbfbf" stroke="black" points="22,-168.5 22,-198.5 125,-198.5 125,-168.5 22,-168.5"/>
<text text-anchor="start" x="30" y="-186.5" font-family="Helvetica,sans-Serif" font-size="10.00">include/lightmodbus</text>
<text text-anchor="middle" x="73.5" y="-175.5" font-family="Helvetica,sans-Serif" font-size="10.00">/slave_func.impl.h</text>
</a>
</g>
</g>
<!-- Node2 -->
<g id="node2" class="node">
<title>Node2</title>
<g id="a_node2"><a xlink:href="slave__func_8h.html" target="_top" xlink:title=" ">
<polygon fill="none" stroke="black" points="0,-112.5 0,-131.5 71,-131.5 71,-112.5 0,-112.5"/>
<text text-anchor="middle" x="35.5" y="-119.5" font-family="Helvetica,sans-Serif" font-size="10.00">slave_func.h</text>
</a>
</g>
</g>
<!-- Node1&#45;&gt;Node2 -->
<g id="edge1" class="edge">
<title>Node1&#45;&gt;Node2</title>
<path fill="none" stroke="midnightblue" d="M64.49,-168.4C59.09,-159.93 52.17,-149.1 46.45,-140.14"/>
<polygon fill="midnightblue" stroke="midnightblue" points="49.36,-138.2 41.03,-131.66 43.46,-141.97 49.36,-138.2"/>
</g>
<!-- Node5 -->
<g id="node5" class="node">
<title>Node5</title>
<g id="a_node5"><a xlink:href="slave_8h.html" target="_top" xlink:title=" ">
<polygon fill="none" stroke="black" points="89,-112.5 89,-131.5 136,-131.5 136,-112.5 89,-112.5"/>
<text text-anchor="middle" x="112.5" y="-119.5" font-family="Helvetica,sans-Serif" font-size="10.00">slave.h</text>
</a>
</g>
</g>
<!-- Node1&#45;&gt;Node5 -->
<g id="edge4" class="edge">
<title>Node1&#45;&gt;Node5</title>
<path fill="none" stroke="midnightblue" d="M82.74,-168.4C88.29,-159.93 95.39,-149.1 101.27,-140.14"/>
<polygon fill="midnightblue" stroke="midnightblue" points="104.27,-141.94 106.83,-131.66 98.42,-138.1 104.27,-141.94"/>
</g>
<!-- Node3 -->
<g id="node3" class="node">
<title>Node3</title>
<g id="a_node3"><a xlink:href="base_8h.html" target="_top" xlink:title=" ">
<polygon fill="none" stroke="black" points="26,-56.5 26,-75.5 71,-75.5 71,-56.5 26,-56.5"/>
<text text-anchor="middle" x="48.5" y="-63.5" font-family="Helvetica,sans-Serif" font-size="10.00">base.h</text>
</a>
</g>
</g>
<!-- Node2&#45;&gt;Node3 -->
<g id="edge2" class="edge">
<title>Node2&#45;&gt;Node3</title>
<path fill="none" stroke="midnightblue" d="M37.65,-112.08C39.37,-104.93 41.85,-94.64 44,-85.69"/>
<polygon fill="midnightblue" stroke="midnightblue" points="47.46,-86.29 46.39,-75.75 40.65,-84.65 47.46,-86.29"/>
</g>
<!-- Node4 -->
<g id="node4" class="node">
<title>Node4</title>
<g id="a_node4"><a xlink:title=" ">
<polygon fill="none" stroke="#bfbfbf" points="49.5,-0.5 49.5,-19.5 97.5,-19.5 97.5,-0.5 49.5,-0.5"/>
<text text-anchor="middle" x="73.5" y="-7.5" font-family="Helvetica,sans-Serif" font-size="10.00">stdint.h</text>
</a>
</g>
</g>
<!-- Node3&#45;&gt;Node4 -->
<g id="edge3" class="edge">
<title>Node3&#45;&gt;Node4</title>
<path fill="none" stroke="midnightblue" d="M52.63,-56.08C56.01,-48.77 60.92,-38.18 65.12,-29.1"/>
<polygon fill="midnightblue" stroke="midnightblue" points="68.42,-30.3 69.45,-19.75 62.07,-27.36 68.42,-30.3"/>
</g>
<!-- Node5&#45;&gt;Node3 -->
<g id="edge7" class="edge">
<title>Node5&#45;&gt;Node3</title>
<path fill="none" stroke="midnightblue" d="M102.22,-112.32C92.66,-104.26 78.22,-92.08 66.72,-82.37"/>
<polygon fill="midnightblue" stroke="midnightblue" points="68.87,-79.61 58.97,-75.83 64.36,-84.96 68.87,-79.61"/>
</g>
<!-- Node5&#45;&gt;Node4 -->
<g id="edge5" class="edge">
<title>Node5&#45;&gt;Node4</title>
<path fill="none" stroke="midnightblue" d="M109.44,-112.37C103.12,-94.54 88.5,-53.3 79.98,-29.27"/>
<polygon fill="midnightblue" stroke="midnightblue" points="83.19,-27.85 76.55,-19.59 76.59,-30.19 83.19,-27.85"/>
</g>
<!-- Node6 -->
<g id="node6" class="node">
<title>Node6</title>
<g id="a_node6"><a xlink:title=" ">
<polygon fill="none" stroke="#bfbfbf" points="128,-56.5 128,-75.5 179,-75.5 179,-56.5 128,-56.5"/>
<text text-anchor="middle" x="153.5" y="-63.5" font-family="Helvetica,sans-Serif" font-size="10.00">stddef.h</text>
</a>
</g>
</g>
<!-- Node5&#45;&gt;Node6 -->
<g id="edge6" class="edge">
<title>Node5&#45;&gt;Node6</title>
<path fill="none" stroke="midnightblue" d="M119.27,-112.08C125.06,-104.46 133.56,-93.26 140.64,-83.94"/>
<polygon fill="midnightblue" stroke="midnightblue" points="143.6,-85.83 146.86,-75.75 138.02,-81.6 143.6,-85.83"/>
</g>
</g>
</svg>
