<?xml version="1.0" encoding="UTF-8" standalone="no"?>
<!DOCTYPE svg PUBLIC "-//W3C//DTD SVG 1.1//EN"
 "http://www.w3.org/Graphics/SVG/1.1/DTD/svg11.dtd">
<!-- Generated by graphviz version 2.48.0 (0)
 -->
<!-- Title: modbusParseRequest01020304 Pages: 1 -->
<svg width="590pt" height="218pt"
 viewBox="0.00 0.00 590.00 218.00" xmlns="http://www.w3.org/2000/svg" xmlns:xlink="http://www.w3.org/1999/xlink">
<g id="graph0" class="graph" transform="scale(1 1) rotate(0) translate(4 214)">
<title>modbusParseRequest01020304</title>
<!-- Node1 -->
<g id="node1" class="node">
<title>Node1</title>
<g id="a_node1"><a xlink:title="Handles requests 01, 02, 03 and 04 (Read Multiple XX)">
<polygon fill="#bfbfbf" stroke="black" points="0,-95.5 0,-114.5 170,-114.5 170,-95.5 0,-95.5"/>
<text text-anchor="middle" x="85" y="-102.5" font-family="Helvetica,sans-Serif" font-size="10.00">modbusParseRequest01020304</text>
</a>
</g>
</g>
<!-- Node2 -->
<g id="node2" class="node">
<title>Node2</title>
<g id="a_node2"><a xlink:href="base_8h.html#a98cb625b5c4b9ee5d7f529650c4d9112" target="_top" xlink:title="Returns number of bytes necessary to hold given number of bits.">
<polygon fill="none" stroke="black" points="234.5,-190.5 234.5,-209.5 347.5,-209.5 347.5,-190.5 234.5,-190.5"/>
<text text-anchor="middle" x="291" y="-197.5" font-family="Helvetica,sans-Serif" font-size="10.00">modbusBitsToBytes</text>
</a>
</g>
</g>
<!-- Node1&#45;&gt;Node2 -->
<g id="edge1" class="edge">
<title>Node1&#45;&gt;Node2</title>
<path fill="none" stroke="midnightblue" d="M98.17,-114.73C119.01,-130.92 163.41,-163.32 206,-181 212.12,-183.54 218.65,-185.77 225.25,-187.73"/>
<polygon fill="midnightblue" stroke="midnightblue" points="224.36,-191.11 234.93,-190.39 226.22,-184.36 224.36,-191.11"/>
</g>
<!-- Node3 -->
<g id="node3" class="node">
<title>Node3</title>
<g id="a_node3"><a xlink:href="slave_8h.html#a01b0b86602f899214d564f5bbe6ffdb2" target="_top" xlink:title="Builds an exception response frame.">
<polygon fill="none" stroke="black" points="227,-152.5 227,-171.5 355,-171.5 355,-152.5 227,-152.5"/>
<text text-anchor="middle" x="291" y="-159.5" font-family="Helvetica,sans-Serif" font-size="10.00">modbusBuildException</text>
</a>
</g>
</g>
<!-- Node1&#45;&gt;Node3 -->
<g id="edge2" class="edge">
<title>Node1&#45;&gt;Node3</title>
<path fill="none" stroke="midnightblue" d="M113.93,-114.58C138.12,-122.7 174.15,-134.37 206,-143 215.21,-145.5 225.05,-147.93 234.63,-150.17"/>
<polygon fill="midnightblue" stroke="midnightblue" points="233.96,-153.61 244.49,-152.44 235.53,-146.79 233.96,-153.61"/>
</g>
<!-- Node5 -->
<g id="node5" class="node">
<title>Node5</title>
<g id="a_node5"><a xlink:href="base_8h.html#a7dca9da954f66416aeb47668db390afe" target="_top" xlink:title="Writes n&#45;th bit in an array.">
<polygon fill="none" stroke="black" points="237,-114.5 237,-133.5 345,-133.5 345,-114.5 237,-114.5"/>
<text text-anchor="middle" x="291" y="-121.5" font-family="Helvetica,sans-Serif" font-size="10.00">modbusMaskWrite</text>
</a>
</g>
</g>
<!-- Node1&#45;&gt;Node5 -->
<g id="edge4" class="edge">
<title>Node1&#45;&gt;Node5</title>
<path fill="none" stroke="midnightblue" d="M170.15,-112.84C189.14,-114.61 208.98,-116.45 226.93,-118.13"/>
<polygon fill="midnightblue" stroke="midnightblue" points="226.69,-121.62 236.97,-119.06 227.34,-114.65 226.69,-121.62"/>
</g>
<!-- Node6 -->
<g id="node6" class="node">
<title>Node6</title>
<g id="a_node6"><a xlink:href="base_8h.html#a724223277fcf6255904a91f181aa1ac8" target="_top" xlink:title="Safely reads a big&#45;endian 16&#45;bit word from provided pointer.">
<polygon fill="none" stroke="black" points="253.5,-76.5 253.5,-95.5 328.5,-95.5 328.5,-76.5 253.5,-76.5"/>
<text text-anchor="middle" x="291" y="-83.5" font-family="Helvetica,sans-Serif" font-size="10.00">modbusRBE</text>
</a>
</g>
</g>
<!-- Node1&#45;&gt;Node6 -->
<g id="edge5" class="edge">
<title>Node1&#45;&gt;Node6</title>
<path fill="none" stroke="midnightblue" d="M170.15,-97.16C195.05,-94.84 221.42,-92.39 243.06,-90.37"/>
<polygon fill="midnightblue" stroke="midnightblue" points="243.65,-93.83 253.28,-89.42 243,-86.86 243.65,-93.83"/>
</g>
<!-- Node7 -->
<g id="node7" class="node">
<title>Node7</title>
<g id="a_node7"><a xlink:href="slave_8h.html#af92eebc644e36158bddfba128235fef6" target="_top" xlink:title="Allocates memory for slave&#39;s response frame.">
<polygon fill="none" stroke="black" points="206,-38.5 206,-57.5 376,-57.5 376,-38.5 206,-38.5"/>
<text text-anchor="middle" x="291" y="-45.5" font-family="Helvetica,sans-Serif" font-size="10.00">modbusSlaveAllocateResponse</text>
</a>
</g>
</g>
<!-- Node1&#45;&gt;Node7 -->
<g id="edge6" class="edge">
<title>Node1&#45;&gt;Node7</title>
<path fill="none" stroke="midnightblue" d="M113.93,-95.42C138.12,-87.3 174.15,-75.63 206,-67 215.21,-64.5 225.05,-62.07 234.63,-59.83"/>
<polygon fill="midnightblue" stroke="midnightblue" points="235.53,-63.21 244.49,-57.56 233.96,-56.39 235.53,-63.21"/>
</g>
<!-- Node8 -->
<g id="node8" class="node">
<title>Node8</title>
<g id="a_node8"><a xlink:href="base_8h.html#ae117274d7263b4d1bc696eb1874b3279" target="_top" xlink:title="Safely writes a big&#45;endian 16&#45;bit word to provided pointer.">
<polygon fill="none" stroke="black" points="252,-0.5 252,-19.5 330,-19.5 330,-0.5 252,-0.5"/>
<text text-anchor="middle" x="291" y="-7.5" font-family="Helvetica,sans-Serif" font-size="10.00">modbusWBE</text>
</a>
</g>
</g>
<!-- Node1&#45;&gt;Node8 -->
<g id="edge7" class="edge">
<title>Node1&#45;&gt;Node8</title>
<path fill="none" stroke="midnightblue" d="M98.17,-95.27C119.01,-79.08 163.41,-46.68 206,-29 217.33,-24.3 230.02,-20.66 242.04,-17.88"/>
<polygon fill="midnightblue" stroke="midnightblue" points="242.9,-21.28 251.94,-15.75 241.42,-14.44 242.9,-21.28"/>
</g>
<!-- Node4 -->
<g id="node4" class="node">
<title>Node4</title>
<g id="a_node4"><a xlink:href="slave_8impl_8h.html#a9171547f92321e8a5c9ed60cec59f00a" target="_top" xlink:title="Allocates memory for slave&#39;s response frame.">
<polygon fill="none" stroke="black" points="412,-152.5 412,-171.5 582,-171.5 582,-152.5 412,-152.5"/>
<text text-anchor="middle" x="497" y="-159.5" font-family="Helvetica,sans-Serif" font-size="10.00">modbusSlaveAllocateResponse</text>
</a>
</g>
</g>
<!-- Node3&#45;&gt;Node4 -->
<g id="edge3" class="edge">
<title>Node3&#45;&gt;Node4</title>
<path fill="none" stroke="midnightblue" d="M355.15,-162C369.84,-162 385.79,-162 401.5,-162"/>
<polygon fill="midnightblue" stroke="midnightblue" points="401.77,-165.5 411.77,-162 401.77,-158.5 401.77,-165.5"/>
</g>
</g>
</svg>
