<?xml version="1.0" encoding="UTF-8" standalone="no"?>
<!DOCTYPE svg PUBLIC "-//W3C//DTD SVG 1.1//EN"
 "http://www.w3.org/Graphics/SVG/1.1/DTD/svg11.dtd">
<!-- Generated by graphviz version 2.44.0 ()
 -->
<!-- Title: modbusBuildException Pages: 1 -->
<svg width="484pt" height="218pt"
 viewBox="0.00 0.00 484.00 218.00" xmlns="http://www.w3.org/2000/svg" xmlns:xlink="http://www.w3.org/1999/xlink">
<g id="graph0" class="graph" transform="scale(1 1) rotate(0) translate(4 214)">
<title>modbusBuildException</title>
<!-- Node1 -->
<g id="node1" class="node">
<title>Node1</title>
<g id="a_node1"><a xlink:title="Builds an exception response frame.">
<polygon fill="#bfbfbf" stroke="black" points="361,-76.5 361,-95.5 476,-95.5 476,-76.5 361,-76.5"/>
<text text-anchor="middle" x="418.5" y="-83.5" font-family="Helvetica,sans-Serif" font-size="10.00">modbusBuildException</text>
</a>
</g>
</g>
<!-- Node2 -->
<g id="node2" class="node">
<title>Node2</title>
<g id="a_node2"><a xlink:href="slave_8h.html#a418b412059b7882bf53b0bfdb11dea31" target="_top" xlink:title="Parses provided PDU and generates response honorinng pduOffset and padding set in ModbusSlave.">
<polygon fill="none" stroke="black" points="191,-152.5 191,-171.5 304,-171.5 304,-152.5 191,-152.5"/>
<text text-anchor="middle" x="247.5" y="-159.5" font-family="Helvetica,sans-Serif" font-size="10.00">modbusParseRequest</text>
</a>
</g>
</g>
<!-- Node1&#45;&gt;Node2 -->
<g id="edge1" class="edge">
<title>Node1&#45;&gt;Node2</title>
<path fill="none" stroke="midnightblue" d="M396.12,-101.84C378,-114.58 350.92,-132.11 325,-143 316.04,-146.76 306.17,-149.9 296.58,-152.47"/>
<polygon fill="midnightblue" stroke="midnightblue" points="398.63,-104.34 404.72,-95.67 394.55,-98.65 398.63,-104.34"/>
</g>
<!-- Node6 -->
<g id="node6" class="node">
<title>Node6</title>
<g id="a_node6"><a xlink:href="slave__func_8h.html#a070ffd089a641ac5c769dc81bd65a982" target="_top" xlink:title="Handles requests 01, 02, 03 and 04 (Read Multiple XX)">
<polygon fill="none" stroke="black" points="170,-114.5 170,-133.5 325,-133.5 325,-114.5 170,-114.5"/>
<text text-anchor="middle" x="247.5" y="-121.5" font-family="Helvetica,sans-Serif" font-size="10.00">modbusParseRequest01020304</text>
</a>
</g>
</g>
<!-- Node1&#45;&gt;Node6 -->
<g id="edge5" class="edge">
<title>Node1&#45;&gt;Node6</title>
<path fill="none" stroke="midnightblue" d="M364.91,-97.82C341.09,-103.18 313.29,-109.43 290.84,-114.48"/>
<polygon fill="midnightblue" stroke="midnightblue" points="365.87,-101.2 374.85,-95.59 364.33,-94.37 365.87,-101.2"/>
</g>
<!-- Node7 -->
<g id="node7" class="node">
<title>Node7</title>
<g id="a_node7"><a xlink:href="slave__func_8h.html#a409a88238d5769dff441d1745e552352" target="_top" xlink:title="Handles requests 05 and 06 (Write Single XX)">
<polygon fill="none" stroke="black" points="180.5,-76.5 180.5,-95.5 314.5,-95.5 314.5,-76.5 180.5,-76.5"/>
<text text-anchor="middle" x="247.5" y="-83.5" font-family="Helvetica,sans-Serif" font-size="10.00">modbusParseRequest0506</text>
</a>
</g>
</g>
<!-- Node1&#45;&gt;Node7 -->
<g id="edge6" class="edge">
<title>Node1&#45;&gt;Node7</title>
<path fill="none" stroke="midnightblue" d="M350.55,-86C338.76,-86 326.5,-86 314.74,-86"/>
<polygon fill="midnightblue" stroke="midnightblue" points="350.76,-89.5 360.76,-86 350.76,-82.5 350.76,-89.5"/>
</g>
<!-- Node8 -->
<g id="node8" class="node">
<title>Node8</title>
<g id="a_node8"><a xlink:href="slave__func_8h.html#a1b5c01b97863cc32a9b7aebbf1f652c6" target="_top" xlink:title="Handles requests 15 and 16 (Write Multiple XX)">
<polygon fill="none" stroke="black" points="180.5,-38.5 180.5,-57.5 314.5,-57.5 314.5,-38.5 180.5,-38.5"/>
<text text-anchor="middle" x="247.5" y="-45.5" font-family="Helvetica,sans-Serif" font-size="10.00">modbusParseRequest1516</text>
</a>
</g>
</g>
<!-- Node1&#45;&gt;Node8 -->
<g id="edge7" class="edge">
<title>Node1&#45;&gt;Node8</title>
<path fill="none" stroke="midnightblue" d="M364.91,-74.18C341.09,-68.82 313.29,-62.57 290.84,-57.52"/>
<polygon fill="midnightblue" stroke="midnightblue" points="364.33,-77.63 374.85,-76.41 365.87,-70.8 364.33,-77.63"/>
</g>
<!-- Node9 -->
<g id="node9" class="node">
<title>Node9</title>
<g id="a_node9"><a xlink:href="slave__func_8h.html#a58c24d2648cb5487ac7cf110282e5c18" target="_top" xlink:title="Handles request 22 (Mask Write Register)">
<polygon fill="none" stroke="black" points="186,-0.5 186,-19.5 309,-19.5 309,-0.5 186,-0.5"/>
<text text-anchor="middle" x="247.5" y="-7.5" font-family="Helvetica,sans-Serif" font-size="10.00">modbusParseRequest22</text>
</a>
</g>
</g>
<!-- Node1&#45;&gt;Node9 -->
<g id="edge8" class="edge">
<title>Node1&#45;&gt;Node9</title>
<path fill="none" stroke="midnightblue" d="M396.12,-70.16C378,-57.42 350.92,-39.89 325,-29 316.04,-25.24 306.17,-22.1 296.58,-19.53"/>
<polygon fill="midnightblue" stroke="midnightblue" points="394.55,-73.35 404.72,-76.33 398.63,-67.66 394.55,-73.35"/>
</g>
<!-- Node3 -->
<g id="node3" class="node">
<title>Node3</title>
<g id="a_node3"><a xlink:href="slave_8h.html#a678436c7849be06c8871bc589d0c7011" target="_top" xlink:title="Parses provided PDU and generates PDU for the response frame.">
<polygon fill="none" stroke="black" points="0,-190.5 0,-209.5 134,-209.5 134,-190.5 0,-190.5"/>
<text text-anchor="middle" x="67" y="-197.5" font-family="Helvetica,sans-Serif" font-size="10.00">modbusParseRequestPDU</text>
</a>
</g>
</g>
<!-- Node2&#45;&gt;Node3 -->
<g id="edge2" class="edge">
<title>Node2&#45;&gt;Node3</title>
<path fill="none" stroke="midnightblue" d="M191.63,-173.68C166.32,-179.07 136.65,-185.39 112.72,-190.48"/>
<polygon fill="midnightblue" stroke="midnightblue" points="192.4,-177.09 201.46,-171.59 190.95,-170.25 192.4,-177.09"/>
</g>
<!-- Node4 -->
<g id="node4" class="node">
<title>Node4</title>
<g id="a_node4"><a xlink:href="slave_8h.html#a9da6d040ddc4a1ba71b03fad7a2fece3" target="_top" xlink:title="Parses provided Modbus RTU request frame and generates a Modbus RTU response.">
<polygon fill="none" stroke="black" points="0.5,-152.5 0.5,-171.5 133.5,-171.5 133.5,-152.5 0.5,-152.5"/>
<text text-anchor="middle" x="67" y="-159.5" font-family="Helvetica,sans-Serif" font-size="10.00">modbusParseRequestRTU</text>
</a>
</g>
</g>
<!-- Node2&#45;&gt;Node4 -->
<g id="edge3" class="edge">
<title>Node2&#45;&gt;Node4</title>
<path fill="none" stroke="midnightblue" d="M180.61,-162C165.33,-162 149.07,-162 133.8,-162"/>
<polygon fill="midnightblue" stroke="midnightblue" points="181,-165.5 191,-162 181,-158.5 181,-165.5"/>
</g>
<!-- Node5 -->
<g id="node5" class="node">
<title>Node5</title>
<g id="a_node5"><a xlink:href="slave_8h.html#a11f5dfe3b6a3f37ca7c7eb179ca75864" target="_top" xlink:title="Parses provided Modbus TCP request frame and generates a Modbus TCP response.">
<polygon fill="none" stroke="black" points="1,-114.5 1,-133.5 133,-133.5 133,-114.5 1,-114.5"/>
<text text-anchor="middle" x="67" y="-121.5" font-family="Helvetica,sans-Serif" font-size="10.00">modbusParseRequestTCP</text>
</a>
</g>
</g>
<!-- Node2&#45;&gt;Node5 -->
<g id="edge4" class="edge">
<title>Node2&#45;&gt;Node5</title>
<path fill="none" stroke="midnightblue" d="M191.63,-150.32C166.32,-144.93 136.65,-138.61 112.72,-133.52"/>
<polygon fill="midnightblue" stroke="midnightblue" points="190.95,-153.75 201.46,-152.41 192.4,-146.91 190.95,-153.75"/>
</g>
</g>
</svg>
