<?xml version="1.0" encoding="UTF-8" standalone="no"?>
<!DOCTYPE svg PUBLIC "-//W3C//DTD SVG 1.1//EN"
 "http://www.w3.org/Graphics/SVG/1.1/DTD/svg11.dtd">
<!-- Generated by graphviz version 2.48.0 (0)
 -->
<!-- Title: modbusBuildException Pages: 1 -->
<svg width="521pt" height="199pt"
 viewBox="0.00 0.00 521.00 199.00" xmlns="http://www.w3.org/2000/svg" xmlns:xlink="http://www.w3.org/1999/xlink">
<g id="graph0" class="graph" transform="scale(1 1) rotate(0) translate(4 195)">
<title>modbusBuildException</title>
<!-- Node1 -->
<g id="node1" class="node">
<title>Node1</title>
<g id="a_node1"><a xlink:title="Builds an exception response frame.">
<polygon fill="#bfbfbf" stroke="black" points="385,-95.5 385,-114.5 513,-114.5 513,-95.5 385,-95.5"/>
<text text-anchor="middle" x="449" y="-102.5" font-family="Helvetica,sans-Serif" font-size="10.00">modbusBuildException</text>
</a>
</g>
</g>
<!-- Node2 -->
<g id="node2" class="node">
<title>Node2</title>
<g id="a_node2"><a xlink:href="slave__func_8h.html#a070ffd089a641ac5c769dc81bd65a982" target="_top" xlink:title="Handles requests 01, 02, 03 and 04 (Read Multiple XX)">
<polygon fill="none" stroke="black" points="179,-171.5 179,-190.5 349,-190.5 349,-171.5 179,-171.5"/>
<text text-anchor="middle" x="264" y="-178.5" font-family="Helvetica,sans-Serif" font-size="10.00">modbusParseRequest01020304</text>
</a>
</g>
</g>
<!-- Node1&#45;&gt;Node2 -->
<g id="edge1" class="edge">
<title>Node1&#45;&gt;Node2</title>
<path fill="none" stroke="midnightblue" d="M425.8,-120.38C406.35,-133.21 376.91,-151.1 349,-162 339.39,-165.75 328.86,-168.86 318.6,-171.41"/>
<polygon fill="midnightblue" stroke="midnightblue" points="427.9,-123.19 434.25,-114.72 423.99,-117.38 427.9,-123.19"/>
</g>
<!-- Node3 -->
<g id="node3" class="node">
<title>Node3</title>
<g id="a_node3"><a xlink:href="slave__func_8h.html#a409a88238d5769dff441d1745e552352" target="_top" xlink:title="Handles requests 05 and 06 (Write Single XX)">
<polygon fill="none" stroke="black" points="191,-133.5 191,-152.5 337,-152.5 337,-133.5 191,-133.5"/>
<text text-anchor="middle" x="264" y="-140.5" font-family="Helvetica,sans-Serif" font-size="10.00">modbusParseRequest0506</text>
</a>
</g>
</g>
<!-- Node1&#45;&gt;Node3 -->
<g id="edge2" class="edge">
<title>Node1&#45;&gt;Node3</title>
<path fill="none" stroke="midnightblue" d="M391.75,-116.68C365.79,-122.07 335.38,-128.39 310.85,-133.48"/>
<polygon fill="midnightblue" stroke="midnightblue" points="392.74,-120.05 401.82,-114.59 391.32,-113.2 392.74,-120.05"/>
</g>
<!-- Node4 -->
<g id="node4" class="node">
<title>Node4</title>
<g id="a_node4"><a xlink:href="slave__func_8h.html#a1b5c01b97863cc32a9b7aebbf1f652c6" target="_top" xlink:title="Handles requests 15 and 16 (Write Multiple XX)">
<polygon fill="none" stroke="black" points="191,-95.5 191,-114.5 337,-114.5 337,-95.5 191,-95.5"/>
<text text-anchor="middle" x="264" y="-102.5" font-family="Helvetica,sans-Serif" font-size="10.00">modbusParseRequest1516</text>
</a>
</g>
</g>
<!-- Node1&#45;&gt;Node4 -->
<g id="edge3" class="edge">
<title>Node1&#45;&gt;Node4</title>
<path fill="none" stroke="midnightblue" d="M374.51,-105C362.16,-105 349.35,-105 337.03,-105"/>
<polygon fill="midnightblue" stroke="midnightblue" points="374.77,-108.5 384.77,-105 374.77,-101.5 374.77,-108.5"/>
</g>
<!-- Node5 -->
<g id="node5" class="node">
<title>Node5</title>
<g id="a_node5"><a xlink:href="slave__func_8h.html#a58c24d2648cb5487ac7cf110282e5c18" target="_top" xlink:title="Handles request 22 (Mask Write Register)">
<polygon fill="none" stroke="black" points="197,-57.5 197,-76.5 331,-76.5 331,-57.5 197,-57.5"/>
<text text-anchor="middle" x="264" y="-64.5" font-family="Helvetica,sans-Serif" font-size="10.00">modbusParseRequest22</text>
</a>
</g>
</g>
<!-- Node1&#45;&gt;Node5 -->
<g id="edge4" class="edge">
<title>Node1&#45;&gt;Node5</title>
<path fill="none" stroke="midnightblue" d="M391.75,-93.32C365.79,-87.93 335.38,-81.61 310.85,-76.52"/>
<polygon fill="midnightblue" stroke="midnightblue" points="391.32,-96.8 401.82,-95.41 392.74,-89.95 391.32,-96.8"/>
</g>
<!-- Node6 -->
<g id="node6" class="node">
<title>Node6</title>
<g id="a_node6"><a xlink:href="slave_8h.html#a678436c7849be06c8871bc589d0c7011" target="_top" xlink:title="Parses provided PDU (Protocol Data Unit)">
<polygon fill="none" stroke="black" points="192.5,-19.5 192.5,-38.5 335.5,-38.5 335.5,-19.5 192.5,-19.5"/>
<text text-anchor="middle" x="264" y="-26.5" font-family="Helvetica,sans-Serif" font-size="10.00">modbusParseRequestPDU</text>
</a>
</g>
</g>
<!-- Node1&#45;&gt;Node6 -->
<g id="edge5" class="edge">
<title>Node1&#45;&gt;Node6</title>
<path fill="none" stroke="midnightblue" d="M425.8,-89.62C406.35,-76.79 376.91,-58.9 349,-48 339.39,-44.25 328.86,-41.14 318.6,-38.59"/>
<polygon fill="midnightblue" stroke="midnightblue" points="423.99,-92.62 434.25,-95.28 427.9,-86.81 423.99,-92.62"/>
</g>
<!-- Node7 -->
<g id="node7" class="node">
<title>Node7</title>
<g id="a_node7"><a xlink:href="slave_8h.html#a9da6d040ddc4a1ba71b03fad7a2fece3" target="_top" xlink:title="Parses provided Modbus RTU request frame.">
<polygon fill="none" stroke="black" points="0,-38.5 0,-57.5 143,-57.5 143,-38.5 0,-38.5"/>
<text text-anchor="middle" x="71.5" y="-45.5" font-family="Helvetica,sans-Serif" font-size="10.00">modbusParseRequestRTU</text>
</a>
</g>
</g>
<!-- Node6&#45;&gt;Node7 -->
<g id="edge6" class="edge">
<title>Node6&#45;&gt;Node7</title>
<path fill="none" stroke="midnightblue" d="M182.04,-37.08C169.07,-38.37 155.75,-39.7 143.05,-40.96"/>
<polygon fill="midnightblue" stroke="midnightblue" points="182.73,-40.52 192.34,-36.05 182.04,-33.56 182.73,-40.52"/>
</g>
<!-- Node8 -->
<g id="node8" class="node">
<title>Node8</title>
<g id="a_node8"><a xlink:href="slave_8h.html#a11f5dfe3b6a3f37ca7c7eb179ca75864" target="_top" xlink:title="Parses provided Modbus TCP request frame.">
<polygon fill="none" stroke="black" points="1,-0.5 1,-19.5 142,-19.5 142,-0.5 1,-0.5"/>
<text text-anchor="middle" x="71.5" y="-7.5" font-family="Helvetica,sans-Serif" font-size="10.00">modbusParseRequestTCP</text>
</a>
</g>
</g>
<!-- Node6&#45;&gt;Node8 -->
<g id="edge7" class="edge">
<title>Node6&#45;&gt;Node8</title>
<path fill="none" stroke="midnightblue" d="M182.22,-20.94C168.88,-19.61 155.14,-18.24 142.1,-16.94"/>
<polygon fill="midnightblue" stroke="midnightblue" points="182.04,-24.44 192.34,-21.95 182.73,-17.48 182.04,-24.44"/>
</g>
</g>
</svg>
