<?xml version="1.0" encoding="UTF-8" standalone="no"?>
<!DOCTYPE svg PUBLIC "-//W3C//DTD SVG 1.1//EN"
 "http://www.w3.org/Graphics/SVG/1.1/DTD/svg11.dtd">
<!-- Generated by graphviz version 2.48.0 (0)
 -->
<!-- Title: include/lightmodbus/slave.h Pages: 1 -->
<svg width="162pt" height="151pt"
 viewBox="0.00 0.00 161.50 151.00" xmlns="http://www.w3.org/2000/svg" xmlns:xlink="http://www.w3.org/1999/xlink">
<g id="graph0" class="graph" transform="scale(1 1) rotate(0) translate(4 147)">
<title>include/lightmodbus/slave.h</title>
<!-- Node1 -->
<g id="node1" class="node">
<title>Node1</title>
<g id="a_node1"><a xlink:title=" ">
<polygon fill="#bfbfbf" stroke="black" points="0,-112.5 0,-142.5 116,-142.5 116,-112.5 0,-112.5"/>
<text text-anchor="start" x="8" y="-130.5" font-family="Helvetica,sans-Serif" font-size="10.00">include/lightmodbus</text>
<text text-anchor="middle" x="58" y="-119.5" font-family="Helvetica,sans-Serif" font-size="10.00">/slave.h</text>
</a>
</g>
</g>
<!-- Node2 -->
<g id="node2" class="node">
<title>Node2</title>
<g id="a_node2"><a xlink:title=" ">
<polygon fill="none" stroke="#bfbfbf" points="38.5,-0.5 38.5,-19.5 91.5,-19.5 91.5,-0.5 38.5,-0.5"/>
<text text-anchor="middle" x="65" y="-7.5" font-family="Helvetica,sans-Serif" font-size="10.00">stdint.h</text>
</a>
</g>
</g>
<!-- Node1&#45;&gt;Node2 -->
<g id="edge1" class="edge">
<title>Node1&#45;&gt;Node2</title>
<path fill="none" stroke="midnightblue" d="M42.26,-112.31C28.78,-98.34 12.76,-76.22 21,-56 25.8,-44.23 35.33,-33.86 44.29,-26.05"/>
<polygon fill="midnightblue" stroke="midnightblue" points="46.65,-28.64 52.22,-19.63 42.25,-23.2 46.65,-28.64"/>
</g>
<!-- Node3 -->
<g id="node3" class="node">
<title>Node3</title>
<g id="a_node3"><a xlink:title=" ">
<polygon fill="none" stroke="#bfbfbf" points="30,-56.5 30,-75.5 86,-75.5 86,-56.5 30,-56.5"/>
<text text-anchor="middle" x="58" y="-63.5" font-family="Helvetica,sans-Serif" font-size="10.00">stddef.h</text>
</a>
</g>
</g>
<!-- Node1&#45;&gt;Node3 -->
<g id="edge2" class="edge">
<title>Node1&#45;&gt;Node3</title>
<path fill="none" stroke="midnightblue" d="M58,-112.4C58,-104.47 58,-94.46 58,-85.86"/>
<polygon fill="midnightblue" stroke="midnightblue" points="61.5,-85.66 58,-75.66 54.5,-85.66 61.5,-85.66"/>
</g>
<!-- Node4 -->
<g id="node4" class="node">
<title>Node4</title>
<g id="a_node4"><a xlink:href="base_8h.html" target="_top" xlink:title=" ">
<polygon fill="none" stroke="black" points="104.5,-56.5 104.5,-75.5 153.5,-75.5 153.5,-56.5 104.5,-56.5"/>
<text text-anchor="middle" x="129" y="-63.5" font-family="Helvetica,sans-Serif" font-size="10.00">base.h</text>
</a>
</g>
</g>
<!-- Node1&#45;&gt;Node4 -->
<g id="edge3" class="edge">
<title>Node1&#45;&gt;Node4</title>
<path fill="none" stroke="midnightblue" d="M74.83,-112.4C85.67,-103.31 99.78,-91.49 110.87,-82.19"/>
<polygon fill="midnightblue" stroke="midnightblue" points="113.25,-84.76 118.67,-75.66 108.76,-79.4 113.25,-84.76"/>
</g>
<!-- Node4&#45;&gt;Node2 -->
<g id="edge4" class="edge">
<title>Node4&#45;&gt;Node2</title>
<path fill="none" stroke="midnightblue" d="M118.72,-56.32C109.16,-48.26 94.72,-36.08 83.22,-26.37"/>
<polygon fill="midnightblue" stroke="midnightblue" points="85.37,-23.61 75.47,-19.83 80.86,-28.96 85.37,-23.61"/>
</g>
</g>
</svg>
