<?xml version="1.0" encoding="UTF-8" standalone="no"?>
<!DOCTYPE svg PUBLIC "-//W3C//DTD SVG 1.1//EN"
 "http://www.w3.org/Graphics/SVG/1.1/DTD/svg11.dtd">
<!-- Generated by graphviz version 2.48.0 (0)
 -->
<!-- Title: modbusSlaveAllocateResponse Pages: 1 -->
<svg width="727pt" height="218pt"
 viewBox="0.00 0.00 727.00 218.00" xmlns="http://www.w3.org/2000/svg" xmlns:xlink="http://www.w3.org/1999/xlink">
<g id="graph0" class="graph" transform="scale(1 1) rotate(0) translate(4 214)">
<title>modbusSlaveAllocateResponse</title>
<!-- Node1 -->
<g id="node1" class="node">
<title>Node1</title>
<g id="a_node1"><a xlink:title="Allocates memory for slave&#39;s response frame.">
<polygon fill="#bfbfbf" stroke="black" points="549,-95.5 549,-114.5 719,-114.5 719,-95.5 549,-95.5"/>
<text text-anchor="middle" x="634" y="-102.5" font-family="Helvetica,sans-Serif" font-size="10.00">modbusSlaveAllocateResponse</text>
</a>
</g>
</g>
<!-- Node2 -->
<g id="node2" class="node">
<title>Node2</title>
<g id="a_node2"><a xlink:href="slave_8h.html#a01b0b86602f899214d564f5bbe6ffdb2" target="_top" xlink:title="Builds an exception response frame.">
<polygon fill="none" stroke="black" points="385,-114.5 385,-133.5 513,-133.5 513,-114.5 385,-114.5"/>
<text text-anchor="middle" x="449" y="-121.5" font-family="Helvetica,sans-Serif" font-size="10.00">modbusBuildException</text>
</a>
</g>
</g>
<!-- Node1&#45;&gt;Node2 -->
<g id="edge1" class="edge">
<title>Node1&#45;&gt;Node2</title>
<path fill="none" stroke="midnightblue" d="M538.83,-114.78C530.16,-115.68 521.53,-116.57 513.23,-117.43"/>
<polygon fill="midnightblue" stroke="midnightblue" points="539.41,-118.24 549,-113.72 538.69,-111.27 539.41,-118.24"/>
</g>
<!-- Node3 -->
<g id="node3" class="node">
<title>Node3</title>
<g id="a_node3"><a xlink:href="slave__func_8h.html#a070ffd089a641ac5c769dc81bd65a982" target="_top" xlink:title="Handles requests 01, 02, 03 and 04 (Read Multiple XX)">
<polygon fill="none" stroke="black" points="179,-190.5 179,-209.5 349,-209.5 349,-190.5 179,-190.5"/>
<text text-anchor="middle" x="264" y="-197.5" font-family="Helvetica,sans-Serif" font-size="10.00">modbusParseRequest01020304</text>
</a>
</g>
</g>
<!-- Node1&#45;&gt;Node3 -->
<g id="edge9" class="edge">
<title>Node1&#45;&gt;Node3</title>
<path fill="none" stroke="midnightblue" d="M608.72,-119.77C585.13,-133.43 547.85,-153.2 513,-164 459.81,-180.49 397.81,-189.49 349.11,-194.37"/>
<polygon fill="midnightblue" stroke="midnightblue" points="610.52,-122.77 617.36,-114.69 606.97,-116.74 610.52,-122.77"/>
</g>
<!-- Node4 -->
<g id="node4" class="node">
<title>Node4</title>
<g id="a_node4"><a xlink:href="slave__func_8h.html#a409a88238d5769dff441d1745e552352" target="_top" xlink:title="Handles requests 05 and 06 (Write Single XX)">
<polygon fill="none" stroke="black" points="191,-152.5 191,-171.5 337,-171.5 337,-152.5 191,-152.5"/>
<text text-anchor="middle" x="264" y="-159.5" font-family="Helvetica,sans-Serif" font-size="10.00">modbusParseRequest0506</text>
</a>
</g>
</g>
<!-- Node1&#45;&gt;Node4 -->
<g id="edge10" class="edge">
<title>Node1&#45;&gt;Node4</title>
<path fill="none" stroke="midnightblue" d="M599.02,-118.07C575.28,-126.63 542.66,-137.25 513,-143 454.5,-154.35 387,-158.98 337.21,-160.84"/>
<polygon fill="midnightblue" stroke="midnightblue" points="600.43,-121.28 608.61,-114.55 598.02,-114.71 600.43,-121.28"/>
</g>
<!-- Node5 -->
<g id="node5" class="node">
<title>Node5</title>
<g id="a_node5"><a xlink:href="slave__func_8h.html#a1b5c01b97863cc32a9b7aebbf1f652c6" target="_top" xlink:title="Handles requests 15 and 16 (Write Multiple XX)">
<polygon fill="none" stroke="black" points="191,-76.5 191,-95.5 337,-95.5 337,-76.5 191,-76.5"/>
<text text-anchor="middle" x="264" y="-83.5" font-family="Helvetica,sans-Serif" font-size="10.00">modbusParseRequest1516</text>
</a>
</g>
</g>
<!-- Node1&#45;&gt;Node5 -->
<g id="edge11" class="edge">
<title>Node1&#45;&gt;Node5</title>
<path fill="none" stroke="midnightblue" d="M538.28,-100.11C475.62,-96.87 394.72,-92.7 337.24,-89.73"/>
<polygon fill="midnightblue" stroke="midnightblue" points="538.41,-103.62 548.57,-100.64 538.77,-96.63 538.41,-103.62"/>
</g>
<!-- Node6 -->
<g id="node6" class="node">
<title>Node6</title>
<g id="a_node6"><a xlink:href="slave__func_8h.html#a58c24d2648cb5487ac7cf110282e5c18" target="_top" xlink:title="Handles request 22 (Mask Write Register)">
<polygon fill="none" stroke="black" points="197,-38.5 197,-57.5 331,-57.5 331,-38.5 197,-38.5"/>
<text text-anchor="middle" x="264" y="-45.5" font-family="Helvetica,sans-Serif" font-size="10.00">modbusParseRequest22</text>
</a>
</g>
</g>
<!-- Node1&#45;&gt;Node6 -->
<g id="edge12" class="edge">
<title>Node1&#45;&gt;Node6</title>
<path fill="none" stroke="midnightblue" d="M561.16,-93.87C492.84,-83.29 391.16,-67.54 326.49,-57.52"/>
<polygon fill="midnightblue" stroke="midnightblue" points="560.99,-97.39 571.41,-95.46 562.06,-90.47 560.99,-97.39"/>
</g>
<!-- Node10 -->
<g id="node10" class="node">
<title>Node10</title>
<g id="a_node10"><a xlink:href="slave_8h.html#a70695c3b7355bc0a3e6d49c46a4eef1f" target="_top" xlink:title="Frees memory allocated in the ModbusSlave struct.">
<polygon fill="none" stroke="black" points="388.5,-0.5 388.5,-19.5 509.5,-19.5 509.5,-0.5 388.5,-0.5"/>
<text text-anchor="middle" x="449" y="-7.5" font-family="Helvetica,sans-Serif" font-size="10.00">modbusSlaveDestroy</text>
</a>
</g>
</g>
<!-- Node1&#45;&gt;Node10 -->
<g id="edge13" class="edge">
<title>Node1&#45;&gt;Node10</title>
<path fill="none" stroke="midnightblue" d="M610.05,-89.82C586.36,-74.54 548.04,-50.89 513,-34 501.82,-28.61 489.1,-23.57 478.03,-19.52"/>
<polygon fill="midnightblue" stroke="midnightblue" points="608.37,-92.91 618.66,-95.43 612.19,-87.04 608.37,-92.91"/>
</g>
<!-- Node2&#45;&gt;Node3 -->
<g id="edge2" class="edge">
<title>Node2&#45;&gt;Node3</title>
<path fill="none" stroke="midnightblue" d="M425.8,-139.38C406.35,-152.21 376.91,-170.1 349,-181 339.39,-184.75 328.86,-187.86 318.6,-190.41"/>
<polygon fill="midnightblue" stroke="midnightblue" points="427.9,-142.19 434.25,-133.72 423.99,-136.38 427.9,-142.19"/>
</g>
<!-- Node2&#45;&gt;Node4 -->
<g id="edge3" class="edge">
<title>Node2&#45;&gt;Node4</title>
<path fill="none" stroke="midnightblue" d="M391.75,-135.68C365.79,-141.07 335.38,-147.39 310.85,-152.48"/>
<polygon fill="midnightblue" stroke="midnightblue" points="392.74,-139.05 401.82,-133.59 391.32,-132.2 392.74,-139.05"/>
</g>
<!-- Node2&#45;&gt;Node5 -->
<g id="edge4" class="edge">
<title>Node2&#45;&gt;Node5</title>
<path fill="none" stroke="midnightblue" d="M391.75,-112.32C365.79,-106.93 335.38,-100.61 310.85,-95.52"/>
<polygon fill="midnightblue" stroke="midnightblue" points="391.32,-115.8 401.82,-114.41 392.74,-108.95 391.32,-115.8"/>
</g>
<!-- Node2&#45;&gt;Node6 -->
<g id="edge5" class="edge">
<title>Node2&#45;&gt;Node6</title>
<path fill="none" stroke="midnightblue" d="M425.8,-108.62C406.35,-95.79 376.91,-77.9 349,-67 339.39,-63.25 328.86,-60.14 318.6,-57.59"/>
<polygon fill="midnightblue" stroke="midnightblue" points="423.99,-111.62 434.25,-114.28 427.9,-105.81 423.99,-111.62"/>
</g>
<!-- Node7 -->
<g id="node7" class="node">
<title>Node7</title>
<g id="a_node7"><a xlink:href="slave_8h.html#a678436c7849be06c8871bc589d0c7011" target="_top" xlink:title="Parses provided PDU (Protocol Data Unit)">
<polygon fill="none" stroke="black" points="192.5,-114.5 192.5,-133.5 335.5,-133.5 335.5,-114.5 192.5,-114.5"/>
<text text-anchor="middle" x="264" y="-121.5" font-family="Helvetica,sans-Serif" font-size="10.00">modbusParseRequestPDU</text>
</a>
</g>
</g>
<!-- Node2&#45;&gt;Node7 -->
<g id="edge6" class="edge">
<title>Node2&#45;&gt;Node7</title>
<path fill="none" stroke="midnightblue" d="M374.62,-124C361.8,-124 348.5,-124 335.76,-124"/>
<polygon fill="midnightblue" stroke="midnightblue" points="374.77,-127.5 384.77,-124 374.77,-120.5 374.77,-127.5"/>
</g>
<!-- Node8 -->
<g id="node8" class="node">
<title>Node8</title>
<g id="a_node8"><a xlink:href="slave_8h.html#a9da6d040ddc4a1ba71b03fad7a2fece3" target="_top" xlink:title="Parses provided Modbus RTU request frame.">
<polygon fill="none" stroke="black" points="0,-133.5 0,-152.5 143,-152.5 143,-133.5 0,-133.5"/>
<text text-anchor="middle" x="71.5" y="-140.5" font-family="Helvetica,sans-Serif" font-size="10.00">modbusParseRequestRTU</text>
</a>
</g>
</g>
<!-- Node7&#45;&gt;Node8 -->
<g id="edge7" class="edge">
<title>Node7&#45;&gt;Node8</title>
<path fill="none" stroke="midnightblue" d="M182.04,-132.08C169.07,-133.37 155.75,-134.7 143.05,-135.96"/>
<polygon fill="midnightblue" stroke="midnightblue" points="182.73,-135.52 192.34,-131.05 182.04,-128.56 182.73,-135.52"/>
</g>
<!-- Node9 -->
<g id="node9" class="node">
<title>Node9</title>
<g id="a_node9"><a xlink:href="slave_8h.html#a11f5dfe3b6a3f37ca7c7eb179ca75864" target="_top" xlink:title="Parses provided Modbus TCP request frame.">
<polygon fill="none" stroke="black" points="1,-95.5 1,-114.5 142,-114.5 142,-95.5 1,-95.5"/>
<text text-anchor="middle" x="71.5" y="-102.5" font-family="Helvetica,sans-Serif" font-size="10.00">modbusParseRequestTCP</text>
</a>
</g>
</g>
<!-- Node7&#45;&gt;Node9 -->
<g id="edge8" class="edge">
<title>Node7&#45;&gt;Node9</title>
<path fill="none" stroke="midnightblue" d="M182.22,-115.94C168.88,-114.61 155.14,-113.24 142.1,-111.94"/>
<polygon fill="midnightblue" stroke="midnightblue" points="182.04,-119.44 192.34,-116.95 182.73,-112.48 182.04,-119.44"/>
</g>
</g>
</svg>
