<?xml version="1.0" encoding="UTF-8" standalone="no"?>
<!DOCTYPE svg PUBLIC "-//W3C//DTD SVG 1.1//EN"
 "http://www.w3.org/Graphics/SVG/1.1/DTD/svg11.dtd">
<!-- Generated by graphviz version 2.48.0 (0)
 -->
<!-- Title: include/lightmodbus/slave.impl.h Pages: 1 -->
<svg width="164pt" height="207pt"
 viewBox="0.00 0.00 163.53 207.00" xmlns="http://www.w3.org/2000/svg" xmlns:xlink="http://www.w3.org/1999/xlink">
<g id="graph0" class="graph" transform="scale(1 1) rotate(0) translate(4 203)">
<title>include/lightmodbus/slave.impl.h</title>
<!-- Node1 -->
<g id="node1" class="node">
<title>Node1</title>
<g id="a_node1"><a xlink:title=" ">
<polygon fill="#bfbfbf" stroke="black" points="16.53,-168.5 16.53,-198.5 132.53,-198.5 132.53,-168.5 16.53,-168.5"/>
<text text-anchor="start" x="24.53" y="-186.5" font-family="Helvetica,sans-Serif" font-size="10.00">include/lightmodbus</text>
<text text-anchor="middle" x="74.53" y="-175.5" font-family="Helvetica,sans-Serif" font-size="10.00">/slave.impl.h</text>
</a>
</g>
</g>
<!-- Node2 -->
<g id="node2" class="node">
<title>Node2</title>
<g id="a_node2"><a xlink:href="slave_8h.html" target="_top" xlink:title=" ">
<polygon fill="none" stroke="black" points="7.53,-112.5 7.53,-131.5 59.53,-131.5 59.53,-112.5 7.53,-112.5"/>
<text text-anchor="middle" x="33.53" y="-119.5" font-family="Helvetica,sans-Serif" font-size="10.00">slave.h</text>
</a>
</g>
</g>
<!-- Node1&#45;&gt;Node2 -->
<g id="edge1" class="edge">
<title>Node1&#45;&gt;Node2</title>
<path fill="none" stroke="midnightblue" d="M64.82,-168.4C58.98,-159.93 51.52,-149.1 45.34,-140.14"/>
<polygon fill="midnightblue" stroke="midnightblue" points="48.06,-137.91 39.5,-131.66 42.29,-141.88 48.06,-137.91"/>
</g>
<!-- Node6 -->
<g id="node6" class="node">
<title>Node6</title>
<g id="a_node6"><a xlink:href="slave__func_8h.html" target="_top" xlink:title=" ">
<polygon fill="none" stroke="black" points="77.53,-112.5 77.53,-131.5 155.53,-131.5 155.53,-112.5 77.53,-112.5"/>
<text text-anchor="middle" x="116.53" y="-119.5" font-family="Helvetica,sans-Serif" font-size="10.00">slave_func.h</text>
</a>
</g>
</g>
<!-- Node1&#45;&gt;Node6 -->
<g id="edge6" class="edge">
<title>Node1&#45;&gt;Node6</title>
<path fill="none" stroke="midnightblue" d="M84.49,-168.4C90.53,-159.84 98.27,-148.87 104.63,-139.86"/>
<polygon fill="midnightblue" stroke="midnightblue" points="107.51,-141.85 110.42,-131.66 101.8,-137.81 107.51,-141.85"/>
</g>
<!-- Node3 -->
<g id="node3" class="node">
<title>Node3</title>
<g id="a_node3"><a xlink:title=" ">
<polygon fill="none" stroke="#bfbfbf" points="20.03,-0.5 20.03,-19.5 73.03,-19.5 73.03,-0.5 20.03,-0.5"/>
<text text-anchor="middle" x="46.53" y="-7.5" font-family="Helvetica,sans-Serif" font-size="10.00">stdint.h</text>
</a>
</g>
</g>
<!-- Node2&#45;&gt;Node3 -->
<g id="edge2" class="edge">
<title>Node2&#45;&gt;Node3</title>
<path fill="none" stroke="midnightblue" d="M24.31,-112.31C12.4,-99.98 -5.87,-76.61 2.53,-56 7.33,-44.23 16.86,-33.86 25.83,-26.05"/>
<polygon fill="midnightblue" stroke="midnightblue" points="28.18,-28.64 33.75,-19.63 23.78,-23.2 28.18,-28.64"/>
</g>
<!-- Node4 -->
<g id="node4" class="node">
<title>Node4</title>
<g id="a_node4"><a xlink:title=" ">
<polygon fill="none" stroke="#bfbfbf" points="11.53,-56.5 11.53,-75.5 67.53,-75.5 67.53,-56.5 11.53,-56.5"/>
<text text-anchor="middle" x="39.53" y="-63.5" font-family="Helvetica,sans-Serif" font-size="10.00">stddef.h</text>
</a>
</g>
</g>
<!-- Node2&#45;&gt;Node4 -->
<g id="edge3" class="edge">
<title>Node2&#45;&gt;Node4</title>
<path fill="none" stroke="midnightblue" d="M34.52,-112.08C35.32,-104.93 36.46,-94.64 37.46,-85.69"/>
<polygon fill="midnightblue" stroke="midnightblue" points="40.94,-86.08 38.56,-75.75 33.98,-85.3 40.94,-86.08"/>
</g>
<!-- Node5 -->
<g id="node5" class="node">
<title>Node5</title>
<g id="a_node5"><a xlink:href="base_8h.html" target="_top" xlink:title=" ">
<polygon fill="none" stroke="black" points="86.03,-56.5 86.03,-75.5 135.03,-75.5 135.03,-56.5 86.03,-56.5"/>
<text text-anchor="middle" x="110.53" y="-63.5" font-family="Helvetica,sans-Serif" font-size="10.00">base.h</text>
</a>
</g>
</g>
<!-- Node2&#45;&gt;Node5 -->
<g id="edge4" class="edge">
<title>Node2&#45;&gt;Node5</title>
<path fill="none" stroke="midnightblue" d="M45.9,-112.32C57.69,-104.06 75.67,-91.45 89.67,-81.63"/>
<polygon fill="midnightblue" stroke="midnightblue" points="92.02,-84.26 98.19,-75.65 88,-78.53 92.02,-84.26"/>
</g>
<!-- Node5&#45;&gt;Node3 -->
<g id="edge5" class="edge">
<title>Node5&#45;&gt;Node3</title>
<path fill="none" stroke="midnightblue" d="M100.25,-56.32C90.7,-48.26 76.25,-36.08 64.75,-26.37"/>
<polygon fill="midnightblue" stroke="midnightblue" points="66.9,-23.61 57,-19.83 62.39,-28.96 66.9,-23.61"/>
</g>
<!-- Node6&#45;&gt;Node5 -->
<g id="edge7" class="edge">
<title>Node6&#45;&gt;Node5</title>
<path fill="none" stroke="midnightblue" d="M115.54,-112.08C114.75,-104.93 113.6,-94.64 112.61,-85.69"/>
<polygon fill="midnightblue" stroke="midnightblue" points="116.09,-85.3 111.51,-75.75 109.13,-86.08 116.09,-85.3"/>
</g>
</g>
</svg>
