<?xml version="1.0" encoding="UTF-8" standalone="no"?>
<!DOCTYPE svg PUBLIC "-//W3C//DTD SVG 1.1//EN"
 "http://www.w3.org/Graphics/SVG/1.1/DTD/svg11.dtd">
<!-- Generated by graphviz version 2.44.0 ()
 -->
<!-- Title: include/lightmodbus/slave.impl.h Pages: 1 -->
<svg width="151pt" height="207pt"
 viewBox="0.00 0.00 150.86 207.00" xmlns="http://www.w3.org/2000/svg" xmlns:xlink="http://www.w3.org/1999/xlink">
<g id="graph0" class="graph" transform="scale(1 1) rotate(0) translate(4 203)">
<title>include/lightmodbus/slave.impl.h</title>
<!-- Node1 -->
<g id="node1" class="node">
<title>Node1</title>
<g id="a_node1"><a xlink:title=" ">
<polygon fill="#bfbfbf" stroke="black" points="16.86,-168.5 16.86,-198.5 119.86,-198.5 119.86,-168.5 16.86,-168.5"/>
<text text-anchor="start" x="24.86" y="-186.5" font-family="Helvetica,sans-Serif" font-size="10.00">include/lightmodbus</text>
<text text-anchor="middle" x="68.36" y="-175.5" font-family="Helvetica,sans-Serif" font-size="10.00">/slave.impl.h</text>
</a>
</g>
</g>
<!-- Node2 -->
<g id="node2" class="node">
<title>Node2</title>
<g id="a_node2"><a xlink:href="slave_8h.html" target="_top" xlink:title=" ">
<polygon fill="none" stroke="black" points="6.86,-112.5 6.86,-131.5 53.86,-131.5 53.86,-112.5 6.86,-112.5"/>
<text text-anchor="middle" x="30.36" y="-119.5" font-family="Helvetica,sans-Serif" font-size="10.00">slave.h</text>
</a>
</g>
</g>
<!-- Node1&#45;&gt;Node2 -->
<g id="edge1" class="edge">
<title>Node1&#45;&gt;Node2</title>
<path fill="none" stroke="midnightblue" d="M59.36,-168.4C53.95,-159.93 47.03,-149.1 41.31,-140.14"/>
<polygon fill="midnightblue" stroke="midnightblue" points="44.23,-138.2 35.89,-131.66 38.33,-141.97 44.23,-138.2"/>
</g>
<!-- Node6 -->
<g id="node6" class="node">
<title>Node6</title>
<g id="a_node6"><a xlink:href="slave__func_8h.html" target="_top" xlink:title=" ">
<polygon fill="none" stroke="black" points="71.86,-112.5 71.86,-131.5 142.86,-131.5 142.86,-112.5 71.86,-112.5"/>
<text text-anchor="middle" x="107.36" y="-119.5" font-family="Helvetica,sans-Serif" font-size="10.00">slave_func.h</text>
</a>
</g>
</g>
<!-- Node1&#45;&gt;Node6 -->
<g id="edge6" class="edge">
<title>Node1&#45;&gt;Node6</title>
<path fill="none" stroke="midnightblue" d="M77.61,-168.4C83.16,-159.93 90.26,-149.1 96.13,-140.14"/>
<polygon fill="midnightblue" stroke="midnightblue" points="99.14,-141.94 101.69,-131.66 93.28,-138.1 99.14,-141.94"/>
</g>
<!-- Node3 -->
<g id="node3" class="node">
<title>Node3</title>
<g id="a_node3"><a xlink:title=" ">
<polygon fill="none" stroke="#bfbfbf" points="18.36,-0.5 18.36,-19.5 66.36,-19.5 66.36,-0.5 18.36,-0.5"/>
<text text-anchor="middle" x="42.36" y="-7.5" font-family="Helvetica,sans-Serif" font-size="10.00">stdint.h</text>
</a>
</g>
</g>
<!-- Node2&#45;&gt;Node3 -->
<g id="edge2" class="edge">
<title>Node2&#45;&gt;Node3</title>
<path fill="none" stroke="midnightblue" d="M21.99,-112.27C11.17,-99.88 -5.41,-76.44 2.36,-56 6.7,-44.6 15.4,-34.24 23.57,-26.34"/>
<polygon fill="midnightblue" stroke="midnightblue" points="26.01,-28.86 31.1,-19.57 21.32,-23.66 26.01,-28.86"/>
</g>
<!-- Node4 -->
<g id="node4" class="node">
<title>Node4</title>
<g id="a_node4"><a xlink:title=" ">
<polygon fill="none" stroke="#bfbfbf" points="10.86,-56.5 10.86,-75.5 61.86,-75.5 61.86,-56.5 10.86,-56.5"/>
<text text-anchor="middle" x="36.36" y="-63.5" font-family="Helvetica,sans-Serif" font-size="10.00">stddef.h</text>
</a>
</g>
</g>
<!-- Node2&#45;&gt;Node4 -->
<g id="edge3" class="edge">
<title>Node2&#45;&gt;Node4</title>
<path fill="none" stroke="midnightblue" d="M31.36,-112.08C32.15,-104.93 33.29,-94.64 34.29,-85.69"/>
<polygon fill="midnightblue" stroke="midnightblue" points="37.77,-86.08 35.39,-75.75 30.81,-85.3 37.77,-86.08"/>
</g>
<!-- Node5 -->
<g id="node5" class="node">
<title>Node5</title>
<g id="a_node5"><a xlink:href="base_8h.html" target="_top" xlink:title=" ">
<polygon fill="none" stroke="black" points="79.86,-56.5 79.86,-75.5 124.86,-75.5 124.86,-56.5 79.86,-56.5"/>
<text text-anchor="middle" x="102.36" y="-63.5" font-family="Helvetica,sans-Serif" font-size="10.00">base.h</text>
</a>
</g>
</g>
<!-- Node2&#45;&gt;Node5 -->
<g id="edge4" class="edge">
<title>Node2&#45;&gt;Node5</title>
<path fill="none" stroke="midnightblue" d="M41.93,-112.32C52.78,-104.18 69.25,-91.84 82.25,-82.09"/>
<polygon fill="midnightblue" stroke="midnightblue" points="84.69,-84.63 90.59,-75.83 80.49,-79.03 84.69,-84.63"/>
</g>
<!-- Node5&#45;&gt;Node3 -->
<g id="edge5" class="edge">
<title>Node5&#45;&gt;Node3</title>
<path fill="none" stroke="midnightblue" d="M92.72,-56.32C83.86,-48.34 70.49,-36.31 59.76,-26.65"/>
<polygon fill="midnightblue" stroke="midnightblue" points="61.95,-23.92 52.18,-19.83 57.27,-29.13 61.95,-23.92"/>
</g>
<!-- Node6&#45;&gt;Node5 -->
<g id="edge7" class="edge">
<title>Node6&#45;&gt;Node5</title>
<path fill="none" stroke="midnightblue" d="M106.54,-112.08C105.88,-105.01 104.94,-94.86 104.12,-85.99"/>
<polygon fill="midnightblue" stroke="midnightblue" points="107.58,-85.39 103.17,-75.75 100.61,-86.03 107.58,-85.39"/>
</g>
</g>
</svg>
