<?xml version="1.0" encoding="UTF-8" standalone="no"?>
<!DOCTYPE svg PUBLIC "-//W3C//DTD SVG 1.1//EN"
 "http://www.w3.org/Graphics/SVG/1.1/DTD/svg11.dtd">
<!-- Generated by graphviz version 2.48.0 (0)
 -->
<!-- Title: modbusParseRequestTCP Pages: 1 -->
<svg width="699pt" height="180pt"
 viewBox="0.00 0.00 699.00 180.00" xmlns="http://www.w3.org/2000/svg" xmlns:xlink="http://www.w3.org/1999/xlink">
<g id="graph0" class="graph" transform="scale(1 1) rotate(0) translate(4 176)">
<title>modbusParseRequestTCP</title>
<!-- Node1 -->
<g id="node1" class="node">
<title>Node1</title>
<g id="a_node1"><a xlink:title="Parses provided Modbus TCP request frame.">
<polygon fill="#bfbfbf" stroke="black" points="0,-57.5 0,-76.5 141,-76.5 141,-57.5 0,-57.5"/>
<text text-anchor="middle" x="70.5" y="-64.5" font-family="Helvetica,sans-Serif" font-size="10.00">modbusParseRequestTCP</text>
</a>
</g>
</g>
<!-- Node2 -->
<g id="node2" class="node">
<title>Node2</title>
<g id="a_node2"><a xlink:href="base_8h.html#ab945e5e4e573e91a217e0e0a389daa48" target="_top" xlink:title=" ">
<polygon fill="none" stroke="black" points="210,-114.5 210,-133.5 287,-133.5 287,-114.5 210,-114.5"/>
<text text-anchor="middle" x="248.5" y="-121.5" font-family="Helvetica,sans-Serif" font-size="10.00">modbusIsOk</text>
</a>
</g>
</g>
<!-- Node1&#45;&gt;Node2 -->
<g id="edge1" class="edge">
<title>Node1&#45;&gt;Node2</title>
<path fill="none" stroke="midnightblue" d="M96.46,-76.65C117.71,-84.7 149.14,-96.25 177,-105 184.32,-107.3 192.11,-109.57 199.75,-111.7"/>
<polygon fill="midnightblue" stroke="midnightblue" points="199.08,-115.15 209.65,-114.41 200.93,-108.4 199.08,-115.15"/>
</g>
<!-- Node5 -->
<g id="node5" class="node">
<title>Node5</title>
<g id="a_node5"><a xlink:href="slave_8impl_8h.html#a678436c7849be06c8871bc589d0c7011" target="_top" xlink:title="Parses provided PDU (Protocol Data Unit)">
<polygon fill="none" stroke="black" points="177,-76.5 177,-95.5 320,-95.5 320,-76.5 177,-76.5"/>
<text text-anchor="middle" x="248.5" y="-83.5" font-family="Helvetica,sans-Serif" font-size="10.00">modbusParseRequestPDU</text>
</a>
</g>
</g>
<!-- Node1&#45;&gt;Node5 -->
<g id="edge4" class="edge">
<title>Node1&#45;&gt;Node5</title>
<path fill="none" stroke="midnightblue" d="M141.06,-74.51C149.49,-75.42 158.15,-76.35 166.72,-77.28"/>
<polygon fill="midnightblue" stroke="midnightblue" points="166.4,-80.76 176.71,-78.36 167.15,-73.81 166.4,-80.76"/>
</g>
<!-- Node8 -->
<g id="node8" class="node">
<title>Node8</title>
<g id="a_node8"><a xlink:href="base_8h.html#a724223277fcf6255904a91f181aa1ac8" target="_top" xlink:title="Safely reads a big&#45;endian 16&#45;bit word from provided pointer.">
<polygon fill="none" stroke="black" points="211,-38.5 211,-57.5 286,-57.5 286,-38.5 211,-38.5"/>
<text text-anchor="middle" x="248.5" y="-45.5" font-family="Helvetica,sans-Serif" font-size="10.00">modbusRBE</text>
</a>
</g>
</g>
<!-- Node1&#45;&gt;Node8 -->
<g id="edge7" class="edge">
<title>Node1&#45;&gt;Node8</title>
<path fill="none" stroke="midnightblue" d="M141.06,-59.49C161.07,-57.33 182.42,-55.03 200.7,-53.05"/>
<polygon fill="midnightblue" stroke="midnightblue" points="201.23,-56.52 210.79,-51.96 200.47,-49.56 201.23,-56.52"/>
</g>
<!-- Node9 -->
<g id="node9" class="node">
<title>Node9</title>
<g id="a_node9"><a xlink:href="base_8h.html#ae117274d7263b4d1bc696eb1874b3279" target="_top" xlink:title="Safely writes a big&#45;endian 16&#45;bit word to provided pointer.">
<polygon fill="none" stroke="black" points="209.5,-0.5 209.5,-19.5 287.5,-19.5 287.5,-0.5 209.5,-0.5"/>
<text text-anchor="middle" x="248.5" y="-7.5" font-family="Helvetica,sans-Serif" font-size="10.00">modbusWBE</text>
</a>
</g>
</g>
<!-- Node1&#45;&gt;Node9 -->
<g id="edge8" class="edge">
<title>Node1&#45;&gt;Node9</title>
<path fill="none" stroke="midnightblue" d="M96.46,-57.35C117.71,-49.3 149.14,-37.75 177,-29 184.32,-26.7 192.11,-24.43 199.75,-22.3"/>
<polygon fill="midnightblue" stroke="midnightblue" points="200.93,-25.6 209.65,-19.59 199.08,-18.85 200.93,-25.6"/>
</g>
<!-- Node3 -->
<g id="node3" class="node">
<title>Node3</title>
<g id="a_node3"><a xlink:href="base_8impl_8h.html#ab01c2addaafe619040a2e0fa302ed5d4" target="_top" xlink:title=" ">
<polygon fill="none" stroke="black" points="360,-152.5 360,-171.5 481,-171.5 481,-152.5 360,-152.5"/>
<text text-anchor="middle" x="420.5" y="-159.5" font-family="Helvetica,sans-Serif" font-size="10.00">modbusGetErrorCode</text>
</a>
</g>
</g>
<!-- Node2&#45;&gt;Node3 -->
<g id="edge2" class="edge">
<title>Node2&#45;&gt;Node3</title>
<path fill="none" stroke="midnightblue" d="M287.23,-132.43C310.63,-137.66 341.04,-144.46 366.8,-150.22"/>
<polygon fill="midnightblue" stroke="midnightblue" points="366.27,-153.69 376.79,-152.45 367.79,-146.86 366.27,-153.69"/>
</g>
<!-- Node4 -->
<g id="node4" class="node">
<title>Node4</title>
<g id="a_node4"><a xlink:href="base_8impl_8h.html#ad3119b6543dcad7c77b4e534c4545112" target="_top" xlink:title=" ">
<polygon fill="none" stroke="black" points="356,-114.5 356,-133.5 485,-133.5 485,-114.5 356,-114.5"/>
<text text-anchor="middle" x="420.5" y="-121.5" font-family="Helvetica,sans-Serif" font-size="10.00">modbusGetErrorSource</text>
</a>
</g>
</g>
<!-- Node2&#45;&gt;Node4 -->
<g id="edge3" class="edge">
<title>Node2&#45;&gt;Node4</title>
<path fill="none" stroke="midnightblue" d="M287.23,-124C304.47,-124 325.51,-124 345.69,-124"/>
<polygon fill="midnightblue" stroke="midnightblue" points="345.83,-127.5 355.83,-124 345.83,-120.5 345.83,-127.5"/>
</g>
<!-- Node6 -->
<g id="node6" class="node">
<title>Node6</title>
<g id="a_node6"><a xlink:href="slave_8impl_8h.html#a01b0b86602f899214d564f5bbe6ffdb2" target="_top" xlink:title="Builds an exception response frame.">
<polygon fill="none" stroke="black" points="356.5,-76.5 356.5,-95.5 484.5,-95.5 484.5,-76.5 356.5,-76.5"/>
<text text-anchor="middle" x="420.5" y="-83.5" font-family="Helvetica,sans-Serif" font-size="10.00">modbusBuildException</text>
</a>
</g>
</g>
<!-- Node5&#45;&gt;Node6 -->
<g id="edge5" class="edge">
<title>Node5&#45;&gt;Node6</title>
<path fill="none" stroke="midnightblue" d="M320.12,-86C328.77,-86 337.63,-86 346.32,-86"/>
<polygon fill="midnightblue" stroke="midnightblue" points="346.43,-89.5 356.43,-86 346.43,-82.5 346.43,-89.5"/>
</g>
<!-- Node7 -->
<g id="node7" class="node">
<title>Node7</title>
<g id="a_node7"><a xlink:href="slave_8impl_8h.html#a9171547f92321e8a5c9ed60cec59f00a" target="_top" xlink:title="Allocates memory for slave&#39;s response frame.">
<polygon fill="none" stroke="black" points="521,-76.5 521,-95.5 691,-95.5 691,-76.5 521,-76.5"/>
<text text-anchor="middle" x="606" y="-83.5" font-family="Helvetica,sans-Serif" font-size="10.00">modbusSlaveAllocateResponse</text>
</a>
</g>
</g>
<!-- Node6&#45;&gt;Node7 -->
<g id="edge6" class="edge">
<title>Node6&#45;&gt;Node7</title>
<path fill="none" stroke="midnightblue" d="M484.65,-86C493.16,-86 502.04,-86 510.94,-86"/>
<polygon fill="midnightblue" stroke="midnightblue" points="510.99,-89.5 520.99,-86 510.99,-82.5 510.99,-89.5"/>
</g>
</g>
</svg>
