<?xml version="1.0" encoding="UTF-8" standalone="no"?>
<!DOCTYPE svg PUBLIC "-//W3C//DTD SVG 1.1//EN"
 "http://www.w3.org/Graphics/SVG/1.1/DTD/svg11.dtd">
<!-- Generated by graphviz version 2.48.0 (0)
 -->
<!-- Title: modbusParseRequest1516 Pages: 1 -->
<svg width="566pt" height="218pt"
 viewBox="0.00 0.00 566.00 218.00" xmlns="http://www.w3.org/2000/svg" xmlns:xlink="http://www.w3.org/1999/xlink">
<g id="graph0" class="graph" transform="scale(1 1) rotate(0) translate(4 214)">
<title>modbusParseRequest1516</title>
<!-- Node1 -->
<g id="node1" class="node">
<title>Node1</title>
<g id="a_node1"><a xlink:title="Handles requests 15 and 16 (Write Multiple XX)">
<polygon fill="#bfbfbf" stroke="black" points="0,-95.5 0,-114.5 146,-114.5 146,-95.5 0,-95.5"/>
<text text-anchor="middle" x="73" y="-102.5" font-family="Helvetica,sans-Serif" font-size="10.00">modbusParseRequest1516</text>
</a>
</g>
</g>
<!-- Node2 -->
<g id="node2" class="node">
<title>Node2</title>
<g id="a_node2"><a xlink:href="base_8h.html#a98cb625b5c4b9ee5d7f529650c4d9112" target="_top" xlink:title="Returns number of bytes necessary to hold given number of bits.">
<polygon fill="none" stroke="black" points="210.5,-190.5 210.5,-209.5 323.5,-209.5 323.5,-190.5 210.5,-190.5"/>
<text text-anchor="middle" x="267" y="-197.5" font-family="Helvetica,sans-Serif" font-size="10.00">modbusBitsToBytes</text>
</a>
</g>
</g>
<!-- Node1&#45;&gt;Node2 -->
<g id="edge1" class="edge">
<title>Node1&#45;&gt;Node2</title>
<path fill="none" stroke="midnightblue" d="M84.47,-114.54C102.83,-130.72 142.6,-163.51 182,-181 187.83,-183.59 194.05,-185.84 200.36,-187.8"/>
<polygon fill="midnightblue" stroke="midnightblue" points="199.75,-191.26 210.33,-190.64 201.67,-184.53 199.75,-191.26"/>
</g>
<!-- Node3 -->
<g id="node3" class="node">
<title>Node3</title>
<g id="a_node3"><a xlink:href="slave_8h.html#a01b0b86602f899214d564f5bbe6ffdb2" target="_top" xlink:title="Builds an exception response frame.">
<polygon fill="none" stroke="black" points="203,-152.5 203,-171.5 331,-171.5 331,-152.5 203,-152.5"/>
<text text-anchor="middle" x="267" y="-159.5" font-family="Helvetica,sans-Serif" font-size="10.00">modbusBuildException</text>
</a>
</g>
</g>
<!-- Node1&#45;&gt;Node3 -->
<g id="edge2" class="edge">
<title>Node1&#45;&gt;Node3</title>
<path fill="none" stroke="midnightblue" d="M98.62,-114.58C120.34,-122.81 152.97,-134.64 182,-143 190.76,-145.52 200.11,-147.92 209.27,-150.11"/>
<polygon fill="midnightblue" stroke="midnightblue" points="208.57,-153.54 219.1,-152.4 210.16,-146.72 208.57,-153.54"/>
</g>
<!-- Node5 -->
<g id="node5" class="node">
<title>Node5</title>
<g id="a_node5"><a xlink:href="base_8h.html#ad0d4b7190cf5fcc183f3656ce1c03b0b" target="_top" xlink:title="Reads n&#45;th bit from an array.">
<polygon fill="none" stroke="black" points="213.5,-114.5 213.5,-133.5 320.5,-133.5 320.5,-114.5 213.5,-114.5"/>
<text text-anchor="middle" x="267" y="-121.5" font-family="Helvetica,sans-Serif" font-size="10.00">modbusMaskRead</text>
</a>
</g>
</g>
<!-- Node1&#45;&gt;Node5 -->
<g id="edge4" class="edge">
<title>Node1&#45;&gt;Node5</title>
<path fill="none" stroke="midnightblue" d="M146.04,-112.13C164.89,-113.99 185.07,-115.99 203.38,-117.8"/>
<polygon fill="midnightblue" stroke="midnightblue" points="203.05,-121.29 213.35,-118.79 203.74,-114.32 203.05,-121.29"/>
</g>
<!-- Node6 -->
<g id="node6" class="node">
<title>Node6</title>
<g id="a_node6"><a xlink:href="base_8h.html#a724223277fcf6255904a91f181aa1ac8" target="_top" xlink:title="Safely reads a big&#45;endian 16&#45;bit word from provided pointer.">
<polygon fill="none" stroke="black" points="229.5,-76.5 229.5,-95.5 304.5,-95.5 304.5,-76.5 229.5,-76.5"/>
<text text-anchor="middle" x="267" y="-83.5" font-family="Helvetica,sans-Serif" font-size="10.00">modbusRBE</text>
</a>
</g>
</g>
<!-- Node1&#45;&gt;Node6 -->
<g id="edge5" class="edge">
<title>Node1&#45;&gt;Node6</title>
<path fill="none" stroke="midnightblue" d="M146.04,-97.87C170.57,-95.44 197.32,-92.8 219.33,-90.62"/>
<polygon fill="midnightblue" stroke="midnightblue" points="219.79,-94.09 229.4,-89.62 219.1,-87.12 219.79,-94.09"/>
</g>
<!-- Node7 -->
<g id="node7" class="node">
<title>Node7</title>
<g id="a_node7"><a xlink:href="slave_8h.html#af92eebc644e36158bddfba128235fef6" target="_top" xlink:title="Allocates memory for slave&#39;s response frame.">
<polygon fill="none" stroke="black" points="182,-38.5 182,-57.5 352,-57.5 352,-38.5 182,-38.5"/>
<text text-anchor="middle" x="267" y="-45.5" font-family="Helvetica,sans-Serif" font-size="10.00">modbusSlaveAllocateResponse</text>
</a>
</g>
</g>
<!-- Node1&#45;&gt;Node7 -->
<g id="edge6" class="edge">
<title>Node1&#45;&gt;Node7</title>
<path fill="none" stroke="midnightblue" d="M98.62,-95.42C120.34,-87.19 152.97,-75.36 182,-67 190.76,-64.48 200.11,-62.08 209.27,-59.89"/>
<polygon fill="midnightblue" stroke="midnightblue" points="210.16,-63.28 219.1,-57.6 208.57,-56.46 210.16,-63.28"/>
</g>
<!-- Node8 -->
<g id="node8" class="node">
<title>Node8</title>
<g id="a_node8"><a xlink:href="base_8h.html#ae117274d7263b4d1bc696eb1874b3279" target="_top" xlink:title="Safely writes a big&#45;endian 16&#45;bit word to provided pointer.">
<polygon fill="none" stroke="black" points="228,-0.5 228,-19.5 306,-19.5 306,-0.5 228,-0.5"/>
<text text-anchor="middle" x="267" y="-7.5" font-family="Helvetica,sans-Serif" font-size="10.00">modbusWBE</text>
</a>
</g>
</g>
<!-- Node1&#45;&gt;Node8 -->
<g id="edge7" class="edge">
<title>Node1&#45;&gt;Node8</title>
<path fill="none" stroke="midnightblue" d="M84.47,-95.46C102.83,-79.28 142.6,-46.49 182,-29 193.21,-24.02 205.86,-20.28 217.88,-17.5"/>
<polygon fill="midnightblue" stroke="midnightblue" points="218.73,-20.9 227.78,-15.38 217.27,-14.05 218.73,-20.9"/>
</g>
<!-- Node4 -->
<g id="node4" class="node">
<title>Node4</title>
<g id="a_node4"><a xlink:href="slave_8impl_8h.html#a9171547f92321e8a5c9ed60cec59f00a" target="_top" xlink:title="Allocates memory for slave&#39;s response frame.">
<polygon fill="none" stroke="black" points="388,-152.5 388,-171.5 558,-171.5 558,-152.5 388,-152.5"/>
<text text-anchor="middle" x="473" y="-159.5" font-family="Helvetica,sans-Serif" font-size="10.00">modbusSlaveAllocateResponse</text>
</a>
</g>
</g>
<!-- Node3&#45;&gt;Node4 -->
<g id="edge3" class="edge">
<title>Node3&#45;&gt;Node4</title>
<path fill="none" stroke="midnightblue" d="M331.15,-162C345.84,-162 361.79,-162 377.5,-162"/>
<polygon fill="midnightblue" stroke="midnightblue" points="377.77,-165.5 387.77,-162 377.77,-158.5 377.77,-165.5"/>
</g>
</g>
</svg>
