<?xml version="1.0" encoding="UTF-8" standalone="no"?>
<!DOCTYPE svg PUBLIC "-//W3C//DTD SVG 1.1//EN"
 "http://www.w3.org/Graphics/SVG/1.1/DTD/svg11.dtd">
<!-- Generated by graphviz version 2.48.0 (0)
 -->
<!-- Title: include/lightmodbus/slave.h Pages: 1 -->
<svg width="272pt" height="173pt"
 viewBox="0.00 0.00 271.61 173.00" xmlns="http://www.w3.org/2000/svg" xmlns:xlink="http://www.w3.org/1999/xlink">
<g id="graph0" class="graph" transform="scale(1 1) rotate(0) translate(4 169)">
<title>include/lightmodbus/slave.h</title>
<!-- Node1 -->
<g id="node1" class="node">
<title>Node1</title>
<g id="a_node1"><a xlink:title=" ">
<polygon fill="#bfbfbf" stroke="black" points="13.61,-134.5 13.61,-164.5 129.61,-164.5 129.61,-134.5 13.61,-134.5"/>
<text text-anchor="start" x="21.61" y="-152.5" font-family="Helvetica,sans-Serif" font-size="10.00">include/lightmodbus</text>
<text text-anchor="middle" x="71.61" y="-141.5" font-family="Helvetica,sans-Serif" font-size="10.00">/slave.h</text>
</a>
</g>
</g>
<!-- Node2 -->
<g id="node2" class="node">
<title>Node2</title>
<g id="a_node2"><a xlink:href="lightmodbus_8h.html" target="_top" xlink:title=" ">
<polygon fill="none" stroke="black" points="13.61,-0.5 13.61,-30.5 129.61,-30.5 129.61,-0.5 13.61,-0.5"/>
<text text-anchor="start" x="21.61" y="-18.5" font-family="Helvetica,sans-Serif" font-size="10.00">include/lightmodbus</text>
<text text-anchor="middle" x="71.61" y="-7.5" font-family="Helvetica,sans-Serif" font-size="10.00">/lightmodbus.h</text>
</a>
</g>
</g>
<!-- Node1&#45;&gt;Node2 -->
<g id="edge1" class="edge">
<title>Node1&#45;&gt;Node2</title>
<path fill="none" stroke="midnightblue" d="M33.27,-128.75C21.93,-120.83 10.88,-110.57 4.61,-98 -1.54,-85.67 -1.54,-79.33 4.61,-67 12.47,-51.23 27.87,-39.08 41.93,-30.66"/>
<polygon fill="midnightblue" stroke="midnightblue" points="31.63,-131.85 41.93,-134.34 35.42,-125.97 31.63,-131.85"/>
</g>
<!-- Node3 -->
<g id="node3" class="node">
<title>Node3</title>
<g id="a_node3"><a xlink:href="slave_8impl_8h.html" target="_top" xlink:title=" ">
<polygon fill="none" stroke="black" points="13.61,-67.5 13.61,-97.5 129.61,-97.5 129.61,-67.5 13.61,-67.5"/>
<text text-anchor="start" x="21.61" y="-85.5" font-family="Helvetica,sans-Serif" font-size="10.00">include/lightmodbus</text>
<text text-anchor="middle" x="71.61" y="-74.5" font-family="Helvetica,sans-Serif" font-size="10.00">/slave.impl.h</text>
</a>
</g>
</g>
<!-- Node1&#45;&gt;Node3 -->
<g id="edge2" class="edge">
<title>Node1&#45;&gt;Node3</title>
<path fill="none" stroke="midnightblue" d="M71.61,-124.11C71.61,-115.15 71.61,-105.32 71.61,-97.58"/>
<polygon fill="midnightblue" stroke="midnightblue" points="68.11,-124.4 71.61,-134.4 75.11,-124.4 68.11,-124.4"/>
</g>
<!-- Node4 -->
<g id="node4" class="node">
<title>Node4</title>
<g id="a_node4"><a xlink:href="slave__func_8impl_8h.html" target="_top" xlink:title=" ">
<polygon fill="none" stroke="black" points="147.61,-67.5 147.61,-97.5 263.61,-97.5 263.61,-67.5 147.61,-67.5"/>
<text text-anchor="start" x="155.61" y="-85.5" font-family="Helvetica,sans-Serif" font-size="10.00">include/lightmodbus</text>
<text text-anchor="middle" x="205.61" y="-74.5" font-family="Helvetica,sans-Serif" font-size="10.00">/slave_func.impl.h</text>
</a>
</g>
</g>
<!-- Node1&#45;&gt;Node4 -->
<g id="edge4" class="edge">
<title>Node1&#45;&gt;Node4</title>
<path fill="none" stroke="midnightblue" d="M109.77,-129.99C131,-119.69 157.02,-107.07 176.59,-97.58"/>
<polygon fill="midnightblue" stroke="midnightblue" points="108.16,-126.88 100.69,-134.4 111.21,-133.18 108.16,-126.88"/>
</g>
<!-- Node3&#45;&gt;Node2 -->
<g id="edge3" class="edge">
<title>Node3&#45;&gt;Node2</title>
<path fill="none" stroke="midnightblue" d="M71.61,-57.11C71.61,-48.15 71.61,-38.32 71.61,-30.58"/>
<polygon fill="midnightblue" stroke="midnightblue" points="68.11,-57.4 71.61,-67.4 75.11,-57.4 68.11,-57.4"/>
</g>
<!-- Node4&#45;&gt;Node2 -->
<g id="edge5" class="edge">
<title>Node4&#45;&gt;Node2</title>
<path fill="none" stroke="midnightblue" d="M167.46,-62.99C146.22,-52.69 120.2,-40.07 100.63,-30.58"/>
<polygon fill="midnightblue" stroke="midnightblue" points="166.01,-66.18 176.53,-67.4 169.06,-59.88 166.01,-66.18"/>
</g>
</g>
</svg>
