<?xml version="1.0" encoding="UTF-8" standalone="no"?>
<!DOCTYPE svg PUBLIC "-//W3C//DTD SVG 1.1//EN"
 "http://www.w3.org/Graphics/SVG/1.1/DTD/svg11.dtd">
<!-- Generated by graphviz version 2.48.0 (0)
 -->
<!-- Title: include/lightmodbus/slave_func.impl.h Pages: 1 -->
<svg width="199pt" height="207pt"
 viewBox="0.00 0.00 199.00 207.00" xmlns="http://www.w3.org/2000/svg" xmlns:xlink="http://www.w3.org/1999/xlink">
<g id="graph0" class="graph" transform="scale(1 1) rotate(0) translate(4 203)">
<title>include/lightmodbus/slave_func.impl.h</title>
<!-- Node1 -->
<g id="node1" class="node">
<title>Node1</title>
<g id="a_node1"><a xlink:title=" ">
<polygon fill="#bfbfbf" stroke="black" points="22,-168.5 22,-198.5 138,-198.5 138,-168.5 22,-168.5"/>
<text text-anchor="start" x="30" y="-186.5" font-family="Helvetica,sans-Serif" font-size="10.00">include/lightmodbus</text>
<text text-anchor="middle" x="80" y="-175.5" font-family="Helvetica,sans-Serif" font-size="10.00">/slave_func.impl.h</text>
</a>
</g>
</g>
<!-- Node2 -->
<g id="node2" class="node">
<title>Node2</title>
<g id="a_node2"><a xlink:href="slave__func_8h.html" target="_top" xlink:title=" ">
<polygon fill="none" stroke="black" points="0,-112.5 0,-131.5 78,-131.5 78,-112.5 0,-112.5"/>
<text text-anchor="middle" x="39" y="-119.5" font-family="Helvetica,sans-Serif" font-size="10.00">slave_func.h</text>
</a>
</g>
</g>
<!-- Node1&#45;&gt;Node2 -->
<g id="edge1" class="edge">
<title>Node1&#45;&gt;Node2</title>
<path fill="none" stroke="midnightblue" d="M70.28,-168.4C64.45,-159.93 56.98,-149.1 50.81,-140.14"/>
<polygon fill="midnightblue" stroke="midnightblue" points="53.52,-137.91 44.97,-131.66 47.76,-141.88 53.52,-137.91"/>
</g>
<!-- Node5 -->
<g id="node5" class="node">
<title>Node5</title>
<g id="a_node5"><a xlink:href="slave_8h.html" target="_top" xlink:title=" ">
<polygon fill="none" stroke="black" points="96,-112.5 96,-131.5 148,-131.5 148,-112.5 96,-112.5"/>
<text text-anchor="middle" x="122" y="-119.5" font-family="Helvetica,sans-Serif" font-size="10.00">slave.h</text>
</a>
</g>
</g>
<!-- Node1&#45;&gt;Node5 -->
<g id="edge4" class="edge">
<title>Node1&#45;&gt;Node5</title>
<path fill="none" stroke="midnightblue" d="M89.95,-168.4C95.99,-159.84 103.74,-148.87 110.1,-139.86"/>
<polygon fill="midnightblue" stroke="midnightblue" points="112.98,-141.85 115.89,-131.66 107.26,-137.81 112.98,-141.85"/>
</g>
<!-- Node3 -->
<g id="node3" class="node">
<title>Node3</title>
<g id="a_node3"><a xlink:href="base_8h.html" target="_top" xlink:title=" ">
<polygon fill="none" stroke="black" points="29.5,-56.5 29.5,-75.5 78.5,-75.5 78.5,-56.5 29.5,-56.5"/>
<text text-anchor="middle" x="54" y="-63.5" font-family="Helvetica,sans-Serif" font-size="10.00">base.h</text>
</a>
</g>
</g>
<!-- Node2&#45;&gt;Node3 -->
<g id="edge2" class="edge">
<title>Node2&#45;&gt;Node3</title>
<path fill="none" stroke="midnightblue" d="M41.48,-112.08C43.49,-104.85 46.39,-94.41 48.89,-85.4"/>
<polygon fill="midnightblue" stroke="midnightblue" points="52.26,-86.32 51.57,-75.75 45.52,-84.45 52.26,-86.32"/>
</g>
<!-- Node4 -->
<g id="node4" class="node">
<title>Node4</title>
<g id="a_node4"><a xlink:title=" ">
<polygon fill="none" stroke="#bfbfbf" points="53.5,-0.5 53.5,-19.5 106.5,-19.5 106.5,-0.5 53.5,-0.5"/>
<text text-anchor="middle" x="80" y="-7.5" font-family="Helvetica,sans-Serif" font-size="10.00">stdint.h</text>
</a>
</g>
</g>
<!-- Node3&#45;&gt;Node4 -->
<g id="edge3" class="edge">
<title>Node3&#45;&gt;Node4</title>
<path fill="none" stroke="midnightblue" d="M58.29,-56.08C61.85,-48.69 67.02,-37.95 71.42,-28.81"/>
<polygon fill="midnightblue" stroke="midnightblue" points="74.6,-30.28 75.79,-19.75 68.29,-27.24 74.6,-30.28"/>
</g>
<!-- Node5&#45;&gt;Node3 -->
<g id="edge7" class="edge">
<title>Node5&#45;&gt;Node3</title>
<path fill="none" stroke="midnightblue" d="M111.07,-112.32C100.83,-104.18 85.28,-91.84 73,-82.09"/>
<polygon fill="midnightblue" stroke="midnightblue" points="75.13,-79.31 65.12,-75.83 70.78,-84.79 75.13,-79.31"/>
</g>
<!-- Node5&#45;&gt;Node4 -->
<g id="edge5" class="edge">
<title>Node5&#45;&gt;Node4</title>
<path fill="none" stroke="midnightblue" d="M118.7,-112.37C111.87,-94.46 96.01,-52.92 86.85,-28.95"/>
<polygon fill="midnightblue" stroke="midnightblue" points="90.12,-27.69 83.28,-19.59 83.58,-30.18 90.12,-27.69"/>
</g>
<!-- Node6 -->
<g id="node6" class="node">
<title>Node6</title>
<g id="a_node6"><a xlink:title=" ">
<polygon fill="none" stroke="#bfbfbf" points="135,-56.5 135,-75.5 191,-75.5 191,-56.5 135,-56.5"/>
<text text-anchor="middle" x="163" y="-63.5" font-family="Helvetica,sans-Serif" font-size="10.00">stddef.h</text>
</a>
</g>
</g>
<!-- Node5&#45;&gt;Node6 -->
<g id="edge6" class="edge">
<title>Node5&#45;&gt;Node6</title>
<path fill="none" stroke="midnightblue" d="M128.77,-112.08C134.56,-104.46 143.06,-93.26 150.14,-83.94"/>
<polygon fill="midnightblue" stroke="midnightblue" points="153.1,-85.83 156.36,-75.75 147.52,-81.6 153.1,-85.83"/>
</g>
</g>
</svg>
