<?xml version="1.0" encoding="UTF-8" standalone="no"?>
<!DOCTYPE svg PUBLIC "-//W3C//DTD SVG 1.1//EN"
 "http://www.w3.org/Graphics/SVG/1.1/DTD/svg11.dtd">
<!-- Generated by graphviz version 2.44.0 ()
 -->
<!-- Title: modbusParseRequest0506 Pages: 1 -->
<svg width="524pt" height="142pt"
 viewBox="0.00 0.00 524.00 142.00" xmlns="http://www.w3.org/2000/svg" xmlns:xlink="http://www.w3.org/1999/xlink">
<g id="graph0" class="graph" transform="scale(1 1) rotate(0) translate(4 138)">
<title>modbusParseRequest0506</title>
<!-- Node1 -->
<g id="node1" class="node">
<title>Node1</title>
<g id="a_node1"><a xlink:title="Handles requests 05 and 06 (Write Single XX)">
<polygon fill="#bfbfbf" stroke="black" points="0,-57.5 0,-76.5 134,-76.5 134,-57.5 0,-57.5"/>
<text text-anchor="middle" x="67" y="-64.5" font-family="Helvetica,sans-Serif" font-size="10.00">modbusParseRequest0506</text>
</a>
</g>
</g>
<!-- Node2 -->
<g id="node2" class="node">
<title>Node2</title>
<g id="a_node2"><a xlink:href="slave_8h.html#a01b0b86602f899214d564f5bbe6ffdb2" target="_top" xlink:title="Builds an exception response frame.">
<polygon fill="none" stroke="black" points="190,-114.5 190,-133.5 305,-133.5 305,-114.5 190,-114.5"/>
<text text-anchor="middle" x="247.5" y="-121.5" font-family="Helvetica,sans-Serif" font-size="10.00">modbusBuildException</text>
</a>
</g>
</g>
<!-- Node1&#45;&gt;Node2 -->
<g id="edge1" class="edge">
<title>Node1&#45;&gt;Node2</title>
<path fill="none" stroke="midnightblue" d="M91.24,-76.52C111.75,-84.71 142.56,-96.51 170,-105 177.99,-107.47 186.52,-109.84 194.88,-112.03"/>
<polygon fill="midnightblue" stroke="midnightblue" points="194.02,-115.42 204.58,-114.49 195.75,-108.64 194.02,-115.42"/>
</g>
<!-- Node4 -->
<g id="node4" class="node">
<title>Node4</title>
<g id="a_node4"><a xlink:href="base_8h.html#a724223277fcf6255904a91f181aa1ac8" target="_top" xlink:title="Safely reads a big&#45;endian 16&#45;bit word from provided pointer.">
<polygon fill="none" stroke="black" points="212,-76.5 212,-95.5 283,-95.5 283,-76.5 212,-76.5"/>
<text text-anchor="middle" x="247.5" y="-83.5" font-family="Helvetica,sans-Serif" font-size="10.00">modbusRBE</text>
</a>
</g>
</g>
<!-- Node1&#45;&gt;Node4 -->
<g id="edge3" class="edge">
<title>Node1&#45;&gt;Node4</title>
<path fill="none" stroke="midnightblue" d="M134.21,-74.05C156.79,-76.45 181.48,-79.08 201.94,-81.26"/>
<polygon fill="midnightblue" stroke="midnightblue" points="201.61,-84.74 211.92,-82.32 202.35,-77.78 201.61,-84.74"/>
</g>
<!-- Node5 -->
<g id="node5" class="node">
<title>Node5</title>
<g id="a_node5"><a xlink:href="slave_8h.html#af92eebc644e36158bddfba128235fef6" target="_top" xlink:title="Allocates memory for slave&#39;s response frame.">
<polygon fill="none" stroke="black" points="170,-38.5 170,-57.5 325,-57.5 325,-38.5 170,-38.5"/>
<text text-anchor="middle" x="247.5" y="-45.5" font-family="Helvetica,sans-Serif" font-size="10.00">modbusSlaveAllocateResponse</text>
</a>
</g>
</g>
<!-- Node1&#45;&gt;Node5 -->
<g id="edge4" class="edge">
<title>Node1&#45;&gt;Node5</title>
<path fill="none" stroke="midnightblue" d="M134.21,-59.95C142.56,-59.06 151.19,-58.15 159.79,-57.23"/>
<polygon fill="midnightblue" stroke="midnightblue" points="160.28,-60.7 169.85,-56.16 159.54,-53.74 160.28,-60.7"/>
</g>
<!-- Node6 -->
<g id="node6" class="node">
<title>Node6</title>
<g id="a_node6"><a xlink:href="base_8h.html#ae117274d7263b4d1bc696eb1874b3279" target="_top" xlink:title="Safely writes a big&#45;endian 16&#45;bit word to provided pointer.">
<polygon fill="none" stroke="black" points="211,-0.5 211,-19.5 284,-19.5 284,-0.5 211,-0.5"/>
<text text-anchor="middle" x="247.5" y="-7.5" font-family="Helvetica,sans-Serif" font-size="10.00">modbusWBE</text>
</a>
</g>
</g>
<!-- Node1&#45;&gt;Node6 -->
<g id="edge5" class="edge">
<title>Node1&#45;&gt;Node6</title>
<path fill="none" stroke="midnightblue" d="M91.24,-57.48C111.75,-49.29 142.56,-37.49 170,-29 179.9,-25.94 190.64,-23.02 200.86,-20.44"/>
<polygon fill="midnightblue" stroke="midnightblue" points="201.98,-23.77 210.85,-17.97 200.3,-16.97 201.98,-23.77"/>
</g>
<!-- Node3 -->
<g id="node3" class="node">
<title>Node3</title>
<g id="a_node3"><a xlink:href="slave_8impl_8h.html#a9171547f92321e8a5c9ed60cec59f00a" target="_top" xlink:title="Allocates memory for slave&#39;s response frame.">
<polygon fill="none" stroke="black" points="361,-114.5 361,-133.5 516,-133.5 516,-114.5 361,-114.5"/>
<text text-anchor="middle" x="438.5" y="-121.5" font-family="Helvetica,sans-Serif" font-size="10.00">modbusSlaveAllocateResponse</text>
</a>
</g>
</g>
<!-- Node2&#45;&gt;Node3 -->
<g id="edge2" class="edge">
<title>Node2&#45;&gt;Node3</title>
<path fill="none" stroke="midnightblue" d="M305.21,-124C319.57,-124 335.32,-124 350.79,-124"/>
<polygon fill="midnightblue" stroke="midnightblue" points="350.91,-127.5 360.91,-124 350.91,-120.5 350.91,-127.5"/>
</g>
</g>
</svg>
