<?xml version="1.0" encoding="UTF-8" standalone="no"?>
<!DOCTYPE svg PUBLIC "-//W3C//DTD SVG 1.1//EN"
 "http://www.w3.org/Graphics/SVG/1.1/DTD/svg11.dtd">
<!-- Generated by graphviz version 2.48.0 (0)
 -->
<!-- Title: ModbusSlave Pages: 1 -->
<svg width="239pt" height="175pt"
 viewBox="0.00 0.00 238.50 175.00" xmlns="http://www.w3.org/2000/svg" xmlns:xlink="http://www.w3.org/1999/xlink">
<g id="graph0" class="graph" transform="scale(1 1) rotate(0) translate(4 171)">
<title>ModbusSlave</title>
<!-- Node1 -->
<g id="node1" class="node">
<title>Node1</title>
<g id="a_node1"><a xlink:title="Slave device status.">
<polygon fill="#bfbfbf" stroke="black" points="39.5,-7 39.5,-26 121.5,-26 121.5,-7 39.5,-7"/>
<text text-anchor="middle" x="80.5" y="-14" font-family="Helvetica,sans-Serif" font-size="10.00">ModbusSlave</text>
</a>
</g>
</g>
<!-- Node1&#45;&gt;Node1 -->
<g id="edge3" class="edge">
<title>Node1&#45;&gt;Node1</title>
<path fill="none" stroke="#9a32cd" stroke-dasharray="5,2" d="M131.76,-22.49C136.51,-21.26 139.5,-19.26 139.5,-16.5 139.5,-12.09 131.84,-9.62 121.58,-9.1"/>
<polygon fill="#9a32cd" stroke="#9a32cd" points="131.01,-19.06 121.58,-23.9 131.97,-26 131.01,-19.06"/>
<text text-anchor="middle" x="185" y="-25" font-family="Helvetica,sans-Serif" font-size="10.00"> allocator</text>
<text text-anchor="middle" x="185" y="-14" font-family="Helvetica,sans-Serif" font-size="10.00">exceptionCallback</text>
<text text-anchor="middle" x="185" y="-3" font-family="Helvetica,sans-Serif" font-size="10.00">registerCallback</text>
</g>
<!-- Node2 -->
<g id="node2" class="node">
<title>Node2</title>
<g id="a_node2"><a xlink:href="structModbusSlaveFunctionHandler.html" target="_top" xlink:title="Associates Modbus function ID with a pointer to a parsing function.">
<polygon fill="none" stroke="black" points="0,-80.5 0,-99.5 161,-99.5 161,-80.5 0,-80.5"/>
<text text-anchor="middle" x="80.5" y="-87.5" font-family="Helvetica,sans-Serif" font-size="10.00">ModbusSlaveFunctionHandler</text>
</a>
</g>
</g>
<!-- Node2&#45;&gt;Node1 -->
<g id="edge1" class="edge">
<title>Node2&#45;&gt;Node1</title>
<path fill="none" stroke="#9a32cd" stroke-dasharray="5,2" d="M80.5,-70.09C80.5,-55.93 80.5,-37.2 80.5,-26.34"/>
<polygon fill="#9a32cd" stroke="#9a32cd" points="77,-70.23 80.5,-80.23 84,-70.23 77,-70.23"/>
<text text-anchor="middle" x="105" y="-54" font-family="Helvetica,sans-Serif" font-size="10.00"> functions</text>
</g>
<!-- Node3 -->
<g id="node3" class="node">
<title>Node3</title>
<g id="a_node3"><a xlink:href="structModbusErrorInfo.html" target="_top" xlink:title="Error represenation &#45; source and type of error.">
<polygon fill="none" stroke="black" points="32,-147.5 32,-166.5 129,-166.5 129,-147.5 32,-147.5"/>
<text text-anchor="middle" x="80.5" y="-154.5" font-family="Helvetica,sans-Serif" font-size="10.00">ModbusErrorInfo</text>
</a>
</g>
</g>
<!-- Node3&#45;&gt;Node2 -->
<g id="edge2" class="edge">
<title>Node3&#45;&gt;Node2</title>
<path fill="none" stroke="#9a32cd" stroke-dasharray="5,2" d="M80.5,-137.04C80.5,-124.67 80.5,-109.12 80.5,-99.63"/>
<polygon fill="#9a32cd" stroke="#9a32cd" points="77,-137.23 80.5,-147.23 84,-137.23 77,-137.23"/>
<text text-anchor="middle" x="89" y="-121" font-family="Helvetica,sans-Serif" font-size="10.00"> ptr</text>
</g>
</g>
</svg>
