<?xml version="1.0" encoding="UTF-8" standalone="no"?>
<!DOCTYPE svg PUBLIC "-//W3C//DTD SVG 1.1//EN"
 "http://www.w3.org/Graphics/SVG/1.1/DTD/svg11.dtd">
<!-- Generated by graphviz version 2.48.0 (0)
 -->
<!-- Title: ModbusMaster Pages: 1 -->
<svg width="246pt" height="175pt"
 viewBox="0.00 0.00 245.50 175.00" xmlns="http://www.w3.org/2000/svg" xmlns:xlink="http://www.w3.org/1999/xlink">
<g id="graph0" class="graph" transform="scale(1 1) rotate(0) translate(4 171)">
<title>ModbusMaster</title>
<!-- Node1 -->
<g id="node1" class="node">
<title>Node1</title>
<g id="a_node1"><a xlink:title="Master device status.">
<polygon fill="#bfbfbf" stroke="black" points="39.5,-7 39.5,-26 128.5,-26 128.5,-7 39.5,-7"/>
<text text-anchor="middle" x="84" y="-14" font-family="Helvetica,sans-Serif" font-size="10.00">ModbusMaster</text>
</a>
</g>
</g>
<!-- Node1&#45;&gt;Node1 -->
<g id="edge3" class="edge">
<title>Node1&#45;&gt;Node1</title>
<path fill="none" stroke="#9a32cd" stroke-dasharray="5,2" d="M138.83,-22.36C143.55,-21.11 146.5,-19.16 146.5,-16.5 146.5,-12.24 138.95,-9.8 128.66,-9.17"/>
<polygon fill="#9a32cd" stroke="#9a32cd" points="138.06,-18.93 128.66,-23.83 139.06,-25.86 138.06,-18.93"/>
<text text-anchor="middle" x="192" y="-25" font-family="Helvetica,sans-Serif" font-size="10.00"> allocator</text>
<text text-anchor="middle" x="192" y="-14" font-family="Helvetica,sans-Serif" font-size="10.00">dataCallback</text>
<text text-anchor="middle" x="192" y="-3" font-family="Helvetica,sans-Serif" font-size="10.00">exceptionCallback</text>
</g>
<!-- Node2 -->
<g id="node2" class="node">
<title>Node2</title>
<g id="a_node2"><a xlink:href="structModbusMasterFunctionHandler.html" target="_top" xlink:title="Associates Modbus function ID with a pointer to a response parsing function.">
<polygon fill="none" stroke="black" points="0,-80.5 0,-99.5 168,-99.5 168,-80.5 0,-80.5"/>
<text text-anchor="middle" x="84" y="-87.5" font-family="Helvetica,sans-Serif" font-size="10.00">ModbusMasterFunctionHandler</text>
</a>
</g>
</g>
<!-- Node2&#45;&gt;Node1 -->
<g id="edge1" class="edge">
<title>Node2&#45;&gt;Node1</title>
<path fill="none" stroke="#9a32cd" stroke-dasharray="5,2" d="M84,-70.09C84,-55.93 84,-37.2 84,-26.34"/>
<polygon fill="#9a32cd" stroke="#9a32cd" points="80.5,-70.23 84,-80.23 87.5,-70.23 80.5,-70.23"/>
<text text-anchor="middle" x="108.5" y="-54" font-family="Helvetica,sans-Serif" font-size="10.00"> functions</text>
</g>
<!-- Node3 -->
<g id="node3" class="node">
<title>Node3</title>
<g id="a_node3"><a xlink:href="structModbusErrorInfo.html" target="_top" xlink:title="Error represenation &#45; source and type of error.">
<polygon fill="none" stroke="black" points="35.5,-147.5 35.5,-166.5 132.5,-166.5 132.5,-147.5 35.5,-147.5"/>
<text text-anchor="middle" x="84" y="-154.5" font-family="Helvetica,sans-Serif" font-size="10.00">ModbusErrorInfo</text>
</a>
</g>
</g>
<!-- Node3&#45;&gt;Node2 -->
<g id="edge2" class="edge">
<title>Node3&#45;&gt;Node2</title>
<path fill="none" stroke="#9a32cd" stroke-dasharray="5,2" d="M84,-137.04C84,-124.67 84,-109.12 84,-99.63"/>
<polygon fill="#9a32cd" stroke="#9a32cd" points="80.5,-137.23 84,-147.23 87.5,-137.23 80.5,-137.23"/>
<text text-anchor="middle" x="92.5" y="-121" font-family="Helvetica,sans-Serif" font-size="10.00"> ptr</text>
</g>
</g>
</svg>
